<svg width="65" height="65" viewBox="0 0 65 65" fill="none" xmlns="http://www.w3.org/2000/svg">
<rect x="9.47917" y="9.47917" width="46.0417" height="46.0417" rx="4.0625" stroke="#08003F" stroke-width="2.70833"/>
<path d="M10.833 13.5418C10.833 12.0461 12.0456 10.8335 13.5413 10.8335H51.458C52.9538 10.8335 54.1663 12.0461 54.1663 13.5418V18.9585H10.833V13.5418Z" fill="#15E7BD"/>
<circle cx="14.8962" cy="14.8957" r="1.35417" fill="#08003F"/>
<circle cx="20.3122" cy="14.8957" r="1.35417" fill="#08003F"/>
<circle cx="25.7292" cy="14.8957" r="1.35417" fill="#08003F"/>
<path d="M14.8955 48.75L50.1038 48.75" stroke="#08003F" stroke-width="2.70833" stroke-linecap="round"/>
<mask id="path-7-inside-1_46_2630" fill="white">
<path d="M37.2777 22.4776L37.2777 41.2414C37.2777 41.2414 32.5871 38.6301 29.2524 37.3731C25.9178 36.1162 19.7715 36.0188 19.7715 36.0188L19.7684 27.8942C19.7684 27.8942 24.5652 27.8937 29.2524 26.5398C33.9397 25.1859 37.2777 22.4776 37.2777 22.4776Z"/>
</mask>
<path d="M37.2777 22.4776L39.986 22.4776L39.986 16.7924L35.5712 20.3744L37.2777 22.4776ZM37.2777 41.2414L35.9603 43.6078L39.986 45.849L39.986 41.2414L37.2777 41.2414ZM19.7715 36.0188L17.0632 36.0198L17.0642 38.6845L19.7286 38.7268L19.7715 36.0188ZM19.7684 27.8942L19.7681 25.1859L17.0591 25.1862L17.0601 27.8953L19.7684 27.8942ZM34.5693 22.4776L34.5693 41.2414L39.986 41.2414L39.986 22.4776L34.5693 22.4776ZM22.4798 36.0177L22.4767 27.8932L17.0601 27.8953L17.0632 36.0198L22.4798 36.0177ZM19.7684 27.8942C19.7687 30.6026 19.7691 30.6026 19.7695 30.6026C19.7697 30.6026 19.7701 30.6026 19.7704 30.6026C19.7711 30.6026 19.7718 30.6026 19.7726 30.6026C19.7741 30.6026 19.776 30.6026 19.7782 30.6025C19.7825 30.6025 19.7881 30.6025 19.7947 30.6025C19.8081 30.6024 19.826 30.6023 19.8484 30.6021C19.8931 30.6017 19.9557 30.6009 20.035 30.5994C20.1934 30.5964 20.4186 30.5906 20.7009 30.5791C21.2647 30.5562 22.0601 30.5109 23.0085 30.421C24.891 30.2424 27.4423 29.8817 30.004 29.1418L28.5009 23.9379C26.3753 24.5518 24.1846 24.8684 22.4969 25.0285C21.6602 25.1079 20.9634 25.1473 20.4814 25.1669C20.2408 25.1766 20.0546 25.1814 19.9324 25.1837C19.8713 25.1849 19.8263 25.1854 19.7985 25.1857C19.7846 25.1858 19.775 25.1859 19.7699 25.1859C19.7673 25.1859 19.7659 25.1859 19.7656 25.1859C19.7655 25.1859 19.7656 25.1859 19.766 25.1859C19.7662 25.1859 19.7665 25.1859 19.7669 25.1859C19.767 25.1859 19.7674 25.1859 19.7674 25.1859C19.7678 25.1859 19.7681 25.1859 19.7684 27.8942ZM30.004 29.1418C32.633 28.3824 34.8551 27.2535 36.4091 26.3276C37.1909 25.8618 37.8165 25.4396 38.2541 25.1278C38.4732 24.9718 38.6462 24.8427 38.7689 24.749C38.8304 24.7021 38.8793 24.6639 38.9153 24.6355C38.9333 24.6214 38.9481 24.6096 38.9596 24.6004C38.9653 24.5958 38.9702 24.5919 38.9743 24.5886C38.9764 24.5869 38.9782 24.5855 38.9798 24.5841C38.9806 24.5835 38.9814 24.5829 38.9821 24.5823C38.9825 24.582 38.983 24.5816 38.9831 24.5815C38.9836 24.5811 38.9841 24.5807 37.2777 22.4776C35.5712 20.3744 35.5717 20.3741 35.5721 20.3737C35.5722 20.3736 35.5726 20.3733 35.5729 20.3731C35.5734 20.3727 35.5739 20.3723 35.5743 20.372C35.5751 20.3713 35.5757 20.3708 35.5761 20.3705C35.577 20.3698 35.577 20.3697 35.5763 20.3703C35.5749 20.3715 35.5703 20.3751 35.5627 20.3811C35.5476 20.393 35.5202 20.4144 35.4812 20.4442C35.4031 20.5038 35.2787 20.597 35.1116 20.7159C34.7769 20.9543 34.275 21.2939 33.6365 21.6743C32.3496 22.4411 30.5592 23.3433 28.5009 23.9379L30.004 29.1418ZM37.2777 41.2414C38.595 38.8751 38.5949 38.875 38.5948 38.8749C38.5947 38.8749 38.5945 38.8748 38.5944 38.8747C38.5941 38.8746 38.5937 38.8744 38.5933 38.8741C38.5924 38.8736 38.5912 38.873 38.5898 38.8722C38.5869 38.8706 38.5829 38.8684 38.5778 38.8655C38.5676 38.8598 38.5529 38.8517 38.534 38.8413C38.4962 38.8204 38.4415 38.7902 38.3712 38.7517C38.2307 38.6747 38.0281 38.5644 37.7752 38.4284C37.27 38.1567 36.5614 37.7815 35.7452 37.3656C34.1362 36.5456 32.0208 35.5223 30.2077 34.8389L28.2972 39.9074C29.8187 40.4809 31.7159 41.3918 33.2859 42.1917C34.0591 42.5858 34.7316 42.9419 35.2101 43.1992C35.449 43.3277 35.6389 43.4311 35.768 43.5018C35.8325 43.5372 35.8818 43.5643 35.9143 43.5823C35.9306 43.5913 35.9427 43.598 35.9504 43.6023C35.9543 43.6044 35.957 43.606 35.9587 43.6069C35.9595 43.6074 35.9601 43.6077 35.9603 43.6078C35.9605 43.6079 35.9605 43.6079 35.9605 43.6079C35.9605 43.6079 35.9604 43.6079 35.9604 43.6079C35.9604 43.6078 35.9603 43.6078 37.2777 41.2414ZM30.2077 34.8389C28.1739 34.0722 25.4889 33.7115 23.512 33.5279C22.4834 33.4323 21.5673 33.3783 20.9078 33.3481C20.5773 33.333 20.3093 33.3238 20.1215 33.3182C20.0275 33.3155 19.9535 33.3137 19.9016 33.3125C19.8757 33.3119 19.8552 33.3115 19.8406 33.3112C19.8333 33.3111 19.8274 33.311 19.8231 33.3109C19.8209 33.3109 19.8191 33.3109 19.8176 33.3108C19.8169 33.3108 19.8163 33.3108 19.8157 33.3108C19.8155 33.3108 19.8151 33.3108 19.815 33.3108C19.8147 33.3108 19.8144 33.3108 19.7715 36.0188C19.7286 38.7268 19.7283 38.7268 19.7281 38.7268C19.7281 38.7268 19.7279 38.7268 19.7278 38.7268C19.7276 38.7267 19.7276 38.7267 19.7276 38.7267C19.7276 38.7267 19.7281 38.7268 19.7288 38.7268C19.7304 38.7268 19.7334 38.7269 19.7378 38.7269C19.7467 38.7271 19.7612 38.7274 19.781 38.7278C19.8208 38.7287 19.8821 38.7302 19.9627 38.7326C20.1241 38.7373 20.3622 38.7455 20.6601 38.7591C21.2572 38.7865 22.0862 38.8354 23.0109 38.9213C24.9409 39.1006 26.9964 39.4171 28.2972 39.9074L30.2077 34.8389Z" fill="#08003F" mask="url(#path-7-inside-1_46_2630)"/>
<path d="M31.1455 28.4375V33.8542" stroke="#08003F" stroke-width="2.70833" stroke-linecap="round"/>
<path d="M25.1898 44.144L22.4814 36.019H26.5439L29.2523 44.144H25.1898Z" stroke="#08003F" stroke-width="2.70833" stroke-linecap="round"/>
<path d="M41.4395 27.8939L45.502 25.1855M41.4395 31.9564H45.502M41.4395 36.0189L45.502 38.7272" stroke="#15E7BD" stroke-width="2.70833" stroke-linecap="round"/>
</svg>
