<svg width="65" height="65" viewBox="0 0 65 65" fill="none" xmlns="http://www.w3.org/2000/svg">
<rect x="9.47917" y="9.47917" width="46.0417" height="46.0417" rx="4.0625" stroke="#08003F" stroke-width="2.70833"/>
<path d="M10.833 13.5418C10.833 12.0461 12.0456 10.8335 13.5413 10.8335H51.458C52.9538 10.8335 54.1663 12.0461 54.1663 13.5418V18.9585H10.833V13.5418Z" fill="#15E7BD"/>
<circle cx="14.8962" cy="14.8957" r="1.35417" fill="#08003F"/>
<circle cx="20.3122" cy="14.8957" r="1.35417" fill="#08003F"/>
<circle cx="25.7292" cy="14.8957" r="1.35417" fill="#08003F"/>
<path d="M14.8955 48.75L50.1038 48.75" stroke="#15E7BD" stroke-width="2.70833" stroke-linecap="round"/>
<path d="M21.4825 39.7803C20.15 39.7803 19.0558 39.4661 18.2 38.8378C17.3442 38.1986 16.8838 37.2886 16.8188 36.1078H20.215C20.2475 36.5086 20.3667 36.8011 20.5725 36.9853C20.7783 37.1694 21.0438 37.2615 21.3688 37.2615C21.6613 37.2615 21.8996 37.1911 22.0838 37.0503C22.2788 36.8986 22.3763 36.6928 22.3763 36.4328C22.3763 36.0969 22.2192 35.8369 21.905 35.6528C21.5908 35.4686 21.0817 35.2628 20.3775 35.0353C19.63 34.7861 19.0233 34.5478 18.5575 34.3203C18.1025 34.0819 17.7017 33.7407 17.355 33.2965C17.0192 32.8415 16.8513 32.2511 16.8513 31.5253C16.8513 30.7886 17.0354 30.1603 17.4038 29.6403C17.7721 29.1094 18.2813 28.7086 18.9313 28.4378C19.5813 28.1669 20.3179 28.0315 21.1413 28.0315C22.4738 28.0315 23.5354 28.3457 24.3263 28.974C25.1279 29.5915 25.5558 30.4636 25.61 31.5903H22.1488C22.1379 31.2436 22.0296 30.9836 21.8238 30.8103C21.6288 30.6369 21.3742 30.5503 21.06 30.5503C20.8217 30.5503 20.6267 30.6207 20.475 30.7615C20.3233 30.9023 20.2475 31.1028 20.2475 31.3628C20.2475 31.5794 20.3288 31.769 20.4913 31.9315C20.6646 32.0832 20.8758 32.2186 21.125 32.3378C21.3742 32.4461 21.7425 32.5869 22.23 32.7603C22.9558 33.0094 23.5517 33.2586 24.0175 33.5078C24.4942 33.7461 24.9004 34.0873 25.2363 34.5315C25.5829 34.9648 25.7563 35.5173 25.7563 36.189C25.7563 36.8715 25.5829 37.4836 25.2363 38.0253C24.9004 38.5669 24.4075 38.9948 23.7575 39.309C23.1183 39.6232 22.36 39.7803 21.4825 39.7803ZM30.4219 30.7615V32.6303H34.0782V35.0515H30.4219V37.1153H34.5657V39.6665H27.2369V28.2103H34.5657V30.7615H30.4219ZM41.632 39.7803C40.5595 39.7803 39.5737 39.5311 38.6745 39.0328C37.7753 38.5236 37.0603 37.8248 36.5295 36.9365C36.0095 36.0373 35.7495 35.0244 35.7495 33.8978C35.7495 32.7711 36.0095 31.7636 36.5295 30.8753C37.0603 29.9761 37.7753 29.2773 38.6745 28.779C39.5737 28.2807 40.5595 28.0315 41.632 28.0315C42.7153 28.0315 43.7012 28.2807 44.5895 28.779C45.4887 29.2773 46.1982 29.9761 46.7182 30.8753C47.2382 31.7636 47.4982 32.7711 47.4982 33.8978C47.4982 35.0244 47.2382 36.0373 46.7182 36.9365C46.1982 37.8248 45.4887 38.5236 44.5895 39.0328C43.6903 39.5311 42.7045 39.7803 41.632 39.7803ZM41.632 36.8228C42.4445 36.8228 43.0837 36.5573 43.5495 36.0265C44.0262 35.4957 44.2645 34.7861 44.2645 33.8978C44.2645 32.9878 44.0262 32.2728 43.5495 31.7528C43.0837 31.2219 42.4445 30.9565 41.632 30.9565C40.8087 30.9565 40.1641 31.2219 39.6982 31.7528C39.2324 32.2728 38.9995 32.9878 38.9995 33.8978C38.9995 34.7969 39.2324 35.5119 39.6982 36.0428C40.1641 36.5628 40.8087 36.8228 41.632 36.8228Z" fill="#08003F"/>
</svg>
