<svg width="65" height="65" viewBox="0 0 65 65" fill="none" xmlns="http://www.w3.org/2000/svg">
<g clip-path="url(#clip0_46_2631)">
<path d="M52.7464 52.7502C49.9808 55.5159 45.2465 56.1919 39.4538 54.5368C33.7115 52.8962 27.2485 49.03 21.4916 43.2731C15.7347 37.5162 11.8685 31.0532 10.2278 25.3109C8.57277 19.5182 9.24883 14.7839 12.0145 12.0183C14.7801 9.25265 19.5143 8.57659 25.3071 10.2317C31.0494 11.8723 37.5124 15.7385 43.2693 21.4954C49.0262 27.2523 52.8924 33.7153 54.533 39.4576C56.1881 45.2503 55.512 49.9846 52.7464 52.7502Z" stroke="#08003F" stroke-width="2.70833"/>
<path d="M12.3084 50.5623C14.9875 53.2414 19.5192 53.9391 25.0304 52.4259C30.4979 50.9247 36.6325 47.304 42.0723 41.8643C47.512 36.4245 51.1327 30.2899 52.6339 24.8224C54.1471 19.3112 53.4494 14.7795 50.7702 12.1004C48.0911 9.4212 43.5594 8.72356 38.0483 10.2367C32.5808 11.7379 26.4461 15.3586 21.0064 20.7984C15.5666 26.2381 11.9459 32.3728 10.4447 37.8403C8.93155 43.3514 9.6292 47.8831 12.3084 50.5623Z" stroke="#08003F" stroke-width="2.70833"/>
<path d="M31.4876 18.3872C26.1628 18.3872 21.8311 22.7189 21.8311 28.0438C21.8311 31.5154 23.6681 34.6731 26.6593 36.3992V37.3085C26.1733 37.6762 25.8545 38.2532 25.8545 38.9083C25.8545 39.3629 26.0115 39.7783 26.2665 40.1154C26.0114 40.4517 25.8545 40.8671 25.8545 41.3217C25.8545 42.4314 26.7566 43.3335 27.8664 43.3335H35.1088C36.2185 43.3335 37.1206 42.4314 37.1206 41.3217C37.1206 40.8671 36.9636 40.4517 36.7086 40.1146C36.9638 39.7774 37.1206 39.3622 37.1206 38.9075C37.1206 38.2525 36.8019 37.6755 36.3159 37.3077V36.3983C39.307 34.6723 41.1441 31.5154 41.1441 28.043C41.1442 22.7189 36.8125 18.3872 31.4876 18.3872ZM35.1089 41.7239H27.8665C27.6452 41.7239 27.4642 41.5429 27.4642 41.3215C27.4642 41.1001 27.6452 40.9191 27.8665 40.9191H35.1089C35.3303 40.9191 35.5113 41.1001 35.5113 41.3215C35.5115 41.5429 35.3303 41.7239 35.1089 41.7239ZM35.1089 39.3098H27.8665C27.6452 39.3098 27.4642 39.1289 27.4642 38.9075C27.4642 38.6861 27.6452 38.5051 27.8665 38.5051H35.1089C35.3303 38.5051 35.5113 38.6861 35.5113 38.9075C35.5113 39.1289 35.3303 39.3098 35.1089 39.3098ZM35.1442 35.2041L34.7066 35.4293V36.8955H32.2924V31.1481C33.6772 30.7884 34.7066 29.5387 34.7066 28.0436C34.7066 26.2684 33.2629 24.8247 31.4876 24.8247C29.7124 24.8247 28.2687 26.2684 28.2687 28.0436C28.2687 29.5389 29.2979 30.7885 30.6829 31.1481V36.8955H28.2687V35.4293L27.831 35.2047C25.1231 33.819 23.4405 31.075 23.4405 28.0436C23.4405 23.6065 27.0505 19.9965 31.4876 19.9965C35.9248 19.9965 39.5348 23.6065 39.5348 28.0436C39.5348 31.0751 37.8523 33.8192 35.1442 35.2041ZM31.4876 29.6533C30.6001 29.6533 29.8782 28.9315 29.8782 28.0438C29.8782 27.1563 30.5999 26.4343 31.4876 26.4343C32.3753 26.4343 33.0971 27.1561 33.0971 28.0438C33.0973 28.9313 32.3755 29.6533 31.4876 29.6533Z" fill="#15E7BD"/>
<circle cx="12.1878" cy="31.1458" r="5.41667" fill="white" stroke="#08003F" stroke-width="2.70833"/>
<circle cx="50.1038" cy="31.1458" r="5.41667" fill="white" stroke="#08003F" stroke-width="2.70833"/>
</g>
<defs>
<clipPath id="clip0_46_2631">
<rect width="65" height="65" fill="white"/>
</clipPath>
</defs>
</svg>
