<svg width="120" height="120" viewBox="0 0 120 120" fill="none" xmlns="http://www.w3.org/2000/svg">
<circle cx="60" cy="30" r="12.5" stroke="#08003F" stroke-width="5"/>
<mask id="path-2-inside-1_28_4181" fill="white">
<path d="M85 70C85 63.3696 82.3661 57.0107 77.6777 52.3223C72.9893 47.6339 66.6304 45 60 45C53.3696 45 47.0107 47.6339 42.3223 52.3223C37.6339 57.0107 35 63.3696 35 70L60 70H85Z"/>
</mask>
<path d="M85 70C85 63.3696 82.3661 57.0107 77.6777 52.3223C72.9893 47.6339 66.6304 45 60 45C53.3696 45 47.0107 47.6339 42.3223 52.3223C37.6339 57.0107 35 63.3696 35 70L60 70H85Z" stroke="#08003F" stroke-width="10" mask="url(#path-2-inside-1_28_4181)"/>
<mask id="path-3-inside-2_28_4181" fill="white">
<path d="M45 50C45 46.0218 43.4196 42.2064 40.6066 39.3934C37.7936 36.5804 33.9782 35 30 35C26.0218 35 22.2064 36.5804 19.3934 39.3934C16.5804 42.2064 15 46.0218 15 50L30 50H45Z"/>
</mask>
<path d="M45 50C45 46.0218 43.4196 42.2064 40.6066 39.3934C37.7936 36.5804 33.9782 35 30 35C26.0218 35 22.2064 36.5804 19.3934 39.3934C16.5804 42.2064 15 46.0218 15 50L30 50H45Z" stroke="#15E7BD" stroke-width="10" mask="url(#path-3-inside-2_28_4181)"/>
<mask id="path-4-inside-3_28_4181" fill="white">
<path d="M105 50C105 46.0218 103.42 42.2064 100.607 39.3934C97.7936 36.5804 93.9782 35 90 35C86.0218 35 82.2064 36.5804 79.3934 39.3934C76.5804 42.2064 75 46.0218 75 50L90 50H105Z"/>
</mask>
<path d="M105 50C105 46.0218 103.42 42.2064 100.607 39.3934C97.7936 36.5804 93.9782 35 90 35C86.0218 35 82.2064 36.5804 79.3934 39.3934C76.5804 42.2064 75 46.0218 75 50L90 50H105Z" stroke="#15E7BD" stroke-width="10" mask="url(#path-4-inside-3_28_4181)"/>
<circle cx="90" cy="25" r="7.5" stroke="#15E7BD" stroke-width="5"/>
<circle cx="30" cy="25" r="7.5" stroke="#15E7BD" stroke-width="5"/>
<path d="M32.5 69.8844L35.5305 76.6365L36 77.6827L37.1401 77.8059L44.4982 78.6016L39.013 83.5702L38.1631 84.3401L38.3982 85.4624L39.9153 92.7062L33.4948 89.025L32.5 88.4546L31.5052 89.025L25.0847 92.7062L26.6018 85.4624L26.8369 84.3401L25.987 83.5702L20.5018 78.6016L27.8599 77.8059L29 77.6827L29.4695 76.6365L32.5 69.8844Z" stroke="#08003F" stroke-width="4"/>
<path d="M87.5 69.8844L90.5305 76.6365L91 77.6827L92.1401 77.8059L99.4982 78.6016L94.013 83.5702L93.1631 84.3401L93.3982 85.4624L94.9153 92.7062L88.4948 89.025L87.5 88.4546L86.5052 89.025L80.0847 92.7062L81.6018 85.4624L81.8369 84.3401L80.987 83.5702L75.5018 78.6016L82.8599 77.8059L84 77.6827L84.4695 76.6365L87.5 69.8844Z" stroke="#08003F" stroke-width="4"/>
<path d="M60 79.8844L62.3369 85.0911L62.8064 86.1373L63.9465 86.2606L69.6205 86.8741L65.3908 90.7056L64.5409 91.4754L64.7759 92.5978L65.9458 98.1837L60.9948 95.345L60 94.7746L59.0052 95.345L54.0542 98.1837L55.2241 92.5978L55.4591 91.4754L54.6092 90.7056L50.3795 86.8741L56.0535 86.2606L57.1936 86.1373L57.6631 85.0911L60 79.8844Z" stroke="#15E7BD" stroke-width="4"/>
</svg>
