<svg width="120" height="120" viewBox="0 0 120 120" fill="none" xmlns="http://www.w3.org/2000/svg">
<mask id="path-1-inside-1_28_4182" fill="white">
<path fill-rule="evenodd" clip-rule="evenodd" d="M21.4583 26.5901C12.8459 35.3769 12.8459 49.6231 21.4583 58.4099L56.253 93.9093L56.2815 93.8803L60.0297 97.7044L98.5433 58.4109C107.156 49.6241 107.156 35.3778 98.5433 26.5911C89.9309 17.8043 75.9675 17.8042 67.3551 26.591L60.0012 34.0939L52.6465 26.5901C44.0341 17.8033 30.0707 17.8033 21.4583 26.5901Z"/>
</mask>
<path d="M21.4583 58.4099L17.8875 61.9098H17.8875L21.4583 58.4099ZM21.4583 26.5901L25.0291 30.09L21.4583 26.5901ZM56.253 93.9093L52.6822 97.4092L56.2532 101.053L59.824 97.409L56.253 93.9093ZM56.2815 93.8803L59.8523 90.3804L56.2813 86.737L52.7105 90.3806L56.2815 93.8803ZM60.0297 97.7044L56.4589 101.204L60.0297 104.847L63.6005 101.204L60.0297 97.7044ZM98.5433 58.4109L102.114 61.9108L98.5433 58.4109ZM98.5433 26.5911L102.114 23.0911V23.0911L98.5433 26.5911ZM67.3551 26.591L70.9259 30.091L67.3551 26.591ZM60.0012 34.0939L56.4305 37.5938L60.0012 41.2369L63.572 37.5938L60.0012 34.0939ZM52.6465 26.5901L56.2172 23.0902V23.0902L52.6465 26.5901ZM25.0291 54.91C18.3223 48.0674 18.3223 36.9326 25.0291 30.09L17.8875 23.0902C7.36953 33.8212 7.36953 51.1788 17.8875 61.9098L25.0291 54.91ZM59.8238 90.4094L25.0291 54.91L17.8875 61.9098L52.6822 97.4092L59.8238 90.4094ZM52.7105 90.3806L52.682 90.4096L59.824 97.409L59.8525 97.38L52.7105 90.3806ZM63.6005 94.2045L59.8523 90.3804L52.7107 97.3802L56.4589 101.204L63.6005 94.2045ZM94.9725 54.9109L56.4589 94.2045L63.6005 101.204L102.114 61.9108L94.9725 54.9109ZM94.9725 30.091C101.679 36.9336 101.679 48.0683 94.9725 54.9109L102.114 61.9108C112.632 51.1798 112.632 33.8221 102.114 23.0911L94.9725 30.091ZM70.9259 30.091C77.5779 23.3043 88.3205 23.3043 94.9725 30.091L102.114 23.0911C91.5413 12.3042 74.3571 12.3042 63.7843 23.0911L70.9259 30.091ZM63.572 37.5938L70.9259 30.091L63.7843 23.0911L56.4305 30.5939L63.572 37.5938ZM49.0757 30.09L56.4305 37.5938L63.572 30.5939L56.2172 23.0902L49.0757 30.09ZM25.0291 30.09C31.6811 23.3033 42.4237 23.3033 49.0757 30.09L56.2172 23.0902C45.6445 12.3033 28.4603 12.3033 17.8875 23.0902L25.0291 30.09Z" fill="#08003F" mask="url(#path-1-inside-1_28_4182)"/>
<path d="M60 37.5L47.5024 50C45.8357 51.6667 45.0093 55 47.5045 57.5C51.5007 61.5038 55.8368 59.1667 57.5029 57.5L67.5029 47.5C69.1696 46.6667 73.5029 46 77.5029 50L90.0029 60" stroke="#08003F" stroke-width="5" stroke-linecap="round"/>
<path d="M50 75L60 85" stroke="#15E7BD" stroke-width="5" stroke-linecap="round"/>
<path d="M77.5 32.5002C84.1667 30.8336 97 31.5002 95 47.5002" stroke="#15E7BD" stroke-width="5" stroke-linecap="round"/>
</svg>
