<svg width="120" height="120" viewBox="0 0 120 120" fill="none" xmlns="http://www.w3.org/2000/svg">
<circle cx="25" cy="55" r="7.5" stroke="#08003F" stroke-width="5"/>
<circle cx="45" cy="45" r="12.5" stroke="#15E7BD" stroke-width="5"/>
<mask id="path-3-inside-1_28_4180" fill="white">
<path d="M65 80C65 74.6957 62.8929 69.6086 59.1421 65.8579C55.3914 62.1071 50.3043 60 45 60C39.6957 60 34.6086 62.1071 30.8579 65.8579C27.1071 69.6086 25 74.6957 25 80L45 80H65Z"/>
</mask>
<path d="M65 80C65 74.6957 62.8929 69.6086 59.1421 65.8579C55.3914 62.1071 50.3043 60 45 60C39.6957 60 34.6086 62.1071 30.8579 65.8579C27.1071 69.6086 25 74.6957 25 80L45 80H65Z" fill="white" stroke="#15E7BD" stroke-width="10" mask="url(#path-3-inside-1_28_4180)"/>
<circle cx="75" cy="35" r="17.5" stroke="#08003F" stroke-width="5"/>
<path d="M15 105L37.5 97.5L77.5 102.5L95 95M95 95L82.5 92.5M95 95L90 105" stroke="#08003F" stroke-width="5" stroke-linecap="round"/>
<mask id="path-6-inside-2_28_4180" fill="white">
<path d="M105 80C105 76.717 104.224 73.4661 102.716 70.4329C101.209 67.3998 98.999 64.6438 96.2132 62.3223C93.4274 60.0009 90.1203 58.1594 86.4805 56.903C82.8407 55.6466 78.9397 55 75 55C71.0603 55 67.1593 55.6466 63.5195 56.903C59.8797 58.1594 56.5726 60.0009 53.7868 62.3223C51.001 64.6438 48.7913 67.3998 47.2836 70.4329C45.776 73.4661 45 76.717 45 80H52.7943C52.7943 77.5699 53.3686 75.1636 54.4846 72.9185C55.6005 70.6734 57.2362 68.6335 59.2982 66.9151C61.3602 65.1968 63.8081 63.8338 66.5022 62.9038C69.1964 61.9739 72.0839 61.4952 75 61.4952C77.9161 61.4952 80.8036 61.9739 83.4978 62.9038C86.1919 63.8338 88.6398 65.1968 90.7018 66.9151C92.7638 68.6335 94.3995 70.6734 95.5154 72.9185C96.6314 75.1636 97.2057 77.5699 97.2057 80H105Z"/>
</mask>
<path d="M105 80C105 76.717 104.224 73.4661 102.716 70.4329C101.209 67.3998 98.999 64.6438 96.2132 62.3223C93.4274 60.0009 90.1203 58.1594 86.4805 56.903C82.8407 55.6466 78.9397 55 75 55C71.0603 55 67.1593 55.6466 63.5195 56.903C59.8797 58.1594 56.5726 60.0009 53.7868 62.3223C51.001 64.6438 48.7913 67.3998 47.2836 70.4329C45.776 73.4661 45 76.717 45 80H52.7943C52.7943 77.5699 53.3686 75.1636 54.4846 72.9185C55.6005 70.6734 57.2362 68.6335 59.2982 66.9151C61.3602 65.1968 63.8081 63.8338 66.5022 62.9038C69.1964 61.9739 72.0839 61.4952 75 61.4952C77.9161 61.4952 80.8036 61.9739 83.4978 62.9038C86.1919 63.8338 88.6398 65.1968 90.7018 66.9151C92.7638 68.6335 94.3995 70.6734 95.5154 72.9185C96.6314 75.1636 97.2057 77.5699 97.2057 80H105Z" fill="white" stroke="#08003F" stroke-width="10" mask="url(#path-6-inside-2_28_4180)"/>
<path d="M36.348 74.7586C36.3479 74.7584 36.3479 74.7584 36.3479 74.7584C36.3471 74.7587 36.38 74.8482 36.4168 75.0723C36.4578 75.3216 36.49 75.6512 36.5085 76.0625C36.5457 76.8875 36.522 77.8912 36.4668 78.9653C36.4185 79.9048 36.3489 80.8495 36.284 81.7313C36.2751 81.8528 36.2662 81.9732 36.2575 82.0921C36.257 82.0993 36.2565 82.1065 36.256 82.1137H25L12.68 82.1137C12.4765 80.9277 12.4448 79.7154 12.5886 78.5144C12.8032 76.7211 13.404 74.9956 14.3494 73.4567C15.2948 71.9178 16.5625 70.6021 18.0652 69.6001C19.5678 68.5981 21.2698 67.9336 23.0539 67.6524C24.838 67.3712 26.6618 67.48 28.3998 67.9712C30.1378 68.4625 31.7488 69.3245 33.1217 70.498C34.4917 71.669 35.5923 73.1224 36.348 74.7586Z" fill="white" stroke="#08003F" stroke-width="5"/>
<path fill-rule="evenodd" clip-rule="evenodd" d="M95 60C89.4771 60 85 64.4772 85 70V72.5H25.4167C19.6637 72.5 15 77.1637 15 82.9167C15 84.0673 15.9327 85 17.0833 85H100C102.761 85 105 82.7614 105 80V77.5C105 77.2161 104.976 76.9377 104.931 76.6667H105V60H95Z" fill="white"/>
<path d="M15 87.5L45 77.5L67.5 82.5L105 70M105 70L92.5 65M105 70L100 82.5" stroke="#15E7BD" stroke-width="5" stroke-linecap="round"/>
</svg>
