<svg width="550" height="342" viewBox="0 0 550 342" fill="none" xmlns="http://www.w3.org/2000/svg">
<path d="M143.123 68.93H407.009C411.5 68.93 415.128 72.4794 415.128 76.8423V265.855C415.128 270.218 411.5 273.767 407.009 273.767H143.123C138.632 273.767 135.004 270.218 135.004 265.855V76.8423C135.004 72.4794 138.632 68.93 143.123 68.93Z" fill="white" stroke="#08003F" stroke-width="0.592675"/>
<path d="M142.227 59.1597H407.764C411.917 59.1597 415.284 62.4435 415.284 66.4943V88.3514H134.708V66.4943C134.708 62.4435 138.074 59.1597 142.227 59.1597Z" fill="#08003F"/>
<path d="M150.78 78.9907C153.744 78.9907 156.147 76.6469 156.147 73.7556C156.147 70.8644 153.744 68.5206 150.78 68.5206C147.816 68.5206 145.413 70.8644 145.413 73.7556C145.413 76.6469 147.816 78.9907 150.78 78.9907Z" fill="#15E7BD"/>
<path d="M170.826 78.9907C173.79 78.9907 176.193 76.6469 176.193 73.7556C176.193 70.8644 173.79 68.5206 170.826 68.5206C167.862 68.5206 165.459 70.8644 165.459 73.7556C165.459 76.6469 167.862 78.9907 170.826 78.9907Z" fill="#15E7BD"/>
<path d="M190.874 78.9907C193.838 78.9907 196.24 76.6469 196.24 73.7556C196.24 70.8644 193.838 68.5206 190.874 68.5206C187.91 68.5206 185.507 70.8644 185.507 73.7556C185.507 76.6469 187.91 78.9907 190.874 78.9907Z" fill="#15E7BD"/>
<path d="M205.436 108.332H400.054C402.51 108.332 404.474 110.269 404.474 112.629V249.544C404.474 251.904 402.51 253.841 400.054 253.841H205.436C202.981 253.841 201.016 251.904 201.016 249.544V112.629C201.016 110.269 202.981 108.332 205.436 108.332Z" fill="white" stroke="#08003F" stroke-width="1.18535"/>
<path d="M227.912 177.125L224.459 174.591L227.912 172.064L231.364 174.591L227.912 177.125Z" fill="white"/>
<path d="M186.099 164.002H150.477C149.222 164.002 148.205 164.994 148.205 166.217V171.678C148.205 172.902 149.222 173.894 150.477 173.894H186.099C187.353 173.894 188.37 172.902 188.37 171.678V166.217C188.37 164.994 187.353 164.002 186.099 164.002Z" fill="#08003F"/>
<path d="M186.133 183.047H150.442C149.207 183.047 148.205 184.024 148.205 185.229V190.458C148.205 191.663 149.207 192.64 150.442 192.64H186.133C187.369 192.64 188.37 191.663 188.37 190.458V185.229C188.37 184.024 187.369 183.047 186.133 183.047Z" fill="#15E7BD"/>
<path d="M186.133 201.705H150.442C149.207 201.705 148.205 202.682 148.205 203.887V209.116C148.205 210.321 149.207 211.298 150.442 211.298H186.133C187.369 211.298 188.37 210.321 188.37 209.116V203.887C188.37 202.682 187.369 201.705 186.133 201.705Z" fill="#15E7BD"/>
<path d="M168.288 147.847C179.361 147.847 188.339 139.091 188.339 128.288C188.339 117.486 179.361 108.729 168.288 108.729C157.214 108.729 148.236 117.486 148.236 128.288C148.236 139.091 157.214 147.847 168.288 147.847Z" fill="#15E7BD"/>
<path d="M168.288 147.847C174.067 147.85 179.552 145.36 183.27 141.044C180.34 135.619 174.571 132.223 168.285 132.223C161.999 132.223 156.23 135.619 153.3 141.044C157.02 145.361 162.507 147.851 168.288 147.847Z" fill="#08003F"/>
<path d="M168.394 133.001C172.559 133.001 175.935 129.707 175.935 125.645C175.935 121.582 172.559 118.289 168.394 118.289C164.229 118.289 160.853 121.582 160.853 125.645C160.853 129.707 164.229 133.001 168.394 133.001Z" fill="#08003F"/>
<path d="M316.64 240.346C316.027 240.346 315.525 240.551 315.15 240.96C314.775 241.36 314.579 241.905 314.579 242.586H315.278C315.286 242.05 315.414 241.641 315.652 241.368C315.874 241.079 316.197 240.942 316.615 240.942C317.007 240.942 317.322 241.045 317.543 241.249C317.765 241.454 317.875 241.735 317.875 242.109C317.875 242.501 317.713 242.867 317.407 243.2C317.245 243.37 316.93 243.617 316.453 243.958C315.806 244.4 315.371 244.767 315.133 245.039C314.724 245.491 314.528 245.993 314.528 246.547H318.582V245.925H315.388C315.499 245.516 315.942 245.048 316.717 244.528C317.347 244.102 317.765 243.77 317.978 243.549C318.369 243.123 318.574 242.646 318.574 242.118C318.574 241.59 318.386 241.155 318.029 240.832C317.662 240.508 317.202 240.346 316.64 240.346ZM321.662 240.346C320.93 240.346 320.385 240.661 320.018 241.309C319.695 241.854 319.533 242.586 319.533 243.506C319.533 244.426 319.695 245.159 320.018 245.704C320.385 246.342 320.93 246.666 321.662 246.666C322.386 246.666 322.931 246.342 323.306 245.704C323.63 245.159 323.791 244.426 323.791 243.506C323.791 242.586 323.63 241.854 323.306 241.309C322.931 240.661 322.386 240.346 321.662 240.346ZM321.662 240.942C322.207 240.942 322.599 241.232 322.838 241.82C323.008 242.229 323.102 242.791 323.102 243.506C323.102 244.213 323.008 244.775 322.838 245.193C322.599 245.772 322.207 246.07 321.662 246.07C321.117 246.07 320.725 245.772 320.487 245.193C320.316 244.775 320.231 244.213 320.231 243.506C320.231 242.791 320.316 242.229 320.487 241.82C320.725 241.232 321.117 240.942 321.662 240.942ZM326.854 240.346C326.241 240.346 325.739 240.551 325.364 240.96C324.989 241.36 324.793 241.905 324.793 242.586H325.492C325.5 242.05 325.628 241.641 325.866 241.368C326.088 241.079 326.411 240.942 326.829 240.942C327.221 240.942 327.536 241.045 327.757 241.249C327.979 241.454 328.089 241.735 328.089 242.109C328.089 242.501 327.927 242.867 327.621 243.2C327.459 243.37 327.144 243.617 326.667 243.958C326.02 244.4 325.585 244.767 325.347 245.039C324.938 245.491 324.742 245.993 324.742 246.547H328.796V245.925H325.602C325.713 245.516 326.156 245.048 326.931 244.528C327.561 244.102 327.979 243.77 328.192 243.549C328.583 243.123 328.788 242.646 328.788 242.118C328.788 241.59 328.6 241.155 328.243 240.832C327.876 240.508 327.416 240.346 326.854 240.346ZM331.876 240.346C331.144 240.346 330.599 240.661 330.232 241.309C329.909 241.854 329.747 242.586 329.747 243.506C329.747 244.426 329.909 245.159 330.232 245.704C330.599 246.342 331.144 246.666 331.876 246.666C332.6 246.666 333.145 246.342 333.52 245.704C333.844 245.159 334.005 244.426 334.005 243.506C334.005 242.586 333.844 241.854 333.52 241.309C333.145 240.661 332.6 240.346 331.876 240.346ZM331.876 240.942C332.421 240.942 332.813 241.232 333.052 241.82C333.222 242.229 333.316 242.791 333.316 243.506C333.316 244.213 333.222 244.775 333.052 245.193C332.813 245.772 332.421 246.07 331.876 246.07C331.331 246.07 330.939 245.772 330.701 245.193C330.53 244.775 330.445 244.213 330.445 243.506C330.445 242.791 330.53 242.229 330.701 241.82C330.939 241.232 331.331 240.942 331.876 240.942Z" fill="#08003F"/>
<path d="M252.214 240.346C251.6 240.346 251.098 240.551 250.723 240.96C250.348 241.36 250.152 241.905 250.152 242.586H250.851C250.859 242.05 250.987 241.641 251.226 241.368C251.447 241.079 251.771 240.942 252.188 240.942C252.58 240.942 252.895 241.045 253.116 241.249C253.338 241.454 253.449 241.735 253.449 242.109C253.449 242.501 253.287 242.867 252.98 243.2C252.818 243.37 252.503 243.617 252.026 243.958C251.379 244.4 250.945 244.767 250.706 245.039C250.297 245.491 250.101 245.993 250.101 246.547H254.155V245.925H250.962C251.072 245.516 251.515 245.048 252.29 244.528C252.921 244.102 253.338 243.77 253.551 243.549C253.943 243.123 254.147 242.646 254.147 242.118C254.147 241.59 253.96 241.155 253.602 240.832C253.236 240.508 252.776 240.346 252.214 240.346ZM257.235 240.346C256.503 240.346 255.958 240.661 255.592 241.309C255.268 241.854 255.106 242.586 255.106 243.506C255.106 244.426 255.268 245.159 255.592 245.704C255.958 246.342 256.503 246.666 257.235 246.666C257.959 246.666 258.504 246.342 258.879 245.704C259.203 245.159 259.365 244.426 259.365 243.506C259.365 242.586 259.203 241.854 258.879 241.309C258.504 240.661 257.959 240.346 257.235 240.346ZM257.235 240.942C257.78 240.942 258.172 241.232 258.411 241.82C258.581 242.229 258.675 242.791 258.675 243.506C258.675 244.213 258.581 244.775 258.411 245.193C258.172 245.772 257.78 246.07 257.235 246.07C256.69 246.07 256.299 245.772 256.06 245.193C255.89 244.775 255.805 244.213 255.805 243.506C255.805 242.791 255.89 242.229 256.06 241.82C256.299 241.232 256.69 240.942 257.235 240.942ZM261.746 240.466C261.542 240.695 261.303 240.9 261.014 241.087C260.724 241.258 260.435 241.377 260.162 241.454V242.152C260.733 241.982 261.21 241.709 261.593 241.317V246.547H262.291V240.466H261.746ZM265.761 240.346C265.122 240.346 264.628 240.508 264.27 240.84C263.938 241.138 263.776 241.513 263.776 241.956C263.776 242.28 263.853 242.552 264.006 242.774C264.168 243.012 264.407 243.191 264.73 243.302V243.319C264.407 243.395 264.143 243.574 263.921 243.847C263.683 244.136 263.563 244.477 263.563 244.869C263.563 245.406 263.751 245.84 264.126 246.164C264.509 246.496 265.054 246.666 265.761 246.666C266.459 246.666 267.004 246.496 267.396 246.164C267.771 245.84 267.958 245.406 267.958 244.869C267.958 244.477 267.839 244.136 267.601 243.847C267.379 243.574 267.107 243.395 266.791 243.319V243.302C267.107 243.191 267.345 243.012 267.515 242.774C267.669 242.552 267.745 242.28 267.745 241.956C267.745 241.513 267.575 241.138 267.251 240.84C266.894 240.508 266.391 240.346 265.761 240.346ZM265.761 240.917C266.187 240.917 266.527 241.028 266.774 241.249C266.979 241.436 267.09 241.683 267.09 241.982C267.09 242.288 266.996 242.544 266.809 242.731C266.579 242.953 266.229 243.072 265.761 243.072C265.284 243.072 264.935 242.953 264.713 242.731C264.526 242.544 264.432 242.288 264.432 241.982C264.432 241.683 264.534 241.436 264.747 241.249C264.986 241.028 265.327 240.917 265.761 240.917ZM265.761 243.617C266.246 243.617 266.63 243.736 266.902 243.983C267.141 244.205 267.268 244.503 267.268 244.869C267.268 245.227 267.141 245.516 266.902 245.738C266.63 245.976 266.255 246.095 265.761 246.095C265.267 246.095 264.884 245.976 264.628 245.746C264.373 245.525 264.253 245.227 264.253 244.869C264.253 244.503 264.373 244.205 264.628 243.983C264.892 243.736 265.267 243.617 265.761 243.617Z" fill="#08003F"/>
<path d="M284.324 240.346C283.711 240.346 283.208 240.551 282.833 240.96C282.459 241.36 282.263 241.905 282.263 242.586H282.961C282.97 242.05 283.097 241.641 283.336 241.368C283.557 241.079 283.881 240.942 284.298 240.942C284.69 240.942 285.005 241.045 285.227 241.249C285.448 241.454 285.559 241.735 285.559 242.109C285.559 242.501 285.397 242.867 285.09 243.2C284.929 243.37 284.614 243.617 284.137 243.958C283.489 244.4 283.055 244.767 282.816 245.039C282.408 245.491 282.212 245.993 282.212 246.547H286.266V245.925H283.072C283.183 245.516 283.626 245.048 284.401 244.528C285.031 244.102 285.448 243.77 285.661 243.549C286.053 243.123 286.257 242.646 286.257 242.118C286.257 241.59 286.07 241.155 285.712 240.832C285.346 240.508 284.886 240.346 284.324 240.346ZM289.346 240.346C288.613 240.346 288.068 240.661 287.702 241.309C287.378 241.854 287.216 242.586 287.216 243.506C287.216 244.426 287.378 245.159 287.702 245.704C288.068 246.342 288.613 246.666 289.346 246.666C290.07 246.666 290.615 246.342 290.99 245.704C291.313 245.159 291.475 244.426 291.475 243.506C291.475 242.586 291.313 241.854 290.99 241.309C290.615 240.661 290.07 240.346 289.346 240.346ZM289.346 240.942C289.891 240.942 290.283 241.232 290.521 241.82C290.691 242.229 290.785 242.791 290.785 243.506C290.785 244.213 290.691 244.775 290.521 245.193C290.283 245.772 289.891 246.07 289.346 246.07C288.801 246.07 288.409 245.772 288.17 245.193C288 244.775 287.915 244.213 287.915 243.506C287.915 242.791 288 242.229 288.17 241.82C288.409 241.232 288.801 240.942 289.346 240.942ZM293.857 240.466C293.652 240.695 293.414 240.9 293.124 241.087C292.834 241.258 292.545 241.377 292.272 241.454V242.152C292.843 241.982 293.32 241.709 293.703 241.317V246.547H294.402V240.466H293.857ZM297.803 240.346C297.207 240.346 296.713 240.542 296.33 240.942C295.938 241.334 295.75 241.828 295.75 242.433C295.75 243.021 295.921 243.498 296.27 243.864C296.628 244.247 297.096 244.443 297.684 244.443C298.042 244.443 298.357 244.349 298.629 244.179C298.91 244 299.132 243.753 299.285 243.447H299.319C299.319 243.549 299.328 243.625 299.328 243.668C299.328 244.349 299.191 244.92 298.927 245.371C298.646 245.84 298.272 246.078 297.803 246.078C297.088 246.078 296.67 245.729 296.543 245.039H295.853C296.015 246.121 296.662 246.666 297.795 246.666C298.476 246.666 299.021 246.342 299.43 245.712C299.805 245.099 300.001 244.315 300.001 243.344C300.001 242.407 299.822 241.675 299.464 241.164C299.089 240.619 298.536 240.346 297.803 240.346ZM297.82 240.934C298.237 240.934 298.578 241.079 298.834 241.368C299.081 241.641 299.208 241.99 299.208 242.416C299.208 242.833 299.072 243.183 298.817 243.455C298.544 243.728 298.212 243.864 297.82 243.864C297.394 243.864 297.062 243.728 296.815 243.464C296.56 243.208 296.44 242.859 296.44 242.433C296.44 241.99 296.56 241.632 296.815 241.351C297.071 241.07 297.403 240.934 297.82 240.934Z" fill="#08003F"/>
<path d="M215.76 120.847C215.121 120.847 214.627 121.009 214.27 121.341C213.938 121.639 213.776 122.014 213.776 122.457C213.776 122.781 213.852 123.053 214.006 123.275C214.168 123.513 214.406 123.692 214.73 123.803V123.82C214.406 123.896 214.142 124.075 213.921 124.348C213.682 124.637 213.563 124.978 213.563 125.37C213.563 125.907 213.75 126.341 214.125 126.665C214.508 126.997 215.053 127.167 215.76 127.167C216.459 127.167 217.004 126.997 217.396 126.665C217.77 126.341 217.958 125.907 217.958 125.37C217.958 124.978 217.838 124.637 217.6 124.348C217.379 124.075 217.106 123.896 216.791 123.82V123.803C217.106 123.692 217.344 123.513 217.515 123.275C217.668 123.053 217.745 122.781 217.745 122.457C217.745 122.014 217.574 121.639 217.251 121.341C216.893 121.009 216.391 120.847 215.76 120.847ZM215.76 121.418C216.186 121.418 216.527 121.529 216.774 121.75C216.978 121.938 217.089 122.185 217.089 122.483C217.089 122.789 216.995 123.045 216.808 123.232C216.578 123.454 216.229 123.573 215.76 123.573C215.283 123.573 214.934 123.454 214.713 123.232C214.525 123.045 214.432 122.789 214.432 122.483C214.432 122.185 214.534 121.938 214.747 121.75C214.985 121.529 215.326 121.418 215.76 121.418ZM215.76 124.118C216.246 124.118 216.629 124.237 216.902 124.484C217.14 124.706 217.268 125.004 217.268 125.37C217.268 125.728 217.14 126.017 216.902 126.239C216.629 126.477 216.254 126.596 215.76 126.596C215.266 126.596 214.883 126.477 214.627 126.247C214.372 126.026 214.253 125.728 214.253 125.37C214.253 125.004 214.372 124.706 214.627 124.484C214.891 124.237 215.266 124.118 215.76 124.118ZM220.867 120.847C220.135 120.847 219.59 121.162 219.223 121.81C218.9 122.355 218.738 123.087 218.738 124.007C218.738 124.927 218.9 125.66 219.223 126.205C219.59 126.843 220.135 127.167 220.867 127.167C221.591 127.167 222.136 126.843 222.511 126.205C222.835 125.66 222.997 124.927 222.997 124.007C222.997 123.087 222.835 122.355 222.511 121.81C222.136 121.162 221.591 120.847 220.867 120.847ZM220.867 121.444C221.412 121.444 221.804 121.733 222.043 122.321C222.213 122.73 222.307 123.292 222.307 124.007C222.307 124.714 222.213 125.276 222.043 125.694C221.804 126.273 221.412 126.571 220.867 126.571C220.322 126.571 219.93 126.273 219.692 125.694C219.522 125.276 219.436 124.714 219.436 124.007C219.436 123.292 219.522 122.73 219.692 122.321C219.93 121.733 220.322 121.444 220.867 121.444Z" fill="#08003F"/>
<path d="M215.845 145.372C215.156 145.372 214.61 145.687 214.21 146.326C213.827 146.931 213.639 147.723 213.639 148.694C213.639 149.622 213.81 150.346 214.168 150.866C214.542 151.411 215.096 151.692 215.837 151.692C216.433 151.692 216.919 151.488 217.31 151.096C217.694 150.704 217.89 150.202 217.89 149.605C217.89 149.009 217.711 148.532 217.361 148.157C217.004 147.783 216.535 147.595 215.956 147.595C215.598 147.595 215.283 147.68 215.011 147.859C214.721 148.03 214.508 148.277 214.355 148.592H214.321C214.312 148.481 214.312 148.404 214.312 148.37C214.312 147.68 214.44 147.11 214.713 146.667C214.985 146.19 215.36 145.96 215.837 145.96C216.544 145.96 216.961 146.301 217.097 146.999H217.787C217.617 145.909 216.97 145.372 215.845 145.372ZM215.82 148.174C216.237 148.174 216.569 148.302 216.825 148.575C217.072 148.83 217.2 149.171 217.2 149.605C217.2 150.04 217.072 150.397 216.816 150.687C216.561 150.96 216.229 151.104 215.82 151.104C215.394 151.104 215.062 150.96 214.806 150.67C214.551 150.397 214.432 150.048 214.432 149.622C214.432 149.197 214.559 148.856 214.823 148.583C215.087 148.311 215.42 148.174 215.82 148.174ZM220.867 145.372C220.135 145.372 219.59 145.687 219.223 146.335C218.9 146.88 218.738 147.612 218.738 148.532C218.738 149.452 218.9 150.185 219.223 150.73C219.59 151.368 220.135 151.692 220.867 151.692C221.591 151.692 222.136 151.368 222.511 150.73C222.835 150.185 222.997 149.452 222.997 148.532C222.997 147.612 222.835 146.88 222.511 146.335C222.136 145.687 221.591 145.372 220.867 145.372ZM220.867 145.968C221.412 145.968 221.804 146.258 222.043 146.846C222.213 147.255 222.307 147.817 222.307 148.532C222.307 149.239 222.213 149.801 222.043 150.219C221.804 150.798 221.412 151.096 220.867 151.096C220.322 151.096 219.93 150.798 219.692 150.219C219.522 149.801 219.436 149.239 219.436 148.532C219.436 147.817 219.522 147.255 219.692 146.846C219.93 146.258 220.322 145.968 220.867 145.968Z" fill="#08003F"/>
<path d="M215.845 194.426C215.232 194.426 214.73 194.63 214.355 195.039C213.98 195.439 213.784 195.984 213.784 196.666H214.483C214.491 196.129 214.619 195.72 214.857 195.448C215.079 195.158 215.403 195.022 215.82 195.022C216.212 195.022 216.527 195.124 216.748 195.329C216.97 195.533 217.08 195.814 217.08 196.189C217.08 196.581 216.919 196.947 216.612 197.279C216.45 197.449 216.135 197.696 215.658 198.037C215.011 198.48 214.576 198.846 214.338 199.119C213.929 199.57 213.733 200.073 213.733 200.626H217.787V200.004H214.593C214.704 199.596 215.147 199.127 215.922 198.608C216.552 198.182 216.97 197.85 217.183 197.628C217.574 197.202 217.779 196.725 217.779 196.197C217.779 195.669 217.591 195.235 217.234 194.911C216.867 194.588 216.408 194.426 215.845 194.426ZM220.867 194.426C220.135 194.426 219.59 194.741 219.223 195.388C218.9 195.933 218.738 196.666 218.738 197.586C218.738 198.505 218.9 199.238 219.223 199.783C219.59 200.422 220.135 200.745 220.867 200.745C221.591 200.745 222.136 200.422 222.511 199.783C222.835 199.238 222.997 198.505 222.997 197.586C222.997 196.666 222.835 195.933 222.511 195.388C222.136 194.741 221.591 194.426 220.867 194.426ZM220.867 195.022C221.412 195.022 221.804 195.311 222.043 195.899C222.213 196.308 222.307 196.87 222.307 197.586C222.307 198.293 222.213 198.855 222.043 199.272C221.804 199.851 221.412 200.149 220.867 200.149C220.322 200.149 219.93 199.851 219.692 199.272C219.522 198.855 219.436 198.293 219.436 197.586C219.436 196.87 219.522 196.308 219.692 195.899C219.93 195.311 220.322 195.022 220.867 195.022Z" fill="#08003F"/>
<path d="M215.76 218.954C215.028 218.954 214.483 219.269 214.116 219.916C213.793 220.461 213.631 221.194 213.631 222.113C213.631 223.033 213.793 223.766 214.116 224.311C214.483 224.95 215.028 225.273 215.76 225.273C216.484 225.273 217.029 224.95 217.404 224.311C217.728 223.766 217.89 223.033 217.89 222.113C217.89 221.194 217.728 220.461 217.404 219.916C217.029 219.269 216.484 218.954 215.76 218.954ZM215.76 219.55C216.305 219.55 216.697 219.839 216.936 220.427C217.106 220.836 217.2 221.398 217.2 222.113C217.2 222.82 217.106 223.383 216.936 223.8C216.697 224.379 216.305 224.677 215.76 224.677C215.215 224.677 214.823 224.379 214.585 223.8C214.415 223.383 214.329 222.82 214.329 222.113C214.329 221.398 214.415 220.836 214.585 220.427C214.823 219.839 215.215 219.55 215.76 219.55Z" fill="#08003F"/>
<path d="M216.476 170.02L213.409 174.057V174.721H216.467V176.101H217.132V174.721H218.12V174.151H217.132V170.02H216.476ZM216.442 170.931H216.467V174.151H213.997L216.442 170.931ZM220.867 169.9C220.135 169.9 219.59 170.216 219.223 170.863C218.9 171.408 218.738 172.14 218.738 173.06C218.738 173.98 218.9 174.713 219.223 175.258C219.59 175.897 220.135 176.22 220.867 176.22C221.591 176.22 222.136 175.897 222.511 175.258C222.835 174.713 222.997 173.98 222.997 173.06C222.997 172.14 222.835 171.408 222.511 170.863C222.136 170.216 221.591 169.9 220.867 169.9ZM220.867 170.497C221.412 170.497 221.804 170.786 222.043 171.374C222.213 171.783 222.307 172.345 222.307 173.06C222.307 173.767 222.213 174.329 222.043 174.747C221.804 175.326 221.412 175.624 220.867 175.624C220.322 175.624 219.93 175.326 219.692 174.747C219.522 174.329 219.436 173.767 219.436 173.06C219.436 172.345 219.522 171.783 219.692 171.374C219.93 170.786 220.322 170.497 220.867 170.497Z" fill="#08003F"/>
<path d="M348.544 240.346C347.93 240.346 347.428 240.551 347.053 240.96C346.678 241.36 346.482 241.905 346.482 242.586H347.181C347.189 242.05 347.317 241.641 347.556 241.368C347.777 241.079 348.101 240.942 348.518 240.942C348.91 240.942 349.225 241.045 349.446 241.249C349.668 241.454 349.779 241.735 349.779 242.109C349.779 242.501 349.617 242.867 349.31 243.2C349.148 243.37 348.833 243.617 348.356 243.958C347.709 244.4 347.275 244.767 347.036 245.039C346.627 245.491 346.431 245.993 346.431 246.547H350.486V245.925H347.292C347.402 245.516 347.845 245.048 348.62 244.528C349.251 244.102 349.668 243.77 349.881 243.549C350.273 243.123 350.477 242.646 350.477 242.118C350.477 241.59 350.29 241.155 349.932 240.832C349.566 240.508 349.106 240.346 348.544 240.346ZM353.565 240.346C352.833 240.346 352.288 240.661 351.922 241.309C351.598 241.854 351.436 242.586 351.436 243.506C351.436 244.426 351.598 245.159 351.922 245.704C352.288 246.342 352.833 246.666 353.565 246.666C354.289 246.666 354.835 246.342 355.209 245.704C355.533 245.159 355.695 244.426 355.695 243.506C355.695 242.586 355.533 241.854 355.209 241.309C354.835 240.661 354.289 240.346 353.565 240.346ZM353.565 240.942C354.111 240.942 354.502 241.232 354.741 241.82C354.911 242.229 355.005 242.791 355.005 243.506C355.005 244.213 354.911 244.775 354.741 245.193C354.502 245.772 354.111 246.07 353.565 246.07C353.02 246.07 352.629 245.772 352.39 245.193C352.22 244.775 352.135 244.213 352.135 243.506C352.135 242.791 352.22 242.229 352.39 241.82C352.629 241.232 353.02 240.942 353.565 240.942ZM358.758 240.346C358.144 240.346 357.642 240.551 357.267 240.96C356.892 241.36 356.696 241.905 356.696 242.586H357.395C357.403 242.05 357.531 241.641 357.77 241.368C357.991 241.079 358.315 240.942 358.732 240.942C359.124 240.942 359.439 241.045 359.66 241.249C359.882 241.454 359.993 241.735 359.993 242.109C359.993 242.501 359.831 242.867 359.524 243.2C359.362 243.37 359.047 243.617 358.57 243.958C357.923 244.4 357.489 244.767 357.25 245.039C356.841 245.491 356.645 245.993 356.645 246.547H360.7V245.925H357.506C357.616 245.516 358.059 245.048 358.834 244.528C359.465 244.102 359.882 243.77 360.095 243.549C360.487 243.123 360.691 242.646 360.691 242.118C360.691 241.59 360.504 241.155 360.146 240.832C359.78 240.508 359.32 240.346 358.758 240.346ZM363.183 240.466C362.979 240.695 362.74 240.9 362.451 241.087C362.161 241.258 361.872 241.377 361.599 241.454V242.152C362.17 241.982 362.647 241.709 363.03 241.317V246.547H363.728V240.466H363.183Z" fill="#08003F"/>
<path d="M380.654 240.346C380.041 240.346 379.538 240.551 379.163 240.96C378.789 241.36 378.593 241.905 378.593 242.586H379.291C379.3 242.05 379.428 241.641 379.666 241.368C379.887 241.079 380.211 240.942 380.628 240.942C381.02 240.942 381.335 241.045 381.557 241.249C381.778 241.454 381.889 241.735 381.889 242.109C381.889 242.501 381.727 242.867 381.421 243.2C381.259 243.37 380.944 243.617 380.467 243.958C379.819 244.4 379.385 244.767 379.146 245.039C378.738 245.491 378.542 245.993 378.542 246.547H382.596V245.925H379.402C379.513 245.516 379.956 245.048 380.731 244.528C381.361 244.102 381.778 243.77 381.991 243.549C382.383 243.123 382.587 242.646 382.587 242.118C382.587 241.59 382.4 241.155 382.042 240.832C381.676 240.508 381.216 240.346 380.654 240.346ZM385.676 240.346C384.943 240.346 384.398 240.661 384.032 241.309C383.708 241.854 383.547 242.586 383.547 243.506C383.547 244.426 383.708 245.159 384.032 245.704C384.398 246.342 384.943 246.666 385.676 246.666C386.4 246.666 386.945 246.342 387.32 245.704C387.643 245.159 387.805 244.426 387.805 243.506C387.805 242.586 387.643 241.854 387.32 241.309C386.945 240.661 386.4 240.346 385.676 240.346ZM385.676 240.942C386.221 240.942 386.613 241.232 386.851 241.82C387.022 242.229 387.115 242.791 387.115 243.506C387.115 244.213 387.022 244.775 386.851 245.193C386.613 245.772 386.221 246.07 385.676 246.07C385.131 246.07 384.739 245.772 384.5 245.193C384.33 244.775 384.245 244.213 384.245 243.506C384.245 242.791 384.33 242.229 384.5 241.82C384.739 241.232 385.131 240.942 385.676 240.942ZM390.868 240.346C390.255 240.346 389.752 240.551 389.377 240.96C389.003 241.36 388.807 241.905 388.807 242.586H389.505C389.514 242.05 389.642 241.641 389.88 241.368C390.101 241.079 390.425 240.942 390.842 240.942C391.234 240.942 391.549 241.045 391.771 241.249C391.992 241.454 392.103 241.735 392.103 242.109C392.103 242.501 391.941 242.867 391.635 243.2C391.473 243.37 391.158 243.617 390.681 243.958C390.033 244.4 389.599 244.767 389.36 245.039C388.952 245.491 388.756 245.993 388.756 246.547H392.81V245.925H389.616C389.727 245.516 390.17 245.048 390.945 244.528C391.575 244.102 391.992 243.77 392.205 243.549C392.597 243.123 392.801 242.646 392.801 242.118C392.801 241.59 392.614 241.155 392.256 240.832C391.89 240.508 391.43 240.346 390.868 240.346ZM395.975 240.346C395.362 240.346 394.859 240.551 394.484 240.96C394.11 241.36 393.914 241.905 393.914 242.586H394.612C394.621 242.05 394.748 241.641 394.987 241.368C395.208 241.079 395.532 240.942 395.949 240.942C396.341 240.942 396.656 241.045 396.878 241.249C397.099 241.454 397.21 241.735 397.21 242.109C397.21 242.501 397.048 242.867 396.742 243.2C396.58 243.37 396.265 243.617 395.788 243.958C395.14 244.4 394.706 244.767 394.467 245.039C394.059 245.491 393.863 245.993 393.863 246.547H397.917V245.925H394.723C394.834 245.516 395.277 245.048 396.052 244.528C396.682 244.102 397.099 243.77 397.312 243.549C397.704 243.123 397.908 242.646 397.908 242.118C397.908 241.59 397.721 241.155 397.363 240.832C396.997 240.508 396.537 240.346 395.975 240.346Z" fill="#08003F"/>
<path d="M234.712 107.776C235.198 107.776 235.596 108.137 235.625 108.592L235.627 108.648V253.384C235.627 253.865 235.217 254.256 234.712 254.256C234.225 254.256 233.828 253.895 233.798 253.439L233.796 253.384V108.648C233.796 108.166 234.206 107.776 234.712 107.776Z" fill="#08003F"/>
<path d="M289.66 159.394C290.212 158.936 291.041 159.031 291.471 159.588L291.512 159.643L326.792 210.857L354.47 192.023C354.641 191.906 354.838 191.834 355.044 191.811L355.122 191.804L390.619 190.01C391.31 189.975 391.899 190.494 391.935 191.168C391.97 191.82 391.473 192.38 390.815 192.447L390.749 192.452L355.609 194.228L327.181 213.574C326.625 213.952 325.867 213.83 325.464 213.309L325.423 213.254L290.214 162.143L248.941 196.365C248.432 196.787 247.677 196.743 247.222 196.277L247.174 196.225C246.742 195.728 246.786 194.992 247.265 194.548L247.318 194.502L289.66 159.394Z" fill="#08003F"/>
<path d="M385.729 128.665C386.116 128.105 386.895 127.958 387.469 128.336C388.023 128.701 388.183 129.423 387.843 129.976L387.806 130.033L356.225 175.639C355.783 176.277 354.86 176.359 354.307 175.825L354.258 175.775L317.598 136.273L291.877 153.08C291.688 153.203 291.47 153.274 291.244 153.285L291.159 153.287L247.723 152.599C247.031 152.588 246.479 152.032 246.49 151.357C246.501 150.704 247.036 150.179 247.697 150.155L247.764 150.155L290.807 150.836L317.103 133.654C317.601 133.329 318.261 133.394 318.682 133.801L318.73 133.849L355.043 172.978L385.729 128.665Z" fill="#15E7BD"/>
<path d="M382.272 200.665C373.08 200.665 365.649 208.033 365.649 217.096C365.649 226.159 373.08 233.526 382.272 233.526C391.464 233.526 398.895 226.159 398.895 217.096C398.895 208.033 391.464 200.665 382.272 200.665ZM382.272 206.846C387.942 206.846 392.559 211.424 392.559 217.096C392.559 222.768 387.942 227.345 382.272 227.345C376.603 227.345 371.986 222.768 371.986 217.096C371.986 211.424 376.603 206.846 382.272 206.846Z" fill="#15E7BD"/>
<path d="M393.327 208.43C394.936 207.759 396.798 208.487 397.486 210.056C398.411 212.164 398.895 214.459 398.895 216.818C398.895 218.748 398.57 220.638 397.943 222.42C397.375 224.035 395.573 224.894 393.918 224.34C392.29 223.795 391.411 222.085 391.924 220.493L391.95 220.414C392.35 219.276 392.558 218.064 392.558 216.818C392.558 215.36 392.274 213.951 391.733 212.655L391.661 212.487C390.972 210.918 391.718 209.102 393.327 208.43Z" fill="#08003F"/>
<path fill-rule="evenodd" clip-rule="evenodd" d="M475.376 129.131L472.021 132.291C471.598 132.69 470.895 132.655 470.459 132.215L466.957 128.678C466.521 128.237 466.51 127.551 466.933 127.152L470.288 123.992C470.711 123.593 471.414 123.628 471.85 124.068L475.352 127.605C475.788 128.046 475.799 128.732 475.376 129.131Z" fill="#08003F"/>
<path fill-rule="evenodd" clip-rule="evenodd" d="M479.51 108.296L479.591 112.845C479.602 113.418 479.096 113.896 478.469 113.907L473.429 113.993C472.801 114.004 472.279 113.543 472.268 112.97L472.187 108.421C472.177 107.847 472.682 107.369 473.31 107.358L478.35 107.273C478.978 107.262 479.5 107.722 479.51 108.296Z" fill="#08003F"/>
<path fill-rule="evenodd" clip-rule="evenodd" d="M467.465 89.0497L471.505 91.3245C472.014 91.6113 472.174 92.28 471.86 92.8103L469.339 97.0685C469.025 97.5989 468.352 97.7983 467.843 97.5115L463.803 95.2367C463.294 94.9499 463.134 94.2812 463.448 93.7508L465.969 89.4926C466.283 88.9622 466.956 88.7629 467.465 89.0497Z" fill="#08003F"/>
<path fill-rule="evenodd" clip-rule="evenodd" d="M448.994 84.5852L453.652 84.8233C454.239 84.8533 454.692 85.3783 454.659 85.9899L454.396 90.9001C454.363 91.5117 453.856 91.9876 453.268 91.9576L448.61 91.7195C448.023 91.6895 447.57 91.1645 447.603 90.5528L447.866 85.6426C447.899 85.0311 448.407 84.5551 448.994 84.5852Z" fill="#08003F"/>
<path fill-rule="evenodd" clip-rule="evenodd" d="M428.696 93.6279L432.269 90.7034C432.72 90.3347 433.418 90.417 433.822 90.8861L437.062 94.6527C437.466 95.1219 437.427 95.8074 436.977 96.1761L433.404 99.1006C432.953 99.4693 432.255 99.3871 431.851 98.9179L428.611 95.1513C428.207 94.6822 428.246 93.9966 428.696 93.6279Z" fill="#08003F"/>
<path fill-rule="evenodd" clip-rule="evenodd" d="M419.667 113.72L420.477 109.24C420.579 108.675 421.168 108.3 421.787 108.406L426.751 109.26C427.369 109.366 427.791 109.915 427.689 110.48L426.879 114.961C426.777 115.526 426.188 115.901 425.569 115.794L420.605 114.941C419.987 114.834 419.565 114.285 419.667 113.72Z" fill="#08003F"/>
<path d="M465.797 116.725C465.797 107.933 458.5 100.731 449.499 100.731C440.498 100.731 433.2 107.933 433.2 116.725C433.2 120.204 435.091 124.699 438.128 128.012C441.139 131.296 441.997 136.823 441.997 141.231L441.997 142.96L457.001 142.96L457.001 141.246C457.001 136.838 457.859 131.321 460.855 128.027C463.901 124.679 465.797 119.785 465.797 116.725Z" fill="#15E7BD"/>
<path d="M463.114 116.681C463.114 109.338 457.02 103.321 449.498 103.321C441.977 103.321 435.884 109.338 435.884 116.681C435.884 119.591 437.463 123.344 440 126.112C442.516 128.855 444.383 133.473 444.383 137.155L444.383 138.597L454.614 138.597L454.614 137.167C454.614 133.484 456.482 128.875 458.985 126.123C461.53 123.327 463.114 119.239 463.114 116.682L463.114 116.681Z" fill="#08003F"/>
<path d="M453.636 151.024L445.363 151.024C445.074 151.024 444.81 150.84 444.653 150.539L443.527 147.694L455.473 147.694L454.347 150.539C454.19 150.84 453.927 151.024 453.637 151.024L453.636 151.024Z" fill="#08003F"/>
<path d="M443.353 136.681L455.644 136.681C456.401 136.681 457.002 137.278 457.002 137.998L457.002 147.305C457.002 148.026 456.401 148.623 455.644 148.623L443.353 148.623C442.596 148.623 441.996 148.026 441.996 147.305L441.996 137.998C441.996 137.278 442.596 136.681 443.353 136.681Z" fill="#15E7BD" stroke="#08003F" stroke-width="0.592675"/>
<path fill-rule="evenodd" clip-rule="evenodd" d="M442.099 140.064C442.099 139.958 442.187 139.872 442.296 139.872L451.084 139.872C451.192 139.872 451.281 139.958 451.281 140.064C451.281 140.17 451.192 140.256 451.084 140.256L442.296 140.256C442.187 140.256 442.099 140.17 442.099 140.064Z" fill="white"/>
<path fill-rule="evenodd" clip-rule="evenodd" d="M442.099 145.637C442.099 145.531 442.187 145.445 442.296 145.445L451.084 145.445C451.192 145.445 451.281 145.531 451.281 145.637C451.281 145.743 451.192 145.829 451.084 145.829L442.296 145.829C442.187 145.829 442.099 145.743 442.099 145.637Z" fill="white"/>
<path fill-rule="evenodd" clip-rule="evenodd" d="M447.688 142.85C447.688 142.744 447.776 142.658 447.885 142.658L456.672 142.658C456.781 142.658 456.869 142.744 456.869 142.85C456.869 142.956 456.781 143.042 456.672 143.042L447.885 143.042C447.776 143.042 447.688 142.956 447.688 142.85Z" fill="white"/>
<path d="M450.61 110.297L444.466 119.44C444.136 119.935 444.491 120.545 445.087 120.545L447.839 120.545L444.455 126.79C444.203 127.295 444.854 127.763 445.252 127.364L454.455 118.331C454.925 117.861 454.591 117.058 453.927 117.058L449.765 117.058L451.506 110.695C451.642 110.152 450.92 109.834 450.61 110.297Z" fill="white"/>
<path d="M84.3994 98.7536H55.4498C44.9159 98.7536 36.4018 107.08 36.4018 117.319C36.4018 127.559 44.9159 135.885 55.4498 135.885H84.3994C94.9333 135.885 103.447 127.559 103.447 117.319C103.447 107.08 94.9333 98.7536 84.3994 98.7536Z" fill="#15E7BD" stroke="#08003F" stroke-width="1.18535"/>
<path fill-rule="evenodd" clip-rule="evenodd" d="M94.5781 130.905V140.935C94.5781 141.375 94.2117 141.733 93.7598 141.733C93.5478 141.733 93.3441 141.653 93.1915 141.509L85.6358 134.398L94.5781 130.905Z" fill="#08003F"/>
<path d="M83.0701 119.714C81.3187 119.714 79.8989 118.329 79.8989 116.621C79.8989 114.913 81.3187 113.528 83.0701 113.528C84.8214 113.528 86.2412 114.913 86.2412 116.621C86.2412 118.329 84.8214 119.714 83.0701 119.714Z" fill="#08003F"/>
<path d="M70.0789 119.714C68.3275 119.714 66.9077 118.329 66.9077 116.621C66.9077 114.913 68.3275 113.528 70.0789 113.528C71.8302 113.528 73.25 114.913 73.25 116.621C73.25 118.329 71.8302 119.714 70.0789 119.714Z" fill="#08003F"/>
<path d="M56.78 119.714C55.0286 119.714 53.6089 118.329 53.6089 116.621C53.6089 114.913 55.0286 113.528 56.78 113.528C58.5314 113.528 59.9512 114.913 59.9512 116.621C59.9512 118.329 58.5314 119.714 56.78 119.714Z" fill="#08003F"/>
<rect x="67.1475" y="293.555" width="378.468" height="11.9089" fill="#F1F1F1"/>
<path d="M148.672 155.923L148.672 155.923L148.672 155.923L148.672 155.923L148.613 156.124L148.821 156.113L148.821 156.113C148.822 156.113 148.822 156.113 148.822 156.113L148.822 156.113L148.827 156.113C148.833 156.113 148.842 156.113 148.854 156.114C148.878 156.115 148.914 156.118 148.957 156.127C149.042 156.144 149.151 156.182 149.252 156.261C149.443 156.411 149.653 156.753 149.522 157.561L149.506 157.664L149.597 157.714C150.038 157.958 150.113 158.496 150.046 159.047C150.013 159.314 149.948 159.565 149.891 159.751C149.862 159.843 149.836 159.919 149.817 159.971C149.807 159.997 149.799 160.017 149.794 160.03L149.788 160.045L149.787 160.049L149.786 160.049L149.786 160.049L149.786 160.049L149.785 160.052L149.923 160.106L149.785 160.052L149.785 160.052L149.785 160.053L149.784 160.055L149.78 160.066L149.763 160.109C149.747 160.147 149.725 160.203 149.695 160.276C149.636 160.422 149.549 160.634 149.437 160.899C149.214 161.429 148.893 162.171 148.501 163.02C147.719 164.712 146.659 166.823 145.537 168.518C145.532 168.522 145.525 168.527 145.517 168.533C145.49 168.552 145.451 168.58 145.401 168.614C145.3 168.681 145.157 168.772 144.985 168.862C144.639 169.044 144.193 169.217 143.764 169.216C143.346 169.216 142.937 169.053 142.634 168.542C142.325 168.02 142.12 167.126 142.163 165.655L144.688 156.306L144.691 156.301L144.728 156.237C144.759 156.181 144.806 156.1 144.866 155.996C144.986 155.788 145.16 155.492 145.373 155.137C145.8 154.428 146.386 153.488 147.021 152.562C147.657 151.635 148.34 150.727 148.96 150.08C149.271 149.756 149.561 149.503 149.817 149.345C150.073 149.187 150.268 149.141 150.409 149.175C150.567 149.241 150.639 149.319 150.67 149.392C150.702 149.47 150.702 149.575 150.653 149.721C150.552 150.02 150.276 150.403 149.912 150.858C149.812 150.983 149.706 151.112 149.597 151.246C149.317 151.589 149.016 151.957 148.743 152.335C148.364 152.86 148.027 153.419 147.863 153.981L147.802 154.189L148.018 154.171C148.332 154.143 148.507 154.237 148.613 154.367C148.726 154.508 148.78 154.717 148.792 154.955C148.804 155.19 148.774 155.432 148.741 155.618C148.724 155.71 148.707 155.787 148.694 155.841C148.687 155.868 148.681 155.889 148.678 155.903L148.673 155.919L148.672 155.923L148.672 155.923Z" fill="#F1F1F1" stroke="#08003F" stroke-width="0.296337"/>
<path d="M142.706 162.475L142.706 162.477C142.698 163.221 142.797 163.751 142.955 164.107C143.112 164.462 143.323 164.634 143.544 164.692C143.769 164.751 144.038 164.698 144.323 164.533C144.607 164.369 144.896 164.099 145.149 163.749C145.884 162.735 145.742 161.502 145.39 160.325C145.259 159.885 145.102 159.462 144.954 159.066C144.905 158.932 144.856 158.801 144.81 158.674C144.631 158.18 144.484 157.724 144.485 157.37C144.486 157.242 144.488 157.11 144.489 156.977C144.495 156.427 144.502 155.84 144.443 155.315C144.406 154.99 144.344 154.697 144.245 154.459L142.706 162.475ZM142.706 162.475L142.709 162.448M142.706 162.475L142.709 162.448M142.709 162.448L142.721 162.343M142.709 162.448L142.721 162.343M142.721 162.343C142.731 162.252 142.745 162.121 142.764 161.958M142.721 162.343L142.764 161.958M142.764 161.958C142.8 161.631 142.852 161.18 142.912 160.677M142.764 161.958L142.912 160.677M142.912 160.677C143.032 159.67 143.186 158.462 143.321 157.647L142.912 160.677ZM143.561 153.839C143.61 153.833 143.699 153.85 143.842 153.939L143.321 157.647C143.391 157.223 143.394 156.721 143.381 156.226C143.375 156.03 143.367 155.836 143.359 155.647C143.347 155.354 143.335 155.075 143.335 154.819C143.334 154.611 143.341 154.426 143.361 154.272C143.38 154.115 143.411 154.001 143.451 153.929C143.488 153.862 143.524 153.843 143.561 153.839Z" fill="#F1F1F1" stroke="#08003F" stroke-width="0.296337"/>
<path d="M148.097 153.925C148.153 153.974 148.157 154.059 148.106 154.113L148.029 154.197L147.931 154.306C147.897 154.345 147.861 154.386 147.824 154.429C147.613 154.676 147.401 154.939 147.203 155.208C147.008 155.474 146.838 155.732 146.7 155.975C146.212 156.832 146.176 157.386 146.67 157.578C146.741 157.605 146.775 157.682 146.747 157.751C146.719 157.819 146.64 157.853 146.569 157.826C145.855 157.55 145.902 156.826 146.46 155.845C146.604 155.593 146.78 155.327 146.981 155.053C147.183 154.778 147.399 154.509 147.615 154.258C147.671 154.192 147.725 154.13 147.775 154.074L147.904 153.933C147.955 153.878 148.042 153.875 148.097 153.925Z" fill="#08003F"/>
<path d="M148.597 155.925C148.656 155.879 148.742 155.888 148.789 155.946C148.836 156.004 148.826 156.088 148.767 156.134L148.686 156.198L148.582 156.283C148.546 156.313 148.508 156.345 148.468 156.379C148.244 156.57 148.019 156.776 147.809 156.986C147.59 157.206 147.401 157.419 147.25 157.619C146.825 158.184 146.758 158.565 147.083 158.751C147.205 158.822 147.341 158.839 147.493 158.809C147.738 158.76 148.013 158.588 148.293 158.333C148.415 158.222 148.529 158.102 148.633 157.982L148.703 157.9C148.729 157.868 148.749 157.843 148.762 157.825C148.807 157.766 148.892 157.753 148.953 157.797C149.014 157.84 149.028 157.924 148.983 157.983L148.937 158.041C148.912 158.073 148.88 158.111 148.842 158.155C148.732 158.282 148.61 158.409 148.48 158.528C148.166 158.814 147.852 159.009 147.548 159.07C147.332 159.113 147.128 159.087 146.944 158.981C146.425 158.683 146.521 158.137 147.03 157.461C147.189 157.25 147.386 157.028 147.613 156.8C147.828 156.584 148.058 156.374 148.288 156.178L148.405 156.08L148.571 155.945C148.582 155.936 148.59 155.93 148.597 155.925Z" fill="#08003F"/>
<path d="M93.1917 212.359L98.2294 207.617L82.8198 190.133L90.8209 178.576C90.6234 174.526 89.7541 166.545 87.8576 167.019C85.961 167.493 84.6966 168.6 84.3015 169.093C82.2272 172.847 77.308 181.54 74.2261 186.281C71.1442 191.022 72.942 193.591 74.2261 194.282L93.1917 212.359Z" fill="#15E7BD"/>
<path d="M101.188 210.517C101.262 210.449 101.377 210.453 101.446 210.525C101.509 210.59 101.511 210.689 101.456 210.757L101.438 210.776L96.2564 215.512C96.1829 215.579 96.0674 215.576 95.9985 215.504C95.9359 215.439 95.9333 215.34 95.9886 215.272L96.0069 215.253L101.188 210.517Z" fill="#597EF7"/>
<path d="M98.2322 208.091C98.3057 208.024 98.4212 208.028 98.4901 208.1C98.5527 208.165 98.5553 208.264 98.5 208.332L98.4817 208.351L93.8345 212.599C93.761 212.666 93.6455 212.662 93.5767 212.591C93.514 212.526 93.5114 212.427 93.5667 212.359L93.585 212.339L98.2322 208.091Z" fill="#597EF7"/>
<path fill-rule="evenodd" clip-rule="evenodd" d="M95.5295 213.203C95.7441 213.426 96.1034 213.438 96.3325 213.229C96.5613 213.019 96.573 212.669 96.3584 212.445C96.1443 212.222 95.7846 212.21 95.5555 212.42C95.3267 212.629 95.315 212.98 95.5295 213.203Z" fill="white"/>
<path d="M108.619 157.868L100.118 155.488L99.54 163.373L99.3922 163.362L99.54 163.373C99.4058 165.202 100.794 166.989 102.564 167.705L108.619 157.868ZM108.619 157.868L108.862 163.472C108.991 166.46 106.075 168.764 103.135 167.904C102.938 167.846 102.748 167.779 102.564 167.705L108.619 157.868Z" fill="#F1F1F1" stroke="#08003F" stroke-width="0.296337"/>
<path d="M107.013 160.391C102.866 160.256 98.4905 157.589 97.4584 151.503C96.9347 148.415 97.5801 146.08 98.94 144.527C100.301 142.972 102.399 142.178 104.825 142.213C107.165 142.246 108.991 142.776 110.281 144.037C111.573 145.299 112.354 147.32 112.548 150.395C112.739 153.438 112.569 155.985 111.744 157.746C111.333 158.622 110.762 159.3 109.994 159.751C109.225 160.202 108.247 160.432 107.013 160.391Z" fill="#F1F1F1" stroke="#08003F" stroke-width="0.296337"/>
<path fill-rule="evenodd" clip-rule="evenodd" d="M100.793 152.381C100.638 151.901 100.484 151.095 99.6869 150.785C98.5884 150.358 97.6431 151.576 97.8175 152.868C98.0288 154.433 99.4625 155.362 100.265 155.357C100.207 156.894 99.7322 157.714 99.7322 157.714C99.7322 157.714 98.3024 156.033 97.2809 153.396C95.6873 149.282 96.5614 143.48 101.307 142.09C108.724 140.14 111.568 145.532 111.568 145.532L102.342 145.528L102.619 148.532C102.619 148.532 100.976 148.643 101.359 152.198L100.793 152.381Z" fill="#08003F"/>
<path d="M107.496 149.025C107.597 149.022 107.682 149.099 107.685 149.197C107.688 149.287 107.622 149.363 107.534 149.378L107.509 149.381L104.667 149.478L103.776 149.76C103.688 149.788 103.594 149.747 103.555 149.668L103.546 149.645C103.518 149.56 103.559 149.468 103.64 149.43L103.663 149.421L104.579 149.132L104.629 149.123L107.496 149.025Z" fill="#08003F"/>
<path fill-rule="evenodd" clip-rule="evenodd" d="M110.113 155.544C110.113 155.544 108.573 155.654 106.209 155.469C106.209 155.469 106.568 156.418 108.27 156.407C109.605 156.399 110.113 155.544 110.113 155.544Z" fill="white"/>
<path d="M106.224 155.291C106.091 155.281 105.992 155.408 106.038 155.53C106.093 155.676 106.23 155.879 106.481 156.076C106.893 156.4 107.481 156.59 108.271 156.585C108.892 156.581 109.399 156.407 109.796 156.118C110.041 155.941 110.195 155.761 110.27 155.633C110.34 155.517 110.256 155.374 110.125 155.366L110.09 155.367L109.909 155.377L109.78 155.382C108.833 155.418 107.625 155.401 106.224 155.291ZM106.571 155.674L106.739 155.685C107.803 155.753 108.745 155.767 109.53 155.746L109.694 155.741L109.647 155.781C109.625 155.798 109.602 155.816 109.578 155.833C109.242 156.077 108.81 156.226 108.268 156.229C107.561 156.234 107.055 156.07 106.711 155.799C106.672 155.769 106.637 155.738 106.604 155.707L106.571 155.674Z" fill="#08003F"/>
<path d="M109.566 149.106C109.592 149.011 109.691 148.954 109.789 148.979C109.878 149.002 109.935 149.085 109.924 149.172L109.92 149.196L109.663 150.159L110.434 153.764C110.51 154.118 110.251 154.452 109.888 154.483L109.848 154.485L107.541 154.541C107.441 154.543 107.357 154.466 107.355 154.367C107.352 154.277 107.419 154.201 107.508 154.187L107.532 154.185L109.839 154.13C109.985 154.126 110.094 154.003 110.081 153.865L110.077 153.837L109.297 150.192C109.293 150.174 109.292 150.155 109.294 150.137L109.299 150.11L109.566 149.106Z" fill="#08003F"/>
<path d="M108.738 157.347C108.838 157.345 108.922 157.422 108.925 157.52C108.928 157.61 108.862 157.686 108.773 157.701L108.748 157.703L107.645 157.734C107.544 157.737 107.46 157.66 107.457 157.562C107.454 157.472 107.521 157.395 107.609 157.381L107.634 157.379L108.738 157.347Z" fill="#08003F"/>
<path d="M112.306 148.877C112.406 148.873 112.491 148.949 112.495 149.047C112.499 149.137 112.434 149.214 112.345 149.23L112.32 149.232L109.887 149.328C109.786 149.332 109.701 149.256 109.697 149.158C109.694 149.068 109.759 148.991 109.848 148.975L109.872 148.973L112.306 148.877Z" fill="#08003F"/>
<path d="M99.0394 151.449C99.2351 151.42 99.4532 151.44 99.662 151.545C100.031 151.731 100.267 152.141 100.317 152.81C100.322 152.879 100.272 152.94 100.202 152.951C99.848 153.006 99.6802 153.146 99.6604 153.33C99.6423 153.499 99.7504 153.708 99.9324 153.854C99.9908 153.901 99.9993 153.985 99.9513 154.042C99.9033 154.099 99.8171 154.107 99.7587 154.06C99.5107 153.861 99.3597 153.569 99.3883 153.302C99.4181 153.024 99.6287 152.818 99.9933 152.722L100.033 152.712L100.03 152.689C99.9713 152.217 99.8061 151.937 99.5704 151.801L99.5362 151.782C99.3859 151.706 99.2239 151.692 99.0804 151.713L99.043 151.72C98.97 151.739 98.8951 151.696 98.8757 151.625C98.8563 151.554 98.8998 151.481 98.9729 151.462L99.0002 151.456C99.0113 151.454 99.0244 151.451 99.0394 151.449Z" fill="#08003F"/>
<path d="M124.148 289.83L124.148 289.83L124.153 289.84L124.285 289.772C124.153 289.84 124.153 289.84 124.153 289.84L124.153 289.84L124.153 289.841L124.155 289.845L124.162 289.858C124.168 289.87 124.178 289.887 124.19 289.909C124.214 289.953 124.249 290.018 124.297 290.1C124.392 290.265 124.535 290.5 124.725 290.785C125.105 291.356 125.676 292.127 126.44 292.931C127.966 294.538 130.272 296.284 133.373 296.808C133.863 296.891 134.219 297.018 134.46 297.169C134.699 297.318 134.815 297.484 134.848 297.646C134.881 297.808 134.838 297.996 134.696 298.204C134.554 298.413 134.319 298.632 133.991 298.842C132.676 299.684 129.983 300.321 126.493 299.741L126.468 299.887C124.268 299.521 123.522 298.75 122.93 298.138C122.443 297.635 122.061 297.239 121.061 297.261L121.058 297.113C121.058 297.113 121.058 297.113 121.058 297.113C120.434 297.127 119.479 296.991 118.663 296.735C118.255 296.607 117.89 296.451 117.621 296.274C117.347 296.094 117.2 295.911 117.172 295.737C116.911 294.088 116.84 293.628 116.664 291.699L116.664 291.699C116.403 288.841 116.495 286.679 116.839 285.199C117.186 283.704 117.774 282.965 118.453 282.83C118.794 282.762 119.186 282.84 119.622 283.087C120.059 283.334 120.532 283.746 121.029 284.329C122.024 285.497 123.095 287.33 124.148 289.83Z" fill="#15E7BD" stroke="#08003F" stroke-width="0.296337"/>
<path fill-rule="evenodd" clip-rule="evenodd" d="M94.1141 202.858C94.1141 202.858 111.981 203.084 114.423 203.07C115.695 203.062 117.728 211.226 118.378 216.332C117.515 217.9 109.041 220.523 105.389 222.022C104.008 222.588 102.771 222.215 102.771 222.215C100.967 222.618 90.3359 216.51 90.3359 216.51C90.3359 216.51 91.1309 207.42 94.1141 202.858Z" fill="#08003F"/>
<path d="M100.017 201.752C103.59 202.171 108.663 202.284 114.706 201.077L114.721 203.217C114.716 203.219 114.712 203.222 114.707 203.224C114.648 203.257 114.555 203.304 114.42 203.362C114.151 203.479 113.717 203.64 113.068 203.808C111.768 204.146 109.607 204.516 106.175 204.638C102.879 204.755 99.8066 204.342 97.5568 203.899C96.4322 203.678 95.5141 203.45 94.8775 203.276C94.5592 203.19 94.3114 203.117 94.1434 203.066C94.0924 203.051 94.0488 203.037 94.0128 203.026L94.4843 200.645C94.5432 200.664 94.618 200.687 94.7083 200.715C94.9607 200.79 95.3342 200.896 95.82 201.014C96.7918 201.251 98.2136 201.54 100.017 201.752Z" fill="#F1F1F1" stroke="#08003F" stroke-width="0.296337"/>
<path fill-rule="evenodd" clip-rule="evenodd" d="M108.961 204.099L109.003 202.353C109.015 201.86 108.616 201.463 108.133 201.489C106.977 201.551 104.934 201.628 103.453 201.494C102.969 201.451 102.556 201.845 102.56 202.34L102.572 204.125C102.575 204.543 102.875 204.893 103.281 204.955C104.243 205.103 106.099 205.277 108.262 204.914C108.657 204.848 108.952 204.506 108.961 204.099Z" fill="#08003F"/>
<path fill-rule="evenodd" clip-rule="evenodd" d="M108.218 203.865L108.251 202.629C108.261 202.281 107.953 202 107.581 202.018C106.689 202.063 105.112 202.118 103.97 202.024C103.597 201.993 103.278 202.273 103.28 202.623L103.289 203.886C103.291 204.181 103.523 204.429 103.835 204.472C104.578 204.576 106.01 204.699 107.679 204.441C107.983 204.394 108.211 204.152 108.218 203.865Z" fill="#15E7BD"/>
<path fill-rule="evenodd" clip-rule="evenodd" d="M133.709 191.675C131.759 193.422 128.74 193.345 126.886 191.502L111.265 175.981C109.027 173.757 109.122 170.167 111.476 168.059C113.829 165.951 117.504 166.163 119.585 168.528L134.113 185.028C135.838 186.987 135.66 189.928 133.709 191.675Z" fill="#15E7BD"/>
<path fill-rule="evenodd" clip-rule="evenodd" d="M141.609 163.928L147.533 167.349L135.01 190.8C133.651 193.163 130.551 193.953 128.182 192.539C125.795 191.115 125.114 188.034 126.687 185.777L141.609 163.928Z" fill="#15E7BD"/>
<path d="M141.498 163.863C141.546 163.786 141.645 163.758 141.727 163.794L141.749 163.805L147.217 167.1C147.303 167.151 147.329 167.261 147.276 167.344C147.228 167.421 147.129 167.449 147.047 167.414L147.025 167.402L141.557 164.108C141.472 164.056 141.445 163.947 141.498 163.863Z" fill="#08003F"/>
<path d="M140.265 166.891C140.313 166.814 140.412 166.785 140.494 166.82L140.516 166.832L145.949 170.073C146.035 170.124 146.062 170.234 146.01 170.318C145.962 170.394 145.863 170.423 145.781 170.388L145.759 170.377L140.326 167.135C140.24 167.084 140.213 166.975 140.265 166.891Z" fill="#08003F"/>
<path fill-rule="evenodd" clip-rule="evenodd" d="M144.997 167.473C145.16 167.212 145.51 167.13 145.778 167.29C146.045 167.45 146.129 167.791 145.966 168.052C145.802 168.313 145.452 168.395 145.185 168.235C144.917 168.076 144.833 167.735 144.997 167.473Z" fill="#08003F"/>
<path fill-rule="evenodd" clip-rule="evenodd" d="M115.749 253.843C118.881 253.484 121.164 250.778 120.924 247.71L118.492 216.733C118.181 212.77 114.552 209.856 110.505 210.319C106.457 210.783 103.619 214.439 104.259 218.365L109.257 249.048C109.752 252.086 112.617 254.202 115.749 253.843Z" fill="#08003F"/>
<path fill-rule="evenodd" clip-rule="evenodd" d="M115.867 289.874L109.422 250.262C108.924 247.075 111.245 244.123 114.53 243.765C117.778 243.412 120.689 245.737 120.973 248.913L124.184 288.946C124.184 288.946 121.064 291.191 115.867 289.874Z" fill="#08003F"/>
<path d="M80.1023 290.437L80.2391 290.495L87.783 295.901L87.6354 295.889C87.6354 295.889 87.6354 295.889 87.6354 295.889C87.6206 296.064 87.4881 296.257 87.2281 296.455C86.9728 296.65 86.6203 296.831 86.2229 296.988C85.4277 297.301 84.4851 297.503 83.8613 297.533C83.2824 297.561 82.8977 297.71 82.5879 297.943C82.3457 298.124 82.1514 298.357 81.951 298.597C81.9032 298.654 81.8551 298.711 81.8059 298.769C81.5459 299.072 81.2378 299.395 80.7555 299.702C80.2723 300.008 79.608 300.301 78.6336 300.534L78.6681 300.679L78.6336 300.534C75.1953 301.357 72.462 300.911 71.0887 300.162C70.7462 299.976 70.4954 299.774 70.3382 299.576C70.1814 299.378 70.1244 299.193 70.1456 299.029C70.1668 298.866 70.2697 298.693 70.4976 298.527C70.7265 298.36 71.0727 298.208 71.5549 298.091C74.6094 297.351 76.7805 295.449 78.1851 293.739C78.8878 292.883 79.4004 292.074 79.7375 291.478C79.9061 291.18 80.031 290.935 80.1139 290.764C80.1554 290.679 80.1864 290.612 80.2071 290.566C80.2174 290.543 80.2252 290.526 80.2305 290.514L80.2365 290.5L80.2381 290.496L80.2385 290.495L80.2387 290.495C80.2387 290.495 80.2387 290.495 80.1023 290.437Z" fill="#15E7BD" stroke="#08003F" stroke-width="0.296337"/>
<path fill-rule="evenodd" clip-rule="evenodd" d="M91.1528 253.194C88.0422 252.688 85.8952 249.877 86.2874 246.825L90.2491 215.998C90.7562 212.054 94.526 209.314 98.5453 209.968C102.564 210.622 105.218 214.407 104.385 218.298L97.874 248.71C97.229 251.721 94.2633 253.7 91.1528 253.194Z" fill="#08003F"/>
<path fill-rule="evenodd" clip-rule="evenodd" d="M89.1429 290.146L97.6357 250.096C98.2848 246.934 96.1067 243.881 92.8426 243.375C89.6139 242.874 86.5964 245.065 86.1608 248.225L80.5205 288.75C80.5205 288.75 83.8886 291.226 89.1429 290.146Z" fill="#08003F"/>
<path d="M109.237 220.626C109.335 220.602 109.433 220.661 109.457 220.757C109.479 220.844 109.43 220.932 109.346 220.964L109.323 220.971L103.668 222.31C103.57 222.333 103.471 222.274 103.448 222.179C103.426 222.091 103.474 222.003 103.558 221.971L103.582 221.964L109.237 220.626Z" fill="#FAFAFA"/>
<path fill-rule="evenodd" clip-rule="evenodd" d="M115.932 196.614C115.932 196.614 120.465 177.211 118.258 167.434C116.215 166.885 113.934 166.059 109.439 164.756C108.492 164.482 106.162 166.359 104.995 166.312C103.269 166.243 101.757 164.459 100.116 164.619C92.1527 165.396 88.3906 167.409 88.3906 167.409L90.3271 182.241L93.5865 195.761C93.5865 195.761 91.0393 200.097 97.1192 201.503C102.743 202.803 111.675 202.742 115.036 200.828C116.5 199.994 116.661 198.464 115.932 196.614Z" fill="#15E7BD"/>
<path d="M104.705 166.321L108.931 163.652L110.455 165.519L108.202 169.687L104.705 166.321Z" fill="#15E7BD" stroke="#08003F" stroke-width="0.296337"/>
<path d="M97.8261 165.392L99.3768 163.587L104.223 166.329L101.075 169.465L97.8261 165.392Z" fill="#15E7BD" stroke="#08003F" stroke-width="0.296337"/>
<path fill-rule="evenodd" clip-rule="evenodd" d="M107.345 169.146L104.465 166.325L101.624 169.232L103.303 172.009L106.527 171.952L107.345 169.146Z" fill="#08003F"/>
<path fill-rule="evenodd" clip-rule="evenodd" d="M106.51 171.928L103.321 171.89L101.801 190.794C101.768 191.204 101.885 191.611 102.131 191.945L105.277 196.209C105.801 196.918 106.897 196.876 107.361 196.127L110.027 191.824C110.256 191.455 110.335 191.015 110.251 190.592L106.51 171.928Z" fill="#08003F"/>
<path d="M97.5216 165.248C97.5938 165.193 97.6951 165.2 97.7594 165.26L97.7776 165.279L101.079 169.418L104.336 166.2C104.399 166.137 104.499 166.13 104.571 166.179L104.591 166.196L108.206 169.552L110.472 165.418C110.515 165.339 110.612 165.305 110.696 165.335L110.719 165.345C110.8 165.388 110.835 165.482 110.804 165.564L110.794 165.586L108.415 169.926C108.362 170.022 108.236 170.048 108.148 169.986L108.128 169.971L104.469 166.574L101.192 169.812C101.121 169.882 101.007 169.882 100.937 169.816L100.919 169.796L97.4896 165.498C97.4278 165.42 97.4421 165.309 97.5216 165.248Z" fill="#08003F"/>
<path d="M106.271 171.87C106.339 171.87 106.393 171.922 106.394 171.988C106.394 172.046 106.352 172.095 106.295 172.105L106.273 172.107L103.494 172.125C103.427 172.125 103.373 172.072 103.372 172.007C103.372 171.949 103.414 171.9 103.471 171.89L103.493 171.887L106.271 171.87Z" fill="#15E7BD"/>
<path d="M93.0194 178.119C93.0747 178.037 93.1878 178.014 93.272 178.068C93.3485 178.117 93.3748 178.212 93.3374 178.291L93.3242 178.314L90.6796 182.239C90.6243 182.321 90.5112 182.344 90.427 182.29C90.3504 182.241 90.3241 182.145 90.3616 182.066L90.3747 182.043L93.0194 178.119Z" fill="#08003F"/>
<path d="M88.9067 167.042C89.0849 167.057 89.3837 167.123 89.7628 167.275C90.3877 167.527 91.0108 167.937 91.5904 168.542C92.542 169.534 93.2812 170.952 93.7295 172.862C93.752 172.958 93.6907 173.053 93.5925 173.075C93.4943 173.097 93.3964 173.037 93.3739 172.941C92.9395 171.091 92.2299 169.73 91.3239 168.785C90.781 168.218 90.2015 167.837 89.6236 167.604C89.423 167.523 89.2374 167.467 89.0719 167.431L88.9963 167.415C88.9396 167.404 88.8989 167.399 88.8761 167.397C88.7757 167.389 88.7012 167.303 88.7096 167.205C88.7174 167.115 88.7922 167.046 88.8819 167.042L88.9067 167.042Z" fill="#08003F"/>
<path fill-rule="evenodd" clip-rule="evenodd" d="M106.69 150.726C106.706 151.109 106.476 151.429 106.176 151.441C105.877 151.452 105.622 151.151 105.606 150.767C105.591 150.384 105.821 150.064 106.12 150.053C106.419 150.041 106.675 150.342 106.69 150.726Z" fill="#08003F"/>
<path fill-rule="evenodd" clip-rule="evenodd" d="M111.573 150.726C111.589 151.109 111.359 151.429 111.059 151.441C110.76 151.452 110.505 151.151 110.489 150.767C110.474 150.384 110.704 150.064 111.003 150.053C111.302 150.041 111.558 150.342 111.573 150.726Z" fill="#08003F"/>
<path d="M146.609 157.516C145.424 157.516 144.238 159.59 144.831 159.887C145.305 160.124 145.819 159.59 146.017 159.294C145.72 159.887 144.949 161.131 144.238 161.368" stroke="#08003F" stroke-width="0.296337" stroke-linecap="round"/>
<path d="M126.161 180.927C126.853 182.31 128.769 184.364 130.903 181.519" stroke="#08003F" stroke-width="0.296337" stroke-linecap="round"/>
<path d="M113.715 184.779C114.209 184.68 115.315 184.127 115.789 182.705" stroke="#08003F" stroke-width="0.296337" stroke-linecap="round"/>
<path d="M422.488 174.401H422.488C419.82 174.474 417.653 172.331 417.757 169.739L418.12 160.73L426.289 160.977L426.951 169.579C427.147 172.129 425.118 174.329 422.488 174.401Z" fill="#FBFBFF" stroke="#08003F" stroke-width="0.296337"/>
<path d="M414.046 159.373L414.046 159.373C413.942 159.553 413.907 159.874 413.954 160.284C414 160.686 414.123 161.145 414.305 161.58C414.488 162.015 414.726 162.419 414.999 162.713C415.272 163.008 415.566 163.178 415.86 163.186L414.046 159.373ZM414.046 159.373C414.149 159.195 414.281 159.133 414.429 159.128C414.589 159.122 414.777 159.183 414.966 159.28C415.154 159.377 415.328 159.5 415.457 159.601C415.521 159.652 415.573 159.696 415.609 159.727C415.624 159.74 415.636 159.751 415.645 159.76M414.046 159.373L415.645 159.76M415.645 159.76L415.654 159.777C415.668 159.804 415.688 159.843 415.712 159.893C415.762 159.993 415.83 160.137 415.907 160.308C416.06 160.653 416.243 161.108 416.369 161.56C416.496 162.018 416.557 162.447 416.486 162.75C416.452 162.897 416.39 163.004 416.299 163.074C416.207 163.145 416.07 163.192 415.86 163.186L415.645 159.76Z" fill="#F1F1F1" stroke="#08003F" stroke-width="0.296337"/>
<path d="M424.061 167.332L424.06 167.333L424.055 167.337C424.051 167.34 424.044 167.346 424.034 167.354C424.016 167.368 423.987 167.391 423.948 167.419C423.871 167.474 423.756 167.552 423.607 167.64C423.307 167.816 422.869 168.03 422.319 168.182C421.221 168.484 419.668 168.539 417.854 167.53C416.584 166.822 415.801 165.1 415.39 162.987C414.98 160.885 414.947 158.445 415.131 156.37C415.235 155.211 415.548 154.328 416.109 153.642C416.67 152.956 417.491 152.452 418.638 152.074C419.779 151.698 421.917 151.458 423.794 152.158C424.729 152.506 425.596 153.087 426.246 153.999C426.896 154.912 427.337 156.166 427.401 157.871C427.545 161.697 426.702 164.062 425.836 165.466C425.402 166.168 424.961 166.632 424.631 166.919C424.466 167.063 424.328 167.163 424.233 167.226C424.185 167.257 424.148 167.28 424.124 167.294C424.112 167.301 424.103 167.306 424.097 167.309L424.091 167.312L424.09 167.313L424.09 167.313L424.09 167.313L424.09 167.313L424.074 167.321L424.061 167.332L424.061 167.332L424.061 167.332L424.061 167.332Z" fill="#F1F1F1" stroke="#08003F" stroke-width="0.296337"/>
<path d="M419.097 157.327C419.158 157.31 419.221 157.338 419.248 157.392L419.256 157.413L419.682 158.864C419.686 158.876 419.688 158.888 419.687 158.901L419.686 158.919L419.033 162.736L420.577 162.702C420.641 162.701 420.695 162.746 420.707 162.805L420.709 162.826C420.71 162.888 420.665 162.941 420.603 162.953L420.583 162.955L418.883 162.992C418.81 162.993 418.751 162.935 418.751 162.866L418.753 162.845L419.426 158.906L419.008 157.483C418.99 157.423 419.02 157.361 419.075 157.335L419.097 157.327Z" fill="#08003F"/>
<path d="M421.065 156.584L421.098 156.585L422.379 156.688L422.677 156.71C423.538 156.769 424.092 156.774 424.361 156.713C424.547 156.671 424.732 156.784 424.775 156.965C424.818 157.146 424.702 157.327 424.516 157.368C424.145 157.452 423.531 157.446 422.543 157.375L422.024 157.335L421.093 157.259C421.076 157.258 421.06 157.257 421.045 157.256C420.855 157.241 420.713 157.079 420.728 156.894C420.742 156.72 420.889 156.587 421.065 156.584Z" fill="#08003F"/>
<path d="M421.791 163.76C421.887 163.733 421.987 163.787 422.015 163.88C422.043 163.973 421.988 164.071 421.892 164.098L421.805 164.121C421.786 164.125 421.763 164.131 421.739 164.136C421.617 164.163 421.476 164.19 421.315 164.215C420.61 164.326 419.786 164.366 418.87 164.295C418.771 164.287 418.697 164.202 418.705 164.105C418.713 164.008 418.8 163.935 418.899 163.943C419.785 164.012 420.58 163.974 421.258 163.867C421.38 163.848 421.49 163.828 421.588 163.808L421.718 163.779C421.753 163.771 421.777 163.764 421.791 163.76Z" fill="#08003F"/>
<path fill-rule="evenodd" clip-rule="evenodd" d="M426.839 160.855L428.134 158.148C428.134 158.148 428.883 154.279 427.917 152.655C426.418 150.135 423.182 150.305 421.238 149.682C419.293 149.057 419.291 148.426 418.515 148.555C417.738 148.685 414.787 150.833 414.519 152.991C414.284 154.888 414.935 159.683 414.935 159.683C414.935 159.683 415.338 155.406 415.722 154.268C417.225 153.6 422.758 153.396 425.091 154.018C425.091 154.018 425.339 155.461 425.489 156.479C426.754 157.304 426.839 160.855 426.839 160.855Z" fill="#08003F"/>
<path d="M426.413 164.176C426.448 164.115 426.527 164.094 426.59 164.129C426.652 164.163 426.673 164.24 426.638 164.301C426.037 165.329 425.394 166.16 424.715 166.809C422.659 168.772 420.459 168.956 418.44 168.089C418.197 167.985 417.98 167.873 417.791 167.761C417.741 167.732 417.695 167.704 417.655 167.678L417.563 167.617C417.559 167.614 417.556 167.611 417.553 167.609C417.496 167.567 417.484 167.488 417.527 167.433C417.569 167.377 417.651 167.365 417.708 167.407L417.742 167.431C417.783 167.459 417.845 167.498 417.925 167.546C418.105 167.652 418.312 167.759 418.544 167.858C420.474 168.687 422.561 168.512 424.534 166.628C425.195 165.997 425.824 165.184 426.413 164.176Z" fill="#08003F"/>
<path d="M419.261 158.666L420.512 158.677C420.655 158.678 420.77 158.792 420.768 158.931C420.767 159.061 420.665 159.167 420.536 159.18L420.507 159.181L419.256 159.17C419.114 159.169 418.999 159.055 419 158.916C419.001 158.786 419.103 158.679 419.233 158.667L419.261 158.666Z" fill="#08003F"/>
<path d="M419.674 159.326C419.921 159.305 420.174 159.357 420.421 159.454C420.544 159.503 420.64 159.553 420.698 159.588C420.819 159.662 420.856 159.818 420.781 159.936C420.705 160.054 420.546 160.09 420.425 160.017L420.386 159.995C420.347 159.974 420.292 159.948 420.226 159.922C420.049 159.852 419.873 159.816 419.72 159.829C419.603 159.839 419.505 159.878 419.421 159.952L419.39 159.981C419.292 160.082 419.128 160.087 419.024 159.991C418.92 159.895 418.916 159.735 419.014 159.634C419.195 159.448 419.422 159.348 419.674 159.326Z" fill="#08003F"/>
<path d="M416.634 156.39C417.191 156.349 417.775 156.452 418.35 156.647C418.642 156.746 418.868 156.846 419.001 156.915C419.169 157.003 419.233 157.206 419.143 157.37C419.054 157.534 418.845 157.596 418.677 157.509L418.623 157.483C418.599 157.471 418.568 157.457 418.532 157.441C418.41 157.388 418.273 157.333 418.123 157.283C417.63 157.115 417.135 157.028 416.686 157.061C416.34 157.086 416.039 157.181 415.785 157.356C415.629 157.463 415.414 157.427 415.304 157.275C415.195 157.123 415.232 156.913 415.387 156.806C415.75 156.557 416.171 156.424 416.634 156.39Z" fill="#08003F"/>
<path d="M420.685 165.169C420.757 165.169 420.815 165.225 420.815 165.295C420.815 165.358 420.769 165.41 420.707 165.42L420.686 165.422L419.667 165.425C419.596 165.426 419.537 165.369 419.537 165.3C419.537 165.237 419.584 165.185 419.645 165.175L419.666 165.173L420.685 165.169Z" fill="#08003F"/>
<path d="M427.193 158.63C427.336 158.629 427.453 158.741 427.454 158.88C427.456 159.01 427.356 159.118 427.226 159.133L427.198 159.135L425.147 159.154C425.004 159.155 424.887 159.043 424.886 158.904C424.884 158.774 424.984 158.666 425.114 158.651L425.142 158.649L427.193 158.63Z" fill="#08003F"/>
<path fill-rule="evenodd" clip-rule="evenodd" d="M424.989 158.507L421.072 158.522C420.799 158.523 420.578 158.739 420.581 159.006C420.587 159.504 420.619 160.302 420.754 160.984C420.914 161.789 421.659 162.279 422.499 162.314C423.548 162.357 424.489 162.355 424.963 161.822C425.685 161.01 425.502 159.679 425.484 158.973C425.477 158.714 425.255 158.506 424.989 158.507Z" fill="#F1F1F1"/>
<path d="M424.989 158.423L421.072 158.438C420.751 158.439 420.492 158.694 420.495 159.007C420.504 159.725 420.555 160.42 420.67 161C420.831 161.814 421.578 162.36 422.495 162.398L422.687 162.405C423.993 162.448 424.618 162.339 425.028 161.877C425.339 161.528 425.508 161.072 425.573 160.513C425.61 160.188 425.612 159.893 425.591 159.436L425.571 158.998C425.571 158.99 425.57 158.981 425.57 158.971C425.562 158.667 425.302 158.422 424.989 158.423ZM421.073 158.606L424.99 158.591C425.209 158.59 425.392 158.763 425.398 158.975L425.406 159.187L425.414 159.344C425.44 159.85 425.44 160.157 425.401 160.494C425.34 161.022 425.183 161.447 424.898 161.767C424.518 162.195 423.884 162.287 422.503 162.23C421.661 162.195 420.984 161.701 420.839 160.968C420.726 160.4 420.676 159.714 420.667 159.005C420.665 158.786 420.847 158.607 421.073 158.606Z" fill="#08003F"/>
<path fill-rule="evenodd" clip-rule="evenodd" d="M418.88 158.488L414.446 158.505C414.284 159.138 414.452 161.581 415.215 162.102C416.237 162.619 418.295 162.386 418.613 161.854C419.095 161.047 419.268 159.511 419.257 158.849C419.254 158.648 419.086 158.487 418.88 158.488Z" fill="#F1F1F1"/>
<path d="M418.88 158.404L414.446 158.421C414.406 158.421 414.372 158.448 414.362 158.485C414.127 159.404 414.484 161.706 415.166 162.171C416.19 162.69 418.326 162.501 418.687 161.896C419.105 161.197 419.359 159.785 419.344 158.848C419.34 158.601 419.133 158.403 418.88 158.404ZM414.515 158.589L418.88 158.572C419.039 158.571 419.169 158.695 419.171 158.851C419.187 159.76 418.937 161.144 418.539 161.812C418.232 162.325 416.197 162.504 415.255 162.028L415.221 162.003C414.666 161.552 414.34 159.533 414.507 158.629L414.515 158.589Z" fill="#08003F"/>
<path d="M425.406 158.279C425.549 158.275 425.668 158.385 425.672 158.524C425.677 158.654 425.579 158.764 425.45 158.781L425.422 158.784L420.567 158.927C420.424 158.931 420.305 158.821 420.301 158.682C420.297 158.552 420.394 158.442 420.524 158.425L420.552 158.422L425.406 158.279Z" fill="#08003F"/>
<path d="M414.413 158.348L419.171 158.395C419.314 158.397 419.428 158.511 419.427 158.65C419.425 158.78 419.323 158.886 419.194 158.899L419.165 158.9L414.407 158.853C414.265 158.852 414.15 158.737 414.151 158.598C414.153 158.468 414.255 158.362 414.384 158.35L414.413 158.348Z" fill="#08003F"/>
<path d="M427.499 158.782L427.499 158.782C427.717 158.543 427.998 158.389 428.282 158.355C428.561 158.321 428.853 158.402 429.108 158.649L429.108 158.649C429.302 158.836 429.428 159.18 429.458 159.623C429.487 160.06 429.42 160.571 429.252 161.064C428.916 162.049 428.196 162.922 427.096 163.044C427.042 163.035 426.99 163.002 426.938 162.926C426.88 162.84 426.831 162.711 426.797 162.539C426.727 162.196 426.722 161.727 426.768 161.227C426.815 160.728 426.912 160.207 427.043 159.762C427.175 159.311 427.336 158.96 427.499 158.782Z" fill="#F1F1F1" stroke="#08003F" stroke-width="0.296337"/>
<path d="M428.408 158.958C428.474 158.93 428.55 158.96 428.578 159.024C428.606 159.088 428.575 159.162 428.509 159.19L428.476 159.205C428.455 159.215 428.428 159.229 428.397 159.246C428.31 159.295 428.222 159.355 428.141 159.424C427.852 159.669 427.718 159.965 427.812 160.324C427.837 160.419 427.875 160.464 427.972 160.518L428.032 160.55C428.233 160.652 428.323 160.744 428.351 160.953C428.393 161.269 428.245 161.514 427.984 161.687C427.851 161.775 427.719 161.827 427.627 161.85C427.558 161.868 427.487 161.828 427.469 161.761C427.451 161.693 427.492 161.624 427.561 161.606L427.603 161.593C427.615 161.589 427.629 161.584 427.645 161.578C427.711 161.552 427.778 161.519 427.839 161.478C428.026 161.354 428.122 161.195 428.095 160.985C428.081 160.885 428.052 160.848 427.944 160.79L427.886 160.76C427.705 160.667 427.61 160.574 427.561 160.386C427.441 159.923 427.615 159.535 427.971 159.233C428.066 159.153 428.167 159.084 428.268 159.027C428.33 158.993 428.378 158.97 428.408 158.958Z" fill="#08003F"/>
<path fill-rule="evenodd" clip-rule="evenodd" d="M417.653 159.648C417.669 160.031 417.439 160.351 417.139 160.363C416.84 160.374 416.585 160.073 416.569 159.69C416.554 159.307 416.784 158.986 417.083 158.975C417.382 158.963 417.638 159.265 417.653 159.648Z" fill="#253368"/>
<path fill-rule="evenodd" clip-rule="evenodd" d="M423.29 159.729C423.305 160.113 423.075 160.433 422.776 160.444C422.477 160.455 422.221 160.154 422.206 159.771C422.191 159.388 422.42 159.067 422.72 159.056C423.019 159.044 423.274 159.346 423.29 159.729Z" fill="#08003F"/>
<path d="M411.687 287.535C411.658 287.523 411.622 287.509 411.581 287.493C411.454 287.445 411.271 287.378 411.046 287.303C410.597 287.155 409.983 286.979 409.324 286.869C408.663 286.758 407.964 286.714 407.341 286.823C406.725 286.931 406.194 287.187 405.84 287.666L405.829 287.688C405.818 287.712 405.801 287.746 405.779 287.79C405.736 287.877 405.671 288.005 405.587 288.164C405.419 288.481 405.173 288.924 404.862 289.428C404.239 290.433 403.348 291.688 402.283 292.664L402.283 292.664C400.903 293.93 399.64 294.671 398.597 295.258C398.527 295.297 398.458 295.336 398.39 295.374C397.441 295.907 396.717 296.313 396.251 296.902L411.687 287.535ZM411.687 287.535L411.688 287.661C411.69 287.806 411.692 288.016 411.694 288.275C411.697 288.794 411.701 289.512 411.7 290.309C411.697 291.901 411.676 293.802 411.599 295.06L411.599 295.061C411.598 295.068 411.595 295.079 411.59 295.094C411.58 295.124 411.562 295.171 411.529 295.231C411.464 295.35 411.34 295.522 411.107 295.71C410.639 296.086 409.728 296.531 407.963 296.739C406.593 296.9 405.87 297.38 405.145 297.948C405.064 298.012 404.983 298.077 404.901 298.142C404.258 298.654 403.559 299.21 402.34 299.68C400.039 300.567 398.332 300.319 397.205 299.861C396.639 299.63 396.217 299.346 395.936 299.119C395.796 299.006 395.691 298.908 395.623 298.839C395.593 298.809 395.57 298.784 395.554 298.766C395.553 298.742 395.552 298.707 395.553 298.664C395.556 298.565 395.567 298.42 395.604 298.244C395.677 297.891 395.849 297.409 396.251 296.902L411.687 287.535ZM411.6 295.056C411.6 295.055 411.6 295.055 411.6 295.056L411.6 295.056Z" fill="#08003F" stroke="#15E7BD" stroke-width="0.296337"/>
<path fill-rule="evenodd" clip-rule="evenodd" d="M412.585 288.716L418.438 250.444C418.882 247.134 416.446 244.116 413.043 243.762C409.64 243.407 406.605 245.855 406.323 249.181L403.054 287.643C403.054 287.643 407.751 290.097 412.585 288.716Z" fill="#15E7BD"/>
<path fill-rule="evenodd" clip-rule="evenodd" d="M411.757 255.026C408.463 254.683 406.06 251.827 406.358 248.609L409.186 218.041C409.516 214.468 412.784 211.852 416.441 212.233C420.098 212.614 422.726 215.844 422.275 219.404L418.423 249.866C418.017 253.072 415.05 255.369 411.757 255.026Z" fill="#15E7BD"/>
<path d="M436.199 299.735L436.146 299.874L436.199 299.735C434.978 299.27 434.277 298.716 433.633 298.207C433.55 298.142 433.469 298.078 433.387 298.014C432.66 297.449 431.936 296.971 430.565 296.815L430.548 296.962L430.565 296.815C428.8 296.614 427.886 296.172 427.417 295.797C427.183 295.611 427.059 295.439 426.993 295.32C426.96 295.261 426.942 295.214 426.932 295.183C426.927 295.168 426.924 295.157 426.922 295.151L426.922 295.15C426.841 293.892 426.79 292.164 426.76 290.747C426.745 290.037 426.735 289.406 426.729 288.953C426.726 288.726 426.724 288.544 426.722 288.418L426.721 288.312C426.753 288.294 426.795 288.272 426.845 288.245C426.974 288.177 427.16 288.083 427.389 287.975C427.846 287.76 428.47 287.495 429.14 287.296C429.812 287.096 430.521 286.965 431.15 287.008C431.772 287.051 432.301 287.263 432.653 287.734L432.664 287.757C432.676 287.78 432.692 287.814 432.714 287.858C432.758 287.946 432.823 288.073 432.908 288.231C433.077 288.548 433.324 288.99 433.638 289.493C434.265 290.496 435.16 291.747 436.229 292.72C437.614 293.981 438.88 294.717 439.925 295.3C439.995 295.339 440.065 295.378 440.133 295.416C441.084 295.945 441.809 296.349 442.278 296.936C442.681 297.441 442.855 297.923 442.93 298.275C442.967 298.451 442.979 298.596 442.982 298.695C442.984 298.738 442.983 298.773 442.982 298.797C442.966 298.815 442.943 298.84 442.913 298.87C442.845 298.939 442.741 299.038 442.601 299.152C442.321 299.379 441.9 299.665 441.335 299.897C440.21 300.36 438.503 300.614 436.199 299.735Z" fill="#08003F" stroke="#15E7BD" stroke-width="0.296337"/>
<path fill-rule="evenodd" clip-rule="evenodd" d="M424.21 288.273L422.232 249.727C422.061 246.393 424.738 243.575 428.159 243.487C431.579 243.4 434.404 246.076 434.413 249.414L433.796 288.012C433.796 288.012 428.916 290.027 424.21 288.273Z" fill="#15E7BD"/>
<path fill-rule="evenodd" clip-rule="evenodd" d="M428.473 255.166C431.785 255.081 434.414 252.421 434.381 249.19L434.067 218.5C434.031 214.912 430.988 212.05 427.312 212.144C423.635 212.239 420.751 215.253 420.908 218.838L422.252 249.502C422.393 252.73 425.162 255.251 428.473 255.166Z" fill="#15E7BD"/>
<path fill-rule="evenodd" clip-rule="evenodd" d="M432.512 200.765C432.512 200.765 433.991 190.983 434.783 187.083C435.575 183.183 437.019 173.841 435.354 173.211C433.69 172.581 429.334 171.298 429.334 171.298C429.334 171.298 425.851 171.429 422.37 172.294C419.614 172.978 419.93 171.26 416.582 171.932C415.164 172.217 408.911 172.504 408.726 173.837C406.891 187.078 410.644 202.916 410.644 202.916C410.644 202.916 409.365 204.304 411.052 205.975C411.608 206.515 415.342 206.348 419.782 206.188C424.836 206.005 431.117 205.709 431.869 205.416C434.291 204.47 432.512 200.765 432.512 200.765Z" fill="#08003F"/>
<path fill-rule="evenodd" clip-rule="evenodd" d="M418.107 169.842L421.439 172.392L417.96 176.184L415.963 171.893L418.107 169.842Z" fill="#08003F"/>
<path fill-rule="evenodd" clip-rule="evenodd" d="M421.359 172.482L424.723 176.714L429.191 171.164L427.123 168.934L421.359 172.482Z" fill="#08003F"/>
<path d="M421.068 173.139C421.098 173.047 421.2 172.996 421.295 173.026C421.39 173.056 421.442 173.155 421.411 173.248L421.395 173.301C421.386 173.332 421.374 173.374 421.36 173.426L421.349 173.468C421.298 173.663 421.241 173.91 421.179 174.213L421.138 174.418C420.974 175.258 420.811 176.329 420.658 177.657L420.621 177.983C420.275 181.114 420.033 185.164 419.94 190.25L419.931 190.789C419.843 196.311 420.106 201.035 420.519 204.553C420.53 204.649 420.459 204.737 420.36 204.748C420.261 204.759 420.172 204.689 420.16 204.593L420.119 204.229C419.735 200.799 419.493 196.295 419.566 191.064L419.579 190.243C419.676 184.968 419.932 180.803 420.299 177.618L420.338 177.289C420.487 176.049 420.645 175.042 420.804 174.247L420.825 174.144C420.881 173.87 420.933 173.639 420.981 173.45L421.022 173.297C421.042 173.221 421.058 173.169 421.068 173.139Z" fill="#08003F"/>
<path d="M425.318 180.876L425.153 180.929C425.077 180.953 425.028 181.023 425.029 181.1L425.04 181.502C425.071 182.623 425.118 183.59 425.176 184.414L425.204 184.784C425.232 185.138 425.261 185.446 425.29 185.709L425.3 185.795C425.312 185.897 425.323 185.987 425.334 186.063L425.352 186.195C425.354 186.208 425.356 186.218 425.357 186.225C425.366 186.275 425.396 186.319 425.44 186.346L428.203 188.034C428.261 188.07 428.335 188.07 428.393 188.035L431.8 186C431.851 185.969 431.883 185.916 431.886 185.857L432.092 180.624C432.096 180.537 432.033 180.46 431.944 180.444L431.845 180.428L431.769 180.417C431.629 180.397 431.468 180.376 431.287 180.358C429.395 180.161 427.299 180.261 425.318 180.876ZM431.248 180.708L431.352 180.719L431.507 180.737C431.557 180.744 431.604 180.75 431.65 180.756L431.725 180.767L431.528 185.749L428.3 187.678L425.702 186.09L425.676 185.896L425.659 185.755C425.624 185.45 425.588 185.079 425.555 184.638L425.526 184.244L425.507 183.943C425.466 183.278 425.432 182.527 425.407 181.687L425.394 181.222L425.427 181.212C427.354 180.614 429.402 180.516 431.248 180.708Z" fill="#253368"/>
<path fill-rule="evenodd" clip-rule="evenodd" d="M421.303 175.845C421.311 176.158 421.534 176.408 421.802 176.402C422.07 176.396 422.281 176.137 422.274 175.823C422.266 175.509 422.043 175.259 421.775 175.265C421.507 175.272 421.295 175.531 421.303 175.845Z" fill="white"/>
<path fill-rule="evenodd" clip-rule="evenodd" d="M420.762 181.636C420.77 181.95 420.993 182.199 421.261 182.193C421.529 182.187 421.74 181.928 421.733 181.614C421.725 181.3 421.502 181.051 421.234 181.057C420.966 181.063 420.754 181.323 420.762 181.636Z" fill="#15E7BD"/>
<path fill-rule="evenodd" clip-rule="evenodd" d="M420.523 187.894C420.53 188.208 420.753 188.458 421.022 188.452C421.29 188.445 421.501 188.186 421.493 187.872C421.486 187.559 421.263 187.309 420.994 187.315C420.726 187.322 420.515 187.581 420.523 187.894Z" fill="#15E7BD"/>
<path fill-rule="evenodd" clip-rule="evenodd" d="M420.709 194.222C420.717 194.535 420.94 194.785 421.208 194.779C421.476 194.772 421.687 194.513 421.68 194.199C421.672 193.886 421.449 193.636 421.181 193.642C420.913 193.649 420.702 193.908 420.709 194.222Z" fill="#15E7BD"/>
<path fill-rule="evenodd" clip-rule="evenodd" d="M420.849 201.529C420.856 201.843 421.08 202.092 421.348 202.086C421.616 202.08 421.827 201.821 421.82 201.507C421.812 201.193 421.589 200.944 421.321 200.95C421.053 200.956 420.841 201.216 420.849 201.529Z" fill="white"/>
<path d="M424.704 176.521L424.819 176.663L424.934 176.52L429.11 171.315L428.994 171.222L429.11 171.315C429.121 171.301 429.143 171.298 429.158 171.309C429.169 171.318 429.171 171.33 429.167 171.34L429.16 171.351L424.846 176.728C424.841 176.735 424.833 176.739 424.822 176.74C424.813 176.741 424.805 176.738 424.799 176.734L424.79 176.724L421.386 172.545C421.377 172.534 421.378 172.518 421.39 172.508C421.403 172.499 421.421 172.499 421.433 172.508L421.442 172.517L424.704 176.521Z" fill="#08003F" stroke="#15E7BD" stroke-width="0.296337"/>
<path d="M421.341 172.52L421.227 172.426L421.341 172.52C421.345 172.516 421.35 172.513 421.356 172.511C421.362 172.51 421.367 172.511 421.372 172.513L421.38 172.518C421.386 172.524 421.387 172.531 421.385 172.537L421.378 172.546L417.882 176.818C417.877 176.825 417.869 176.828 417.86 176.827C417.851 176.827 417.845 176.823 417.842 176.819L417.836 176.809L415.957 172.346C415.954 172.338 415.956 172.327 415.97 172.321C415.982 172.316 415.994 172.321 416 172.328L416.005 172.338L417.773 176.536L417.869 176.763L418.024 176.572L421.341 172.52Z" fill="#08003F" stroke="#15E7BD" stroke-width="0.296337"/>
<path d="M408.236 180.13C408.323 180.128 408.397 180.189 408.411 180.271L408.415 180.334L408.431 180.794C408.439 180.996 408.448 181.22 408.458 181.465L408.487 182.127C408.518 182.805 408.554 183.531 408.597 184.297L408.611 184.554C408.793 187.749 409.041 190.945 409.366 193.927L409.419 194.404C409.802 197.804 410.264 200.682 410.812 202.876C410.824 202.923 410.814 202.973 410.786 203.013C410.075 204.005 410.155 204.808 410.712 205.452C410.808 205.563 410.91 205.659 411.012 205.739L411.068 205.781L411.113 205.813L411.186 205.822C413.163 206.053 416.059 206.099 419.637 205.992L420.057 205.979C422.137 205.911 424.354 205.796 426.62 205.647L427.23 205.607C428.239 205.538 429.205 205.466 430.109 205.394L431.219 205.303L431.853 205.248C431.948 205.24 432.032 205.308 432.041 205.4C432.05 205.493 431.98 205.575 431.886 205.583L431.249 205.639C431.036 205.657 430.805 205.676 430.558 205.696L429.587 205.773C428.657 205.845 427.669 205.916 426.643 205.983C424.373 206.132 422.153 206.247 420.069 206.315L419.651 206.328C415.985 206.438 413.031 206.388 411.03 206.142C411.006 206.139 410.982 206.131 410.961 206.119C410.829 206.039 410.638 205.889 410.448 205.669C409.822 204.944 409.707 204.023 410.409 202.957L410.459 202.883L410.439 202.801C409.89 200.558 409.43 197.64 409.049 194.203L409.023 193.962C408.716 191.15 408.478 188.149 408.3 185.137L408.267 184.572C408.218 183.711 408.176 182.896 408.142 182.141L408.094 181.016L408.068 180.304C408.066 180.211 408.141 180.134 408.236 180.13Z" fill="#08003F"/>
<path fill-rule="evenodd" clip-rule="evenodd" d="M433.957 218.494L423.465 223.355C423.465 223.355 421.174 223.948 419.343 223.365C416.403 222.429 411.422 220.978 409.362 218.12C409.014 213.909 410.809 208.205 410.809 208.205L411.018 205.659C411.018 205.659 420.413 206.39 431.709 205.062C431.827 206.315 432.175 207.839 432.175 207.839C432.175 207.839 434.75 214.194 433.957 218.494Z" fill="#15E7BD"/>
<path d="M410.686 192.627L408.855 196.2C417.242 196.795 433.224 198.105 430.05 198.581C426.876 199.058 427.71 201.559 428.524 202.75C428.524 202.75 420.348 204.191 415.094 204.536C409.84 204.881 404.521 205.727 400.614 204.536C396.707 203.345 397.155 200.07 397.867 198.581L401.835 189.352L410.686 192.627Z" fill="#F1F1F1" stroke="#08003F" stroke-width="0.296337" stroke-linecap="round"/>
<path d="M431.418 207.688C431.43 207.757 431.382 207.822 431.312 207.834L431.022 207.878L430.639 207.934C430.501 207.954 430.355 207.974 430.2 207.996C429.312 208.117 428.316 208.238 427.235 208.352C423.432 208.75 419.581 208.949 415.986 208.841C414.257 208.789 412.634 208.666 411.135 208.464C411.064 208.455 411.015 208.391 411.025 208.322C411.034 208.253 411.1 208.205 411.17 208.214C412.659 208.414 414.273 208.537 415.994 208.589C419.575 208.696 423.415 208.498 427.207 208.101L427.699 208.048C428.508 207.959 429.264 207.867 429.958 207.774L430.497 207.699L431.098 207.611L431.27 207.585C431.34 207.573 431.407 207.62 431.418 207.688Z" fill="#08003F"/>
<path d="M431.79 205.149C431.798 205.218 431.747 205.28 431.676 205.288L431.166 205.34C431.029 205.354 430.881 205.368 430.724 205.383L430.48 205.406C429.594 205.488 428.606 205.569 427.537 205.647L427.289 205.664C423.164 205.956 418.984 206.1 415.084 206.018C413.657 205.988 412.296 205.927 411.01 205.834C410.939 205.829 410.886 205.768 410.891 205.699C410.896 205.629 410.958 205.577 411.03 205.582C412.311 205.675 413.667 205.736 415.089 205.766C418.981 205.848 423.152 205.704 427.27 205.413C428.433 205.331 429.503 205.243 430.456 205.155L431.035 205.1L431.648 205.037C431.719 205.03 431.782 205.079 431.79 205.149Z" fill="#597EF7"/>
<path d="M420.632 205.912C420.704 205.915 420.759 205.973 420.757 206.043L420.733 206.792C420.723 207.113 420.714 207.466 420.705 207.847C420.642 210.596 420.631 213.478 420.703 216.174L420.715 216.586C420.798 219.313 420.966 221.58 421.234 223.242C421.245 223.311 421.197 223.376 421.127 223.386C421.056 223.397 420.99 223.35 420.979 223.281L420.939 223.026C420.679 221.291 420.52 218.962 420.445 216.18C420.377 213.673 420.382 211.005 420.434 208.433L420.458 207.367C420.466 207.061 420.474 206.777 420.482 206.517L420.498 206.034C420.501 205.964 420.561 205.91 420.632 205.912Z" fill="#08003F"/>
<path fill-rule="evenodd" clip-rule="evenodd" d="M409.913 193.837L399.971 189.603L405.542 176.522C406.762 173.659 410.152 172.328 413.065 173.568C415.978 174.809 417.282 178.138 415.959 180.957L409.913 193.837Z" fill="#08003F"/>
<path d="M400.354 189.958C400.386 189.878 400.474 189.835 400.558 189.855L400.581 189.862L410.507 193.682C410.597 193.717 410.641 193.816 410.606 193.904C410.573 193.984 410.485 194.027 410.401 194.007L410.379 194L400.452 190.18C400.362 190.145 400.318 190.046 400.354 189.958Z" fill="#15E7BD"/>
<path fill-rule="evenodd" clip-rule="evenodd" d="M418.541 207.407C418.549 207.721 418.758 207.97 419.008 207.965C419.258 207.959 419.454 207.7 419.447 207.387C419.44 207.073 419.231 206.823 418.981 206.829C418.73 206.834 418.534 207.093 418.541 207.407Z" fill="#08003F"/>
<path d="M418.001 208.744C418.072 208.748 418.127 208.807 418.123 208.877L418.107 209.219C418.095 209.494 418.082 209.807 418.071 210.15C418.017 211.779 418 213.466 418.043 215.04C418.061 215.708 418.089 216.337 418.13 216.919C418.251 218.682 418.813 219.402 420.771 219.575C420.842 219.581 420.895 219.643 420.888 219.712C420.882 219.782 420.819 219.833 420.748 219.826L420.571 219.809C418.611 219.593 417.998 218.758 417.871 216.936C417.831 216.35 417.802 215.718 417.784 215.047C417.745 213.61 417.755 212.082 417.799 210.588L417.812 210.141C417.819 209.945 417.826 209.758 417.833 209.583L417.858 209.01L417.865 208.864C417.869 208.794 417.929 208.741 418.001 208.744Z" fill="#08003F"/>
<path d="M428.769 179.559L428.769 179.559C428.159 176.622 430.168 173.771 433.207 173.277C436.286 172.777 439.158 174.898 439.506 177.914L439.506 177.914L442.022 199.688C442.291 202.016 440.616 204.137 438.23 204.473C435.888 204.802 433.693 203.29 433.226 201.035L428.769 179.559Z" fill="#F1F1F1" stroke="#08003F" stroke-width="0.296337"/>
<path fill-rule="evenodd" clip-rule="evenodd" d="M441.464 191.791L430.726 193.302L428.397 179.32C427.887 176.26 430.049 173.387 433.195 172.944C436.341 172.501 439.248 174.661 439.646 177.737L441.464 191.791Z" fill="#08003F"/>
<path d="M441.438 191.617C441.537 191.603 441.629 191.67 441.643 191.766C441.656 191.854 441.599 191.937 441.514 191.96L441.49 191.965L430.752 193.477C430.654 193.491 430.562 193.424 430.548 193.328C430.535 193.239 430.591 193.157 430.677 193.133L430.701 193.128L441.438 191.617Z" fill="#15E7BD"/>
<path d="M420.364 176.242L420.364 176.242C419.76 175.054 420.207 173.612 421.389 172.949C422.565 172.29 424.063 172.631 424.818 173.726C424.818 173.726 424.818 173.726 424.818 173.726L441.38 197.736C442.856 199.877 442.151 202.792 439.844 204.063C437.572 205.314 434.692 204.448 433.535 202.172L420.364 176.242Z" fill="#F1F1F1" stroke="#08003F" stroke-width="0.296337"/>
<path d="M421.784 169.229C421.893 169.124 421.947 168.976 421.974 168.82C422.001 168.663 422.004 168.482 421.993 168.29C421.978 168.012 421.934 167.695 421.891 167.38C421.875 167.263 421.859 167.147 421.845 167.033C421.79 166.602 421.757 166.207 421.804 165.915C421.828 165.77 421.869 165.665 421.925 165.594C421.978 165.528 422.05 165.483 422.161 165.471L422.161 165.471C422.225 165.463 422.292 165.482 422.368 165.545C422.448 165.61 422.531 165.717 422.617 165.866C422.79 166.163 422.951 166.59 423.122 167.08C423.167 167.209 423.213 167.343 423.259 167.479C423.386 167.851 423.52 168.241 423.665 168.613C423.862 169.119 424.087 169.604 424.358 169.977L424.358 169.977C425.096 170.993 425.407 172.126 425.533 173.009C425.596 173.45 425.612 173.827 425.613 174.093C425.613 174.226 425.609 174.331 425.606 174.403C425.604 174.438 425.602 174.466 425.601 174.484L425.599 174.504L425.599 174.508L425.599 174.509L425.599 174.51L425.599 174.51L425.599 174.51L425.598 174.517L425.598 174.525V174.525L425.598 174.525V174.525L425.598 174.526L425.598 174.531L425.598 174.553C425.597 174.573 425.596 174.603 425.594 174.642C425.591 174.719 425.582 174.829 425.566 174.964C425.532 175.233 425.464 175.594 425.327 175.962C425.054 176.699 424.515 177.445 423.436 177.59C422.845 177.669 422.212 177.473 421.584 177.114C420.958 176.756 420.352 176.245 419.82 175.717C419.289 175.191 418.835 174.653 418.515 174.247C418.354 174.044 418.228 173.874 418.141 173.755C418.098 173.695 418.064 173.648 418.042 173.617L418.017 173.581L418.011 173.572L418.009 173.569L418.009 173.569L418.009 173.569L418.008 173.568C416.188 170.946 415.565 168.6 415.59 167.052C415.603 166.273 415.78 165.718 416.026 165.423C416.147 165.278 416.281 165.2 416.418 165.18C416.556 165.16 416.717 165.193 416.9 165.308L416.979 165.183L416.9 165.308C416.985 165.362 417.106 165.477 417.26 165.651C417.412 165.822 417.586 166.038 417.777 166.282C417.864 166.393 417.955 166.51 418.049 166.631C418.364 167.036 418.712 167.484 419.067 167.899C419.526 168.435 420.009 168.93 420.463 169.215C420.69 169.357 420.922 169.455 421.148 169.469C421.381 169.484 421.599 169.409 421.784 169.229ZM421.784 169.229L421.681 169.123L421.784 169.229C421.784 169.229 421.784 169.229 421.784 169.229Z" fill="#F1F1F1" stroke="#08003F" stroke-width="0.296337"/>
<path d="M416.211 165.624C416.278 165.601 416.352 165.635 416.376 165.701C416.659 166.476 417.09 167.241 417.63 167.979C417.985 168.465 418.366 168.911 418.747 169.306C418.853 169.416 418.954 169.517 419.047 169.606L419.208 169.757C419.227 169.774 419.241 169.787 419.252 169.796C419.305 169.843 419.31 169.922 419.262 169.974C419.215 170.026 419.133 170.031 419.08 169.984L419.012 169.924C418.99 169.904 418.964 169.88 418.935 169.852C418.821 169.745 418.695 169.62 418.559 169.479C418.17 169.076 417.782 168.622 417.419 168.126C416.866 167.37 416.424 166.585 416.133 165.785C416.109 165.72 416.144 165.648 416.211 165.624Z" fill="#08003F"/>
<path d="M415.578 166.783C415.646 166.763 415.718 166.8 415.739 166.867L415.76 166.927L415.803 167.042C415.821 167.091 415.842 167.144 415.866 167.2C415.979 167.472 416.125 167.78 416.309 168.117C416.834 169.083 417.551 170.089 418.487 171.085C418.536 171.136 418.532 171.216 418.479 171.263C418.427 171.31 418.345 171.307 418.297 171.255C417.345 170.243 416.616 169.219 416.08 168.236C415.893 167.891 415.742 167.575 415.626 167.295L415.581 167.183C415.566 167.147 415.553 167.113 415.542 167.081L415.501 166.968C415.497 166.957 415.494 166.948 415.492 166.941C415.471 166.874 415.51 166.804 415.578 166.783Z" fill="#08003F"/>
<path d="M415.825 169.311C415.888 169.279 415.966 169.302 415.999 169.364C416.517 170.314 417.034 171.096 417.526 171.721C417.676 171.912 417.814 172.076 417.939 172.213L417.991 172.27C418.073 172.359 418.129 172.415 418.158 172.442C418.21 172.49 418.211 172.57 418.162 172.62C418.113 172.671 418.031 172.673 417.979 172.625L417.931 172.577L417.869 172.514C417.847 172.491 417.824 172.466 417.799 172.439C417.657 172.286 417.497 172.098 417.321 171.875C416.82 171.239 416.295 170.445 415.771 169.482C415.737 169.421 415.761 169.344 415.825 169.311Z" fill="#08003F"/>
<path d="M416.071 164.866C416.413 164.681 416.765 164.809 417.093 165.115C417.167 165.184 417.235 165.258 417.295 165.332L417.349 165.402C417.359 165.415 417.367 165.427 417.374 165.437L417.457 165.565L417.584 165.757C417.64 165.84 417.7 165.929 417.764 166.021C418.067 166.459 418.392 166.898 418.723 167.307C419.053 167.713 419.373 168.068 419.674 168.356C420.192 168.851 420.636 169.126 420.967 169.14C421.405 169.159 421.619 169.019 421.704 168.716C421.769 168.484 421.764 168.238 421.7 167.688L421.655 167.312C421.631 167.101 421.619 166.964 421.615 166.818L421.601 166.401C421.572 165.474 421.633 165.345 422.123 165.199L422.143 165.197C422.294 165.184 422.477 165.23 422.65 165.378C422.779 165.49 422.886 165.651 422.964 165.864L423.009 166C423.042 166.103 423.103 166.292 423.131 166.379C423.203 166.6 423.273 166.808 423.347 167.022C423.545 167.588 423.751 168.124 423.971 168.627C424.321 169.428 424.684 170.091 425.056 170.578C425.357 170.971 425.563 171.651 425.696 172.543C425.768 173.027 425.814 173.545 425.84 174.065L425.85 174.291C425.858 174.504 425.86 174.676 425.86 174.793C425.86 174.864 425.802 174.92 425.731 174.92C425.666 174.92 425.613 174.874 425.603 174.814L425.602 174.794L425.6 174.609C425.597 174.467 425.592 174.286 425.581 174.077C425.556 173.565 425.511 173.055 425.44 172.579C425.313 171.726 425.117 171.079 424.849 170.729C424.462 170.224 424.09 169.544 423.733 168.726C423.51 168.217 423.302 167.675 423.103 167.103C423.053 166.959 423.005 166.818 422.957 166.674L422.74 166.006C422.674 165.801 422.584 165.659 422.478 165.567C422.376 165.479 422.274 165.447 422.191 165.447L422.168 165.448L422.114 165.465C421.861 165.551 421.834 165.652 421.859 166.397L421.876 166.886C421.881 166.974 421.888 167.066 421.901 167.181L421.966 167.74C422.025 168.271 422.026 168.522 421.953 168.783C421.835 169.203 421.511 169.416 420.955 169.392C420.542 169.374 420.054 169.071 419.494 168.537C419.183 168.24 418.857 167.878 418.52 167.463C418.184 167.049 417.856 166.605 417.549 166.162L417.426 165.981C417.386 165.923 417.348 165.866 417.312 165.812L417.156 165.573L417.125 165.53C417.116 165.518 417.105 165.504 417.092 165.488C417.039 165.423 416.979 165.358 416.914 165.297C416.659 165.058 416.413 164.969 416.196 165.086C416.112 165.132 416.03 165.207 415.95 165.318C415.908 165.375 415.828 165.388 415.769 165.348C415.711 165.308 415.697 165.229 415.739 165.172C415.84 165.032 415.951 164.93 416.071 164.866Z" fill="#08003F"/>
<path d="M403.338 195.81L429.163 197.994C429.229 198 429.277 198.056 429.272 198.12C429.266 198.178 429.22 198.221 429.164 198.227L429.142 198.227L403.317 196.042C403.251 196.037 403.203 195.98 403.208 195.916C403.214 195.859 403.26 195.815 403.316 195.81L403.338 195.81Z" fill="#08003F"/>
<path d="M433.53 205.157L433.53 205.157C436.577 206.104 439.096 206.056 440.663 205.629C441.452 205.414 441.978 205.108 442.221 204.807C442.34 204.659 442.384 204.521 442.372 204.4C442.361 204.278 442.292 204.145 442.131 204.009L442.131 204.009C441.787 203.72 441.263 203.542 440.674 203.364C440.61 203.345 440.547 203.326 440.482 203.307C439.959 203.152 439.406 202.987 438.952 202.731L438.952 202.731C438.16 202.285 437.602 201.884 437.257 201.479C436.907 201.066 436.776 200.645 436.847 200.175C436.87 200.021 436.962 199.909 437.083 199.833C437.2 199.759 437.35 199.714 437.509 199.684C437.802 199.629 438.176 199.617 438.553 199.605C438.586 199.604 438.619 199.603 438.652 199.601C439.069 199.587 439.488 199.569 439.838 199.495C440.194 199.421 440.441 199.299 440.56 199.109L433.53 205.157ZM433.53 205.157L433.529 205.157L433.529 205.156L433.527 205.156L433.518 205.153L433.483 205.142C433.452 205.132 433.407 205.117 433.348 205.097C433.23 205.057 433.061 204.998 432.853 204.92C432.437 204.765 431.87 204.536 431.262 204.241C430.039 203.648 428.688 202.805 428.066 201.788C427.62 201.06 427.58 200.485 427.739 200.029C427.902 199.565 428.281 199.195 428.736 198.905C429.189 198.615 429.702 198.415 430.104 198.288C430.305 198.224 430.477 198.179 430.598 198.15C430.659 198.135 430.707 198.124 430.739 198.117L430.776 198.11L430.785 198.108L430.787 198.108L430.788 198.108L430.788 198.108M433.53 205.157L430.788 198.108M430.788 198.108L430.788 198.108L430.799 198.105L430.799 198.105L430.799 198.105L430.8 198.105L430.8 198.105L430.802 198.104L430.812 198.102C430.822 198.099 430.837 198.096 430.857 198.091C430.898 198.082 430.961 198.068 431.046 198.053C431.216 198.022 431.476 197.983 431.831 197.951C432.542 197.885 433.632 197.846 435.145 197.952C435.987 198.011 437.492 198.151 438.72 198.378C439.336 198.491 439.871 198.625 440.217 198.777C440.392 198.854 440.499 198.927 440.549 198.99C440.572 199.018 440.578 199.038 440.579 199.05C440.58 199.061 440.578 199.079 440.56 199.109L430.788 198.108Z" fill="#F1F1F1" stroke="#08003F" stroke-width="0.296337"/>
<path d="M437.012 202.868C437.058 202.822 437.134 202.821 437.181 202.867L437.218 202.9C437.23 202.91 437.243 202.922 437.259 202.936C437.327 202.993 437.408 203.057 437.503 203.126C437.774 203.324 438.098 203.523 438.474 203.709C439.393 204.162 440.464 204.463 441.685 204.541C441.751 204.545 441.801 204.6 441.796 204.664C441.792 204.729 441.735 204.777 441.669 204.773C440.415 204.694 439.313 204.384 438.366 203.917C437.977 203.725 437.641 203.519 437.359 203.313C437.26 203.24 437.174 203.173 437.103 203.112L437.039 203.056C437.028 203.047 437.019 203.039 437.013 203.033C436.966 202.987 436.966 202.914 437.012 202.868Z" fill="#08003F"/>
<path d="M436.031 204.075C436.067 204.021 436.141 204.006 436.196 204.041C436.383 204.159 436.577 204.269 436.778 204.371C437.507 204.741 438.289 204.99 439.071 205.139C439.306 205.184 439.526 205.217 439.728 205.24L439.827 205.251C439.886 205.257 439.941 205.262 439.99 205.266L440.098 205.272C440.102 205.273 440.106 205.273 440.109 205.273C440.175 205.275 440.227 205.329 440.225 205.393C440.222 205.458 440.167 205.508 440.101 205.506L440.021 205.502L439.919 205.494C439.882 205.491 439.843 205.487 439.802 205.483C439.567 205.459 439.306 205.422 439.025 205.368C438.222 205.215 437.418 204.959 436.667 204.578C436.46 204.473 436.26 204.359 436.066 204.237C436.011 204.202 435.995 204.129 436.031 204.075Z" fill="#08003F"/>
<path d="M434.584 204.65C434.626 204.6 434.701 204.593 434.752 204.633L434.776 204.65C434.791 204.661 434.812 204.676 434.839 204.694C434.916 204.746 435.011 204.803 435.123 204.865C435.447 205.044 435.85 205.224 436.336 205.391C436.854 205.57 437.436 205.725 438.086 205.849C438.151 205.861 438.194 205.923 438.181 205.986C438.168 206.049 438.106 206.09 438.041 206.078C437.379 205.952 436.785 205.794 436.256 205.611C435.757 205.439 435.341 205.254 435.005 205.068C434.911 205.016 434.828 204.966 434.756 204.921L434.704 204.887C434.654 204.853 434.62 204.829 434.602 204.814C434.551 204.774 434.543 204.701 434.584 204.65Z" fill="#08003F"/>
<path d="M430.934 197.904C432.238 197.679 433.673 197.583 435.164 197.688C436.351 197.771 437.718 197.923 438.769 198.117L439.002 198.162C439.569 198.275 440.016 198.399 440.325 198.535C440.767 198.729 440.962 198.971 440.788 199.248C440.53 199.659 439.993 199.82 438.973 199.914L438.36 199.964C437.434 200.042 437.101 200.138 437.067 200.365C436.962 201.06 437.579 201.645 439.345 202.64C439.599 202.783 439.876 202.893 440.238 203.002L440.551 203.091L440.788 203.155C441.589 203.371 441.956 203.514 442.305 203.808C443.139 204.511 442.399 205.43 440.735 205.884C438.899 206.385 436.343 206.283 433.605 205.457L433.404 205.395L433.192 205.324C432.988 205.254 432.762 205.171 432.518 205.076C431.82 204.805 431.122 204.489 430.471 204.132C430.399 204.093 430.329 204.053 430.259 204.014C430.202 203.981 430.183 203.91 430.217 203.854C430.25 203.798 430.323 203.78 430.38 203.812C430.449 203.851 430.518 203.89 430.588 203.928C431.229 204.28 431.918 204.591 432.606 204.859C432.807 204.938 432.996 205.007 433.169 205.068L433.457 205.166L433.522 205.187C436.277 206.044 438.847 206.157 440.67 205.659C442.185 205.246 442.775 204.512 442.149 203.984C441.847 203.731 441.518 203.597 440.811 203.404L440.271 203.255C439.842 203.131 439.521 203.009 439.225 202.842L439.037 202.735C437.326 201.753 436.709 201.137 436.83 200.331C436.892 199.922 437.271 199.817 438.419 199.725L438.859 199.69L439.035 199.673C439.92 199.586 440.388 199.438 440.584 199.127C440.654 199.014 440.556 198.892 440.227 198.748C439.898 198.603 439.385 198.469 438.725 198.347C437.684 198.154 436.326 198.003 435.147 197.92C433.677 197.817 432.261 197.912 430.975 198.133L430.74 198.176C430.549 198.211 430.371 198.248 430.209 198.285L430.113 198.308C430.026 198.328 429.949 198.348 429.884 198.365L429.807 198.386C429.744 198.404 429.677 198.369 429.658 198.308C429.639 198.246 429.675 198.181 429.739 198.162L429.822 198.14L429.931 198.112C429.97 198.102 430.012 198.092 430.057 198.081L430.255 198.036C430.461 197.99 430.688 197.946 430.934 197.904Z" fill="#08003F"/>
<path d="M416.356 220.404C416.398 220.348 416.479 220.336 416.537 220.377L416.749 220.525L417.022 220.712C417.119 220.777 417.22 220.845 417.327 220.916C417.937 221.322 418.578 221.727 419.222 222.105C419.64 222.351 420.045 222.577 420.434 222.78C420.703 222.92 420.962 223.048 421.21 223.163C421.252 223.182 421.28 223.222 421.283 223.267L421.311 223.638C421.32 223.764 421.329 223.891 421.337 224.02C421.399 224.974 421.444 225.989 421.474 227.01L421.484 227.394C421.49 227.624 421.495 227.844 421.499 228.054L421.508 228.574L421.512 228.927C421.513 228.997 421.455 229.054 421.384 229.054C421.312 229.055 421.254 228.998 421.253 228.929L421.249 228.509L421.238 227.9C421.234 227.739 421.23 227.572 421.226 227.4C421.196 226.253 421.148 225.106 421.079 224.036L421.053 223.656L421.031 223.359L420.946 223.319C420.793 223.246 420.635 223.168 420.474 223.086L420.312 223.002C419.919 222.797 419.51 222.569 419.088 222.321C418.44 221.941 417.795 221.533 417.181 221.125L416.874 220.919L416.476 220.645L416.384 220.58C416.326 220.539 416.314 220.461 416.356 220.404Z" fill="#08003F"/>
</svg>
