<svg width="500" height="480" viewBox="0 0 500 480" fill="none" xmlns="http://www.w3.org/2000/svg">
<ellipse cx="292.01" cy="441.092" rx="191.516" ry="38.9079" fill="#F1F1F1"/>
<path d="M286.45 150.283L286.454 150.338L286.43 150.387L277.74 168.159L289.913 175.836L298.63 153.045L298.665 152.955L298.757 152.926L298.818 153.117L298.757 152.926L298.757 152.926L298.759 152.925L298.766 152.923L298.794 152.914C298.818 152.906 298.855 152.894 298.904 152.878C299 152.846 299.143 152.798 299.326 152.735C299.694 152.608 300.224 152.421 300.876 152.175C302.18 151.685 303.971 150.965 305.914 150.047C309.81 148.207 314.287 145.589 316.722 142.453L316.722 142.453C319.092 139.401 319.663 137.542 319.67 136.471C319.673 135.939 319.538 135.6 319.413 135.399C319.35 135.297 319.288 135.228 319.244 135.186C319.222 135.165 319.204 135.151 319.193 135.143C319.188 135.138 319.184 135.136 319.183 135.135C319.182 135.134 319.182 135.134 319.182 135.134C319.182 135.134 319.182 135.134 319.182 135.134C319.181 135.134 319.181 135.134 319.182 135.134L318.924 134.971L319.178 134.799L319.178 134.799L319.178 134.799L319.178 134.799L319.179 134.798L319.186 134.793C319.192 134.789 319.202 134.782 319.215 134.772C319.241 134.754 319.279 134.725 319.327 134.687C319.424 134.611 319.56 134.497 319.717 134.347C320.032 134.046 320.427 133.606 320.751 133.043C321.392 131.925 321.76 130.317 320.634 128.328L320.585 128.24L320.625 128.148C321.2 126.837 321.065 125.717 320.789 124.922C320.651 124.524 320.476 124.207 320.337 123.99C320.268 123.882 320.207 123.8 320.164 123.745C320.143 123.717 320.126 123.697 320.115 123.683L320.103 123.669L320.101 123.666L320.1 123.666L320.1 123.666L320.1 123.666L320.1 123.666L320.015 123.57L320.066 123.453L320.066 123.453L320.066 123.453L320.066 123.452L320.066 123.451L320.068 123.447L320.075 123.429C320.082 123.413 320.092 123.388 320.105 123.355C320.131 123.291 320.168 123.195 320.212 123.071C320.301 122.825 320.42 122.471 320.536 122.043C320.769 121.184 320.994 120.033 320.965 118.849C320.937 117.703 320.357 117.111 319.741 117.036C319.116 116.961 318.314 117.397 317.813 118.605C316.366 122.101 313.232 124.921 309.346 127.149C305.457 129.379 300.794 131.029 296.253 132.175L295.924 132.258L296.009 131.93C297.716 125.32 297.052 120.577 295.989 118.379C295.723 117.829 295.439 117.453 295.175 117.244C294.913 117.036 294.698 117.009 294.53 117.083C294.346 117.164 294.145 117.393 293.989 117.859C293.834 118.317 293.736 118.972 293.73 119.84C293.707 123.398 292.591 126.939 291.289 130.309C290.882 131.36 290.459 132.393 290.044 133.405C289.124 135.649 288.246 137.79 287.693 139.8C286.891 142.712 286.581 145.335 286.471 147.23C286.416 148.178 286.411 148.943 286.419 149.47C286.424 149.734 286.432 149.938 286.438 150.076C286.442 150.144 286.445 150.197 286.447 150.232L286.449 150.271L286.45 150.28L286.45 150.283L286.45 150.283L286.45 150.283Z" fill="#F1F1F1" stroke="#08003F" stroke-width="0.401977"/>
<path d="M296.406 131.898L296.406 131.898C296.36 131.787 296.231 131.733 296.118 131.779L296.042 131.593L296.118 131.779C296.006 131.826 295.953 131.953 295.999 132.063L295.999 132.063L296 132.066L296.071 132.248L296.071 132.248L296.072 132.25C296.102 132.331 296.139 132.43 296.179 132.545C296.316 132.934 296.453 133.369 296.581 133.839C296.988 135.341 297.213 136.857 297.155 138.268C297.082 140.046 296.56 141.523 295.485 142.578C295.399 142.662 295.398 142.799 295.483 142.884C295.568 142.97 295.708 142.971 295.795 142.886C296.946 141.757 297.516 140.19 297.594 138.285C297.654 136.83 297.426 135.276 297.005 133.726C296.875 133.245 296.735 132.801 296.595 132.403L296.452 132.014C296.434 131.967 296.418 131.928 296.406 131.898Z" fill="#08003F" stroke="#08003F" stroke-width="0.401977"/>
<path d="M313.253 139.465C311.607 141.128 309.839 142.113 308.034 142.101L315.234 137.007C315.115 137.19 314.975 137.394 314.816 137.615C314.359 138.246 313.835 138.877 313.253 139.465ZM315.402 137.116C315.402 137.116 315.402 137.116 315.402 137.116L308.029 142.938L308.03 142.737C308.03 142.737 308.03 142.737 308.03 142.737C310.03 142.75 311.94 141.699 313.71 139.91C314.317 139.298 314.861 138.642 315.336 137.986C315.461 137.814 315.573 137.651 315.674 137.5L315.883 137.176C315.901 137.147 315.916 137.123 315.926 137.106C315.955 137.056 315.963 136.997 315.949 136.942L315.949 136.942L315.948 136.938L315.873 136.626L315.873 136.626L315.872 136.624C315.814 136.371 315.756 136.094 315.702 135.802C315.603 135.272 315.529 134.751 315.488 134.264C315.439 133.673 315.445 133.163 315.506 132.767C315.536 132.569 315.581 132.393 315.642 132.248C315.703 132.104 315.786 131.976 315.902 131.89L315.902 131.89C316.062 131.773 316.262 131.807 316.431 131.881C316.608 131.958 316.813 132.103 317.044 132.314C317.348 132.592 317.673 132.967 318.004 133.41C318.277 133.773 318.541 134.164 318.786 134.553L318.786 134.553L318.787 134.555L319.022 134.94L319.022 134.94L319.024 134.943C319.054 134.994 319.079 135.037 319.098 135.072L318.923 135.171L319.098 135.072C319.157 135.176 319.292 135.214 319.398 135.155C319.504 135.096 319.54 134.964 319.482 134.86L319.354 134.641C319.3 134.55 319.235 134.444 319.159 134.324C318.908 133.924 318.638 133.524 318.357 133.15C318.005 132.681 317.665 132.29 317.342 131.995C316.997 131.68 316.68 131.481 316.396 131.405C316.122 131.331 315.875 131.369 315.64 131.541C315.377 131.735 315.197 132.054 315.099 132.52C315.001 132.987 314.991 133.582 315.05 134.299C315.092 134.801 315.168 135.335 315.269 135.881C315.306 136.079 315.345 136.271 315.384 136.453L315.482 136.882L315.5 136.965L315.454 137.036L315.402 137.116Z" fill="#08003F" stroke="#08003F" stroke-width="0.401977"/>
<path d="M318.032 131.037L318.032 131.037L318.03 131.033L317.901 130.793L317.901 130.793L317.9 130.791C317.871 130.736 317.84 130.675 317.806 130.607C317.635 130.267 317.463 129.897 317.304 129.51C317.056 128.909 316.859 128.321 316.732 127.771C316.503 126.77 316.517 125.926 316.881 125.39L316.881 125.39C316.952 125.286 317.042 125.199 317.159 125.148C317.276 125.096 317.403 125.088 317.531 125.113C317.777 125.16 318.052 125.33 318.365 125.587C318.702 125.865 319.063 126.243 319.431 126.691L319.295 126.802L319.431 126.691C319.728 127.052 320.016 127.44 320.282 127.827L320.282 127.827L320.283 127.829L320.51 128.167L320.51 128.167L320.512 128.169C320.558 128.24 320.595 128.298 320.622 128.342C320.686 128.445 320.821 128.477 320.925 128.414C321.028 128.35 321.06 128.218 320.998 128.116L320.882 127.935C320.835 127.863 320.778 127.777 320.714 127.682L320.646 127.583C320.646 127.583 320.646 127.583 320.646 127.583C320.372 127.185 320.077 126.787 319.772 126.416L319.927 126.288L319.772 126.416C319.382 125.942 319.004 125.548 318.646 125.253C318.187 124.875 317.767 124.674 317.413 124.653C317.078 124.632 316.773 124.769 316.517 125.147C316.088 125.777 316.034 126.69 316.304 127.867C316.435 128.44 316.639 129.049 316.897 129.674C317.02 129.972 317.149 130.26 317.28 130.532L317.511 130.994C317.57 131.108 317.617 131.194 317.649 131.25L317.474 131.349L317.649 131.25C317.708 131.354 317.842 131.392 317.949 131.333L318.047 131.508L317.949 131.333C318.054 131.273 318.091 131.141 318.032 131.037Z" fill="#08003F" stroke="#08003F" stroke-width="0.401977"/>
<path d="M315.132 134.355L315.132 134.355C315.039 134.277 314.899 134.289 314.821 134.381C313.068 136.445 311.445 137.663 308.864 138.841C308.754 138.891 308.707 139.02 308.757 139.128C308.807 139.237 308.938 139.286 309.049 139.236C311.689 138.03 313.364 136.773 315.158 134.661C315.235 134.569 315.224 134.433 315.132 134.355Z" fill="#08003F" stroke="#08003F" stroke-width="0.401977"/>
<path d="M316.294 130.281L316.294 130.281C316.387 130.203 316.526 130.213 316.605 130.305L316.294 130.281ZM316.294 130.281L316.292 130.284L316.1 130.441L316.1 130.441L316.098 130.443L316.025 130.502L316.025 130.502L316.024 130.502C315.803 130.68 315.546 130.878 315.259 131.091C314.436 131.7 313.527 132.31 312.557 132.878C311.072 133.75 309.579 134.446 308.126 134.899C308.01 134.935 307.946 135.057 307.982 135.171C308.018 135.285 308.141 135.35 308.258 135.314C309.743 134.851 311.264 134.143 312.782 133.252C313.765 132.675 314.687 132.057 315.522 131.439L316.294 130.281Z" fill="#08003F" stroke="#08003F" stroke-width="0.401977"/>
<path d="M316.004 126.039L316.004 126.039L316.001 126.042L315.675 126.315L315.675 126.315L315.672 126.317L315.331 126.593L315.331 126.593L315.33 126.594C315.149 126.738 314.954 126.891 314.745 127.05C313.752 127.811 312.665 128.572 311.519 129.282C310.107 130.157 308.703 130.893 307.341 131.443C307.228 131.489 307.175 131.616 307.22 131.726C307.265 131.837 307.393 131.892 307.507 131.846C308.892 131.287 310.317 130.54 311.753 129.65C312.911 128.932 314.01 128.164 315.014 127.395L315.419 127.08C315.547 126.98 315.669 126.882 315.784 126.789L316.295 126.365C316.385 126.286 316.393 126.15 316.314 126.06C316.235 125.969 316.095 125.96 316.004 126.039Z" fill="#08003F" stroke="#08003F" stroke-width="0.401977"/>
<path d="M305.995 130.186L305.996 130.188L306.09 130.46L306.09 130.46L306.091 130.462L306.276 131.013L306.276 131.013L306.277 131.015L306.344 131.221L306.344 131.221C306.606 132.03 306.869 132.899 307.114 133.796C307.395 134.825 307.634 135.824 307.82 136.768L307.82 136.768L307.82 136.77L307.923 137.319L307.923 137.319L307.923 137.321C308.131 138.496 308.238 139.53 308.23 140.385C308.223 141.236 308.103 141.933 307.838 142.416C307.781 142.521 307.819 142.653 307.926 142.711C308.033 142.769 308.167 142.729 308.225 142.623C308.524 142.076 308.672 141.297 308.672 140.291C308.672 139.288 308.525 138.078 308.251 136.685C308.064 135.731 307.822 134.722 307.538 133.682C307.291 132.779 307.027 131.904 306.763 131.089L306.507 130.32L306.409 130.04C306.369 129.928 306.243 129.868 306.128 129.909C306.013 129.949 305.955 130.074 305.995 130.186Z" fill="#08003F" stroke="#08003F" stroke-width="0.401977"/>
<path d="M317.213 124.34L317.213 124.34C317.241 124.455 317.17 124.574 317.051 124.602C316.932 124.631 316.814 124.558 316.786 124.442C316.772 124.387 316.754 124.306 316.735 124.202L316.694 123.965C316.615 123.459 316.582 122.946 316.62 122.463C316.693 121.51 317.024 120.846 317.663 120.534L317.213 124.34ZM317.213 124.34L317.212 124.335M317.213 124.34L317.212 124.335M317.212 124.335L317.184 124.209L317.184 124.209M317.212 124.335L317.184 124.209M317.184 124.209L317.183 124.206M317.184 124.209L317.183 124.206M317.183 124.206C317.167 124.124 317.148 124.021 317.129 123.9C317.056 123.429 317.023 122.945 317.058 122.496C317.115 121.753 317.353 121.171 317.857 120.924L317.857 120.924M317.183 124.206L317.857 120.924M317.857 120.924C317.925 120.891 317.989 120.904 318.004 120.907L318.004 120.907C318.031 120.913 318.055 120.922 318.074 120.931C318.114 120.948 318.157 120.974 318.204 121.006C318.297 121.071 318.417 121.173 318.556 121.32L318.41 121.458M317.857 120.924L318.41 121.458M318.41 121.458L318.556 121.32C318.775 121.552 319.009 121.863 319.248 122.228C319.448 122.534 319.642 122.863 319.822 123.191L319.822 123.191L319.823 123.193M318.41 121.458L319.823 123.193M319.823 123.193L319.995 123.517L319.995 123.517M319.823 123.193L319.995 123.517M319.995 123.517L319.997 123.519M319.995 123.517L319.997 123.519M319.997 123.519C320.019 123.562 320.037 123.598 320.052 123.627C320.105 123.735 320.237 123.78 320.346 123.727C320.455 123.674 320.499 123.544 320.447 123.438L320.309 123.17C320.279 123.114 320.245 123.051 320.208 122.984L320.385 122.887L320.208 122.984C320.023 122.646 319.824 122.308 319.617 121.992C319.36 121.6 319.113 121.273 318.877 121.023C318.639 120.77 318.419 120.603 318.218 120.521M319.997 123.519L318.218 120.521M318.218 120.521C318.024 120.444 317.845 120.444 317.663 120.534L318.218 120.521Z" fill="#08003F" stroke="#08003F" stroke-width="0.401977"/>
<path d="M274.076 431.796L273.891 431.874L273.888 431.867L273.885 431.86C271.19 423.806 268.285 417.819 265.464 413.929C264.053 411.984 262.669 410.572 261.348 409.686C260.029 408.8 258.786 408.448 257.646 408.598C255.372 408.899 253.363 411.236 251.97 415.854C250.583 420.452 249.835 427.23 250.02 436.235C250.146 442.316 250.263 443.776 250.711 448.993C250.768 449.656 251.252 450.319 252.071 450.953C252.884 451.582 253.994 452.156 255.23 452.647C257.701 453.629 260.63 454.261 262.58 454.349C264.318 454.428 265.452 454.879 266.361 455.57C267.082 456.117 267.658 456.814 268.276 457.562C268.425 457.743 268.577 457.927 268.735 458.113C269.546 459.071 270.516 460.103 272.033 461.076C273.55 462.051 275.623 462.973 278.644 463.699L278.597 463.894L278.644 463.699C289.27 466.253 297.74 464.828 302.026 462.429C303.097 461.83 303.897 461.176 304.406 460.516C304.915 459.857 305.126 459.205 305.046 458.599C304.967 457.994 304.595 457.394 303.854 456.848C303.112 456.301 302.011 455.817 300.508 455.451C291.176 453.181 284.521 447.281 280.204 441.96C278.044 439.299 276.467 436.78 275.43 434.925C274.911 433.998 274.527 433.236 274.272 432.706C274.144 432.441 274.049 432.233 273.986 432.092C273.955 432.021 273.931 431.967 273.915 431.93L273.897 431.888L273.892 431.878L273.891 431.875L273.891 431.874C273.891 431.874 273.891 431.874 274.076 431.796Z" fill="#15E7BD" stroke="#08003F" stroke-width="0.401977"/>
<path fill-rule="evenodd" clip-rule="evenodd" d="M328.704 293.604C329.334 283.979 322.213 275.574 312.567 274.557L215.146 264.294C202.681 262.981 191.624 272.245 190.81 284.683C189.996 297.12 199.755 307.731 212.284 308.035L310.221 310.41C319.918 310.646 328.074 303.23 328.704 293.604Z" fill="#08003F"/>
<path d="M308.082 416.743L308.079 416.737L308.076 416.73C304.907 408.838 302.21 402.993 299.848 399.214C298.666 397.324 297.576 395.963 296.563 395.122C295.55 394.282 294.638 393.978 293.796 394.145C292.948 394.313 292.112 394.969 291.281 396.185C290.453 397.398 289.648 399.142 288.853 401.429C287.265 406.002 285.732 412.704 284.12 421.576L284.12 421.576C283.872 422.939 283.601 424.054 283.347 425.041C283.284 425.287 283.222 425.524 283.161 425.754C282.978 426.452 282.811 427.091 282.674 427.727C282.312 429.406 282.164 431.054 282.537 433.623C282.583 433.936 282.777 434.278 283.124 434.642C283.469 435.004 283.949 435.373 284.536 435.739C285.71 436.47 287.284 437.175 288.975 437.789C292.363 439.018 296.172 439.864 298.112 439.839L298.115 440.039L298.112 439.839C299.852 439.816 301.011 440.201 301.96 440.837C302.711 441.341 303.328 442.004 303.988 442.714C304.148 442.887 304.311 443.061 304.479 443.238C305.345 444.147 306.375 445.12 307.946 446.004C309.518 446.889 311.642 447.689 314.7 448.238C325.458 450.169 333.83 448.254 337.968 445.609C339.001 444.949 339.761 444.249 340.231 443.561C340.7 442.874 340.871 442.211 340.757 441.61C340.642 441.01 340.235 440.433 339.463 439.931C338.69 439.428 337.562 439.009 336.041 438.732L336.077 438.534L336.041 438.732C326.591 437.008 319.601 431.505 314.978 426.445C312.666 423.914 310.943 421.491 309.798 419.7C309.225 418.804 308.797 418.067 308.512 417.552C308.369 417.295 308.262 417.093 308.19 416.956C308.155 416.887 308.128 416.834 308.11 416.799L308.089 416.758L308.084 416.747L308.083 416.745L308.082 416.744C308.082 416.744 308.082 416.743 308.263 416.655L308.082 416.743Z" fill="#15E7BD" stroke="#08003F" stroke-width="0.401977"/>
<path fill-rule="evenodd" clip-rule="evenodd" d="M284.086 411.849L293.864 291.01C294.679 280.932 303.762 273.553 313.854 274.765C323.837 275.965 330.867 285.101 329.423 294.996L310.75 415.18C310.75 415.18 298.693 419.515 284.086 411.849Z" fill="#08003F"/>
<path fill-rule="evenodd" clip-rule="evenodd" d="M134.551 237.978C126.66 235.977 121.786 228.113 123.536 220.204L138.264 153.595C140.373 144.049 150.014 138.141 159.538 140.557C169.06 142.971 174.677 152.75 171.934 162.133L152.782 227.621C150.508 235.396 142.442 239.979 134.551 237.978Z" fill="#15E7BD"/>
<path fill-rule="evenodd" clip-rule="evenodd" d="M268.675 231.936C261.497 235.76 252.562 233.235 248.48 226.227L214.099 167.215C209.173 158.759 212.269 147.927 220.932 143.312C229.595 138.698 240.379 142.136 244.728 150.899L275.085 212.055C278.689 219.316 275.854 228.112 268.675 231.936Z" fill="#15E7BD"/>
<path fill-rule="evenodd" clip-rule="evenodd" d="M285.743 145.038L305.72 155.265L277.322 227.015C273.652 234.733 264.236 237.915 256.614 234.012C248.991 230.11 246.231 220.696 250.542 213.305L285.743 145.038Z" fill="#15E7BD"/>
<path d="M282.439 156.08C282.157 155.951 281.824 156.073 281.694 156.353C281.575 156.609 281.668 156.909 281.901 157.057L281.968 157.093L299.74 165.265C300.022 165.394 300.355 165.272 300.485 164.993C300.604 164.736 300.511 164.436 300.278 164.288L300.211 164.252L282.439 156.08Z" fill="#08003F"/>
<path d="M286.116 144.996C285.863 144.859 285.551 144.937 285.39 145.165L285.35 145.231L257.601 198.865C257.459 199.139 257.568 199.475 257.843 199.616C258.096 199.745 258.401 199.666 258.56 199.44L258.599 199.375L286.086 146.248L304.473 156.154C304.723 156.288 305.03 156.215 305.193 155.993L305.234 155.929C305.369 155.681 305.295 155.375 305.072 155.213L305.008 155.173L286.116 144.996Z" fill="#08003F"/>
<path fill-rule="evenodd" clip-rule="evenodd" d="M296.642 156.294C297.055 155.424 298.1 155.047 298.975 155.449C299.85 155.852 300.225 156.883 299.813 157.751C299.4 158.62 298.356 158.999 297.48 158.596C296.605 158.193 296.229 157.163 296.642 156.294Z" fill="#08003F"/>
<path d="M211.093 132.732L211.093 132.732L211.093 132.724L212.603 107.644L185.897 106.019L181.991 130.563C180.756 140.029 190.317 148.23 199.745 146.29L199.746 146.29C200.372 146.162 200.981 146.001 201.574 145.814L201.574 145.814C207.243 144.032 210.999 138.655 211.093 132.732Z" fill="#F1F1F1" stroke="#08003F" stroke-width="0.401977"/>
<path d="M178.794 93.4094C180.042 112.851 192.698 122.598 205.453 124.304C209.252 124.811 212.366 124.393 214.915 123.196C217.463 121.999 219.462 120.018 221.018 117.371C224.135 112.067 225.458 104.114 225.832 94.556C226.21 84.8693 224.453 78.2489 220.841 73.8455C217.231 69.4445 211.737 67.2199 204.554 66.3955L204.577 66.1959L204.554 66.3955C197.084 65.5382 190.334 67.3864 185.61 71.8843C180.888 76.381 178.161 83.5547 178.794 93.4094Z" fill="#F1F1F1" stroke="#08003F" stroke-width="0.401977"/>
<path fill-rule="evenodd" clip-rule="evenodd" d="M202.528 93.3294C202.492 94.234 203.016 94.9889 203.698 95.0163C204.379 95.0429 204.96 94.3321 204.995 93.4275C205.03 92.5237 204.507 91.768 203.825 91.7414C203.144 91.7139 202.563 92.4248 202.528 93.3294Z" fill="#08003F"/>
<path fill-rule="evenodd" clip-rule="evenodd" d="M219.825 93.3294C219.79 94.234 220.314 94.9889 220.996 95.0163C221.677 95.0429 222.258 94.3321 222.293 93.4275C222.328 92.5237 221.805 91.768 221.123 91.7414C220.442 91.7139 219.861 92.4248 219.825 93.3294Z" fill="#08003F"/>
<path fill-rule="evenodd" clip-rule="evenodd" d="M188.977 97.2302C188.655 95.6858 188.44 93.1237 186.096 91.9119C182.868 90.2425 179.592 93.7553 179.717 97.8383C179.87 102.786 183.963 106.124 186.423 106.354C185.871 110.304 184.728 113.381 184.728 113.381C184.728 113.381 180.203 107.862 177.908 99.3224C174.329 85.9988 178.833 68.167 193.794 65.2814C217.109 61.464 223.368 78.0192 223.368 78.0192L195.876 76.323L195.778 85.7812C195.778 85.7812 190.714 85.6239 190.767 96.8307L188.977 97.2302Z" fill="#08003F"/>
<path d="M201.767 88.1595C201.727 88.1552 201.687 88.1552 201.647 88.1594L201.588 88.1689L198.694 88.7915C198.391 88.8567 198.198 89.1537 198.264 89.4548C198.324 89.7309 198.58 89.9147 198.855 89.8932L198.931 89.8822L201.736 89.2782L210.642 90.2386C210.924 90.269 211.181 90.0855 211.247 89.8187L211.26 89.744C211.291 89.4632 211.106 89.2085 210.838 89.1424L210.763 89.1292L201.767 88.1595Z" fill="#08003F"/>
<path fill-rule="evenodd" clip-rule="evenodd" d="M216.677 108.685C216.677 108.685 210.981 108.644 204.578 108.437C204.578 108.437 205.235 111.586 210.447 112.074C214.537 112.456 216.677 108.685 216.677 108.685Z" fill="white"/>
<path d="M204.592 108.019C206.606 108.084 208.658 108.136 210.692 108.178L213.197 108.223L216.68 108.267C217.001 108.269 217.201 108.613 217.044 108.891L216.97 109.014C216.896 109.132 216.79 109.287 216.654 109.469C216.339 109.89 215.963 110.31 215.526 110.703C214.112 111.976 212.4 112.677 210.408 112.491C208.205 112.285 206.592 111.606 205.492 110.595C204.666 109.836 204.279 109.064 204.166 108.522C204.111 108.257 204.319 108.01 204.592 108.019ZM206.593 108.917L205.202 108.874L205.177 108.829C205.373 109.218 205.662 109.611 206.063 109.98C207.024 110.862 208.462 111.468 210.486 111.657C212.22 111.819 213.71 111.209 214.961 110.083L215.191 109.867C215.414 109.649 215.618 109.424 215.802 109.197L215.88 109.095L214.551 109.08C213.969 109.072 213.351 109.063 212.704 109.052C210.685 109.018 208.63 108.973 206.593 108.917Z" fill="#08003F"/>
<path d="M217.531 89.4166C217.334 89.3445 217.119 89.427 217.019 89.6022L216.99 89.664L215.857 92.7137C215.841 92.7555 215.832 92.7995 215.831 92.8437L215.834 92.9103L217.141 103.402C217.197 103.93 216.785 104.385 216.208 104.399L216.105 104.396L208.957 104.978C208.725 104.996 208.553 105.198 208.572 105.429C208.589 105.636 208.755 105.796 208.957 105.812H209.025L216.107 105.23C217.156 105.31 218.028 104.458 217.986 103.422L217.977 103.307L216.682 92.9078L217.779 89.9541C217.852 89.759 217.769 89.5446 217.593 89.4452L217.531 89.4166Z" fill="#08003F"/>
<path d="M208.329 114.972C208.097 114.956 207.895 115.129 207.879 115.36C207.864 115.567 208.004 115.75 208.201 115.797L208.269 115.807L211.658 116.047C211.89 116.063 212.091 115.89 212.107 115.659C212.122 115.452 211.982 115.269 211.785 115.222L211.717 115.212L208.329 114.972Z" fill="#08003F"/>
<path d="M225.26 89.202L217.799 89.2902C217.489 89.2938 217.241 89.5466 217.245 89.8547C217.248 90.1371 217.462 90.3681 217.736 90.4018L217.812 90.406L225.274 90.3178C225.584 90.3142 225.832 90.0614 225.828 89.7533C225.825 89.4709 225.611 89.2399 225.337 89.2062L225.26 89.202Z" fill="#08003F"/>
<path d="M194.334 120.489C194.144 120.356 193.882 120.402 193.748 120.591C193.614 120.78 193.66 121.041 193.85 121.174C199.162 124.887 204.739 125.869 209.503 125.332L209.852 125.288C209.961 125.273 210.062 125.258 210.156 125.243L210.395 125.2C210.623 125.152 210.768 124.93 210.72 124.704C210.672 124.478 210.449 124.333 210.221 124.381L210.008 124.42C209.858 124.444 209.657 124.472 209.408 124.5C204.832 125.016 199.456 124.069 194.334 120.489Z" fill="#08003F"/>
<path d="M185.562 94.1495C184.96 93.8284 184.338 93.7456 183.802 93.7926L183.722 93.8012C183.711 93.8026 183.702 93.8039 183.694 93.8051C183.465 93.8417 183.309 94.0563 183.345 94.2845C183.378 94.4899 183.556 94.6363 183.759 94.6369L183.876 94.6263C184.263 94.5923 184.728 94.6543 185.164 94.887C185.992 95.3285 186.51 96.2848 186.544 97.9635L186.545 98.0297L186.42 98.0482C185.329 98.2273 184.634 98.7606 184.415 99.5528L184.386 99.6736C184.214 100.497 184.584 101.455 185.28 102.152C185.444 102.315 185.711 102.316 185.875 102.153C186.04 101.99 186.041 101.725 185.877 101.562C185.366 101.05 185.101 100.365 185.21 99.8435C185.329 99.274 185.886 98.8917 186.987 98.8273C187.205 98.8146 187.377 98.638 187.383 98.4208C187.444 96.1737 186.762 94.7893 185.562 94.1495Z" fill="#08003F"/>
<path fill-rule="evenodd" clip-rule="evenodd" d="M223.773 230.003C223.773 230.003 240.515 157.486 239.181 144.642C230.206 138.347 226.124 138.454 210.213 134.31C207.274 133.544 202.779 139.224 199.229 138.673C193.978 137.858 189.988 131.386 184.927 131.707C165.256 132.951 147.247 143.105 147.247 143.105L154.469 228.834C154.469 228.834 147.205 245.847 165.533 245.965C177.854 246.044 202.582 248.635 219.565 245.371C224.31 244.46 225.339 236.02 223.773 230.003Z" fill="#15E7BD"/>
<path fill-rule="evenodd" clip-rule="evenodd" d="M212.38 131.157L217.657 136.477L211.247 150.26L201.839 139.517L212.38 131.157Z" fill="#15E7BD"/>
<path fill-rule="evenodd" clip-rule="evenodd" d="M201.526 138.886L183.002 127.636L177.872 132.45L188.187 149.483L201.526 138.886Z" fill="#15E7BD"/>
<path fill-rule="evenodd" clip-rule="evenodd" d="M208.425 147.1L201.212 138.885L193.159 146.164L195.203 155.812L205.52 156.507L208.425 147.1Z" fill="#08003F"/>
<path fill-rule="evenodd" clip-rule="evenodd" d="M194.763 154.945L205.517 155.003C205.517 155.003 210.104 194.412 210.64 208.868C210.709 210.713 197.875 228.265 197.875 228.265C197.875 228.265 184.326 208.91 184.745 206.815C188.011 190.498 191.311 169.155 194.763 154.945Z" fill="#08003F"/>
<path d="M178.354 132.48C178.196 132.215 177.852 132.127 177.585 132.284C177.341 132.427 177.246 132.727 177.353 132.98L177.388 133.048L187.7 150.395C187.866 150.674 188.229 150.75 188.492 150.577L188.555 150.529L201.558 139.074L211.216 151.649C211.463 151.969 211.951 151.927 212.146 151.593L212.181 151.522L218.174 137.003C218.291 136.718 218.154 136.392 217.868 136.275C217.605 136.168 217.308 136.273 217.169 136.511L217.136 136.579L211.516 150.198L202.083 137.92C201.901 137.684 201.57 137.633 201.328 137.792L201.265 137.841L188.321 149.245L178.354 132.48Z" fill="#08003F"/>
<path d="M236.269 172.04C235.966 171.977 235.669 172.171 235.606 172.473L235.233 174.265C234.839 176.15 234.438 178.066 234.028 180.01L232.926 185.213C231.257 193.063 229.52 201.095 227.77 209.079L225.405 219.807L223.227 229.567C223.205 229.667 223.21 229.771 223.243 229.867L223.331 230.146C223.35 230.21 223.371 230.283 223.394 230.363C223.51 230.771 223.626 231.231 223.735 231.734C224.174 233.767 224.358 235.845 224.143 237.769C223.748 241.296 222.078 243.769 218.761 244.836C218.466 244.931 218.305 245.246 218.4 245.539C218.495 245.832 218.812 245.993 219.107 245.898C222.887 244.682 224.818 241.822 225.258 237.892C225.489 235.832 225.295 233.641 224.832 231.499C224.741 231.077 224.645 230.684 224.547 230.323L224.438 229.935L224.356 229.663L226.501 220.047C226.885 218.316 227.285 216.508 227.698 214.631L228.866 209.317C231.006 199.555 233.126 189.722 235.126 180.239L236.332 174.492L236.705 172.699C236.768 172.397 236.573 172.102 236.269 172.04Z" fill="#08003F"/>
<path fill-rule="evenodd" clip-rule="evenodd" d="M152.252 247.241C152.252 247.241 214.695 255.548 219.312 249.655C221.343 247.061 224.263 268.85 229.08 288.163C226.511 293.128 207.123 301.34 195.976 306.236C191.761 308.087 187.937 306.985 187.937 306.985C182.412 308.346 148.808 290.787 148.808 290.787C148.808 290.787 144.492 274.42 152.252 247.241Z" fill="#08003F"/>
<path fill-rule="evenodd" clip-rule="evenodd" d="M220.605 244.02L220.789 251.558C220.789 251.558 214.686 252.252 193.508 252.115C172.022 251.977 152.246 248.375 152.246 248.375L152.548 241.54C152.548 241.54 196.519 242.499 220.605 244.02Z" fill="#F1F1F1"/>
<path fill-rule="evenodd" clip-rule="evenodd" d="M210.66 251.036L210.893 245.563C210.959 244.02 209.755 242.751 208.27 242.804C204.71 242.932 198.422 243.053 193.878 242.547C192.392 242.383 191.098 243.595 191.079 245.147L191.007 250.745C190.991 252.054 191.895 253.17 193.137 253.388C196.088 253.907 201.787 254.561 208.46 253.549C209.676 253.365 210.605 252.311 210.66 251.036Z" fill="#08003F"/>
<path fill-rule="evenodd" clip-rule="evenodd" d="M208.39 250.258L208.565 246.387C208.616 245.296 207.686 244.395 206.541 244.432C203.794 244.52 198.943 244.601 195.436 244.24C194.29 244.122 193.293 244.979 193.278 246.077L193.229 250.036C193.218 250.962 193.916 251.752 194.874 251.907C197.151 252.277 201.547 252.744 206.696 252.033C207.634 251.904 208.349 251.16 208.39 250.258Z" fill="#15E7BD"/>
<path d="M166.808 172.547C166.513 172.454 166.198 172.618 166.105 172.912L165.924 173.502L165.562 174.718L165.184 176.026C164.757 177.524 164.279 179.253 163.752 181.219L163.348 182.738C161.118 191.175 158.559 201.77 155.709 214.68C155.642 214.981 155.834 215.279 156.136 215.345C156.439 215.411 156.738 215.22 156.805 214.919L157.541 211.608C160.033 200.472 162.291 191.165 164.287 183.574L164.966 181.022C165.483 179.101 165.952 177.417 166.369 175.964L166.718 174.763L167.175 173.247C167.268 172.953 167.104 172.64 166.808 172.547Z" fill="#08003F"/>
<path d="M273.811 189.839L273.811 189.839L257.678 239.087C257.301 240.235 256.222 241.009 255.007 241.001C255.007 241.001 255.007 241.001 255.007 241.001L208.601 240.701C206.712 240.689 205.384 238.854 205.968 237.071L222.102 187.823C222.102 187.823 222.102 187.823 222.102 187.823C222.479 186.676 223.558 185.902 224.771 185.909L273.811 189.839ZM273.811 189.839C274.395 188.058 273.067 186.222 271.178 186.21C271.178 186.21 271.178 186.21 271.178 186.21L224.772 185.909L273.811 189.839Z" fill="#F1F1F1" stroke="#08003F" stroke-width="0.401977"/>
<path fill-rule="evenodd" clip-rule="evenodd" d="M211.971 240.924L258.376 241.224C259.678 241.232 260.835 240.403 261.239 239.172L277.374 189.924C278 188.011 276.573 186.044 274.55 186.03L228.143 185.73C226.843 185.723 225.686 186.552 225.282 187.782L209.147 237.031C208.521 238.944 209.946 240.911 211.971 240.924Z" fill="#08003F"/>
<path d="M245.687 244.403L245.685 244.403L245.695 244.604C245.685 244.403 245.685 244.403 245.685 244.403L245.684 244.403L245.682 244.403L245.673 244.403L245.638 244.405C245.606 244.407 245.559 244.409 245.497 244.411C245.373 244.415 245.191 244.421 244.957 244.426C244.489 244.436 243.816 244.443 242.996 244.429C241.355 244.402 239.13 244.293 236.786 243.967C234.44 243.641 231.985 243.1 229.881 242.212C227.774 241.322 226.043 240.094 225.112 238.409C223.422 235.349 224.377 232.496 225.784 230.38C226.487 229.322 227.299 228.457 227.936 227.855C228.255 227.555 228.529 227.321 228.723 227.162C228.819 227.083 228.896 227.023 228.949 226.983C228.975 226.962 228.995 226.947 229.008 226.937L229.018 226.93L229.026 226.925L229.079 226.896C229.127 226.869 229.198 226.83 229.292 226.779C229.478 226.678 229.755 226.53 230.111 226.347C230.824 225.98 231.856 225.47 233.135 224.897C235.692 223.751 239.229 222.354 243.153 221.35C244.45 221.019 246.013 220.521 247.643 220.002L247.646 220.001C249.277 219.482 250.977 218.941 252.56 218.517C254.145 218.092 255.599 217.79 256.739 217.743C257.309 217.719 257.787 217.76 258.16 217.874C258.53 217.988 258.782 218.169 258.925 218.418L258.925 218.418C259.129 218.772 259.161 219.105 259.07 219.43C258.976 219.764 258.748 220.105 258.404 220.454C257.712 221.156 256.608 221.836 255.408 222.513C255.084 222.696 254.754 222.878 254.424 223.06C253.542 223.546 252.666 224.029 251.938 224.509C251.437 224.84 250.995 225.175 250.665 225.517C250.337 225.858 250.101 226.222 250.045 226.612L250.045 226.612C249.939 227.338 250.131 227.946 250.555 228.444C250.972 228.934 251.606 229.305 252.37 229.592C253.898 230.165 256.025 230.424 258.242 230.55C259.953 230.647 261.735 230.664 263.356 230.68C263.838 230.685 264.306 230.69 264.753 230.696C265.732 230.71 266.613 230.734 267.339 230.787C268.071 230.84 268.623 230.923 268.957 231.048L245.687 244.403ZM245.687 244.403C255.803 243.962 263.014 241.065 266.98 238.035M245.687 244.403L266.98 238.035M266.98 238.035C268.969 236.516 270.118 234.981 270.437 233.727M266.98 238.035L270.437 233.727M270.437 233.727C270.596 233.104 270.548 232.561 270.311 232.117M270.437 233.727L270.311 232.117M270.311 232.117C270.074 231.672 269.633 231.3 268.957 231.048L270.311 232.117Z" fill="#F1F1F1" stroke="#08003F" stroke-width="0.401977"/>
<path d="M269.145 233.648L269.145 233.648C269.11 233.533 268.987 233.468 268.87 233.503C268.26 233.689 267.633 233.853 266.99 233.995C263.059 234.864 258.862 234.889 254.953 234.412C254.521 234.36 254.123 234.304 253.765 234.248L253.765 234.248L253.763 234.247L253.186 234.15L253.186 234.15L253.184 234.15C253.097 234.134 253.031 234.121 252.985 234.112C252.865 234.087 252.749 234.164 252.725 234.281L252.528 234.241L252.725 234.281C252.701 234.397 252.775 234.512 252.894 234.538L253.307 234.613L253.31 234.614L253.43 234.634C253.43 234.634 253.431 234.634 253.431 234.634C253.86 234.706 254.352 234.777 254.899 234.844C258.862 235.327 263.102 235.3 267.086 234.42C267.74 234.275 268.378 234.108 268.999 233.919C269.116 233.883 269.18 233.762 269.145 233.648Z" fill="#08003F" stroke="#08003F" stroke-width="0.401977"/>
<path d="M267.076 237.281L267.076 237.281C267.192 237.24 267.317 237.3 267.358 237.413L267.076 237.281ZM267.076 237.281L267.072 237.282M267.076 237.281L267.072 237.282M267.072 237.282L266.888 237.343L266.888 237.343M267.072 237.282L266.888 237.343M266.888 237.343L266.886 237.344M266.888 237.343L266.886 237.344M266.886 237.344C266.753 237.386 266.573 237.439 266.348 237.502L266.295 237.308L266.886 237.344Z" fill="#08003F" stroke="#08003F" stroke-width="0.401977"/>
<path d="M249.174 241.928L249.174 241.928L249.172 241.928L248.802 241.892L248.8 241.892C248.743 241.886 248.687 241.879 248.634 241.873L248.634 241.873L248.632 241.873L248.344 241.836L248.344 241.836L248.341 241.835C248.303 241.83 248.275 241.826 248.255 241.822C248.134 241.802 248.022 241.882 248.001 242C247.981 242.117 248.059 242.229 248.178 242.25L248.426 242.286L248.752 242.324C248.752 242.324 248.753 242.324 248.753 242.324C248.871 242.337 248.998 242.349 249.135 242.361C249.135 242.361 249.135 242.361 249.136 242.361L249.716 242.405C249.716 242.405 249.717 242.405 249.717 242.405C252.392 242.581 255.917 242.444 260.247 241.792C260.368 241.774 260.449 241.662 260.431 241.544C260.415 241.441 260.327 241.364 260.224 241.359L260.173 241.363C255.568 242.057 251.883 242.163 249.174 241.928Z" fill="#08003F" stroke="#08003F" stroke-width="0.401977"/>
<path d="M259.496 218.178C259.419 217.96 259.178 217.846 258.959 217.924C258.74 218.001 258.625 218.24 258.703 218.458C258.886 218.971 258.885 219.261 258.705 219.546L258.602 219.698C258.514 219.849 258.645 219.787 258.089 220.182L255.789 221.78C255.445 222.018 255.114 222.225 254.592 222.529L253.75 223.012C251.93 224.049 251.138 224.594 250.553 225.364C249.733 226.445 249.807 227.644 250.885 228.96C252.047 230.379 254.979 231.089 259.202 231.314C261.427 231.432 263.804 231.402 266.085 231.28L266.832 231.237L267.546 231.186C267.619 231.181 267.677 231.176 267.716 231.173C267.948 231.153 268.119 230.95 268.099 230.719C268.079 230.489 267.875 230.319 267.643 230.339L267.216 230.372L266.777 230.401C266.547 230.416 266.301 230.431 266.04 230.445C263.786 230.565 261.438 230.595 259.247 230.478L258.612 230.44C254.974 230.192 252.437 229.531 251.537 228.432C250.696 227.404 250.648 226.629 251.225 225.868C251.671 225.281 252.329 224.803 253.743 223.982L255.026 223.246C255.465 222.991 255.775 222.8 256.073 222.601L258.053 221.238C258.109 221.199 258.155 221.166 258.189 221.142C258.754 220.733 259.097 220.434 259.329 220.121C259.744 219.562 259.782 218.98 259.496 218.178Z" fill="#604346"/>
<path fill-rule="evenodd" clip-rule="evenodd" d="M229.747 225.812L226.898 247.476L136.623 240.955C128.067 240.25 121.762 232.601 122.758 224.134C123.753 215.666 131.648 209.788 140.121 211.204L229.747 225.812Z" fill="#15E7BD"/>
<path d="M216.491 223.519C216.209 223.488 215.952 223.671 215.886 223.938L215.872 224.013L213.745 243.369C213.711 243.675 213.933 243.95 214.242 243.984C214.524 244.015 214.78 243.831 214.847 243.565L214.86 243.49L216.988 224.134C217.022 223.828 216.799 223.552 216.491 223.519Z" fill="#08003F"/>
<path d="M145.502 211.594C145.197 211.543 144.907 211.748 144.856 212.052C144.81 212.331 144.979 212.596 145.243 212.677L145.317 212.695L228.325 226.475L226.064 245.284C226.03 245.565 226.212 245.822 226.479 245.891L226.554 245.905C226.836 245.938 227.094 245.758 227.164 245.491L227.178 245.417L229.502 226.08C229.534 225.809 229.365 225.558 229.109 225.48L229.037 225.463L145.502 211.594Z" fill="#08003F"/>
<path fill-rule="evenodd" clip-rule="evenodd" d="M160.71 410.398H202.582V401.888H160.71V410.398Z" fill="#15E7BD"/>
<path fill-rule="evenodd" clip-rule="evenodd" d="M192.163 314.985L203.376 452.379H213.004L201.791 314.985H192.163Z" fill="#08003F"/>
<path fill-rule="evenodd" clip-rule="evenodd" d="M161.5 314.985L150.287 452.379H159.915L171.128 314.985H161.5Z" fill="#08003F"/>
<path d="M157.413 323.726C152.555 323.726 148.62 319.811 148.62 314.985C148.62 310.158 152.555 306.242 157.413 306.242H206.759C211.615 306.242 215.552 310.158 215.552 314.985C215.552 319.811 211.615 323.726 206.759 323.726H157.413Z" fill="#15E7BD" stroke="#08003F" stroke-width="0.401977"/>
<path fill-rule="evenodd" clip-rule="evenodd" d="M221.268 239.353C222.228 239.466 222.921 240.33 222.817 241.282C222.711 242.237 221.849 242.918 220.889 242.806C219.929 242.694 219.236 241.829 219.34 240.876C219.446 239.922 220.309 239.24 221.268 239.353Z" fill="#08003F"/>
<path fill-rule="evenodd" clip-rule="evenodd" d="M272.701 301.891C272.317 293.784 266.525 286.937 258.559 285.173L178.068 267.351C166.237 263.235 153.34 269.738 149.685 281.659C146.029 293.581 153.085 306.131 165.214 309.279L252.284 320.579C263.457 322.029 273.231 313.083 272.701 301.891Z" fill="#08003F"/>
<path fill-rule="evenodd" clip-rule="evenodd" d="M249.204 424.883L235.85 304.384C234.736 294.335 242.253 285.381 252.395 284.676C262.425 283.979 271.065 291.63 271.527 301.617L277.125 422.942C277.125 422.942 265.005 429.667 249.204 424.883Z" fill="#08003F"/>
<path d="M192.207 270.827C191.902 270.776 191.613 270.982 191.562 271.286C191.516 271.565 191.685 271.829 191.95 271.91L192.037 271.93L195.145 272.454L198.394 273.014C199.974 273.289 201.64 273.582 203.379 273.892C211.329 275.311 219.279 276.81 226.766 278.332L228.363 278.658C234.787 279.979 240.566 281.258 245.54 282.477L246.927 282.82C254.497 284.716 259.842 286.408 262.524 287.827C265.809 289.565 268.112 294.192 269.531 300.817C270.188 303.889 270.612 307.186 270.847 310.484L270.91 311.454C270.948 312.087 270.977 312.69 270.998 313.259L271.017 313.876L271.035 314.801L271.035 314.892L271.04 314.968C271.077 315.24 271.312 315.45 271.596 315.45C271.88 315.45 272.115 315.24 272.152 314.968L272.157 314.892L272.154 314.559C272.15 314.294 272.144 313.988 272.133 313.644C272.103 312.666 272.05 311.577 271.966 310.405C271.728 307.059 271.298 303.713 270.628 300.585C269.146 293.662 266.716 288.781 263.051 286.842C260.154 285.309 254.427 283.52 246.281 281.51L245.808 281.394C240.819 280.171 235.027 278.889 228.59 277.566C221.161 276.039 213.238 274.531 205.283 273.1L201.38 272.404C199.944 272.151 198.565 271.91 197.253 271.683L192.207 270.827Z" fill="#F1F1F1"/>
<path fill-rule="evenodd" clip-rule="evenodd" d="M172.187 54.8545C172.187 81.1026 150.796 102.381 124.409 102.381C98.0214 102.381 76.6299 81.1026 76.6299 54.8545C76.6299 28.6056 98.0214 7.32751 124.409 7.32751C150.796 7.32751 172.187 28.6056 172.187 54.8545Z" fill="#08003F"/>
<mask id="mask0_17_30865" style="mask-type:alpha" maskUnits="userSpaceOnUse" x="76" y="7" width="97" height="96">
<path fill-rule="evenodd" clip-rule="evenodd" d="M172.187 54.8545C172.187 81.1026 150.796 102.381 124.409 102.381C98.0214 102.381 76.6299 81.1026 76.6299 54.8545C76.6299 28.6056 98.0214 7.32751 124.409 7.32751C150.796 7.32751 172.187 28.6056 172.187 54.8545Z" fill="#ADC6FF"/>
</mask>
<g mask="url(#mask0_17_30865)">
<path fill-rule="evenodd" clip-rule="evenodd" d="M119.317 80.3357L129.256 80.4145C129.256 80.4145 140.685 91.2743 123.726 106.776C123.726 106.776 107.075 90.2199 119.317 80.3357Z" fill="#15E7BD"/>
<path fill-rule="evenodd" clip-rule="evenodd" d="M132.447 82.5731H114.976C114.21 82.5731 113.649 81.8546 113.839 81.1162L116.123 72.2444H131.3L133.584 81.1162C133.774 81.8546 133.214 82.5731 132.447 82.5731Z" fill="#08003F"/>
<path fill-rule="evenodd" clip-rule="evenodd" d="M103.371 71.4686L123.712 40.0339L144.054 71.4686C144.906 72.7871 143.956 74.521 142.379 74.521H105.046C103.469 74.521 102.518 72.7871 103.371 71.4686Z" fill="#15E7BD"/>
<path fill-rule="evenodd" clip-rule="evenodd" d="M123.661 15.3777C123.658 15.3769 123.654 15.3746 123.654 15.3746V15.3808C123.262 15.5759 112.139 23.997 112.139 29.6863C112.139 41.7643 112.241 74.5212 112.241 74.5212H135.285C135.285 74.5212 135.183 41.7643 135.183 29.6863C135.183 23.997 123.663 15.3769 123.661 15.3777Z" fill="white"/>
<path fill-rule="evenodd" clip-rule="evenodd" d="M127.314 31.3804C129.303 33.3592 129.303 36.5669 127.314 38.5458C125.325 40.5238 122.1 40.5238 120.111 38.5458C118.122 36.5669 118.122 33.3592 120.111 31.3804C122.1 29.4015 125.325 29.4015 127.314 31.3804Z" fill="#08003F"/>
<path fill-rule="evenodd" clip-rule="evenodd" d="M119.601 104.099C119.601 110.707 114.216 116.063 107.573 116.063C100.931 116.063 95.5459 110.707 95.5459 104.099C95.5459 97.4915 100.931 92.135 107.573 92.135C114.216 92.135 119.601 97.4915 119.601 104.099Z" fill="#F1F1F1"/>
<path fill-rule="evenodd" clip-rule="evenodd" d="M136.063 107.546C136.063 114.154 130.678 119.51 124.035 119.51C117.393 119.51 112.008 114.154 112.008 107.546C112.008 100.939 117.393 95.5822 124.035 95.5822C130.678 95.5822 136.063 100.939 136.063 107.546Z" fill="#F1F1F1"/>
<path fill-rule="evenodd" clip-rule="evenodd" d="M172.311 85.6816C172.311 93.1753 166.204 99.2495 158.672 99.2495C151.138 99.2495 145.031 93.1753 145.031 85.6816C145.031 78.1887 151.138 72.1138 158.672 72.1138C166.204 72.1138 172.311 78.1887 172.311 85.6816Z" fill="#F1F1F1"/>
<path fill-rule="evenodd" clip-rule="evenodd" d="M157.485 49.2529C157.485 52.2234 155.064 54.6315 152.077 54.6315C149.091 54.6315 146.669 52.2234 146.669 49.2529C146.669 46.2816 149.091 43.8743 152.077 43.8743C155.064 43.8743 157.485 46.2816 157.485 49.2529Z" fill="white"/>
<path fill-rule="evenodd" clip-rule="evenodd" d="M93.4903 58.9325C93.4903 60.6106 92.1226 61.9719 90.4348 61.9719C88.7478 61.9719 87.3809 60.6106 87.3809 58.9325C87.3809 57.2544 88.7478 55.8931 90.4348 55.8931C92.1226 55.8931 93.4903 57.2544 93.4903 58.9325Z" fill="#15E7BD"/>
<path fill-rule="evenodd" clip-rule="evenodd" d="M105.914 89.9412C105.914 97.5848 99.6842 103.782 91.9993 103.782C84.3152 103.782 78.085 97.5848 78.085 89.9412C78.085 82.2975 84.3152 76.1001 91.9993 76.1001C99.6842 76.1001 105.914 82.2975 105.914 89.9412Z" fill="#F1F1F1"/>
<path fill-rule="evenodd" clip-rule="evenodd" d="M145.113 114.124C136.805 114.124 130.067 107.423 130.067 99.1565C130.067 90.8908 136.805 84.1891 145.113 84.1891C153.424 84.1891 160.16 90.8908 160.16 99.1565C160.16 107.423 153.424 114.124 145.113 114.124Z" fill="#F1F1F1"/>
</g>
<path fill-rule="evenodd" clip-rule="evenodd" d="M86.6 231.972C86.6 250.238 71.7084 265.045 53.3403 265.045C34.9712 265.045 20.0801 250.238 20.0801 231.972C20.0801 213.705 34.9712 198.898 53.3403 198.898C71.7084 198.898 86.6 213.705 86.6 231.972Z" fill="#08003F"/>
<mask id="mask1_17_30865" style="mask-type:alpha" maskUnits="userSpaceOnUse" x="20" y="198" width="67" height="68">
<path d="M53.3403 198.898C34.9706 198.898 20.0801 213.705 20.0801 231.971C20.0801 250.238 34.9706 265.045 53.3403 265.045C71.7089 265.045 86.6 250.238 86.6 231.971C86.6 213.705 71.7089 198.898 53.3403 198.898Z" fill="white"/>
</mask>
<g mask="url(#mask1_17_30865)">
<path d="M64.6283 269.384L64.7865 269.543L64.6283 269.384C64.2025 269.807 63.5129 269.812 63.0819 269.394L63.0818 269.394L60.4278 266.825L60.2686 266.671L60.1124 266.828L57.5935 269.366C57.5935 269.366 57.5935 269.366 57.5935 269.366C57.1664 269.796 56.4688 269.8 56.0364 269.375L56.0363 269.375L53.4413 266.826L53.2843 266.672L53.127 266.826L50.5085 269.391C50.5085 269.391 50.5085 269.391 50.5085 269.391C50.0794 269.81 49.3907 269.81 48.9629 269.39L48.9628 269.39L46.3485 266.826L46.1914 266.672L46.0342 266.826L43.4274 269.383L43.5846 269.543L43.4274 269.383C42.9968 269.805 42.3036 269.803 41.8761 269.378L41.8761 269.378L39.31 266.827L39.1363 266.654L38.9795 266.842L36.6072 269.684C36.3411 269.938 35.9217 269.768 35.9217 269.37V229.76H70.7572V269.333C70.7572 269.516 70.64 269.663 70.4659 269.732C70.2936 269.8 70.099 269.777 69.9631 269.649L67.5281 266.839L67.3707 266.658L67.2003 266.827L64.6283 269.384Z" fill="#F1F1F1" stroke="#08003F" stroke-width="0.448874"/>
<path d="M70.9251 227.344V229.299H35.7548V227.344C35.7548 226.679 36.2967 226.139 36.9674 226.139H69.7125C70.3826 226.139 70.9251 226.679 70.9251 227.344Z" fill="white" stroke="#08003F" stroke-width="0.224437"/>
<path fill-rule="evenodd" clip-rule="evenodd" d="M63.4063 240.126C63.65 240.126 63.8476 239.93 63.8476 239.687V237.052C63.8476 236.81 63.65 236.613 63.4063 236.613H60.7572C60.513 236.613 60.3154 236.81 60.3154 237.052V239.687C60.3154 239.93 60.513 240.126 60.7572 240.126H63.4063Z" fill="#15E7BD"/>
<path fill-rule="evenodd" clip-rule="evenodd" d="M39.4409 245.352H67.0056C67.1828 245.352 67.3258 245.209 67.3258 245.033V243.915C67.3258 243.739 67.1828 243.596 67.0056 243.596H39.4409C39.2642 243.596 39.1201 243.739 39.1201 243.915V245.033C39.1201 245.209 39.2642 245.352 39.4409 245.352Z" fill="#08003F"/>
<path fill-rule="evenodd" clip-rule="evenodd" d="M39.4409 250.578H67.0056C67.1828 250.578 67.3258 250.435 67.3258 250.259V249.14C67.3258 248.964 67.1828 248.822 67.0056 248.822H39.4409C39.2642 248.822 39.1201 248.964 39.1201 249.14V250.259C39.1201 250.435 39.2642 250.578 39.4409 250.578Z" fill="#15E7BD"/>
<path fill-rule="evenodd" clip-rule="evenodd" d="M39.4409 255.803H67.0056C67.1828 255.803 67.3258 255.66 67.3258 255.484V254.366C67.3258 254.19 67.1828 254.047 67.0056 254.047H39.4409C39.2642 254.047 39.1201 254.19 39.1201 254.366V255.484C39.1201 255.66 39.2642 255.803 39.4409 255.803Z" fill="#08003F"/>
<path fill-rule="evenodd" clip-rule="evenodd" d="M35.7324 233.126H51.0471V222.061H35.7324V233.126Z" fill="#15E7BD"/>
<path fill-rule="evenodd" clip-rule="evenodd" d="M35.7324 238.594H51.0471V234.956H35.7324V238.594Z" fill="#15E7BD"/>
<path fill-rule="evenodd" clip-rule="evenodd" d="M56.8369 224.065H29.9453L43.3916 210.695L56.8369 224.065Z" fill="#15E7BD"/>
</g>
<path fill-rule="evenodd" clip-rule="evenodd" d="M79.9278 199.372C72.8705 199.372 67.1494 205.061 67.1494 212.079C67.1494 219.097 72.8705 224.786 79.9278 224.786C86.9851 224.786 92.7062 219.097 92.7062 212.079C92.7062 205.061 86.9851 199.372 79.9278 199.372Z" fill="#15E7BD"/>
<path fill-rule="evenodd" clip-rule="evenodd" d="M77.8693 216.395L77.0625 215.593L84.8802 207.791C85.1475 207.525 85.5809 207.525 85.8483 207.791L86.171 208.112C86.4383 208.377 86.4383 208.808 86.171 209.074L78.8374 216.395C78.57 216.661 78.1366 216.661 77.8693 216.395Z" fill="white"/>
<path fill-rule="evenodd" clip-rule="evenodd" d="M79.6419 215.593L78.8352 216.395C78.5678 216.661 78.1344 216.661 77.8671 216.395L74.6546 213.201C74.3873 212.935 74.3873 212.504 74.6546 212.238L74.9773 211.917C75.2446 211.651 75.6781 211.651 75.9454 211.917L79.6419 215.593Z" fill="white"/>
<path fill-rule="evenodd" clip-rule="evenodd" d="M387.963 296.72C366.779 286.756 354.154 312.888 364.808 327.438C377.809 345.193 384.469 365.623 388.177 371.778C391.306 376.971 399.876 389.63 410.195 383.795C419.693 378.425 414.516 357.35 414.516 357.35C414.516 357.35 414.097 309.012 387.963 296.72Z" fill="#15E7BD"/>
<path fill-rule="evenodd" clip-rule="evenodd" d="M451.681 379.738C458.883 370.076 461.513 356.21 453.474 352.654C445.767 349.246 433.001 357.639 427.087 373.792C421.174 389.946 417.763 401.56 423.547 403.579C433.037 406.892 442.169 392.499 451.681 379.738Z" fill="#15E7BD"/>
<path fill-rule="evenodd" clip-rule="evenodd" d="M375.968 380.471C384.113 389.964 395.868 409.059 403.232 402.371C407.695 398.318 401.728 379.124 385.396 368.681C371.504 359.797 367.822 370.979 375.968 380.471Z" fill="#15E7BD"/>
<path fill-rule="evenodd" clip-rule="evenodd" d="M453.914 314.599C450.817 312.527 446.92 312.054 443.364 313.186C438.402 314.767 430.871 319.472 423.419 332.98C413.688 350.615 408.623 369.948 409.624 382.194C410.279 390.203 420.201 393.656 425.751 387.816C428.3 385.134 430.998 381 433.637 374.729C444.257 349.492 454.186 333.677 455.371 332.089C458.53 327.852 460.789 319.199 453.914 314.599Z" fill="#15E7BD"/>
<path fill-rule="evenodd" clip-rule="evenodd" d="M446.792 324.665C446.687 325.912 447.618 327.006 448.87 327.111C450.124 327.215 451.225 326.29 451.33 325.044C451.435 323.798 450.504 322.703 449.251 322.598C447.998 322.494 446.897 323.419 446.792 324.665Z" fill="white"/>
<path fill-rule="evenodd" clip-rule="evenodd" d="M427.453 334.332C427.347 335.578 428.278 336.673 429.531 336.777C430.784 336.882 431.885 335.957 431.99 334.711C432.095 333.465 431.165 332.37 429.912 332.265C428.659 332.161 427.558 333.086 427.453 334.332Z" fill="white"/>
<path fill-rule="evenodd" clip-rule="evenodd" d="M430.694 360.07C430.573 361.497 431.639 362.751 433.074 362.871C434.509 362.99 435.77 361.931 435.89 360.504C436.011 359.077 434.945 357.823 433.51 357.703C432.075 357.583 430.814 358.643 430.694 360.07Z" fill="white"/>
<path fill-rule="evenodd" clip-rule="evenodd" d="M371.293 321.606C371.293 323.631 372.944 325.273 374.98 325.273C377.017 325.273 378.668 323.631 378.668 321.606C378.668 319.581 377.017 317.939 374.98 317.939C372.944 317.939 371.293 319.581 371.293 321.606Z" fill="white"/>
<path fill-rule="evenodd" clip-rule="evenodd" d="M400.978 332.803C400.978 334.828 402.629 336.47 404.666 336.47C406.702 336.47 408.353 334.828 408.353 332.803C408.353 330.778 406.702 329.136 404.666 329.136C402.629 329.136 400.978 330.778 400.978 332.803Z" fill="white"/>
<path fill-rule="evenodd" clip-rule="evenodd" d="M391.364 357.694C391.364 358.54 392.054 359.227 392.905 359.227C393.756 359.227 394.446 358.54 394.446 357.694C394.446 356.847 393.756 356.161 392.905 356.161C392.054 356.161 391.364 356.847 391.364 357.694Z" fill="white"/>
<path fill-rule="evenodd" clip-rule="evenodd" d="M380.26 377.294C380.26 378.545 381.28 379.559 382.537 379.559C383.795 379.559 384.814 378.545 384.814 377.294C384.814 376.044 383.795 375.03 382.537 375.03C381.28 375.03 380.26 376.044 380.26 377.294Z" fill="white"/>
<path d="M433.441 382.316C433.229 382.115 432.893 382.123 432.69 382.334L432.593 382.438L432.52 382.519C432.386 382.668 432.231 382.845 432.057 383.051C431.564 383.636 431.015 384.335 430.425 385.148C428.743 387.463 427.063 390.226 425.496 393.431C421.024 402.578 418.342 413.442 418.342 425.983C418.342 426.275 418.58 426.511 418.873 426.511C419.167 426.511 419.404 426.275 419.404 425.983C419.404 413.607 422.048 402.9 426.451 393.893C427.991 390.744 429.639 388.034 431.286 385.766C431.827 385.021 432.331 384.376 432.786 383.831L432.871 383.729C433 383.576 433.118 383.44 433.223 383.322L433.356 383.173C433.406 383.119 433.44 383.082 433.459 383.063C433.661 382.852 433.653 382.518 433.441 382.316Z" fill="#08003F"/>
<path d="M393.33 386.012C393.155 385.778 392.822 385.73 392.587 385.904C392.352 386.079 392.304 386.41 392.479 386.643C394.413 389.219 396.198 391.988 397.839 394.923C401.308 401.128 403.99 407.78 405.981 414.433C406.678 416.762 407.238 418.923 407.674 420.862L407.763 421.26C407.867 421.734 407.957 422.166 408.033 422.554L408.083 422.808L408.171 423.287C408.219 423.574 408.493 423.768 408.782 423.72C409.072 423.671 409.267 423.399 409.218 423.111L409.188 422.941C409.163 422.804 409.132 422.643 409.096 422.458L409.008 422.018C408.923 421.599 408.824 421.136 408.71 420.632L408.614 420.208C408.187 418.357 407.652 416.317 406.998 414.132C404.987 407.41 402.277 400.688 398.767 394.41C397.103 391.435 395.293 388.626 393.33 386.012Z" fill="#08003F"/>
<path d="M384.053 320.144C383.849 320.338 383.835 320.653 384.013 320.865L384.037 320.89C384.047 320.901 384.069 320.925 384.103 320.961L384.234 321.103L384.31 321.187C384.538 321.44 384.804 321.745 385.104 322.102C385.964 323.125 386.923 324.355 387.957 325.795C390.915 329.914 393.876 334.875 396.64 340.683C401.243 350.353 404.827 361.382 407 373.781C409.638 388.838 410.075 405.285 407.915 423.136C407.88 423.426 408.088 423.688 408.379 423.723C408.67 423.758 408.934 423.552 408.969 423.262C411.141 405.309 410.702 388.758 408.046 373.6C405.857 361.106 402.243 349.986 397.6 340.231C394.808 334.365 391.815 329.35 388.821 325.181L388.589 324.86C387.665 323.588 386.802 322.482 386.016 321.541L385.919 321.425C385.636 321.089 385.383 320.797 385.16 320.548L385.1 320.482C385.031 320.405 384.969 320.337 384.914 320.278L384.803 320.16C384.6 319.949 384.264 319.942 384.053 320.144Z" fill="#08003F"/>
<path d="M430.008 351.452C429.757 351.301 429.43 351.38 429.278 351.63L429.225 351.719C429.183 351.79 429.133 351.875 429.076 351.974L428.992 352.119C428.85 352.368 428.69 352.654 428.514 352.977L428.368 353.245C427.828 354.245 427.236 355.402 426.604 356.712L426.518 356.891C424.457 361.185 422.397 366.206 420.475 371.911C415.093 387.887 411.819 406.019 411.696 425.98C411.695 426.272 411.931 426.51 412.224 426.511C412.517 426.513 412.756 426.278 412.758 425.987C412.88 406.142 416.134 388.12 421.482 372.247C423.355 366.686 425.359 361.783 427.365 357.579L427.476 357.346C428.161 355.918 428.8 354.672 429.375 353.612L429.548 353.295C429.715 352.993 429.864 352.728 429.996 352.5L430.059 352.393L430.187 352.177C430.339 351.928 430.258 351.603 430.008 351.452Z" fill="#08003F"/>
<path fill-rule="evenodd" clip-rule="evenodd" d="M389.147 452.171H435.038C437.519 452.171 439.549 450.153 439.549 447.686V414.393C439.549 411.926 437.519 409.908 435.038 409.908H389.147C386.666 409.908 384.636 411.926 384.636 414.393V447.686C384.636 450.153 386.666 452.171 389.147 452.171Z" fill="#08003F"/>
<path d="M317.295 110.3C316.873 110.3 316.486 110.069 316.288 109.698C314.322 106.013 313.726 101.761 314.518 97.0631C315.269 92.6126 317.233 87.9467 320.356 83.1936C326.704 73.5339 337.169 64.5345 349.822 57.8537C362.475 51.1728 375.833 47.5967 387.438 47.7788C393.146 47.8683 398.133 48.8642 402.26 50.7389C406.619 52.7185 409.826 55.5903 411.794 59.2768C412.089 59.829 411.878 60.5141 411.322 60.8071C410.767 61.1001 410.078 60.89 409.784 60.3379C408.056 57.1029 405.207 54.5657 401.315 52.798C397.475 51.0547 392.794 50.1272 387.401 50.0378C376.176 49.859 363.209 53.3501 350.89 59.8487C338.571 66.3474 328.403 75.0863 322.262 84.4324C319.312 88.9227 317.462 93.2971 316.764 97.4374C316.055 101.633 316.573 105.401 318.3 108.636C318.487 108.986 318.476 109.408 318.272 109.748C318.068 110.088 317.699 110.298 317.301 110.3H317.295Z" fill="#15E7BD"/>
<path opacity="0.33" d="M402.761 81.1312C402.761 103.378 384.625 121.414 362.25 121.414C339.876 121.414 321.74 103.378 321.74 81.1312C321.74 58.8845 339.876 40.8483 362.25 40.8483C384.625 40.8483 402.761 58.8845 402.761 81.1312Z" fill="#08003F" stroke="#08003F" stroke-width="0.34838"/>
<path d="M389.607 90.952C392.003 84.5969 393.202 82.2131 389.607 81.1322C386.012 80.0513 380.819 86.9795 376.022 83.6374C371.226 80.2953 377.62 73.0779 375.623 68.9464C373.625 64.8149 371.228 64.339 372.427 56.532C373.036 52.5706 376.723 48.1818 380.208 44.821C374.624 42.0852 368.48 40.6662 362.255 40.674C360.629 40.674 359.004 40.7699 357.389 40.9611C360.764 48.3143 354.641 53.6769 350.061 61.1173C344.469 70.2095 346.466 75.858 358.05 78.0463C369.634 80.2346 368.436 94.1296 358.05 97.6991C347.664 101.269 350.86 86.5831 344.469 86.5113C338.078 86.4396 331.687 84.9943 331.287 79.0422C331.065 75.667 326.723 72.5104 323.009 70.4104C322.048 73.9041 321.562 77.5102 321.565 81.1322C321.565 103.476 339.781 121.589 362.251 121.589C372.669 121.603 382.693 117.628 390.243 110.49C387.381 103.894 387.851 95.6101 389.607 90.952Z" fill="#08003F"/>
<path d="M331.287 79.0421C331.687 84.9943 338.078 86.4395 344.469 86.5113C350.86 86.5831 347.664 101.28 358.05 97.7045C368.436 94.1295 369.634 80.2346 358.05 78.0518C346.466 75.869 344.469 70.2127 350.061 61.1228C354.637 53.6823 360.759 48.3154 357.389 40.9666C340.826 42.923 327.319 54.7754 323.009 70.4104C326.725 72.5104 331.061 75.6669 331.287 79.0421Z" fill="#4E5C93"/>
<path d="M331.287 79.0421C331.687 84.9943 338.078 86.4395 344.469 86.5113C350.86 86.5831 347.664 101.28 358.05 97.7045C368.436 94.1295 369.634 80.2346 358.05 78.0518C346.466 75.869 344.469 70.2127 350.061 61.1228C354.637 53.6823 360.759 48.3154 357.389 40.9666C340.826 42.923 327.319 54.7754 323.009 70.4104C326.725 72.5104 331.061 75.6669 331.287 79.0421Z" fill="#F1F1F1"/>
<path d="M402.934 81.1323C402.934 65.1992 393.672 51.418 380.211 44.821C376.726 48.1819 373.038 52.5706 372.43 56.5321C371.231 64.3391 373.628 64.8128 375.625 68.9465C377.623 73.0802 371.231 80.2954 376.022 83.6375C380.813 86.9795 386.015 80.0503 389.606 81.1323C393.198 82.2143 392.002 84.5969 389.606 90.9521C387.85 95.6102 387.38 103.894 390.243 110.494C398.358 102.862 402.949 92.2397 402.934 81.1323Z" fill="#15E7BD"/>
<path d="M377.729 111.253C377.206 111.254 376.749 110.9 376.622 110.395C376.495 109.89 376.731 109.364 377.194 109.121C389.518 102.617 399.68 93.8844 405.821 84.5428C408.776 80.0535 410.621 75.6736 411.319 71.5366C412.027 67.3411 411.511 63.5728 409.783 60.3378C409.489 59.7857 409.7 59.1006 410.255 58.8076C410.811 58.5146 411.5 58.7246 411.794 59.2768C413.762 62.9622 414.358 67.213 413.571 71.912C412.819 76.3626 410.855 81.0284 407.733 85.7804C401.385 95.4412 390.921 104.44 378.266 111.12C378.101 111.208 377.916 111.254 377.729 111.253Z" fill="#08003F"/>
<path d="M341.717 126.358C346.686 126.358 350.714 122.352 350.714 117.412C350.714 112.471 346.686 108.465 341.717 108.465C336.749 108.465 332.721 112.471 332.721 117.412C332.721 122.352 336.749 126.358 341.717 126.358Z" fill="#15E7BD"/>
</svg>
