<svg width="340" height="360" viewBox="0 0 340 360" fill="none" xmlns="http://www.w3.org/2000/svg">
<ellipse cx="156.845" cy="327.583" rx="156.845" ry="32.417" fill="#F1F1F1"/>
<path fill-rule="evenodd" clip-rule="evenodd" d="M165.165 291.069H207.094V282.399H165.165V291.069Z" fill="#15E7BD"/>
<path fill-rule="evenodd" clip-rule="evenodd" d="M196.661 193.867L207.889 333.837H217.531L206.303 193.867H196.661Z" fill="#08003F"/>
<path fill-rule="evenodd" clip-rule="evenodd" d="M165.957 193.867L154.729 333.837H164.37L175.598 193.867H165.957Z" fill="#08003F"/>
<path fill-rule="evenodd" clip-rule="evenodd" d="M161.863 202.977C156.889 202.977 152.857 198.898 152.857 193.867C152.857 188.836 156.889 184.756 161.863 184.756H211.278C216.251 184.756 220.284 188.836 220.284 193.867C220.284 198.898 216.251 202.977 211.278 202.977H161.863Z" fill="#15E7BD"/>
<path d="M261.576 271.299H262.875V298.266H261.572L262.116 286.72L262.116 286.72C262.229 284.3 262.214 281.875 262.068 279.457L261.576 271.299Z" fill="#15E7BD" stroke="#08003F" stroke-width="0.575521"/>
<path d="M261.432 275.639L261.428 275.652L261.425 275.665L261.425 275.665L261.425 275.665L261.425 275.666L261.424 275.672L261.418 275.695C261.414 275.716 261.406 275.748 261.396 275.79C261.376 275.873 261.345 275.998 261.301 276.157C261.213 276.476 261.074 276.935 260.872 277.493C260.468 278.608 259.813 280.11 258.808 281.662C256.8 284.763 253.407 288.048 247.835 288.843C242.338 289.627 238.488 289.475 235.689 289.365C235.611 289.362 235.533 289.359 235.457 289.356C234.053 289.301 232.895 289.262 231.932 289.381C231.165 289.475 230.507 289.67 229.931 290.044C229.923 289.723 229.929 289.265 229.981 288.703C230.088 287.54 230.391 285.933 231.177 284.163C232.744 280.632 236.246 276.415 244.036 273.788C251.88 271.142 256.651 270.526 259.446 270.562C260.843 270.58 261.743 270.761 262.285 270.931C262.535 271.009 262.709 271.085 262.821 271.142L261.432 275.639Z" fill="#15E7BD" stroke="#08003F" stroke-width="0.575521"/>
<path d="M266.066 257.589L265.499 305.926H264.607L264.602 305.749C264.595 305.449 264.583 305.006 264.569 304.431C264.542 303.282 264.506 301.61 264.469 299.518C264.397 295.332 264.324 289.465 264.324 282.736C264.324 280.364 264.451 277.575 264.588 274.697C264.595 274.555 264.602 274.412 264.608 274.269C264.739 271.529 264.872 268.726 264.906 266.154C264.944 263.325 264.871 260.778 264.788 258.939C264.747 258.02 264.704 257.276 264.67 256.763C264.661 256.616 264.652 256.487 264.645 256.379L265.32 256.574C265.32 256.574 265.32 256.574 265.32 256.574C265.764 256.702 266.071 257.117 266.066 257.589C266.066 257.589 266.066 257.589 266.066 257.589Z" fill="#15E7BD" stroke="#08003F" stroke-width="0.575521"/>
<path d="M262.463 258.736L262.438 258.749L262.416 258.766L262.416 258.766L262.416 258.766L262.415 258.767L262.411 258.77L262.395 258.782C262.38 258.794 262.356 258.811 262.325 258.834C262.264 258.879 262.171 258.945 262.049 259.028C261.806 259.194 261.447 259.425 260.989 259.687C260.072 260.21 258.76 260.85 257.182 261.317C254.029 262.251 249.826 262.495 245.567 259.758C241.358 257.053 238.815 254.68 236.966 252.954C236.914 252.905 236.862 252.858 236.812 252.81C235.884 251.945 235.113 251.234 234.384 250.746C233.818 250.366 233.264 250.112 232.667 250.022C232.846 249.802 233.103 249.507 233.442 249.173C234.183 248.443 235.314 247.526 236.867 246.781C239.964 245.295 244.779 244.477 251.612 247.273C258.495 250.089 262.084 252.611 263.948 254.411C264.88 255.311 265.379 256.029 265.644 256.511C265.763 256.728 265.835 256.898 265.878 257.016L262.463 258.736Z" fill="#15E7BD" stroke="#08003F" stroke-width="0.575521"/>
<path d="M263.383 258.118C263.397 258.117 263.411 258.116 263.425 258.115L262.437 258.751L262.426 258.758L262.416 258.766L262.416 258.766L262.416 258.766L262.415 258.767L262.411 258.77L262.395 258.782C262.38 258.794 262.356 258.811 262.325 258.834C262.264 258.879 262.171 258.945 262.049 259.028C261.806 259.194 261.447 259.425 260.989 259.687C260.072 260.21 258.76 260.85 257.182 261.317C254.029 262.251 249.826 262.495 245.567 259.758C241.358 257.053 238.815 254.68 236.966 252.954C236.914 252.905 236.862 252.858 236.812 252.81C235.884 251.945 235.113 251.234 234.384 250.746C233.996 250.486 233.614 250.285 233.22 250.155C233.388 250.098 233.576 250.038 233.782 249.976C234.767 249.685 236.17 249.372 237.834 249.289C241.16 249.123 245.534 249.871 249.738 253.544C253.285 256.643 257.032 257.741 259.892 258.063C261.322 258.224 262.53 258.192 263.383 258.118Z" fill="#15E7BD" stroke="#08003F" stroke-width="0.575521"/>
<path d="M280.504 276.937L280.504 276.937L280.504 276.937L280.507 276.939L280.517 276.947C280.527 276.954 280.543 276.966 280.563 276.981C280.604 277.01 280.666 277.054 280.747 277.109C280.909 277.219 281.149 277.373 281.456 277.547C282.07 277.896 282.948 278.322 284.004 278.633C286.113 279.255 288.919 279.416 291.763 277.598C294.595 275.787 296.305 274.199 297.552 273.041C297.587 273.009 297.622 272.977 297.656 272.945C298.28 272.365 298.806 271.883 299.305 271.55C299.645 271.324 299.981 271.16 300.339 271.08C300.231 270.954 300.094 270.805 299.927 270.641C299.433 270.157 298.679 269.548 297.642 269.053C295.578 268.068 292.357 267.518 287.77 269.385C283.134 271.273 280.724 272.96 279.478 274.158C278.856 274.756 278.525 275.23 278.351 275.545C278.297 275.643 278.259 275.725 278.231 275.791L280.457 276.907L280.482 276.92L280.504 276.937Z" fill="#15E7BD" stroke="#08003F" stroke-width="0.575521"/>
<path d="M261.477 271.567L261.937 271.928L261.899 271.977C261.882 271.997 261.862 272.023 261.837 272.052L261.765 272.139C261.714 272.2 261.657 272.265 261.596 272.335L261.548 272.388C261.229 272.747 260.843 273.145 260.391 273.574C259.101 274.796 257.53 276.017 255.672 277.156C251.94 279.443 247.534 281.105 242.429 281.879L242.24 281.908C238.804 282.412 236.065 283.567 233.944 285.174C232.927 285.944 232.119 286.769 231.501 287.592C231.285 287.878 231.109 288.143 230.969 288.38L230.924 288.459C230.902 288.497 230.883 288.532 230.865 288.564L230.816 288.659L230.813 288.665L230.287 288.413L230.303 288.379C230.336 288.312 230.391 288.21 230.469 288.078C230.62 287.823 230.808 287.539 231.037 287.235C231.688 286.37 232.533 285.507 233.595 284.702C235.763 283.06 238.543 281.877 242.005 281.347L242.156 281.325C247.262 280.575 251.657 278.927 255.37 276.652C257.193 275.535 258.731 274.339 259.993 273.144C260.404 272.755 260.757 272.392 261.053 272.063L261.116 271.994C261.208 271.89 261.288 271.797 261.357 271.715L261.434 271.621L261.477 271.567Z" fill="#08003F"/>
<path d="M278.269 275.716C280.802 274.747 283.704 275.323 288.363 273.359C293.022 271.395 298.08 270.115 300.01 271.002" stroke="#08003F" stroke-width="0.575521" stroke-linecap="round"/>
<path d="M277.392 276.353L277.783 308.863H278.225L278.226 308.835C278.231 308.632 278.239 308.333 278.249 307.946C278.267 307.171 278.293 306.044 278.318 304.633C278.368 301.81 278.418 297.853 278.418 293.315C278.418 291.719 278.33 289.84 278.236 287.898C278.231 287.802 278.226 287.705 278.222 287.608C278.132 285.761 278.039 283.869 278.016 282.132C277.99 280.222 278.041 278.502 278.097 277.26C278.126 276.639 278.156 276.137 278.179 275.79C278.182 275.745 278.185 275.702 278.188 275.662L277.842 275.76C277.842 275.76 277.842 275.76 277.842 275.76C277.571 275.836 277.389 276.081 277.392 276.353C277.392 276.353 277.392 276.353 277.392 276.353Z" fill="#15E7BD" stroke="#08003F" stroke-width="0.575521"/>
<path d="M267.393 246.248L267.393 246.248C267.388 245.776 267.695 245.361 268.139 245.233C268.139 245.233 268.139 245.233 268.139 245.233L268.815 245.038C268.807 245.146 268.798 245.274 268.789 245.422C268.756 245.935 268.712 246.678 268.671 247.598C268.589 249.437 268.516 251.983 268.553 254.813C268.587 257.385 268.72 260.188 268.851 262.927C268.858 263.07 268.864 263.213 268.871 263.356C269.008 266.234 269.135 269.023 269.135 271.395C269.135 278.124 269.063 284.47 268.99 289.134C268.953 291.467 268.917 293.378 268.89 294.706C268.876 295.371 268.865 295.889 268.857 296.241L268.851 296.499H267.961L267.393 246.248Z" fill="#15E7BD" stroke="#08003F" stroke-width="0.575521"/>
<path d="M271.043 247.425L271.043 247.425L271.043 247.425L271.021 247.408L270.996 247.395L267.582 245.675C267.624 245.557 267.696 245.387 267.815 245.17C268.08 244.687 268.58 243.97 269.511 243.07C271.375 241.27 274.965 238.747 281.847 235.931L281.739 235.668L281.847 235.931C288.68 233.136 293.496 233.954 296.592 235.439C298.146 236.184 299.276 237.102 300.017 237.832C300.356 238.166 300.614 238.46 300.792 238.68C300.195 238.771 299.641 239.025 299.075 239.405C298.347 239.893 297.576 240.604 296.648 241.469C296.597 241.516 296.546 241.564 296.494 241.613C294.644 243.339 292.101 245.712 287.893 248.416C283.633 251.154 279.43 250.91 276.277 249.976C274.699 249.508 273.388 248.869 272.471 248.345C272.012 248.084 271.654 247.852 271.41 247.687C271.288 247.604 271.196 247.538 271.134 247.492C271.103 247.47 271.08 247.453 271.065 247.441L271.048 247.428L271.044 247.425L271.043 247.425Z" fill="#15E7BD" stroke="#08003F" stroke-width="0.575521"/>
<path d="M268.891 246.07C269.847 246.222 271.183 246.369 272.735 246.353C275.875 246.321 279.923 245.626 283.489 242.953C288.681 239.062 293.126 238.136 296.257 238.169C297.825 238.186 299.068 238.443 299.917 238.695C300.042 238.732 300.158 238.769 300.266 238.805C299.863 238.935 299.472 239.139 299.076 239.404C298.347 239.893 297.576 240.604 296.648 241.469C296.598 241.516 296.546 241.564 296.495 241.613C294.645 243.339 292.102 245.712 287.893 248.416C283.634 251.154 279.431 250.91 276.278 249.976C274.7 249.508 273.388 248.868 272.471 248.345C272.013 248.084 271.654 247.852 271.411 247.687C271.289 247.604 271.196 247.538 271.135 247.492C271.104 247.47 271.081 247.452 271.065 247.441L271.049 247.428L271.045 247.425L271.044 247.425L271.044 247.425L271.044 247.425L271.033 247.416L271.021 247.408L268.891 246.07Z" fill="#15E7BD" stroke="#08003F" stroke-width="0.575521"/>
<path d="M273.055 235.496L273.055 235.506L273.056 235.517L274.919 265.047L273.949 296.057H272.068C272.081 295.906 272.099 295.703 272.121 295.451C272.173 294.857 272.247 293.992 272.336 292.913C272.513 290.755 272.75 287.737 272.987 284.298C273.46 277.422 273.934 268.857 273.934 262.116C273.934 259.719 273.349 252.647 272.768 246.194C272.476 242.963 272.185 239.881 271.967 237.607C271.858 236.47 271.767 235.534 271.703 234.884C271.68 234.646 271.66 234.446 271.644 234.288L272.309 234.481C272.309 234.481 272.309 234.481 272.309 234.481C272.753 234.609 273.061 235.023 273.055 235.496Z" fill="#15E7BD" stroke="#08003F" stroke-width="0.575521"/>
<path d="M269.383 236.058L269.355 236.061L269.328 236.07L269.328 236.07L269.328 236.07L269.327 236.07L269.322 236.071L269.302 236.077C269.284 236.083 269.257 236.091 269.22 236.101C269.146 236.121 269.036 236.15 268.894 236.185C268.608 236.253 268.192 236.343 267.672 236.425C266.632 236.59 265.182 236.723 263.543 236.601C260.267 236.357 256.245 235.094 253.205 231.018C250.202 226.991 248.643 223.867 247.509 221.594C247.477 221.53 247.446 221.467 247.415 221.405C246.846 220.265 246.37 219.326 245.857 218.61C245.422 218.004 244.95 217.542 244.354 217.245C244.359 217.239 244.365 217.232 244.371 217.225C244.533 217.033 244.779 216.764 245.113 216.465C245.781 215.867 246.801 215.149 248.201 214.671C250.987 213.719 255.348 213.7 261.552 217.641C267.804 221.612 270.699 226.192 272.035 229.764C272.704 231.553 272.984 233.093 273.097 234.182C273.154 234.727 273.168 235.159 273.169 235.454C273.169 235.533 273.168 235.601 273.167 235.66L269.383 236.058Z" fill="#15E7BD" stroke="#08003F" stroke-width="0.575521"/>
<path d="M263.663 230.705L263.69 230.746L263.729 230.776C265.285 231.956 267.186 233.353 268.698 234.454C269.453 235.004 270.112 235.481 270.582 235.82C270.63 235.855 270.676 235.888 270.72 235.919L269.383 236.058L269.355 236.061L269.328 236.069L269.328 236.069L269.328 236.069L269.327 236.07L269.322 236.071L269.302 236.077C269.284 236.082 269.257 236.09 269.22 236.101C269.146 236.121 269.036 236.15 268.894 236.184C268.608 236.253 268.192 236.343 267.672 236.425C266.632 236.589 265.182 236.723 263.543 236.601C260.267 236.357 256.245 235.094 253.205 231.018C250.202 226.991 248.643 223.866 247.509 221.593C247.477 221.53 247.446 221.467 247.415 221.404C246.846 220.265 246.37 219.326 245.857 218.61C245.549 218.18 245.222 217.823 244.846 217.546C245.008 217.533 245.19 217.521 245.389 217.511C246.291 217.465 247.543 217.466 248.943 217.653C251.748 218.028 255.113 219.144 257.467 222.086C260.586 225.984 260.686 226.138 262.228 228.511C262.601 229.084 263.058 229.788 263.663 230.705Z" fill="#15E7BD" stroke="#08003F" stroke-width="0.575521"/>
<path fill-rule="evenodd" clip-rule="evenodd" d="M285.548 337.586H251.771C249.841 337.586 248.276 336.003 248.276 334.051V299.88C248.276 297.927 249.841 296.345 251.771 296.345H285.548C287.478 296.345 289.042 297.927 289.042 299.88V334.051C289.042 336.003 287.478 337.586 285.548 337.586Z" fill="#08003F"/>
<rect x="29.6826" y="1.02402" width="118.73" height="68.2464" fill="#F1F1F1"/>
<path d="M198.012 125.119C198.222 125.115 198.394 125.285 198.397 125.497C198.4 125.688 198.265 125.848 198.085 125.88L198.023 125.886L164.618 126.369C164.409 126.372 164.236 126.203 164.233 125.991C164.231 125.8 164.366 125.64 164.546 125.608L164.607 125.602L198.012 125.119Z" fill="#A3B5D6"/>
<path d="M95.2024 208.638C95.8845 213.301 95.6041 220.93 93.8118 232.889L93.8078 232.903L93.777 233.014L93.6492 233.467C93.5358 233.87 93.3672 234.467 93.151 235.233L93.0127 235.723C92.5902 237.219 92.0195 239.24 91.3447 241.632C89.8417 246.961 87.8223 254.131 85.7754 261.436C81.6845 276.038 77.4759 291.21 77.0696 293.292C76.691 295.232 76.4056 296.895 76.1607 298.323C76.049 298.974 75.9457 299.576 75.8458 300.133C75.5254 301.92 75.2406 303.236 74.8277 304.253C74.4192 305.26 73.8877 305.966 73.071 306.535C72.2445 307.11 71.1131 307.554 69.485 308.005L69.4848 308.005C69.1066 308.11 68.6926 308.116 68.2159 308.093C68.0779 308.086 67.9336 308.077 67.784 308.067C67.4292 308.045 67.045 308.02 66.6473 308.024C65.4907 308.034 64.1635 308.283 62.6368 309.456L62.6367 309.456C58.6221 312.543 54.011 314.662 50.3698 315.444C48.5455 315.835 46.9915 315.884 45.8841 315.574C45.3334 315.42 44.9049 315.18 44.6048 314.86C44.3093 314.546 44.125 314.141 44.0801 313.626C44.0837 313.184 44.3267 312.628 44.816 311.958C45.3039 311.29 46.0106 310.542 46.8799 309.728C48.3876 308.315 50.3572 306.725 52.4626 305.026C52.7854 304.766 53.1115 304.502 53.4396 304.237C55.9019 302.244 58.4731 300.124 60.6286 297.995C62.7798 295.87 64.5401 293.715 65.3561 291.649C65.7822 290.57 66.1804 288.538 66.568 285.831C66.957 283.113 67.3387 279.689 67.7247 275.808C68.1421 271.611 68.5653 266.871 69.0085 261.908C69.3844 257.698 69.7746 253.327 70.1879 248.991C71.0889 239.535 72.1002 230.231 73.3138 223.059C73.9207 219.471 74.5769 216.426 75.2925 214.164C75.6504 213.033 76.0207 212.105 76.4029 211.407C76.7886 210.703 77.1701 210.262 77.5353 210.062C78.411 209.583 79.4399 208.832 80.5447 207.992C80.8464 207.763 81.154 207.527 81.4665 207.287C82.3042 206.643 83.1767 205.973 84.0634 205.337C85.2802 204.464 86.5117 203.665 87.6947 203.101C88.8806 202.534 89.9952 202.215 90.9843 202.276C91.9586 202.336 92.8317 202.765 93.5529 203.747C94.2824 204.739 94.8612 206.305 95.2024 208.638ZM94.007 233.119C93.8986 233.055 93.843 232.952 93.823 232.906L94.0517 232.959C94.0442 232.986 94.0292 233.04 94.007 233.119ZM93.8144 232.879L93.8141 232.881C93.8145 232.879 93.8149 232.878 93.8149 232.878L93.8144 232.879Z" fill="#F1F1F1" stroke="#08003F" stroke-width="0.5"/>
<path d="M72.8922 310.343L72.8921 310.343L72.8844 310.357L72.8786 310.372L69.62 318.783L67.844 318.484L67.7639 309.513L67.7601 309.097L67.3946 309.296L67.5139 309.515C67.3946 309.296 67.3945 309.296 67.3944 309.296L67.3942 309.296L67.3933 309.296L67.3903 309.298L67.3791 309.304L67.3367 309.328C67.2996 309.349 67.2451 309.38 67.1746 309.421C67.0335 309.503 66.8281 309.626 66.5688 309.79C66.0501 310.117 65.3154 310.608 64.4477 311.262C62.7128 312.569 60.4432 314.532 58.305 317.155L58.305 317.155C57.8146 317.757 57.0446 318.221 56.0579 318.557C55.0731 318.893 53.8903 319.094 52.5974 319.181C50.0116 319.356 47.0181 319.072 44.3606 318.526C41.6943 317.979 39.4046 317.175 38.2044 316.33C37.591 315.899 37.3433 315.514 37.3538 315.209C37.3639 314.916 37.621 314.541 38.4463 314.147C42.2076 312.352 45.1801 310.492 47.2132 309.08C48.2299 308.374 49.0119 307.78 49.5405 307.361C49.753 307.193 49.9246 307.053 50.0539 306.946C50.0859 307.03 50.1258 307.125 50.1753 307.228C50.3609 307.614 50.6817 308.116 51.2241 308.592C52.3151 309.55 54.2614 310.367 57.6921 309.992L57.6959 309.991C57.7027 309.991 57.7107 309.99 57.72 309.988C57.7385 309.986 57.7623 309.981 57.7922 309.974C57.8517 309.96 57.9366 309.936 58.0536 309.892C58.2872 309.805 58.6543 309.64 59.2106 309.324C60.3228 308.693 62.206 307.454 65.3115 305.015C67.9897 302.913 70.8082 300.951 72.9583 299.515C74.0331 298.797 74.9402 298.21 75.5785 297.803C75.8229 297.647 76.0279 297.518 76.1877 297.417C76.0313 301.069 75.2369 304.246 74.4662 306.539C74.0647 307.734 73.6699 308.687 73.3761 309.341C73.2292 309.667 73.1075 309.919 73.0229 310.089C72.9806 310.173 72.9476 310.238 72.9253 310.28L72.9001 310.328L72.8939 310.34L72.8925 310.342L72.8922 310.343L72.8922 310.343Z" fill="#08003F" stroke="#15E7BD" stroke-width="0.5"/>
<path fill-rule="evenodd" clip-rule="evenodd" d="M72.3746 174.713L53.2061 273.634L87.7687 280.581C87.7687 280.581 99.9702 227.465 107.248 182.007C107.248 182.007 112.637 158.57 94.173 155.099C75.7098 151.626 72.3746 174.713 72.3746 174.713Z" fill="#08003F"/>
<path fill-rule="evenodd" clip-rule="evenodd" d="M93.961 153.37C130.376 148.802 157.267 148.412 165.688 150.549C165.688 150.549 183.17 154.094 179.89 167.707C175.888 184.32 157.091 184.597 157.091 184.597L96.2085 189.429C91.3675 189.864 75.4371 191.729 74.5183 172.801C73.6511 154.948 93.1677 153.469 93.961 153.37Z" fill="#08003F"/>
<path fill-rule="evenodd" clip-rule="evenodd" d="M176.433 0.357747C176.433 0.357747 150.804 5.37079 151.036 20.2973C151.155 27.974 158.775 36.1073 155.255 38.5488C141.502 48.0865 156.841 51.4391 148.162 59.038C135.254 70.3407 143.838 88.802 157.769 87.1886C172.199 85.5169 165.848 106.466 190.599 99.8579C204.547 96.1337 208.557 92.8906 218.386 87.5971C228.216 82.3025 233.627 55.8032 221.021 43.1953C213.181 35.2115 205.917 36.2117 201.317 22.6968C196.716 9.18098 192.416 0.939207 185.772 2.24032C183.246 -1.2167 176.433 0.357747 176.433 0.357747Z" fill="#08003F"/>
<path fill-rule="evenodd" clip-rule="evenodd" d="M162.252 33.0807C162.174 32.7951 161.778 32.79 161.691 33.0725C160.926 35.5734 159.114 42.3145 161.718 42.5684C164.652 42.854 162.961 35.6871 162.252 33.0807Z" fill="#15E7BD"/>
<path d="M187.616 52.8213L187.864 52.793L187.616 52.8213C188.157 57.5681 185.081 61.2551 180.41 62.1528C176.031 62.9931 171.83 60.0037 171.134 55.5449L170.225 43.2119L185.386 34.5552L185.388 34.5661C185.42 34.8152 185.468 35.1825 185.529 35.6554C185.652 36.6011 185.827 37.969 186.039 39.6574C186.462 43.0343 187.032 47.6932 187.616 52.8213Z" fill="#F1F1F1" stroke="#08003F" stroke-width="0.5"/>
<path d="M172.948 13.9562L172.948 13.9561C173.688 13.4265 174.317 13.32 174.841 13.4229C175.375 13.5277 175.843 13.8573 176.236 14.2752C176.628 14.692 176.93 15.1802 177.136 15.5688C177.238 15.7621 177.316 15.9288 177.367 16.0464C177.393 16.1052 177.412 16.1517 177.425 16.183L177.438 16.2156C177.61 16.9327 177.76 17.6063 177.901 18.2433C177.91 18.2819 177.919 18.3204 177.927 18.3587C178.059 18.9569 178.185 19.5236 178.314 20.0605C178.59 21.2029 178.888 22.2238 179.322 23.1562C180.198 25.0373 181.616 26.5247 184.447 27.9723C184.809 28.1577 185.169 28.5449 185.481 29.1189C185.791 29.689 186.044 30.4238 186.204 31.2726C186.524 32.9701 186.468 35.097 185.786 37.2182L185.786 37.2183C183.689 43.744 177.596 47.1567 172.873 46.8808C169.834 46.7037 167.584 45.4377 165.908 43.5469C164.226 41.6493 163.117 39.1143 162.393 36.3992C160.971 31.0735 161.047 25.1304 161.107 22.1543C164.748 20.872 166.723 17.3895 168.003 14.8562C168.127 14.6111 168.243 14.3761 168.354 14.1525C168.538 13.782 168.707 13.4429 168.866 13.1416C169.123 12.655 169.339 12.303 169.53 12.1031C169.625 12.004 169.696 11.9624 169.742 11.9485C169.777 11.9383 169.809 11.9388 169.858 11.9683C169.917 12.0038 169.998 12.0821 170.098 12.2374C170.196 12.3902 170.302 12.6021 170.416 12.8843L170.416 12.8844C170.532 13.1694 170.586 13.4614 170.636 13.7386L170.637 13.7403C170.661 13.8744 170.686 14.0105 170.718 14.1313C170.75 14.2512 170.793 14.377 170.866 14.4831C170.943 14.5962 171.053 14.6879 171.206 14.726C171.35 14.7621 171.505 14.7432 171.663 14.6946C171.972 14.5989 172.385 14.3585 172.948 13.9562Z" fill="#F1F1F1" stroke="#08003F" stroke-width="0.5"/>
<path d="M166.679 21.1125C166.859 21.044 167.058 21.1204 167.151 21.2844L167.178 21.3422L168.318 24.4153L168.34 24.5114L168.368 24.8582C168.372 24.922 168.377 24.9927 168.381 25.0703C168.489 27.0139 168.408 29.5273 168.005 32.486L167.944 32.9154L168.206 32.9348C168.768 32.9809 169.293 33.0506 169.779 33.1391L170.066 33.1944C170.346 33.2514 170.598 33.3118 170.82 33.373L170.982 33.4191C171.142 33.4663 171.253 33.504 171.313 33.5272C171.514 33.6038 171.615 33.8303 171.539 34.0332C171.464 34.236 171.24 34.3383 171.039 34.2617L170.909 34.2173C170.869 34.2043 170.821 34.1894 170.764 34.1728C170.525 34.102 170.241 34.0309 169.913 33.9642C169.198 33.8187 168.385 33.716 167.48 33.6755C167.249 33.6652 167.078 33.4542 167.113 33.2232C167.593 30.0905 167.712 27.4313 167.62 25.3891L167.594 24.9137L167.573 24.6433L166.452 21.618C166.384 21.4353 166.459 21.2337 166.621 21.1397L166.679 21.1125Z" fill="#08003F"/>
<path d="M161.144 21.6832C162.493 20.7576 164.381 20.4916 166.836 21.2464C167.103 21.3286 167.254 21.6145 167.173 21.885C167.092 22.1555 166.809 22.3081 166.542 22.2259C164.375 21.5597 162.804 21.781 161.712 22.5303C161.347 22.781 161.128 23.023 161.041 23.1629C160.891 23.4016 160.579 23.4725 160.343 23.3212C160.107 23.1699 160.037 22.8536 160.186 22.6149C160.343 22.3637 160.655 22.0191 161.144 21.6832Z" fill="#08003F"/>
<path d="M177.105 19.8934C177.874 19.872 178.576 19.919 179.197 20.0457C179.471 20.1016 179.648 20.3716 179.593 20.6487C179.538 20.9258 179.271 21.1051 178.997 21.0493C178.458 20.9393 177.831 20.8973 177.133 20.9168C176.237 20.9418 175.27 21.0659 174.296 21.2574C174.006 21.3142 173.731 21.3742 173.475 21.4348L173.051 21.54C172.948 21.5668 172.871 21.5879 172.824 21.6016C172.555 21.6794 172.275 21.5222 172.198 21.2504C172.121 20.9787 172.277 20.6953 172.545 20.6175L172.796 20.5493L172.982 20.5018C173.322 20.4167 173.699 20.3317 174.103 20.2525C175.127 20.0511 176.147 19.9202 177.105 19.8934Z" fill="#08003F"/>
<path d="M172.403 37.1948C172.617 37.1881 172.796 37.3584 172.803 37.5752C172.809 37.7702 172.673 37.9364 172.489 37.9725L172.427 37.9796L171.075 38.0216C170.861 38.0282 170.682 37.8579 170.675 37.6412C170.669 37.4462 170.805 37.28 170.988 37.2439L171.051 37.2368L172.403 37.1948Z" fill="#08003F"/>
<path d="M192.9 30.5121L192.896 30.5291L192.896 30.5461L192.896 30.5462L192.896 30.5462L192.896 30.5464L192.895 30.5476L192.895 30.5552C192.894 30.5624 192.894 30.5736 192.892 30.5887C192.89 30.6189 192.885 30.6644 192.878 30.7231C192.863 30.8405 192.837 31.0103 192.791 31.2155C192.7 31.6267 192.531 32.1751 192.224 32.7281C191.648 33.7661 190.579 34.8328 188.564 35.0335C189.108 32.9155 189.387 30.7201 189.531 29.0282C189.607 28.136 189.645 27.3819 189.665 26.8505C189.674 26.5967 189.679 26.3935 189.681 26.2503C189.796 26.2509 189.948 26.2562 190.124 26.2735C190.528 26.3131 191.048 26.4146 191.535 26.6571C192.018 26.8979 192.465 27.2755 192.74 27.8716C193.015 28.4697 193.131 29.3148 192.9 30.5121Z" fill="#F1F1F1" stroke="#08003F" stroke-width="0.5"/>
<path fill-rule="evenodd" clip-rule="evenodd" d="M190.569 34.0507C190.491 33.765 190.095 33.7589 190.008 34.0414C189.244 36.5423 187.432 43.2844 190.034 43.5372C192.969 43.8239 191.278 36.657 190.569 34.0507Z" fill="#15E7BD"/>
<path d="M144.503 111.924L113.133 123.185C109.536 127.849 105.241 136.903 116.844 135.811C128.447 134.719 152.036 128.304 162.379 125.232L165.078 101.346L145.514 94.8628L144.503 111.924Z" fill="#F1F1F1" stroke="#08003F" stroke-width="0.5" stroke-linecap="round"/>
<path fill-rule="evenodd" clip-rule="evenodd" d="M177.42 24.1866C177.449 24.9403 177.02 25.5693 176.462 25.5921C175.904 25.6143 175.428 25.022 175.399 24.2684C175.37 23.5154 175.799 22.8857 176.357 22.8635C176.915 22.8407 177.391 23.4329 177.42 24.1866Z" fill="#08003F"/>
<path fill-rule="evenodd" clip-rule="evenodd" d="M165.276 25.5515C165.305 26.3052 164.876 26.9342 164.318 26.957C163.76 26.9792 163.284 26.3869 163.255 25.6333C163.227 24.8803 163.655 24.2506 164.214 24.2284C164.771 24.2056 165.247 24.7978 165.276 25.5515Z" fill="#08003F"/>
<path fill-rule="evenodd" clip-rule="evenodd" d="M144.624 97.2427C144.841 93.7826 142.22 62.8445 156.547 62.7258C167.691 62.6336 165.055 77.3708 161.861 102.11L144.624 97.2427Z" fill="#15E7BD"/>
<path fill-rule="evenodd" clip-rule="evenodd" d="M197.009 126.282C189.041 128.249 166.995 127.309 164.628 126.282C162.261 125.256 163.552 117.933 163.552 117.933C149.116 80.655 150.479 68.2683 151.744 65.4972C153.453 61.7504 168.767 61.9634 169.345 59.0387C169.63 57.5963 169.53 52.6181 169.53 52.6181L189.267 51.5084C189.267 51.5084 190.368 56.9903 191.411 58.749C193.44 62.1702 205.909 59.5178 211.038 66.4359C220.204 78.8001 207.684 100.049 200.796 115.506C200.796 115.506 201.223 122.771 197.009 126.282Z" fill="#15E7BD"/>
<path fill-rule="evenodd" clip-rule="evenodd" d="M167.996 178.333L151.161 160.525C151.161 160.525 154.792 140.668 164.12 132.018L197.392 130.837C197.392 130.837 211.669 140.896 210.117 165.265L184.593 178.473L167.996 178.333Z" fill="#08003F"/>
<path fill-rule="evenodd" clip-rule="evenodd" d="M198.171 131.231L164.121 132.018L164.967 126.746L197.044 125.766L198.171 131.231Z" fill="#E4EBF7"/>
<path d="M175.986 132.029C176.195 132.053 176.344 132.244 176.32 132.454C175.935 135.819 175.643 139.476 175.438 143.381C174.978 152.143 174.97 161.466 175.246 170.342L175.297 171.904C175.342 173.193 175.39 174.37 175.439 175.419L175.529 177.22C175.541 177.431 175.382 177.613 175.173 177.625C174.963 177.638 174.784 177.476 174.772 177.264L174.732 176.512L174.662 175.054C174.626 174.242 174.59 173.358 174.556 172.41L174.539 171.931C174.212 162.572 174.191 152.644 174.68 143.34C174.886 139.42 175.179 135.747 175.566 132.366C175.587 132.177 175.742 132.035 175.925 132.027L175.986 132.029Z" fill="#F1F1F1"/>
<path d="M198.072 131.12C198.281 131.116 198.454 131.285 198.458 131.497C198.461 131.688 198.326 131.848 198.146 131.881L198.085 131.887L164.715 132.477C164.506 132.481 164.333 132.312 164.329 132.1C164.326 131.909 164.461 131.748 164.641 131.716L164.702 131.709L198.072 131.12Z" fill="#F1F1F1"/>
<path d="M164.924 229.613C164.798 229.613 164.699 229.554 164.658 229.524L164.882 229.455C164.889 229.482 164.903 229.535 164.924 229.613ZM181.812 294.381L182.048 294.299L181.812 294.381C182.51 296.377 183.144 298.066 183.689 299.517C183.937 300.178 184.167 300.789 184.376 301.357C185.044 303.179 185.493 304.55 185.662 305.717C185.83 306.873 185.721 307.821 185.274 308.8C184.822 309.79 184.018 310.825 182.761 312.14C182.467 312.448 182.087 312.683 181.635 312.925C181.504 312.995 181.367 313.066 181.224 313.14C180.885 313.315 180.518 313.504 180.153 313.727C179.097 314.374 178.013 315.332 177.243 317.251C175.21 322.313 172.106 326.813 169.172 329.546C167.702 330.915 166.295 331.821 165.103 332.148C164.511 332.31 163.984 332.326 163.532 332.197C163.087 332.069 162.696 331.796 162.375 331.344C162.137 330.93 162.061 330.279 162.15 329.39C162.239 328.503 162.487 327.423 162.848 326.193C163.474 324.058 164.431 321.505 165.453 318.778C165.61 318.36 165.768 317.938 165.926 317.513C167.119 314.318 168.342 310.947 169.178 307.797C170.012 304.654 170.47 301.701 170.107 299.352C169.918 298.125 169.189 296.036 168.085 293.329C166.977 290.612 165.481 287.249 163.743 283.462C161.863 279.366 159.695 274.768 157.425 269.953C155.5 265.869 153.501 261.629 151.542 257.407C147.27 248.202 143.181 239.076 140.428 231.8C139.051 228.161 138.012 224.993 137.45 222.514C137.169 221.274 137.01 220.215 136.985 219.359C136.96 218.496 137.073 217.875 137.305 217.483C137.851 216.559 138.393 215.302 138.958 213.918C139.111 213.541 139.267 213.154 139.425 212.761C139.849 211.705 140.292 210.605 140.765 209.529C141.415 208.053 142.119 206.636 142.904 205.461C143.692 204.284 144.549 203.371 145.497 202.878C146.431 202.393 147.472 202.306 148.669 202.813C149.879 203.326 151.259 204.45 152.832 206.411C155.978 210.33 159.837 217.513 164.639 229.516L164.644 229.532L164.675 229.651L164.802 230.139C164.915 230.572 165.082 231.215 165.296 232.04L165.423 232.531C165.842 234.146 166.411 236.335 167.085 238.93C168.576 244.667 170.585 252.384 172.642 260.242C176.753 275.947 181.063 292.241 181.812 294.381Z" fill="#F1F1F1" stroke="#08003F" stroke-width="0.5"/>
<path d="M187.166 313.078L187.166 313.078L187.167 313.094L187.169 313.11L188.71 322.671L186.885 323.388L181.965 315.16L181.75 314.801L181.536 315.16L181.751 315.288C181.536 315.16 181.536 315.16 181.536 315.161L181.536 315.161L181.535 315.162L181.533 315.165L181.526 315.177L181.5 315.222C181.477 315.261 181.444 315.32 181.401 315.397C181.316 315.55 181.193 315.777 181.043 316.07C180.742 316.658 180.331 317.515 179.885 318.595C178.993 320.756 177.963 323.815 177.409 327.41L177.409 327.41C177.281 328.24 176.82 329.097 176.092 329.953C175.364 330.808 174.382 331.648 173.237 332.443C170.948 334.032 168.037 335.425 165.294 336.39C162.543 337.358 159.998 337.883 158.434 337.768C157.635 337.709 157.193 337.492 157.034 337.198C156.881 336.913 156.92 336.416 157.469 335.596L157.469 335.596C159.964 331.867 161.696 328.514 162.806 326.092C163.361 324.881 163.76 323.902 164.021 323.225C164.131 322.939 164.217 322.707 164.279 322.534C164.357 322.598 164.45 322.668 164.559 322.74C164.938 322.993 165.503 323.278 166.257 323.416C167.774 323.695 170.003 323.375 172.955 321.136L172.958 321.134C172.96 321.132 172.963 321.131 172.965 321.129C172.969 321.126 172.973 321.122 172.978 321.118C172.993 321.106 173.012 321.089 173.036 321.067C173.082 321.022 173.146 320.953 173.23 320.849C173.397 320.641 173.645 320.287 173.987 319.69C174.67 318.496 175.735 316.316 177.279 312.357L177.279 312.357C178.611 308.941 180.149 305.578 181.354 303.067C181.956 301.812 182.475 300.771 182.843 300.044C182.992 299.749 183.117 299.507 183.212 299.322C185.047 302.781 186.034 306.158 186.563 308.703C186.838 310.025 186.989 311.122 187.071 311.886C187.112 312.269 187.136 312.568 187.149 312.771C187.156 312.872 187.161 312.95 187.163 313.002C187.164 313.027 187.165 313.047 187.166 313.06L187.166 313.074L187.166 313.077L187.166 313.078L187.166 313.078Z" fill="#08003F" stroke="#15E7BD" stroke-width="0.5"/>
<path fill-rule="evenodd" clip-rule="evenodd" d="M112.324 181.165L141.644 284.916L177.939 274.52C177.939 274.52 164.015 217.87 149.082 170.947C149.082 170.947 142.944 145.95 123.67 151.731C104.397 157.513 112.324 181.165 112.324 181.165Z" fill="#08003F"/>
<path d="M186.338 142.792C186.546 142.766 186.735 142.916 186.761 143.126C186.784 143.316 186.666 143.49 186.491 143.542L186.43 143.554L128.752 150.72C128.544 150.746 128.355 150.596 128.329 150.386C128.306 150.196 128.424 150.022 128.599 149.971L128.659 149.958L186.338 142.792Z" fill="#F1F1F1"/>
<path fill-rule="evenodd" clip-rule="evenodd" d="M131.434 149.975C171.824 143.966 184.487 144.042 193.906 146.202C193.906 146.202 213.438 149.7 210.131 164.925C206.092 183.505 185.192 184.293 185.192 184.293L134.832 190.024C129.458 190.633 110.292 191.913 110.292 172.084C110.292 152.198 130.554 150.106 131.434 149.975Z" fill="#08003F"/>
<path d="M124.655 137.269L178.282 150.39L125.575 161.954L81.4917 151.259L124.655 137.269Z" fill="#08003F" stroke="#F1F1F1" stroke-width="0.74259"/>
<path fill-rule="evenodd" clip-rule="evenodd" d="M123.286 158.586L162.762 149.925L123.546 139.972L90.2832 150.579L123.286 158.586Z" fill="#F1F1F1"/>
<path fill-rule="evenodd" clip-rule="evenodd" d="M180.052 153.276L179.937 150.429L124.439 162.143L125.557 165.126L180.052 153.276Z" fill="#F1F1F1"/>
<path d="M116.377 142.781L148.375 152.612C148.5 152.65 148.57 152.783 148.532 152.909C148.499 153.019 148.394 153.087 148.285 153.077L148.238 153.068L116.24 143.237C116.116 143.199 116.046 143.066 116.083 142.94C116.117 142.83 116.221 142.762 116.33 142.772L116.377 142.781Z" fill="#08003F"/>
<path d="M120.437 140.853L156.179 151.175C156.304 151.211 156.377 151.343 156.341 151.47C156.31 151.581 156.206 151.651 156.097 151.642L156.05 151.634L120.308 141.311C120.183 141.275 120.11 141.143 120.146 141.017C120.177 140.906 120.281 140.836 120.39 140.844L120.437 140.853Z" fill="#08003F"/>
<path d="M116.068 145.695L142.963 154.372C143.087 154.412 143.155 154.546 143.116 154.672C143.081 154.781 142.975 154.848 142.866 154.836L142.82 154.826L115.925 146.149C115.801 146.109 115.732 145.975 115.772 145.85C115.807 145.74 115.912 145.674 116.021 145.685L116.068 145.695Z" fill="#08003F"/>
<path d="M108.896 146.837L135.791 155.514C135.915 155.554 135.983 155.688 135.944 155.813C135.909 155.923 135.803 155.99 135.694 155.978L135.648 155.968L108.753 147.291C108.629 147.251 108.561 147.117 108.6 146.991C108.635 146.882 108.74 146.815 108.849 146.827L108.896 146.837Z" fill="#08003F"/>
<path d="M102.3 148.365L129.195 157.042C129.319 157.082 129.388 157.216 129.348 157.341C129.313 157.451 129.208 157.518 129.099 157.506L129.052 157.496L102.157 148.819C102.033 148.779 101.965 148.645 102.004 148.52C102.039 148.41 102.145 148.343 102.254 148.355L102.3 148.365Z" fill="#08003F"/>
<path d="M156.149 148.552C156.277 148.529 156.4 148.615 156.423 148.744C156.444 148.857 156.381 148.966 156.279 149.008L156.233 149.021L122.385 155.228C122.257 155.252 122.134 155.166 122.111 155.036C122.091 154.923 122.153 154.814 122.255 154.773L122.301 154.759L156.149 148.552Z" fill="#08003F"/>
<path d="M148.438 146.288C148.566 146.264 148.689 146.35 148.712 146.48C148.733 146.593 148.67 146.702 148.568 146.743L148.522 146.757L114.673 152.964C114.545 152.987 114.423 152.901 114.399 152.772C114.379 152.659 114.442 152.55 114.543 152.508L114.589 152.495L148.438 146.288Z" fill="#08003F"/>
<path d="M138.964 145.026C139.092 145.002 139.214 145.088 139.238 145.218C139.258 145.331 139.195 145.44 139.094 145.481L139.048 145.495L105.199 151.702C105.071 151.725 104.949 151.639 104.926 151.51C104.905 151.397 104.968 151.288 105.07 151.246L105.115 151.233L138.964 145.026Z" fill="#08003F"/>
<path d="M132.358 140.616C132.486 140.593 132.609 140.679 132.632 140.808C132.652 140.922 132.59 141.031 132.488 141.072L132.442 141.085L98.593 147.293C98.465 147.316 98.3425 147.23 98.3192 147.101C98.2989 146.987 98.3615 146.878 98.4632 146.837L98.509 146.824L132.358 140.616Z" fill="#08003F"/>
<path fill-rule="evenodd" clip-rule="evenodd" d="M125.512 165.13L123.059 165.488L80.0206 154.471L58.8818 83.1313L104.943 89.7198L125.512 165.13Z" fill="#F1F1F1"/>
<path d="M121.92 164.462L77.7708 153.181L77.769 153.18C77.6126 153.141 77.4809 153.018 77.4309 152.85L57.0393 84.2954L57.0391 84.2947C56.933 83.9391 57.229 83.6201 57.5584 83.6674C57.5585 83.6674 57.5586 83.6674 57.5587 83.6674L101.254 89.9794C101.254 89.9794 101.254 89.9794 101.254 89.9794C101.436 90.0061 101.593 90.1413 101.645 90.3317C101.645 90.3317 101.645 90.3317 101.645 90.3317L121.92 164.462Z" fill="#08003F" stroke="#F1F1F1" stroke-width="1.48518"/>
<ellipse rx="7.52457" ry="7.5917" transform="matrix(-0.938617 0.344961 0.337972 0.941156 87.2082 122.006)" fill="#15E7BD"/>
<path d="M89.2385 123.774C89.2805 123.774 89.3272 123.762 89.3785 123.739C89.4252 123.716 89.4765 123.688 89.5325 123.655L91.8635 122.297C91.9195 122.264 91.9615 122.222 91.9895 122.171C92.0129 122.115 92.0245 122.059 92.0245 122.003C92.0245 121.942 92.0105 121.886 91.9825 121.835C91.9545 121.779 91.9125 121.737 91.8565 121.709L89.5395 120.379C89.4882 120.346 89.4415 120.323 89.3995 120.309C89.3529 120.29 89.3085 120.281 89.2665 120.281C89.1872 120.276 89.1125 120.311 89.0425 120.386C88.9725 120.461 88.9375 120.54 88.9375 120.624C88.9375 120.671 88.9515 120.715 88.9795 120.757C89.0029 120.794 89.0379 120.827 89.0845 120.855L91.5275 122.255L91.5625 121.723L89.0985 123.172C89.0379 123.205 88.9959 123.242 88.9725 123.284C88.9492 123.326 88.9375 123.373 88.9375 123.424C88.9375 123.517 88.9702 123.599 89.0355 123.669C89.1009 123.739 89.1685 123.774 89.2385 123.774ZM88.4936 125.244C88.5636 125.244 88.6336 125.216 88.7036 125.16C88.7736 125.104 88.8086 125.034 88.8086 124.95C88.8086 124.899 88.7946 124.85 88.7666 124.803L85.8616 118.916C85.829 118.851 85.7893 118.802 85.7426 118.769C85.6913 118.736 85.6353 118.72 85.5746 118.72C85.5093 118.72 85.444 118.746 85.3786 118.797C85.3086 118.848 85.2736 118.921 85.2736 119.014C85.2736 119.065 85.2853 119.117 85.3086 119.168L88.2136 125.055C88.2463 125.116 88.286 125.162 88.3326 125.195C88.3793 125.228 88.433 125.244 88.4936 125.244ZM84.8135 123.711C84.8928 123.711 84.9675 123.674 85.0375 123.599C85.1028 123.52 85.1355 123.44 85.1355 123.361C85.1355 123.31 85.1238 123.265 85.1005 123.228C85.0725 123.191 85.0305 123.156 84.9745 123.123L82.5315 121.737L82.4895 122.262L84.9815 120.806C85.0328 120.778 85.0702 120.743 85.0935 120.701C85.1122 120.659 85.1215 120.612 85.1215 120.561C85.1215 120.468 85.0888 120.386 85.0235 120.316C84.9582 120.246 84.8905 120.211 84.8205 120.211C84.7785 120.211 84.7342 120.223 84.6875 120.246C84.6362 120.269 84.5848 120.297 84.5335 120.33L82.1955 121.681C82.1395 121.714 82.0975 121.756 82.0695 121.807C82.0415 121.858 82.0275 121.917 82.0275 121.982C82.0275 122.043 82.0415 122.099 82.0695 122.15C82.0928 122.201 82.1325 122.243 82.1885 122.276L84.5405 123.606C84.5918 123.634 84.6408 123.66 84.6875 123.683C84.7295 123.702 84.7715 123.711 84.8135 123.711Z" fill="#08003F"/>
<path d="M197.321 110.559L147.063 131.033C153.81 133.49 152.798 138.882 151.448 141.27C165.952 138.086 197.254 130.965 206.429 127.962C215.603 124.959 217.672 119.431 217.56 117.043L215.198 93.8391L194.96 96.9102L197.321 110.559Z" fill="#F1F1F1" stroke="#08003F" stroke-width="0.5" stroke-linecap="round"/>
<path fill-rule="evenodd" clip-rule="evenodd" d="M204.01 62.2082C211.998 63.8768 215.062 71.8534 215.786 94.4904L194.702 97.9485C194.654 94.4812 180.837 59.7104 205.689 62.5347" fill="#15E7BD"/>
<path d="M198.254 66.4682C198.446 66.3832 198.67 66.4718 198.754 66.666C198.838 66.8603 198.751 67.0866 198.559 67.1716C196.877 67.9157 195.515 69.9306 194.472 72.8299C193.989 74.1725 193.607 75.6144 193.317 77.0567C193.235 77.4607 193.166 77.8416 193.108 78.193L193.036 78.6479L192.997 78.9299L195.08 97.9061C195.101 98.0957 194.981 98.2684 194.806 98.3181L194.745 98.33C194.557 98.351 194.387 98.2301 194.338 98.0521L194.326 97.9908L192.237 78.9685L192.238 78.879L192.285 78.5356L192.317 78.331C192.384 77.8999 192.469 77.42 192.573 76.9034C192.87 75.4266 193.262 73.9493 193.759 72.5674C194.866 69.4883 196.334 67.3183 198.254 66.4682Z" fill="#08003F"/>
<path d="M186.918 59.7814C187.127 59.7742 187.303 59.9401 187.31 60.152C187.317 60.3427 187.184 60.5057 187.005 60.5416L186.944 60.5488L172.303 61.0545C172.093 61.0617 171.918 60.8958 171.91 60.6839C171.904 60.4932 172.036 60.3303 172.215 60.2943L172.277 60.2871L186.918 59.7814Z" fill="#08003F"/>
<path d="M156.12 72.221C156.299 72.1606 156.491 72.2426 156.576 72.4063L156.6 72.4638L157.739 75.9218C157.759 75.9833 157.764 76.0486 157.753 76.1117L157.736 76.1738L154.789 84.407L154.734 84.5259C154.711 84.5798 154.682 84.6477 154.65 84.7294C154.54 85.0078 154.43 85.336 154.327 85.7115C153.094 90.1871 153.942 95.6936 158.457 101.726C158.583 101.895 158.551 102.136 158.383 102.264C158.216 102.392 157.978 102.359 157.852 102.19C153.188 95.9579 152.302 90.2033 153.595 85.5054C153.706 85.1027 153.826 84.7483 153.945 84.4448L154.029 84.2406C154.053 84.1853 154.072 84.1439 154.084 84.12L154.094 84.1022L156.977 76.0377L155.88 72.7066C155.82 72.5255 155.901 72.3313 156.063 72.2454L156.12 72.221Z" fill="#08003F"/>
<path d="M127.985 146.474C127.947 146.227 127.947 146.227 127.947 146.227L127.947 146.227L127.985 146.474ZM127.985 146.474C128.354 147.407 128.819 147.361 129.247 147.319C129.4 147.303 129.549 147.288 129.687 147.32L129.558 135.762C128.434 139.184 126.553 145.032 126.678 145.464C127.011 146.626 127.985 146.474 127.985 146.474ZM152.345 139.802L152.345 139.802C152.01 141.069 151.059 141.929 149.771 142.505C148.479 143.082 146.874 143.359 145.294 143.468C143.717 143.576 142.182 143.516 141.039 143.428C140.469 143.384 139.997 143.333 139.669 143.293C139.504 143.273 139.376 143.256 139.289 143.244C139.245 143.238 139.212 143.234 139.19 143.23L139.165 143.227L139.159 143.226L139.158 143.225L139.157 143.225L139.119 143.473L139.157 143.225L139.047 143.208L138.96 143.28L133.075 148.127C132.868 148.27 132.703 148.335 132.569 148.36C132.434 148.386 132.317 148.376 132.2 148.35C132.14 148.336 132.082 148.319 132.018 148.299C132.007 148.296 131.996 148.292 131.984 148.288C131.932 148.272 131.875 148.254 131.819 148.239C131.68 148.202 131.513 148.174 131.328 148.216C131.032 148.284 130.808 148.254 130.637 148.183C130.463 148.112 130.326 147.991 130.219 147.854C130.112 147.716 130.039 147.567 129.992 147.45C129.969 147.392 129.953 147.343 129.944 147.31C129.939 147.294 129.935 147.281 129.933 147.273L129.931 147.265L129.931 147.265L129.931 147.264L129.931 147.264L129.931 147.264L129.931 147.264L129.896 147.11L129.742 147.076C129.566 147.036 129.387 147.054 129.247 147.067L129.233 147.069C129.086 147.083 128.971 147.095 128.86 147.08C128.756 147.067 128.657 147.031 128.557 146.94C128.453 146.844 128.334 146.678 128.218 146.382L128.144 146.196L127.949 146.227L127.948 146.227L127.948 146.227L127.946 146.227C127.942 146.227 127.935 146.228 127.925 146.229C127.906 146.23 127.876 146.231 127.838 146.23C127.761 146.227 127.656 146.213 127.544 146.171C127.334 146.091 127.067 145.902 126.922 145.408C126.922 145.403 126.922 145.384 126.926 145.348C126.932 145.291 126.945 145.213 126.965 145.112C127.005 144.912 127.071 144.641 127.159 144.311C127.334 143.653 127.592 142.778 127.889 141.807C128.483 139.866 129.234 137.551 129.795 135.84C130.26 134.426 131.467 133.401 132.921 133.18L132.921 133.18L147.257 130.996C147.265 130.998 147.274 131 147.284 131.003C147.334 131.017 147.408 131.039 147.502 131.069C147.691 131.13 147.959 131.226 148.276 131.363C148.91 131.638 149.733 132.077 150.494 132.737C151.255 133.396 151.95 134.272 152.34 135.421C152.729 136.569 152.82 138.007 152.345 139.802Z" fill="#F1F1F1" stroke="#08003F" stroke-width="0.5"/>
<path d="M135.951 141.921L135.887 141.949L135.847 142.005L131.613 147.902C131.613 147.902 131.613 147.902 131.613 147.902C131.575 147.955 131.507 147.972 131.452 147.949L131.416 147.928C131.368 147.888 131.351 147.82 131.375 147.762L131.398 147.723L135.688 141.748L135.499 141.612L135.688 141.748C135.696 141.737 135.706 141.727 135.717 141.718L135.756 141.697L140.077 139.83C140.144 139.801 140.226 139.832 140.256 139.905L140.487 139.808L140.256 139.905C140.283 139.969 140.261 140.041 140.209 140.079L140.174 140.097L135.951 141.921Z" fill="#F1F1F1" stroke="#08003F" stroke-width="0.5"/>
<path d="M133.452 140.482L133.392 140.516L133.358 140.576L129.909 146.68C129.909 146.68 129.909 146.68 129.909 146.68C129.875 146.739 129.808 146.763 129.75 146.745L129.716 146.728C129.663 146.694 129.639 146.626 129.658 146.565L129.675 146.527L133.172 140.339C133.179 140.326 133.188 140.315 133.198 140.306L133.235 140.28L137.205 138.018L137.081 137.801L137.205 138.018C137.27 137.981 137.353 138.003 137.391 138.072C137.425 138.132 137.411 138.207 137.363 138.25L137.329 138.273L133.452 140.482Z" fill="#F1F1F1" stroke="#08003F" stroke-width="0.5"/>
<path d="M131.983 138.653L131.938 138.689L131.914 138.74L128.766 145.293C128.736 145.354 128.671 145.383 128.611 145.368L128.576 145.355C128.521 145.324 128.493 145.259 128.508 145.196L128.523 145.157L131.706 138.533L131.706 138.533C131.711 138.522 131.718 138.512 131.725 138.503L131.752 138.477L134.43 136.334C134.488 136.287 134.574 136.297 134.622 136.358C134.663 136.411 134.662 136.485 134.623 136.536L134.59 136.567L131.983 138.653Z" fill="#F1F1F1" stroke="#08003F" stroke-width="0.5"/>
<g clip-path="url(#clip0_17_30270)">
<path fill-rule="evenodd" clip-rule="evenodd" d="M93.9451 11.7178C93.9759 11.7491 93.9757 11.7997 93.9448 11.8309L92.611 13.1741L93.8714 14.4434C93.9023 14.4745 93.9025 14.5252 93.8716 14.5565C93.8408 14.5878 93.7908 14.5879 93.7598 14.5567L92.4432 13.2308C92.4283 13.2158 92.4199 13.1954 92.4199 13.1741C92.4199 13.1528 92.4283 13.1324 92.4432 13.1174L93.8333 11.7175C93.8642 11.6864 93.9143 11.6865 93.9451 11.7178Z" fill="#08003F"/>
<path fill-rule="evenodd" clip-rule="evenodd" d="M96.1956 11.2794C96.2874 11.324 96.3261 11.4355 96.282 11.5284L94.6812 14.9008C94.6371 14.9937 94.5269 15.0328 94.435 14.9882C94.3432 14.9436 94.3045 14.8321 94.3486 14.7392L95.9495 11.3669C95.9936 11.274 96.1038 11.2348 96.1956 11.2794Z" fill="#15E7BD"/>
</g>
<g clip-path="url(#clip1_17_30270)">
<path fill-rule="evenodd" clip-rule="evenodd" d="M120.577 28.7794C120.547 28.8107 120.547 28.8613 120.578 28.8925L121.911 30.2357L120.651 31.505C120.62 31.5361 120.62 31.5868 120.651 31.6181C120.682 31.6494 120.732 31.6495 120.763 31.6183L122.079 30.2924C122.094 30.2774 122.103 30.257 122.103 30.2357C122.103 30.2144 122.094 30.194 122.079 30.179L120.689 28.7791C120.658 28.748 120.608 28.7481 120.577 28.7794Z" fill="#08003F"/>
<path fill-rule="evenodd" clip-rule="evenodd" d="M120.087 28.341C120.179 28.3856 120.218 28.4971 120.174 28.59L118.573 31.9623C118.529 32.0552 118.419 32.0944 118.327 32.0498C118.235 32.0052 118.196 31.8937 118.24 31.8008L119.841 28.4284C119.885 28.3355 119.996 28.2964 120.087 28.341Z" fill="#15E7BD"/>
</g>
<path d="M138.935 16.5224H96.4707V18.5401H138.935V16.5224Z" fill="#08003F"/>
<path d="M117.701 20.8115H96.4688V22.8292H117.701V20.8115Z" fill="#15E7BD"/>
<path d="M117.701 29.3893H96.4688V31.4069H117.701V29.3893Z" fill="#15E7BD"/>
<path d="M109.207 12.2067H96.4678V14.2244H109.207V12.2067Z" fill="#08003F"/>
<path d="M128.368 20.7848H121.988V22.8025H128.368V20.7848Z" fill="#08003F"/>
<path d="M128.317 25.1002H96.4688V27.1179H128.317V25.1002Z" fill="#F1F1F1"/>
<g clip-path="url(#clip2_17_30270)">
<path fill-rule="evenodd" clip-rule="evenodd" d="M39.9773 11.7178C40.0081 11.7491 40.008 11.7997 39.977 11.8309L38.6433 13.1741L39.9036 14.4434C39.9346 14.4745 39.9347 14.5252 39.9039 14.5565C39.8731 14.5878 39.823 14.5879 39.7921 14.5567L38.4754 13.2308C38.4605 13.2158 38.4521 13.1954 38.4521 13.1741C38.4521 13.1528 38.4605 13.1324 38.4754 13.1174L39.8655 11.7175C39.8964 11.6864 39.9465 11.6865 39.9773 11.7178Z" fill="#08003F"/>
<path fill-rule="evenodd" clip-rule="evenodd" d="M42.2278 11.2794C42.3197 11.324 42.3584 11.4355 42.3143 11.5284L40.7134 14.9008C40.6693 14.9937 40.5591 15.0328 40.4673 14.9882C40.3754 14.9436 40.3367 14.8321 40.3808 14.7392L41.9817 11.3669C42.0258 11.274 42.136 11.2348 42.2278 11.2794Z" fill="#15E7BD"/>
</g>
<g clip-path="url(#clip3_17_30270)">
<path fill-rule="evenodd" clip-rule="evenodd" d="M66.6096 28.7794C66.5788 28.8107 66.5789 28.8613 66.6099 28.8925L67.9437 30.2357L66.6833 31.505C66.6524 31.5361 66.6522 31.5868 66.683 31.6181C66.7138 31.6494 66.7639 31.6495 66.7948 31.6183L68.1115 30.2924C68.1264 30.2774 68.1348 30.257 68.1348 30.2357C68.1348 30.2144 68.1264 30.194 68.1115 30.179L66.7214 28.7791C66.6905 28.748 66.6404 28.7481 66.6096 28.7794Z" fill="#08003F"/>
<path fill-rule="evenodd" clip-rule="evenodd" d="M66.1197 28.341C66.2115 28.3856 66.2502 28.4971 66.2061 28.59L64.6052 31.9623C64.5611 32.0552 64.4509 32.0944 64.3591 32.0498C64.2673 32.0052 64.2286 31.8937 64.2727 31.8008L65.8735 28.4284C65.9176 28.3355 66.0278 28.2964 66.1197 28.341Z" fill="#15E7BD"/>
</g>
<path d="M84.9677 16.5224H42.5029V18.5401H84.9677V16.5224Z" fill="#08003F"/>
<path d="M63.7334 20.8115H42.501V22.8292H63.7334V20.8115Z" fill="#15E7BD"/>
<path d="M63.7334 29.3893H42.501V31.4069H63.7334V29.3893Z" fill="#15E7BD"/>
<path d="M55.2394 12.2067H42.5V14.2244H55.2394V12.2067Z" fill="#08003F"/>
<path d="M74.4007 20.7848H68.0205V22.8025H74.4007V20.7848Z" fill="#08003F"/>
<path d="M74.3496 25.1002H42.501V27.1179H74.3496V25.1002Z" fill="#F1F1F1"/>
<g clip-path="url(#clip4_17_30270)">
<path fill-rule="evenodd" clip-rule="evenodd" d="M93.9451 39.0163C93.9759 39.0476 93.9757 39.0983 93.9448 39.1294L92.611 40.4727L93.8714 41.7419C93.9023 41.7731 93.9025 41.8237 93.8716 41.855C93.8408 41.8863 93.7908 41.8865 93.7598 41.8553L92.4432 40.5293C92.4283 40.5143 92.4199 40.4939 92.4199 40.4727C92.4199 40.4514 92.4283 40.431 92.4432 40.416L93.8333 39.0161C93.8642 38.9849 93.9143 38.985 93.9451 39.0163Z" fill="#08003F"/>
<path fill-rule="evenodd" clip-rule="evenodd" d="M96.1956 38.578C96.2874 38.6226 96.3261 38.7341 96.282 38.827L94.6812 42.1993C94.6371 42.2922 94.5269 42.3314 94.435 42.2867C94.3432 42.2421 94.3045 42.1306 94.3486 42.0377L95.9495 38.6654C95.9936 38.5725 96.1038 38.5334 96.1956 38.578Z" fill="#15E7BD"/>
</g>
<g clip-path="url(#clip5_17_30270)">
<path fill-rule="evenodd" clip-rule="evenodd" d="M120.577 56.0779C120.547 56.1092 120.547 56.1599 120.578 56.191L121.911 57.5342L120.651 58.8035C120.62 58.8347 120.62 58.8853 120.651 58.9166C120.682 58.9479 120.732 58.948 120.763 58.9169L122.079 57.5909C122.094 57.5759 122.103 57.5555 122.103 57.5342C122.103 57.513 122.094 57.4926 122.079 57.4776L120.689 56.0777C120.658 56.0465 120.608 56.0466 120.577 56.0779Z" fill="#08003F"/>
<path fill-rule="evenodd" clip-rule="evenodd" d="M120.087 55.6396C120.179 55.6842 120.218 55.7957 120.174 55.8886L118.573 59.2609C118.529 59.3538 118.419 59.3929 118.327 59.3483C118.235 59.3037 118.196 59.1922 118.24 59.0993L119.841 55.727C119.885 55.6341 119.996 55.5949 120.087 55.6396Z" fill="#15E7BD"/>
</g>
<path d="M138.935 43.821H96.4707V45.8387H138.935V43.821Z" fill="#08003F"/>
<path d="M117.701 48.11H96.4688V50.1277H117.701V48.11Z" fill="#15E7BD"/>
<path d="M117.701 56.6878H96.4688V58.7055H117.701V56.6878Z" fill="#15E7BD"/>
<path d="M109.207 39.5052H96.4678V41.5229H109.207V39.5052Z" fill="#08003F"/>
<path d="M128.368 48.0834H121.988V50.1011H128.368V48.0834Z" fill="#08003F"/>
<path d="M128.317 52.3988H96.4688V54.4165H128.317V52.3988Z" fill="#F1F1F1"/>
<g clip-path="url(#clip6_17_30270)">
<path fill-rule="evenodd" clip-rule="evenodd" d="M39.9773 39.0163C40.0081 39.0476 40.008 39.0983 39.977 39.1294L38.6433 40.4727L39.9036 41.7419C39.9346 41.7731 39.9347 41.8237 39.9039 41.855C39.8731 41.8863 39.823 41.8865 39.7921 41.8553L38.4754 40.5293C38.4605 40.5143 38.4521 40.4939 38.4521 40.4727C38.4521 40.4514 38.4605 40.431 38.4754 40.416L39.8655 39.0161C39.8964 38.9849 39.9465 38.985 39.9773 39.0163Z" fill="#08003F"/>
<path fill-rule="evenodd" clip-rule="evenodd" d="M42.2278 38.578C42.3197 38.6226 42.3584 38.7341 42.3143 38.827L40.7134 42.1993C40.6693 42.2922 40.5591 42.3314 40.4673 42.2867C40.3754 42.2421 40.3367 42.1306 40.3808 42.0377L41.9817 38.6654C42.0258 38.5725 42.136 38.5334 42.2278 38.578Z" fill="#15E7BD"/>
</g>
<g clip-path="url(#clip7_17_30270)">
<path fill-rule="evenodd" clip-rule="evenodd" d="M66.6096 56.0779C66.5788 56.1092 66.5789 56.1599 66.6099 56.191L67.9437 57.5342L66.6833 58.8035C66.6524 58.8347 66.6522 58.8853 66.683 58.9166C66.7138 58.9479 66.7639 58.948 66.7948 58.9169L68.1115 57.5909C68.1264 57.5759 68.1348 57.5555 68.1348 57.5342C68.1348 57.513 68.1264 57.4926 68.1115 57.4776L66.7214 56.0777C66.6905 56.0465 66.6404 56.0466 66.6096 56.0779Z" fill="#08003F"/>
<path fill-rule="evenodd" clip-rule="evenodd" d="M66.1197 55.6396C66.2115 55.6842 66.2502 55.7957 66.2061 55.8886L64.6052 59.2609C64.5611 59.3538 64.4509 59.3929 64.3591 59.3483C64.2673 59.3037 64.2286 59.1922 64.2727 59.0993L65.8735 55.727C65.9176 55.6341 66.0278 55.5949 66.1197 55.6396Z" fill="#15E7BD"/>
</g>
<path d="M84.9677 43.821H42.5029V45.8387H84.9677V43.821Z" fill="#08003F"/>
<path d="M63.7334 48.11H42.501V50.1277H63.7334V48.11Z" fill="#15E7BD"/>
<path d="M63.7334 56.6878H42.501V58.7055H63.7334V56.6878Z" fill="#15E7BD"/>
<path d="M55.2394 39.5052H42.5V41.5229H55.2394V39.5052Z" fill="#08003F"/>
<path d="M74.4007 48.0834H68.0205V50.1011H74.4007V48.0834Z" fill="#08003F"/>
<path d="M74.3496 52.3988H42.501V54.4165H74.3496V52.3988Z" fill="#F1F1F1"/>
<defs>
<clipPath id="clip0_17_30270">
<rect width="6.74603" height="6.82464" fill="white" transform="translate(89.7217 9.89606)"/>
</clipPath>
<clipPath id="clip1_17_30270">
<rect width="6.74604" height="6.82464" fill="white" transform="matrix(-1 0 0 1 124.801 26.9576)"/>
</clipPath>
<clipPath id="clip2_17_30270">
<rect width="6.74603" height="6.82464" fill="white" transform="translate(35.7539 9.89606)"/>
</clipPath>
<clipPath id="clip3_17_30270">
<rect width="6.74603" height="6.82464" fill="white" transform="matrix(-1 0 0 1 70.833 26.9576)"/>
</clipPath>
<clipPath id="clip4_17_30270">
<rect width="6.74603" height="6.82464" fill="white" transform="translate(89.7217 37.1946)"/>
</clipPath>
<clipPath id="clip5_17_30270">
<rect width="6.74604" height="6.82464" fill="white" transform="matrix(-1 0 0 1 124.801 54.2562)"/>
</clipPath>
<clipPath id="clip6_17_30270">
<rect width="6.74603" height="6.82464" fill="white" transform="translate(35.7539 37.1946)"/>
</clipPath>
<clipPath id="clip7_17_30270">
<rect width="6.74603" height="6.82464" fill="white" transform="matrix(-1 0 0 1 70.833 54.2562)"/>
</clipPath>
</defs>
</svg>
