<svg width="162" height="73" viewBox="0 0 162 73" fill="none" xmlns="http://www.w3.org/2000/svg">
<path d="M67.1734 70.3703C69.5194 70.3703 71.5839 69.7999 73.3669 68.6591C75.1968 67.5183 76.1118 65.8072 76.1118 63.5256C76.1118 61.2017 75.1265 59.4272 73.1558 58.2019C71.232 56.9766 68.4637 55.9203 64.8508 55.033C61.2848 54.1035 58.6807 53.3007 57.0385 52.6247C55.4432 51.9486 53.9183 51.0614 52.4637 49.9628C49.5546 47.7657 48.1001 44.3645 48.1001 39.7591C48.1001 35.9987 49.5781 32.7664 52.5341 30.0623C55.537 27.3582 59.6191 26.0062 64.7804 26.0062C67.2672 26.0062 69.8479 26.3442 72.5224 27.0202C75.2438 27.654 76.9329 27.9709 77.5898 27.9709C78.2467 27.9709 78.8332 27.5484 79.3493 26.7033L80.1235 26.7033L80.6162 39.5056L79.4901 39.5056C77.2379 35.8297 74.8684 32.8932 72.3816 30.6961C69.9417 28.4568 67.2672 27.3371 64.3581 27.3371C61.496 27.3371 59.2672 27.9497 57.6719 29.175C56.0766 30.3581 55.279 31.9636 55.279 33.9917C55.279 35.9775 56.2174 37.5197 58.0942 38.6183C60.018 39.6746 62.364 40.5407 65.1323 41.2167C67.9007 41.8928 69.7071 42.3575 70.5517 42.611C71.4432 42.8646 72.5224 43.2237 73.7892 43.6885C75.103 44.111 76.1587 44.5757 76.9564 45.0828C77.8009 45.5475 78.669 46.1602 79.5605 46.9207C80.4989 47.639 81.2262 48.4418 81.7423 49.329C83.0092 51.3571 83.6426 53.7655 83.6426 56.5541C83.6426 61.1172 82.0473 64.7931 78.8567 67.5817C75.713 70.3281 71.5605 71.7013 66.3992 71.7013C63.7247 71.7013 60.6514 71.3844 57.1793 70.7506C53.7541 70.1168 51.8538 69.7999 51.4784 69.7999C50.8215 69.7999 50.1881 70.4337 49.5781 71.7013L48.1705 71.6667L48.1705 56.6174L49.4373 56.6174C51.5019 60.2933 53.7775 63.5044 56.9681 66.2508C60.2057 68.9972 63.6074 70.3703 67.1734 70.3703Z" fill="#08003F"/>
<path d="M57.1751 24.2254C55.2363 24.2254 53.7784 23.7295 52.8015 22.7375C51.8396 21.7305 51.3587 20.3403 51.3587 18.5668C51.3587 16.7783 51.8997 15.4106 52.9819 14.4638C54.079 13.5169 55.4693 13.0435 57.1526 13.0435C60.5643 13.0435 62.2025 14.7568 62.0672 18.1836H55.7097V19.0628C55.7097 20.5357 55.8976 21.6479 56.2733 22.3994C56.6491 23.1508 57.3029 23.5266 58.2347 23.5266C59.9781 23.5266 61.1204 22.5947 61.6614 20.7311L62.0672 20.7987C61.7817 21.8808 61.2631 22.7225 60.5117 23.3237C59.7752 23.9249 58.663 24.2254 57.1751 24.2254ZM55.7323 17.7327H58.0543V16.628C58.0543 15.4106 57.9792 14.584 57.8289 14.1481C57.6936 13.6973 57.4081 13.4718 56.9722 13.4718C56.5514 13.4718 56.2358 13.7123 56.0253 14.1932C55.83 14.6591 55.7323 15.4707 55.7323 16.628V17.7327ZM71.099 17.9356C71.099 16.3875 71.0239 15.3505 70.8736 14.8245C70.7233 14.2834 70.4302 14.0129 69.9944 14.0129C69.5585 14.0129 69.1677 14.2834 68.8221 14.8245C68.4764 15.3655 68.3035 16.1095 68.3035 17.0564V21.2496C68.3035 21.8959 68.4313 22.4444 68.6868 22.8953C68.9573 23.3462 69.3331 23.5717 69.814 23.5717C70.31 23.5717 70.6481 23.241 70.8285 22.5797C71.0089 21.9184 71.099 20.7611 71.099 19.1079V17.9356ZM68.3035 7.09177V14.9823C68.8747 13.6897 69.8516 13.0435 71.2343 13.0435C74.0448 13.0435 75.4501 14.9146 75.4501 18.657C75.4501 20.5657 75.0593 21.971 74.2778 22.8728C73.5113 23.7746 72.354 24.2254 70.806 24.2254C70.0244 24.2254 69.4232 24.1052 69.0024 23.8647C68.5966 23.6243 68.3186 23.226 68.1683 22.6699L68.0105 24H62.8704V23.5942H64.1103V7.49756H62.8704V7.09177H68.3035Z" fill="#08003F"/>
<path d="M93.0204 53.7902V51.8739C93.0204 50.4161 92.9378 49.3565 92.7725 48.6952C92.6222 48.0189 92.2614 47.6807 91.6903 47.6807C91.3597 47.6807 91.0891 47.7784 90.8787 47.9738C90.6833 48.1541 90.5406 48.4622 90.4504 48.8981C90.3151 49.5744 90.2475 50.604 90.2475 51.9867V53.7451C90.2475 55.3833 90.2926 56.3678 90.3828 56.6984C90.488 57.0291 90.5932 57.2996 90.6984 57.51C90.8637 57.8707 91.1868 58.0511 91.6678 58.0511C92.2539 58.0511 92.6372 57.7129 92.8175 57.0366C92.9528 56.5557 93.0204 55.4735 93.0204 53.7902ZM91.6227 58.4569C89.744 58.4569 88.3237 57.9759 87.3618 57.0141C86.3999 56.0522 85.919 54.677 85.919 52.8884C85.919 51.0849 86.43 49.7022 87.452 48.7403C88.489 47.7634 89.9394 47.2749 91.803 47.2749C93.6667 47.2749 95.0569 47.7258 95.9737 48.6276C96.8905 49.5143 97.3489 50.8745 97.3489 52.7081C97.3489 56.5406 95.4402 58.4569 91.6227 58.4569ZM97.8893 41.3232H103.413V57.8256H104.675V58.2314H97.9795V57.8256H99.2194V41.729H97.8893V41.3232ZM118.191 58.2314H113.051L112.803 56.5857C112.562 57.1869 112.202 57.6528 111.721 57.9835C111.255 58.2991 110.556 58.4569 109.624 58.4569C107.295 58.4569 106.13 57.2019 106.13 54.692V47.9062H104.867V47.5004H110.323V55.2331C110.323 56.1348 110.383 56.7285 110.503 57.0141C110.639 57.2996 110.894 57.4424 111.27 57.4424C111.661 57.4424 112.006 57.2094 112.307 56.7435C112.608 56.2776 112.758 55.6313 112.758 54.8047V47.9062H111.721V47.5004H116.951V57.8256H118.191V58.2314ZM119.78 55.0076V47.9062H118.54V47.5004H119.78V44.5921L123.973 43.5551V47.5004H126.904V47.9062H123.973V55.5036C123.973 56.21 124.041 56.7285 124.176 57.0591C124.326 57.3898 124.627 57.5551 125.078 57.5551C125.528 57.5551 125.919 57.3297 126.25 56.8788C126.596 56.4279 126.821 55.8117 126.926 55.0302L127.309 55.0752C127.189 56.1123 126.859 56.9389 126.318 57.5551C125.776 58.1563 124.882 58.4569 123.635 58.4569C122.387 58.4569 121.433 58.2089 120.772 57.7129C120.11 57.217 119.78 56.3152 119.78 55.0076ZM130.839 45.9448C130.042 45.9448 129.471 45.7419 129.126 45.3361C128.795 44.9303 128.63 44.4268 128.63 43.8256C128.63 43.2244 128.81 42.7285 129.171 42.3377C129.546 41.9469 130.11 41.7516 130.861 41.7516C131.613 41.7516 132.184 41.9319 132.575 42.2926C132.966 42.6383 133.161 43.1418 133.161 43.8031C133.161 44.4494 132.973 44.9679 132.597 45.3586C132.222 45.7494 131.635 45.9448 130.839 45.9448ZM127.435 47.5004H132.958V57.8256H134.221V58.2314H127.525V57.8256H128.765V47.9062H127.435V47.5004ZM141.962 53.7902V51.8739C141.962 50.4161 141.879 49.3565 141.714 48.6952C141.564 48.0189 141.203 47.6807 140.632 47.6807C140.301 47.6807 140.031 47.7784 139.82 47.9738C139.625 48.1541 139.482 48.4622 139.392 48.8981C139.257 49.5744 139.189 50.604 139.189 51.9867V53.7451C139.189 55.3833 139.234 56.3678 139.324 56.6984C139.429 57.0291 139.535 57.2996 139.64 57.51C139.805 57.8707 140.128 58.0511 140.609 58.0511C141.195 58.0511 141.579 57.7129 141.759 57.0366C141.894 56.5557 141.962 55.4735 141.962 53.7902ZM140.564 58.4569C138.685 58.4569 137.265 57.9759 136.303 57.0141C135.341 56.0522 134.86 54.677 134.86 52.8884C134.86 51.0849 135.371 49.7022 136.393 48.7403C137.43 47.7634 138.881 47.2749 140.744 47.2749C142.608 47.2749 143.998 47.7258 144.915 48.6276C145.832 49.5143 146.29 50.8745 146.29 52.7081C146.29 56.5406 144.382 58.4569 140.564 58.4569ZM146.966 47.5004H152.399V49.5744C152.64 48.8831 153.008 48.327 153.504 47.9062C154 47.4853 154.751 47.2749 155.758 47.2749C158.088 47.2749 159.253 48.5299 159.253 51.0398V57.8256H160.515V58.2314H154.135V57.8256H155.059V50.4987C155.059 49.597 154.999 49.0183 154.879 48.7628C154.759 48.4923 154.541 48.357 154.225 48.357C153.744 48.357 153.316 48.6727 152.94 49.3039C152.58 49.9351 152.399 50.7016 152.399 51.6034V57.8256H153.369V58.2314H146.966V57.8256H148.206V47.9062H146.966V47.5004Z" fill="#08003F"/>
<path fill-rule="evenodd" clip-rule="evenodd" d="M44.692 1.29792L49.5483 15.1801V33.0513C48.7318 34.5824 47.7949 36.7844 47.7949 39.6126C47.7949 41.6439 48.1494 43.6062 48.6419 45.1207H46.7443L36.3167 16.4451L27.1671 45.0917H21.044L3.30791 1.29792H0V0.09375H22.8739V1.29792H17.9472L29.4193 31.6557L35.261 13.403L31.0381 1.29792H27.0264V0.09375H48.8445V1.29792H44.692Z" fill="#08003F"/>
</svg>
