<svg width="609" height="552" viewBox="0 0 609 552" fill="none" xmlns="http://www.w3.org/2000/svg">
<g clip-path="url(#clip0_17_4038)">
<path fill-rule="evenodd" clip-rule="evenodd" d="M473.292 89.7382H135.818V59.5204C135.818 52.9655 141.137 47.6509 147.696 47.6509H461.414C467.974 47.6509 473.292 52.9655 473.292 59.5204V89.7382Z" fill="#08003F"/>
<path d="M461.414 379.503H147.696C141.791 379.503 137.005 374.72 137.005 368.82V87.3855H472.106V368.82C472.106 374.72 467.32 379.503 461.414 379.503Z" fill="#F1F1F1" stroke="#08003F" stroke-width="2.37259"/>
<path fill-rule="evenodd" clip-rule="evenodd" d="M163.244 67.2377C163.244 71.3515 159.906 74.6868 155.789 74.6868C151.672 74.6868 148.335 71.3515 148.335 67.2377C148.335 63.1239 151.672 59.7886 155.789 59.7886C159.906 59.7886 163.244 63.1239 163.244 67.2377Z" fill="#15E7BD"/>
<path fill-rule="evenodd" clip-rule="evenodd" d="M191.082 67.2377C191.082 71.3515 187.745 74.6868 183.628 74.6868C179.511 74.6868 176.174 71.3515 176.174 67.2377C176.174 63.1239 179.511 59.7886 183.628 59.7886C187.745 59.7886 191.082 63.1239 191.082 67.2377Z" fill="#15E7BD"/>
<path fill-rule="evenodd" clip-rule="evenodd" d="M218.92 67.2377C218.92 71.3515 215.583 74.6868 211.466 74.6868C207.349 74.6868 204.012 71.3515 204.012 67.2377C204.012 63.1239 207.349 59.7886 211.466 59.7886C215.583 59.7886 218.92 63.1239 218.92 67.2377Z" fill="#15E7BD"/>
<path fill-rule="evenodd" clip-rule="evenodd" d="M172.293 340.632C170.246 340.632 168.587 338.975 168.587 336.932V122.387C168.587 120.343 170.246 118.686 172.293 118.686H440.505C442.552 118.686 444.211 120.343 444.211 122.387V336.932C444.211 338.975 442.552 340.632 440.505 340.632H172.293Z" fill="white"/>
<path fill-rule="evenodd" clip-rule="evenodd" d="M352.533 243.236C336.437 243.236 323.359 230.112 323.359 213.882C323.303 197.755 336.34 184.638 352.478 184.582C352.496 184.582 352.514 184.582 352.533 184.582C368.619 184.582 381.698 197.705 381.698 213.927C381.67 230.112 368.619 243.227 352.533 243.236ZM425.119 203.673C424.553 200.474 421.489 197.202 418.288 196.499L415.901 195.951C410.106 194.195 405.199 190.295 402.183 185.048C399.136 179.747 398.233 173.482 399.659 167.537L400.409 165.289C401.369 162.173 400.125 157.868 397.628 155.739C397.628 155.739 395.388 153.838 389.096 150.182C382.776 146.545 380.069 145.53 380.069 145.53C376.997 144.397 372.698 145.485 370.448 147.879L368.793 149.662C364.42 153.843 358.594 156.165 352.542 156.141C346.456 156.158 340.601 153.816 336.208 149.607L334.617 147.87C332.403 145.476 328.078 144.416 324.996 145.53C324.996 145.53 322.252 146.545 315.942 150.182C309.623 153.865 307.4 155.766 307.4 155.766C304.912 157.877 303.669 162.136 304.629 165.289L305.315 167.565C306.726 173.501 305.823 179.752 302.791 185.048C299.779 190.338 294.832 194.256 288.99 195.978L286.695 196.499C283.549 197.23 280.449 200.456 279.863 203.673C279.863 203.673 279.342 206.561 279.342 213.891C279.342 221.22 279.863 224.099 279.863 224.099C280.431 227.334 283.494 230.569 286.695 231.273L288.936 231.794C294.788 233.521 299.745 237.451 302.754 242.761C305.9 248.272 306.66 254.541 305.278 260.271L304.629 262.492C303.669 265.608 304.912 269.913 307.409 272.042C307.409 272.042 309.65 273.943 315.942 277.599C322.261 281.255 324.977 282.251 324.977 282.251C328.041 283.384 332.349 282.296 334.599 279.902L336.171 278.202C345.317 269.456 359.73 269.465 368.866 278.22L370.44 279.929C372.652 282.314 376.979 283.384 380.06 282.269C380.06 282.269 382.804 281.255 389.124 277.617C395.434 273.961 397.647 272.061 397.647 272.061C400.143 269.959 401.388 265.663 400.427 262.51L399.742 260.207C398.325 254.291 399.228 248.059 402.265 242.788C405.292 237.496 410.24 233.569 416.084 231.821L418.334 231.3C421.48 230.569 424.58 227.343 425.165 224.126C425.165 224.126 425.687 221.238 425.687 213.918C425.632 206.579 425.119 203.673 425.119 203.673Z" fill="#08003F"/>
<path fill-rule="evenodd" clip-rule="evenodd" d="M251.652 280.327C244.487 284.399 235.34 281.864 231.229 274.638C227.119 267.473 229.6 258.336 236.771 254.229L236.795 254.215C243.956 250.146 253.103 252.68 257.212 259.902C261.3 267.114 258.812 276.254 251.652 280.327ZM273.946 244.353C272.883 243.072 270.691 242.39 269.087 242.887L267.885 243.247C264.861 243.931 261.689 243.436 259.017 241.863C256.317 240.274 254.328 237.713 253.457 234.706L253.222 233.515C252.86 231.885 251.215 230.284 249.565 229.967C249.565 229.967 248.086 229.688 244.359 229.652C240.624 229.631 239.162 229.864 239.162 229.864C237.507 230.137 235.868 231.708 235.474 233.344L235.188 234.556C234.3 237.523 232.295 240.031 229.595 241.551C226.89 243.098 223.69 243.536 220.668 242.774L219.52 242.403C217.927 241.897 215.734 242.52 214.644 243.795C214.644 243.795 213.679 244.941 211.792 248.157C209.911 251.395 209.403 252.803 209.403 252.803C208.831 254.372 209.356 256.583 210.582 257.744L211.463 258.583C213.596 260.869 214.777 263.88 214.769 267.005C214.768 270.122 213.558 273.117 211.393 275.362L210.503 276.175C209.288 277.296 208.725 279.516 209.279 281.096C209.279 281.096 209.779 282.514 211.636 285.777C213.493 289.04 214.454 290.19 214.454 290.19C215.526 291.486 217.709 292.152 219.312 291.655L220.442 291.321C223.485 290.609 226.687 291.104 229.371 292.707C232.168 294.365 234.094 296.964 234.931 299.864L235.204 301.017C235.566 302.647 237.21 304.249 238.861 304.566C238.861 304.566 240.34 304.845 244.068 304.881C247.807 304.91 249.268 304.666 249.268 304.666C250.92 304.396 252.561 302.822 252.957 301.187L253.226 300.032C255.082 293.825 261.501 290.183 267.786 291.77L268.919 292.133C270.509 292.635 272.705 292.016 273.795 290.74C273.795 290.74 274.759 289.595 276.651 286.377C278.534 283.153 279.038 281.747 279.038 281.747C279.617 280.18 279.083 277.953 277.857 276.793L276.968 275.941C274.839 273.666 273.663 270.662 273.679 267.547C273.686 264.426 274.894 261.426 277.053 259.17L277.923 258.369C279.138 257.247 279.701 255.027 279.147 253.446C279.147 253.446 278.648 252.029 276.793 248.77C274.91 245.517 273.946 244.353 273.946 244.353Z" fill="#15E7BD"/>
<path fill-rule="evenodd" clip-rule="evenodd" d="M239.616 156.71H198.596C195.916 156.71 193.724 154.519 193.724 151.842V151.433C193.724 148.755 195.916 146.564 198.596 146.564H239.616C242.295 146.564 244.488 148.755 244.488 151.433V151.842C244.488 154.519 242.295 156.71 239.616 156.71Z" fill="#08003F"/>
<path fill-rule="evenodd" clip-rule="evenodd" d="M228.141 180.449H202.759C199.956 180.449 197.683 178.178 197.683 175.376C197.683 172.575 199.956 170.303 202.759 170.303H228.141C230.945 170.303 233.218 172.575 233.218 175.376C233.218 178.178 230.945 180.449 228.141 180.449Z" fill="#08003F"/>
<path d="M585.067 -7.64551V64.3275" stroke="white" stroke-width="1.4055" stroke-linecap="round" stroke-linejoin="round"/>
<path d="M432.289 0.979431H598.428C601.732 0.979431 604.409 3.65576 604.409 6.95606V83.4294C604.409 86.7297 601.732 89.4061 598.428 89.4061H432.289C428.985 89.4061 426.308 86.7297 426.308 83.4294V6.95606C426.308 3.65576 428.985 0.979431 432.289 0.979431Z" fill="#15E7BD" stroke="#08003F" stroke-width="1.53015"/>
<path d="M575.932 22.6865H499.754C498.512 22.6865 497.505 23.6926 497.505 24.9338V29.4282C497.505 30.6693 498.512 31.6755 499.754 31.6755H575.932C577.174 31.6755 578.181 30.6693 578.181 29.4282V24.9338C578.181 23.6926 577.174 22.6865 575.932 22.6865Z" fill="#08003F"/>
<path d="M540.513 58.6421H499.754C498.512 58.6421 497.505 59.6482 497.505 60.8893V65.3838C497.505 66.6249 498.512 67.631 499.754 67.631H540.513C541.755 67.631 542.762 66.6249 542.762 65.3838V60.8893C542.762 59.6482 541.755 58.6421 540.513 58.6421Z" fill="#597EF7"/>
<path d="M575.932 40.6641H499.754C498.512 40.6641 497.505 41.6702 497.505 42.9113V47.4058C497.505 48.6469 498.512 49.653 499.754 49.653H575.932C577.174 49.653 578.181 48.6469 578.181 47.4058V42.9113C578.181 41.6702 577.174 40.6641 575.932 40.6641Z" fill="#08003F"/>
<path d="M468.27 22.6865H441.285C438.801 22.6865 436.787 24.6988 436.787 27.181V54.1478C436.787 56.63 438.801 58.6423 441.285 58.6423H468.27C470.754 58.6423 472.768 56.63 472.768 54.1478V27.181C472.768 24.6988 470.754 22.6865 468.27 22.6865Z" fill="#08003F"/>
<path d="M484.153 22.6865V81.2101" stroke="#08003F" stroke-width="1.53015" stroke-linecap="round" stroke-linejoin="round"/>
<path d="M403.055 55.8227H569.193C572.497 55.8227 575.175 58.499 575.175 61.7993V138.273C575.175 141.573 572.497 144.249 569.193 144.249H403.055C399.751 144.249 397.074 141.573 397.074 138.273V61.7993C397.074 58.499 399.751 55.8227 403.055 55.8227Z" fill="#15E7BD" stroke="#08003F" stroke-width="1.53015"/>
<path d="M546.697 77.5303H470.519C469.277 77.5303 468.271 78.5364 468.271 79.7775V84.272C468.271 85.5131 469.277 86.5192 470.519 86.5192H546.697C547.939 86.5192 548.946 85.5131 548.946 84.272V79.7775C548.946 78.5364 547.939 77.5303 546.697 77.5303Z" fill="#08003F"/>
<path d="M511.279 113.486H470.519C469.277 113.486 468.271 114.492 468.271 115.733V120.228C468.271 121.469 469.277 122.475 470.519 122.475H511.279C512.521 122.475 513.528 121.469 513.528 120.228V115.733C513.528 114.492 512.521 113.486 511.279 113.486Z" fill="#08003F"/>
<path d="M546.697 95.5081H470.519C469.277 95.5081 468.271 96.5142 468.271 97.7553V102.25C468.271 103.491 469.277 104.497 470.519 104.497H546.697C547.939 104.497 548.946 103.491 548.946 102.25V97.7553C548.946 96.5142 547.939 95.5081 546.697 95.5081Z" fill="#08003F"/>
<path d="M439.036 77.5303H412.05C409.566 77.5303 407.553 79.5425 407.553 82.0247V108.992C407.553 111.474 409.566 113.486 412.05 113.486H439.036C441.52 113.486 443.534 111.474 443.534 108.992V82.0247C443.534 79.5425 441.52 77.5303 439.036 77.5303Z" fill="#08003F"/>
<path d="M454.919 77.5303V136.054" stroke="#08003F" stroke-width="1.53015" stroke-linecap="round" stroke-linejoin="round"/>
</g>
<g clip-path="url(#clip1_17_4038)">
<path fill-rule="evenodd" clip-rule="evenodd" d="M458.853 255.086L460.616 255.323L462.518 241.228L460.755 240.991L458.853 255.086Z" fill="#15E7BD"/>
<path fill-rule="evenodd" clip-rule="evenodd" d="M454.462 234.316C458.259 239.293 465.375 240.252 470.355 236.457C475.336 232.663 476.295 225.552 472.498 220.575C468.701 215.598 461.586 214.64 456.605 218.434C451.624 222.228 450.665 229.339 454.462 234.316ZM475.504 218.285C480.567 224.921 479.288 234.402 472.647 239.461C466.006 244.52 456.519 243.242 451.456 236.606C446.393 229.97 447.673 220.489 454.313 215.43C460.954 210.371 470.442 211.649 475.504 218.285Z" fill="#15E7BD"/>
<path fill-rule="evenodd" clip-rule="evenodd" d="M468.34 233.816C471.861 231.134 472.539 226.107 469.855 222.589C467.171 219.07 462.14 218.392 458.62 221.075C455.099 223.757 454.42 228.784 457.105 232.302C459.789 235.82 464.819 236.498 468.34 233.816Z" fill="#15E7BD"/>
<path fill-rule="evenodd" clip-rule="evenodd" d="M459.943 230.14C461.432 232.091 464.222 232.467 466.175 230.979C468.129 229.491 468.505 226.703 467.016 224.751C465.527 222.799 462.736 222.423 460.783 223.911C458.83 225.399 458.454 228.188 459.943 230.14Z" fill="white"/>
<path fill-rule="evenodd" clip-rule="evenodd" d="M457.931 261.913L459.694 262.15C460.181 262.216 460.629 261.875 460.694 261.388L462.364 249.012C462.43 248.526 462.089 248.078 461.602 248.012C461.602 248.012 461.602 248.012 461.602 248.013L459.839 247.775C459.352 247.709 458.904 248.051 458.839 248.537L457.169 260.913C457.103 261.4 457.445 261.847 457.931 261.913C457.931 261.913 457.931 261.913 457.931 261.913Z" fill="#08003F"/>
</g>
<ellipse cx="504.95" cy="476.692" rx="81.098" ry="21.025" fill="#F1F1F1"/>
<path d="M476.568 302.786C479.617 302.305 482.977 299.69 485.797 294.353L492.837 277.177L479.791 269.468C479.774 269.497 479.755 269.531 479.734 269.568C479.635 269.743 479.49 270.002 479.306 270.333C478.938 270.995 478.415 271.947 477.796 273.107C476.558 275.426 474.937 278.572 473.404 281.885C471.87 285.199 470.426 288.673 469.54 291.648C469.097 293.136 468.795 294.493 468.69 295.64C468.585 296.791 468.68 297.703 469.003 298.322C470.738 301.638 473.534 303.265 476.568 302.786Z" fill="#F1F1F1" stroke="#08003F" stroke-width="0.382538"/>
<path d="M528.714 458.665C528.775 458.633 528.864 458.587 528.978 458.53C529.211 458.414 529.548 458.252 529.961 458.069C530.787 457.704 531.913 457.258 533.118 456.934C534.326 456.609 535.599 456.409 536.723 456.526C537.838 456.642 538.79 457.066 539.402 457.97L539.423 458.019C539.441 458.061 539.469 458.124 539.505 458.204C539.577 458.366 539.685 458.6 539.825 458.892C540.105 459.476 540.517 460.292 541.042 461.222C542.092 463.078 543.601 465.397 545.432 467.22C547.807 469.585 550.003 470.992 551.82 472.112C551.944 472.188 552.066 472.263 552.186 472.337C553.836 473.351 555.111 474.134 555.916 475.241L555.916 475.241C556.609 476.194 556.894 477.09 557.006 477.746C557.063 478.074 557.076 478.342 557.075 478.526C557.075 478.618 557.071 478.689 557.068 478.736C557.067 478.74 557.067 478.744 557.067 478.748C557.065 478.75 557.063 478.752 557.061 478.754C557.03 478.787 556.982 478.836 556.919 478.898C556.791 479.023 556.598 479.198 556.341 479.398C555.827 479.798 555.056 480.298 554.034 480.689C551.994 481.471 548.936 481.833 544.885 480.095C542.737 479.174 541.52 478.121 540.407 477.157C540.265 477.034 540.124 476.913 539.984 476.793C538.733 475.728 537.488 474.826 535.083 474.466M528.714 458.665L528.661 471.17C528.661 471.167 528.661 471.163 528.661 471.159M528.714 458.665L528.708 458.906C528.703 459.135 528.696 459.466 528.688 459.878C528.672 460.703 528.652 461.85 528.636 463.141C528.605 465.719 528.592 468.866 528.661 471.159M528.714 458.665L528.661 471.159M535.083 474.466L535.056 474.65L535.083 474.466C535.083 474.466 535.083 474.466 535.083 474.466ZM535.083 474.466C531.957 473.996 530.349 473.136 529.527 472.417C529.116 472.057 528.899 471.731 528.785 471.502C528.727 471.387 528.696 471.295 528.679 471.235C528.67 471.205 528.665 471.182 528.663 471.168C528.662 471.165 528.661 471.162 528.661 471.159" fill="#08003F" stroke="#15E7BD" stroke-width="0.382538"/>
<path d="M496.063 456.094L495.874 456.098L495.874 456.089C495.9 454.932 495.432 454.04 494.671 453.446C493.905 452.849 492.83 452.545 491.637 452.598C489.254 452.706 486.436 454.245 484.83 457.64C484.381 458.59 484.119 459.399 483.868 460.171C483.825 460.303 483.783 460.435 483.74 460.565C483.446 461.458 483.129 462.316 482.509 463.278C481.274 465.195 478.85 467.496 473.057 471.352C471.647 472.291 470.407 473.137 469.612 474.182C468.84 475.198 468.484 476.408 468.851 478.101C472.162 480.673 475.665 480.749 478.802 479.806C481.963 478.856 484.742 476.872 486.542 475.369C488.322 473.882 489.814 473.454 491.168 473.065C491.214 473.052 491.26 473.039 491.305 473.026C492.673 472.633 493.899 472.246 495.216 470.793C495.441 470.041 495.598 468.771 495.705 467.265C495.813 465.739 495.868 463.989 495.893 462.334C495.918 460.679 495.913 459.12 495.902 457.974C495.897 457.402 495.89 456.932 495.884 456.606C495.881 456.443 495.879 456.316 495.877 456.23L495.875 456.132L495.874 456.107L495.874 456.1L495.874 456.099L495.874 456.098C495.874 456.098 495.874 456.098 496.063 456.094Z" fill="#08003F" stroke="#15E7BD" stroke-width="0.382538"/>
<path fill-rule="evenodd" clip-rule="evenodd" d="M527.758 301.137C527.758 301.137 531.686 282.136 533.414 275.117C535.143 268.099 537.81 251.287 534.911 250.009C532.014 248.73 525.073 246.009 525.073 246.009C525.073 246.009 519.534 245.774 513.291 247.061C508.348 248.079 508.406 245.173 502.415 246.123C499.879 246.525 489.938 249.562 488.004 251.063C486.07 252.564 489.303 301.905 489.303 301.905C489.303 301.905 486.92 304.322 489.769 307.494C491.182 308.98 497.345 308.519 505.228 308.59C514.202 308.67 524.749 309.864 526.719 308.172C530.418 304.993 527.758 301.137 527.758 301.137Z" fill="#08003F"/>
<path fill-rule="evenodd" clip-rule="evenodd" d="M505.292 242.721L510.986 247.623L504.501 254.225L501.321 246.27L505.292 242.721Z" fill="#08003F"/>
<path d="M551.686 273.483C551.561 273.27 551.462 273.105 551.393 272.992C551.329 273.038 551.247 273.096 551.15 273.166C550.888 273.354 550.511 273.628 550.053 273.969C549.136 274.652 547.897 275.606 546.602 276.689C545.307 277.772 543.959 278.983 542.826 280.18C541.714 281.354 540.822 282.502 540.381 283.495L541.919 288.111L541.951 288.208L541.888 288.289L528.979 304.815L529.785 313.026C529.786 313.025 529.787 313.024 529.789 313.024C529.956 312.933 530.203 312.8 530.519 312.628C531.15 312.283 532.057 311.783 533.16 311.161C535.366 309.916 538.354 308.184 541.483 306.233C544.613 304.281 547.88 302.113 550.646 299.995C553.418 297.874 555.667 295.818 556.779 294.094C557.746 292.594 557.911 290.529 557.587 288.24C557.264 285.956 556.459 283.483 555.524 281.194C554.59 278.907 553.531 276.813 552.705 275.29C552.291 274.528 551.937 273.91 551.686 273.483Z" fill="#F1F1F1" stroke="#08003F" stroke-width="0.382538"/>
<path fill-rule="evenodd" clip-rule="evenodd" d="M487.864 290.114C487.864 290.114 497.365 273.857 498.101 264.391C498.825 255.107 490.652 248.149 486.423 252.192C480.26 258.084 473.664 277.853 473.664 277.853C473.664 277.853 480.587 286.735 487.864 290.114Z" fill="#08003F"/>
<path d="M476.414 279.567C476.315 279.42 476.116 279.382 475.969 279.481C475.822 279.58 475.784 279.779 475.883 279.926C476.847 281.35 477.918 282.67 479.077 283.888C480.918 285.823 482.89 287.414 484.863 288.684C485.554 289.13 486.196 289.503 486.774 289.808C486.896 289.872 487.009 289.93 487.114 289.983L487.413 290.128C487.456 290.148 487.489 290.163 487.51 290.172C487.672 290.244 487.861 290.17 487.933 290.008C488.004 289.846 487.931 289.657 487.769 289.586L487.641 289.527L487.591 289.503C487.472 289.446 487.337 289.379 487.188 289.301L487.073 289.241C486.512 288.945 485.885 288.581 485.21 288.146C483.278 286.902 481.345 285.343 479.541 283.447C478.406 282.253 477.358 280.961 476.414 279.567Z" fill="#15E7BD"/>
<path fill-rule="evenodd" clip-rule="evenodd" d="M555.524 280.38C555.524 280.38 544.514 256.829 538.585 252.22C532.654 247.611 530.009 250.034 527.613 253.317C526.104 255.383 522.633 261.248 530.288 273.619C536.053 282.934 538.469 286.387 539.156 287.941C548.822 287.294 555.524 280.38 555.524 280.38Z" fill="#08003F"/>
<path d="M505.513 242.792L510.906 248.265L521.697 243.341L521.101 224.684L506.493 223.851L505.513 242.792Z" fill="#F1F1F1" stroke="#08003F" stroke-width="0.382538"/>
<path d="M499.335 221.236C499.539 220.893 499.801 220.776 500.085 220.773C500.386 220.769 500.728 220.895 501.065 221.083C501.397 221.27 501.705 221.506 501.93 221.697C502.043 221.793 502.134 221.876 502.197 221.935C502.228 221.965 502.252 221.989 502.269 222.005L502.27 222.006L502.292 222.052C502.315 222.102 502.348 222.174 502.39 222.267C502.473 222.452 502.588 222.716 502.716 223.033C502.972 223.668 503.278 224.508 503.48 225.34C503.685 226.18 503.776 226.98 503.632 227.548C503.561 227.827 503.437 228.036 503.255 228.173C503.073 228.309 502.81 228.391 502.427 228.37L499.335 221.236ZM499.335 221.236C499.128 221.582 499.052 222.186 499.117 222.937C499.18 223.678 499.379 224.526 499.684 225.331C499.989 226.137 500.396 226.889 500.873 227.445C501.352 228.003 501.88 228.341 502.427 228.37L499.335 221.236Z" fill="#F1F1F1" stroke="#08003F" stroke-width="0.382538"/>
<path d="M516.828 236.267L516.828 236.267L516.845 236.253L516.866 236.243L516.866 236.243L516.866 236.243L516.866 236.243L516.868 236.242L516.88 236.236C516.891 236.23 516.908 236.221 516.931 236.208C516.976 236.183 517.044 236.143 517.131 236.087C517.305 235.975 517.556 235.799 517.859 235.543C518.463 235.032 519.273 234.204 520.08 232.94C521.694 230.414 523.304 226.139 523.23 219.165L523.421 219.163L523.23 219.165C523.197 216.05 522.472 213.735 521.352 212.032C520.232 210.329 518.708 209.225 517.056 208.543C513.742 207.177 509.921 207.518 507.869 208.151C505.81 208.787 504.315 209.67 503.275 210.906C502.235 212.142 501.633 213.749 501.394 215.863C500.967 219.63 500.91 224.074 501.538 227.922C501.852 229.846 502.336 231.614 503.027 233.071C503.717 234.53 504.608 235.666 505.73 236.345C508.917 238.274 511.693 238.247 513.67 237.745C514.661 237.494 515.453 237.122 515.997 236.814C516.269 236.66 516.478 236.522 516.619 236.423C516.689 236.374 516.742 236.334 516.778 236.307C516.795 236.294 516.808 236.283 516.817 236.277L516.826 236.269L516.828 236.268L516.828 236.267Z" fill="#F1F1F1" stroke="black" stroke-width="0.382538"/>
<path d="M508.451 217.793C508.342 217.822 508.271 217.924 508.279 218.032L508.286 218.073L508.96 220.679L507.579 227.806C507.554 227.934 507.641 228.054 507.765 228.075L507.803 228.079L510.819 228.09C510.946 228.09 511.049 227.988 511.05 227.861C511.05 227.747 510.967 227.652 510.858 227.634L510.821 227.631L508.082 227.621L509.42 220.715C509.424 220.693 509.425 220.67 509.423 220.648L509.417 220.614L508.73 217.958C508.702 217.849 508.6 217.779 508.492 217.787L508.451 217.793Z" fill="#08003F"/>
<path d="M511.365 217.083C511.33 217.419 511.574 217.719 511.91 217.754L514.182 218.002L514.752 218.059C516.392 218.217 517.426 218.25 518.064 218.12C518.396 218.053 518.61 217.73 518.542 217.399C518.475 217.068 518.152 216.855 517.821 216.922C517.286 217.03 516.135 216.976 514.309 216.786L512.037 216.538C511.701 216.503 511.4 216.747 511.365 217.083Z" fill="#08003F"/>
<path d="M513.318 229.838C513.273 229.666 513.098 229.564 512.927 229.609L512.83 229.632L512.724 229.655C512.549 229.691 512.344 229.727 512.11 229.761C510.882 229.938 509.422 229.982 507.788 229.808C507.612 229.789 507.454 229.917 507.435 230.093C507.416 230.269 507.544 230.426 507.72 230.445C509.41 230.624 510.923 230.579 512.201 230.395C512.399 230.366 512.578 230.336 512.738 230.305L512.853 230.282C512.967 230.259 513.047 230.24 513.09 230.229C513.261 230.184 513.364 230.009 513.318 229.838Z" fill="#08003F"/>
<path fill-rule="evenodd" clip-rule="evenodd" d="M522.018 224.563L524.443 219.703C524.443 219.703 525.956 212.706 524.319 209.711C521.779 205.063 516.031 205.222 512.612 203.999C509.192 202.775 509.217 201.627 507.834 201.826C506.451 202.026 501.114 205.793 500.536 209.703C500.028 213.139 500.956 221.882 500.956 221.882C500.956 221.882 501.875 214.129 502.61 212.079C505.307 210.934 515.132 210.819 519.241 212.057C519.241 212.057 519.613 214.692 519.829 216.549C522.034 218.105 522.018 224.563 522.018 224.563Z" fill="#08003F"/>
<path d="M505.536 236.073C505.45 235.98 505.305 235.974 505.212 236.06C505.118 236.146 505.113 236.291 505.199 236.384C505.26 236.451 505.376 236.56 505.549 236.699C505.832 236.926 506.172 237.153 506.57 237.363C508.866 238.58 511.912 238.766 515.713 237.281C515.831 237.235 515.89 237.102 515.844 236.984C515.797 236.866 515.664 236.807 515.546 236.854C511.87 238.29 508.964 238.112 506.785 236.958C506.414 236.761 506.097 236.551 505.836 236.341L505.731 236.254C505.636 236.173 505.571 236.111 505.536 236.073Z" fill="#08003F"/>
<path d="M508.679 220.235C508.426 220.226 508.213 220.424 508.204 220.677C508.196 220.913 508.368 221.114 508.597 221.147L508.647 221.151L510.866 221.229C511.119 221.238 511.332 221.04 511.341 220.787C511.349 220.55 511.177 220.35 510.948 220.317L510.898 220.312L508.679 220.235Z" fill="#08003F"/>
<path d="M510.68 221.714C510.232 221.521 509.773 221.418 509.323 221.459C508.897 221.498 508.511 221.668 508.196 221.984C508.017 222.163 508.017 222.453 508.197 222.632C508.363 222.799 508.626 222.81 508.806 222.667L508.846 222.632C509.003 222.474 509.187 222.393 509.407 222.373C509.681 222.348 509.997 222.419 510.317 222.556C510.438 222.608 510.538 222.66 510.609 222.701L510.68 222.744C510.891 222.883 511.176 222.825 511.316 222.614C511.455 222.402 511.397 222.118 511.185 221.978C511.079 221.908 510.905 221.81 510.68 221.714Z" fill="#15E7BD"/>
<path d="M507.107 216.504C506.073 216.121 505.024 215.915 504.022 215.983C503.239 216.037 502.522 216.26 501.897 216.676C501.616 216.864 501.54 217.243 501.727 217.524C501.915 217.805 502.295 217.881 502.576 217.694C503.014 217.402 503.526 217.243 504.105 217.204C504.909 217.149 505.796 217.323 506.682 217.651C506.901 217.732 507.107 217.818 507.295 217.904L507.433 217.969C507.565 218.033 507.656 218.081 507.7 218.105C507.994 218.272 508.367 218.169 508.534 217.875C508.7 217.581 508.597 217.208 508.303 217.041C508.057 216.902 507.643 216.703 507.107 216.504Z" fill="#08003F"/>
<path d="M509.09 232.079C508.963 232.077 508.858 232.177 508.856 232.304C508.853 232.418 508.934 232.514 509.043 232.534L509.08 232.538L510.889 232.578C511.015 232.58 511.12 232.48 511.123 232.353C511.125 232.239 511.044 232.143 510.936 232.123L510.899 232.119L509.09 232.079Z" fill="#08003F"/>
<path d="M519.113 220.476C518.859 220.472 518.65 220.674 518.646 220.927C518.642 221.164 518.818 221.361 519.048 221.39L519.098 221.393L522.738 221.454C522.991 221.458 523.2 221.256 523.204 221.003C523.208 220.766 523.032 220.569 522.803 220.54L522.753 220.536L519.113 220.476Z" fill="#15E7BD"/>
<path fill-rule="evenodd" clip-rule="evenodd" d="M518.849 220.21L511.9 220.057C511.415 220.046 511.013 220.429 511.006 220.914C510.992 221.818 511.011 223.27 511.219 224.517C511.464 225.987 512.762 226.912 514.25 227.014C516.11 227.142 517.78 227.18 518.646 226.234C519.965 224.791 519.703 222.364 519.704 221.081C519.704 220.611 519.32 220.221 518.849 220.21Z" fill="#F1F1F1"/>
<path d="M511.836 219.905L511.904 219.904L518.852 220.058C519.407 220.07 519.858 220.528 519.858 221.081L519.861 221.368L519.875 222.033C519.886 222.793 519.869 223.279 519.796 223.831C519.659 224.868 519.336 225.706 518.759 226.337C517.973 227.196 516.785 227.341 514.24 227.167C512.616 227.055 511.316 226.028 511.069 224.542C510.892 223.482 510.834 222.22 510.854 220.912C510.861 220.365 511.296 219.927 511.836 219.905ZM518.846 220.363L511.897 220.209C511.496 220.2 511.165 220.517 511.159 220.916C511.14 222.207 511.197 223.454 511.371 224.491C511.593 225.829 512.77 226.76 514.261 226.862L514.754 226.892C516.863 227.007 517.886 226.838 518.534 226.131C519.063 225.552 519.363 224.771 519.493 223.791C519.564 223.257 519.58 222.782 519.569 222.035L519.552 221.18C519.552 221.148 519.552 221.116 519.552 221.081C519.552 220.694 519.234 220.372 518.846 220.363Z" fill="#15E7BD"/>
<path fill-rule="evenodd" clip-rule="evenodd" d="M508.013 219.894L500.146 219.72C499.83 220.862 500.012 225.311 501.341 226.293C503.129 227.279 506.791 226.95 507.38 225.998C508.273 224.554 508.654 221.77 508.666 220.568C508.669 220.202 508.379 219.902 508.013 219.894Z" fill="#F1F1F1"/>
<path d="M500.15 219.567L508.017 219.741C508.467 219.751 508.823 220.12 508.819 220.57C508.803 222.272 508.284 224.827 507.51 226.078C506.84 227.162 503.042 227.406 501.268 226.427C500.064 225.539 499.539 221.34 499.999 219.679C500.018 219.612 500.08 219.566 500.15 219.567ZM500.266 219.875L500.249 219.951C499.904 221.622 500.414 225.417 501.433 226.17C503.064 227.069 506.682 226.836 507.25 225.918C507.989 224.723 508.498 222.218 508.514 220.567C508.516 220.284 508.292 220.053 508.01 220.047L500.266 219.875Z" fill="#15E7BD"/>
<path d="M519.6 219.816L510.982 219.851C510.729 219.852 510.524 220.059 510.525 220.312C510.526 220.548 510.706 220.742 510.936 220.766L510.986 220.769L519.603 220.734C519.857 220.732 520.062 220.526 520.061 220.273C520.06 220.037 519.88 219.843 519.65 219.819L519.6 219.816Z" fill="#15E7BD"/>
<path d="M500.095 219.434C499.842 219.425 499.629 219.622 499.62 219.875C499.611 220.112 499.783 220.313 500.012 220.346L500.062 220.35L508.5 220.655C508.753 220.664 508.966 220.467 508.975 220.214C508.984 219.977 508.812 219.776 508.583 219.743L508.533 219.739L500.095 219.434Z" fill="#15E7BD"/>
<path fill-rule="evenodd" clip-rule="evenodd" d="M513.536 221.817C513.516 222.31 513.805 222.721 514.18 222.736C514.555 222.75 514.875 222.363 514.895 221.871C514.914 221.379 514.626 220.968 514.25 220.953C513.875 220.938 513.555 221.325 513.536 221.817Z" fill="#253368"/>
<path fill-rule="evenodd" clip-rule="evenodd" d="M503.591 221.817C503.571 222.31 503.86 222.721 504.235 222.736C504.61 222.75 504.93 222.363 504.949 221.871C504.968 221.379 504.68 220.968 504.305 220.953C503.93 220.938 503.61 221.325 503.591 221.817Z" fill="#08003F"/>
<path d="M523.237 220.772L523.237 220.772C522.928 221.101 522.621 221.746 522.364 222.562C522.109 223.37 521.911 224.317 521.804 225.227C521.697 226.138 521.684 226.999 521.793 227.636C521.847 227.956 521.93 228.206 522.036 228.376C522.136 228.535 522.246 228.613 522.367 228.633C524.365 228.462 525.706 226.878 526.356 225.083C526.681 224.185 526.826 223.25 526.795 222.442C526.763 221.626 526.552 220.972 526.199 220.603C525.742 220.127 525.208 219.959 524.69 220.009C524.167 220.06 523.647 220.335 523.237 220.772Z" fill="#F1F1F1" stroke="#08003F" stroke-width="0.382538"/>
<path d="M472.09 301.807L472.116 301.813L472.14 301.825C475.675 303.684 478.746 302.302 480.965 300.415C482.074 299.472 482.96 298.409 483.57 297.58C483.875 297.166 484.11 296.812 484.269 296.561C484.348 296.436 484.408 296.337 484.448 296.269C484.451 296.264 484.454 296.26 484.456 296.256L467.109 263.152C467.057 263.156 466.987 263.161 466.904 263.167C466.694 263.184 466.395 263.21 466.037 263.25C465.32 263.329 464.369 263.461 463.43 263.672C462.488 263.884 461.574 264.172 460.919 264.558C460.259 264.947 459.923 265.395 459.99 265.92C460.218 267.705 461.795 276.402 464.057 284.805C465.187 289.006 466.487 293.126 467.873 296.27C468.565 297.842 469.276 299.162 469.993 300.125C470.715 301.094 471.419 301.668 472.09 301.807Z" fill="#F1F1F1" stroke="#08003F" stroke-width="0.382538"/>
<path fill-rule="evenodd" clip-rule="evenodd" d="M526.455 460.396L508.784 340.645L507.64 340.39L498.25 459.769C498.25 459.769 488.334 462.636 483.124 459.465C483.072 436.167 484.39 360.575 486.938 326.031C487.348 320.469 489.108 312.917 489.465 310.817C505.373 308.237 527.024 312.033 527.024 312.033L541.678 458.673C541.678 458.673 533.793 462.8 526.455 460.396Z" fill="#15E7BD"/>
<path d="M499.569 335.706C499.455 335.65 499.317 335.696 499.261 335.809C499.211 335.91 499.242 336.03 499.329 336.095L499.364 336.117L508.912 340.856C509.025 340.912 509.163 340.866 509.219 340.753C509.269 340.652 509.238 340.532 509.151 340.467L509.116 340.445L499.569 335.706Z" fill="#08003F"/>
<path fill-rule="evenodd" clip-rule="evenodd" d="M526.816 308.123C526.816 308.123 506.602 305.003 489.762 307.838C489.614 309.328 489.458 311.161 489.458 311.161C489.458 311.161 503.089 307.909 526.882 312.579C526.843 308.535 526.816 308.123 526.816 308.123Z" fill="#15E7BD"/>
<path d="M519.889 312.322C512.597 311.695 505.144 311.43 498.185 311.734C495.233 311.863 492.446 312.095 489.852 312.436C489.726 312.453 489.638 312.568 489.654 312.694C489.671 312.819 489.786 312.908 489.912 312.891C492.492 312.551 495.265 312.321 498.205 312.192C505.141 311.889 512.576 312.153 519.849 312.779C521.378 312.911 522.797 313.051 524.086 313.191L524.776 313.268C525.07 313.302 525.343 313.333 525.596 313.364L526.605 313.49C526.731 313.507 526.846 313.419 526.863 313.294C526.88 313.168 526.792 313.052 526.666 313.035L526.017 312.953L525.255 312.862L524.828 312.812C523.358 312.645 521.699 312.478 519.889 312.322Z" fill="#08003F"/>
<path d="M520.011 307.182C512.716 306.554 505.26 306.289 498.298 306.593C495.342 306.723 492.553 306.954 489.956 307.296C489.78 307.319 489.657 307.48 489.68 307.656C489.703 307.831 489.864 307.954 490.039 307.931C492.617 307.592 495.388 307.362 498.326 307.233C505 306.941 512.136 307.176 519.147 307.752L519.956 307.821C521.622 307.964 523.159 308.117 524.539 308.271L525.306 308.358L526.333 308.482L526.708 308.531C526.883 308.554 527.045 308.432 527.068 308.256C527.092 308.081 526.969 307.92 526.794 307.896L526.314 307.834C526.035 307.799 525.724 307.762 525.38 307.722L524.953 307.673C523.482 307.505 521.822 307.338 520.011 307.182Z" fill="#08003F"/>
<path d="M506.539 307.528C506.425 307.528 506.33 307.611 506.312 307.72L506.309 307.757L506.315 309.424C506.321 310.691 506.333 312.096 506.351 313.605C506.403 317.891 506.498 322.172 506.644 326.168L506.69 327.344C506.875 331.989 507.126 335.885 507.449 338.809C507.463 338.935 507.576 339.026 507.702 339.012C507.828 338.998 507.919 338.884 507.905 338.759L507.828 338.03C507.517 334.955 507.278 330.92 507.103 326.151C506.967 322.444 506.876 318.492 506.822 314.517L506.797 312.39C506.788 311.599 506.782 310.843 506.778 310.125L506.768 307.76C506.768 307.631 506.666 307.528 506.539 307.528Z" fill="#08003F"/>
<path fill-rule="evenodd" clip-rule="evenodd" d="M502.6 309.161C502.587 309.731 502.937 310.202 503.381 310.212C503.825 310.222 504.195 309.768 504.209 309.198C504.221 308.627 503.871 308.157 503.428 308.146C502.984 308.136 502.614 308.591 502.6 309.161Z" fill="#08003F"/>
<path d="M474.137 275.852C474.075 275.741 473.935 275.702 473.824 275.764C473.726 275.82 473.684 275.936 473.72 276.039L473.737 276.077L480.532 288.114C480.594 288.224 480.734 288.263 480.844 288.201C480.942 288.146 480.984 288.029 480.948 287.926L480.931 287.888L474.137 275.852Z" fill="#08003F"/>
<path fill-rule="evenodd" clip-rule="evenodd" d="M510.924 248.381L516.445 255.739L524.828 246.023L521.807 242.197L510.924 248.381Z" fill="#08003F"/>
<path d="M510.673 248.776C510.514 248.717 510.338 248.797 510.278 248.955L510.215 249.139L510.153 249.336C510.119 249.443 510.084 249.563 510.045 249.696L509.926 250.127C509.777 250.682 509.617 251.347 509.447 252.129C508.83 254.964 508.215 258.751 507.64 263.618C507.063 268.507 506.56 274.236 506.151 280.87L506.09 281.887C505.537 291.499 505.619 299.754 506.045 305.994C506.056 306.163 506.202 306.29 506.371 306.279C506.539 306.267 506.667 306.121 506.655 305.953L506.612 305.291C506.212 298.935 506.165 290.588 506.762 280.908L506.835 279.748C507.217 273.806 507.677 268.615 508.198 264.123L508.337 262.953C508.868 258.579 509.433 255.121 509.998 252.477L510.045 252.259C510.259 251.276 510.457 250.484 510.634 249.865L510.704 249.624C510.727 249.55 510.748 249.482 510.768 249.419L510.825 249.244C510.838 249.208 510.846 249.184 510.851 249.17C510.911 249.012 510.831 248.835 510.673 248.776Z" fill="#15E7BD"/>
<path d="M487.742 252.533C487.565 252.526 487.416 252.663 487.408 252.84L487.396 253.25C487.355 254.965 487.4 256.929 487.597 258.797C487.72 259.961 487.896 260.997 488.133 261.873L488.184 262.059L488.166 262.092L488.146 262.135C488.095 262.251 488.047 262.42 488 262.647C487.908 263.088 487.818 263.755 487.737 264.6L487.7 265.008C487.536 266.888 487.426 269.395 487.397 272.282C487.317 280.159 487.818 289.667 489.018 300.025L489.08 300.551L488.998 300.762L488.971 300.832C488.867 301.113 488.762 301.423 488.664 301.755C488.43 302.553 488.273 303.344 488.228 304.09C488.154 305.333 488.399 306.348 489.059 307.038C489.181 307.165 489.384 307.17 489.512 307.048C489.64 306.925 489.645 306.723 489.522 306.595C489.008 306.057 488.803 305.21 488.868 304.128C488.909 303.437 489.058 302.69 489.279 301.936C489.354 301.683 489.433 301.442 489.512 301.219L489.572 301.055C489.632 300.896 489.677 300.782 489.702 300.724C489.725 300.672 489.733 300.615 489.726 300.56C488.502 290.196 487.977 280.666 488.034 272.752L488.038 272.289C488.067 269.417 488.176 266.927 488.338 265.065L488.375 264.662C488.454 263.837 488.542 263.192 488.628 262.777C488.65 262.671 488.671 262.582 488.691 262.514L488.711 262.45C488.822 262.385 488.895 262.26 488.868 262.117L488.858 262.078C488.578 261.169 488.373 260.036 488.235 258.729C488.055 257.025 488.004 255.231 488.029 253.631L488.046 252.943C488.047 252.912 488.048 252.887 488.049 252.867C488.056 252.69 487.919 252.54 487.742 252.533Z" fill="#15E7BD"/>
<path d="M503.389 258.226L503.455 258.226C503.641 258.225 503.789 258.383 503.776 258.569L502.961 269.976C502.953 270.084 502.891 270.181 502.796 270.234L496.587 273.652C496.48 273.711 496.349 273.704 496.249 273.635L491.492 270.344C491.414 270.29 491.364 270.205 491.355 270.11L491.325 269.72L491.3 269.329C491.289 269.143 491.278 268.94 491.267 268.72L491.24 268.096C491.156 266.002 491.135 263.357 491.207 260.143C491.21 260.02 491.284 259.909 491.396 259.858C492.929 259.168 495.376 258.72 498.406 258.46C499.497 258.366 500.599 258.303 501.671 258.265L502.336 258.244C502.751 258.233 503.106 258.228 503.389 258.226ZM502.334 269.756L503.112 258.869L502.595 258.878C502.323 258.885 502.021 258.893 501.694 258.905C500.632 258.943 499.54 259.005 498.461 259.098L498.193 259.122L497.668 259.172C495.245 259.417 493.258 259.795 491.933 260.326L491.844 260.363L491.834 260.859C491.777 263.86 491.806 266.335 491.89 268.299L491.916 268.849C491.923 269.005 491.932 269.152 491.94 269.29L491.982 269.903L496.451 272.995L502.334 269.756Z" fill="#15E7BD"/>
<path d="M523.88 307.11L523.88 307.11L523.88 307.11L523.88 307.111L523.88 307.111L523.976 307.236L523.871 307.354L523.871 307.354L523.871 307.354L523.87 307.354L523.87 307.354L523.868 307.357L523.858 307.369C523.848 307.381 523.833 307.399 523.815 307.423C523.779 307.47 523.727 307.541 523.671 307.633C523.558 307.816 523.427 308.077 523.35 308.39C523.198 309.004 523.249 309.84 524.126 310.714L524.202 310.789L524.177 310.893C523.998 311.659 524.142 312.242 524.47 312.676C524.803 313.116 525.341 313.423 525.986 313.592C527.282 313.933 528.923 313.694 529.921 312.98C530.421 312.622 530.701 312.247 530.848 311.893C530.995 311.538 531.013 311.191 530.97 310.884C530.927 310.575 530.823 310.307 530.729 310.116C530.682 310.02 530.638 309.945 530.606 309.894C530.59 309.869 530.577 309.849 530.569 309.837L530.559 309.823L530.557 309.821L530.557 309.82L530.557 309.82L530.557 309.82L530.557 309.82L530.45 309.676L530.588 309.561L530.588 309.561L530.588 309.56L530.588 309.56L530.588 309.56L530.589 309.559L530.598 309.552C530.605 309.545 530.618 309.533 530.634 309.517C530.666 309.484 530.712 309.434 530.766 309.366C530.875 309.228 531.012 309.019 531.124 308.735C531.347 308.17 531.475 307.295 531.044 306.079L531.014 305.994L531.06 305.917C531.784 304.703 531.615 303.758 531.282 303.116C531.112 302.79 530.898 302.537 530.724 302.365C530.638 302.279 530.563 302.215 530.51 302.172C530.483 302.15 530.462 302.135 530.449 302.124L530.433 302.113L530.43 302.111L530.43 302.111L530.43 302.111L530.43 302.111L530.43 302.111L530.307 302.026L530.359 301.887L530.359 301.886L530.359 301.886L530.359 301.886L530.36 301.884L530.363 301.873L530.378 301.833C530.391 301.797 530.409 301.744 530.432 301.676C530.477 301.54 530.539 301.345 530.605 301.109C530.738 300.638 530.887 300.009 530.955 299.374C531.024 298.735 531.01 298.111 530.833 297.636C530.746 297.401 530.621 297.208 530.453 297.065C530.285 296.924 530.065 296.823 529.772 296.787L529.772 296.787C529.606 296.767 529.376 296.807 529.086 296.915C528.8 297.021 528.473 297.185 528.12 297.392C527.415 297.806 526.627 298.379 525.886 298.963C525.145 299.546 524.457 300.136 523.954 300.58C523.702 300.803 523.497 300.988 523.354 301.118C523.283 301.183 523.228 301.234 523.19 301.269L523.148 301.309L523.137 301.319L523.135 301.321L523.134 301.321L523.134 301.321C522.937 301.511 522.839 301.879 522.965 302.32C523.09 302.754 523.431 303.242 524.075 303.623L524.281 303.745L524.117 303.919C523.372 304.71 523.319 305.503 523.445 306.101C523.508 306.403 523.618 306.658 523.713 306.837C523.76 306.926 523.803 306.996 523.834 307.043C523.849 307.067 523.861 307.084 523.869 307.095L523.878 307.108L523.88 307.11Z" fill="#F1F1F1" stroke="#08003F" stroke-width="0.382538"/>
<path d="M529.24 300.863C529.185 300.764 529.068 300.722 528.965 300.757L528.927 300.774L523.866 303.587C523.755 303.649 523.715 303.789 523.777 303.899C523.831 303.998 523.948 304.04 524.051 304.005L524.089 303.988L529.151 301.175C529.261 301.113 529.301 300.973 529.24 300.863Z" fill="#08003F"/>
<path d="M530.695 301.785C530.602 301.699 530.457 301.704 530.37 301.796C530.284 301.889 530.289 302.034 530.381 302.12L530.45 302.189C530.479 302.22 530.514 302.258 530.554 302.303C530.688 302.454 530.823 302.627 530.948 302.818C531.622 303.843 531.757 304.894 531.038 305.881C530.991 305.945 530.981 306.03 531.012 306.104C531.558 307.412 531.456 308.393 530.968 309.102C530.881 309.23 530.787 309.337 530.694 309.423C530.641 309.473 530.601 309.504 530.583 309.517C530.531 309.552 530.496 309.606 530.486 309.667L530.482 309.704L530.456 312.031C530.454 312.158 530.556 312.262 530.683 312.263C530.797 312.265 530.892 312.182 530.911 312.074L530.915 312.037L530.94 309.821L530.99 309.778C531.081 309.695 531.182 309.586 531.285 309.448L531.347 309.362C531.885 308.58 532.024 307.53 531.547 306.213L531.483 306.045L531.549 305.943C532.217 304.871 532.065 303.739 531.398 302.67L531.332 302.567C531.194 302.356 531.046 302.166 530.898 301.999L530.815 301.907C530.764 301.853 530.723 301.812 530.695 301.785Z" fill="#08003F"/>
<path d="M528.524 305.736L523.67 307.005C523.547 307.037 523.474 307.162 523.506 307.285C523.534 307.393 523.637 307.464 523.745 307.455L523.786 307.448L528.64 306.18C528.763 306.148 528.836 306.023 528.804 305.9C528.775 305.791 528.673 305.721 528.565 305.729L528.524 305.736Z" fill="#08003F"/>
<path d="M528.624 309.867L523.954 310.623C523.829 310.643 523.744 310.761 523.765 310.886C523.783 310.998 523.88 311.079 523.991 311.079L524.028 311.076L528.698 310.32C528.823 310.3 528.908 310.182 528.888 310.057C528.869 309.944 528.772 309.864 528.662 309.864L528.624 309.867Z" fill="#08003F"/>
<path fill-rule="evenodd" clip-rule="evenodd" d="M510.456 253.882C510.442 254.452 510.818 254.924 511.294 254.935C511.769 254.945 512.166 254.491 512.178 253.921C512.191 253.35 511.816 252.879 511.341 252.869C510.865 252.858 510.469 253.311 510.456 253.882Z" fill="#15E7BD"/>
<path fill-rule="evenodd" clip-rule="evenodd" d="M509.012 264.355C508.998 264.926 509.374 265.397 509.85 265.408C510.325 265.418 510.722 264.965 510.735 264.394C510.747 263.824 510.372 263.353 509.897 263.342C509.421 263.331 509.025 263.785 509.012 264.355Z" fill="#15E7BD"/>
<path fill-rule="evenodd" clip-rule="evenodd" d="M508.067 275.701C508.054 276.271 508.429 276.742 508.905 276.753C509.381 276.763 509.776 276.31 509.79 275.74C509.803 275.169 509.427 274.698 508.951 274.687C508.476 274.676 508.08 275.13 508.067 275.701Z" fill="#15E7BD"/>
<path fill-rule="evenodd" clip-rule="evenodd" d="M507.654 286.369C507.641 286.94 508.016 287.411 508.492 287.422C508.968 287.432 509.363 286.978 509.377 286.408C509.389 285.837 509.014 285.367 508.538 285.356C508.063 285.345 507.667 285.799 507.654 286.369Z" fill="#15E7BD"/>
<path fill-rule="evenodd" clip-rule="evenodd" d="M507.507 300.488C507.494 301.059 507.869 301.53 508.346 301.541C508.821 301.551 509.217 301.098 509.23 300.528C509.242 299.957 508.867 299.486 508.392 299.475C507.916 299.464 507.521 299.918 507.507 300.488Z" fill="#15E7BD"/>
<path d="M524.919 246.089C524.802 245.989 524.632 245.992 524.519 246.09L524.487 246.122L516.619 255.272L511.087 248.756C510.987 248.639 510.819 248.615 510.692 248.694L510.655 248.72C510.538 248.82 510.514 248.988 510.593 249.115L510.62 249.151L516.384 255.941C516.495 256.073 516.69 256.084 516.817 255.975L516.849 255.943L524.951 246.521C525.062 246.393 525.047 246.199 524.919 246.089Z" fill="#15E7BD"/>
<path d="M501.607 246.346C501.554 246.186 501.381 246.099 501.22 246.152C501.073 246.201 500.988 246.351 501.016 246.499L501.026 246.539L503.984 255.447C504.052 255.65 504.298 255.719 504.461 255.594L504.494 255.564L510.846 249.047C510.964 248.926 510.961 248.733 510.84 248.615C510.731 248.509 510.563 248.5 510.445 248.588L510.407 248.621L504.407 254.776L501.607 246.346Z" fill="#15E7BD"/>
<path d="M501.482 311.915C501.357 311.896 501.24 311.982 501.22 312.107L501.198 312.257C501.18 312.379 501.161 312.522 501.14 312.683L501.088 313.092C501.046 313.445 501.004 313.826 500.964 314.233C500.721 316.703 500.629 319.242 500.779 321.615L500.807 322.02C501.212 327.38 502.821 330.776 506.044 331.237C506.169 331.255 506.285 331.168 506.303 331.042C506.321 330.917 506.234 330.801 506.109 330.783C503.102 330.353 501.578 326.982 501.237 321.586C501.089 319.241 501.18 316.725 501.421 314.278L501.469 313.806C501.502 313.5 501.536 313.211 501.57 312.941L501.625 312.518L501.674 312.177C501.693 312.052 501.608 311.935 501.482 311.915Z" fill="#08003F"/>
<path d="M538.58 254.349C538.491 254.196 538.295 254.144 538.142 254.233L538.083 254.269C538.025 254.305 537.946 254.357 537.848 254.426C537.623 254.582 537.374 254.774 537.107 255.003C536.346 255.653 535.587 256.467 534.88 257.457C532.124 261.314 530.915 266.627 532.11 273.578C532.14 273.753 532.305 273.87 532.48 273.84C532.654 273.81 532.772 273.644 532.742 273.47C531.575 266.686 532.746 261.547 535.402 257.829C536.078 256.883 536.801 256.107 537.523 255.49C537.733 255.311 537.929 255.157 538.109 255.026L538.215 254.951C538.338 254.865 538.423 254.811 538.465 254.787C538.618 254.698 538.67 254.502 538.58 254.349Z" fill="#15E7BD"/>
<path d="M555.747 280.15C555.62 280.027 555.417 280.03 555.294 280.158L555.172 280.279C555.118 280.332 555.051 280.397 554.971 280.473L554.73 280.699C554.52 280.892 554.287 281.1 554.032 281.319C553.011 282.196 551.851 283.073 550.577 283.891C546.897 286.256 543.027 287.658 539.159 287.62C538.982 287.619 538.837 287.761 538.836 287.938C538.834 288.115 538.976 288.259 539.153 288.261C543.164 288.3 547.147 286.856 550.924 284.43C552.224 283.595 553.407 282.7 554.45 281.805L554.752 281.541C554.947 281.37 555.127 281.206 555.292 281.051L555.483 280.87L555.755 280.603C555.878 280.476 555.874 280.273 555.747 280.15Z" fill="#15E7BD"/>
<path d="M525.19 221.316C525.143 221.198 525.01 221.141 524.892 221.187L524.811 221.223C524.763 221.245 524.704 221.274 524.636 221.311C524.45 221.412 524.264 221.534 524.09 221.679C523.453 222.211 523.132 222.903 523.322 223.744C523.394 224.063 523.54 224.234 523.811 224.398L523.928 224.465C524.161 224.594 524.219 224.658 524.239 224.857C524.278 225.237 524.104 225.52 523.771 225.736C523.659 225.809 523.538 225.867 523.417 225.913L523.34 225.94C523.306 225.951 523.28 225.958 523.264 225.962C523.14 225.991 523.064 226.115 523.094 226.238C523.123 226.361 523.247 226.438 523.37 226.408C523.538 226.368 523.778 226.279 524.02 226.121C524.486 225.819 524.754 225.383 524.696 224.81C524.66 224.455 524.522 224.282 524.219 224.103L524.106 224.039C523.891 223.919 523.814 223.837 523.77 223.643C523.622 222.991 523.868 222.463 524.384 222.032C524.534 221.907 524.694 221.801 524.855 221.714L524.958 221.661C525.003 221.638 525.038 221.623 525.061 221.614C525.179 221.567 525.237 221.434 525.19 221.316Z" fill="#08003F"/>
<path d="M497.226 339.601C497.099 339.592 496.99 339.687 496.981 339.814C496.973 339.927 497.049 340.027 497.157 340.053L497.194 340.058L504.765 340.59C504.892 340.599 505.001 340.504 505.01 340.377C505.018 340.264 504.942 340.164 504.834 340.138L504.797 340.133L497.226 339.601Z" fill="#08003F"/>
<path d="M454.692 254.801C454.697 254.797 454.703 254.793 454.709 254.788C454.732 254.769 454.763 254.743 454.802 254.707C454.879 254.637 454.984 254.53 455.101 254.383C455.336 254.088 455.621 253.632 455.834 252.976C456.332 251.445 456.845 250.66 457.646 250L457.646 250C458.102 249.623 458.383 249.071 458.549 248.63C458.632 248.408 458.689 248.207 458.725 248.063C458.743 247.99 458.755 247.931 458.764 247.89C458.765 247.882 458.767 247.875 458.768 247.868C459.261 247.169 459.653 246.975 459.947 246.982C460.253 246.99 460.55 247.219 460.845 247.599C461.094 247.919 461.312 248.308 461.511 248.663C461.543 248.721 461.576 248.779 461.607 248.835C461.717 249.029 461.824 249.211 461.926 249.347C461.976 249.416 462.031 249.479 462.089 249.529C462.146 249.577 462.222 249.626 462.315 249.637M454.692 254.801L462.337 249.447M454.692 254.801C454.551 254.975 454.475 255.214 454.467 255.524C454.458 255.844 454.524 256.227 454.654 256.664C454.916 257.536 455.428 258.582 456.064 259.685C457.227 261.701 458.786 263.87 459.92 265.449C460.025 265.595 460.126 265.735 460.223 265.871L460.223 265.871C460.931 266.858 462.636 267.261 464.183 266.66C465.701 266.071 467.057 264.505 467.002 261.565L467.002 261.551L467.004 261.536L454.692 254.801ZM462.315 249.637L462.337 249.447M462.315 249.637C462.315 249.637 462.315 249.637 462.315 249.637L462.337 249.447M462.315 249.637C462.365 249.643 462.422 249.637 462.477 249.608C462.531 249.579 462.567 249.537 462.589 249.496C462.63 249.424 462.642 249.337 462.647 249.267C462.655 249.171 462.652 249.042 462.65 248.901C462.649 248.834 462.648 248.765 462.648 248.694C462.646 248.237 462.681 247.644 462.965 247.055L462.965 247.055C463.247 246.467 463.672 246.166 464.006 246.091C464.173 246.053 464.305 246.074 464.39 246.124C464.47 246.17 464.532 246.252 464.545 246.395L464.545 246.395C464.719 248.302 465.694 252.99 466.491 255.162L466.491 255.162C466.99 256.521 467.12 258.111 467.123 259.372C467.125 260 467.095 260.542 467.065 260.927C467.049 261.12 467.034 261.273 467.023 261.377C467.017 261.429 467.012 261.47 467.009 261.496L467.005 261.527L467.004 261.534L467.004 261.536L467.004 261.536L467.004 261.536L467.193 261.562C467.193 261.562 467.691 257.876 466.67 255.096C465.88 252.942 464.908 248.27 464.735 246.378C464.663 245.583 463.397 245.713 462.792 246.972C462.438 247.708 462.451 248.442 462.459 248.918C462.465 249.255 462.468 249.462 462.337 249.447" fill="#F1F1F1" stroke="#08003F" stroke-width="0.382538"/>
<path d="M459.045 249.623C459.172 250.898 459.657 253.752 460.575 254.975" stroke="#08003F" stroke-width="0.382538" stroke-linecap="round"/>
<path d="M457.515 252.299C457.642 253.573 458.127 256.428 459.045 257.651" stroke="#08003F" stroke-width="0.382538" stroke-linecap="round"/>
<path d="M455.985 254.593C456.113 255.867 456.597 258.721 457.516 259.944" stroke="#08003F" stroke-width="0.382538" stroke-linecap="round"/>
<path d="M462.343 250.005L463.128 254.02" stroke="#08003F" stroke-width="0.382538" stroke-linecap="round" stroke-linejoin="round"/>
<path fill-rule="evenodd" clip-rule="evenodd" d="M289.294 397.872H205.716C204.92 397.872 204.275 397.228 204.275 396.433V330.193C204.275 329.398 204.92 328.753 205.716 328.753H289.294C290.089 328.753 290.734 329.398 290.734 330.193V396.433C290.734 397.228 290.089 397.872 289.294 397.872Z" fill="white"/>
<path fill-rule="evenodd" clip-rule="evenodd" d="M283.241 391.824H211.768C210.972 391.824 210.327 391.18 210.327 390.385V336.241C210.327 335.446 210.972 334.801 211.768 334.801H283.241C284.037 334.801 284.682 335.446 284.682 336.241V390.385C284.682 391.18 284.037 391.824 283.241 391.824Z" fill="#F1F1F1"/>
<path fill-rule="evenodd" clip-rule="evenodd" d="M231.433 391.817H285.161L263.486 364.545C261.473 362.012 257.656 361.92 255.522 364.352L231.433 391.817Z" fill="#08003F"/>
<path fill-rule="evenodd" clip-rule="evenodd" d="M211.268 391.755H258.331L238.266 370.178C236.191 367.946 232.645 367.975 230.608 370.242L211.268 391.755Z" fill="#08003F"/>
<path fill-rule="evenodd" clip-rule="evenodd" d="M247.264 351.03C247.264 357.138 242.309 362.089 236.198 362.089C230.086 362.089 225.132 357.138 225.132 351.03C225.132 344.923 230.086 339.972 236.198 339.972C242.309 339.972 247.264 344.923 247.264 351.03Z" fill="#15E7BD"/>
<ellipse cx="92.5745" cy="408.648" rx="81.098" ry="21.0249" fill="#F1F1F1"/>
<g clip-path="url(#clip2_17_4038)">
<path fill-rule="evenodd" clip-rule="evenodd" d="M122.368 243.884C117.178 243.72 113.104 239.389 113.268 234.211L114.211 204.551C114.376 199.372 118.717 195.307 123.907 195.471C129.098 195.636 133.173 199.967 133.008 205.145L132.065 234.805C131.9 239.984 127.559 244.048 122.368 243.884Z" fill="#08003F"/>
<path fill-rule="evenodd" clip-rule="evenodd" d="M105.33 362.891C101.944 363.211 99.5708 366.367 100.215 369.697C101.318 375.391 102.9 384.168 103.914 392.395C104.822 399.77 103.975 404.905 105.533 406.755C107.212 408.75 110.456 406.838 113.286 409.368C116.115 411.899 118.161 413.848 125.412 411.934C133.892 409.696 126.212 407.735 122.071 404.287C114.76 398.199 113.775 395.208 113.186 390.504C111.979 380.87 111.683 373.414 111.635 368.542C111.601 365.181 108.684 362.574 105.33 362.891Z" fill="#F1F1F1"/>
<path d="M123.081 405.255C123.096 405.25 123.109 405.246 123.121 405.241C123.14 405.25 123.163 405.261 123.19 405.273C123.279 405.315 123.41 405.376 123.574 405.454C123.902 405.612 124.364 405.839 124.901 406.117C125.975 406.673 127.34 407.432 128.517 408.247C129.667 409.043 130.149 410.095 129.823 411.036C129.492 411.993 128.291 412.951 125.802 413.464C123.301 413.979 121.345 414.191 119.403 413.858C117.462 413.525 115.516 412.644 113.045 410.939C110.535 409.206 108.766 408.744 107.522 408.458C107.458 408.443 107.397 408.429 107.337 408.415C106.804 408.294 106.402 408.202 106.079 408.041C105.738 407.871 105.486 407.622 105.291 407.148C104.646 405.573 104.478 403.694 104.474 402.197C104.471 401.451 104.51 400.804 104.549 400.344C104.56 400.223 104.57 400.116 104.58 400.022C104.77 400.219 105.065 400.509 105.49 400.894C106.356 401.679 107.762 402.859 109.93 404.445L109.93 404.445C111.633 405.691 113.054 406.703 114.272 407.293C115.491 407.883 116.554 408.074 117.512 407.607L117.512 407.607C119.113 406.826 120.534 406.228 121.555 405.826C122.065 405.624 122.475 405.472 122.757 405.37C122.898 405.319 123.007 405.281 123.081 405.255Z" fill="#08003F" stroke="#15E7BD" stroke-width="0.382538"/>
<path fill-rule="evenodd" clip-rule="evenodd" d="M88.5654 329.073L78.0676 293.32C75.9916 285.898 80.9605 278.356 88.612 277.313C95.2352 276.41 101.431 280.767 102.804 287.294L110.519 323.97C110.519 323.97 113.291 334.298 102.315 336.745C91.6413 339.126 88.5654 329.073 88.5654 329.073Z" fill="#15E7BD"/>
<path fill-rule="evenodd" clip-rule="evenodd" d="M88.3448 323.562L100.024 388.809C100.303 390.369 101.678 391.494 103.266 391.463L114.474 391.239C116.361 391.201 117.814 389.562 117.62 387.687L110.873 322.607C110.873 322.607 110.143 311.501 98.2612 312.749C87.1783 313.914 88.3448 323.562 88.3448 323.562Z" fill="#15E7BD"/>
<path fill-rule="evenodd" clip-rule="evenodd" d="M99.9365 391.946L118.31 391.58C118.7 391.572 119.001 391.238 118.97 390.851L118.325 383C118.296 382.645 117.996 382.375 117.639 382.382L98.1129 382.772C97.6851 382.78 97.3727 383.179 97.4685 383.595L99.2652 391.424C99.336 391.735 99.616 391.953 99.9365 391.946Z" fill="#08003F"/>
<path fill-rule="evenodd" clip-rule="evenodd" d="M98.4727 354.152C95.4879 352.527 91.7503 353.816 90.4164 356.937C88.1361 362.272 84.5252 370.429 80.7491 377.813C77.3656 384.432 73.7831 388.214 74.0361 390.617C74.3093 393.208 78.07 393.435 78.9956 397.112C79.9213 400.789 80.5231 403.546 87.6058 406.008C95.8894 408.887 90.6249 402.974 89.1271 397.806C86.4831 388.677 87.344 385.649 89.4942 381.422C93.8984 372.764 97.8358 366.42 100.528 362.355C102.386 359.551 101.43 355.761 98.4727 354.152Z" fill="#F1F1F1"/>
<path d="M77.0234 384.506C77.0713 384.775 77.1528 385.18 77.2886 385.736C77.5658 386.87 78.0697 388.633 78.977 391.158C79.6897 393.141 80.2999 394.773 80.9787 395.943C81.6579 397.113 82.4312 397.864 83.4882 398.012L83.4883 398.012C85.2527 398.258 86.7655 398.556 87.837 398.792C88.3726 398.91 88.7978 399.013 89.0888 399.086C89.2342 399.123 89.3461 399.152 89.4215 399.172C89.4367 399.176 89.4503 399.179 89.4625 399.183C89.4734 399.2 89.4864 399.222 89.5014 399.247C89.5521 399.331 89.6259 399.455 89.7178 399.612C89.9016 399.925 90.1576 400.371 90.4461 400.901C91.0239 401.962 91.7296 403.353 92.2482 404.685C92.7547 405.987 92.5645 407.128 91.7661 407.726C90.9541 408.335 89.4216 408.458 87.0714 407.493C84.7096 406.523 82.9693 405.608 81.5465 404.248C80.1248 402.888 79.0066 401.072 77.9157 398.279L77.9157 398.279C76.8074 395.441 75.5999 394.071 74.7295 393.139C74.6856 393.092 74.6428 393.046 74.6011 393.002C74.2267 392.602 73.9452 392.302 73.768 391.988C73.5809 391.657 73.5112 391.31 73.6163 390.808L77.0234 384.506ZM77.0234 384.506C76.963 384.578 76.8939 384.661 76.8175 384.756C76.5271 385.115 76.1324 385.629 75.7156 386.249C74.8797 387.491 73.9654 389.143 73.6163 390.808L77.0234 384.506Z" fill="#08003F" stroke="#15E7BD" stroke-width="0.382538"/>
<path fill-rule="evenodd" clip-rule="evenodd" d="M123.436 320.616L118.367 283.706C117.221 276.086 109.596 271.229 102.185 273.397C95.7707 275.273 91.9021 281.777 93.3223 288.293L101.308 324.911C101.308 324.911 103.01 335.467 114.03 333.225C124.747 331.044 123.436 320.616 123.436 320.616Z" fill="#15E7BD"/>
<path fill-rule="evenodd" clip-rule="evenodd" d="M122.822 326.078L94.2426 380.355C93.5592 381.653 91.9433 382.248 90.4327 381.758L79.7716 378.302C77.9756 377.719 77.0237 375.848 77.7098 374.248L101.528 318.684C101.528 318.684 105.188 309.08 116.221 313.637C126.512 317.888 122.822 326.078 122.822 326.078Z" fill="#15E7BD"/>
<path fill-rule="evenodd" clip-rule="evenodd" d="M92.9468 383.645L75.9343 376.709C75.574 376.562 75.4128 376.142 75.5821 375.793L79.0142 368.698C79.1687 368.378 79.5465 368.234 79.8764 368.368L97.9555 375.738C98.3522 375.9 98.4987 376.383 98.2598 376.737L93.7618 383.397C93.583 383.662 93.2423 383.766 92.9468 383.645Z" fill="#08003F"/>
<path fill-rule="evenodd" clip-rule="evenodd" d="M107.334 306.283L123.476 290.981C124.851 289.952 125.572 288.27 125.373 286.568L126.718 267.526L80.5948 268.255L80.3597 288.411C80.3452 289.665 80.8208 290.87 81.6824 291.782C84.3264 294.578 90.9544 300.136 102.483 306.121C104.048 306.932 105.966 307.393 107.334 306.283Z" fill="#15E7BD"/>
<mask id="path-114-inside-1_17_4038" fill="white">
<path d="M125.586 273.118C125.729 273.116 125.847 273.229 125.85 273.371C125.853 273.499 125.761 273.608 125.639 273.63L125.597 273.635L83.8139 274.49C83.671 274.493 83.5528 274.38 83.5499 274.237C83.5473 274.109 83.6389 274.001 83.7614 273.978L83.8033 273.974L125.586 273.118Z"/>
</mask>
<path d="M125.586 273.118C125.729 273.116 125.847 273.229 125.85 273.371C125.853 273.499 125.761 273.608 125.639 273.63L125.597 273.635L83.8139 274.49C83.671 274.493 83.5528 274.38 83.5499 274.237C83.5473 274.109 83.6389 274.001 83.7614 273.978L83.8033 273.974L125.586 273.118Z" fill="#08003F"/>
<path d="M125.586 273.118L125.602 273.883L125.602 273.883L125.586 273.118ZM125.85 273.371L126.615 273.356L126.615 273.355L125.85 273.371ZM125.639 273.63L125.715 274.392L125.746 274.388L125.777 274.383L125.639 273.63ZM125.597 273.635L125.613 274.399L125.643 274.399L125.674 274.396L125.597 273.635ZM83.8139 274.49L83.7982 273.725L83.7982 273.725L83.8139 274.49ZM83.5499 274.237L82.7849 274.253L82.785 274.253L83.5499 274.237ZM83.7614 273.978L83.6848 273.217L83.6537 273.22L83.6231 273.226L83.7614 273.978ZM83.8033 273.974L83.7876 273.209L83.7571 273.21L83.7267 273.213L83.8033 273.974ZM125.602 273.883C125.324 273.889 125.091 273.669 125.085 273.387L126.615 273.355C126.603 272.789 126.134 272.342 125.571 272.354L125.602 273.883ZM125.085 273.387C125.08 273.133 125.261 272.922 125.501 272.878L125.777 274.383C126.261 274.294 126.626 273.866 126.615 273.356L125.085 273.387ZM125.562 272.869L125.52 272.873L125.674 274.396L125.715 274.392L125.562 272.869ZM125.581 272.87L83.7982 273.725L83.8296 275.255L125.613 274.399L125.581 272.87ZM83.7982 273.725C84.0761 273.719 84.3089 273.94 84.3148 274.221L82.785 274.253C82.7968 274.82 83.266 275.267 83.8296 275.255L83.7982 273.725ZM84.3148 274.222C84.3199 274.476 84.139 274.687 83.8997 274.731L83.6231 273.226C83.1388 273.315 82.7747 273.742 82.7849 274.253L84.3148 274.222ZM83.838 274.739L83.8799 274.735L83.7267 273.213L83.6848 273.217L83.838 274.739ZM83.819 274.739L125.602 273.883L125.571 272.354L83.7876 273.209L83.819 274.739Z" fill="#08003F" mask="url(#path-114-inside-1_17_4038)"/>
<mask id="path-116-inside-2_17_4038" fill="white">
<path d="M101.54 267.924C101.668 267.922 101.777 268.013 101.799 268.135L101.804 268.177L101.92 273.861C101.923 274.004 101.81 274.122 101.667 274.125C101.538 274.127 101.43 274.036 101.407 273.913L101.403 273.872L101.286 268.188C101.283 268.045 101.397 267.927 101.54 267.924Z"/>
</mask>
<path d="M101.54 267.924C101.668 267.922 101.777 268.013 101.799 268.135L101.804 268.177L101.92 273.861C101.923 274.004 101.81 274.122 101.667 274.125C101.538 274.127 101.43 274.036 101.407 273.913L101.403 273.872L101.286 268.188C101.283 268.045 101.397 267.927 101.54 267.924Z" fill="#08003F"/>
<path d="M101.54 267.924L101.524 267.159L101.524 267.159L101.54 267.924ZM101.799 268.135L102.56 268.058L102.557 268.027L102.552 267.996L101.799 268.135ZM101.804 268.177L102.568 268.161L102.568 268.13L102.565 268.1L101.804 268.177ZM101.92 273.861L101.155 273.877L101.155 273.877L101.92 273.861ZM101.667 274.125L101.682 274.889L101.683 274.889L101.667 274.125ZM101.407 273.913L100.646 273.991L100.649 274.022L100.655 274.052L101.407 273.913ZM101.403 273.872L100.638 273.887L100.639 273.918L100.642 273.949L101.403 273.872ZM101.286 268.188L100.521 268.203L100.521 268.203L101.286 268.188ZM101.555 268.689C101.304 268.694 101.092 268.516 101.047 268.274L102.552 267.996C102.462 267.51 102.032 267.149 101.524 267.159L101.555 268.689ZM101.038 268.213L101.042 268.254L102.565 268.1L102.56 268.058L101.038 268.213ZM101.039 268.193L101.155 273.877L102.685 273.845L102.568 268.161L101.039 268.193ZM101.155 273.877C101.15 273.595 101.373 273.365 101.651 273.36L101.683 274.889C102.246 274.878 102.697 274.412 102.685 273.845L101.155 273.877ZM101.652 273.36C101.902 273.355 102.115 273.533 102.16 273.775L100.655 274.052C100.745 274.539 101.174 274.9 101.682 274.889L101.652 273.36ZM102.168 273.836L102.164 273.794L100.642 273.949L100.646 273.991L102.168 273.836ZM102.168 273.856L102.051 268.172L100.521 268.203L100.638 273.887L102.168 273.856ZM102.051 268.172C102.057 268.454 101.833 268.683 101.556 268.689L101.524 267.159C100.96 267.171 100.51 267.636 100.521 268.203L102.051 268.172Z" fill="#08003F" mask="url(#path-116-inside-2_17_4038)"/>
<path d="M103.668 283.263L105.198 314.609L91.8094 342.133" stroke="#08003F" stroke-width="0.382538" stroke-linecap="round"/>
<path d="M88.7476 155.371C88.9691 158.729 86.4189 161.632 83.0498 161.853C79.6812 162.073 76.7727 159.528 76.5512 156.17C76.3297 152.811 78.8799 149.908 82.249 149.687C85.6169 149.466 88.5261 152.011 88.7476 155.371Z" fill="#08003F" stroke="#08003F" stroke-width="0.765075"/>
<path d="M90.4454 185.308L90.4455 185.308L90.4455 185.308L90.563 185.254L90.5566 185.124L89.9663 173.085L105.579 172.422L105.589 172.6C105.604 172.835 105.625 173.175 105.652 173.592C105.706 174.428 105.784 175.577 105.879 176.831C106.068 179.337 106.326 182.272 106.597 183.963L106.613 184.063L106.705 184.106C108.04 184.729 108.814 185.349 109.168 185.929C109.344 186.215 109.416 186.49 109.406 186.752C109.397 187.016 109.306 187.281 109.132 187.547C108.782 188.085 108.109 188.608 107.183 189.082C106.261 189.554 105.108 189.967 103.819 190.296C101.242 190.954 98.1483 191.267 95.3385 191.04C92.5201 190.812 90.0292 190.043 88.6142 188.576C88.1999 188.146 88.1189 187.751 88.1957 187.399C88.2761 187.031 88.5364 186.676 88.8743 186.357C89.2092 186.041 89.6017 185.778 89.9136 185.593C90.069 185.501 90.2029 185.429 90.2976 185.381C90.345 185.356 90.3825 185.338 90.4079 185.325L90.4366 185.312L90.4436 185.308L90.4452 185.308L90.4454 185.308Z" fill="#F1F1F1" stroke="#08003F" stroke-width="0.382538"/>
<path d="M87.9828 165.127L87.9826 165.127L87.9826 165.127L87.9813 165.126L87.9748 165.12C87.9688 165.115 87.9595 165.107 87.9471 165.096C87.9224 165.076 87.8854 165.046 87.8378 165.01C87.7426 164.937 87.6061 164.842 87.4422 164.75C87.1093 164.562 86.6873 164.399 86.2748 164.439C85.88 164.477 85.4555 164.704 85.1085 165.377C84.7561 166.061 84.4906 167.196 84.4396 169.017C84.3984 170.968 84.7538 172.369 85.2976 173.374C85.8405 174.378 86.5772 174.998 87.3184 175.383C88.0618 175.768 88.8128 175.916 89.3802 175.967C89.6634 175.993 89.8994 175.994 90.0637 175.989C90.1458 175.987 90.2098 175.983 90.2528 175.979C90.2641 175.978 90.2739 175.978 90.2823 175.977C90.2897 175.976 90.296 175.976 90.301 175.975L90.3125 175.974L90.3149 175.974L90.3151 175.974L90.3153 175.974L90.3153 175.974L90.4203 175.961L87.9828 165.127ZM87.9828 165.127L87.9828 165.127L88.3994 165.504L88.2991 164.951L88.2991 164.951L88.2991 164.951L88.2988 164.949L88.2977 164.943L88.2931 164.915C88.2891 164.89 88.2834 164.853 88.2765 164.804C88.2629 164.705 88.2449 164.56 88.2281 164.375C88.1946 164.004 88.1657 163.473 88.1852 162.834C88.2241 161.556 88.4564 159.855 89.2263 158.153C89.9949 156.454 91.3008 154.751 93.4947 153.463C95.6892 152.175 98.7837 151.296 103.139 151.265C107.912 151.555 110.451 155.639 111.8 159.747C112.472 161.794 112.84 163.824 113.04 165.344C113.14 166.104 113.198 166.735 113.231 167.176C113.248 167.397 113.258 167.569 113.264 167.687C113.267 167.746 113.269 167.79 113.27 167.82L113.271 167.854L113.272 167.863L113.272 167.865L113.272 167.865L113.463 167.859L113.272 167.865L113.272 167.885L113.277 167.905L87.9828 165.127ZM90.4868 176.043L90.4868 176.043L113.277 167.905L113.277 167.905L113.278 167.907L113.279 167.913L113.286 167.94C113.291 167.965 113.299 168.001 113.31 168.05C113.33 168.146 113.357 168.289 113.387 168.472C113.447 168.837 113.516 169.362 113.55 169.997C113.618 171.268 113.548 172.974 112.997 174.724C111.779 178.586 108.228 180.052 103.357 180.716C98.8337 180.759 95.6121 179.584 93.5244 178.403C92.4791 177.812 91.7169 177.219 91.2174 176.775C90.9676 176.553 90.7835 176.368 90.6626 176.24C90.6022 176.176 90.5575 176.126 90.5283 176.092C90.5137 176.075 90.503 176.063 90.4961 176.055L90.4886 176.046L90.487 176.044L90.4868 176.043Z" fill="#F1F1F1" stroke="#08003F" stroke-width="0.382538"/>
<path fill-rule="evenodd" clip-rule="evenodd" d="M104.092 166.34C103.996 169.456 101.727 171.915 99.0214 171.833C96.3173 171.751 94.2016 169.158 94.296 166.042C94.3918 162.926 96.6614 160.466 99.3668 160.548C102.072 160.631 104.187 163.223 104.092 166.34Z" fill="#F1F1F1"/>
<path d="M114.122 165.757C113.957 166.177 113.802 166.554 113.663 166.878C113.649 166.75 113.634 166.616 113.617 166.476C113.479 165.349 113.244 163.823 112.851 162.238C112.459 160.656 111.906 158.998 111.125 157.612C110.348 156.232 109.319 155.077 107.955 154.58L107.181 154.299L107.466 155.072C107.84 156.09 107.589 157.141 106.712 158.156C105.943 159.047 104.706 159.889 103.051 160.595C103.18 160.135 103.269 159.63 103.33 159.117C103.431 158.262 103.457 157.354 103.448 156.527C103.439 155.699 103.394 154.947 103.351 154.402C103.33 154.129 103.309 153.908 103.293 153.754C103.285 153.677 103.279 153.617 103.275 153.576L103.269 153.529L103.268 153.517L103.267 153.513L103.267 153.513L103.267 153.512C103.267 153.512 103.267 153.512 102.887 153.557L103.267 153.512L102.521 153.452C102.52 153.451 102.52 153.451 102.52 153.451L102.52 153.451L102.52 153.452L102.517 153.461C102.516 153.463 102.516 153.465 102.515 153.468C102.512 153.476 102.508 153.488 102.504 153.502C102.491 153.54 102.471 153.598 102.443 153.673C102.386 153.824 102.295 154.046 102.16 154.32C101.892 154.869 101.451 155.626 100.767 156.449C99.4016 158.09 97.0581 160.003 93.1476 161.025L92.8978 161.09L92.8649 161.346C92.493 164.239 91.6474 166.564 90.8937 167.965C90.5736 168.56 90.286 168.959 90.077 169.17C89.9328 167.632 89.1935 166.727 88.2847 166.346C87.4116 165.98 86.4123 166.118 85.803 166.597C85.4219 166.75 85.0921 167.117 84.839 167.541C84.5594 168.01 84.3325 168.616 84.2115 169.291C83.9694 170.642 84.1436 172.32 85.2355 173.777L85.2355 173.777C86.3041 175.203 87.4936 175.84 88.4315 176.114C88.8979 176.251 89.298 176.296 89.585 176.307C89.6051 176.308 89.6247 176.309 89.6437 176.309L89.9033 183.744C89.7136 183.74 89.46 183.731 89.1581 183.709C88.4598 183.658 87.5085 183.537 86.4933 183.262C84.4551 182.71 82.2297 181.555 81.1999 179.158C80.2777 176.669 80.4512 174.948 80.8232 173.869C81.0106 173.325 81.2518 172.934 81.4418 172.682C81.5368 172.557 81.6191 172.466 81.6753 172.408C81.7035 172.379 81.725 172.359 81.7384 172.347L81.7521 172.334L81.7526 172.334L81.7529 172.334L81.7535 172.333L81.7535 172.333L81.7539 172.333L81.9538 172.168L81.8716 171.919L81.8716 171.919L81.8715 171.919L81.8708 171.917L81.8677 171.907L81.8545 171.866C81.8428 171.828 81.8255 171.772 81.8038 171.698C81.7603 171.549 81.6989 171.329 81.6286 171.047C81.4879 170.484 81.3117 169.674 81.1714 168.694C80.8902 166.731 80.755 164.1 81.3256 161.404C81.8952 158.711 83.1665 155.959 85.6961 153.729C88.2267 151.498 92.0481 149.762 97.7671 149.157L97.8262 149.151L97.8806 149.127C101.691 147.455 103.705 146.808 104.9 146.645C105.486 146.565 105.856 146.605 106.137 146.686C106.378 146.756 106.564 146.858 106.799 146.987C106.851 147.015 106.904 147.044 106.961 147.075C107.071 147.134 107.313 147.308 107.671 147.604C108.019 147.892 108.456 148.277 108.946 148.738C109.927 149.66 111.115 150.877 112.235 152.211C113.356 153.548 114.4 154.991 115.1 156.365C115.807 157.752 116.131 159.005 115.913 159.99C115.424 162.201 114.713 164.254 114.122 165.757Z" fill="#08003F" stroke="#08003F" stroke-width="0.765075"/>
<mask id="path-124-inside-3_17_4038" fill="white">
<path d="M99.3775 160.212C96.4747 160.124 94.0605 162.739 93.9592 166.032C93.8595 169.324 96.1097 172.082 99.0116 172.17C101.915 172.258 104.329 169.643 104.43 166.35C104.53 163.058 102.28 160.301 99.3775 160.212ZM99.357 160.885C101.864 160.961 103.845 163.389 103.755 166.33C103.665 169.27 101.539 171.573 99.0321 171.497C96.526 171.421 94.5445 168.993 94.6336 166.053C94.7226 163.159 96.7828 160.882 99.2378 160.883L99.357 160.885Z"/>
</mask>
<path d="M99.3775 160.212C96.4747 160.124 94.0605 162.739 93.9592 166.032C93.8595 169.324 96.1097 172.082 99.0116 172.17C101.915 172.258 104.329 169.643 104.43 166.35C104.53 163.058 102.28 160.301 99.3775 160.212ZM99.357 160.885C101.864 160.961 103.845 163.389 103.755 166.33C103.665 169.27 101.539 171.573 99.0321 171.497C96.526 171.421 94.5445 168.993 94.6336 166.053C94.7226 163.159 96.7828 160.882 99.2378 160.883L99.357 160.885Z" fill="#15E7BD"/>
<path d="M99.3775 160.212L99.3541 160.977L99.3543 160.977L99.3775 160.212ZM93.9592 166.032L93.1945 166.009L93.1945 166.009L93.9592 166.032ZM99.0116 172.17L98.9883 172.935L98.9883 172.935L99.0116 172.17ZM104.43 166.35L105.195 166.374L105.195 166.374L104.43 166.35ZM99.357 160.885L99.3802 160.12L99.3689 160.12L99.357 160.885ZM103.755 166.33L104.52 166.353L104.52 166.353L103.755 166.33ZM99.0321 171.497L99.0089 172.262L99.0089 172.262L99.0321 171.497ZM94.6336 166.053L93.8689 166.029L93.8689 166.029L94.6336 166.053ZM99.2378 160.883L99.2498 160.118L99.2383 160.118L99.2378 160.883ZM99.4009 159.448C95.9815 159.343 93.3056 162.395 93.1945 166.009L94.724 166.056C94.8153 163.084 96.9678 160.904 99.3541 160.977L99.4009 159.448ZM93.1945 166.009C93.085 169.622 95.5699 172.831 98.9883 172.935L99.0348 171.405C96.6495 171.333 94.6339 169.026 94.724 166.055L93.1945 166.009ZM98.9883 172.935C102.408 173.039 105.083 169.988 105.195 166.374L103.665 166.327C103.574 169.298 101.422 171.478 99.0348 171.405L98.9883 172.935ZM105.195 166.374C105.305 162.76 102.82 159.551 99.4007 159.448L99.3543 160.977C101.74 161.05 103.756 163.356 103.665 166.327L105.195 166.374ZM99.3338 161.65C101.316 161.71 103.071 163.678 102.991 166.306L104.52 166.353C104.619 163.101 102.412 160.213 99.3802 160.12L99.3338 161.65ZM102.991 166.306C102.91 168.935 101.038 170.793 99.0553 170.733L99.0089 172.262C102.041 172.354 104.42 169.606 104.52 166.353L102.991 166.306ZM99.0553 170.733C97.0743 170.672 95.3187 168.704 95.3983 166.076L93.8689 166.029C93.7703 169.281 95.9777 172.17 99.0089 172.262L99.0553 170.733ZM95.3983 166.076C95.4778 163.491 97.2931 161.647 99.2373 161.648L99.2383 160.118C96.2725 160.116 93.9674 162.826 93.8689 166.029L95.3983 166.076ZM99.2259 161.648L99.345 161.65L99.3689 160.12L99.2498 160.118L99.2259 161.648Z" fill="#15E7BD" mask="url(#path-124-inside-3_17_4038)"/>
<path fill-rule="evenodd" clip-rule="evenodd" d="M114.934 165.211C114.839 168.328 112.709 170.792 110.177 170.714C107.644 170.638 105.669 168.049 105.763 164.933C105.859 161.816 107.989 159.352 110.521 159.43C113.054 159.506 115.03 162.095 114.934 165.211Z" fill="#F1F1F1"/>
<path d="M114.889 165.21L114.979 165.213C114.979 165.213 114.979 165.213 114.979 165.213L114.889 165.21C114.889 165.21 114.889 165.21 114.889 165.21ZM114.889 165.21C114.792 168.362 112.635 170.744 110.178 170.669L114.597 165.201L114.889 165.21Z" fill="#15E7BD" stroke="#15E7BD" stroke-width="0.765075"/>
<path d="M105.043 172.036L105.043 172.036L105.043 172.036ZM105.043 172.036L105.045 172.038L104.836 171.893L105.043 172.036Z" fill="#08003F" stroke="#08003F" stroke-width="0.765075"/>
<path d="M102.524 174.498V174.498ZM102.524 174.498V174.498Z" fill="#08003F" stroke="#08003F" stroke-width="0.765075"/>
<path fill-rule="evenodd" clip-rule="evenodd" d="M104.069 164.864C104.069 164.864 104.885 164.24 105.681 164.758Z" fill="white"/>
<path d="M104.069 164.864C104.069 164.864 104.885 164.24 105.681 164.758" stroke="#15E7BD" stroke-width="1.14761" stroke-linecap="round" stroke-linejoin="round"/>
<mask id="path-132-inside-4_17_4038" fill="white">
<path d="M97.9609 180.085C98.6364 180.2 99.4056 180.278 100.251 180.321C101.639 180.392 103.128 180.368 104.563 180.285L105.059 180.253L105.644 180.207C105.784 180.194 105.907 180.296 105.92 180.435C105.933 180.574 105.831 180.697 105.692 180.71L105.462 180.729L105.095 180.757C104.938 180.768 104.77 180.778 104.592 180.789C103.14 180.873 101.634 180.897 100.225 180.825C99.361 180.781 98.5725 180.702 97.8753 180.582C97.7376 180.559 97.6451 180.428 97.6687 180.291C97.69 180.167 97.7981 180.08 97.9199 180.081L97.9609 180.085Z"/>
</mask>
<path d="M97.9609 180.085C98.6364 180.2 99.4056 180.278 100.251 180.321C101.639 180.392 103.128 180.368 104.563 180.285L105.059 180.253L105.644 180.207C105.784 180.194 105.907 180.296 105.92 180.435C105.933 180.574 105.831 180.697 105.692 180.71L105.462 180.729L105.095 180.757C104.938 180.768 104.77 180.778 104.592 180.789C103.14 180.873 101.634 180.897 100.225 180.825C99.361 180.781 98.5725 180.702 97.8753 180.582C97.7376 180.559 97.6451 180.428 97.6687 180.291C97.69 180.167 97.7981 180.08 97.9199 180.081L97.9609 180.085Z" fill="#08003F"/>
<path d="M97.9609 180.085L98.0899 179.331L98.0596 179.325L98.0291 179.323L97.9609 180.085ZM100.251 180.321L100.212 181.085L100.212 181.085L100.251 180.321ZM104.563 180.285L104.607 181.049L104.612 181.048L104.563 180.285ZM105.059 180.253L105.108 181.017L105.119 181.016L105.059 180.253ZM105.644 180.207L105.704 180.97L105.716 180.969L105.644 180.207ZM105.92 180.435L105.158 180.507L105.158 180.507L105.92 180.435ZM105.692 180.71L105.756 181.472L105.763 181.472L105.692 180.71ZM105.462 180.729L105.519 181.492L105.527 181.492L105.462 180.729ZM105.095 180.757L105.148 181.52L105.152 181.52L105.095 180.757ZM104.592 180.789L104.548 180.025L104.548 180.025L104.592 180.789ZM100.225 180.825L100.264 180.061L100.264 180.061L100.225 180.825ZM97.8753 180.582L97.7463 181.336L97.7463 181.336L97.8753 180.582ZM97.6687 180.291L96.9147 180.161L96.9147 180.161L97.6687 180.291ZM97.9199 180.081L97.988 179.319L97.9571 179.316L97.9261 179.316L97.9199 180.081ZM97.8318 180.839C98.5446 180.961 99.3451 181.041 100.212 181.085L100.29 179.557C99.4661 179.515 98.7282 179.44 98.0899 179.331L97.8318 180.839ZM100.212 181.085C101.635 181.158 103.152 181.133 104.607 181.049L104.519 179.521C103.104 179.603 101.644 179.626 100.29 179.557L100.212 181.085ZM104.612 181.048L105.108 181.017L105.011 179.49L104.514 179.521L104.612 181.048ZM105.119 181.016L105.704 180.97L105.585 179.445L105 179.49L105.119 181.016ZM105.716 180.969C105.436 180.995 105.185 180.79 105.158 180.507L106.682 180.364C106.629 179.803 106.131 179.394 105.573 179.446L105.716 180.969ZM105.158 180.507C105.132 180.223 105.34 179.974 105.62 179.948L105.763 181.472C106.321 181.42 106.734 180.925 106.682 180.364L105.158 180.507ZM105.627 179.948L105.398 179.967L105.527 181.492L105.756 181.472L105.627 179.948ZM105.406 179.966L105.038 179.994L105.152 181.52L105.519 181.492L105.406 179.966ZM105.042 179.994C104.888 180.004 104.723 180.015 104.548 180.025L104.637 181.553C104.817 181.542 104.988 181.531 105.148 181.52L105.042 179.994ZM104.548 180.025C103.116 180.108 101.639 180.132 100.264 180.061L100.186 181.589C101.63 181.663 103.164 181.638 104.637 181.553L104.548 180.025ZM100.264 180.061C99.4217 180.018 98.6643 179.941 98.0044 179.828L97.7463 181.336C98.4806 181.462 99.3003 181.544 100.186 181.589L100.264 180.061ZM98.0044 179.828C98.2818 179.876 98.471 180.14 98.4227 180.42L96.9147 180.161C96.8192 180.717 97.1934 181.242 97.7463 181.336L98.0044 179.828ZM98.4227 180.42C98.3792 180.674 98.1593 180.848 97.9136 180.846L97.9261 179.316C97.4368 179.312 97.0007 179.661 96.9147 180.161L98.4227 180.42ZM97.8517 180.843L97.8927 180.847L98.0291 179.323L97.988 179.319L97.8517 180.843Z" fill="#08003F" mask="url(#path-132-inside-4_17_4038)"/>
<path d="M100.889 165.746L100.889 165.747C100.911 166.078 100.855 166.364 100.766 166.556C100.67 166.762 100.583 166.776 100.579 166.776L100.579 166.776C100.574 166.776 100.486 166.773 100.364 166.582C100.251 166.404 100.158 166.128 100.136 165.796L100.136 165.796C100.114 165.464 100.17 165.178 100.259 164.987C100.354 164.781 100.441 164.767 100.446 164.766L100.446 164.766C100.451 164.766 100.539 164.769 100.661 164.961C100.774 165.139 100.867 165.415 100.889 165.746Z" fill="#08003F" stroke="#08003F" stroke-width="0.765075"/>
<path d="M110.444 166.256L110.444 166.256C110.439 166.256 110.35 166.253 110.228 166.062C110.115 165.884 110.022 165.608 110 165.276C109.979 164.944 110.035 164.658 110.123 164.467C110.219 164.261 110.306 164.247 110.311 164.246L110.311 164.246C110.316 164.246 110.404 164.249 110.526 164.441C110.639 164.619 110.732 164.895 110.754 165.227C110.775 165.558 110.719 165.844 110.631 166.036C110.535 166.242 110.448 166.256 110.444 166.256Z" fill="#08003F" stroke="#08003F" stroke-width="0.765075"/>
<path d="M94.2961 166.042L89.8945 166.426" stroke="#15E7BD" stroke-width="1.14761" stroke-linecap="round" stroke-linejoin="round"/>
<path fill-rule="evenodd" clip-rule="evenodd" d="M109.683 187.192L108.921 187.163C109.41 191.74 92.1298 192.128 89.5478 186.784C89.4824 186.648 89.4304 186.52 89.3879 186.398L87.285 186.316L85.1064 265.887C85.1064 265.887 100.053 272.541 114.577 267.376C121.889 203.937 109.683 187.192 109.683 187.192Z" fill="#15E7BD"/>
<path d="M91.2606 192.919C91.3209 192.79 91.4748 192.734 91.6043 192.794L91.6818 192.828L91.766 192.865C91.9022 192.922 92.0623 192.987 92.245 193.057C92.7687 193.257 93.3674 193.457 94.0308 193.644C98.0878 194.788 102.371 194.912 106.371 193.36C106.636 193.258 106.898 193.148 107.158 193.031C107.289 192.972 107.442 193.03 107.501 193.16C107.56 193.29 107.502 193.443 107.371 193.501C107.103 193.622 106.832 193.736 106.559 193.842C102.438 195.44 98.0459 195.313 93.89 194.141C93.2111 193.95 92.5977 193.744 92.06 193.539L91.8444 193.455C91.7763 193.428 91.7119 193.402 91.6512 193.377L91.3859 193.262C91.2564 193.202 91.2003 193.048 91.2606 192.919Z" fill="#08003F"/>
<path fill-rule="evenodd" clip-rule="evenodd" d="M106.636 185.086C106.636 185.086 110.877 195.242 111.232 234.785C111.514 266.279 109.986 321.249 109.986 321.249C109.986 321.249 123.725 320.221 126.512 314.995C129.386 309.607 129.465 269.667 129.282 249.526C128.951 212.846 130.164 204.549 127.192 196.341C123.766 194.366 118.345 191.462 113.049 188.58C111.762 187.88 109.526 185.997 108.709 185.546C106.487 184.321 106.636 185.086 106.636 185.086Z" fill="#08003F"/>
<path d="M126.455 203.945C126.64 203.921 126.809 204.05 126.834 204.235L126.901 204.756L127.041 205.907C127.088 206.307 127.138 206.738 127.19 207.2L127.29 208.103C127.523 210.242 127.754 212.605 127.971 215.152C128.784 224.66 129.221 234.432 129.084 243.821C129.081 244.006 128.928 244.155 128.742 244.152C128.556 244.15 128.407 243.997 128.41 243.811C128.54 234.822 128.144 225.476 127.395 216.349L127.299 215.209C127.066 212.486 126.818 209.974 126.569 207.722L126.428 206.479C126.389 206.141 126.351 205.821 126.315 205.522L126.165 204.323C126.141 204.139 126.27 203.97 126.455 203.945Z" fill="#A3B5D6"/>
<path fill-rule="evenodd" clip-rule="evenodd" d="M69.5477 192.567C74.966 190.124 80.8666 189.213 84.3034 187.373C86.5042 186.194 88.2873 184.582 90.0098 184.055C100.252 233.597 96.0953 295.177 93.4587 323.523C80.4774 324.911 67.8145 314.995 67.8145 314.995C67.8145 314.995 68.7482 269.585 70.5739 243.815C72.0919 222.379 68.1619 193.192 69.5477 192.567Z" fill="#08003F"/>
<path d="M89.6826 183.6C89.8383 183.498 90.0474 183.542 90.1497 183.697C90.2427 183.838 90.2154 184.023 90.0927 184.133L90.053 184.163L84.7946 187.61L84.781 187.865L84.7759 187.977C84.6959 189.834 84.7526 192.37 85.049 195.515C85.4677 199.955 86.3019 204.828 87.6445 210.069L87.7903 210.632C88.0382 211.578 88.2823 212.502 88.5453 213.489L90.4492 220.581C91.3664 224.017 91.9621 226.375 92.4882 228.713C93.58 233.566 94.3013 238.133 94.8555 243.961C94.8731 244.147 94.737 244.311 94.5515 244.328C94.366 244.346 94.2014 244.21 94.1838 244.025C93.6496 238.406 92.9601 233.97 91.9306 229.312L91.7276 228.41C91.2971 226.527 90.8104 224.584 90.1359 222.029L89.4561 219.481L88.0716 214.331C87.7384 213.084 87.4408 211.96 87.1376 210.802C85.6999 205.311 84.8142 200.213 84.3773 195.578C84.0779 192.402 84.0205 189.835 84.1019 187.948L84.1235 187.536C84.128 187.465 84.1315 187.417 84.1336 187.392C84.1408 187.306 84.1806 187.227 84.2439 187.17L84.2845 187.139L89.6826 183.6Z" fill="#15E7BD"/>
<path d="M106.565 184.282C106.655 184.14 106.835 184.087 106.986 184.154L107.03 184.177L113.608 188.31C113.688 188.36 113.743 188.441 113.76 188.534L113.795 188.742L113.861 189.178C113.874 189.268 113.887 189.364 113.901 189.465L113.922 189.62C114.042 190.529 114.161 191.639 114.273 192.958L114.33 193.65C115.229 205.051 114.943 221.893 112.668 244.894C112.65 245.079 112.485 245.215 112.299 245.196C112.114 245.178 111.978 245.013 111.997 244.828L112.133 243.43C114.323 220.718 114.544 204.153 113.601 193.015L113.553 192.467C113.456 191.396 113.354 190.478 113.253 189.708L113.174 189.145L113.129 188.849L113.12 188.799L106.67 184.747C106.527 184.657 106.475 184.477 106.541 184.327L106.565 184.282Z" fill="#15E7BD"/>
<path d="M69.9777 260.612L81.5591 262.668C81.7099 262.695 81.8217 262.819 81.8358 262.967L81.8371 263.013L80.8891 287.118C80.801 289.359 78.7879 291.019 76.5797 290.704L76.4653 290.686L68.3793 289.287C68.1958 289.255 68.0728 289.081 68.1046 288.898C68.1338 288.73 68.283 288.613 68.449 288.619L68.4947 288.624L76.5806 290.023C78.3969 290.338 80.078 289.015 80.2092 287.195L80.215 287.092L81.1511 263.279L69.8595 261.275C69.6914 261.245 69.5746 261.096 69.5815 260.93L69.5865 260.885C69.6164 260.717 69.766 260.601 69.9321 260.607L69.9777 260.612Z" fill="#15E7BD"/>
<path d="M126.944 261.552C127.123 261.499 127.311 261.6 127.364 261.778C127.413 261.941 127.332 262.112 127.181 262.181L127.138 262.197L121.385 263.915L120.798 289.398C120.783 290.018 121.394 290.452 121.969 290.255L122.031 290.231L127.631 287.848C127.802 287.775 128 287.854 128.073 288.025C128.14 288.182 128.079 288.361 127.936 288.446L127.895 288.467L122.295 290.85C121.276 291.284 120.15 290.549 120.123 289.46V289.382L120.716 263.656C120.719 263.526 120.796 263.411 120.912 263.358L120.957 263.341L126.944 261.552Z" fill="#15E7BD"/>
<path d="M127.151 204.685L127.151 204.685L172.095 204.264C173.675 204.249 174.817 205.765 174.364 207.275L174.364 207.275L164.889 238.875L164.889 238.875C164.595 239.858 163.692 240.535 162.663 240.545L117.721 240.966C117.721 240.966 117.721 240.966 117.721 240.966C116.14 240.981 114.998 239.465 115.451 237.955L124.926 206.355C125.221 205.372 126.123 204.695 127.151 204.685Z" fill="#F1F1F1" stroke="#08003F" stroke-width="0.382538"/>
<path fill-rule="evenodd" clip-rule="evenodd" d="M164.564 240.736L119.622 241.158C117.913 241.173 116.677 239.534 117.167 237.9L126.642 206.3C126.962 205.237 127.937 204.504 129.049 204.494L173.993 204.073C175.701 204.057 176.937 205.696 176.447 207.33L166.972 238.93C166.653 239.994 165.677 240.725 164.564 240.736Z" fill="#15E7BD"/>
<path d="M174.417 229.768L174.417 229.768L174.32 229.881L174.406 230.003L174.407 230.003L174.407 230.003L174.407 230.003L174.407 230.003L174.409 230.006L174.418 230.02C174.426 230.032 174.439 230.052 174.454 230.078C174.485 230.13 174.529 230.207 174.575 230.305C174.667 230.502 174.769 230.779 174.81 231.104C174.892 231.741 174.744 232.582 173.763 233.375L173.694 233.432L173.693 233.522C173.68 234.674 173.302 235.367 172.943 235.769C172.762 235.972 172.583 236.105 172.451 236.186C172.385 236.227 172.33 236.255 172.294 236.272C172.276 236.28 172.262 236.286 172.253 236.29L172.244 236.293L172.244 236.294L172.244 236.294L172.243 236.294L172.243 236.294L172.243 236.294L172.074 236.354L172.125 236.527L172.125 236.527L172.125 236.527L172.125 236.527L172.125 236.527L172.126 236.53L172.129 236.544C172.133 236.557 172.137 236.577 172.143 236.603C172.154 236.655 172.167 236.731 172.177 236.825C172.198 237.014 172.202 237.27 172.143 237.54C172.085 237.81 171.964 238.092 171.733 238.343C171.502 238.593 171.153 238.821 170.623 238.967C169.567 239.258 168.116 238.954 167.132 238.27C166.643 237.93 166.287 237.509 166.145 237.042C166.005 236.582 166.062 236.052 166.447 235.467L166.506 235.378L166.461 235.281C165.996 234.281 166.21 233.57 166.524 233.105C166.684 232.867 166.874 232.69 167.025 232.571C167.1 232.512 167.165 232.468 167.21 232.44C167.233 232.426 167.25 232.415 167.262 232.409L167.274 232.402L167.276 232.4L167.277 232.4L167.277 232.4L167.277 232.4L167.277 232.4L167.417 232.326L167.37 232.175L167.37 232.175L167.37 232.175L167.37 232.175L167.37 232.174L167.369 232.172L167.365 232.159C167.362 232.147 167.357 232.129 167.352 232.105C167.341 232.057 167.326 231.985 167.314 231.896C167.29 231.717 167.276 231.471 167.316 231.199C167.394 230.662 167.681 230.017 168.548 229.584L168.762 229.477L168.61 229.292C168.188 228.776 168.053 228.265 168.082 227.866C168.112 227.461 168.306 227.189 168.523 227.094L168.525 227.093L168.537 227.088L168.586 227.068C168.628 227.05 168.69 227.024 168.77 226.991C168.931 226.926 169.161 226.833 169.442 226.724C170.004 226.505 170.767 226.221 171.571 225.959C172.376 225.696 173.218 225.457 173.939 225.326C174.3 225.261 174.625 225.224 174.898 225.223C175.175 225.222 175.378 225.259 175.507 225.325C175.74 225.445 175.892 225.594 175.987 225.762C176.083 225.93 176.128 226.127 176.128 226.349C176.13 226.799 175.951 227.325 175.695 227.841C175.441 228.353 175.122 228.835 174.864 229.191C174.736 229.368 174.624 229.513 174.544 229.613C174.504 229.664 174.472 229.703 174.45 229.729L174.425 229.758L174.419 229.766L174.417 229.767L174.417 229.768L174.417 229.768Z" fill="#F1F1F1" stroke="#08003F" stroke-width="0.382538"/>
<path d="M173.592 228.548C173.625 228.543 173.655 228.565 173.66 228.597C173.664 228.623 173.649 228.649 173.625 228.66L173.603 228.665L168.471 229.471C168.439 229.476 168.409 229.454 168.404 229.422C168.4 229.396 168.414 229.37 168.439 229.359L168.461 229.354L173.592 228.548Z" fill="#F1F1F1" stroke="#08003F" stroke-width="0.382538"/>
<path d="M167.2 232.173L171.678 232.603C171.711 232.606 171.735 232.635 171.732 232.667C171.729 232.693 171.708 232.715 171.682 232.719L171.659 232.718L167.181 232.289C167.148 232.286 167.125 232.257 167.128 232.225C167.131 232.199 167.151 232.177 167.178 232.173L167.2 232.173Z" fill="#F1F1F1" stroke="#08003F" stroke-width="0.382538"/>
<path d="M166.284 235.303L166.306 235.306L170.471 236.109C170.503 236.115 170.524 236.146 170.518 236.178C170.512 236.204 170.49 236.223 170.463 236.225L170.441 236.222L166.276 235.419C166.244 235.413 166.223 235.382 166.229 235.351C166.235 235.324 166.257 235.305 166.284 235.303Z" fill="#F1F1F1" stroke="#08003F" stroke-width="0.382538"/>
<path fill-rule="evenodd" clip-rule="evenodd" d="M61.6198 243.139C56.6037 241.798 53.6263 236.654 54.9716 231.65L63.8429 198.62C65.1868 193.616 70.3433 190.646 75.3588 191.987C80.3757 193.329 83.3523 198.472 82.0084 203.477L73.1365 236.506C71.7919 241.511 66.6367 244.48 61.6198 243.139Z" fill="#08003F"/>
<path d="M113.199 244.108L113.191 244.106L113.183 244.105L113.183 244.105L113.182 244.105L113.178 244.105L113.162 244.103C113.148 244.102 113.127 244.099 113.098 244.096C113.042 244.089 112.959 244.078 112.852 244.063C112.638 244.033 112.331 243.985 111.957 243.913C111.211 243.769 110.204 243.532 109.161 243.156C107.058 242.4 104.881 241.112 104.297 238.977L104.297 238.977C103.764 237.03 104.436 235.688 105.24 234.824C105.644 234.389 106.083 234.075 106.422 233.869C106.592 233.767 106.735 233.691 106.835 233.642C106.885 233.618 106.925 233.6 106.951 233.588C106.964 233.582 106.974 233.578 106.981 233.575L106.988 233.572L106.989 233.572L106.989 233.572L106.989 233.572L106.989 233.572L107.003 233.566L107.016 233.558L107.016 233.558L107.016 233.558L107.016 233.558L107.018 233.557L107.025 233.553L107.056 233.535C107.083 233.519 107.123 233.496 107.177 233.465C107.283 233.405 107.442 233.318 107.647 233.21C108.057 232.996 108.653 232.702 109.395 232.386C110.878 231.754 112.94 231.035 115.255 230.685L115.255 230.685C116.785 230.454 119.028 230.266 120.942 230.332C121.9 230.365 122.765 230.462 123.414 230.643C123.738 230.734 123.999 230.843 124.189 230.97C124.378 231.097 124.485 231.232 124.526 231.373L124.526 231.373C124.586 231.577 124.555 231.745 124.458 231.897C124.355 232.057 124.172 232.211 123.911 232.358C123.387 232.653 122.623 232.882 121.811 233.102C121.669 233.141 121.526 233.179 121.382 233.217C120.719 233.394 120.055 233.57 119.529 233.777C119.208 233.902 118.922 234.045 118.713 234.215C118.502 234.386 118.348 234.603 118.342 234.875L118.342 234.876C118.332 235.306 118.418 235.655 118.619 235.952C118.817 236.245 119.115 236.468 119.492 236.671C119.868 236.873 120.341 237.064 120.902 237.282C120.998 237.32 121.097 237.358 121.198 237.397C121.694 237.589 122.258 237.807 122.895 238.076L122.895 238.076C123.733 238.43 124.625 238.642 125.474 238.843C125.62 238.878 125.764 238.912 125.906 238.946C126.89 239.185 127.788 239.44 128.507 239.92L128.507 239.92C128.845 240.145 129.023 240.396 129.083 240.65C129.142 240.903 129.091 241.191 128.909 241.504C128.538 242.138 127.653 242.827 126.281 243.402C123.548 244.546 118.992 245.192 113.199 244.108Z" fill="#F1F1F1" stroke="#08003F" stroke-width="0.382538"/>
<path d="M119.198 239.25L119.198 239.25C119.178 239.277 119.182 239.315 119.209 239.336L119.209 239.336C119.222 239.346 119.243 239.361 119.272 239.382L119.432 239.49C119.522 239.55 119.624 239.614 119.737 239.681C120.169 239.938 120.678 240.195 121.262 240.436C123.193 241.23 125.452 241.652 128.005 241.503C128.039 241.501 128.065 241.472 128.063 241.439C128.061 241.405 128.032 241.379 127.997 241.381C125.468 241.529 123.226 241.111 121.31 240.323C120.733 240.086 120.229 239.831 119.801 239.576M119.198 239.25L119.801 239.576M119.198 239.25C119.219 239.224 119.258 239.218 119.285 239.239L119.285 239.239M119.198 239.25L119.285 239.239M119.801 239.576C119.652 239.488 119.523 239.405 119.414 239.331M119.801 239.576L119.414 239.331M119.285 239.239L119.29 239.243M119.285 239.239L119.29 239.243M119.29 239.243L119.376 239.305L119.376 239.305M119.29 239.243L119.376 239.305M119.376 239.305L119.379 239.307M119.376 239.305L119.379 239.307M119.379 239.307L119.414 239.331L119.414 239.331M119.379 239.307L119.414 239.331M119.414 239.331L119.414 239.331M119.414 239.331L119.414 239.331" fill="#F1F1F1" stroke="#08003F" stroke-width="0.382538"/>
<path d="M124.92 243.123L124.921 243.123L125.083 243.116L125.083 243.116L125.084 243.116C125.186 243.111 125.258 243.106 125.296 243.103C125.33 243.1 125.36 243.125 125.363 243.158C125.366 243.191 125.342 243.221 125.308 243.224L125.149 243.235L125.09 243.238C125.09 243.238 125.09 243.238 125.09 243.238C123.082 243.334 120.626 243.04 118.26 242.021C118.082 241.945 117.906 241.864 117.733 241.78C117.702 241.765 117.69 241.729 117.704 241.699C117.719 241.668 117.756 241.655 117.787 241.67C117.959 241.754 118.133 241.833 118.309 241.909C119.642 242.483 121.067 242.836 122.512 243.009C123.428 243.118 124.248 243.146 124.92 243.123Z" fill="#F1F1F1" stroke="#08003F" stroke-width="0.382538"/>
<path d="M115.273 243.093L115.273 243.093L115.277 243.095L115.338 243.131L115.338 243.131L115.341 243.133C115.432 243.184 115.574 243.255 115.766 243.342C116.186 243.531 116.697 243.72 117.302 243.896C118.541 244.256 120.008 244.516 121.711 244.634C121.746 244.636 121.771 244.666 121.769 244.699C121.766 244.732 121.737 244.758 121.703 244.756C119.986 244.637 118.511 244.374 117.268 244.013C116.655 243.835 116.139 243.644 115.716 243.454L115.555 243.379C115.385 243.298 115.27 243.235 115.208 243.196C115.179 243.178 115.17 243.141 115.188 243.112C115.206 243.084 115.244 243.075 115.273 243.093Z" fill="#F1F1F1" stroke="#08003F" stroke-width="0.382538"/>
<path fill-rule="evenodd" clip-rule="evenodd" d="M109.281 228.564L108.81 244.626L64.9184 244.694C59.7275 244.543 55.6423 240.222 55.7941 235.043C55.9453 229.864 60.2766 225.789 65.4682 225.94L109.281 228.564Z" fill="#08003F"/>
<path d="M68.3818 224.979L109.545 228.235C109.709 228.248 109.838 228.377 109.854 228.536L109.855 228.581L109.384 244.644C109.38 244.81 109.254 244.946 109.093 244.967L109.048 244.97L64.9189 245.03C64.7325 245.03 64.5811 244.88 64.5811 244.694C64.5811 244.524 64.7075 244.383 64.8722 244.36L64.9179 244.357L108.719 244.297L109.171 228.881L68.3285 225.65C68.1583 225.636 68.0276 225.499 68.0183 225.333L68.0189 225.288C68.0324 225.118 68.1701 224.988 68.336 224.978L68.3818 224.979Z" fill="#15E7BD"/>
<path d="M102.478 229.266C102.649 229.271 102.786 229.402 102.803 229.567L102.805 229.612L102.406 243.252C102.4 243.437 102.245 243.584 102.059 243.578C101.888 243.573 101.751 243.442 101.733 243.278L101.731 243.232L102.131 229.593C102.136 229.407 102.292 229.261 102.478 229.266Z" fill="#15E7BD"/>
<path d="M96.7816 374.626L112.466 344.427C112.772 344.427 113.358 349.014 113.613 351.307" stroke="#08003F" stroke-width="0.382538" stroke-linecap="round"/>
<ellipse cx="148.042" cy="223.629" rx="5.73806" ry="5.73407" fill="#08003F"/>
</g>
<defs>
<clipPath id="clip0_17_4038">
<rect width="511.835" height="425.086" fill="white" transform="translate(93.3389)"/>
</clipPath>
<clipPath id="clip1_17_4038">
<rect width="47.4138" height="47.4225" fill="white" transform="matrix(-0.606541 -0.795052 -0.795459 0.606007 495.688 239.536)"/>
</clipPath>
<clipPath id="clip2_17_4038">
<rect width="230.288" height="459.49" fill="white" transform="translate(0 31.3462)"/>
</clipPath>
</defs>
</svg>
