<svg width="145" height="145" viewBox="0 0 145 145" fill="none" xmlns="http://www.w3.org/2000/svg">
<circle cx="45.3127" cy="45.3127" r="12.0833" stroke="#15E7BD" stroke-width="6.04167"/>
<path d="M33.229 87.604L54.3748 66.4582L60.4165 72.4998M69.479 81.5623L60.4165 72.4998M60.4165 72.4998L90.6248 42.2915L108.75 60.4165" stroke="#08003F" stroke-width="6.04167" stroke-linecap="square"/>
<path d="M75.521 123.854L78.5418 107.944L107.542 78.9444L113.986 72.5L126.875 85.3889L120.431 91.8333L91.4307 120.833L75.521 123.854Z" fill="white"/>
<path d="M78.5418 107.944L75.521 123.854L91.4307 120.833M78.5418 107.944L107.542 78.9444M78.5418 107.944L91.4307 120.833M91.4307 120.833L120.431 91.8333M107.542 78.9444L113.986 72.5L126.875 85.3889L120.431 91.8333M107.542 78.9444L120.431 91.8333" stroke="#08003F" stroke-width="6.04167" stroke-linecap="square"/>
<mask id="path-5-inside-1_14_5107" fill="white">
<path fill-rule="evenodd" clip-rule="evenodd" d="M51.9608 91.4104C51.9608 90.9766 51.6091 90.625 51.1754 90.625H45.4962C45.0624 90.625 44.7108 90.9766 44.7108 91.4104V95.3602C44.7108 95.7119 44.4762 96.0184 44.1424 96.129C43.5316 96.3314 42.9404 96.5769 42.3725 96.8618C42.0583 97.0195 41.676 96.9686 41.4274 96.72L38.6314 93.924C38.3247 93.6173 37.8274 93.6173 37.5207 93.924L33.5049 97.9398C33.1982 98.2465 33.1982 98.7438 33.5049 99.0505L36.2997 101.845C36.5483 102.094 36.5992 102.476 36.4414 102.791C36.1568 103.357 35.9115 103.947 35.7091 104.556C35.5983 104.89 35.292 105.124 34.9405 105.124H30.9934C30.5597 105.124 30.208 105.476 30.208 105.91L30.208 111.589C30.208 112.023 30.5596 112.374 30.9934 112.374H34.9408C35.2923 112.374 35.5986 112.609 35.7094 112.942C35.9121 113.552 36.1577 114.143 36.4428 114.71C36.6007 115.024 36.5498 115.407 36.3012 115.655L33.5105 118.446C33.2038 118.753 33.2038 119.25 33.5105 119.557L37.5263 123.572C37.833 123.879 38.3303 123.879 38.637 123.572L41.4303 120.779C41.6788 120.531 42.0611 120.48 42.3752 120.637C42.9423 120.922 43.5325 121.167 44.1424 121.369C44.4762 121.479 44.7108 121.786 44.7108 122.137V126.09C44.7108 126.523 45.0624 126.875 45.4962 126.875H51.1754C51.6091 126.875 51.9608 126.523 51.9608 126.09V122.131C51.9608 121.78 52.1948 121.474 52.528 121.363C53.134 121.161 53.7206 120.917 54.2842 120.634C54.5984 120.476 54.9809 120.527 55.2296 120.775L58.0268 123.572C58.3335 123.879 58.8308 123.879 59.1375 123.572L63.1533 119.557C63.46 119.25 63.46 118.753 63.1533 118.446L60.3549 115.648C60.1064 115.399 60.0554 115.017 60.2131 114.702C60.4966 114.137 60.741 113.55 60.9428 112.942C61.0536 112.609 61.3599 112.374 61.7114 112.374H65.6726C66.1064 112.374 66.458 112.023 66.458 111.589V105.91C66.458 105.476 66.1064 105.124 65.6726 105.124H61.7117C61.3602 105.124 61.0539 104.89 60.9431 104.556C60.7416 103.95 60.4975 103.362 60.2144 102.798C60.0569 102.484 60.1079 102.102 60.3564 101.853L63.1589 99.0505C63.4656 98.7438 63.4656 98.2465 63.1589 97.9398L59.1431 93.924C58.8364 93.6173 58.3391 93.6173 58.0324 93.924L55.2325 96.7239C54.9838 96.9726 54.6012 97.0234 54.287 96.8655C53.7225 96.5818 53.135 96.3371 52.528 96.135C52.1948 96.0241 51.9608 95.7178 51.9608 95.3666V91.4104ZM48.3215 114.792C51.6583 114.792 54.3632 112.087 54.3632 108.75C54.3632 105.413 51.6583 102.708 48.3215 102.708C44.9848 102.708 42.2799 105.413 42.2799 108.75C42.2799 112.087 44.9848 114.792 48.3215 114.792Z"/>
</mask>
<path fill-rule="evenodd" clip-rule="evenodd" d="M51.9608 91.4104C51.9608 90.9766 51.6091 90.625 51.1754 90.625H45.4962C45.0624 90.625 44.7108 90.9766 44.7108 91.4104V95.3602C44.7108 95.7119 44.4762 96.0184 44.1424 96.129C43.5316 96.3314 42.9404 96.5769 42.3725 96.8618C42.0583 97.0195 41.676 96.9686 41.4274 96.72L38.6314 93.924C38.3247 93.6173 37.8274 93.6173 37.5207 93.924L33.5049 97.9398C33.1982 98.2465 33.1982 98.7438 33.5049 99.0505L36.2997 101.845C36.5483 102.094 36.5992 102.476 36.4414 102.791C36.1568 103.357 35.9115 103.947 35.7091 104.556C35.5983 104.89 35.292 105.124 34.9405 105.124H30.9934C30.5597 105.124 30.208 105.476 30.208 105.91L30.208 111.589C30.208 112.023 30.5596 112.374 30.9934 112.374H34.9408C35.2923 112.374 35.5986 112.609 35.7094 112.942C35.9121 113.552 36.1577 114.143 36.4428 114.71C36.6007 115.024 36.5498 115.407 36.3012 115.655L33.5105 118.446C33.2038 118.753 33.2038 119.25 33.5105 119.557L37.5263 123.572C37.833 123.879 38.3303 123.879 38.637 123.572L41.4303 120.779C41.6788 120.531 42.0611 120.48 42.3752 120.637C42.9423 120.922 43.5325 121.167 44.1424 121.369C44.4762 121.479 44.7108 121.786 44.7108 122.137V126.09C44.7108 126.523 45.0624 126.875 45.4962 126.875H51.1754C51.6091 126.875 51.9608 126.523 51.9608 126.09V122.131C51.9608 121.78 52.1948 121.474 52.528 121.363C53.134 121.161 53.7206 120.917 54.2842 120.634C54.5984 120.476 54.9809 120.527 55.2296 120.775L58.0268 123.572C58.3335 123.879 58.8308 123.879 59.1375 123.572L63.1533 119.557C63.46 119.25 63.46 118.753 63.1533 118.446L60.3549 115.648C60.1064 115.399 60.0554 115.017 60.2131 114.702C60.4966 114.137 60.741 113.55 60.9428 112.942C61.0536 112.609 61.3599 112.374 61.7114 112.374H65.6726C66.1064 112.374 66.458 112.023 66.458 111.589V105.91C66.458 105.476 66.1064 105.124 65.6726 105.124H61.7117C61.3602 105.124 61.0539 104.89 60.9431 104.556C60.7416 103.95 60.4975 103.362 60.2144 102.798C60.0569 102.484 60.1079 102.102 60.3564 101.853L63.1589 99.0505C63.4656 98.7438 63.4656 98.2465 63.1589 97.9398L59.1431 93.924C58.8364 93.6173 58.3391 93.6173 58.0324 93.924L55.2325 96.7239C54.9838 96.9726 54.6012 97.0234 54.287 96.8655C53.7225 96.5818 53.135 96.3371 52.528 96.135C52.1948 96.0241 51.9608 95.7178 51.9608 95.3666V91.4104ZM48.3215 114.792C51.6583 114.792 54.3632 112.087 54.3632 108.75C54.3632 105.413 51.6583 102.708 48.3215 102.708C44.9848 102.708 42.2799 105.413 42.2799 108.75C42.2799 112.087 44.9848 114.792 48.3215 114.792Z" fill="white"/>
<path d="M52.528 96.135L53.4823 93.2689L52.528 96.135ZM55.2325 96.7239L57.3685 98.8599L55.2325 96.7239ZM54.287 96.8655L52.9304 99.5646L54.287 96.8655ZM59.1431 93.924L57.007 96.0601L59.1431 93.924ZM58.0324 93.924L55.8963 91.788L58.0324 93.924ZM63.1589 99.0505L61.0228 96.9145L63.1589 99.0505ZM63.1589 97.9398L61.0228 100.076L63.1589 97.9398ZM60.2144 102.798L62.9147 101.444L60.2144 102.798ZM60.3564 101.853L62.4924 103.989L60.3564 101.853ZM60.9431 104.556L63.8099 103.604L60.9431 104.556ZM60.9428 112.942L63.8096 113.894L60.9428 112.942ZM60.3549 115.648L62.491 113.511L60.3549 115.648ZM60.2131 114.702L57.5131 113.348L60.2131 114.702ZM63.1533 119.557L65.2893 121.693L63.1533 119.557ZM58.0268 123.572L55.8907 125.708L58.0268 123.572ZM59.1375 123.572L57.0015 121.436L59.1375 123.572ZM52.528 121.363L53.4823 124.229L52.528 121.363ZM44.1424 121.369L45.0925 118.501L44.1424 121.369ZM41.4303 120.779L39.2943 118.643L41.4303 120.779ZM42.3752 120.637L41.021 123.337L42.3752 120.637ZM37.5263 123.572L39.6623 121.436L37.5263 123.572ZM38.637 123.572L40.7731 125.708L38.637 123.572ZM33.5105 118.446L35.6465 120.582L33.5105 118.446ZM33.5105 119.557L35.6465 117.421L33.5105 119.557ZM36.4428 114.71L33.7437 116.066L36.4428 114.71ZM36.3012 115.655L34.1651 113.519L36.3012 115.655ZM35.7094 112.942L38.5762 111.99L35.7094 112.942ZM35.7091 104.556L32.8422 103.604L35.7091 104.556ZM36.2997 101.845L34.1636 103.981L36.2997 101.845ZM36.4414 102.791L39.1408 104.147L36.4414 102.791ZM38.6314 93.924L36.4954 96.0601L38.6314 93.924ZM41.4274 96.72L43.5635 94.584L41.4274 96.72ZM44.1424 96.129L43.1922 93.2615L44.1424 96.129ZM45.4962 93.6458H51.1754V87.6042H45.4962V93.6458ZM47.7316 95.3602V91.4104H41.6899V95.3602H47.7316ZM43.7274 99.5618C44.1657 99.3418 44.6217 99.1525 45.0925 98.9965L43.1922 93.2615C42.4414 93.5102 41.7151 93.8119 41.0176 94.1619L43.7274 99.5618ZM36.4954 96.0601L39.2914 98.8561L43.5635 94.584L40.7675 91.788L36.4954 96.0601ZM35.6409 100.076L39.6567 96.0601L35.3846 91.788L31.3688 95.8037L35.6409 100.076ZM38.4358 99.7093L35.6409 96.9145L31.3688 101.187L34.1636 103.981L38.4358 99.7093ZM38.576 105.509C38.732 105.039 38.9211 104.584 39.1408 104.147L33.742 101.435C33.3924 102.131 33.091 102.855 32.8422 103.604L38.576 105.509ZM30.9934 108.145H34.9405V102.103H30.9934V108.145ZM33.2288 111.589L33.2288 105.91H27.1872L27.1872 111.589H33.2288ZM34.9408 109.353H30.9934V115.395H34.9408V109.353ZM39.1419 113.353C38.9218 112.915 38.7324 112.46 38.5762 111.99L32.8426 113.894C33.0917 114.644 33.3936 115.37 33.7437 116.066L39.1419 113.353ZM35.6465 120.582L38.4372 117.791L34.1651 113.519L31.3744 116.31L35.6465 120.582ZM39.6623 121.436L35.6465 117.421L31.3744 121.693L35.3902 125.708L39.6623 121.436ZM39.2943 118.643L36.501 121.436L40.7731 125.708L43.5664 122.915L39.2943 118.643ZM45.0925 118.501C44.6224 118.345 44.1672 118.156 43.7295 117.937L41.021 123.337C41.7174 123.687 42.4427 123.988 43.1922 124.236L45.0925 118.501ZM47.7316 126.09V122.137H41.6899V126.09H47.7316ZM51.1754 123.854H45.4962V129.896H51.1754V123.854ZM48.9399 122.131V126.09H54.9816V122.131H48.9399ZM52.9283 117.934C52.4932 118.153 52.0408 118.341 51.5737 118.496L53.4823 124.229C54.2272 123.981 54.9479 123.681 55.6402 123.333L52.9283 117.934ZM60.1628 121.436L57.3656 118.639L53.0935 122.911L55.8907 125.708L60.1628 121.436ZM61.0172 117.421L57.0015 121.436L61.2736 125.708L65.2893 121.693L61.0172 117.421ZM58.2188 117.784L61.0172 120.582L65.2893 116.31L62.491 113.511L58.2188 117.784ZM58.076 111.99C57.9204 112.458 57.732 112.911 57.5131 113.348L62.913 116.057C63.2612 115.363 63.5615 114.641 63.8096 113.894L58.076 111.99ZM65.6726 109.353H61.7114V115.395H65.6726V109.353ZM63.4372 105.91V111.589H69.4788V105.91H63.4372ZM61.7117 108.145H65.6726V102.103H61.7117V108.145ZM57.5142 104.152C57.7327 104.588 57.9209 105.041 58.0762 105.509L63.8099 103.604C63.5622 102.859 63.2623 102.137 62.9147 101.444L57.5142 104.152ZM61.0228 96.9145L58.2203 99.717L62.4924 103.989L65.2949 101.187L61.0228 96.9145ZM57.007 96.0601L61.0228 100.076L65.2949 95.8038L61.2792 91.788L57.007 96.0601ZM57.3685 98.8599L60.1684 96.0601L55.8963 91.788L53.0964 94.5878L57.3685 98.8599ZM51.5737 99.0012C52.0416 99.1569 52.4947 99.3456 52.9304 99.5646L55.6435 94.1664C54.9502 93.8179 54.2284 93.5173 53.4823 93.2689L51.5737 99.0012ZM48.9399 91.4104V95.3666H54.9816V91.4104H48.9399ZM51.3424 108.75C51.3424 110.418 49.9899 111.771 48.3215 111.771V117.813C53.3266 117.813 57.384 113.755 57.384 108.75H51.3424ZM48.3215 105.729C49.9899 105.729 51.3424 107.082 51.3424 108.75H57.384C57.384 103.745 53.3266 99.6875 48.3215 99.6875V105.729ZM45.3007 108.75C45.3007 107.082 46.6532 105.729 48.3215 105.729V99.6875C43.3165 99.6875 39.259 103.745 39.259 108.75H45.3007ZM48.3215 111.771C46.6532 111.771 45.3007 110.418 45.3007 108.75H39.259C39.259 113.755 43.3165 117.813 48.3215 117.813V111.771ZM53.4823 93.2689C54.3069 93.5434 54.9816 94.3387 54.9816 95.3666H48.9399C48.9399 97.097 50.0826 98.5047 51.5737 99.0012L53.4823 93.2689ZM53.0964 94.5878C53.8242 93.8601 54.8654 93.7753 55.6435 94.1664L52.9304 99.5646C54.3369 100.272 56.1434 100.085 57.3685 98.8599L53.0964 94.5878ZM61.2792 91.788C59.7927 90.3015 57.3827 90.3015 55.8963 91.788L60.1684 96.0601C59.2954 96.9331 57.88 96.9331 57.007 96.0601L61.2792 91.788ZM65.2949 101.187C66.7814 99.7002 66.7814 97.2902 65.2949 95.8038L61.0228 100.076C60.1498 99.2029 60.1498 97.7875 61.0228 96.9145L65.2949 101.187ZM62.9147 101.444C63.3048 102.222 63.2196 103.262 62.4924 103.989L58.2203 99.717C56.9961 100.941 56.809 102.746 57.5142 104.152L62.9147 101.444ZM61.7117 102.103C62.7403 102.103 63.5358 102.779 63.8099 103.604L58.0762 105.509C58.5719 107.001 59.9801 108.145 61.7117 108.145V102.103ZM69.4788 105.91C69.4788 103.808 67.7747 102.103 65.6726 102.103V108.145C64.438 108.145 63.4372 107.144 63.4372 105.91H69.4788ZM65.6726 115.395C67.7747 115.395 69.4788 113.691 69.4788 111.589H63.4372C63.4372 110.354 64.438 109.353 65.6726 109.353V115.395ZM63.8096 113.894C63.5354 114.72 62.7399 115.395 61.7114 115.395V109.353C59.9799 109.353 58.5717 110.498 58.076 111.99L63.8096 113.894ZM62.491 113.511C63.2183 114.239 63.3034 115.279 62.913 116.057L57.5131 113.348C56.8074 114.754 56.9944 116.559 58.2188 117.784L62.491 113.511ZM65.2893 121.693C66.7758 120.206 66.7758 117.796 65.2893 116.31L61.0172 120.582C60.1442 119.709 60.1442 118.294 61.0172 117.421L65.2893 121.693ZM55.8907 125.708C57.3771 127.195 59.7871 127.195 61.2736 125.708L57.0015 121.436C57.8744 120.563 59.2898 120.563 60.1628 121.436L55.8907 125.708ZM55.6402 123.333C54.8621 123.724 53.8211 123.639 53.0935 122.911L57.3656 118.639C56.1408 117.414 54.3347 117.228 52.9283 117.934L55.6402 123.333ZM54.9816 122.131C54.9816 123.159 54.3069 123.954 53.4823 124.229L51.5737 118.496C50.0826 118.993 48.9399 120.401 48.9399 122.131H54.9816ZM51.1754 129.896C53.2775 129.896 54.9816 128.192 54.9816 126.09H48.9399C48.9399 124.855 49.9408 123.854 51.1754 123.854V129.896ZM41.6899 126.09C41.6899 128.192 43.3941 129.896 45.4962 129.896V123.854C46.7308 123.854 47.7316 124.855 47.7316 126.09H41.6899ZM43.1922 124.236C42.3663 123.963 41.6899 123.167 41.6899 122.137H47.7316C47.7316 120.405 46.5861 118.996 45.0925 118.501L43.1922 124.236ZM43.5664 122.915C42.8392 123.642 41.7988 123.728 41.021 123.337L43.7295 117.937C42.3234 117.232 40.5185 117.419 39.2943 118.643L43.5664 122.915ZM35.3902 125.708C36.8766 127.195 39.2866 127.195 40.7731 125.708L36.501 121.436C37.3739 120.563 38.7893 120.563 39.6623 121.436L35.3902 125.708ZM31.3744 116.31C29.888 117.796 29.888 120.206 31.3744 121.693L35.6465 117.421C36.5195 118.294 36.5195 119.709 35.6465 120.582L31.3744 116.31ZM33.7437 116.066C33.3526 115.288 33.4374 114.247 34.1651 113.519L38.4372 117.791C39.6623 116.566 39.8488 114.76 39.1419 113.353L33.7437 116.066ZM34.9408 115.395C33.9122 115.395 33.1168 114.72 32.8426 113.894L38.5762 111.99C38.0805 110.498 36.6723 109.353 34.9408 109.353V115.395ZM27.1872 111.589C27.1872 113.691 28.8913 115.395 30.9934 115.395V109.353C32.228 109.353 33.2288 110.354 33.2288 111.589H27.1872ZM30.9934 102.103C28.8913 102.103 27.1872 103.808 27.1872 105.91H33.2288C33.2288 107.144 32.228 108.145 30.9934 108.145V102.103ZM32.8422 103.604C33.1163 102.779 33.9119 102.103 34.9405 102.103V108.145C36.6721 108.145 38.0803 107.001 38.576 105.509L32.8422 103.604ZM34.1636 103.981C33.4361 103.254 33.3512 102.213 33.742 101.435L39.1408 104.147C39.8473 102.74 39.6606 100.934 38.4358 99.7093L34.1636 103.981ZM31.3688 95.8037C29.8824 97.2902 29.8824 99.7002 31.3688 101.187L35.6409 96.9145C36.5139 97.7875 36.5139 99.2029 35.6409 100.076L31.3688 95.8037ZM40.7675 91.788C39.281 90.3015 36.871 90.3015 35.3846 91.788L39.6567 96.0601C38.7837 96.933 37.3683 96.933 36.4954 96.0601L40.7675 91.788ZM41.0176 94.1619C41.7955 93.7715 42.8361 93.8566 43.5635 94.584L39.2914 98.8561C40.5158 100.081 42.3211 100.267 43.7274 99.5618L41.0176 94.1619ZM41.6899 95.3602C41.6899 94.3309 42.3663 93.5351 43.1922 93.2615L45.0925 98.9965C46.5861 98.5016 47.7316 97.0928 47.7316 95.3602H41.6899ZM51.1754 93.6458C49.9408 93.6458 48.9399 92.645 48.9399 91.4104H54.9816C54.9816 89.3083 53.2775 87.6042 51.1754 87.6042V93.6458ZM45.4962 87.6042C43.3941 87.6042 41.6899 89.3083 41.6899 91.4104H47.7316C47.7316 92.645 46.7308 93.6458 45.4962 93.6458V87.6042Z" fill="#15E7BD" mask="url(#path-5-inside-1_14_5107)"/>
<path fill-rule="evenodd" clip-rule="evenodd" d="M30.2083 24.1667H114.792C118.128 24.1667 120.833 26.8716 120.833 30.2083V72.5H126.875V30.2083C126.875 23.5349 121.465 18.125 114.792 18.125H30.2083C23.5349 18.125 18.125 23.5349 18.125 30.2083V114.792C18.125 121.465 23.5349 126.875 30.2083 126.875V120.833C26.8716 120.833 24.1667 118.128 24.1667 114.792V30.2083C24.1667 26.8716 26.8716 24.1667 30.2083 24.1667ZM114.792 126.875H102.708V120.833H114.792C118.128 120.833 120.833 118.128 120.833 114.792V102.708H126.875V114.792C126.875 121.465 121.465 126.875 114.792 126.875Z" fill="#08003F"/>
</svg>
