<svg width="145" height="145" viewBox="0 0 145 145" fill="none" xmlns="http://www.w3.org/2000/svg">
<rect x="21.1458" y="21.1458" width="102.708" height="102.708" rx="9.0625" stroke="#08003F" stroke-width="6.04167"/>
<path d="M24.1665 30.2082C24.1665 26.8714 26.8715 24.1665 30.2082 24.1665H114.792C118.128 24.1665 120.833 26.8714 120.833 30.2082V42.2915H24.1665V30.2082Z" fill="#15E7BD"/>
<circle cx="33.2293" cy="33.2293" r="3.02083" fill="#08003F"/>
<circle cx="45.3123" cy="33.2293" r="3.02083" fill="#08003F"/>
<circle cx="57.3958" cy="33.2293" r="3.02083" fill="#08003F"/>
<path d="M33.229 108.75L111.771 108.75" stroke="#15E7BD" stroke-width="6.04167" stroke-linecap="round"/>
<path d="M47.9225 88.5872C44.95 88.5872 42.5092 87.8864 40.6 86.4847C38.6908 85.0589 37.6638 83.0289 37.5188 80.3947H45.095C45.1675 81.2889 45.4333 81.9414 45.8925 82.3522C46.3517 82.7631 46.9438 82.9685 47.6688 82.9685C48.3213 82.9685 48.8529 82.8114 49.2638 82.4972C49.6988 82.1589 49.9163 81.6997 49.9163 81.1197C49.9163 80.3706 49.5658 79.7906 48.865 79.3797C48.1642 78.9689 47.0283 78.5097 45.4575 78.0022C43.79 77.4464 42.4367 76.9147 41.3975 76.4072C40.3825 75.8756 39.4883 75.1143 38.715 74.1235C37.9658 73.1085 37.5913 71.7914 37.5913 70.1722C37.5913 68.5289 38.0021 67.1272 38.8238 65.9672C39.6454 64.7831 40.7813 63.8889 42.2313 63.2847C43.6813 62.6806 45.3246 62.3785 47.1613 62.3785C50.1338 62.3785 52.5021 63.0793 54.2663 64.481C56.0546 65.8585 57.0092 67.8039 57.13 70.3172H49.4088C49.3846 69.5439 49.1429 68.9639 48.6838 68.5772C48.2488 68.1906 47.6808 67.9972 46.98 67.9972C46.4483 67.9972 46.0133 68.1543 45.675 68.4685C45.3367 68.7827 45.1675 69.2297 45.1675 69.8097C45.1675 70.2931 45.3488 70.716 45.7113 71.0785C46.0979 71.4168 46.5692 71.7189 47.125 71.9847C47.6808 72.2264 48.5025 72.5406 49.59 72.9272C51.2092 73.4831 52.5383 74.0389 53.5775 74.5947C54.6408 75.1264 55.5471 75.8877 56.2963 76.8785C57.0696 77.8452 57.4563 79.0777 57.4563 80.576C57.4563 82.0985 57.0696 83.4639 56.2963 84.6722C55.5471 85.8806 54.4475 86.8352 52.9975 87.536C51.5717 88.2368 49.88 88.5872 47.9225 88.5872ZM67.8642 68.4685V72.6372H76.0205V78.0385H67.8642V82.6422H77.108V88.3335H60.7592V62.7772H77.108V68.4685H67.8642ZM92.8714 88.5872C90.4789 88.5872 88.2797 88.0314 86.2739 86.9197C84.268 85.7839 82.673 84.2252 81.4889 82.2435C80.3289 80.2377 79.7489 77.9781 79.7489 75.4647C79.7489 72.9514 80.3289 70.7039 81.4889 68.7222C82.673 66.7164 84.268 65.1577 86.2739 64.046C88.2797 62.9343 90.4789 62.3785 92.8714 62.3785C95.288 62.3785 97.4872 62.9343 99.4689 64.046C101.475 65.1577 103.058 66.7164 104.218 68.7222C105.378 70.7039 105.958 72.9514 105.958 75.4647C105.958 77.9781 105.378 80.2377 104.218 82.2435C103.058 84.2252 101.475 85.7839 99.4689 86.9197C97.463 88.0314 95.2639 88.5872 92.8714 88.5872ZM92.8714 81.9897C94.6839 81.9897 96.1097 81.3977 97.1489 80.2135C98.2122 79.0293 98.7439 77.4464 98.7439 75.4647C98.7439 73.4347 98.2122 71.8397 97.1489 70.6797C96.1097 69.4956 94.6839 68.9035 92.8714 68.9035C91.0347 68.9035 89.5968 69.4956 88.5576 70.6797C87.5185 71.8397 86.9989 73.4347 86.9989 75.4647C86.9989 77.4706 87.5185 79.0656 88.5576 80.2497C89.5968 81.4097 91.0347 81.9897 92.8714 81.9897Z" fill="#08003F"/>
</svg>
