<svg width="145" height="145" viewBox="0 0 145 145" fill="none" xmlns="http://www.w3.org/2000/svg">
<path d="M24.1665 30.2082C24.1665 26.8714 26.8715 24.1665 30.2082 24.1665H114.792C118.128 24.1665 120.833 26.8714 120.833 30.2082V42.2915H24.1665V30.2082Z" fill="#15E7BD"/>
<path fill-rule="evenodd" clip-rule="evenodd" d="M30.2083 24.1667H114.792C118.128 24.1667 120.833 26.8716 120.833 30.2083V114.792C120.833 118.128 118.128 120.833 114.792 120.833H96.6667V126.875H114.792C121.465 126.875 126.875 121.465 126.875 114.792V30.2083C126.875 23.5349 121.465 18.125 114.792 18.125H30.2083C23.5349 18.125 18.125 23.5349 18.125 30.2083V114.792C18.125 121.465 23.5349 126.875 30.2083 126.875H48.3333V120.833H30.2083C26.8716 120.833 24.1667 118.128 24.1667 114.792V30.2083C24.1667 26.8716 26.8716 24.1667 30.2083 24.1667Z" fill="#08003F"/>
<circle cx="33.2293" cy="33.2293" r="3.02083" fill="#08003F"/>
<circle cx="45.3123" cy="33.2293" r="3.02083" fill="#08003F"/>
<circle cx="57.3958" cy="33.2293" r="3.02083" fill="#08003F"/>
<rect x="33.2293" y="51.3543" width="12.0833" height="12.0833" stroke="#08003F" stroke-width="6.04167"/>
<rect x="63.4373" y="51.3543" width="18.125" height="12.0833" stroke="#08003F" stroke-width="6.04167"/>
<rect x="99.6873" y="51.3543" width="12.0833" height="12.0833" stroke="#08003F" stroke-width="6.04167"/>
<path d="M45.3125 57.396H63.4375M81.5625 57.396H99.6875" stroke="#08003F" stroke-width="6.04167" stroke-linecap="square"/>
<circle cx="72.5002" cy="102.708" r="21.1458" stroke="#08003F" stroke-width="6.04167"/>
<circle cx="72.4998" cy="102.708" r="9.0625" stroke="#08003F" stroke-width="6.04167"/>
<path d="M42.2915 102.708H54.3748" stroke="#15E7BD" stroke-width="6.04167" stroke-linecap="square"/>
<path d="M90.625 102.708H102.708" stroke="#15E7BD" stroke-width="6.04167" stroke-linecap="square"/>
<path d="M72.5 84.5835V72.5002" stroke="#15E7BD" stroke-width="6.04167" stroke-linecap="square"/>
<path d="M72.5 132.917L72.5 120.833" stroke="#15E7BD" stroke-width="6.04167" stroke-linecap="square"/>
</svg>
