<svg width="145" height="145" viewBox="0 0 145 145" fill="none" xmlns="http://www.w3.org/2000/svg">
<circle cx="30.2083" cy="66.4583" r="9.0625" stroke="#08003F" stroke-width="6.04167"/>
<circle cx="54.375" cy="54.375" r="15.1042" stroke="#15E7BD" stroke-width="6.04167"/>
<mask id="path-3-inside-1_14_5114" fill="white">
<path d="M78.5418 96.6667C78.5418 90.2573 75.9957 84.1104 71.4636 79.5783C66.9314 75.0461 60.7846 72.5 54.3752 72.5C47.9658 72.5 41.8189 75.0461 37.2868 79.5783C32.7546 84.1104 30.2085 90.2573 30.2085 96.6667L54.3752 96.6667H78.5418Z"/>
</mask>
<path d="M78.5418 96.6667C78.5418 90.2573 75.9957 84.1104 71.4636 79.5783C66.9314 75.0461 60.7846 72.5 54.3752 72.5C47.9658 72.5 41.8189 75.0461 37.2868 79.5783C32.7546 84.1104 30.2085 90.2573 30.2085 96.6667L54.3752 96.6667H78.5418Z" fill="white" stroke="#15E7BD" stroke-width="12.0833" mask="url(#path-3-inside-1_14_5114)"/>
<circle cx="90.6252" cy="42.2917" r="21.1458" stroke="#08003F" stroke-width="6.04167"/>
<path d="M18.125 126.875L45.3125 117.813L93.6458 123.854L114.792 114.792M114.792 114.792L99.6875 111.771M114.792 114.792L108.75 126.875" stroke="#08003F" stroke-width="6.04167" stroke-linecap="round"/>
<mask id="path-6-inside-2_14_5114" fill="white">
<path d="M126.875 96.6668C126.875 92.6998 125.937 88.7716 124.116 85.1066C122.294 81.4416 119.624 78.1114 116.258 75.3063C112.891 72.5012 108.895 70.2761 104.497 68.758C100.099 67.2399 95.3854 66.4585 90.625 66.4585C85.8646 66.4585 81.1508 67.2399 76.7527 68.758C72.3547 70.2761 68.3585 72.5012 64.9924 75.3063C61.6263 78.1114 58.9561 81.4416 57.1344 85.1066C55.3126 88.7716 54.375 92.6998 54.375 96.6668H63.7931C63.7931 93.7305 64.4871 90.8229 65.8355 88.1101C67.184 85.3972 69.1604 82.9323 71.652 80.856C74.1435 78.7797 77.1015 77.1326 80.3569 76.0089C83.6123 74.8852 87.1014 74.3069 90.625 74.3069C94.1486 74.3069 97.6377 74.8852 100.893 76.0089C104.149 77.1326 107.106 78.7797 109.598 80.856C112.09 82.9323 114.066 85.3972 115.414 88.1101C116.763 90.8229 117.457 93.7305 117.457 96.6668H126.875Z"/>
</mask>
<path d="M126.875 96.6668C126.875 92.6998 125.937 88.7716 124.116 85.1066C122.294 81.4416 119.624 78.1114 116.258 75.3063C112.891 72.5012 108.895 70.2761 104.497 68.758C100.099 67.2399 95.3854 66.4585 90.625 66.4585C85.8646 66.4585 81.1508 67.2399 76.7527 68.758C72.3547 70.2761 68.3585 72.5012 64.9924 75.3063C61.6263 78.1114 58.9561 81.4416 57.1344 85.1066C55.3126 88.7716 54.375 92.6998 54.375 96.6668H63.7931C63.7931 93.7305 64.4871 90.8229 65.8355 88.1101C67.184 85.3972 69.1604 82.9323 71.652 80.856C74.1435 78.7797 77.1015 77.1326 80.3569 76.0089C83.6123 74.8852 87.1014 74.3069 90.625 74.3069C94.1486 74.3069 97.6377 74.8852 100.893 76.0089C104.149 77.1326 107.106 78.7797 109.598 80.856C112.09 82.9323 114.066 85.3972 115.414 88.1101C116.763 90.8229 117.457 93.7305 117.457 96.6668H126.875Z" fill="white" stroke="#08003F" stroke-width="12.0833" mask="url(#path-6-inside-2_14_5114)"/>
<path d="M43.8094 99.2206H30.2085H15.3218C15.076 97.7875 15.0377 96.3226 15.2114 94.8714C15.4708 92.7045 16.1966 90.6195 17.339 88.76C18.4814 86.9006 20.0132 85.3107 21.8289 84.0999C23.6446 82.8892 25.7012 82.0863 27.8569 81.7465C30.0127 81.4067 32.2165 81.5382 34.3166 82.1317C36.4167 82.7253 38.3632 83.7669 40.0222 85.1849C41.6777 86.5999 43.0076 88.3561 43.9207 90.3331C43.9206 90.333 43.9205 90.3329 43.9205 90.3329C43.9196 90.3332 43.9593 90.4415 44.0038 90.7122C44.0533 91.0135 44.0922 91.4118 44.1146 91.9087C44.1595 92.9055 44.1309 94.1183 44.0642 95.4162C44.0058 96.5515 43.9218 97.693 43.8434 98.7585C43.8326 98.9053 43.8219 99.0507 43.8114 99.1945C43.8107 99.2032 43.8101 99.2119 43.8094 99.2206Z" fill="white" stroke="#08003F" stroke-width="6.04167"/>
<path fill-rule="evenodd" clip-rule="evenodd" d="M114.792 72.5C108.118 72.5 102.708 77.9099 102.708 84.5833V87.6042H30.7118C23.7603 87.6042 18.125 93.2395 18.125 100.191C18.125 101.581 19.2521 102.708 20.6424 102.708H120.833C124.17 102.708 126.875 100.003 126.875 96.6667V93.6458C126.875 93.3028 126.846 92.9664 126.791 92.6389H126.875V72.5H114.792Z" fill="white"/>
<path d="M18.125 105.729L54.375 93.6457L81.5625 99.6873L126.875 84.5832M126.875 84.5832L111.771 78.5415M126.875 84.5832L120.833 99.6873" stroke="#15E7BD" stroke-width="6.04167" stroke-linecap="round"/>
</svg>
