<svg width="145" height="145" viewBox="0 0 145 145" fill="none" xmlns="http://www.w3.org/2000/svg">
<path d="M40.4329 42.2915L30.2085 60.1841M40.4329 42.2915H69.238M40.4329 42.2915L69.238 60.1841M96.6668 42.2915L109.447 60.1841M96.6668 42.2915H69.238M96.6668 42.2915L69.238 60.1841M109.447 60.1841L69.238 126.875M109.447 60.1841H69.238M69.238 126.875L30.2085 60.1841M69.238 126.875V60.1841M30.2085 60.1841H69.238M69.238 42.2915V60.1841" stroke="#08003F" stroke-width="6.04167" stroke-linecap="round"/>
<path d="M17.7476 56.8677L21.8402 58.0929" stroke="#15E7BD" stroke-width="6.04167" stroke-linecap="round"/>
<path d="M30.7041 30.2085L33.1846 33.6867" stroke="#15E7BD" stroke-width="6.04167" stroke-linecap="round"/>
<path d="M124.928 56.561L120.835 57.7862" stroke="#15E7BD" stroke-width="6.04167" stroke-linecap="round"/>
<path d="M111.724 30.2085L109.243 33.6867" stroke="#15E7BD" stroke-width="6.04167" stroke-linecap="round"/>
<path d="M68.5942 24.1665V28.4386" stroke="#15E7BD" stroke-width="6.04167" stroke-linecap="round"/>
</svg>
