<svg width="145" height="145" viewBox="0 0 145 145" fill="none" xmlns="http://www.w3.org/2000/svg">
<g clip-path="url(#clip0_14_5124)">
<path d="M117.665 117.674C111.495 123.843 100.934 125.351 88.0121 121.659C75.2024 117.999 60.7849 109.375 47.9425 96.5324C35.1002 83.6901 26.4756 69.2726 22.8157 56.4629C19.1237 43.5407 20.6318 32.9797 26.8013 26.8102C32.9708 20.6407 43.5318 19.1325 56.454 22.8246C69.2637 26.4845 83.6812 35.1091 96.5236 47.9514C109.366 60.7938 117.99 75.2112 121.65 88.0209C125.342 100.943 123.834 111.504 117.665 117.674Z" stroke="#08003F" stroke-width="6.04167"/>
<path d="M27.4577 112.792C33.4343 118.769 43.5435 120.325 55.8376 116.95C68.0343 113.601 81.7192 105.524 93.8541 93.3891C105.989 81.2543 114.066 67.5694 117.415 55.3726C120.79 43.0785 119.234 32.9694 113.257 26.9928C107.281 21.0162 97.1716 19.4599 84.8775 22.8355C72.6807 26.1843 58.9958 34.2612 46.861 46.396C34.7261 58.5309 26.6492 72.2158 23.3004 84.4125C19.9248 96.7067 21.4811 106.816 27.4577 112.792Z" stroke="#08003F" stroke-width="6.04167"/>
<path d="M70.2408 41.0171C58.3623 41.0171 48.6992 50.6802 48.6992 62.5587C48.6992 70.303 52.7973 77.3472 59.4698 81.1976V83.2261C58.3857 84.0464 57.6747 85.3334 57.6747 86.795C57.6747 87.809 58.0249 88.7356 58.5937 89.4877C58.0245 90.2379 57.6747 91.1645 57.6747 92.1786C57.6747 94.6542 59.687 96.6665 62.1626 96.6665H78.3187C80.7943 96.6665 82.8066 94.6542 82.8066 92.1786C82.8066 91.1645 82.4564 90.2379 81.8876 89.4858C82.4568 88.7338 82.8066 87.8075 82.8066 86.7931C82.8066 85.3319 82.0957 84.0449 81.0115 83.2242V81.1957C87.684 77.3453 91.7821 70.303 91.7821 62.5568C91.7825 50.6802 82.1194 41.0171 70.2408 41.0171ZM78.3191 93.0758H62.163C61.6691 93.0758 61.2654 92.6721 61.2654 92.1782C61.2654 91.6844 61.6691 91.2806 62.163 91.2806H78.3191C78.8129 91.2806 79.2167 91.6844 79.2167 92.1782C79.2171 92.6721 78.8129 93.0758 78.3191 93.0758ZM78.3191 87.6907H62.163C61.6691 87.6907 61.2654 87.2869 61.2654 86.7931C61.2654 86.2992 61.6691 85.8955 62.163 85.8955H78.3191C78.8129 85.8955 79.2167 86.2992 79.2167 86.7931C79.2167 87.2869 78.8129 87.6907 78.3191 87.6907ZM78.3979 78.5316L77.4215 79.0341V82.3048H72.036V69.4838C75.1253 68.6812 77.4215 65.8935 77.4215 62.5583C77.4215 58.5982 74.201 55.3777 70.2408 55.3777C66.2807 55.3777 63.0602 58.5982 63.0602 62.5583C63.0602 65.8938 65.356 68.6816 68.4457 69.4838V82.3048H63.0602V79.0341L62.0838 78.5331C56.0431 75.4419 52.2896 69.3206 52.2896 62.5583C52.2896 52.66 60.3425 44.607 70.2408 44.607C80.1391 44.607 88.1921 52.66 88.1921 62.5583C88.1921 69.3209 84.4389 75.4423 78.3979 78.5316ZM70.2408 66.149C68.261 66.149 66.6505 64.539 66.6505 62.5587C66.6505 60.5788 68.2606 58.9684 70.2408 58.9684C72.2211 58.9684 73.8312 60.5785 73.8312 62.5587C73.8316 64.5386 72.2215 66.149 70.2408 66.149Z" fill="#15E7BD"/>
<circle cx="27.1872" cy="69.4792" r="12.0833" fill="white" stroke="#08003F" stroke-width="6.04167"/>
<circle cx="111.771" cy="69.4792" r="12.0833" fill="white" stroke="#08003F" stroke-width="6.04167"/>
</g>
<defs>
<clipPath id="clip0_14_5124">
<rect width="145" height="145" fill="white"/>
</clipPath>
</defs>
</svg>
