<svg width="145" height="145" viewBox="0 0 145 145" fill="none" xmlns="http://www.w3.org/2000/svg">
<rect x="21.1458" y="21.1458" width="102.708" height="102.708" rx="9.0625" stroke="#08003F" stroke-width="6.04167"/>
<path d="M24.167 30.2082C24.167 26.8714 26.8719 24.1665 30.2087 24.1665H114.792C118.129 24.1665 120.834 26.8714 120.834 30.2082V42.2915H24.167V30.2082Z" fill="#15E7BD"/>
<circle cx="33.2288" cy="33.2293" r="3.02083" fill="#08003F"/>
<circle cx="45.3128" cy="33.2293" r="3.02083" fill="#08003F"/>
<circle cx="57.3958" cy="33.2293" r="3.02083" fill="#08003F"/>
<path d="M30.208 60.4167L36.2497 66.4583L48.333 54.375" stroke="#08003F" stroke-width="6.04167" stroke-linecap="round"/>
<path d="M33.2288 75.5208H45.3122V87.6042H33.2288V75.5208Z" stroke="#15E7BD" stroke-width="6.04167"/>
<path d="M33.2288 99.6873H45.3122V111.771H33.2288V99.6873Z" stroke="#08003F" stroke-width="6.04167"/>
<path d="M60.417 54.375H111.771M60.417 63.4375H102.709" stroke="#08003F" stroke-width="6.04167" stroke-linecap="round"/>
<path d="M60.417 102.708H87.6045M60.417 111.771H111.771" stroke="#08003F" stroke-width="6.04167" stroke-linecap="round"/>
<path d="M60.417 78.5415H111.771M60.417 87.604H81.5628" stroke="#15E7BD" stroke-width="6.04167" stroke-linecap="round"/>
</svg>
