<svg width="145" height="145" viewBox="0 0 145 145" fill="none" xmlns="http://www.w3.org/2000/svg">
<path fill-rule="evenodd" clip-rule="evenodd" d="M30.2083 24.1667H114.792C118.128 24.1667 120.833 26.8716 120.833 30.2083V102.708H126.875V30.2083C126.875 23.5349 121.465 18.125 114.792 18.125H30.2083C23.5349 18.125 18.125 23.5349 18.125 30.2083V114.792C18.125 121.465 23.5349 126.875 30.2083 126.875H90.625V120.833H30.2083C26.8716 120.833 24.1667 118.128 24.1667 114.792V30.2083C24.1667 26.8716 26.8716 24.1667 30.2083 24.1667Z" fill="#08003F"/>
<path d="M30.2085 48.3335H51.3543M60.4168 48.3335H114.792" stroke="#08003F" stroke-width="6.04167" stroke-linecap="round"/>
<path d="M30.2085 60.4165H84.5835M96.6668 60.4165H114.792" stroke="#08003F" stroke-width="6.04167" stroke-linecap="round"/>
<path d="M30.2085 72.5H114.792" stroke="#08003F" stroke-width="6.04167" stroke-linecap="round"/>
<path d="M30.2085 108.75H78.5418" stroke="#08003F" stroke-width="6.04167" stroke-linecap="round"/>
<path d="M30.2085 84.5835H39.271M48.3335 84.5835H69.4793" stroke="#08003F" stroke-width="6.04167" stroke-linecap="round"/>
<path d="M30.2085 96.6668H48.3335M57.396 96.6668H75.521M93.646 84.5835H114.792" stroke="#08003F" stroke-width="6.04167" stroke-linecap="round"/>
<path d="M24.1665 30.2082C24.1665 26.8714 26.8715 24.1665 30.2082 24.1665H114.792C118.128 24.1665 120.833 26.8714 120.833 30.2082V42.2915H24.1665V30.2082Z" fill="#15E7BD"/>
<circle cx="33.2293" cy="33.2293" r="3.02083" fill="#08003F"/>
<circle cx="45.3123" cy="33.2293" r="3.02083" fill="#08003F"/>
<circle cx="57.3958" cy="33.2293" r="3.02083" fill="#08003F"/>
<path d="M94.2754 114.917L83.3114 89.3566L108.874 100.318L99.8281 104.336L98.7655 104.808L98.2935 105.87L94.2754 114.917Z" stroke="#15E7BD" stroke-width="6.04167"/>
<path d="M99.6875 105.729L123.854 126.875" stroke="#15E7BD" stroke-width="6.04167" stroke-linecap="round"/>
</svg>
