<svg width="145" height="145" viewBox="0 0 145 145" fill="none" xmlns="http://www.w3.org/2000/svg">
<path d="M24.1665 30.2082C24.1665 26.8715 26.8715 24.1665 30.2082 24.1665H102.708C106.045 24.1665 108.75 26.8715 108.75 30.2082V42.2915H24.1665V30.2082Z" fill="#15E7BD"/>
<path fill-rule="evenodd" clip-rule="evenodd" d="M30.2083 24.1667H102.708C106.045 24.1667 108.75 26.8716 108.75 30.2083V66.4583H114.792V30.2083C114.792 23.5349 109.382 18.125 102.708 18.125H30.2083C23.5349 18.125 18.125 23.5349 18.125 30.2083V102.708C18.125 109.382 23.5349 114.792 30.2083 114.792H66.4583V108.75H30.2083C26.8716 108.75 24.1667 106.045 24.1667 102.708V30.2083C24.1667 26.8716 26.8716 24.1667 30.2083 24.1667Z" fill="#08003F"/>
<circle cx="33.2293" cy="33.2293" r="3.02083" fill="#08003F"/>
<circle cx="45.3123" cy="33.2293" r="3.02083" fill="#08003F"/>
<circle cx="57.3958" cy="33.2293" r="3.02083" fill="#08003F"/>
<path d="M36.25 54.375H96.6667" stroke="#08003F" stroke-width="6.04167" stroke-linecap="round"/>
<path d="M36.25 78.5415L66.4583 78.5415" stroke="#08003F" stroke-width="6.04167" stroke-linecap="round"/>
<path d="M36.25 90.625H54.375" stroke="#08003F" stroke-width="6.04167" stroke-linecap="round"/>
<path d="M36.25 66.4585H84.5833" stroke="#15E7BD" stroke-width="6.04167" stroke-linecap="round"/>
<mask id="path-10-inside-1_14_5104" fill="white">
<path fill-rule="evenodd" clip-rule="evenodd" d="M105.123 73.2854C105.123 72.8516 104.771 72.5 104.337 72.5H95.0331C94.5993 72.5 94.2476 72.8516 94.2476 73.2854V79.9048C94.2476 80.2563 94.0137 80.5634 93.6785 80.6691C92.5707 81.0188 91.5046 81.4625 90.4897 81.9911C90.178 82.1534 89.7953 82.1017 89.5467 81.8532L84.8661 77.1726C84.5594 76.8658 84.0621 76.8658 83.7553 77.1726L77.1763 83.7516C76.8696 84.0583 76.8696 84.5556 77.1763 84.8623L81.8557 89.5418C82.1044 89.7904 82.156 90.1732 81.9935 90.485C81.4635 91.5022 81.0186 92.5708 80.6683 93.6813C80.5625 94.0165 80.2554 94.2506 79.9039 94.2506H73.2854C72.8516 94.2506 72.5 94.6022 72.5 95.036V104.34C72.5 104.774 72.8516 105.126 73.2854 105.126H79.9054C80.2568 105.126 80.5639 105.36 80.6697 105.695C81.0195 106.803 81.4635 107.869 81.9922 108.884C82.1546 109.196 82.103 109.579 81.8544 109.827L77.1726 114.509C76.8658 114.816 76.8658 115.313 77.1726 115.62L83.7516 122.199C84.0583 122.505 84.5556 122.505 84.8623 122.199L89.5441 117.517C89.7927 117.268 90.1755 117.217 90.4873 117.379C91.5029 117.908 92.5698 118.352 93.6785 118.702C94.0137 118.808 94.2476 119.115 94.2476 119.467V126.09C94.2476 126.523 94.5993 126.875 95.0331 126.875H104.337C104.771 126.875 105.123 126.523 105.123 126.09V119.467C105.123 119.116 105.357 118.808 105.692 118.703C106.802 118.352 107.87 117.908 108.886 117.378C109.198 117.215 109.581 117.267 109.83 117.516L114.514 122.201C114.821 122.507 115.319 122.507 115.625 122.201L122.204 115.621C122.511 115.315 122.511 114.817 122.204 114.511L117.518 109.825C117.27 109.576 117.218 109.193 117.38 108.882C117.909 107.867 118.352 106.802 118.702 105.695C118.808 105.36 119.115 105.126 119.466 105.126H126.09C126.523 105.126 126.875 104.774 126.875 104.34V95.036C126.875 94.6022 126.523 94.2506 126.09 94.2506H119.468C119.116 94.2506 118.809 94.0166 118.703 93.6813C118.353 92.5716 117.909 91.5037 117.379 90.4873C117.217 90.1755 117.268 89.7927 117.517 89.5441L122.201 84.8605C122.507 84.5538 122.507 84.0565 122.201 83.7498L115.621 77.1707C115.315 76.864 114.817 76.864 114.511 77.1707L109.827 81.8544C109.579 82.103 109.196 82.1546 108.884 81.9922C107.868 81.463 106.801 81.0187 105.692 80.6688C105.357 80.563 105.123 80.2559 105.123 79.9045V73.2854ZM99.6757 108.75C104.681 108.75 108.738 104.693 108.738 99.6875C108.738 94.6824 104.681 90.625 99.6757 90.625C94.6706 90.625 90.6132 94.6824 90.6132 99.6875C90.6132 104.693 94.6706 108.75 99.6757 108.75Z"/>
</mask>
<path fill-rule="evenodd" clip-rule="evenodd" d="M105.123 73.2854C105.123 72.8516 104.771 72.5 104.337 72.5H95.0331C94.5993 72.5 94.2476 72.8516 94.2476 73.2854V79.9048C94.2476 80.2563 94.0137 80.5634 93.6785 80.6691C92.5707 81.0188 91.5046 81.4625 90.4897 81.9911C90.178 82.1534 89.7953 82.1017 89.5467 81.8532L84.8661 77.1726C84.5594 76.8658 84.0621 76.8658 83.7553 77.1726L77.1763 83.7516C76.8696 84.0583 76.8696 84.5556 77.1763 84.8623L81.8557 89.5418C82.1044 89.7904 82.156 90.1732 81.9935 90.485C81.4635 91.5022 81.0186 92.5708 80.6683 93.6813C80.5625 94.0165 80.2554 94.2506 79.9039 94.2506H73.2854C72.8516 94.2506 72.5 94.6022 72.5 95.036V104.34C72.5 104.774 72.8516 105.126 73.2854 105.126H79.9054C80.2568 105.126 80.5639 105.36 80.6697 105.695C81.0195 106.803 81.4635 107.869 81.9922 108.884C82.1546 109.196 82.103 109.579 81.8544 109.827L77.1726 114.509C76.8658 114.816 76.8658 115.313 77.1726 115.62L83.7516 122.199C84.0583 122.505 84.5556 122.505 84.8623 122.199L89.5441 117.517C89.7927 117.268 90.1755 117.217 90.4873 117.379C91.5029 117.908 92.5698 118.352 93.6785 118.702C94.0137 118.808 94.2476 119.115 94.2476 119.467V126.09C94.2476 126.523 94.5993 126.875 95.0331 126.875H104.337C104.771 126.875 105.123 126.523 105.123 126.09V119.467C105.123 119.116 105.357 118.808 105.692 118.703C106.802 118.352 107.87 117.908 108.886 117.378C109.198 117.215 109.581 117.267 109.83 117.516L114.514 122.201C114.821 122.507 115.319 122.507 115.625 122.201L122.204 115.621C122.511 115.315 122.511 114.817 122.204 114.511L117.518 109.825C117.27 109.576 117.218 109.193 117.38 108.882C117.909 107.867 118.352 106.802 118.702 105.695C118.808 105.36 119.115 105.126 119.466 105.126H126.09C126.523 105.126 126.875 104.774 126.875 104.34V95.036C126.875 94.6022 126.523 94.2506 126.09 94.2506H119.468C119.116 94.2506 118.809 94.0166 118.703 93.6813C118.353 92.5716 117.909 91.5037 117.379 90.4873C117.217 90.1755 117.268 89.7927 117.517 89.5441L122.201 84.8605C122.507 84.5538 122.507 84.0565 122.201 83.7498L115.621 77.1707C115.315 76.864 114.817 76.864 114.511 77.1707L109.827 81.8544C109.579 82.103 109.196 82.1546 108.884 81.9922C107.868 81.463 106.801 81.0187 105.692 80.6688C105.357 80.563 105.123 80.2559 105.123 79.9045V73.2854ZM99.6757 108.75C104.681 108.75 108.738 104.693 108.738 99.6875C108.738 94.6824 104.681 90.625 99.6757 90.625C94.6706 90.625 90.6132 94.6824 90.6132 99.6875C90.6132 104.693 94.6706 108.75 99.6757 108.75Z" fill="white"/>
<path d="M109.827 81.8544L106.837 78.8639L109.827 81.8544ZM108.884 81.9922L106.93 85.743L108.884 81.9922ZM115.621 77.1707L112.631 80.1612L115.621 77.1707ZM114.511 77.1707L111.52 74.1803L114.511 77.1707ZM122.201 84.8605L119.21 81.87L122.201 84.8605ZM122.201 83.7498L119.21 86.7402L122.201 83.7498ZM117.379 90.4873L121.13 88.5333L117.379 90.4873ZM117.517 89.5441L120.507 92.5346L117.517 89.5441ZM118.703 93.6813L122.736 92.4091L118.703 93.6813ZM118.702 105.695L114.669 104.421L118.702 105.695ZM117.38 108.882L121.131 110.835L117.38 108.882ZM122.204 115.621L125.195 118.612L122.204 115.621ZM115.625 122.201L112.635 119.21L115.625 122.201ZM108.886 117.378L106.932 113.627L108.886 117.378ZM105.692 118.703L106.964 122.736L105.692 118.703ZM93.6785 118.702L94.9513 114.669L93.6785 118.702ZM89.5441 117.517L92.5346 120.507L89.5441 117.517ZM90.4873 117.379L92.4412 113.628L90.4873 117.379ZM83.7516 122.199L80.7611 125.189L83.7516 122.199ZM84.8623 122.199L87.8528 125.189L84.8623 122.199ZM77.1726 114.509L74.1821 111.518L77.1726 114.509ZM77.1726 115.62L74.1821 118.61L77.1726 115.62ZM81.9922 108.884L78.2415 110.838L81.9922 108.884ZM81.8544 109.827L84.8449 112.818L81.8544 109.827ZM80.6697 105.695L76.6367 106.968L80.6697 105.695ZM80.6683 93.6813L84.7015 94.9536L80.6683 93.6813ZM81.8557 89.5418L78.8653 92.5322L81.8557 89.5418ZM81.9935 90.485L78.243 88.5306L81.9935 90.485ZM77.1763 83.7516L74.1858 80.7611L77.1763 83.7516ZM77.1763 84.8623L80.1668 81.8719L77.1763 84.8623ZM84.8661 77.1726L87.8566 74.1821L84.8661 77.1726ZM83.7553 77.1726L80.7649 74.1821L83.7553 77.1726ZM90.4897 81.9911L88.5363 78.24L90.4897 81.9911ZM89.5467 81.8532L92.5372 78.8627L89.5467 81.8532ZM93.6785 80.6691L94.9513 84.7022L93.6785 80.6691ZM95.0331 76.7292H104.337V68.2708H95.0331V76.7292ZM98.4768 79.9048V73.2854H90.0185V79.9048H98.4768ZM92.4431 85.7421C93.242 85.326 94.0805 84.9771 94.9513 84.7022L92.4057 76.6361C91.0608 77.0605 89.7672 77.599 88.5363 78.24L92.4431 85.7421ZM81.8756 80.163L86.5562 84.8436L92.5372 78.8627L87.8566 74.1821L81.8756 80.163ZM80.1668 86.7421L86.7458 80.163L80.7649 74.1821L74.1858 80.7611L80.1668 86.7421ZM84.8462 86.5513L80.1668 81.8719L74.1858 87.8528L78.8653 92.5322L84.8462 86.5513ZM84.7015 94.9536C84.9769 94.0806 85.3268 93.2401 85.744 92.4394L78.243 88.5306C77.6002 89.7643 77.0602 91.061 76.635 92.4091L84.7015 94.9536ZM73.2854 98.4798H79.9039V90.0214H73.2854V98.4798ZM76.7292 104.34V95.036H68.2708V104.34H76.7292ZM79.9054 100.896H73.2854V109.355H79.9054V100.896ZM85.743 106.93C85.3268 106.131 84.9776 105.292 84.7027 104.421L76.6367 106.968C77.0614 108.313 77.6002 109.607 78.2415 110.838L85.743 106.93ZM80.163 117.499L84.8449 112.818L78.8639 106.837L74.1821 111.518L80.163 117.499ZM86.7421 119.208L80.163 112.629L74.1821 118.61L80.7611 125.189L86.7421 119.208ZM86.5536 114.526L81.8719 119.208L87.8528 125.189L92.5346 120.507L86.5536 114.526ZM94.9513 114.669C94.0798 114.394 93.2406 114.045 92.4412 113.628L88.5333 121.13C89.7651 121.772 91.0597 122.311 92.4057 122.735L94.9513 114.669ZM98.4768 126.09V119.467H90.0185V126.09H98.4768ZM104.337 122.646H95.0331V131.104H104.337V122.646ZM100.893 119.467V126.09H109.352V119.467H100.893ZM106.932 113.627C106.132 114.044 105.292 114.394 104.419 114.67L106.964 122.736C108.312 122.311 109.608 121.771 110.841 121.128L106.932 113.627ZM117.505 119.21L112.82 114.525L106.839 120.506L111.524 125.191L117.505 119.21ZM119.214 112.631L112.635 119.21L118.616 125.191L125.195 118.612L119.214 112.631ZM114.528 112.815L119.214 117.501L125.195 111.52L120.509 106.834L114.528 112.815ZM114.669 104.421C114.394 105.292 114.045 106.13 113.629 106.928L121.131 110.835C121.772 109.605 122.31 108.312 122.735 106.968L114.669 104.421ZM126.09 100.896H119.466V109.355H126.09V100.896ZM122.646 95.036V104.34H131.104V95.036H122.646ZM119.468 98.4798H126.09V90.0214H119.468V98.4798ZM113.628 92.4412C114.045 93.2413 114.395 94.0812 114.67 94.9536L122.736 92.4091C122.312 91.0619 121.772 89.7662 121.13 88.5333L113.628 92.4412ZM119.21 81.87L114.526 86.5536L120.507 92.5346L125.191 87.851L119.21 81.87ZM112.631 80.1612L119.21 86.7402L125.191 80.7593L118.612 74.1803L112.631 80.1612ZM112.818 84.8449L117.501 80.1612L111.52 74.1803L106.837 78.8639L112.818 84.8449ZM104.419 84.702C105.291 84.977 106.13 85.3264 106.93 85.743L110.838 78.2415C109.606 77.5996 108.311 77.0604 106.964 76.6356L104.419 84.702ZM100.893 73.2854V79.9045H109.352V73.2854H100.893ZM104.509 99.6875C104.509 102.357 102.345 104.521 99.6757 104.521V112.979C107.016 112.979 112.967 107.028 112.967 99.6875H104.509ZM99.6757 94.8542C102.345 94.8542 104.509 97.0181 104.509 99.6875H112.967C112.967 92.3467 107.016 86.3958 99.6757 86.3958V94.8542ZM94.8424 99.6875C94.8424 97.0181 97.0063 94.8542 99.6757 94.8542V86.3958C92.3349 86.3958 86.384 92.3467 86.384 99.6875H94.8424ZM99.6757 104.521C97.0063 104.521 94.8424 102.357 94.8424 99.6875H86.384C86.384 107.028 92.3349 112.979 99.6757 112.979V104.521ZM106.964 76.6356C108.317 77.0626 109.352 78.3364 109.352 79.9045H100.893C100.893 82.1755 102.396 84.0635 104.419 84.702L106.964 76.6356ZM106.837 78.8639C107.946 77.7549 109.579 77.5854 110.838 78.2415L106.93 85.743C108.813 86.7238 111.211 86.451 112.818 84.8449L106.837 78.8639ZM118.612 74.1803C116.654 72.2219 113.479 72.2219 111.52 74.1803L117.501 80.1612C116.156 81.5061 113.976 81.5061 112.631 80.1612L118.612 74.1803ZM125.191 87.851C127.149 85.8927 127.149 82.7176 125.191 80.7593L119.21 86.7402C117.865 85.3954 117.865 83.2149 119.21 81.87L125.191 87.851ZM121.13 88.5333C121.786 89.7926 121.616 91.4256 120.507 92.5346L114.526 86.5536C112.92 88.1598 112.647 90.5583 113.628 92.4412L121.13 88.5333ZM119.468 90.0214C121.036 90.0214 122.31 91.0559 122.736 92.4091L114.67 94.9536C115.308 96.9772 117.196 98.4798 119.468 98.4798V90.0214ZM131.104 95.036C131.104 92.2665 128.859 90.0214 126.09 90.0214V98.4798C124.188 98.4798 122.646 96.9379 122.646 95.036H131.104ZM126.09 109.355C128.859 109.355 131.104 107.11 131.104 104.34H122.646C122.646 102.438 124.188 100.896 126.09 100.896V109.355ZM122.735 106.968C122.308 108.321 121.034 109.355 119.466 109.355V100.896C117.195 100.896 115.307 102.398 114.669 104.421L122.735 106.968ZM120.509 106.834C121.618 107.943 121.787 109.576 121.131 110.835L113.629 106.928C112.649 108.811 112.922 111.209 114.528 112.815L120.509 106.834ZM125.195 118.612C127.153 116.654 127.153 113.479 125.195 111.52L119.214 117.501C117.869 116.156 117.869 113.976 119.214 112.631L125.195 118.612ZM111.524 125.191C113.482 127.149 116.657 127.149 118.616 125.191L112.635 119.21C113.98 117.865 116.16 117.865 117.505 119.21L111.524 125.191ZM110.841 121.128C109.581 121.785 107.948 121.615 106.839 120.506L112.82 114.525C111.214 112.919 108.815 112.646 106.932 113.627L110.841 121.128ZM109.352 119.467C109.352 121.035 108.317 122.309 106.964 122.736L104.419 114.67C102.396 115.308 100.893 117.196 100.893 119.467H109.352ZM104.337 131.104C107.107 131.104 109.352 128.859 109.352 126.09H100.893C100.893 124.188 102.435 122.646 104.337 122.646V131.104ZM90.0185 126.09C90.0185 128.859 92.2636 131.104 95.0331 131.104V122.646C96.935 122.646 98.4768 124.188 98.4768 126.09H90.0185ZM92.4057 122.735C91.0527 122.308 90.0185 121.035 90.0185 119.467H98.4768C98.4768 117.196 96.9746 115.308 94.9513 114.669L92.4057 122.735ZM92.5346 120.507C91.4256 121.616 89.7926 121.786 88.5333 121.13L92.4412 113.628C90.5583 112.647 88.1598 112.92 86.5536 114.526L92.5346 120.507ZM80.7611 125.189C82.7194 127.147 85.8945 127.147 87.8528 125.189L81.8719 119.208C83.2167 117.863 85.3972 117.863 86.7421 119.208L80.7611 125.189ZM74.1821 111.518C72.2238 113.477 72.2238 116.652 74.1821 118.61L80.163 112.629C81.5079 113.974 81.5079 116.155 80.163 117.499L74.1821 111.518ZM78.2415 110.838C77.5854 109.579 77.7549 107.946 78.8639 106.837L84.8449 112.818C86.451 111.211 86.7238 108.813 85.743 106.93L78.2415 110.838ZM79.9054 109.355C78.3375 109.355 77.0638 108.321 76.6367 106.968L84.7027 104.421C84.064 102.398 82.1761 100.896 79.9054 100.896V109.355ZM68.2708 104.34C68.2708 107.11 70.5159 109.355 73.2854 109.355V100.896C75.1873 100.896 76.7292 102.438 76.7292 104.34H68.2708ZM73.2854 90.0214C70.5159 90.0214 68.2708 92.2665 68.2708 95.036H76.7292C76.7292 96.9379 75.1873 98.4798 73.2854 98.4798V90.0214ZM76.635 92.4091C77.0618 91.0559 78.3357 90.0214 79.9039 90.0214V98.4798C82.1751 98.4798 84.0632 96.9772 84.7015 94.9536L76.635 92.4091ZM78.8653 92.5322C77.7561 91.4231 77.5868 89.79 78.243 88.5306L85.744 92.4394C86.7252 90.5565 86.4526 88.1577 84.8462 86.5513L78.8653 92.5322ZM74.1858 80.7611C72.2275 82.7194 72.2275 85.8945 74.1858 87.8528L80.1668 81.8719C81.5116 83.2167 81.5116 85.3972 80.1668 86.7421L74.1858 80.7611ZM87.8566 74.1821C85.8982 72.2238 82.7232 72.2238 80.7649 74.1821L86.7458 80.163C85.4009 81.5079 83.2205 81.5079 81.8756 80.163L87.8566 74.1821ZM88.5363 78.24C89.7956 77.5843 91.4283 77.7538 92.5372 78.8627L86.5562 84.8436C88.1622 86.4496 90.5603 86.7226 92.4431 85.7421L88.5363 78.24ZM90.0185 79.9048C90.0185 78.3368 91.0527 77.0631 92.4057 76.6361L94.9513 84.7022C96.9746 84.0637 98.4768 82.1757 98.4768 79.9048H90.0185ZM104.337 76.7292C102.435 76.7292 100.893 75.1873 100.893 73.2854H109.352C109.352 70.5159 107.107 68.2708 104.337 68.2708V76.7292ZM95.0331 68.2708C92.2636 68.2708 90.0185 70.5159 90.0185 73.2854H98.4768C98.4768 75.1873 96.935 76.7292 95.0331 76.7292V68.2708Z" fill="#08003F" mask="url(#path-10-inside-1_14_5104)"/>
</svg>
