<svg width="145" height="145" viewBox="0 0 145 145" fill="none" xmlns="http://www.w3.org/2000/svg">
<path fill-rule="evenodd" clip-rule="evenodd" d="M30.2083 24.1667H114.792C118.128 24.1667 120.833 26.8716 120.833 30.2083V102.708C120.833 106.045 118.128 108.75 114.792 108.75V114.792C121.465 114.792 126.875 109.382 126.875 102.708V30.2083C126.875 23.5349 121.465 18.125 114.792 18.125H30.2083C23.5349 18.125 18.125 23.5349 18.125 30.2083V102.708C18.125 109.382 23.5349 114.792 30.2083 114.792H60.4167V108.75H30.2083C26.8716 108.75 24.1667 106.045 24.1667 102.708V30.2083C24.1667 26.8716 26.8716 24.1667 30.2083 24.1667Z" fill="#08003F"/>
<mask id="path-2-inside-1_14_5110" fill="white">
<path fill-rule="evenodd" clip-rule="evenodd" d="M91.8376 85.3689C91.8376 84.9351 91.4859 84.5835 91.0521 84.5835H84.1646C83.7309 84.5835 83.3792 84.9351 83.3792 85.3689V90.2067C83.3792 90.5584 83.1448 90.8652 82.8102 90.9737C82.0315 91.2261 81.2798 91.5385 80.5606 91.9053C80.2474 92.065 79.8649 92.0138 79.6163 91.7652L76.1905 88.3394C75.8838 88.0327 75.3865 88.0327 75.0798 88.3394L70.2096 93.2096C69.9029 93.5164 69.9029 94.0137 70.2096 94.3204L73.6349 97.7457C73.8835 97.9943 73.9347 98.3769 73.7749 98.6901C73.4094 99.4065 73.098 100.155 72.846 100.93C72.7373 101.265 72.4306 101.499 72.0792 101.499H67.2434C66.8097 101.499 66.458 101.851 66.458 102.284L66.458 109.172C66.458 109.606 66.8097 109.957 67.2434 109.957H72.0793C72.4308 109.957 72.7374 110.191 72.8461 110.526C73.0987 111.303 73.411 112.053 73.7777 112.771C73.9376 113.084 73.8865 113.467 73.6378 113.716L70.22 117.133C69.9133 117.44 69.9133 117.938 70.22 118.244L75.0902 123.114C75.3969 123.421 75.8942 123.421 76.2009 123.114L79.622 119.693C79.8704 119.445 80.2528 119.394 80.566 119.553C81.2836 119.919 82.0335 120.23 82.8102 120.482C83.1448 120.591 83.3792 120.897 83.3792 121.249V126.09C83.3792 126.524 83.7309 126.875 84.1646 126.875H91.0521C91.4859 126.875 91.8376 126.524 91.8376 126.09V121.241C91.8376 120.89 92.0714 120.584 92.4054 120.475C93.1767 120.223 93.9215 119.913 94.6344 119.549C94.9475 119.39 95.3301 119.441 95.5787 119.69L99.0036 123.114C99.3103 123.421 99.8076 123.421 100.114 123.114L104.985 118.244C105.291 117.937 105.291 117.44 104.985 117.133L101.559 113.708C101.311 113.46 101.259 113.077 101.419 112.764C101.784 112.048 102.095 111.3 102.347 110.526C102.456 110.191 102.762 109.957 103.114 109.957H107.964C108.398 109.957 108.75 109.606 108.75 109.172V102.284C108.75 101.851 108.398 101.499 107.964 101.499H103.114C102.762 101.499 102.456 101.265 102.347 100.93C102.096 100.158 101.786 99.4115 101.422 98.6973C101.262 98.3841 101.314 98.0018 101.562 97.7533L104.995 94.3205C105.302 94.0137 105.302 93.5164 104.995 93.2097L100.125 88.3395C99.818 88.0328 99.3207 88.0328 99.014 88.3395L95.5844 91.7691C95.3357 92.0178 94.9529 92.0689 94.6397 91.909C93.9252 91.5441 93.1786 91.233 92.4054 90.981C92.0714 90.8722 91.8376 90.5656 91.8376 90.2144V85.3689ZM87.5902 112.777C91.4831 112.777 94.6388 109.622 94.6388 105.729C94.6388 101.836 91.4831 98.6801 87.5902 98.6801C83.6974 98.6801 80.5416 101.836 80.5416 105.729C80.5416 109.622 83.6974 112.777 87.5902 112.777Z"/>
</mask>
<path fill-rule="evenodd" clip-rule="evenodd" d="M91.8376 85.3689C91.8376 84.9351 91.4859 84.5835 91.0521 84.5835H84.1646C83.7309 84.5835 83.3792 84.9351 83.3792 85.3689V90.2067C83.3792 90.5584 83.1448 90.8652 82.8102 90.9737C82.0315 91.2261 81.2798 91.5385 80.5606 91.9053C80.2474 92.065 79.8649 92.0138 79.6163 91.7652L76.1905 88.3394C75.8838 88.0327 75.3865 88.0327 75.0798 88.3394L70.2096 93.2096C69.9029 93.5164 69.9029 94.0137 70.2096 94.3204L73.6349 97.7457C73.8835 97.9943 73.9347 98.3769 73.7749 98.6901C73.4094 99.4065 73.098 100.155 72.846 100.93C72.7373 101.265 72.4306 101.499 72.0792 101.499H67.2434C66.8097 101.499 66.458 101.851 66.458 102.284L66.458 109.172C66.458 109.606 66.8097 109.957 67.2434 109.957H72.0793C72.4308 109.957 72.7374 110.191 72.8461 110.526C73.0987 111.303 73.411 112.053 73.7777 112.771C73.9376 113.084 73.8865 113.467 73.6378 113.716L70.22 117.133C69.9133 117.44 69.9133 117.938 70.22 118.244L75.0902 123.114C75.3969 123.421 75.8942 123.421 76.2009 123.114L79.622 119.693C79.8704 119.445 80.2528 119.394 80.566 119.553C81.2836 119.919 82.0335 120.23 82.8102 120.482C83.1448 120.591 83.3792 120.897 83.3792 121.249V126.09C83.3792 126.524 83.7309 126.875 84.1646 126.875H91.0521C91.4859 126.875 91.8376 126.524 91.8376 126.09V121.241C91.8376 120.89 92.0714 120.584 92.4054 120.475C93.1767 120.223 93.9215 119.913 94.6344 119.549C94.9475 119.39 95.3301 119.441 95.5787 119.69L99.0036 123.114C99.3103 123.421 99.8076 123.421 100.114 123.114L104.985 118.244C105.291 117.937 105.291 117.44 104.985 117.133L101.559 113.708C101.311 113.46 101.259 113.077 101.419 112.764C101.784 112.048 102.095 111.3 102.347 110.526C102.456 110.191 102.762 109.957 103.114 109.957H107.964C108.398 109.957 108.75 109.606 108.75 109.172V102.284C108.75 101.851 108.398 101.499 107.964 101.499H103.114C102.762 101.499 102.456 101.265 102.347 100.93C102.096 100.158 101.786 99.4115 101.422 98.6973C101.262 98.3841 101.314 98.0018 101.562 97.7533L104.995 94.3205C105.302 94.0137 105.302 93.5164 104.995 93.2097L100.125 88.3395C99.818 88.0328 99.3207 88.0328 99.014 88.3395L95.5844 91.7691C95.3357 92.0178 94.9529 92.0689 94.6397 91.909C93.9252 91.5441 93.1786 91.233 92.4054 90.981C92.0714 90.8722 91.8376 90.5656 91.8376 90.2144V85.3689ZM87.5902 112.777C91.4831 112.777 94.6388 109.622 94.6388 105.729C94.6388 101.836 91.4831 98.6801 87.5902 98.6801C83.6974 98.6801 80.5416 101.836 80.5416 105.729C80.5416 109.622 83.6974 112.777 87.5902 112.777Z" fill="white"/>
<path d="M92.4054 90.981L91.4694 93.8532L92.4054 90.981ZM95.5844 91.7691L97.7204 93.9051L95.5844 91.7691ZM100.125 88.3395L97.9887 90.4756L100.125 88.3395ZM99.014 88.3395L101.15 90.4756L99.014 88.3395ZM104.995 93.2097L107.131 91.0737L104.995 93.2097ZM101.422 98.6973L104.113 97.3258L101.422 98.6973ZM101.562 97.7533L99.426 95.6172L101.562 97.7533ZM102.347 100.93L99.4743 101.864L102.347 100.93ZM102.347 110.526L99.4742 109.592L102.347 110.526ZM101.559 113.708L103.695 111.572L101.559 113.708ZM101.419 112.764L104.11 114.136L101.419 112.764ZM104.985 117.133L107.121 114.997L104.985 117.133ZM94.6344 119.549L96.0072 122.24L94.6344 119.549ZM95.5787 119.69L93.4427 121.826L95.5787 119.69ZM92.4054 120.475L91.4694 117.603L92.4054 120.475ZM82.8102 120.482L81.8787 123.356L82.8102 120.482ZM79.622 119.693L81.758 121.829L79.622 119.693ZM80.566 119.553L79.1945 122.245L80.566 119.553ZM75.0902 123.114L77.2262 120.978L75.0902 123.114ZM76.2009 123.114L74.0649 120.978L76.2009 123.114ZM70.22 118.244L72.356 116.108L70.22 118.244ZM73.7777 112.771L71.0874 114.145L73.7777 112.771ZM73.6378 113.716L75.7738 115.852L73.6378 113.716ZM73.7749 98.6901L71.0841 97.3172L73.7749 98.6901ZM70.2096 94.3204L68.0735 96.4564L70.2096 94.3204ZM75.0798 88.3394L72.9437 86.2034L75.0798 88.3394ZM80.5606 91.9053L79.1881 89.2143L80.5606 91.9053ZM82.8102 90.9737L81.8787 88.1001L82.8102 90.9737ZM84.1646 87.6043H91.0521V81.5627H84.1646V87.6043ZM86.4001 90.2067V85.3689H80.3584V90.2067H86.4001ZM81.9331 94.5964C82.5117 94.3012 83.1161 94.0501 83.7418 93.8473L81.8787 88.1001C80.947 88.4021 80.048 88.7757 79.1881 89.2143L81.9331 94.5964ZM74.0545 90.4755L77.4803 93.9013L81.7524 89.6292L78.3266 86.2034L74.0545 90.4755ZM72.3456 95.3457L77.2158 90.4755L72.9437 86.2034L68.0735 91.0736L72.3456 95.3457ZM75.7709 95.6096L72.3456 92.1843L68.0735 96.4564L71.4988 99.8818L75.7709 95.6096ZM75.7189 101.864C75.9214 101.241 76.1717 100.639 76.4658 100.063L71.0841 97.3172C70.6471 98.1737 70.2746 99.069 69.9731 99.9968L75.7189 101.864ZM67.2434 104.52H72.0792V98.4781H67.2434V104.52ZM69.4788 109.172L69.4788 102.284H63.4372L63.4372 109.172H69.4788ZM72.0793 106.936H67.2434V112.978H72.0793V106.936ZM76.468 111.397C76.173 110.82 75.922 110.216 75.719 109.592L69.9732 111.459C70.2754 112.389 70.649 113.287 71.0874 114.145L76.468 111.397ZM72.356 119.27L75.7738 115.852L71.5017 111.58L68.0839 114.997L72.356 119.27ZM77.2262 120.978L72.356 116.108L68.0839 120.38L72.9541 125.25L77.2262 120.978ZM77.4859 117.557L74.0649 120.978L78.337 125.25L81.758 121.829L77.4859 117.557ZM83.7418 117.608C83.1176 117.406 82.5147 117.156 81.9374 116.862L79.1945 122.245C80.0524 122.682 80.9493 123.054 81.8787 123.356L83.7418 117.608ZM86.4001 126.09V121.249H80.3584V126.09H86.4001ZM91.0521 123.854H84.1646V129.896H91.0521V123.854ZM88.8167 121.241V126.09H94.8584V121.241H88.8167ZM93.2615 116.859C92.688 117.151 92.0892 117.401 91.4694 117.603L93.3413 123.347C94.2642 123.046 95.1549 122.675 96.0072 122.24L93.2615 116.859ZM101.14 120.978L97.7148 117.553L93.4427 121.826L96.8675 125.25L101.14 120.978ZM102.848 116.108L97.9783 120.978L102.25 125.25L107.121 120.38L102.848 116.108ZM99.4232 115.844L102.848 119.269L107.121 114.997L103.695 111.572L99.4232 115.844ZM99.4742 109.592C99.2718 110.214 99.0218 110.816 98.7281 111.391L104.11 114.136C104.547 113.281 104.919 112.386 105.22 111.459L99.4742 109.592ZM107.964 106.936H103.114V112.978H107.964V106.936ZM105.729 102.284V109.172H111.771V102.284H105.729ZM103.114 104.52H107.964V98.4781H103.114V104.52ZM98.7303 100.069C99.0231 100.643 99.2724 101.243 99.4743 101.864L105.22 99.9968C104.92 99.0721 104.549 98.1797 104.113 97.3258L98.7303 100.069ZM102.859 92.1844L99.426 95.6172L103.698 99.8893L107.131 96.4565L102.859 92.1844ZM97.9887 90.4756L102.859 95.3458L107.131 91.0737L102.261 86.2035L97.9887 90.4756ZM97.7204 93.9051L101.15 90.4756L96.8779 86.2035L93.4483 89.633L97.7204 93.9051ZM91.4694 93.8532C92.0908 94.0556 92.691 94.3057 93.2658 94.5993L96.0136 89.2187C95.1594 88.7824 94.2665 88.4103 93.3413 88.1088L91.4694 93.8532ZM88.8167 85.3689V90.2144H94.8584V85.3689H88.8167ZM91.618 105.729C91.618 107.953 89.8147 109.756 87.5902 109.756V115.798C93.1514 115.798 97.6597 111.29 97.6597 105.729H91.618ZM87.5902 101.701C89.8147 101.701 91.618 103.504 91.618 105.729H97.6597C97.6597 100.167 93.1514 95.6592 87.5902 95.6592V101.701ZM83.5625 105.729C83.5625 103.504 85.3658 101.701 87.5902 101.701V95.6592C82.029 95.6592 77.5208 100.167 77.5208 105.729H83.5625ZM87.5902 109.756C85.3658 109.756 83.5625 107.953 83.5625 105.729H77.5208C77.5208 111.29 82.029 115.798 87.5902 115.798V109.756ZM93.3413 88.1088C94.1853 88.3838 94.8584 89.1903 94.8584 90.2144H88.8167C88.8167 91.941 89.9576 93.3605 91.4694 93.8532L93.3413 88.1088ZM93.4483 89.633C94.1734 88.908 95.2216 88.8142 96.0136 89.2187L93.2658 94.5993C94.6843 95.3237 96.498 95.1276 97.7204 93.9051L93.4483 89.633ZM102.261 86.2035C100.774 84.717 98.3643 84.717 96.8779 86.2035L101.15 90.4756C100.277 91.3485 98.8616 91.3485 97.9887 90.4756L102.261 86.2035ZM107.131 96.4565C108.617 94.9701 108.617 92.5601 107.131 91.0737L102.859 95.3458C101.986 94.4728 101.986 93.0574 102.859 92.1844L107.131 96.4565ZM104.113 97.3258C104.517 98.1177 104.423 99.1648 103.698 99.8893L99.426 95.6172C98.2046 96.8387 98.0077 98.6506 98.7303 100.069L104.113 97.3258ZM103.114 98.4781C104.139 98.4781 104.946 99.1521 105.22 99.9968L99.4743 101.864C99.9661 103.377 101.386 104.52 103.114 104.52V98.4781ZM111.771 102.284C111.771 100.182 110.066 98.4781 107.964 98.4781V104.52C106.73 104.52 105.729 103.519 105.729 102.284H111.771ZM107.964 112.978C110.066 112.978 111.771 111.274 111.771 109.172H105.729C105.729 107.937 106.73 106.936 107.964 106.936V112.978ZM105.22 111.459C104.945 112.304 104.139 112.978 103.114 112.978V106.936C101.386 106.936 99.966 108.079 99.4742 109.592L105.22 111.459ZM103.695 111.572C104.42 112.297 104.514 113.344 104.11 114.136L98.7281 111.391C98.0047 112.81 98.2013 114.622 99.4232 115.844L103.695 111.572ZM107.121 120.38C108.607 118.894 108.607 116.484 107.121 114.997L102.848 119.269C101.975 118.396 101.975 116.981 102.848 116.108L107.121 120.38ZM96.8675 125.25C98.3539 126.737 100.764 126.737 102.25 125.25L97.9783 120.978C98.8512 120.105 100.267 120.105 101.14 120.978L96.8675 125.25ZM96.0072 122.24C95.2152 122.644 94.1675 122.55 93.4427 121.826L97.7148 117.553C96.4928 116.331 94.6798 116.135 93.2615 116.859L96.0072 122.24ZM94.8584 121.241C94.8584 122.265 94.1853 123.072 93.3413 123.347L91.4694 117.603C89.9576 118.095 88.8167 119.515 88.8167 121.241H94.8584ZM91.0521 129.896C93.1543 129.896 94.8584 128.192 94.8584 126.09H88.8167C88.8167 124.855 89.8176 123.854 91.0521 123.854V129.896ZM80.3584 126.09C80.3584 128.192 82.0625 129.896 84.1646 129.896V123.854C85.3992 123.854 86.4001 124.855 86.4001 126.09H80.3584ZM81.8787 123.356C81.0333 123.082 80.3584 122.275 80.3584 121.249H86.4001C86.4001 119.52 85.2563 118.099 83.7418 117.608L81.8787 123.356ZM81.758 121.829C81.0335 122.554 79.9863 122.648 79.1945 122.245L81.9374 116.862C80.5193 116.139 78.7074 116.336 77.4859 117.557L81.758 121.829ZM72.9541 125.25C74.4406 126.737 76.8505 126.737 78.337 125.25L74.0649 120.978C74.9379 120.105 76.3532 120.105 77.2262 120.978L72.9541 125.25ZM68.0839 114.997C66.5975 116.484 66.5975 118.894 68.0839 120.38L72.356 116.108C73.229 116.981 73.229 118.397 72.356 119.27L68.0839 114.997ZM71.0874 114.145C70.6829 113.353 70.7767 112.305 71.5017 111.58L75.7738 115.852C76.9963 114.629 77.1924 112.816 76.468 111.397L71.0874 114.145ZM72.0793 112.978C71.0545 112.978 70.2477 112.304 69.9732 111.459L75.719 109.592C75.2271 108.079 73.807 106.936 72.0793 106.936V112.978ZM63.4372 109.172C63.4372 111.274 65.1413 112.978 67.2434 112.978V106.936C68.478 106.936 69.4788 107.937 69.4788 109.172H63.4372ZM67.2434 98.4781C65.1413 98.4781 63.4372 100.182 63.4372 102.284H69.4788C69.4788 103.519 68.478 104.52 67.2434 104.52V98.4781ZM69.9731 99.9968C70.2476 99.1521 71.0543 98.4781 72.0792 98.4781V104.52C73.8069 104.52 75.2271 103.377 75.7189 101.864L69.9731 99.9968ZM71.4988 99.8818C70.774 99.1569 70.68 98.1092 71.0841 97.3172L76.4658 100.063C77.1894 98.6446 76.993 96.8317 75.7709 95.6096L71.4988 99.8818ZM68.0735 91.0736C66.5871 92.56 66.5871 94.97 68.0735 96.4564L72.3456 92.1843C73.2186 93.0573 73.2186 94.4727 72.3456 95.3457L68.0735 91.0736ZM78.3266 86.2034C76.8401 84.717 74.4302 84.717 72.9437 86.2034L77.2158 90.4755C76.3428 91.3485 74.9275 91.3485 74.0545 90.4755L78.3266 86.2034ZM79.1881 89.2143C79.98 88.8104 81.0276 88.9044 81.7524 89.6292L77.4803 93.9013C78.7021 95.1232 80.5148 95.3197 81.9331 94.5964L79.1881 89.2143ZM80.3584 90.2067C80.3584 89.1812 81.0333 88.3741 81.8787 88.1001L83.7418 93.8473C85.2563 93.3563 86.4001 91.9356 86.4001 90.2067H80.3584ZM91.0521 87.6043C89.8176 87.6043 88.8167 86.6035 88.8167 85.3689H94.8584C94.8584 83.2668 93.1543 81.5627 91.0521 81.5627V87.6043ZM84.1646 81.5627C82.0625 81.5627 80.3584 83.2668 80.3584 85.3689H86.4001C86.4001 86.6035 85.3992 87.6043 84.1646 87.6043V81.5627Z" fill="#15E7BD" mask="url(#path-2-inside-1_14_5110)"/>
<path d="M24.1665 30.2082C24.1665 26.8714 26.8715 24.1665 30.2082 24.1665H114.792C118.128 24.1665 120.833 26.8714 120.833 30.2082V42.2915H24.1665V30.2082Z" fill="#15E7BD"/>
<circle cx="33.2293" cy="33.2293" r="3.02083" fill="#08003F"/>
<circle cx="45.3123" cy="33.2293" r="3.02083" fill="#08003F"/>
<circle cx="57.3958" cy="33.2293" r="3.02083" fill="#08003F"/>
<path d="M42.2913 54.375L30.208 66.4583L42.2913 78.5417" stroke="#08003F" stroke-width="6.04167" stroke-linecap="square"/>
<path d="M66.4582 54.375L78.5415 66.4583L66.4582 78.5417" stroke="#08003F" stroke-width="6.04167" stroke-linecap="square"/>
<path d="M57.3957 48.3335L51.354 84.5835" stroke="#08003F" stroke-width="6.04167" stroke-linecap="square"/>
<path d="M84.5835 78.5415H87.6043" stroke="#08003F" stroke-width="6.04167" stroke-linecap="round"/>
<path d="M96.6665 78.5415H99.6873" stroke="#08003F" stroke-width="6.04167" stroke-linecap="round"/>
<path d="M108.75 78.5415H111.771" stroke="#08003F" stroke-width="6.04167" stroke-linecap="round"/>
</svg>
