<svg width="145" height="145" viewBox="0 0 145 145" fill="none" xmlns="http://www.w3.org/2000/svg">
<path d="M24.1665 30.2082C24.1665 26.8714 26.8715 24.1665 30.2082 24.1665H114.792C118.128 24.1665 120.833 26.8714 120.833 30.2082V42.2915H24.1665V30.2082Z" fill="#15E7BD"/>
<path fill-rule="evenodd" clip-rule="evenodd" d="M30.2083 24.1667H114.792C118.128 24.1667 120.833 26.8716 120.833 30.2083V102.708H126.875V30.2083C126.875 23.5349 121.465 18.125 114.792 18.125H30.2083C23.5349 18.125 18.125 23.5349 18.125 30.2083V102.708C18.125 109.382 23.5349 114.792 30.2083 114.792H66.4583V108.75H30.2083C26.8716 108.75 24.1667 106.045 24.1667 102.708V30.2083C24.1667 26.8716 26.8716 24.1667 30.2083 24.1667Z" fill="#08003F"/>
<circle cx="33.2293" cy="33.2293" r="3.02083" fill="#08003F"/>
<circle cx="45.3123" cy="33.2293" r="3.02083" fill="#08003F"/>
<circle cx="57.3958" cy="33.2293" r="3.02083" fill="#08003F"/>
<rect x="75.5208" y="69.4793" width="36.25" height="54.375" rx="3.02083" fill="white" stroke="#08003F" stroke-width="6.04167"/>
<path d="M84.5835 102.708H102.708M84.5835 114.792H102.708" stroke="#08003F" stroke-width="6.04167" stroke-linecap="round"/>
<rect x="30.2085" y="48.3335" width="30.2083" height="30.2083" fill="#15E7BD"/>
<rect x="84.5835" y="78.5415" width="18.125" height="18.125" fill="#15E7BD"/>
<path d="M54.375 63.4375L40.7812 55.5891V71.2859L54.375 63.4375Z" fill="#08003F"/>
<path d="M96.6665 87.6042L92.1353 84.988V90.2203L96.6665 87.6042Z" fill="#08003F"/>
<path d="M69.479 54.375H111.771M33.229 84.5833H63.4373" stroke="#08003F" stroke-width="6.04167" stroke-linecap="round"/>
<path d="M33.229 96.6665H63.4373" stroke="#08003F" stroke-width="6.04167" stroke-linecap="round"/>
</svg>
