<svg width="145" height="145" viewBox="0 0 145 145" fill="none" xmlns="http://www.w3.org/2000/svg">
<mask id="path-1-inside-1_14_5116" fill="white">
<path fill-rule="evenodd" clip-rule="evenodd" d="M25.929 32.13C15.5224 42.7474 15.5224 59.9616 25.929 70.5789L67.9726 113.474L68.007 113.439L72.5361 118.06L119.073 70.5801C129.48 59.9627 129.48 42.7486 119.073 32.1312C108.667 21.5138 91.7942 21.5138 81.3876 32.1312L72.5017 41.1971L63.6147 32.13C53.2081 21.5126 36.3356 21.5126 25.929 32.13Z"/>
</mask>
<path d="M25.929 70.5789L30.2437 66.3499L25.929 70.5789ZM25.929 32.13L30.2437 36.3591H30.2437L25.929 32.13ZM67.9726 113.474L63.6579 117.703L67.9727 122.105L72.2874 117.703L67.9726 113.474ZM68.007 113.439L72.3217 109.21L68.0069 104.808L63.6922 109.21L68.007 113.439ZM72.5361 118.06L68.2214 122.289L72.5361 126.691L76.8508 122.289L72.5361 118.06ZM119.073 70.5801L123.388 74.8092L119.073 70.5801ZM119.073 32.1312L123.388 27.9021L119.073 32.1312ZM81.3876 32.1312L85.7023 36.3602L81.3876 32.1312ZM72.5017 41.1971L68.187 45.4261L72.5017 49.8282L76.8164 45.4261L72.5017 41.1971ZM63.6147 32.13L59.3 36.3591L63.6147 32.13ZM30.2437 66.3499C22.1397 58.0817 22.1397 44.6272 30.2437 36.3591L21.6143 27.901C8.90507 40.8676 8.90504 61.8414 21.6143 74.808L30.2437 66.3499ZM72.2873 109.245L30.2437 66.3499L21.6143 74.808L63.6579 117.703L72.2873 109.245ZM63.6922 109.21L63.6578 109.245L72.2874 117.703L72.3218 117.668L63.6922 109.21ZM76.8508 113.831L72.3217 109.21L63.6923 117.668L68.2214 122.289L76.8508 113.831ZM114.759 66.351L68.2214 113.831L76.8508 122.289L123.388 74.8092L114.759 66.351ZM114.759 36.3602C122.863 44.6284 122.863 58.0829 114.759 66.351L123.388 74.8092C136.097 61.8426 136.097 40.8687 123.388 27.9021L114.759 36.3602ZM85.7023 36.3602C93.7401 28.1597 106.721 28.1597 114.759 36.3602L123.388 27.9021C110.613 14.8679 89.8484 14.8679 77.0729 27.9021L85.7023 36.3602ZM76.8164 45.4261L85.7023 36.3602L77.0729 27.9021L68.187 36.968L76.8164 45.4261ZM59.3 36.3591L68.187 45.4261L76.8164 36.968L67.9294 27.901L59.3 36.3591ZM30.2437 36.3591C38.2815 28.1585 51.2622 28.1585 59.3 36.3591L67.9294 27.901C55.1539 14.8668 34.3897 14.8668 21.6143 27.901L30.2437 36.3591Z" fill="#08003F" mask="url(#path-1-inside-1_14_5116)"/>
<path d="M72.5001 45.3125L57.3988 60.4167C55.3849 62.4306 54.3864 66.4583 57.4014 69.4792C62.2301 74.3172 67.4696 71.4931 69.4828 69.4792L81.5661 57.3958C83.58 56.3889 88.8161 55.5833 93.6495 60.4167L108.754 72.5" stroke="#08003F" stroke-width="6.04167" stroke-linecap="round"/>
<path d="M60.4165 90.625L72.4998 102.708" stroke="#15E7BD" stroke-width="6.04167" stroke-linecap="round"/>
<path d="M93.646 39.2711C101.702 37.2572 117.208 38.0628 114.792 57.3961" stroke="#15E7BD" stroke-width="6.04167" stroke-linecap="round"/>
</svg>
