<svg width="145" height="145" viewBox="0 0 145 145" fill="none" xmlns="http://www.w3.org/2000/svg">
<circle cx="72.5" cy="36.25" r="15.1042" stroke="#08003F" stroke-width="6.04167"/>
<mask id="path-2-inside-1_14_5115" fill="white">
<path d="M102.708 84.5833C102.708 76.5716 99.5255 68.888 93.8604 63.2228C88.1952 57.5577 80.5116 54.375 72.4998 54.375C64.4881 54.375 56.8045 57.5577 51.1393 63.2228C45.4742 68.888 42.2915 76.5716 42.2915 84.5833L72.4998 84.5833H102.708Z"/>
</mask>
<path d="M102.708 84.5833C102.708 76.5716 99.5255 68.888 93.8604 63.2228C88.1952 57.5577 80.5116 54.375 72.4998 54.375C64.4881 54.375 56.8045 57.5577 51.1393 63.2228C45.4742 68.888 42.2915 76.5716 42.2915 84.5833L72.4998 84.5833H102.708Z" stroke="#08003F" stroke-width="12.0833" mask="url(#path-2-inside-1_14_5115)"/>
<mask id="path-3-inside-2_14_5115" fill="white">
<path d="M54.375 60.4165C54.375 55.6095 52.4654 50.9993 49.0663 47.6002C45.6672 44.2011 41.0571 42.2915 36.25 42.2915C31.443 42.2915 26.8328 44.2011 23.4337 47.6002C20.0346 50.9993 18.125 55.6095 18.125 60.4165L36.25 60.4165H54.375Z"/>
</mask>
<path d="M54.375 60.4165C54.375 55.6095 52.4654 50.9993 49.0663 47.6002C45.6672 44.2011 41.0571 42.2915 36.25 42.2915C31.443 42.2915 26.8328 44.2011 23.4337 47.6002C20.0346 50.9993 18.125 55.6095 18.125 60.4165L36.25 60.4165H54.375Z" stroke="#15E7BD" stroke-width="12.0833" mask="url(#path-3-inside-2_14_5115)"/>
<mask id="path-4-inside-3_14_5115" fill="white">
<path d="M126.875 60.4165C126.875 55.6095 124.965 50.9993 121.566 47.6002C118.167 44.2011 113.557 42.2915 108.75 42.2915C103.943 42.2915 99.3328 44.2011 95.9337 47.6002C92.5346 50.9993 90.625 55.6095 90.625 60.4165L108.75 60.4165H126.875Z"/>
</mask>
<path d="M126.875 60.4165C126.875 55.6095 124.965 50.9993 121.566 47.6002C118.167 44.2011 113.557 42.2915 108.75 42.2915C103.943 42.2915 99.3328 44.2011 95.9337 47.6002C92.5346 50.9993 90.625 55.6095 90.625 60.4165L108.75 60.4165H126.875Z" stroke="#15E7BD" stroke-width="12.0833" mask="url(#path-4-inside-3_14_5115)"/>
<circle cx="108.75" cy="30.2083" r="9.0625" stroke="#15E7BD" stroke-width="6.04167"/>
<circle cx="36.2498" cy="30.2083" r="9.0625" stroke="#15E7BD" stroke-width="6.04167"/>
<path d="M39.2708 84.4435L42.9326 92.6022L43.5 93.8664L44.8776 94.0153L53.7686 94.9767L47.1407 100.98L46.1138 101.911L46.3978 103.267L48.231 112.02L40.4729 107.572L39.2708 106.882L38.0688 107.572L30.3107 112.02L32.1438 103.267L32.4279 101.911L31.4009 100.98L24.7731 94.9767L33.664 94.0153L35.0417 93.8664L35.609 92.6022L39.2708 84.4435Z" stroke="#08003F" stroke-width="4.83333"/>
<path d="M105.729 84.4435L109.391 92.6022L109.959 93.8664L111.336 94.0153L120.227 94.9767L113.599 100.98L112.572 101.911L112.856 103.267L114.689 112.02L106.931 107.572L105.729 106.882L104.527 107.572L96.7692 112.02L98.6023 103.267L98.8864 101.911L97.8594 100.98L91.2315 94.9767L100.123 94.0153L101.5 93.8664L102.068 92.6022L105.729 84.4435Z" stroke="#08003F" stroke-width="4.83333"/>
<path d="M72.5 96.527L75.3237 102.818L75.8911 104.083L77.2687 104.232L84.1248 104.973L79.0139 109.603L77.9869 110.533L78.2709 111.889L79.6845 118.639L73.7021 115.208L72.5 114.519L71.2979 115.208L65.3155 118.639L66.7291 111.889L67.0131 110.533L65.9861 109.603L60.8752 104.973L67.7313 104.232L69.1089 104.083L69.6763 102.818L72.5 96.527Z" stroke="#15E7BD" stroke-width="4.83333"/>
</svg>
