<svg width="145" height="145" viewBox="0 0 145 145" fill="none" xmlns="http://www.w3.org/2000/svg">
<rect x="21.1458" y="21.1458" width="102.708" height="102.708" rx="9.0625" stroke="#08003F" stroke-width="6.04167"/>
<path d="M24.167 30.2082C24.167 26.8714 26.8719 24.1665 30.2087 24.1665H114.792C118.129 24.1665 120.834 26.8714 120.834 30.2082V42.2915H24.167V30.2082Z" fill="#15E7BD"/>
<circle cx="33.2288" cy="33.2293" r="3.02083" fill="#08003F"/>
<circle cx="45.3128" cy="33.2293" r="3.02083" fill="#08003F"/>
<circle cx="57.3958" cy="33.2293" r="3.02083" fill="#08003F"/>
<path d="M33.2295 108.75L111.771 108.75" stroke="#08003F" stroke-width="6.04167" stroke-linecap="round"/>
<mask id="path-7-inside-1_14_5123" fill="white">
<path d="M83.1568 50.1422L83.1568 92.0001C83.1568 92.0001 72.6932 86.1749 65.2544 83.3709C57.8156 80.5669 44.1046 80.3496 44.1046 80.3496L44.0977 62.2256C44.0977 62.2256 54.7982 62.2245 65.2544 59.2042C75.7106 56.1839 83.1568 50.1422 83.1568 50.1422Z"/>
</mask>
<path d="M83.1568 50.1422L89.1985 50.1423L89.1985 37.46L79.3502 45.4506L83.1568 50.1422ZM83.1568 92.0001L80.218 97.2789L89.1985 102.278L89.1985 92.0001L83.1568 92.0001ZM44.1046 80.3496L38.0629 80.3519L38.0652 86.2963L44.0088 86.3905L44.1046 80.3496ZM44.0977 62.2256L44.0971 56.1839L38.0538 56.1845L38.056 62.2279L44.0977 62.2256ZM77.1151 50.1422L77.1151 92.0001L89.1985 92.0001L89.1985 50.1423L77.1151 50.1422ZM50.1462 80.3473L50.1394 62.2233L38.056 62.2279L38.0629 80.3519L50.1462 80.3473ZM44.0977 62.2256C44.0983 68.2673 44.0992 68.2673 44.1001 68.2673C44.1005 68.2673 44.1014 68.2673 44.1022 68.2673C44.1036 68.2673 44.1052 68.2672 44.107 68.2672C44.1105 68.2672 44.1147 68.2672 44.1196 68.2672C44.1292 68.2672 44.1416 68.2672 44.1564 68.2671C44.1862 68.267 44.2262 68.2667 44.2761 68.2662C44.3759 68.2653 44.5156 68.2636 44.6923 68.2602C45.0457 68.2535 45.5481 68.2405 46.1778 68.2149C47.4357 68.1639 49.21 68.0629 51.3256 67.8622C55.5251 67.4637 61.2164 66.6593 66.931 65.0086L63.5778 53.3998C58.8362 54.7694 53.9492 55.4757 50.1843 55.8328C48.3178 56.0099 46.7635 56.0979 45.6883 56.1415C45.1514 56.1633 44.7362 56.1739 44.4635 56.1791C44.3272 56.1816 44.2268 56.1829 44.1648 56.1834C44.1338 56.1837 44.1124 56.1838 44.101 56.1839C44.0953 56.1839 44.0921 56.1839 44.0915 56.1839C44.0911 56.1839 44.0914 56.1839 44.0924 56.1839C44.0928 56.1839 44.0935 56.1839 44.0942 56.1839C44.0946 56.1839 44.0954 56.1839 44.0956 56.1839C44.0963 56.1839 44.0971 56.1839 44.0977 62.2256ZM66.931 65.0086C72.7956 63.3146 77.7527 60.7963 81.2192 58.7308C82.9633 57.6916 84.3588 56.7498 85.3351 56.0544C85.8239 55.7062 86.2096 55.4184 86.4835 55.2092C86.6205 55.1046 86.7297 55.0195 86.81 54.9562C86.8502 54.9246 86.8831 54.8984 86.9088 54.8779C86.9216 54.8676 86.9325 54.8588 86.9417 54.8515C86.9462 54.8478 86.9503 54.8445 86.954 54.8416C86.9558 54.8401 86.9575 54.8387 86.9591 54.8374C86.9598 54.8368 86.9609 54.8359 86.9613 54.8356C86.9624 54.8347 86.9635 54.8339 83.1568 50.1422C79.3502 45.4506 79.3511 45.4498 79.3521 45.4491C79.3524 45.4488 79.3533 45.4481 79.3539 45.4476C79.355 45.4467 79.356 45.4459 79.3569 45.4451C79.3588 45.4437 79.3601 45.4426 79.3611 45.4418C79.363 45.4403 79.3631 45.4402 79.3615 45.4415C79.3583 45.444 79.3482 45.4521 79.3312 45.4655C79.2974 45.4922 79.2364 45.5398 79.1493 45.6063C78.9752 45.7393 78.6975 45.9471 78.3249 46.2125C77.5782 46.7443 76.4586 47.5017 75.0342 48.3504C72.1635 50.0609 68.1694 52.0735 63.5778 53.3998L66.931 65.0086ZM83.1568 92.0001C86.0956 86.7214 86.0953 86.7212 86.0949 86.721C86.0948 86.7209 86.0944 86.7207 86.0941 86.7205C86.0934 86.7202 86.0926 86.7197 86.0916 86.7192C86.0897 86.7181 86.0871 86.7167 86.0839 86.7149C86.0775 86.7113 86.0685 86.7063 86.0571 86.7C86.0343 86.6873 86.0016 86.6692 85.9594 86.6459C85.8751 86.5994 85.753 86.532 85.5962 86.4461C85.2828 86.2744 84.8308 86.0282 84.2667 85.7249C83.1397 85.1189 81.559 84.2818 79.7382 83.3539C76.1489 81.5249 71.4301 79.2421 67.3854 77.7175L63.1234 89.0242C66.5175 90.3036 70.7499 92.3354 74.2521 94.1201C75.977 94.999 77.4772 95.7935 78.5445 96.3674C79.0776 96.654 79.5012 96.8848 79.7891 97.0426C79.933 97.1214 80.0429 97.182 80.1155 97.2221C80.1518 97.2422 80.1788 97.2571 80.196 97.2667C80.2046 97.2714 80.2108 97.2749 80.2145 97.2769C80.2163 97.2779 80.2175 97.2786 80.2181 97.279C80.2184 97.2791 80.2186 97.2792 80.2185 97.2792C80.2185 97.2792 80.2184 97.2791 80.2184 97.2791C80.2182 97.279 80.218 97.2789 83.1568 92.0001ZM67.3854 77.7175C62.8484 76.0073 56.8588 75.2027 52.4488 74.793C50.1542 74.5798 48.1107 74.4594 46.6395 74.392C45.9022 74.3582 45.3043 74.3376 44.8853 74.3253C44.6757 74.3192 44.5106 74.3151 44.3948 74.3125C44.337 74.3112 44.2914 74.3103 44.2588 74.3097C44.2425 74.3094 44.2294 74.3092 44.2196 74.309C44.2147 74.3089 44.2107 74.3088 44.2075 74.3088C44.2059 74.3087 44.2045 74.3087 44.2033 74.3087C44.2027 74.3087 44.2019 74.3087 44.2016 74.3087C44.2009 74.3087 44.2003 74.3087 44.1046 80.3496C44.0088 86.3905 44.0083 86.3905 44.0078 86.3905C44.0077 86.3905 44.0073 86.3905 44.0071 86.3904C44.0068 86.3904 44.0066 86.3904 44.0067 86.3904C44.0068 86.3904 44.0077 86.3905 44.0094 86.3905C44.0129 86.3905 44.0196 86.3907 44.0295 86.3909C44.0492 86.3912 44.0815 86.3919 44.1259 86.3929C44.2146 86.3948 44.3513 86.3982 44.5312 86.4035C44.8911 86.414 45.4224 86.4323 46.0868 86.4627C47.4189 86.5237 49.2681 86.6328 51.3311 86.8245C55.6363 87.2244 60.2216 87.9304 63.1234 89.0242L67.3854 77.7175Z" fill="#08003F" mask="url(#path-7-inside-1_14_5123)"/>
<path d="M69.4795 63.4375V75.5208" stroke="#08003F" stroke-width="6.04167" stroke-linecap="round"/>
<path d="M56.1921 98.4751L50.1504 80.3501H59.2129L65.2546 98.4751H56.1921Z" stroke="#08003F" stroke-width="6.04167" stroke-linecap="round"/>
<path d="M92.4424 62.2253L101.505 56.1836M92.4424 71.2878H101.505M92.4424 80.3503L101.505 86.3919" stroke="#15E7BD" stroke-width="6.04167" stroke-linecap="round"/>
</svg>
