<svg width="145" height="145" viewBox="0 0 145 145" fill="none" xmlns="http://www.w3.org/2000/svg">
<path d="M24.1665 30.2082C24.1665 26.8714 26.8715 24.1665 30.2082 24.1665H114.792C118.128 24.1665 120.833 26.8714 120.833 30.2082V42.2915H24.1665V30.2082Z" fill="#15E7BD"/>
<circle cx="33.2293" cy="33.2293" r="3.02083" fill="#08003F"/>
<circle cx="45.3123" cy="33.2293" r="3.02083" fill="#08003F"/>
<circle cx="57.3958" cy="33.2293" r="3.02083" fill="#08003F"/>
<path fill-rule="evenodd" clip-rule="evenodd" d="M30.2083 24.1667H114.792C118.128 24.1667 120.833 26.8716 120.833 30.2083V114.792C120.833 118.128 118.128 120.833 114.792 120.833H90.625V126.875H114.792C121.465 126.875 126.875 121.465 126.875 114.792V30.2083C126.875 23.5349 121.465 18.125 114.792 18.125H30.2083C23.5349 18.125 18.125 23.5349 18.125 30.2083V114.792C18.125 121.465 23.5349 126.875 30.2083 126.875H54.375V120.833H30.2083C26.8716 120.833 24.1667 118.128 24.1667 114.792V30.2083C24.1667 26.8716 26.8716 24.1667 30.2083 24.1667Z" fill="#08003F"/>
<path fill-rule="evenodd" clip-rule="evenodd" d="M36.2497 54.3752H108.75V90.6252H96.6663V96.6668H108.75H114.791V90.6252V54.3752V48.3335H108.75H36.2497H30.208V54.3752V90.6252V96.6668H36.2497H48.333V90.6252H36.2497V54.3752Z" fill="#08003F"/>
<path d="M48.3335 72.5L54.3752 78.5417" stroke="#15E7BD" stroke-width="6.04167" stroke-linecap="square"/>
<path d="M96.6665 72.5L90.6248 78.5417" stroke="#15E7BD" stroke-width="6.04167" stroke-linecap="square"/>
<path d="M82.6719 59.3105L80.4605 67.5636" stroke="#15E7BD" stroke-width="6.04167" stroke-linecap="square"/>
<path d="M61.9863 60.4165L66.2584 67.816" stroke="#15E7BD" stroke-width="6.04167" stroke-linecap="square"/>
<path d="M60.4165 90.6248L72.4998 78.5415L84.5832 90.6248M60.4165 90.6248H84.5832M60.4165 90.6248V114.792M84.5832 90.6248V114.792M60.4165 114.792V126.875H84.5832V114.792M60.4165 114.792H84.5832" stroke="#08003F" stroke-width="6.04167" stroke-linecap="square"/>
<path d="M33.229 102.708H51.354M93.6457 102.708H111.771" stroke="#08003F" stroke-width="6.04167" stroke-linecap="round"/>
<path d="M33.229 114.792H51.354M93.6457 114.792H111.771" stroke="#08003F" stroke-width="6.04167" stroke-linecap="round"/>
</svg>
