<svg width="145" height="145" viewBox="0 0 145 145" fill="none" xmlns="http://www.w3.org/2000/svg">
<path fill-rule="evenodd" clip-rule="evenodd" d="M30.2083 24.1667H78.5417C81.8784 24.1667 84.5833 26.8716 84.5833 30.2083V54.375H90.625V30.2083C90.625 23.5349 85.2151 18.125 78.5417 18.125H30.2083C23.5349 18.125 18.125 23.5349 18.125 30.2083V114.792C18.125 121.465 23.5349 126.875 30.2083 126.875H78.5417C85.2151 126.875 90.625 121.465 90.625 114.792V108.75H84.5833V114.792C84.5833 118.128 81.8784 120.833 78.5417 120.833H30.2083C26.8716 120.833 24.1667 118.128 24.1667 114.792V30.2083C24.1667 26.8716 26.8716 24.1667 30.2083 24.1667Z" fill="#08003F"/>
<path d="M48.333 30.2085H60.4163" stroke="#08003F" stroke-width="6.04167" stroke-linecap="round"/>
<path d="M36.25 114.792H72.5" stroke="#08003F" stroke-width="6.04167" stroke-linecap="round"/>
<path d="M30.208 54.375H36.2497M45.3122 54.375H60.4163" stroke="#08003F" stroke-width="6.04167" stroke-linecap="round"/>
<path d="M36.25 72.5H60.4167" stroke="#08003F" stroke-width="6.04167" stroke-linecap="round"/>
<path d="M48.333 90.625H60.4163" stroke="#08003F" stroke-width="6.04167" stroke-linecap="round"/>
<path d="M36.25 60.4165L60.4167 60.4165" stroke="#15E7BD" stroke-width="6.04167" stroke-linecap="round"/>
<path d="M42.292 78.5415L60.4206 78.5415" stroke="#15E7BD" stroke-width="6.04167" stroke-linecap="round"/>
<path d="M54.375 96.6665L60.4167 96.6665" stroke="#15E7BD" stroke-width="6.04167" stroke-linecap="round"/>
<path d="M120.597 84.5835H78.808C78.6557 84.5835 78.5272 84.4701 78.5083 84.3189L75.5205 60.4168H126.488C126.684 60.4168 126.828 60.6015 126.781 60.7922L120.89 84.3547C120.857 84.4892 120.736 84.5835 120.597 84.5835Z" fill="white"/>
<path d="M66.458 48.3335H72.2638C72.4024 48.3335 72.5233 48.4278 72.5569 48.5623L75.5205 60.4168M75.5205 60.4168L78.5083 84.3189C78.5272 84.4701 78.6557 84.5835 78.808 84.5835H120.597C120.736 84.5835 120.857 84.4892 120.89 84.3547L126.781 60.7922C126.829 60.6015 126.684 60.4168 126.488 60.4168H75.5205Z" stroke="#08003F" stroke-width="6.04167" stroke-linecap="round"/>
<path d="M84.583 72.5L114.791 72.5" stroke="#15E7BD" stroke-width="6.04167" stroke-linecap="round"/>
<circle cx="87.6045" cy="93.646" r="6.04167" fill="white" stroke="#08003F" stroke-width="6.04167"/>
<circle cx="111.771" cy="93.646" r="6.04167" fill="white" stroke="#08003F" stroke-width="6.04167"/>
</svg>
