<svg width="145" height="145" viewBox="0 0 145 145" fill="none" xmlns="http://www.w3.org/2000/svg">
<rect x="21.1458" y="21.1458" width="102.708" height="102.708" rx="9.0625" stroke="#08003F" stroke-width="6.04167"/>
<path d="M24.1665 30.2082C24.1665 26.8715 26.8715 24.1665 30.2082 24.1665H114.792C118.128 24.1665 120.833 26.8715 120.833 30.2082V42.2915H24.1665V30.2082Z" fill="#15E7BD"/>
<circle cx="33.2293" cy="33.2293" r="3.02083" fill="#08003F"/>
<circle cx="45.3123" cy="33.2293" r="3.02083" fill="#08003F"/>
<circle cx="57.3958" cy="33.2293" r="3.02083" fill="#08003F"/>
<circle cx="48.3335" cy="66.4585" r="15.7083" stroke="#08003F" stroke-width="4.83333"/>
<circle cx="96.6665" cy="66.4585" r="15.7083" stroke="#08003F" stroke-width="4.83333"/>
<path d="M54.3748 60.4167C54.3748 63.7534 51.6699 66.4583 48.3332 66.4583C44.9965 66.4583 42.2915 63.7534 42.2915 60.4167C42.2915 57.0799 44.9965 54.375 48.3332 54.375C51.6699 54.375 54.3748 57.0799 54.3748 60.4167ZM46.3841 60.4167C46.3841 61.4931 47.2567 62.3657 48.3332 62.3657C49.4096 62.3657 50.2822 61.4931 50.2822 60.4167C50.2822 59.3402 49.4096 58.4676 48.3332 58.4676C47.2567 58.4676 46.3841 59.3402 46.3841 60.4167Z" fill="#08003F"/>
<path d="M102.708 60.4167C102.708 63.7534 100.003 66.4583 96.6667 66.4583C93.3299 66.4583 90.625 63.7534 90.625 60.4167C90.625 57.0799 93.3299 54.375 96.6667 54.375C100.003 54.375 102.708 57.0799 102.708 60.4167ZM94.7176 60.4167C94.7176 61.4931 95.5902 62.3657 96.6667 62.3657C97.7431 62.3657 98.6157 61.4931 98.6157 60.4167C98.6157 59.3402 97.7431 58.4676 96.6667 58.4676C95.5902 58.4676 94.7176 59.3402 94.7176 60.4167Z" fill="#08003F"/>
<mask id="path-10-inside-1_14_5105" fill="white">
<path d="M60.4167 78.5418C60.4167 76.955 60.1041 75.3838 59.4969 73.9177C58.8896 72.4517 57.9996 71.1197 56.8775 69.9976C55.7555 68.8756 54.4234 67.9855 52.9574 67.3783C51.4914 66.771 49.9201 66.4585 48.3333 66.4585C46.7465 66.4585 45.1753 66.771 43.7092 67.3783C42.2432 67.9855 40.9112 68.8756 39.7891 69.9976C38.6671 71.1197 37.777 72.4517 37.1698 73.9177C36.5625 75.3838 36.25 76.955 36.25 78.5418L41.5835 78.5418C41.5835 77.6554 41.7581 76.7777 42.0973 75.9588C42.4365 75.1399 42.9337 74.3958 43.5605 73.769C44.1873 73.1422 44.9314 72.645 45.7503 72.3058C46.5692 71.9666 47.4469 71.792 48.3333 71.792C49.2197 71.792 50.0974 71.9666 50.9164 72.3058C51.7353 72.645 52.4794 73.1422 53.1062 73.769C53.7329 74.3958 54.2301 75.1399 54.5693 75.9588C54.9085 76.7777 55.0831 77.6554 55.0831 78.5418H60.4167Z"/>
</mask>
<path d="M60.4167 78.5418C60.4167 76.955 60.1041 75.3838 59.4969 73.9177C58.8896 72.4517 57.9996 71.1197 56.8775 69.9976C55.7555 68.8756 54.4234 67.9855 52.9574 67.3783C51.4914 66.771 49.9201 66.4585 48.3333 66.4585C46.7465 66.4585 45.1753 66.771 43.7092 67.3783C42.2432 67.9855 40.9112 68.8756 39.7891 69.9976C38.6671 71.1197 37.777 72.4517 37.1698 73.9177C36.5625 75.3838 36.25 76.955 36.25 78.5418L41.5835 78.5418C41.5835 77.6554 41.7581 76.7777 42.0973 75.9588C42.4365 75.1399 42.9337 74.3958 43.5605 73.769C44.1873 73.1422 44.9314 72.645 45.7503 72.3058C46.5692 71.9666 47.4469 71.792 48.3333 71.792C49.2197 71.792 50.0974 71.9666 50.9164 72.3058C51.7353 72.645 52.4794 73.1422 53.1062 73.769C53.7329 74.3958 54.2301 75.1399 54.5693 75.9588C54.9085 76.7777 55.0831 77.6554 55.0831 78.5418H60.4167Z" stroke="#08003F" stroke-width="6.90476" mask="url(#path-10-inside-1_14_5105)"/>
<mask id="path-11-inside-2_14_5105" fill="white">
<path d="M108.75 78.5418C108.75 76.955 108.438 75.3838 107.83 73.9177C107.223 72.4517 106.333 71.1197 105.211 69.9976C104.089 68.8756 102.757 67.9855 101.291 67.3783C99.8249 66.771 98.2536 66.4585 96.6668 66.4585C95.08 66.4585 93.5088 66.771 92.0427 67.3783C90.5767 67.9855 89.2447 68.8756 88.1226 69.9976C87.0006 71.1197 86.1105 72.4517 85.5033 73.9177C84.896 75.3838 84.5835 76.955 84.5835 78.5418L89.917 78.5418C89.917 77.6554 90.0916 76.7777 90.4308 75.9588C90.77 75.1399 91.2672 74.3958 91.894 73.769C92.5208 73.1422 93.2649 72.645 94.0838 72.3058C94.9027 71.9666 95.7804 71.792 96.6668 71.792C97.5532 71.792 98.4309 71.9666 99.2499 72.3058C100.069 72.645 100.813 73.1422 101.44 73.769C102.066 74.3958 102.564 75.1399 102.903 75.9588C103.242 76.7777 103.417 77.6554 103.417 78.5418H108.75Z"/>
</mask>
<path d="M108.75 78.5418C108.75 76.955 108.438 75.3838 107.83 73.9177C107.223 72.4517 106.333 71.1197 105.211 69.9976C104.089 68.8756 102.757 67.9855 101.291 67.3783C99.8249 66.771 98.2536 66.4585 96.6668 66.4585C95.08 66.4585 93.5088 66.771 92.0427 67.3783C90.5767 67.9855 89.2447 68.8756 88.1226 69.9976C87.0006 71.1197 86.1105 72.4517 85.5033 73.9177C84.896 75.3838 84.5835 76.955 84.5835 78.5418L89.917 78.5418C89.917 77.6554 90.0916 76.7777 90.4308 75.9588C90.77 75.1399 91.2672 74.3958 91.894 73.769C92.5208 73.1422 93.2649 72.645 94.0838 72.3058C94.9027 71.9666 95.7804 71.792 96.6668 71.792C97.5532 71.792 98.4309 71.9666 99.2499 72.3058C100.069 72.645 100.813 73.1422 101.44 73.769C102.066 74.3958 102.564 75.1399 102.903 75.9588C103.242 76.7777 103.417 77.6554 103.417 78.5418H108.75Z" stroke="#08003F" stroke-width="6.90476" mask="url(#path-11-inside-2_14_5105)"/>
<path d="M33.229 90.625H111.771M33.229 114.792H99.6873" stroke="#08003F" stroke-width="6.04167" stroke-linecap="round"/>
<path d="M33.229 102.709L111.771 102.709" stroke="#15E7BD" stroke-width="6.04167" stroke-linecap="round"/>
</svg>
