<svg width="145" height="145" viewBox="0 0 145 145" fill="none" xmlns="http://www.w3.org/2000/svg">
<rect x="51.3543" y="21.1458" width="42.2917" height="12.0833" rx="3.02083" stroke="#15E7BD" stroke-width="6.04167"/>
<path d="M21.1458 39.2707C21.1458 37.6023 22.4983 36.2498 24.1667 36.2498H120.833C122.502 36.2498 123.854 37.6023 123.854 39.2707V64.5664C123.854 65.6419 123.282 66.6362 122.353 67.1772L74.0195 95.3077C73.0803 95.8544 71.9197 95.8544 70.9805 95.3077L22.6471 67.1772C21.7176 66.6362 21.1458 65.6419 21.1458 64.5664V39.2707Z" stroke="#08003F" stroke-width="6.04167"/>
<path d="M27.1873 126.875C27.1873 128.543 28.5398 129.896 30.2082 129.896H114.79C116.459 129.896 117.811 128.543 117.811 126.875V74.3381C117.811 71.9654 115.201 70.5189 113.189 71.7765L77.303 94.206C74.3643 96.0427 70.6354 96.0427 67.6967 94.206L31.8092 71.7763C29.7972 70.5188 27.1873 71.9653 27.1873 74.338V126.875Z" fill="white" stroke="#08003F" stroke-width="6.04167"/>
<rect x="57.3958" y="99.6877" width="18.125" height="30.2083" rx="3.02083" transform="rotate(-90 57.3958 99.6877)" fill="white" stroke="#15E7BD" stroke-width="6.04167"/>
</svg>
