<svg width="145" height="145" viewBox="0 0 145 145" fill="none" xmlns="http://www.w3.org/2000/svg">
<path d="M24.1665 30.2082C24.1665 26.8714 26.8715 24.1665 30.2082 24.1665H114.792C118.128 24.1665 120.833 26.8714 120.833 30.2082V42.2915H24.1665V30.2082Z" fill="#15E7BD"/>
<path fill-rule="evenodd" clip-rule="evenodd" d="M114.792 24.1667H30.2083C26.8716 24.1667 24.1667 26.8716 24.1667 30.2083V114.792C24.1667 118.128 26.8716 120.833 30.2083 120.833H90.625V126.875H30.2083C23.5349 126.875 18.125 121.465 18.125 114.792V30.2083C18.125 23.5349 23.5349 18.125 30.2083 18.125H114.792C121.465 18.125 126.875 23.5349 126.875 30.2083V78.5417H120.833V30.2083C120.833 26.8716 118.128 24.1667 114.792 24.1667ZM120.833 108.75V114.792C120.833 118.128 118.128 120.833 114.792 120.833H108.75V126.875H114.792C121.465 126.875 126.875 121.465 126.875 114.792V108.75H120.833Z" fill="#08003F"/>
<circle cx="33.2293" cy="33.2293" r="3.02083" fill="#08003F"/>
<circle cx="45.3123" cy="33.2293" r="3.02083" fill="#08003F"/>
<circle cx="57.3958" cy="33.2293" r="3.02083" fill="#08003F"/>
<path d="M30.2085 48.3335H51.3543M60.4168 48.3335H114.792" stroke="#08003F" stroke-width="6.04167" stroke-linecap="round"/>
<path d="M30.2085 60.4165H84.5835M96.6668 60.4165H114.792" stroke="#08003F" stroke-width="6.04167" stroke-linecap="round"/>
<path d="M30.2085 72.5H96.6668" stroke="#08003F" stroke-width="6.04167" stroke-linecap="round"/>
<path d="M30.2085 108.75H75.521" stroke="#08003F" stroke-width="6.04167" stroke-linecap="round"/>
<path d="M30.2085 84.5835H39.271M48.3335 84.5835H63.4377" stroke="#08003F" stroke-width="6.04167" stroke-linecap="round"/>
<path d="M30.2085 96.6665H48.3335M57.396 96.6665H69.4793" stroke="#08003F" stroke-width="6.04167" stroke-linecap="round"/>
<mask id="path-12-inside-1_14_5111" fill="white">
<path fill-rule="evenodd" clip-rule="evenodd" d="M122.794 82.8824C117.354 77.0945 108.535 77.0945 103.095 82.8824L101.057 85.0514L99.0184 82.8826C93.5787 77.0947 84.7592 77.0947 79.3195 82.8826C73.8798 88.6705 73.8798 98.0545 79.3195 103.842L100.965 126.874L103.004 124.705L103.095 124.802L122.794 103.842C128.234 98.0543 128.234 88.6703 122.794 82.8824Z"/>
</mask>
<path d="M103.095 82.8824L107.498 87.02L103.095 82.8824ZM122.794 82.8824L127.197 78.7448L122.794 82.8824ZM101.057 85.0514L96.6543 89.1891L101.057 93.8734L105.459 89.1891L101.057 85.0514ZM99.0184 82.8826L94.6159 87.0202L99.0184 82.8826ZM79.3195 82.8826L83.722 87.0202L79.3195 82.8826ZM79.3195 103.842L83.722 99.7048L79.3195 103.842ZM100.965 126.874L96.5627 131.011L100.965 135.696L105.368 131.011L100.965 126.874ZM103.004 124.705L107.406 120.567L103.004 115.883L98.6013 120.567L103.004 124.705ZM103.095 124.802L98.6928 128.94L103.095 133.624L107.498 128.94L103.095 124.802ZM122.794 103.842L118.392 99.7046L122.794 103.842ZM107.498 87.02C110.551 83.7709 115.338 83.7709 118.392 87.02L127.197 78.7448C119.371 70.4182 106.518 70.4182 98.6928 78.7448L107.498 87.02ZM105.459 89.1891L107.498 87.02L98.6928 78.7448L96.6543 80.9138L105.459 89.1891ZM94.6159 87.0202L96.6543 89.1891L105.459 80.9138L103.421 78.745L94.6159 87.0202ZM83.722 87.0202C86.7757 83.7711 91.5622 83.7711 94.6159 87.0202L103.421 78.745C95.5952 70.4184 82.7427 70.4184 74.917 78.745L83.722 87.0202ZM83.722 99.7048C80.4679 96.2424 80.4679 90.4826 83.722 87.0202L74.917 78.745C67.2918 86.8584 67.2918 99.8666 74.917 107.98L83.722 99.7048ZM105.368 122.736L83.722 99.7048L74.917 107.98L96.5627 131.011L105.368 122.736ZM98.6013 120.567L96.5627 122.736L105.368 131.011L107.406 128.842L98.6013 120.567ZM107.498 120.664L107.406 120.567L98.6013 128.842L98.6928 128.94L107.498 120.664ZM118.392 99.7046L98.6928 120.664L107.498 128.94L127.197 107.98L118.392 99.7046ZM118.392 87.02C121.646 90.4824 121.646 96.2422 118.392 99.7046L127.197 107.98C134.822 99.8665 134.822 86.8582 127.197 78.7448L118.392 87.02Z" fill="#15E7BD" mask="url(#path-12-inside-1_14_5111)"/>
</svg>
