<svg width="796" height="722" viewBox="0 0 796 722" fill="none" xmlns="http://www.w3.org/2000/svg">
<g clip-path="url(#clip0_17_3437)">
<path fill-rule="evenodd" clip-rule="evenodd" d="M618.621 117.375H177.522V77.8512C177.522 69.2775 184.474 62.3262 193.047 62.3262H603.096C611.671 62.3262 618.621 69.2775 618.621 77.8512V117.375Z" fill="#08003F"/>
<path d="M603.096 496.38H193.047C185.33 496.38 179.073 490.124 179.073 482.406V114.297H617.071V482.406C617.071 490.124 610.814 496.38 603.096 496.38Z" fill="#F1F1F1" stroke="#08003F" stroke-width="3.10112"/>
<path fill-rule="evenodd" clip-rule="evenodd" d="M213.369 87.9449C213.369 93.3256 209.007 97.6881 203.625 97.6881C198.245 97.6881 193.883 93.3256 193.883 87.9449C193.883 82.5642 198.245 78.2017 203.625 78.2017C209.007 78.2017 213.369 82.5642 213.369 87.9449Z" fill="#15E7BD"/>
<path fill-rule="evenodd" clip-rule="evenodd" d="M249.755 87.9449C249.755 93.3256 245.393 97.6881 240.012 97.6881C234.631 97.6881 230.27 93.3256 230.27 87.9449C230.27 82.5642 234.631 78.2017 240.012 78.2017C245.393 78.2017 249.755 82.5642 249.755 87.9449Z" fill="#15E7BD"/>
<path fill-rule="evenodd" clip-rule="evenodd" d="M286.142 87.9449C286.142 93.3256 281.78 97.6881 276.399 97.6881C271.018 97.6881 266.656 93.3256 266.656 87.9449C266.656 82.5642 271.018 78.2017 276.399 78.2017C281.78 78.2017 286.142 82.5642 286.142 87.9449Z" fill="#15E7BD"/>
<path fill-rule="evenodd" clip-rule="evenodd" d="M225.198 445.537C222.522 445.537 220.354 443.37 220.354 440.697V160.078C220.354 157.405 222.522 155.238 225.198 155.238H575.767C578.442 155.238 580.611 157.405 580.611 160.078V440.697C580.611 443.37 578.442 445.537 575.767 445.537H225.198Z" fill="white"/>
<path fill-rule="evenodd" clip-rule="evenodd" d="M460.782 318.145C439.744 318.145 422.65 300.98 422.65 279.751C422.577 258.658 439.617 241.5 460.71 241.427C460.734 241.427 460.758 241.427 460.782 241.427C481.808 241.427 498.903 258.592 498.903 279.81C498.866 300.98 481.808 318.133 460.782 318.145ZM555.657 266.398C554.917 262.215 550.912 257.935 546.728 257.015L543.609 256.298C536.034 254.001 529.621 248.901 525.678 242.037C521.695 235.104 520.515 226.91 522.379 219.133L523.359 216.193C524.615 212.117 522.988 206.487 519.725 203.702C519.725 203.702 516.796 201.216 508.573 196.434C500.312 191.677 496.774 190.349 496.774 190.349C492.758 188.867 487.14 190.29 484.199 193.421L482.035 195.753C476.32 201.222 468.705 204.259 460.795 204.228C452.84 204.25 445.187 201.187 439.445 195.681L437.365 193.41C434.472 190.278 428.818 188.891 424.789 190.349C424.789 190.349 421.203 191.677 412.956 196.434C404.696 201.251 401.791 203.738 401.791 203.738C398.539 206.499 396.914 212.07 398.169 216.193L399.066 219.17C400.909 226.935 399.73 235.11 395.766 242.037C391.83 248.957 385.364 254.081 377.728 256.333L374.728 257.015C370.616 257.971 366.564 262.191 365.799 266.398C365.799 266.398 365.117 270.176 365.117 279.762C365.117 289.349 365.799 293.115 365.799 293.115C366.54 297.346 370.544 301.578 374.728 302.498L377.657 303.179C385.307 305.439 391.786 310.579 395.719 317.524C399.83 324.732 400.823 332.932 399.018 340.427L398.169 343.332C396.914 347.408 398.539 353.038 401.803 355.823C401.803 355.823 404.732 358.309 412.956 363.091C421.215 367.873 424.766 369.175 424.766 369.175C428.77 370.657 434.401 369.235 437.341 366.103L439.397 363.88C451.351 352.44 470.19 352.452 482.131 363.903L484.187 366.139C487.08 369.259 492.735 370.657 496.762 369.199C496.762 369.199 500.348 367.873 508.609 363.115C516.857 358.333 519.749 355.847 519.749 355.847C523.012 353.098 524.639 347.479 523.383 343.355L522.487 340.343C520.635 332.606 521.816 324.454 525.785 317.56C529.742 310.637 536.209 305.501 543.847 303.216L546.788 302.534C550.9 301.578 554.952 297.358 555.718 293.15C555.718 293.15 556.399 289.373 556.399 279.798C556.327 270.2 555.657 266.398 555.657 266.398Z" fill="#08003F"/>
<path fill-rule="evenodd" clip-rule="evenodd" d="M328.925 366.66C319.558 371.985 307.604 368.67 302.229 359.219C296.858 349.847 300.1 337.896 309.473 332.524L309.505 332.506C318.865 327.183 330.821 330.498 336.191 339.944C341.534 349.378 338.282 361.332 328.925 366.66ZM358.063 319.607C356.674 317.932 353.809 317.04 351.713 317.689L350.142 318.159C346.188 319.055 342.043 318.407 338.55 316.35C335.022 314.272 332.422 310.922 331.283 306.989L330.976 305.432C330.502 303.299 328.353 301.204 326.196 300.79C326.196 300.79 324.263 300.425 319.392 300.378C314.51 300.351 312.599 300.656 312.599 300.656C310.436 301.013 308.294 303.068 307.778 305.207L307.404 306.792C306.244 310.674 303.623 313.954 300.094 315.942C296.558 317.965 292.376 318.539 288.426 317.541L286.925 317.057C284.844 316.395 281.976 317.209 280.553 318.878C280.553 318.878 279.291 320.376 276.824 324.582C274.366 328.817 273.702 330.66 273.702 330.66C272.954 332.712 273.64 335.603 275.243 337.121L276.395 338.22C279.182 341.21 280.726 345.148 280.716 349.235C280.714 353.312 279.133 357.229 276.303 360.165L275.14 361.228C273.551 362.695 272.816 365.599 273.54 367.666C273.54 367.666 274.194 369.52 276.62 373.788C279.047 378.056 280.304 379.56 280.304 379.56C281.705 381.256 284.558 382.126 286.653 381.477L288.13 381.039C292.108 380.108 296.294 380.756 299.802 382.853C303.457 385.02 305.974 388.42 307.068 392.214L307.426 393.722C307.899 395.854 310.047 397.949 312.205 398.363C312.205 398.363 314.139 398.728 319.011 398.775C323.898 398.813 325.809 398.494 325.809 398.494C327.967 398.141 330.112 396.082 330.629 393.943L330.982 392.433C333.407 384.315 341.797 379.551 350.012 381.626L351.493 382.101C353.571 382.758 356.442 381.949 357.866 380.28C357.866 380.28 359.127 378.782 361.6 374.573C364.061 370.356 364.719 368.517 364.719 368.517C365.476 366.467 364.778 363.555 363.175 362.037L362.014 360.922C359.231 357.947 357.693 354.018 357.715 349.944C357.723 345.861 359.303 341.937 362.125 338.986L363.261 337.939C364.85 336.472 365.586 333.568 364.862 331.501C364.862 331.501 364.209 329.647 361.785 325.384C359.323 321.129 358.063 319.607 358.063 319.607Z" fill="#15E7BD"/>
<path fill-rule="evenodd" clip-rule="evenodd" d="M313.192 204.972H259.576C256.074 204.972 253.208 202.107 253.208 198.604V198.07C253.208 194.567 256.074 191.702 259.576 191.702H313.192C316.694 191.702 319.56 194.567 319.56 198.07V198.604C319.56 202.107 316.694 204.972 313.192 204.972Z" fill="#08003F"/>
<path fill-rule="evenodd" clip-rule="evenodd" d="M298.194 236.022H265.018C261.354 236.022 258.383 233.052 258.383 229.387C258.383 225.723 261.354 222.751 265.018 222.751H298.194C301.859 222.751 304.829 225.723 304.829 229.387C304.829 233.052 301.859 236.022 298.194 236.022Z" fill="#08003F"/>
<path d="M764.719 -10V84.1386" stroke="white" stroke-width="1.83707" stroke-linecap="round" stroke-linejoin="round"/>
<path d="M565.029 1.28027H782.182C786.5 1.28027 790 4.78049 790 9.09822V109.123C790 113.441 786.5 116.941 782.182 116.941H565.029C560.711 116.941 557.211 113.441 557.211 109.123V9.09822C557.211 4.78049 560.711 1.28027 565.029 1.28027Z" fill="#15E7BD" stroke="#08003F" stroke-width="2"/>
<path d="M752.778 29.6733H653.209C651.586 29.6733 650.27 30.9893 650.27 32.6127V38.4913C650.27 40.1146 651.586 41.4306 653.209 41.4306H752.778C754.402 41.4306 755.718 40.1146 755.718 38.4913V32.6127C755.718 30.9893 754.402 29.6733 752.778 29.6733Z" fill="#08003F"/>
<path d="M706.484 76.7021H653.209C651.586 76.7021 650.27 78.0181 650.27 79.6415V85.5201C650.27 87.1434 651.586 88.4594 653.209 88.4594H706.484C708.107 88.4594 709.423 87.1434 709.423 85.5201V79.6415C709.423 78.0181 708.107 76.7021 706.484 76.7021Z" fill="#597EF7"/>
<path d="M752.778 53.1875H653.209C651.586 53.1875 650.27 54.5035 650.27 56.1268V62.0054C650.27 63.6288 651.586 64.9448 653.209 64.9448H752.778C754.402 64.9448 755.718 63.6288 755.718 62.0054V56.1268C755.718 54.5035 754.402 53.1875 752.778 53.1875Z" fill="#08003F"/>
<path d="M612.058 29.6733H576.786C573.539 29.6733 570.907 32.3053 570.907 35.552V70.8238C570.907 74.0705 573.539 76.7024 576.786 76.7024H612.058C615.304 76.7024 617.936 74.0705 617.936 70.8238V35.552C617.936 32.3053 615.304 29.6733 612.058 29.6733Z" fill="#08003F"/>
<path d="M632.817 29.6733V106.221" stroke="#08003F" stroke-width="2" stroke-linecap="round" stroke-linejoin="round"/>
<path d="M526.818 73.0137H743.971C748.289 73.0137 751.789 76.5139 751.789 80.8316V180.857C751.789 185.174 748.289 188.675 743.971 188.675H526.818C522.5 188.675 519 185.174 519 180.857V80.8316C519 76.5139 522.5 73.0137 526.818 73.0137Z" fill="#15E7BD" stroke="#08003F" stroke-width="2"/>
<path d="M714.567 101.407H614.998C613.375 101.407 612.059 102.723 612.059 104.347V110.225C612.059 111.849 613.375 113.165 614.998 113.165H714.567C716.191 113.165 717.507 111.849 717.507 110.225V104.347C717.507 102.723 716.191 101.407 714.567 101.407Z" fill="#08003F"/>
<path d="M668.273 148.436H614.998C613.375 148.436 612.059 149.752 612.059 151.375V157.254C612.059 158.877 613.375 160.193 614.998 160.193H668.273C669.896 160.193 671.212 158.877 671.212 157.254V151.375C671.212 149.752 669.896 148.436 668.273 148.436Z" fill="#08003F"/>
<path d="M714.567 124.922H614.998C613.375 124.922 612.059 126.238 612.059 127.861V133.74C612.059 135.363 613.375 136.679 614.998 136.679H714.567C716.191 136.679 717.507 135.363 717.507 133.74V127.861C717.507 126.238 716.191 124.922 714.567 124.922Z" fill="#08003F"/>
<path d="M573.847 101.407H538.575C535.328 101.407 532.696 104.039 532.696 107.286V142.558C532.696 145.804 535.328 148.436 538.575 148.436H573.847C577.093 148.436 579.725 145.804 579.725 142.558V107.286C579.725 104.039 577.093 101.407 573.847 101.407Z" fill="#08003F"/>
<path d="M594.606 101.407V177.954" stroke="#08003F" stroke-width="2" stroke-linecap="round" stroke-linejoin="round"/>
</g>
<g clip-path="url(#clip1_17_3437)">
<path fill-rule="evenodd" clip-rule="evenodd" d="M599.748 333.645L602.052 333.956L604.538 315.52L602.234 315.209L599.748 333.645Z" fill="#15E7BD"/>
<path fill-rule="evenodd" clip-rule="evenodd" d="M594.009 306.478C598.972 312.988 608.273 314.242 614.783 309.279C621.292 304.317 622.547 295.016 617.584 288.506C612.621 281.996 603.32 280.742 596.81 285.705C590.3 290.668 589.046 299.969 594.009 306.478ZM621.513 285.511C628.13 294.191 626.458 306.591 617.778 313.209C609.098 319.826 596.697 318.154 590.08 309.474C583.463 300.794 585.135 288.393 593.815 281.776C602.495 275.159 614.895 276.831 621.513 285.511Z" fill="#15E7BD"/>
<path fill-rule="evenodd" clip-rule="evenodd" d="M612.148 305.825C616.75 302.316 617.637 295.742 614.128 291.14C610.62 286.538 604.045 285.651 599.443 289.159C594.842 292.668 593.955 299.243 597.463 303.844C600.972 308.446 607.546 309.333 612.148 305.825Z" fill="#15E7BD"/>
<path fill-rule="evenodd" clip-rule="evenodd" d="M601.174 301.016C603.12 303.569 606.767 304.061 609.32 302.114C611.873 300.168 612.365 296.521 610.418 293.968C608.472 291.415 604.825 290.923 602.272 292.869C599.719 294.816 599.227 298.463 601.174 301.016Z" fill="white"/>
<path fill-rule="evenodd" clip-rule="evenodd" d="M598.544 342.574L600.848 342.885C601.484 342.971 602.07 342.525 602.155 341.888L604.338 325.701C604.424 325.064 603.978 324.479 603.341 324.393C603.341 324.393 603.341 324.393 603.341 324.393L601.037 324.083C600.401 323.997 599.816 324.443 599.73 325.079L597.547 341.267C597.461 341.903 597.908 342.489 598.544 342.574C598.544 342.574 598.544 342.574 598.544 342.574Z" fill="#08003F"/>
</g>
<ellipse cx="660" cy="623.5" rx="106" ry="27.5" fill="#F1F1F1"/>
<path d="M622.903 396.036C626.888 395.407 631.28 391.986 634.966 385.006L644.168 362.54L627.116 352.456C627.094 352.495 627.069 352.538 627.042 352.587C626.912 352.816 626.722 353.155 626.481 353.588C626 354.454 625.317 355.699 624.508 357.216C622.89 360.249 620.771 364.364 618.767 368.697C616.762 373.032 614.875 377.576 613.717 381.468C613.138 383.414 612.744 385.189 612.606 386.688C612.468 388.195 612.593 389.388 613.016 390.197C615.282 394.534 618.937 396.662 622.903 396.036Z" fill="#F1F1F1" stroke="#08003F" stroke-width="0.5"/>
<path d="M691.062 599.92C691.142 599.878 691.258 599.819 691.407 599.744C691.712 599.592 692.153 599.38 692.692 599.141C693.772 598.663 695.244 598.08 696.819 597.656C698.397 597.231 700.061 596.97 701.531 597.123C702.988 597.275 704.231 597.829 705.031 599.012L705.059 599.075C705.083 599.131 705.119 599.213 705.166 599.318C705.261 599.529 705.401 599.836 705.585 600.218C705.951 600.982 706.489 602.049 707.176 603.265C708.548 605.693 710.52 608.726 712.913 611.11C716.018 614.203 718.887 616.044 721.262 617.509C721.424 617.609 721.584 617.707 721.741 617.804C723.898 619.129 725.564 620.154 726.616 621.602L726.616 621.602C727.522 622.847 727.894 624.021 728.042 624.878C728.115 625.307 728.133 625.657 728.132 625.898C728.131 626.019 728.126 626.112 728.122 626.173C728.121 626.179 728.121 626.184 728.121 626.189C728.118 626.191 728.116 626.194 728.113 626.196C728.072 626.24 728.01 626.305 727.927 626.386C727.76 626.548 727.508 626.777 727.172 627.039C726.5 627.563 725.493 628.216 724.156 628.728C721.49 629.751 717.493 630.223 712.199 627.951C709.391 626.746 707.801 625.368 706.345 624.108C706.159 623.947 705.976 623.788 705.792 623.632C704.157 622.239 702.531 621.06 699.387 620.588M691.062 599.92L690.993 616.278C690.993 616.273 690.993 616.268 690.992 616.263M691.062 599.92L691.054 600.236C691.048 600.535 691.039 600.969 691.028 601.508C691.007 602.586 690.981 604.087 690.96 605.775C690.92 609.147 690.902 613.264 690.992 616.263M691.062 599.92L690.992 616.263M699.387 620.588L699.35 620.835L699.387 620.588C699.387 620.588 699.387 620.588 699.387 620.588ZM699.387 620.588C695.301 619.973 693.199 618.849 692.124 617.908C691.587 617.438 691.303 617.011 691.154 616.711C691.079 616.56 691.038 616.441 691.016 616.362C691.005 616.322 690.998 616.293 690.995 616.275C690.994 616.27 690.993 616.266 690.992 616.263" fill="#08003F" stroke="#15E7BD" stroke-width="0.5"/>
<path d="M648.388 596.557L648.137 596.563L648.138 596.552C648.172 595.037 647.56 593.871 646.566 593.095C645.565 592.313 644.159 591.915 642.6 591.986C639.485 592.126 635.801 594.139 633.703 598.58C633.116 599.823 632.773 600.881 632.446 601.89C632.39 602.063 632.334 602.235 632.278 602.406C631.893 603.573 631.479 604.696 630.669 605.954C629.054 608.461 625.887 611.47 618.315 616.514C616.472 617.743 614.851 618.85 613.812 620.217C612.803 621.545 612.338 623.128 612.818 625.343C617.145 628.706 621.724 628.806 625.823 627.573C629.955 626.33 633.588 623.735 635.94 621.769C638.267 619.823 640.217 619.264 641.987 618.756C642.047 618.739 642.106 618.722 642.166 618.705C643.954 618.19 645.556 617.684 647.277 615.784C647.572 614.801 647.778 613.139 647.917 611.169C648.058 609.173 648.13 606.885 648.163 604.719C648.195 602.555 648.189 600.515 648.175 599.017C648.168 598.268 648.158 597.654 648.151 597.228C648.147 597.015 648.144 596.848 648.141 596.735L648.139 596.607L648.138 596.574L648.138 596.566L648.138 596.564L648.138 596.563C648.138 596.563 648.138 596.563 648.388 596.557Z" fill="#08003F" stroke="#15E7BD" stroke-width="0.5"/>
<path fill-rule="evenodd" clip-rule="evenodd" d="M689.813 393.878C689.813 393.878 694.946 369.026 697.205 359.846C699.465 350.667 702.95 328.677 699.162 327.005C695.375 325.332 686.303 321.773 686.303 321.773C686.303 321.773 679.063 321.466 670.903 323.149C664.442 324.481 664.518 320.679 656.688 321.922C653.372 322.447 640.379 326.42 637.851 328.384C635.324 330.347 639.549 394.884 639.549 394.884C639.549 394.884 636.434 398.044 640.159 402.193C642.005 404.137 650.06 403.534 660.363 403.627C672.093 403.732 685.88 405.294 688.454 403.081C693.289 398.922 689.813 393.878 689.813 393.878Z" fill="#08003F"/>
<path fill-rule="evenodd" clip-rule="evenodd" d="M660.448 317.473L667.891 323.884L659.415 332.519L655.257 322.115L660.448 317.473Z" fill="#08003F"/>
<path d="M721.087 357.707C720.923 357.429 720.794 357.213 720.705 357.066C720.621 357.125 720.514 357.201 720.387 357.293C720.044 357.539 719.551 357.897 718.952 358.343C717.755 359.237 716.134 360.484 714.442 361.9C712.749 363.318 710.988 364.901 709.507 366.467C708.054 368.003 706.887 369.505 706.311 370.804L708.321 376.841L708.363 376.968L708.281 377.074L691.408 398.689L692.461 409.429C692.462 409.428 692.464 409.427 692.466 409.426C692.685 409.308 693.008 409.134 693.42 408.908C694.246 408.457 695.431 407.803 696.873 406.989C699.756 405.361 703.662 403.096 707.751 400.544C711.842 397.991 716.113 395.155 719.728 392.385C723.351 389.61 726.291 386.921 727.744 384.667C729.008 382.704 729.224 380.003 728.801 377.01C728.378 374.023 727.325 370.787 726.104 367.794C724.883 364.802 723.499 362.063 722.418 360.071C721.878 359.075 721.415 358.266 721.087 357.707Z" fill="#F1F1F1" stroke="#08003F" stroke-width="0.5"/>
<path fill-rule="evenodd" clip-rule="evenodd" d="M637.668 379.461C637.668 379.461 650.087 358.197 651.05 345.815C651.995 333.672 641.312 324.571 635.785 329.86C627.73 337.566 619.108 363.423 619.108 363.423C619.108 363.423 628.157 375.041 637.668 379.461Z" fill="#08003F"/>
<path d="M622.703 365.665C622.573 365.474 622.313 365.423 622.121 365.553C621.929 365.683 621.879 365.943 622.009 366.135C623.269 367.998 624.668 369.724 626.183 371.318C628.589 373.849 631.167 375.93 633.745 377.591C634.649 378.173 635.489 378.662 636.244 379.06C636.403 379.144 636.551 379.22 636.689 379.289L637.079 379.479C637.136 379.505 637.178 379.525 637.206 379.537C637.418 379.63 637.665 379.534 637.758 379.323C637.852 379.111 637.756 378.864 637.544 378.77L637.377 378.693L637.312 378.662C637.156 378.587 636.98 378.499 636.785 378.398L636.635 378.319C635.901 377.932 635.082 377.455 634.199 376.887C631.674 375.26 629.148 373.22 626.79 370.74C625.306 369.179 623.936 367.489 622.703 365.665Z" fill="#15E7BD"/>
<path fill-rule="evenodd" clip-rule="evenodd" d="M726.104 366.729C726.104 366.729 711.714 335.925 703.963 329.896C696.212 323.868 692.754 327.037 689.623 331.331C687.65 334.034 683.114 341.705 693.119 357.885C700.654 370.069 703.812 374.585 704.711 376.618C717.344 375.772 726.104 366.729 726.104 366.729Z" fill="#08003F"/>
<path d="M660.736 317.564L667.786 324.724L681.89 318.283L681.111 293.881L662.017 292.79L660.736 317.564Z" fill="#F1F1F1" stroke="#08003F" stroke-width="0.5"/>
<path d="M653.642 288.764C653.271 288.769 652.929 288.922 652.662 289.37L652.662 289.37C652.391 289.823 652.292 290.614 652.376 291.595C652.46 292.565 652.719 293.674 653.117 294.727C653.516 295.781 654.049 296.765 654.672 297.492C655.298 298.222 655.989 298.663 656.703 298.702C657.203 298.729 657.547 298.623 657.785 298.444C658.023 298.265 658.186 297.992 658.278 297.626C658.467 296.883 658.347 295.837 658.08 294.739C657.815 293.65 657.416 292.551 657.081 291.721C656.914 291.306 656.763 290.96 656.655 290.718C656.601 290.597 656.557 290.503 656.527 290.438C656.515 290.414 656.506 290.394 656.499 290.378L656.496 290.376C656.475 290.355 656.443 290.324 656.402 290.285C656.32 290.208 656.201 290.098 656.054 289.974C655.759 289.723 655.357 289.414 654.922 289.171C654.483 288.924 654.035 288.76 653.642 288.764Z" fill="#F1F1F1" stroke="#08003F" stroke-width="0.5"/>
<path d="M675.525 309.031L675.525 309.031L675.548 309.012L675.574 309L675.574 309L675.575 308.999L675.575 308.999L675.578 308.998L675.593 308.99C675.608 308.982 675.63 308.97 675.66 308.954C675.719 308.921 675.807 308.869 675.921 308.796C676.149 308.65 676.477 308.419 676.872 308.084C677.663 307.416 678.721 306.332 679.776 304.679C681.886 301.376 683.99 295.784 683.893 286.662C683.85 282.587 682.903 279.559 681.438 277.331C679.974 275.104 677.983 273.66 675.823 272.769C671.492 270.982 666.497 271.427 663.816 272.255C661.124 273.087 659.17 274.242 657.811 275.859C656.452 277.475 655.665 279.577 655.352 282.342C654.794 287.27 654.72 293.082 655.541 298.115C655.951 300.632 656.584 302.944 657.486 304.851C658.389 306.759 659.553 308.245 661.02 309.133C665.185 311.656 668.814 311.621 671.397 310.964C672.692 310.635 673.728 310.149 674.439 309.746C674.794 309.545 675.068 309.364 675.252 309.235C675.344 309.17 675.413 309.118 675.459 309.083C675.482 309.066 675.499 309.052 675.51 309.043L675.522 309.034L675.525 309.032L675.525 309.031Z" fill="#F1F1F1" stroke="black" stroke-width="0.5"/>
<path d="M664.575 284.868C664.433 284.904 664.341 285.038 664.351 285.18L664.36 285.233L665.241 288.641L663.436 297.963C663.403 298.131 663.517 298.288 663.679 298.316L663.729 298.32L667.672 298.335C667.837 298.335 667.972 298.201 667.973 298.036C667.973 297.887 667.865 297.763 667.722 297.739L667.674 297.735L664.094 297.721L665.842 288.689C665.848 288.66 665.849 288.63 665.846 288.601L665.838 288.557L664.941 285.083C664.904 284.94 664.771 284.848 664.629 284.859L664.575 284.868Z" fill="#08003F"/>
<path d="M668.385 283.938C668.339 284.377 668.658 284.771 669.098 284.816L672.067 285.141L672.812 285.215C674.955 285.422 676.306 285.465 677.141 285.295C677.574 285.207 677.854 284.785 677.766 284.352C677.678 283.919 677.256 283.64 676.823 283.727C676.124 283.869 674.62 283.798 672.233 283.55L669.264 283.226C668.824 283.18 668.431 283.499 668.385 283.938Z" fill="#08003F"/>
<path d="M670.938 300.621C670.879 300.397 670.65 300.264 670.427 300.322L670.3 300.352L670.161 300.382C669.933 300.429 669.665 300.477 669.358 300.521C667.754 300.753 665.846 300.809 663.709 300.583C663.479 300.558 663.273 300.725 663.248 300.955C663.224 301.185 663.391 301.391 663.621 301.416C665.83 301.65 667.807 301.591 669.478 301.35C669.737 301.313 669.971 301.273 670.179 301.233L670.33 301.203C670.479 301.172 670.583 301.148 670.64 301.133C670.863 301.074 670.997 300.845 670.938 300.621Z" fill="#08003F"/>
<path fill-rule="evenodd" clip-rule="evenodd" d="M682.309 293.722L685.479 287.365C685.479 287.365 687.456 278.214 685.317 274.296C681.997 268.216 674.484 268.425 670.015 266.825C665.544 265.224 665.577 263.723 663.77 263.983C661.962 264.244 654.987 269.171 654.231 274.285C653.567 278.78 654.78 290.215 654.78 290.215C654.78 290.215 655.981 280.075 656.942 277.393C660.467 275.896 673.309 275.745 678.68 277.365C678.68 277.365 679.165 280.811 679.448 283.24C682.331 285.276 682.309 293.722 682.309 293.722Z" fill="#08003F"/>
<path d="M660.766 308.777C660.654 308.655 660.464 308.647 660.342 308.76C660.221 308.872 660.213 309.062 660.326 309.184C660.406 309.27 660.558 309.414 660.783 309.595C661.153 309.892 661.598 310.189 662.118 310.464C665.12 312.056 669.1 312.299 674.069 310.356C674.223 310.296 674.299 310.122 674.239 309.968C674.179 309.813 674.005 309.737 673.85 309.798C669.045 311.677 665.247 311.444 662.399 309.934C661.914 309.677 661.5 309.402 661.159 309.127L661.021 309.013C660.897 308.907 660.812 308.826 660.766 308.777Z" fill="#08003F"/>
<path d="M664.875 288.061C664.543 288.049 664.266 288.308 664.254 288.64C664.243 288.949 664.468 289.211 664.767 289.254L664.833 289.26L667.733 289.361C668.064 289.373 668.342 289.114 668.353 288.783C668.364 288.474 668.139 288.211 667.84 288.168L667.775 288.162L664.875 288.061Z" fill="#08003F"/>
<path d="M667.49 289.995C666.904 289.743 666.305 289.608 665.717 289.662C665.159 289.713 664.655 289.936 664.243 290.348C664.009 290.583 664.009 290.963 664.244 291.197C664.462 291.414 664.805 291.429 665.04 291.242L665.092 291.196C665.298 290.99 665.539 290.883 665.826 290.857C666.184 290.824 666.598 290.917 667.016 291.097C667.174 291.165 667.305 291.233 667.397 291.286L667.489 291.342C667.766 291.525 668.138 291.449 668.321 291.172C668.503 290.896 668.427 290.523 668.15 290.341C668.011 290.249 667.784 290.121 667.49 289.995Z" fill="#15E7BD"/>
<path d="M662.82 283.182C661.467 282.681 660.097 282.411 658.787 282.5C657.764 282.57 656.827 282.862 656.009 283.407C655.642 283.652 655.543 284.148 655.788 284.516C656.033 284.883 656.529 284.983 656.897 284.738C657.469 284.356 658.138 284.148 658.896 284.096C659.947 284.024 661.106 284.253 662.264 284.682C662.55 284.788 662.819 284.9 663.065 285.013L663.246 285.098C663.418 285.181 663.537 285.244 663.594 285.276C663.978 285.494 664.466 285.358 664.684 284.974C664.902 284.59 664.767 284.102 664.382 283.884C664.062 283.702 663.519 283.441 662.82 283.182Z" fill="#08003F"/>
<path d="M665.411 303.553C665.246 303.55 665.108 303.681 665.105 303.847C665.102 303.996 665.208 304.122 665.35 304.148L665.398 304.153L667.762 304.205C667.927 304.209 668.065 304.077 668.068 303.912C668.072 303.763 667.966 303.637 667.824 303.61L667.775 303.605L665.411 303.553Z" fill="#08003F"/>
<path d="M678.512 288.377C678.181 288.371 677.908 288.635 677.902 288.966C677.897 289.276 678.127 289.534 678.427 289.572L678.492 289.576L683.25 289.655C683.581 289.66 683.854 289.396 683.859 289.065C683.864 288.756 683.635 288.497 683.335 288.46L683.269 288.455L678.512 288.377Z" fill="#15E7BD"/>
<path fill-rule="evenodd" clip-rule="evenodd" d="M678.166 288.029L669.085 287.828C668.45 287.814 667.925 288.315 667.916 288.949C667.898 290.132 667.922 292.031 668.195 293.661C668.514 295.584 670.211 296.795 672.156 296.928C674.587 297.095 676.77 297.145 677.902 295.908C679.625 294.021 679.283 290.846 679.285 289.168C679.285 288.553 678.782 288.042 678.166 288.029Z" fill="#F1F1F1"/>
<path d="M669.001 287.629L669.089 287.628L678.171 287.829C678.896 287.845 679.485 288.444 679.485 289.168L679.489 289.543L679.507 290.413C679.523 291.407 679.5 292.043 679.405 292.765C679.225 294.121 678.804 295.217 678.05 296.042C677.022 297.166 675.469 297.356 672.143 297.128C670.019 296.982 668.321 295.638 667.998 293.694C667.767 292.309 667.691 290.657 667.716 288.946C667.727 288.231 668.295 287.659 669.001 287.629ZM678.163 288.229L669.081 288.028C668.556 288.016 668.124 288.43 668.116 288.952C668.091 290.641 668.166 292.271 668.392 293.628C668.683 295.378 670.221 296.595 672.17 296.729L672.815 296.769C675.571 296.919 676.908 296.698 677.755 295.773C678.446 295.016 678.839 293.994 679.008 292.712C679.101 292.013 679.123 291.392 679.108 290.415L679.086 289.298C679.086 289.255 679.086 289.213 679.086 289.167C679.086 288.662 678.67 288.24 678.163 288.229Z" fill="#15E7BD"/>
<path fill-rule="evenodd" clip-rule="evenodd" d="M664.004 287.615L653.722 287.388C653.308 288.882 653.547 294.7 655.284 295.984C657.62 297.275 662.407 296.844 663.177 295.599C664.344 293.71 664.842 290.069 664.857 288.497C664.862 288.018 664.483 287.626 664.004 287.615Z" fill="#F1F1F1"/>
<path d="M653.727 287.188L664.008 287.415C664.597 287.429 665.063 287.91 665.058 288.499C665.036 290.726 664.358 294.068 663.347 295.704C662.471 297.121 657.506 297.441 655.187 296.16C653.614 294.998 652.928 289.506 653.53 287.335C653.554 287.246 653.635 287.186 653.727 287.188ZM653.877 287.591L653.855 287.69C653.404 289.875 654.071 294.839 655.403 295.824C657.535 297 662.264 296.695 663.007 295.494C663.972 293.932 664.637 290.655 664.658 288.495C664.661 288.125 664.369 287.823 663.999 287.815L653.877 287.591Z" fill="#15E7BD"/>
<path d="M679.149 287.513L667.885 287.559C667.553 287.561 667.286 287.83 667.287 288.162C667.289 288.471 667.524 288.725 667.824 288.756L667.89 288.759L679.153 288.713C679.485 288.712 679.752 288.442 679.751 288.111C679.75 287.801 679.515 287.548 679.214 287.516L679.149 287.513Z" fill="#15E7BD"/>
<path d="M653.654 287.013C653.323 287.001 653.045 287.26 653.033 287.591C653.022 287.9 653.247 288.163 653.546 288.206L653.611 288.212L664.64 288.611C664.971 288.623 665.249 288.364 665.261 288.033C665.272 287.724 665.048 287.461 664.749 287.418L664.683 287.412L653.654 287.013Z" fill="#15E7BD"/>
<path fill-rule="evenodd" clip-rule="evenodd" d="M671.223 290.131C671.197 290.775 671.574 291.312 672.065 291.332C672.555 291.351 672.973 290.845 672.999 290.201C673.024 289.557 672.647 289.019 672.157 289.001C671.667 288.981 671.248 289.487 671.223 290.131Z" fill="#253368"/>
<path fill-rule="evenodd" clip-rule="evenodd" d="M658.223 290.131C658.197 290.775 658.574 291.312 659.065 291.332C659.555 291.351 659.973 290.845 659.999 290.201C660.024 289.557 659.647 289.019 659.157 289.001C658.667 288.981 658.248 289.487 658.223 290.131Z" fill="#08003F"/>
<path d="M683.903 288.763L683.903 288.763C684.439 288.192 685.119 287.831 685.802 287.765C686.479 287.699 687.177 287.919 687.774 288.543L683.903 288.763ZM683.903 288.763C683.499 289.194 683.098 290.038 682.762 291.105C682.428 292.161 682.169 293.4 682.03 294.59C681.89 295.782 681.874 296.908 682.015 297.742C682.087 298.16 682.195 298.487 682.334 298.71C682.463 298.918 682.607 299.019 682.765 299.045M683.903 288.763L682.765 299.045M682.765 299.045C685.377 298.822 687.13 296.75 687.979 294.402C688.404 293.228 688.595 292.004 688.553 290.947C688.511 289.881 688.236 289.025 687.774 288.543L682.765 299.045Z" fill="#F1F1F1" stroke="#08003F" stroke-width="0.5"/>
<path d="M617.051 394.755L617.085 394.762L617.116 394.779C621.737 397.211 625.751 395.403 628.65 392.935C630.1 391.701 631.259 390.311 632.056 389.227C632.455 388.685 632.762 388.222 632.969 387.894C633.073 387.73 633.152 387.6 633.204 387.512C633.208 387.505 633.211 387.5 633.215 387.494L610.541 344.195C610.472 344.2 610.381 344.207 610.272 344.215C609.999 344.237 609.607 344.271 609.139 344.323C608.201 344.426 606.959 344.599 605.732 344.875C604.501 345.153 603.305 345.53 602.45 346.034C601.587 346.542 601.148 347.129 601.236 347.815C601.533 350.151 603.594 361.525 606.551 372.516C608.029 378.012 609.728 383.401 611.538 387.513C612.444 389.569 613.373 391.296 614.31 392.555C615.253 393.822 616.174 394.573 617.051 394.755Z" fill="#F1F1F1" stroke="#08003F" stroke-width="0.5"/>
<path fill-rule="evenodd" clip-rule="evenodd" d="M688.108 602.185L665.011 445.554L663.516 445.221L651.244 601.364C651.244 601.364 638.282 605.115 631.472 600.967C631.404 570.494 633.128 471.622 636.458 426.439C636.994 419.164 639.295 409.286 639.761 406.54C660.553 403.165 688.853 408.131 688.853 408.131L708.006 599.931C708.006 599.931 697.701 605.329 688.108 602.185Z" fill="#15E7BD"/>
<path d="M652.966 439.094C652.818 439.02 652.638 439.081 652.564 439.229C652.498 439.361 652.539 439.518 652.653 439.603L652.699 439.631L665.178 445.83C665.326 445.904 665.506 445.843 665.58 445.695C665.645 445.563 665.605 445.406 665.491 445.321L665.445 445.293L652.966 439.094Z" fill="#08003F"/>
<path fill-rule="evenodd" clip-rule="evenodd" d="M688.581 403.017C688.581 403.017 662.159 398.935 640.148 402.644C639.954 404.592 639.751 406.99 639.751 406.99C639.751 406.99 657.567 402.737 688.666 408.845C688.615 403.555 688.581 403.017 688.581 403.017Z" fill="#15E7BD"/>
<path d="M679.527 408.509C669.996 407.687 660.254 407.341 651.159 407.739C647.3 407.908 643.657 408.211 640.267 408.658C640.102 408.679 639.987 408.83 640.008 408.994C640.03 409.159 640.181 409.274 640.345 409.253C643.717 408.808 647.343 408.507 651.185 408.338C660.251 407.941 669.968 408.287 679.475 409.106C681.473 409.278 683.328 409.461 685.013 409.645L685.915 409.746C686.299 409.789 686.656 409.831 686.987 409.871L688.305 410.036C688.469 410.058 688.621 409.943 688.643 409.779C688.665 409.615 688.55 409.463 688.386 409.441L687.537 409.333L686.541 409.214L685.983 409.15C684.061 408.931 681.893 408.713 679.527 408.509Z" fill="#08003F"/>
<path d="M679.685 401.786C670.15 400.964 660.405 400.617 651.305 401.015C647.442 401.184 643.796 401.487 640.402 401.935C640.172 401.965 640.011 402.175 640.041 402.405C640.071 402.634 640.282 402.796 640.511 402.765C643.88 402.321 647.502 402.02 651.342 401.852C660.065 401.471 669.393 401.777 678.557 402.531L679.613 402.62C681.792 402.808 683.801 403.008 685.605 403.209L686.606 403.323L687.949 403.486L688.439 403.549C688.668 403.58 688.879 403.42 688.91 403.19C688.941 402.961 688.781 402.75 688.551 402.719L687.925 402.638C687.56 402.593 687.152 402.544 686.704 402.491L686.146 402.427C684.222 402.208 682.053 401.99 679.685 401.786Z" fill="#08003F"/>
<path d="M662.077 402.238C661.928 402.238 661.804 402.346 661.781 402.489L661.777 402.538L661.784 404.717C661.792 406.374 661.808 408.213 661.832 410.187C661.9 415.792 662.023 421.391 662.215 426.618L662.274 428.157C662.517 434.233 662.844 439.328 663.266 443.152C663.284 443.317 663.433 443.436 663.597 443.417C663.762 443.399 663.881 443.251 663.862 443.086L663.762 442.133C663.356 438.112 663.043 432.833 662.814 426.596C662.636 421.748 662.518 416.578 662.447 411.379L662.414 408.597C662.403 407.563 662.395 406.573 662.389 405.635L662.377 402.541C662.377 402.372 662.243 402.238 662.077 402.238Z" fill="#08003F"/>
<path fill-rule="evenodd" clip-rule="evenodd" d="M656.929 404.374C656.912 405.12 657.368 405.735 657.949 405.749C658.529 405.761 659.013 405.167 659.031 404.422C659.047 403.675 658.59 403.06 658.01 403.047C657.43 403.033 656.946 403.628 656.929 404.374Z" fill="#08003F"/>
<path d="M619.726 360.806C619.645 360.662 619.462 360.611 619.317 360.692C619.189 360.764 619.135 360.917 619.181 361.051L619.203 361.101L628.084 376.845C628.166 376.989 628.349 377.04 628.493 376.959C628.621 376.886 628.676 376.734 628.629 376.599L628.607 376.55L619.726 360.806Z" fill="#08003F"/>
<path fill-rule="evenodd" clip-rule="evenodd" d="M667.809 324.876L675.025 334.5L685.982 321.791L682.033 316.787L667.809 324.876Z" fill="#08003F"/>
<path d="M667.48 325.392C667.273 325.314 667.042 325.419 666.965 325.626L666.882 325.866L666.8 326.124C666.757 326.264 666.71 326.421 666.66 326.596L666.504 327.159C666.31 327.885 666.1 328.755 665.878 329.777C665.072 333.485 664.267 338.438 663.516 344.805C662.762 351.2 662.104 358.693 661.57 367.37L661.49 368.7C660.767 381.272 660.874 392.069 661.431 400.232C661.446 400.452 661.637 400.619 661.857 400.604C662.078 400.589 662.244 400.398 662.229 400.177L662.172 399.312C661.65 390.998 661.588 380.08 662.368 367.419L662.464 365.903C662.964 358.131 663.564 351.34 664.245 345.465L664.426 343.935C665.122 338.213 665.86 333.69 666.598 330.233L666.66 329.947C666.939 328.662 667.198 327.626 667.429 326.816L667.522 326.501C667.551 326.404 667.578 326.315 667.604 326.233L667.68 326.003C667.695 325.957 667.707 325.925 667.714 325.907C667.791 325.7 667.687 325.47 667.48 325.392Z" fill="#15E7BD"/>
<path d="M637.509 330.306C637.278 330.296 637.082 330.476 637.073 330.707L637.056 331.244C637.003 333.487 637.062 336.055 637.32 338.498C637.481 340.022 637.711 341.377 638.019 342.523L638.087 342.765L638.064 342.809L638.037 342.864C637.97 343.017 637.908 343.238 637.846 343.534C637.727 344.112 637.609 344.983 637.502 346.09L637.454 346.622C637.24 349.081 637.096 352.361 637.058 356.137C636.954 366.44 637.609 378.876 639.177 392.423L639.258 393.112L639.15 393.388L639.116 393.479C638.979 393.847 638.842 394.253 638.715 394.687C638.408 395.73 638.203 396.765 638.144 397.74C638.047 399.366 638.367 400.694 639.23 401.596C639.39 401.763 639.655 401.769 639.823 401.609C639.99 401.45 639.996 401.184 639.836 401.017C639.163 400.314 638.896 399.206 638.981 397.79C639.035 396.886 639.229 395.91 639.519 394.924C639.616 394.592 639.719 394.278 639.823 393.986L639.901 393.771C639.979 393.563 640.038 393.415 640.071 393.338C640.1 393.27 640.111 393.196 640.103 393.123C638.502 379.567 637.816 367.103 637.891 356.752L637.896 356.146C637.934 352.39 638.076 349.133 638.288 346.697L638.336 346.17C638.44 345.091 638.554 344.247 638.667 343.704C638.695 343.566 638.724 343.45 638.749 343.36L638.776 343.277C638.921 343.192 639.016 343.029 638.981 342.841L638.968 342.79C638.602 341.602 638.333 340.119 638.153 338.41C637.918 336.181 637.851 333.835 637.885 331.742L637.906 330.842C637.907 330.802 637.909 330.769 637.91 330.742C637.92 330.511 637.74 330.316 637.509 330.306Z" fill="#15E7BD"/>
<path d="M657.961 337.753L658.046 337.752C658.29 337.752 658.483 337.958 658.466 338.201L657.401 353.121C657.391 353.262 657.309 353.389 657.185 353.458L649.069 357.93C648.93 358.006 648.759 357.998 648.629 357.907L642.411 353.602C642.309 353.532 642.244 353.42 642.232 353.297L642.192 352.786L642.159 352.275C642.145 352.031 642.131 351.766 642.117 351.479L642.081 350.663C641.972 347.924 641.943 344.463 642.038 340.26C642.042 340.099 642.138 339.954 642.285 339.888C644.289 338.985 647.487 338.399 651.448 338.058C652.873 337.936 654.314 337.853 655.714 337.803L656.584 337.776C657.126 337.762 657.591 337.755 657.961 337.753ZM656.581 352.834L657.598 338.594L656.922 338.606C656.568 338.614 656.173 338.625 655.744 338.64C654.357 338.69 652.93 338.772 651.519 338.893L651.169 338.924L650.482 338.99C647.316 339.31 644.718 339.805 642.987 340.499L642.871 340.548L642.857 341.197C642.783 345.121 642.82 348.359 642.93 350.927L642.964 351.647C642.974 351.851 642.985 352.044 642.996 352.224L643.051 353.025L648.892 357.07L656.581 352.834Z" fill="#15E7BD"/>
<path d="M684.743 401.692L684.743 401.692L684.741 401.688L684.729 401.672C684.719 401.657 684.703 401.634 684.683 401.604C684.643 401.542 684.586 401.451 684.525 401.334C684.401 401.1 684.257 400.767 684.174 400.371C684.01 399.589 684.08 398.552 685.053 397.517L685.266 397.289L684.998 397.13C684.156 396.632 683.71 395.994 683.548 395.426C683.382 394.849 683.51 394.367 683.768 394.119L683.768 394.119L683.769 394.119L683.772 394.116L683.786 394.103L683.841 394.051C683.891 394.005 683.963 393.939 684.056 393.854C684.242 393.684 684.51 393.441 684.839 393.15C685.497 392.569 686.397 391.797 687.364 391.035C688.333 390.271 689.364 389.521 690.285 388.98C690.746 388.709 691.173 388.494 691.548 388.356C691.927 388.215 692.227 388.163 692.444 388.189L692.444 388.189C692.827 388.236 693.115 388.367 693.334 388.553C693.554 388.739 693.717 388.991 693.831 389.299C694.062 389.92 694.081 390.737 693.991 391.573C693.901 392.404 693.706 393.226 693.533 393.842C693.446 394.15 693.365 394.405 693.306 394.583C693.277 394.672 693.253 394.742 693.236 394.789L693.217 394.842L693.212 394.855L693.211 394.858L693.211 394.859L693.211 394.859L693.211 394.859L693.143 395.042L693.304 395.152L693.304 395.152L693.304 395.152L693.304 395.152L693.304 395.152L693.309 395.155L693.328 395.17C693.346 395.183 693.374 395.204 693.408 395.232C693.478 395.288 693.576 395.372 693.689 395.485C693.915 395.709 694.196 396.04 694.417 396.467C694.853 397.307 695.074 398.543 694.127 400.131L694.067 400.232L694.106 400.342C694.67 401.933 694.502 403.078 694.212 403.816C694.065 404.188 693.885 404.462 693.744 404.641C693.673 404.731 693.612 404.797 693.571 404.839C693.55 404.861 693.533 404.876 693.523 404.885L693.512 404.895L693.511 404.896L693.511 404.896L693.511 404.896L693.511 404.897L693.51 404.897L693.331 405.047L693.47 405.236L693.47 405.236L693.47 405.236L693.47 405.236L693.471 405.236L693.473 405.24L693.485 405.258C693.497 405.274 693.513 405.299 693.534 405.332C693.576 405.399 693.633 405.498 693.695 405.622C693.818 405.873 693.954 406.223 694.01 406.627C694.066 407.03 694.043 407.483 693.851 407.947C693.659 408.411 693.293 408.901 692.639 409.37L684.743 401.692ZM684.743 401.692L684.743 401.692M684.743 401.692L684.743 401.692M684.743 401.692L684.743 401.692L684.743 401.692L684.869 401.856L684.731 402.01L684.731 402.01L684.731 402.01L684.731 402.01L684.731 402.01L684.728 402.014L684.714 402.03C684.701 402.045 684.682 402.069 684.658 402.1C684.611 402.162 684.544 402.255 684.47 402.375C684.322 402.615 684.15 402.956 684.05 403.365C683.852 404.169 683.919 405.262 685.065 406.405L685.163 406.503L685.131 406.639C684.897 407.64 685.086 408.404 685.514 408.971C685.949 409.546 686.653 409.948 687.496 410.17C689.19 410.615 691.334 410.303 692.639 409.37L684.743 401.692Z" fill="#F1F1F1" stroke="#08003F" stroke-width="0.5"/>
<path d="M691.748 393.52C691.677 393.391 691.524 393.336 691.39 393.382L691.34 393.404L684.724 397.084C684.58 397.164 684.527 397.347 684.608 397.492C684.68 397.62 684.832 397.676 684.966 397.63L685.016 397.608L691.632 393.928C691.777 393.847 691.829 393.665 691.748 393.52Z" fill="#08003F"/>
<path d="M693.65 394.726C693.529 394.613 693.339 394.62 693.226 394.741C693.113 394.862 693.12 395.051 693.241 395.165L693.331 395.255C693.369 395.295 693.415 395.344 693.467 395.403C693.642 395.602 693.818 395.828 693.982 396.078C694.862 397.418 695.038 398.792 694.099 400.083C694.038 400.168 694.025 400.278 694.065 400.375C694.779 402.086 694.646 403.369 694.008 404.297C693.894 404.464 693.771 404.603 693.65 404.717C693.58 404.782 693.528 404.823 693.505 404.839C693.437 404.885 693.391 404.956 693.377 405.035L693.373 405.084L693.338 408.128C693.336 408.294 693.469 408.429 693.635 408.431C693.784 408.433 693.909 408.326 693.934 408.183L693.938 408.135L693.971 405.237L694.036 405.18C694.155 405.073 694.288 404.93 694.422 404.749L694.503 404.636C695.206 403.614 695.388 402.241 694.765 400.518L694.681 400.298L694.767 400.165C695.64 398.762 695.441 397.282 694.57 395.883L694.483 395.748C694.303 395.473 694.11 395.225 693.916 395.006L693.807 394.886C693.741 394.815 693.688 394.761 693.65 394.726Z" fill="#08003F"/>
<path d="M690.813 399.894L684.468 401.553C684.308 401.595 684.212 401.759 684.254 401.919C684.291 402.062 684.425 402.153 684.566 402.143L684.62 402.134L690.964 400.475C691.125 400.433 691.221 400.269 691.179 400.108C691.141 399.966 691.008 399.874 690.866 399.885L690.813 399.894Z" fill="#08003F"/>
<path d="M690.944 405.297L684.84 406.286C684.676 406.313 684.565 406.467 684.592 406.63C684.616 406.777 684.743 406.882 684.887 406.882L684.936 406.878L691.04 405.89C691.203 405.863 691.315 405.709 691.288 405.545C691.264 405.398 691.137 405.294 690.993 405.293L690.944 405.297Z" fill="#08003F"/>
<path fill-rule="evenodd" clip-rule="evenodd" d="M667.196 332.07C667.179 332.816 667.67 333.433 668.292 333.447C668.913 333.46 669.431 332.867 669.448 332.122C669.465 331.375 668.974 330.759 668.353 330.745C667.731 330.731 667.213 331.324 667.196 332.07Z" fill="#15E7BD"/>
<path fill-rule="evenodd" clip-rule="evenodd" d="M665.31 345.769C665.292 346.515 665.783 347.132 666.405 347.146C667.027 347.159 667.545 346.566 667.562 345.82C667.578 345.074 667.088 344.458 666.466 344.444C665.844 344.429 665.327 345.023 665.31 345.769Z" fill="#15E7BD"/>
<path fill-rule="evenodd" clip-rule="evenodd" d="M664.074 360.609C664.057 361.354 664.547 361.971 665.169 361.985C665.791 361.999 666.308 361.405 666.326 360.66C666.343 359.913 665.852 359.297 665.23 359.283C664.609 359.269 664.091 359.862 664.074 360.609Z" fill="#15E7BD"/>
<path fill-rule="evenodd" clip-rule="evenodd" d="M663.533 374.563C663.517 375.309 664.007 375.925 664.629 375.939C665.251 375.953 665.768 375.359 665.786 374.614C665.802 373.867 665.312 373.251 664.69 373.237C664.068 373.223 663.551 373.817 663.533 374.563Z" fill="#15E7BD"/>
<path fill-rule="evenodd" clip-rule="evenodd" d="M663.342 393.03C663.325 393.776 663.816 394.393 664.438 394.407C665.06 394.42 665.577 393.827 665.594 393.081C665.61 392.335 665.12 391.719 664.498 391.705C663.877 391.691 663.36 392.284 663.342 393.03Z" fill="#15E7BD"/>
<path d="M686.101 321.878C685.949 321.747 685.726 321.751 685.579 321.879L685.537 321.921L675.252 333.889L668.022 325.365C667.892 325.212 667.671 325.181 667.506 325.284L667.458 325.319C667.305 325.449 667.274 325.67 667.377 325.835L667.411 325.883L674.945 334.764C675.091 334.936 675.346 334.951 675.511 334.809L675.553 334.766L686.144 322.442C686.288 322.275 686.268 322.022 686.101 321.878Z" fill="#15E7BD"/>
<path d="M655.631 322.214C655.562 322.004 655.335 321.891 655.126 321.96C654.933 322.024 654.822 322.22 654.858 322.414L654.872 322.466L658.739 334.117C658.827 334.383 659.149 334.473 659.361 334.309L659.405 334.27L667.707 325.747C667.861 325.589 667.858 325.336 667.699 325.181C667.557 325.043 667.338 325.031 667.183 325.146L667.134 325.189L659.291 333.24L655.631 322.214Z" fill="#15E7BD"/>
<path d="M655.468 407.976C655.305 407.951 655.151 408.063 655.126 408.226L655.096 408.424C655.074 408.583 655.048 408.769 655.02 408.98L654.953 409.515C654.898 409.976 654.843 410.475 654.79 411.007C654.472 414.238 654.353 417.559 654.549 420.663L654.586 421.193C655.114 428.203 657.218 432.646 661.43 433.248C661.594 433.271 661.746 433.158 661.769 432.994C661.793 432.83 661.679 432.678 661.515 432.654C657.586 432.093 655.593 427.682 655.148 420.625C654.954 417.558 655.072 414.268 655.387 411.066L655.451 410.449C655.494 410.049 655.538 409.671 655.582 409.318L655.655 408.764L655.718 408.319C655.744 408.155 655.632 408.002 655.468 407.976Z" fill="#08003F"/>
<path d="M703.958 332.681C703.841 332.481 703.585 332.413 703.385 332.53L703.307 332.577C703.232 332.624 703.128 332.692 703 332.782C702.707 332.987 702.381 333.238 702.032 333.537C701.038 334.386 700.046 335.451 699.121 336.746C695.519 341.791 693.938 348.74 695.5 357.833C695.539 358.061 695.756 358.214 695.984 358.175C696.212 358.136 696.365 357.919 696.326 357.691C694.802 348.818 696.331 342.096 699.803 337.233C700.687 335.995 701.632 334.98 702.576 334.174C702.85 333.939 703.107 333.738 703.342 333.567L703.48 333.468C703.64 333.357 703.752 333.286 703.806 333.254C704.006 333.137 704.074 332.881 703.958 332.681Z" fill="#15E7BD"/>
<path d="M726.396 366.428C726.23 366.268 725.964 366.272 725.803 366.438L725.644 366.597C725.574 366.667 725.486 366.751 725.382 366.851L725.067 367.146C724.792 367.399 724.487 367.671 724.154 367.957C722.819 369.104 721.304 370.251 719.639 371.322C714.828 374.414 709.77 376.249 704.715 376.199C704.483 376.197 704.294 376.383 704.292 376.614C704.289 376.846 704.475 377.035 704.707 377.037C709.948 377.088 715.155 375.2 720.092 372.027C721.792 370.934 723.337 369.763 724.7 368.593L725.095 368.248C725.35 368.024 725.585 367.809 725.801 367.607L726.051 367.37L726.406 367.021C726.566 366.855 726.562 366.589 726.396 366.428Z" fill="#15E7BD"/>
<path d="M686.455 289.475C686.394 289.321 686.22 289.246 686.066 289.307L685.96 289.353C685.897 289.382 685.82 289.42 685.732 289.468C685.489 289.6 685.246 289.76 685.018 289.951C684.186 290.646 683.765 291.551 684.014 292.651C684.108 293.068 684.298 293.292 684.653 293.506L684.807 293.594C685.111 293.763 685.187 293.846 685.213 294.106C685.264 294.604 685.036 294.974 684.6 295.257C684.455 295.351 684.296 295.428 684.138 295.487L684.037 295.523C683.993 295.537 683.959 295.547 683.938 295.552C683.777 295.59 683.677 295.752 683.715 295.913C683.754 296.074 683.915 296.174 684.077 296.136C684.296 296.083 684.61 295.966 684.927 295.76C685.535 295.365 685.886 294.795 685.81 294.046C685.763 293.581 685.583 293.355 685.186 293.12L685.039 293.036C684.758 292.879 684.657 292.773 684.599 292.518C684.406 291.667 684.728 290.975 685.403 290.411C685.598 290.248 685.808 290.11 686.018 289.996L686.152 289.926C686.211 289.897 686.257 289.876 686.287 289.865C686.441 289.803 686.516 289.629 686.455 289.475Z" fill="#08003F"/>
<path d="M649.905 444.188C649.74 444.177 649.596 444.301 649.585 444.466C649.574 444.615 649.674 444.746 649.814 444.779L649.863 444.787L659.759 445.482C659.924 445.494 660.068 445.369 660.079 445.204C660.09 445.055 659.99 444.924 659.849 444.891L659.801 444.884L649.905 444.188Z" fill="#08003F"/>
<path d="M594.31 333.272C594.317 333.267 594.324 333.261 594.333 333.255C594.362 333.231 594.403 333.196 594.454 333.15C594.554 333.057 594.691 332.918 594.845 332.726C595.152 332.34 595.524 331.744 595.802 330.885C595.802 330.885 595.802 330.885 595.802 330.885M594.31 333.272L595.802 330.885M594.31 333.272C594.126 333.5 594.026 333.812 594.015 334.217C594.004 334.636 594.09 335.138 594.261 335.709C594.603 336.85 595.272 338.218 596.103 339.66C597.624 342.297 599.661 345.134 601.144 347.199C601.281 347.39 601.413 347.574 601.54 347.751L601.54 347.751C602.465 349.042 604.693 349.57 606.715 348.784C608.7 348.013 610.471 345.966 610.4 342.12L610.4 342.101L610.403 342.082L610.403 342.082L610.403 342.082L610.403 342.081L610.403 342.079L610.404 342.069L610.409 342.03C610.413 341.995 610.42 341.942 610.427 341.874C610.442 341.737 610.462 341.537 610.482 341.286C610.522 340.782 610.561 340.073 610.559 339.251C610.555 337.602 610.384 335.522 609.732 333.744L609.732 333.744C608.69 330.904 607.416 324.772 607.188 322.278L607.188 322.278C607.171 322.091 607.09 321.983 606.986 321.923C606.874 321.858 606.702 321.831 606.484 321.88C606.048 321.978 605.492 322.372 605.123 323.14L605.123 323.14C604.752 323.912 604.707 324.687 604.708 325.285C604.709 325.377 604.71 325.468 604.712 325.556C604.715 325.74 604.718 325.909 604.708 326.035C604.701 326.125 604.685 326.24 604.632 326.334C604.603 326.387 604.556 326.442 604.486 326.48C604.414 326.518 604.34 326.525 604.274 326.518M594.31 333.272L595.802 330.885M595.802 330.885C596.453 328.882 597.124 327.855 598.171 326.992L598.171 326.992C598.767 326.5 599.134 325.778 599.351 325.201C599.46 324.91 599.534 324.648 599.581 324.459C599.604 324.364 599.621 324.287 599.632 324.233C599.634 324.223 599.636 324.213 599.638 324.204C600.282 323.29 600.795 323.036 601.179 323.046C601.579 323.056 601.967 323.355 602.353 323.852C602.678 324.271 602.963 324.779 603.222 325.244C603.265 325.32 603.307 325.395 603.349 325.469C603.492 325.723 603.632 325.961 603.765 326.139C603.831 326.228 603.903 326.312 603.979 326.377C604.053 326.44 604.152 326.503 604.274 326.518M604.274 326.518L604.303 326.269L604.274 326.518C604.274 326.518 604.274 326.518 604.274 326.518Z" fill="#F1F1F1" stroke="#08003F" stroke-width="0.5"/>
<path d="M600 326.5C600.167 328.167 600.8 331.9 602 333.5" stroke="#08003F" stroke-width="0.5" stroke-linecap="round"/>
<path d="M598 330C598.167 331.667 598.8 335.4 600 337" stroke="#08003F" stroke-width="0.5" stroke-linecap="round"/>
<path d="M596 333C596.167 334.667 596.8 338.4 598 340" stroke="#08003F" stroke-width="0.5" stroke-linecap="round"/>
<path d="M604.31 327L605.336 332.251" stroke="#08003F" stroke-width="0.5" stroke-linecap="round" stroke-linejoin="round"/>
<path fill-rule="evenodd" clip-rule="evenodd" d="M378.124 520.405H268.883C267.843 520.405 267 519.562 267 518.523V431.883C267 430.843 267.843 430 268.883 430H378.124C379.164 430 380.007 430.843 380.007 431.883V518.523C380.007 519.562 379.164 520.405 378.124 520.405Z" fill="white"/>
<path fill-rule="evenodd" clip-rule="evenodd" d="M370.214 512.495H276.793C275.753 512.495 274.91 511.652 274.91 510.612V439.793C274.91 438.753 275.753 437.91 276.793 437.91H370.214C371.253 437.91 372.096 438.753 372.096 439.793V510.612C372.096 511.652 371.253 512.495 370.214 512.495Z" fill="#F1F1F1"/>
<path fill-rule="evenodd" clip-rule="evenodd" d="M302.497 512.486H372.723L344.392 476.814C341.761 473.502 336.772 473.381 333.984 476.562L302.497 512.486Z" fill="#08003F"/>
<path fill-rule="evenodd" clip-rule="evenodd" d="M276.14 512.404H337.655L311.429 484.182C308.716 481.262 304.082 481.301 301.418 484.266L276.14 512.404Z" fill="#08003F"/>
<path fill-rule="evenodd" clip-rule="evenodd" d="M323.188 459.138C323.188 467.126 316.713 473.602 308.725 473.602C300.737 473.602 294.261 467.126 294.261 459.138C294.261 451.15 300.737 444.674 308.725 444.674C316.713 444.674 323.188 451.15 323.188 459.138Z" fill="#15E7BD"/>
<ellipse cx="121" cy="534.5" rx="106" ry="27.5" fill="#F1F1F1"/>
<g clip-path="url(#clip2_17_3437)">
<path fill-rule="evenodd" clip-rule="evenodd" d="M159.943 318.993C153.16 318.778 147.834 313.113 148.049 306.341L149.281 267.546C149.496 260.773 155.171 255.456 161.955 255.671C168.74 255.886 174.065 261.551 173.85 268.324L172.617 307.118C172.402 313.892 166.727 319.208 159.943 318.993Z" fill="#08003F"/>
<path fill-rule="evenodd" clip-rule="evenodd" d="M137.673 474.651C133.248 475.07 130.146 479.197 130.988 483.553C132.429 491.001 134.498 502.48 135.822 513.242C137.009 522.887 135.902 529.604 137.938 532.024C140.133 534.633 144.373 532.133 148.072 535.442C151.77 538.752 154.444 541.301 163.922 538.798C175.006 535.871 164.968 533.306 159.555 528.795C149.998 520.833 148.712 516.921 147.942 510.768C146.364 498.167 145.977 488.415 145.914 482.043C145.87 477.647 142.057 474.236 137.673 474.651Z" fill="#F1F1F1"/>
<path d="M160.927 530.044C160.912 530.049 160.894 530.055 160.875 530.062C160.779 530.095 160.636 530.146 160.452 530.212C160.083 530.346 159.547 530.545 158.88 530.808C157.546 531.334 155.689 532.116 153.596 533.137L153.596 533.137C152.343 533.749 150.955 533.499 149.361 532.727C147.769 531.955 145.912 530.632 143.686 529.002L143.686 529.002C140.852 526.928 139.014 525.384 137.882 524.357C137.327 523.854 136.942 523.475 136.692 523.217C136.68 523.34 136.666 523.481 136.653 523.639C136.602 524.24 136.551 525.086 136.554 526.062C136.559 528.02 136.78 530.478 137.623 532.538L160.927 530.044ZM160.927 530.044C160.952 530.055 160.982 530.069 161.017 530.085C161.134 530.14 161.304 530.22 161.519 530.323C161.948 530.528 162.552 530.825 163.253 531.189C164.657 531.917 166.442 532.91 167.98 533.975M160.927 530.044L167.98 533.975M167.98 533.975C169.483 535.016 170.114 536.392 169.688 537.623C169.254 538.876 167.685 540.128 164.432 540.799C164.432 540.799 164.432 540.799 164.432 540.799L164.482 541.044C157.925 542.394 154.108 542.187 147.615 537.702M167.98 533.975L140.538 534.251C140.455 534.232 140.375 534.214 140.297 534.196C139.599 534.036 139.074 533.917 138.652 533.706C138.207 533.484 137.877 533.158 137.623 532.538L137.391 532.633C137.914 533.909 138.779 534.106 140.236 534.438C141.854 534.807 144.2 535.342 147.615 537.702M147.615 537.702L147.758 537.496L147.615 537.702Z" fill="#08003F" stroke="#15E7BD" stroke-width="0.5"/>
<path fill-rule="evenodd" clip-rule="evenodd" d="M115.761 430.418L102.039 383.655C99.3258 373.947 105.821 364.082 115.821 362.718C124.478 361.536 132.576 367.236 134.371 375.773L144.456 423.743C144.456 423.743 148.079 437.252 133.732 440.453C119.781 443.567 115.761 430.418 115.761 430.418Z" fill="#15E7BD"/>
<path fill-rule="evenodd" clip-rule="evenodd" d="M115.472 423.21L130.737 508.552C131.102 510.591 132.9 512.063 134.975 512.023L149.625 511.729C152.091 511.68 153.991 509.536 153.737 507.084L144.917 421.96C144.917 421.96 143.963 407.434 128.433 409.067C113.947 410.59 115.472 423.21 115.472 423.21Z" fill="#15E7BD"/>
<path fill-rule="evenodd" clip-rule="evenodd" d="M130.623 512.655L154.639 512.175C155.148 512.164 155.542 511.729 155.501 511.222L154.659 500.953C154.621 500.489 154.228 500.135 153.762 500.145L128.24 500.655C127.681 500.666 127.272 501.187 127.398 501.731L129.746 511.972C129.839 512.378 130.205 512.664 130.623 512.655Z" fill="#08003F"/>
<path fill-rule="evenodd" clip-rule="evenodd" d="M128.71 463.22C124.808 461.095 119.923 462.782 118.18 466.863C115.199 473.841 110.479 484.51 105.544 494.169C101.121 502.826 96.4388 507.773 96.7695 510.916C97.1266 514.305 102.042 514.601 103.252 519.411C104.462 524.22 105.248 527.826 114.506 531.047C125.333 534.813 118.452 527.079 116.494 520.319C113.038 508.379 114.164 504.418 116.974 498.889C122.731 487.565 127.877 479.267 131.397 473.95C133.824 470.283 132.576 465.325 128.71 463.22Z" fill="#F1F1F1"/>
<path d="M109.124 520.588L109.124 520.588C111.43 520.91 113.407 521.3 114.808 521.609C115.508 521.763 116.063 521.897 116.444 521.993C116.634 522.041 116.78 522.079 116.879 522.105C116.898 522.11 116.916 522.115 116.932 522.119C116.946 522.142 116.963 522.171 116.983 522.203C117.049 522.314 117.146 522.475 117.266 522.68C117.506 523.09 117.841 523.674 118.218 524.367C118.973 525.755 119.896 527.574 120.573 529.316C121.235 531.019 120.987 532.512 119.943 533.294C118.882 534.09 116.879 534.252 113.807 532.99C110.72 531.721 108.445 530.524 106.586 528.744C104.727 526.967 103.266 524.591 101.84 520.937L101.607 521.028L101.84 520.937C100.391 517.226 98.8131 515.433 97.6755 514.214C97.618 514.153 97.5621 514.093 97.5076 514.035C97.0183 513.513 96.6503 513.12 96.4186 512.71C96.1741 512.276 96.083 511.822 96.2203 511.166C96.6766 508.988 97.8717 506.828 98.9643 505.202C99.5091 504.392 100.025 503.719 100.405 503.249C100.504 503.126 100.595 503.016 100.674 502.922C100.736 503.275 100.843 503.804 101.02 504.531C101.383 506.015 102.041 508.321 103.227 511.623C104.159 514.217 104.956 516.352 105.843 517.882C106.731 519.412 107.742 520.395 109.124 520.588Z" fill="#08003F" stroke="#15E7BD" stroke-width="0.5"/>
<path fill-rule="evenodd" clip-rule="evenodd" d="M161.338 419.357L154.712 371.079C153.215 361.112 143.249 354.76 133.562 357.595C125.178 360.05 120.121 368.557 121.978 377.08L132.416 424.975C132.416 424.975 134.64 438.781 149.044 435.849C163.052 432.997 161.338 419.357 161.338 419.357Z" fill="#15E7BD"/>
<path fill-rule="evenodd" clip-rule="evenodd" d="M160.535 426.5L123.181 497.494C122.287 499.191 120.175 499.969 118.201 499.328L104.266 494.808C101.919 494.046 100.675 491.599 101.571 489.506L132.703 416.83C132.703 416.83 137.488 404.268 151.907 410.229C165.359 415.789 160.535 426.5 160.535 426.5Z" fill="#15E7BD"/>
<path fill-rule="evenodd" clip-rule="evenodd" d="M121.487 501.796L99.2506 492.725C98.7797 492.533 98.569 491.984 98.7903 491.527L103.276 482.247C103.478 481.828 103.972 481.639 104.403 481.814L128.034 491.455C128.552 491.667 128.744 492.299 128.431 492.762L122.552 501.473C122.319 501.819 121.873 501.955 121.487 501.796Z" fill="#08003F"/>
<path fill-rule="evenodd" clip-rule="evenodd" d="M140.293 400.609L161.391 380.595C163.188 379.249 164.131 377.05 163.87 374.822L165.629 349.917L105.343 350.87L105.036 377.234C105.017 378.874 105.638 380.45 106.764 381.642C110.22 385.299 118.883 392.57 133.952 400.397C135.997 401.459 138.505 402.061 140.293 400.609Z" fill="#15E7BD"/>
<mask id="path-114-inside-1_17_3437" fill="white">
<path d="M164.149 357.231C164.336 357.227 164.491 357.375 164.494 357.562C164.498 357.729 164.378 357.871 164.218 357.901L164.163 357.906L109.55 359.025C109.364 359.029 109.209 358.881 109.205 358.694C109.202 358.527 109.322 358.385 109.482 358.355L109.536 358.35L164.149 357.231Z"/>
</mask>
<path d="M164.149 357.231C164.336 357.227 164.491 357.375 164.494 357.562C164.498 357.729 164.378 357.871 164.218 357.901L164.163 357.906L109.55 359.025C109.364 359.029 109.209 358.881 109.205 358.694C109.202 358.527 109.322 358.385 109.482 358.355L109.536 358.35L164.149 357.231Z" fill="#08003F"/>
<path d="M164.149 357.231L164.17 358.231V358.231L164.149 357.231ZM164.494 357.562L165.494 357.542L165.494 357.541L164.494 357.562ZM164.218 357.901L164.318 358.896L164.359 358.891L164.399 358.884L164.218 357.901ZM164.163 357.906L164.184 358.906L164.224 358.905L164.263 358.901L164.163 357.906ZM109.55 359.025L109.53 358.025H109.53L109.55 359.025ZM109.205 358.694L108.205 358.715L108.205 358.715L109.205 358.694ZM109.482 358.355L109.381 357.361L109.341 357.365L109.301 357.372L109.482 358.355ZM109.536 358.35L109.516 357.35L109.476 357.351L109.436 357.355L109.536 358.35ZM164.17 358.231C163.806 358.238 163.502 357.95 163.495 357.583L165.494 357.541C165.479 356.801 164.866 356.216 164.129 356.231L164.17 358.231ZM163.495 357.582C163.488 357.251 163.724 356.975 164.037 356.917L164.399 358.884C165.032 358.768 165.508 358.208 165.494 357.542L163.495 357.582ZM164.118 356.906L164.063 356.911L164.263 358.901L164.318 358.896L164.118 356.906ZM164.143 356.906L109.53 358.025L109.571 360.025L164.184 358.906L164.143 356.906ZM109.53 358.025C109.894 358.018 110.197 358.306 110.205 358.673L108.205 358.715C108.221 359.455 108.833 360.04 109.571 360.025L109.53 358.025ZM110.205 358.674C110.212 359.005 109.976 359.281 109.663 359.339L109.301 357.372C108.667 357.489 108.192 358.048 108.205 358.715L110.205 358.674ZM109.582 359.35L109.637 359.345L109.436 357.355L109.381 357.361L109.582 359.35ZM109.557 359.35L164.17 358.231L164.129 356.231L109.516 357.35L109.557 359.35Z" fill="#08003F" mask="url(#path-114-inside-1_17_3437)"/>
<mask id="path-116-inside-2_17_3437" fill="white">
<path d="M132.718 350.437C132.886 350.434 133.028 350.553 133.057 350.713L133.063 350.768L133.216 358.203C133.219 358.389 133.071 358.543 132.884 358.547C132.716 358.55 132.574 358.431 132.545 358.271L132.539 358.216L132.387 350.782C132.383 350.595 132.531 350.441 132.718 350.437Z"/>
</mask>
<path d="M132.718 350.437C132.886 350.434 133.028 350.553 133.057 350.713L133.063 350.768L133.216 358.203C133.219 358.389 133.071 358.543 132.884 358.547C132.716 358.55 132.574 358.431 132.545 358.271L132.539 358.216L132.387 350.782C132.383 350.595 132.531 350.441 132.718 350.437Z" fill="#08003F"/>
<path d="M132.718 350.437L132.698 349.437L132.697 349.437L132.718 350.437ZM133.057 350.713L134.052 350.612L134.048 350.572L134.041 350.532L133.057 350.713ZM133.063 350.768L134.063 350.747L134.062 350.707L134.058 350.667L133.063 350.768ZM133.216 358.203L132.216 358.223L132.216 358.223L133.216 358.203ZM132.884 358.547L132.904 359.547L132.905 359.547L132.884 358.547ZM132.545 358.271L131.55 358.372L131.554 358.412L131.561 358.452L132.545 358.271ZM132.539 358.216L131.54 358.237L131.54 358.277L131.544 358.317L132.539 358.216ZM132.387 350.782L131.387 350.802L131.387 350.802L132.387 350.782ZM132.738 351.437C132.41 351.443 132.132 351.21 132.074 350.895L134.041 350.532C133.924 349.896 133.362 349.424 132.698 349.437L132.738 351.437ZM132.063 350.814L132.068 350.869L134.058 350.667L134.052 350.612L132.063 350.814ZM132.063 350.788L132.216 358.223L134.215 358.182L134.063 350.747L132.063 350.788ZM132.216 358.223C132.208 357.856 132.5 357.555 132.864 357.547L132.905 359.547C133.642 359.531 134.231 358.922 134.215 358.182L132.216 358.223ZM132.864 357.547C133.193 357.541 133.47 357.774 133.528 358.09L131.561 358.452C131.679 359.088 132.24 359.56 132.904 359.547L132.864 357.547ZM133.54 358.17L133.534 358.115L131.544 358.317L131.55 358.372L133.54 358.17ZM133.539 358.196L133.387 350.761L131.387 350.802L131.54 358.237L133.539 358.196ZM133.387 350.761C133.394 351.129 133.102 351.429 132.739 351.437L132.697 349.437C131.96 349.453 131.372 350.062 131.387 350.802L133.387 350.761Z" fill="#08003F" mask="url(#path-116-inside-2_17_3437)"/>
<path d="M135.5 370.5L137.5 411.5L120 447.5" stroke="#08003F" stroke-width="0.5" stroke-linecap="round"/>
<path d="M115.998 203.22L116.497 203.188L115.998 203.22C116.287 207.613 112.954 211.411 108.551 211.699L108.583 212.198L108.551 211.699C104.148 211.988 100.346 208.659 100.057 204.266C99.7671 199.873 103.101 196.075 107.504 195.786C111.906 195.498 115.708 198.826 115.998 203.22Z" fill="#08003F" stroke="#08003F"/>
<path d="M118.218 242.377L118.218 242.377L118.218 242.377L118.371 242.306L118.363 242.137L117.591 226.39L137.997 225.523C138.001 225.589 138.006 225.667 138.012 225.756C138.03 226.064 138.058 226.507 138.094 227.054C138.164 228.147 138.266 229.65 138.39 231.29C138.638 234.568 138.974 238.407 139.328 240.619L139.349 240.749L139.47 240.806C141.214 241.62 142.226 242.431 142.69 243.189C142.919 243.564 143.013 243.923 143.001 244.266C142.989 244.611 142.869 244.958 142.642 245.307C142.184 246.01 141.305 246.694 140.095 247.314C138.89 247.931 137.382 248.472 135.698 248.902C132.33 249.762 128.286 250.172 124.613 249.875C120.929 249.577 117.674 248.571 115.824 246.652C115.283 246.09 115.177 245.573 115.277 245.113C115.382 244.631 115.722 244.166 116.164 243.749C116.602 243.336 117.115 242.992 117.523 242.75C117.726 242.63 117.901 242.536 118.024 242.472C118.086 242.44 118.135 242.416 118.169 242.4L118.206 242.382L118.215 242.378L118.217 242.377L118.218 242.377Z" fill="#F1F1F1" stroke="#08003F" stroke-width="0.5"/>
<path d="M114.999 215.981L114.998 215.981L114.998 215.981L114.997 215.979L114.988 215.972C114.98 215.965 114.968 215.955 114.952 215.941C114.92 215.914 114.871 215.875 114.809 215.828C114.685 215.733 114.506 215.608 114.292 215.487C113.857 215.242 113.305 215.03 112.766 215.081C112.25 215.131 111.695 215.427 111.242 216.308C110.781 217.203 110.434 218.687 110.368 221.07C110.314 223.622 110.778 225.453 111.489 226.768C112.199 228.081 113.162 228.893 114.13 229.395C115.102 229.899 116.084 230.093 116.825 230.16C117.195 230.194 117.504 230.196 117.718 230.189C117.826 230.186 117.91 230.181 117.966 230.176C117.994 230.174 118.015 230.172 118.029 230.171L118.044 230.169L118.047 230.169L118.047 230.169L114.999 215.981ZM114.999 215.981L114.999 215.981L115.543 216.474L115.412 215.751L115.412 215.751L115.412 215.751L115.412 215.749L115.41 215.74L115.404 215.704C115.399 215.672 115.392 215.623 115.383 215.559C115.365 215.43 115.341 215.24 115.319 214.998C115.275 214.512 115.238 213.817 115.263 212.982C115.314 211.31 115.618 209.085 116.624 206.86C117.629 204.637 119.336 202.409 122.203 200.725C125.071 199.04 129.116 197.89 134.809 197.85C141.047 198.23 144.367 203.571 146.129 208.945C147.008 211.621 147.489 214.277 147.751 216.265C147.881 217.259 147.957 218.085 148 218.662C148.021 218.95 148.035 219.176 148.043 219.33C148.047 219.406 148.049 219.465 148.051 219.504L148.052 219.548L148.053 219.559L148.053 219.562L148.053 219.563L148.303 219.555L148.053 219.563L148.054 219.589L148.06 219.615M114.999 215.981L148.06 219.615M148.06 219.615L148.06 219.615L148.06 219.615L148.061 219.617L148.063 219.626L148.071 219.661C148.078 219.693 148.089 219.741 148.102 219.804C148.129 219.93 148.165 220.117 148.204 220.356C148.282 220.834 148.372 221.521 148.417 222.351C148.506 224.014 148.413 226.246 147.693 228.533M148.06 219.615L147.693 228.533M147.693 228.533C147.693 228.533 147.693 228.533 147.693 228.533L147.932 228.609L147.693 228.533ZM147.693 228.533C146.102 233.586 141.46 235.504 135.094 236.371C129.181 236.428 124.971 234.891 122.242 233.346C120.876 232.573 119.879 231.797 119.226 231.216C118.9 230.926 118.659 230.685 118.501 230.517C118.422 230.433 118.364 230.368 118.326 230.324C118.307 230.302 118.293 230.285 118.284 230.274L118.274 230.263L118.272 230.26L118.272 230.26L118.272 230.26L147.693 228.533ZM118.185 230.152L118.047 230.169L118.185 230.152Z" fill="#F1F1F1" stroke="#08003F" stroke-width="0.5"/>
<path fill-rule="evenodd" clip-rule="evenodd" d="M136.055 217.568C135.93 221.644 132.964 224.861 129.427 224.753C125.893 224.646 123.128 221.254 123.251 217.178C123.376 213.102 126.343 209.885 129.879 209.993C133.414 210.1 136.18 213.491 136.055 217.568Z" fill="#F1F1F1"/>
<path d="M139.479 206.864C138.474 208.029 136.856 209.13 134.693 210.055C134.862 209.452 134.978 208.792 135.058 208.12C135.19 207.002 135.225 205.814 135.212 204.733C135.2 203.651 135.141 202.666 135.085 201.953C135.057 201.596 135.03 201.307 135.01 201.106C135 201.005 134.991 200.927 134.985 200.873L134.979 200.812L134.977 200.796L134.976 200.791L134.976 200.79L134.976 200.79C134.976 200.79 134.976 200.79 134.479 200.849L134.976 200.79L134.001 200.711C133.999 200.71 133.999 200.71 133.999 200.71L133.999 200.71L133.999 200.711L133.995 200.723C133.992 200.734 133.986 200.752 133.978 200.777C133.962 200.826 133.935 200.902 133.898 201.001C133.824 201.198 133.705 201.488 133.529 201.847C133.178 202.564 132.602 203.555 131.708 204.631C129.923 206.778 126.86 209.279 121.749 210.616L121.422 210.701L121.379 211.036C120.893 214.821 119.788 217.861 118.803 219.694C118.385 220.472 118.009 220.993 117.736 221.269C117.547 219.259 116.581 218.075 115.393 217.577C114.252 217.097 112.945 217.279 112.149 217.905C111.651 218.104 111.22 218.585 110.889 219.139C110.524 219.753 110.227 220.545 110.069 221.428C109.752 223.195 109.98 225.389 111.407 227.295L111.407 227.295C112.804 229.16 114.359 229.993 115.585 230.352C116.194 230.531 116.717 230.59 117.092 230.605C117.119 230.606 117.144 230.607 117.169 230.607L117.508 240.332C117.26 240.327 116.929 240.315 116.534 240.286C115.622 240.219 114.378 240.062 113.051 239.702C110.388 238.98 107.479 237.469 106.133 234.334C104.927 231.078 105.154 228.827 105.64 227.415C105.885 226.703 106.2 226.192 106.449 225.863C106.573 225.699 106.681 225.58 106.754 225.505C106.791 225.467 106.819 225.44 106.837 225.424C106.845 225.416 106.851 225.411 106.854 225.408L106.855 225.408L106.855 225.408L106.856 225.407L106.856 225.407L106.857 225.406L107.118 225.19L107.011 224.866L107.011 224.866L107.01 224.865L107.01 224.863L107.005 224.85L106.988 224.795C106.973 224.747 106.95 224.673 106.922 224.576C106.865 224.381 106.785 224.094 106.693 223.725C106.509 222.988 106.279 221.929 106.095 220.647C105.728 218.08 105.551 214.639 106.297 211.111C107.041 207.589 108.703 203.99 112.01 201.073C115.317 198.155 120.312 195.884 127.787 195.093L127.864 195.084L127.935 195.053C132.916 192.866 135.548 192.02 137.11 191.807C137.877 191.702 138.36 191.754 138.726 191.861C139.041 191.953 139.285 192.086 139.593 192.254C139.66 192.291 139.73 192.329 139.804 192.369C139.947 192.446 140.264 192.674 140.732 193.061C141.187 193.438 141.758 193.942 142.399 194.545C143.681 195.751 145.234 197.343 146.697 199.088C148.163 200.836 149.527 202.723 150.442 204.521C151.366 206.336 151.789 207.974 151.505 209.263C150.866 212.154 149.936 214.84 149.164 216.805C148.948 217.355 148.745 217.847 148.564 218.272C148.546 218.105 148.525 217.929 148.503 217.746C148.324 216.271 148.016 214.277 147.503 212.203C146.99 210.134 146.267 207.965 145.247 206.153C144.231 204.347 142.886 202.836 141.104 202.187L140.092 201.818L140.463 202.829C140.953 204.162 140.625 205.536 139.479 206.864Z" fill="#08003F" stroke="#08003F"/>
<mask id="path-124-inside-3_17_3437" fill="white">
<path d="M129.893 209.553C126.099 209.437 122.943 212.859 122.811 217.165C122.68 221.471 125.622 225.078 129.414 225.193C133.209 225.309 136.364 221.888 136.496 217.581C136.628 213.275 133.687 209.668 129.893 209.553ZM129.866 210.433C133.143 210.533 135.732 213.709 135.615 217.554C135.497 221.401 132.719 224.413 129.441 224.313C126.166 224.214 123.576 221.037 123.692 217.192C123.809 213.407 126.501 210.429 129.71 210.431L129.866 210.433Z"/>
</mask>
<path d="M129.893 209.553C126.099 209.437 122.943 212.859 122.811 217.165C122.68 221.471 125.622 225.078 129.414 225.193C133.209 225.309 136.364 221.888 136.496 217.581C136.628 213.275 133.687 209.668 129.893 209.553ZM129.866 210.433C133.143 210.533 135.732 213.709 135.615 217.554C135.497 221.401 132.719 224.413 129.441 224.313C126.166 224.214 123.576 221.037 123.692 217.192C123.809 213.407 126.501 210.429 129.71 210.431L129.866 210.433Z" fill="#15E7BD"/>
<path d="M129.893 209.553L129.862 210.553L129.862 210.553L129.893 209.553ZM122.811 217.165L121.811 217.135L121.811 217.135L122.811 217.165ZM129.414 225.193L129.384 226.193L129.384 226.193L129.414 225.193ZM136.496 217.581L137.496 217.612L137.496 217.612L136.496 217.581ZM129.866 210.433L129.896 209.434L129.889 209.433L129.882 209.433L129.866 210.433ZM135.615 217.554L136.615 217.585L136.615 217.585L135.615 217.554ZM129.441 224.313L129.411 225.313L129.411 225.313L129.441 224.313ZM123.692 217.192L122.693 217.161L122.693 217.162L123.692 217.192ZM129.71 210.431L129.726 209.431L129.718 209.431L129.711 209.431L129.71 210.431ZM129.923 208.554C125.453 208.417 121.956 212.408 121.811 217.135L123.81 217.196C123.93 213.309 126.744 210.457 129.862 210.553L129.923 208.554ZM121.811 217.135C121.668 221.86 124.915 226.057 129.384 226.193L129.445 224.194C126.328 224.099 123.693 221.082 123.81 217.196L121.811 217.135ZM129.384 226.193C133.854 226.329 137.351 222.338 137.496 217.612L135.497 217.551C135.378 221.437 132.564 224.289 129.445 224.194L129.384 226.193ZM137.496 217.612C137.64 212.886 134.393 208.689 129.923 208.554L129.862 210.553C132.981 210.647 135.616 213.664 135.497 217.551L137.496 217.612ZM129.836 211.433C132.426 211.511 134.72 214.085 134.616 217.524L136.615 217.585C136.744 213.332 133.86 209.554 129.896 209.434L129.836 211.433ZM134.616 217.524C134.51 220.963 132.062 223.393 129.472 223.314L129.411 225.313C133.375 225.433 136.484 221.838 136.615 217.585L134.616 217.524ZM129.472 223.314C126.883 223.235 124.588 220.661 124.692 217.222L122.693 217.162C122.564 221.414 125.448 225.193 129.411 225.313L129.472 223.314ZM124.692 217.223C124.796 213.84 127.169 211.429 129.71 211.431L129.711 209.431C125.834 209.428 122.821 212.973 122.693 217.161L124.692 217.223ZM129.695 211.431L129.85 211.433L129.882 209.433L129.726 209.431L129.695 211.431Z" fill="#15E7BD" mask="url(#path-124-inside-3_17_3437)"/>
<path fill-rule="evenodd" clip-rule="evenodd" d="M150.226 216.092C150.102 220.168 147.318 223.391 144.008 223.289C140.697 223.189 138.115 219.803 138.239 215.727C138.364 211.651 141.148 208.428 144.458 208.529C147.769 208.63 150.352 212.015 150.226 216.092Z" fill="#F1F1F1"/>
<mask id="path-127-inside-4_17_3437" fill="white">
<path d="M144.471 208.089C140.895 207.98 137.93 211.412 137.797 215.714C137.667 220.016 140.417 223.621 143.994 223.73C147.57 223.839 150.535 220.407 150.667 216.105C150.799 211.804 148.048 208.198 144.471 208.089ZM144.444 208.969C147.489 209.062 149.903 212.227 149.785 216.078C149.668 219.93 147.065 222.943 144.021 222.85C140.977 222.757 138.562 219.592 138.679 215.741C138.795 211.951 141.317 208.974 144.297 208.967L144.444 208.969Z"/>
</mask>
<path d="M144.471 208.089C140.895 207.98 137.93 211.412 137.797 215.714C137.667 220.016 140.417 223.621 143.994 223.73C147.57 223.839 150.535 220.407 150.667 216.105C150.799 211.804 148.048 208.198 144.471 208.089ZM144.444 208.969C147.489 209.062 149.903 212.227 149.785 216.078C149.668 219.93 147.065 222.943 144.021 222.85C140.977 222.757 138.562 219.592 138.679 215.741C138.795 211.951 141.317 208.974 144.297 208.967L144.444 208.969Z" fill="#15E7BD"/>
<path d="M144.471 208.089L144.441 209.089L144.441 209.089L144.471 208.089ZM137.797 215.714L136.798 215.683L136.798 215.684L137.797 215.714ZM143.994 223.73L144.024 222.73L144.024 222.73L143.994 223.73ZM150.667 216.105L149.667 216.075L149.667 216.075L150.667 216.105ZM144.444 208.969L144.475 207.97L144.467 207.97L144.459 207.97L144.444 208.969ZM149.785 216.078L148.786 216.048L148.786 216.048L149.785 216.078ZM144.021 222.85L144.051 221.85L144.051 221.85L144.021 222.85ZM138.679 215.741L137.679 215.71L137.679 215.71L138.679 215.741ZM144.297 208.967L144.312 207.967L144.303 207.967L144.295 207.967L144.297 208.967ZM144.502 207.09C140.196 206.958 136.941 211.025 136.798 215.683L138.797 215.745C138.918 211.799 141.593 209.002 144.441 209.089L144.502 207.09ZM136.798 215.684C136.657 220.342 139.658 224.599 143.963 224.729L144.024 222.73C141.177 222.644 138.677 219.689 138.797 215.744L136.798 215.684ZM143.963 224.729C148.269 224.861 151.524 220.794 151.666 216.136L149.667 216.075C149.547 220.02 146.871 222.817 144.024 222.73L143.963 224.729ZM151.666 216.136C151.809 211.478 148.807 207.22 144.502 207.09L144.441 209.089C147.288 209.175 149.788 212.13 149.667 216.075L151.666 216.136ZM144.414 209.969C146.713 210.039 148.893 212.534 148.786 216.048L150.785 216.109C150.913 211.921 148.264 208.085 144.475 207.97L144.414 209.969ZM148.786 216.048C148.678 219.562 146.35 221.921 144.051 221.85L143.99 223.849C147.779 223.965 150.657 220.297 150.785 216.109L148.786 216.048ZM144.051 221.85C141.752 221.781 139.572 219.286 139.678 215.771L137.679 215.71C137.552 219.899 140.201 223.734 143.99 223.849L144.051 221.85ZM139.678 215.771C139.784 212.318 142.041 209.972 144.299 209.967L144.295 207.967C140.593 207.975 137.806 211.585 137.679 215.71L139.678 215.771ZM144.283 209.967L144.43 209.969L144.459 207.97L144.312 207.967L144.283 209.967Z" fill="#15E7BD" mask="url(#path-127-inside-4_17_3437)"/>
<path d="M137.298 225.018L137.298 225.018L137.298 225.018ZM137.298 225.018L137.3 225.02L137.027 224.83L137.298 225.018Z" fill="#08003F" stroke="#08003F"/>
<path d="M134.005 228.238L134.006 228.238L134.011 228.24L134.006 228.238L134.005 228.238L134.005 228.238Z" fill="#08003F" stroke="#08003F"/>
<path fill-rule="evenodd" clip-rule="evenodd" d="M136.025 215.637C136.025 215.637 137.092 214.822 138.132 215.499L136.025 215.637Z" fill="white"/>
<path d="M136.025 215.637C136.025 215.637 137.092 214.822 138.132 215.499" stroke="#15E7BD" stroke-width="1.5" stroke-linecap="round" stroke-linejoin="round"/>
<mask id="path-133-inside-5_17_3437" fill="white">
<path d="M128.041 235.546C128.924 235.697 129.929 235.799 131.034 235.855C132.849 235.948 134.795 235.917 136.67 235.808L137.319 235.766L138.084 235.706C138.266 235.689 138.427 235.823 138.444 236.004C138.461 236.186 138.327 236.347 138.146 236.364L137.846 236.389L137.366 236.425C137.16 236.439 136.941 236.453 136.709 236.467C134.811 236.577 132.842 236.609 131 236.515C129.871 236.457 128.84 236.353 127.929 236.197C127.749 236.166 127.628 235.995 127.659 235.815C127.687 235.654 127.828 235.54 127.987 235.541L128.041 235.546Z"/>
</mask>
<path d="M128.041 235.546C128.924 235.697 129.929 235.799 131.034 235.855C132.849 235.948 134.795 235.917 136.67 235.808L137.319 235.766L138.084 235.706C138.266 235.689 138.427 235.823 138.444 236.004C138.461 236.186 138.327 236.347 138.146 236.364L137.846 236.389L137.366 236.425C137.16 236.439 136.941 236.453 136.709 236.467C134.811 236.577 132.842 236.609 131 236.515C129.871 236.457 128.84 236.353 127.929 236.197C127.749 236.166 127.628 235.995 127.659 235.815C127.687 235.654 127.828 235.54 127.987 235.541L128.041 235.546Z" fill="#08003F"/>
<path d="M128.041 235.546L128.21 234.56L128.17 234.553L128.13 234.55L128.041 235.546ZM131.034 235.855L130.983 236.854L131.034 235.855ZM136.67 235.808L136.728 236.806L136.734 236.806L136.67 235.808ZM137.319 235.766L137.383 236.764L137.39 236.764L137.397 236.763L137.319 235.766ZM138.084 235.706L138.162 236.703L138.169 236.703L138.177 236.702L138.084 235.706ZM138.444 236.004L137.448 236.098V236.098L138.444 236.004ZM138.146 236.364L138.23 237.36L138.239 237.359L138.146 236.364ZM137.846 236.389L137.92 237.386L137.93 237.385L137.846 236.389ZM137.366 236.425L137.435 237.422L137.44 237.422L137.366 236.425ZM136.709 236.467L136.651 235.468L136.651 235.468L136.709 236.467ZM131 236.515L131.051 235.516L131.051 235.516L131 236.515ZM127.929 236.197L127.76 237.182L127.76 237.182L127.929 236.197ZM127.659 235.815L126.674 235.646L126.674 235.646L127.659 235.815ZM127.987 235.541L128.077 234.545L128.036 234.541L127.996 234.541L127.987 235.541ZM127.872 236.531C128.804 236.691 129.85 236.796 130.983 236.854L131.085 234.856C130.009 234.801 129.044 234.703 128.21 234.56L127.872 236.531ZM130.983 236.854C132.843 236.949 134.826 236.916 136.728 236.806L136.612 234.809C134.763 234.917 132.855 234.947 131.085 234.856L130.983 236.854ZM136.734 236.806L137.383 236.764L137.256 234.768L136.607 234.81L136.734 236.806ZM137.397 236.763L138.162 236.703L138.006 234.709L137.241 234.769L137.397 236.763ZM138.177 236.702C137.811 236.736 137.483 236.467 137.448 236.098L139.44 235.911C139.371 235.178 138.721 234.642 137.991 234.711L138.177 236.702ZM137.448 236.098C137.414 235.728 137.686 235.402 138.052 235.368L138.239 237.359C138.969 237.291 139.508 236.644 139.44 235.911L137.448 236.098ZM138.061 235.367L137.762 235.393L137.93 237.385L138.23 237.36L138.061 235.367ZM137.772 235.392L137.291 235.428L137.44 237.422L137.92 237.386L137.772 235.392ZM137.296 235.427C137.095 235.441 136.879 235.455 136.651 235.468L136.767 237.465C137.003 237.451 137.226 237.437 137.435 237.422L137.296 235.427ZM136.651 235.468C134.779 235.577 132.848 235.608 131.051 235.516L130.949 237.513C132.836 237.61 134.842 237.577 136.767 237.465L136.651 235.468ZM131.051 235.516C129.95 235.459 128.961 235.359 128.098 235.211L127.76 237.182C128.72 237.347 129.792 237.454 130.949 237.513L131.051 235.516ZM128.098 235.211C128.461 235.273 128.708 235.618 128.645 235.985L126.674 235.646C126.549 236.372 127.037 237.058 127.76 237.182L128.098 235.211ZM128.645 235.985C128.588 236.315 128.301 236.544 127.979 236.541L127.996 234.541C127.355 234.536 126.786 234.992 126.674 235.646L128.645 235.985ZM127.898 236.537L127.952 236.542L128.13 234.55L128.077 234.545L127.898 236.537Z" fill="#08003F" mask="url(#path-133-inside-5_17_3437)"/>
<path d="M131.868 216.791L131.868 216.792C131.896 217.226 131.824 217.6 131.707 217.85C131.582 218.12 131.468 218.138 131.463 218.139L131.463 218.139C131.456 218.139 131.341 218.135 131.182 217.885C131.034 217.652 130.912 217.29 130.884 216.857L130.884 216.856C130.856 216.422 130.928 216.048 131.044 215.798C131.169 215.529 131.283 215.51 131.289 215.509L131.289 215.509C131.295 215.509 131.411 215.513 131.57 215.764C131.718 215.997 131.84 216.358 131.868 216.791ZM131.495 218.638C130.948 218.674 130.45 217.891 130.385 216.889L131.256 215.01C131.803 214.974 132.301 215.757 132.367 216.759C132.433 217.761 132.042 218.602 131.495 218.638Z" fill="#08003F" stroke="#08003F"/>
<path d="M144.358 217.458L144.357 217.459C144.351 217.459 144.235 217.455 144.076 217.204C143.928 216.971 143.806 216.61 143.778 216.176C143.749 215.742 143.822 215.368 143.938 215.118C144.063 214.848 144.177 214.83 144.184 214.829L144.184 214.829C144.189 214.829 144.305 214.832 144.464 215.083C144.612 215.316 144.733 215.678 144.762 216.111C144.79 216.545 144.717 216.92 144.601 217.17C144.476 217.44 144.362 217.458 144.358 217.458ZM144.151 214.33L144.151 214.33L144.151 214.33Z" fill="#08003F" stroke="#08003F"/>
<path d="M123.251 217.178L117.498 217.68" stroke="#15E7BD" stroke-width="1.5" stroke-linecap="round" stroke-linejoin="round"/>
<path fill-rule="evenodd" clip-rule="evenodd" d="M143.363 244.842L142.366 244.803C143.006 250.79 120.419 251.298 117.044 244.308C116.959 244.13 116.891 243.963 116.835 243.803L114.087 243.696L111.239 347.772C111.239 347.772 130.775 356.476 149.76 349.72C159.316 266.744 143.363 244.842 143.363 244.842Z" fill="#15E7BD"/>
<path d="M119.284 252.332C119.362 252.163 119.564 252.09 119.733 252.169L119.834 252.214L119.944 252.262C120.122 252.337 120.332 252.422 120.57 252.513C121.255 252.775 122.037 253.037 122.904 253.281C128.207 254.777 133.805 254.939 139.034 252.91C139.38 252.776 139.723 252.632 140.063 252.479C140.233 252.402 140.434 252.478 140.51 252.648C140.587 252.817 140.512 253.017 140.342 253.094C139.991 253.252 139.637 253.401 139.279 253.539C133.893 255.63 128.152 255.464 122.721 253.931C121.833 253.681 121.031 253.412 120.329 253.144L120.047 253.034C119.958 252.998 119.874 252.964 119.794 252.931L119.447 252.781C119.278 252.702 119.205 252.501 119.284 252.332Z" fill="#08003F"/>
<path fill-rule="evenodd" clip-rule="evenodd" d="M139.38 242.087C139.38 242.087 144.923 255.371 145.387 307.092C145.755 348.286 143.759 420.184 143.759 420.184C143.759 420.184 161.717 418.84 165.359 412.004C169.116 404.957 169.218 352.717 168.979 326.373C168.546 278.397 170.132 267.544 166.247 256.808C161.77 254.225 154.684 250.426 147.762 246.657C146.08 245.741 143.157 243.279 142.09 242.689C139.185 241.087 139.38 242.087 139.38 242.087Z" fill="#08003F"/>
<path d="M165.284 266.755C165.526 266.723 165.747 266.892 165.779 267.133L165.867 267.815L166.05 269.32C166.112 269.844 166.177 270.408 166.244 271.011L166.375 272.193C166.679 274.991 166.982 278.081 167.266 281.413C168.328 293.849 168.899 306.631 168.721 318.911C168.717 319.154 168.517 319.348 168.273 319.344C168.03 319.341 167.835 319.141 167.839 318.898C168.01 307.14 167.491 294.916 166.512 282.979L166.388 281.488C166.083 277.926 165.759 274.64 165.433 271.694L165.249 270.069C165.198 269.626 165.149 269.209 165.102 268.817L164.905 267.249C164.873 267.008 165.043 266.787 165.284 266.755Z" fill="#A3B5D6"/>
<path fill-rule="evenodd" clip-rule="evenodd" d="M90.9031 251.872C97.9852 248.677 105.698 247.485 110.19 245.079C113.066 243.537 115.397 241.429 117.648 240.739C131.035 305.538 125.603 386.083 122.156 423.159C105.189 424.974 88.6377 412.005 88.6377 412.005C88.6377 412.005 89.8582 352.61 92.2444 318.903C94.2285 290.866 89.0918 252.689 90.9031 251.872Z" fill="#08003F"/>
<path d="M117.221 240.144C117.424 240.011 117.698 240.067 117.832 240.27C117.953 240.455 117.917 240.697 117.757 240.84L117.705 240.88L110.832 245.388L110.814 245.723L110.808 245.869C110.703 248.297 110.777 251.615 111.165 255.728C111.712 261.536 112.802 267.91 114.557 274.764L114.748 275.5C115.072 276.738 115.391 277.946 115.734 279.238L118.223 288.513C119.422 293.007 120.2 296.092 120.888 299.15C122.315 305.497 123.258 311.471 123.982 319.095C124.005 319.337 123.827 319.551 123.585 319.574C123.343 319.597 123.127 319.42 123.104 319.178C122.406 311.828 121.505 306.026 120.159 299.934L119.894 298.753C119.331 296.29 118.695 293.749 117.814 290.408L116.925 287.074L115.115 280.338C114.68 278.707 114.291 277.238 113.894 275.723C112.015 268.541 110.858 261.872 110.287 255.81C109.895 251.657 109.82 248.299 109.927 245.831L109.955 245.291C109.961 245.199 109.965 245.137 109.968 245.104C109.977 244.991 110.03 244.888 110.112 244.813L110.165 244.772L117.221 240.144Z" fill="#15E7BD"/>
<path d="M139.287 241.036C139.405 240.849 139.64 240.781 139.837 240.868L139.895 240.898L148.493 246.304C148.597 246.369 148.669 246.476 148.691 246.597L148.737 246.869L148.823 247.439C148.84 247.557 148.858 247.682 148.875 247.815L148.903 248.018C149.059 249.206 149.216 250.658 149.362 252.384L149.436 253.288C150.611 268.201 150.237 290.23 147.264 320.315C147.24 320.557 147.025 320.734 146.782 320.71C146.54 320.686 146.363 320.471 146.387 320.229L146.565 318.4C149.428 288.693 149.716 267.026 148.483 252.458L148.421 251.741C148.294 250.34 148.161 249.14 148.028 248.133L147.926 247.396L147.866 247.009L147.855 246.944L139.425 241.643C139.237 241.526 139.169 241.29 139.256 241.094L139.287 241.036Z" fill="#15E7BD"/>
<path d="M91.4645 340.874L106.602 343.562C106.799 343.597 106.945 343.759 106.964 343.954L106.965 344.013L105.726 375.542C105.611 378.473 102.98 380.645 100.094 380.233L99.9442 380.209L89.3754 378.379C89.1355 378.338 88.9747 378.11 89.0163 377.87C89.0545 377.651 89.2494 377.497 89.4665 377.505L89.5261 377.512L100.095 379.342C102.469 379.753 104.666 378.023 104.838 375.643L104.845 375.508L106.069 344.361L91.31 341.74C91.0903 341.701 90.9377 341.506 90.9467 341.289L90.9532 341.23C90.9923 341.01 91.1879 340.858 91.4049 340.867L91.4645 340.874Z" fill="#15E7BD"/>
<path d="M165.924 342.102C166.157 342.032 166.403 342.165 166.472 342.398C166.536 342.611 166.431 342.835 166.233 342.924L166.177 342.945L158.657 345.194L157.889 378.524C157.87 379.335 158.669 379.903 159.421 379.645L159.501 379.614L166.821 376.497C167.045 376.401 167.304 376.505 167.399 376.729C167.487 376.934 167.407 377.168 167.22 377.279L167.167 377.306L159.847 380.424C158.514 380.991 157.043 380.03 157.008 378.606V378.503L157.783 344.854C157.787 344.684 157.888 344.534 158.038 344.464L158.097 344.442L165.924 342.102Z" fill="#15E7BD"/>
<path d="M166.195 267.722L166.195 267.722L224.939 267.171C227.004 267.152 228.497 269.135 227.905 271.109L227.905 271.11L215.52 312.442L215.52 312.442C215.136 313.728 213.956 314.613 212.611 314.626L153.869 315.177C153.869 315.177 153.869 315.177 153.869 315.177C151.803 315.196 150.31 313.213 150.901 311.239L163.286 269.906C163.671 268.62 164.851 267.735 166.195 267.722Z" fill="#F1F1F1" stroke="#08003F" stroke-width="0.5"/>
<path fill-rule="evenodd" clip-rule="evenodd" d="M215.096 314.876L156.353 315.427C154.12 315.447 152.504 313.304 153.144 311.167L165.53 269.834C165.947 268.443 167.222 267.486 168.675 267.472L227.42 266.921C229.652 266.9 231.268 269.045 230.628 271.181L218.242 312.514C217.826 313.905 216.55 314.862 215.096 314.876Z" fill="#15E7BD"/>
<path d="M227.974 300.53L227.974 300.53L227.974 300.53L227.847 300.678L227.96 300.837L227.96 300.837L227.96 300.837L227.96 300.837L227.96 300.837L227.963 300.841L227.975 300.859C227.986 300.875 228.002 300.901 228.022 300.935C228.063 301.003 228.12 301.104 228.18 301.232C228.3 301.49 228.434 301.852 228.488 302.277C228.594 303.11 228.402 304.21 227.119 305.248L227.028 305.322L227.027 305.44C227.01 306.947 226.517 307.853 226.047 308.38C225.811 308.645 225.576 308.819 225.403 308.925C225.317 308.978 225.246 309.014 225.199 309.037C225.175 309.048 225.157 309.056 225.146 309.06L225.134 309.065L225.133 309.065L225.133 309.065L225.132 309.066L225.132 309.066L225.132 309.066L224.912 309.145L224.978 309.37L224.978 309.37L224.978 309.371L224.978 309.371L224.978 309.371L224.979 309.374L224.983 309.393C224.988 309.409 224.994 309.435 225.001 309.469C225.016 309.538 225.033 309.638 225.047 309.761C225.073 310.008 225.079 310.342 225.002 310.696C224.925 311.048 224.767 311.418 224.465 311.745C224.164 312.073 223.708 312.37 223.015 312.562C221.635 312.943 219.738 312.545 218.452 311.651C217.812 311.206 217.348 310.655 217.161 310.044C216.978 309.442 217.053 308.749 217.557 307.984L217.634 307.867L217.575 307.741C216.966 306.433 217.247 305.502 217.657 304.894C217.867 304.584 218.115 304.351 218.312 304.196C218.41 304.119 218.495 304.062 218.554 304.024C218.583 304.006 218.606 303.992 218.621 303.983L218.637 303.974L218.641 303.972L218.641 303.972L218.641 303.972L218.641 303.972L218.641 303.972L218.824 303.875L218.763 303.678L218.763 303.678L218.762 303.678L218.762 303.678L218.762 303.677L218.761 303.674L218.757 303.658C218.753 303.642 218.746 303.618 218.739 303.587C218.724 303.523 218.705 303.43 218.69 303.313C218.658 303.079 218.64 302.757 218.692 302.401C218.795 301.699 219.17 300.855 220.302 300.289L220.582 300.149L220.384 299.907C219.832 299.232 219.656 298.564 219.694 298.043C219.733 297.512 219.986 297.156 220.27 297.032L220.273 297.031L220.289 297.024L220.352 296.998C220.407 296.975 220.489 296.941 220.593 296.898C220.803 296.812 221.104 296.691 221.471 296.548C222.206 296.262 223.203 295.89 224.254 295.547C225.306 295.204 226.406 294.891 227.349 294.72C227.82 294.635 228.246 294.586 228.602 294.585C228.964 294.584 229.229 294.632 229.398 294.719C229.703 294.875 229.902 295.071 230.026 295.289C230.151 295.51 230.21 295.768 230.211 296.058C230.213 296.647 229.979 297.335 229.644 298.01C229.313 298.68 228.895 299.31 228.558 299.775C228.391 300.007 228.244 300.197 228.139 300.328C228.087 300.393 228.045 300.444 228.017 300.479L227.984 300.517L227.976 300.527L227.974 300.529L227.974 300.53Z" fill="#F1F1F1" stroke="#08003F" stroke-width="0.5"/>
<path d="M226.895 298.935C226.938 298.928 226.977 298.957 226.984 298.998C226.989 299.033 226.97 299.067 226.938 299.081L226.91 299.087L220.203 300.141C220.16 300.148 220.121 300.119 220.114 300.078C220.109 300.043 220.128 300.009 220.16 299.995L220.188 299.989L226.895 298.935Z" fill="#F1F1F1" stroke="#08003F" stroke-width="0.5"/>
<path d="M218.511 303.675L218.541 303.676L224.394 304.238C224.437 304.242 224.468 304.279 224.464 304.321C224.46 304.356 224.433 304.384 224.399 304.39L224.369 304.389L218.516 303.827C218.473 303.823 218.443 303.786 218.447 303.744C218.45 303.709 218.477 303.681 218.511 303.675Z" fill="#F1F1F1" stroke="#08003F" stroke-width="0.5"/>
<path d="M217.343 307.77L217.372 307.773L222.816 308.824C222.858 308.832 222.885 308.872 222.877 308.914C222.87 308.948 222.84 308.974 222.806 308.976L222.776 308.972L217.333 307.921C217.291 307.913 217.264 307.873 217.272 307.832C217.279 307.797 217.308 307.772 217.343 307.77Z" fill="#F1F1F1" stroke="#08003F" stroke-width="0.5"/>
<path fill-rule="evenodd" clip-rule="evenodd" d="M80.5408 318.02C73.9843 316.265 70.0928 309.537 71.8512 302.992L83.4464 259.79C85.203 253.244 91.9429 249.36 98.4985 251.114C105.056 252.869 108.946 259.596 107.19 266.142L95.5937 309.343C93.8362 315.889 87.0981 319.773 80.5408 318.02Z" fill="#08003F"/>
<path d="M147.958 319.286L147.948 319.284L147.937 319.283L147.937 319.283L147.936 319.283L147.931 319.282L147.91 319.28C147.892 319.278 147.863 319.275 147.827 319.27C147.753 319.261 147.644 319.247 147.504 319.228C147.225 319.188 146.823 319.125 146.335 319.031C145.359 318.843 144.043 318.532 142.68 318.042C139.932 317.053 137.086 315.368 136.322 312.575L136.322 312.575C135.626 310.029 136.504 308.273 137.555 307.143C138.083 306.574 138.657 306.163 139.101 305.894C139.322 305.76 139.509 305.661 139.64 305.597C139.706 305.565 139.757 305.541 139.792 305.526C139.809 305.518 139.822 305.513 139.83 305.509L139.839 305.506L139.841 305.505L139.841 305.505L139.841 305.505L139.841 305.505L139.859 305.497L139.876 305.487L139.876 305.487L139.876 305.487L139.877 305.487L139.879 305.486L139.889 305.48L139.928 305.456C139.963 305.436 140.016 305.405 140.086 305.366C140.226 305.287 140.433 305.172 140.701 305.032C141.237 304.751 142.017 304.367 142.986 303.954C144.925 303.127 147.619 302.187 150.645 301.729L150.645 301.729C152.645 301.427 155.577 301.181 158.078 301.267C159.331 301.311 160.461 301.437 161.309 301.674C161.733 301.793 162.074 301.936 162.322 302.102C162.57 302.268 162.709 302.445 162.763 302.629L162.763 302.629C162.841 302.896 162.801 303.115 162.674 303.314C162.54 303.525 162.3 303.726 161.959 303.918C161.274 304.304 160.275 304.603 159.215 304.891C159.029 304.941 158.842 304.991 158.654 305.041C157.787 305.272 156.92 305.503 156.231 305.773C155.812 305.938 155.439 306.124 155.165 306.346C154.89 306.57 154.688 306.854 154.68 307.21L154.68 307.21C154.667 307.773 154.78 308.23 155.042 308.618C155.302 309.001 155.69 309.293 156.183 309.559C156.675 309.823 157.293 310.072 158.027 310.358C158.152 310.407 158.281 310.457 158.413 310.508C159.062 310.759 159.799 311.044 160.631 311.397L160.631 311.397C161.726 311.86 162.893 312.136 164.003 312.4C164.192 312.445 164.381 312.489 164.567 312.534C165.853 312.847 167.027 313.181 167.966 313.808L167.966 313.808C168.408 314.102 168.641 314.431 168.719 314.763C168.797 315.095 168.73 315.471 168.491 315.88C168.007 316.71 166.85 317.611 165.056 318.363C161.485 319.86 155.53 320.704 147.958 319.286ZM150.608 301.482L150.608 301.482L150.608 301.482Z" fill="#F1F1F1" stroke="#08003F" stroke-width="0.5"/>
<path d="M155.799 312.932L155.799 312.932C155.826 312.897 155.877 312.89 155.912 312.918L155.912 312.918L155.919 312.922L156.031 313.003L156.031 313.003L156.035 313.006L156.08 313.037L156.08 313.037L156.081 313.038C156.223 313.135 156.392 313.243 156.587 313.359L156.713 313.146L156.587 313.359C157.146 313.692 157.805 314.025 158.559 314.335C161.064 315.366 163.993 315.912 167.3 315.719C167.345 315.716 167.383 315.751 167.385 315.794C167.388 315.838 167.354 315.876 167.309 315.879C163.972 316.074 161.02 315.522 158.497 314.483C157.734 314.169 157.068 313.832 156.504 313.496C156.355 313.408 156.222 313.324 156.104 313.247L155.896 313.105C155.858 313.077 155.83 313.057 155.814 313.044L155.814 313.044C155.778 313.017 155.772 312.967 155.799 312.932Z" fill="#F1F1F1" stroke="#08003F" stroke-width="0.5"/>
<path d="M163.278 317.997L163.28 317.997L163.491 317.988L163.493 317.988C163.627 317.982 163.72 317.975 163.77 317.971C163.814 317.967 163.853 318 163.857 318.044C163.861 318.087 163.83 318.126 163.786 318.131L163.578 318.145L163.501 318.148C163.501 318.148 163.501 318.148 163.501 318.148C160.876 318.274 157.666 317.889 154.573 316.557C154.341 316.457 154.111 316.352 153.884 316.242C153.844 316.222 153.828 316.174 153.847 316.135C153.866 316.095 153.915 316.078 153.955 316.098C154.18 316.207 154.407 316.311 154.638 316.41C156.38 317.161 158.242 317.622 160.131 317.848C161.328 317.991 162.4 318.027 163.278 317.997Z" fill="#F1F1F1" stroke="#08003F" stroke-width="0.5"/>
<path d="M150.669 317.958L150.669 317.958L150.675 317.961L150.754 318.008L150.754 318.008L150.758 318.01C150.878 318.077 151.062 318.171 151.314 318.284C151.863 318.531 152.531 318.778 153.322 319.008C154.94 319.479 156.858 319.819 159.085 319.974C159.129 319.977 159.163 320.015 159.16 320.059C159.156 320.103 159.118 320.137 159.073 320.133C156.83 319.978 154.902 319.635 153.276 319.162C152.475 318.929 151.801 318.679 151.248 318.43L151.038 318.333C150.815 318.227 150.665 318.145 150.584 318.094C150.546 318.07 150.535 318.021 150.558 317.984C150.581 317.946 150.631 317.934 150.669 317.958Z" fill="#F1F1F1" stroke="#08003F" stroke-width="0.5"/>
<path fill-rule="evenodd" clip-rule="evenodd" d="M142.836 298.955L142.222 319.964L84.8522 320.052C78.0674 319.855 72.7278 314.203 72.9263 307.43C73.1238 300.656 78.7852 295.325 85.5709 295.523L142.836 298.955Z" fill="#08003F"/>
<path d="M89.379 294.266L143.182 298.525C143.396 298.542 143.564 298.71 143.585 298.919L143.587 298.977L142.972 319.987C142.966 320.205 142.801 320.382 142.59 320.41L142.532 320.414L84.8527 320.492C84.6091 320.493 84.4111 320.296 84.4111 320.053C84.4111 319.83 84.5765 319.646 84.7916 319.616L84.8514 319.612L142.102 319.534L142.693 299.37L89.3093 295.143C89.0867 295.126 88.916 294.946 88.9039 294.73L88.9046 294.67C88.9222 294.448 89.1022 294.277 89.319 294.265L89.379 294.266Z" fill="#15E7BD"/>
<path d="M133.944 299.873C134.168 299.88 134.347 300.051 134.37 300.266L134.372 300.326L133.85 318.166C133.843 318.409 133.64 318.6 133.397 318.593C133.173 318.587 132.994 318.416 132.971 318.2L132.969 318.14L133.491 300.3C133.498 300.057 133.701 299.866 133.944 299.873Z" fill="#15E7BD"/>
<path d="M126.5 490L147 450.5C147.4 450.5 148.167 456.5 148.5 459.5" stroke="#08003F" stroke-width="0.5" stroke-linecap="round"/>
<circle cx="193.5" cy="292.5" r="7.5" fill="#08003F"/>
</g>
<defs>
<clipPath id="clip0_17_3437">
<rect width="669" height="556" fill="white" transform="translate(122)"/>
</clipPath>
<clipPath id="clip1_17_3437">
<rect width="62" height="62" fill="white" transform="matrix(-0.606274 -0.795256 -0.795256 0.606274 647.895 313.306)"/>
</clipPath>
<clipPath id="clip2_17_3437">
<rect width="301" height="601" fill="white" transform="translate(0 41)"/>
</clipPath>
</defs>
</svg>
