<svg width="607" height="586" viewBox="0 0 607 586" fill="none" xmlns="http://www.w3.org/2000/svg">
<ellipse cx="354.5" cy="538.5" rx="232.5" ry="47.5" fill="#F1F1F1"/>
<path d="M347.756 183.47L347.756 183.47L347.756 183.47L347.756 183.47L347.756 183.467L347.755 183.455L347.752 183.408C347.749 183.365 347.746 183.301 347.742 183.217C347.734 183.049 347.724 182.8 347.719 182.478C347.708 181.834 347.714 180.901 347.781 179.744C347.915 177.43 348.292 174.228 349.264 170.674C349.936 168.22 351.001 165.607 352.119 162.866C352.622 161.631 353.137 160.37 353.63 159.087C355.211 154.973 356.566 150.649 356.594 146.304C356.601 145.245 356.721 144.447 356.908 143.887C357.097 143.319 357.341 143.04 357.562 142.943C357.763 142.854 358.021 142.885 358.338 143.138C358.658 143.394 359.002 143.852 359.324 144.522C360.615 147.205 361.421 152.994 359.349 161.064L359.244 161.472L359.652 161.368C365.165 159.968 370.827 157.954 375.549 155.231C380.267 152.511 384.073 149.068 385.831 144.799C386.438 143.324 387.411 142.795 388.164 142.886C388.908 142.977 389.612 143.696 389.645 145.095C389.68 146.54 389.408 147.945 389.125 148.993C388.983 149.516 388.84 149.948 388.732 150.249C388.678 150.399 388.633 150.516 388.602 150.595C388.586 150.635 388.574 150.665 388.566 150.685L388.556 150.707L388.554 150.712L388.554 150.714L388.554 150.714L347.756 183.47ZM347.756 183.47L347.762 183.538L347.732 183.599L337.183 205.293L351.951 214.658M347.756 183.47L351.951 214.658M362.765 186.931C362.688 186.693 362.689 186.693 362.689 186.693L362.689 186.692L362.691 186.692L362.699 186.689L362.733 186.678C362.763 186.668 362.808 186.654 362.866 186.634C362.984 186.595 363.157 186.537 363.38 186.46C363.825 186.305 364.469 186.076 365.261 185.777C366.844 185.178 369.017 184.299 371.376 183.179C376.106 180.933 381.54 177.736 384.495 173.91L384.495 173.91C387.372 170.184 388.064 167.915 388.073 166.608C388.077 165.96 387.913 165.546 387.762 165.301C387.685 165.177 387.61 165.094 387.557 165.043C387.53 165.017 387.509 165 387.496 164.99C387.49 164.985 387.486 164.982 387.483 164.98C387.483 164.98 387.483 164.98 387.483 164.98C387.482 164.98 387.482 164.979 387.482 164.98L387.164 164.778L387.478 164.564L387.478 164.564L387.478 164.564L387.478 164.564L387.48 164.562L387.488 164.557C387.495 164.551 387.507 164.543 387.523 164.531C387.554 164.509 387.6 164.474 387.659 164.427C387.776 164.334 387.941 164.195 388.132 164.012C388.514 163.646 388.993 163.108 389.385 162.421C390.164 161.058 390.61 159.096 389.244 156.668L389.183 156.56L389.233 156.446C389.931 154.847 389.767 153.479 389.432 152.51C389.264 152.024 389.052 151.638 388.884 151.374C388.799 151.242 388.726 151.141 388.674 151.074C388.648 151.04 388.628 151.015 388.615 150.999L388.6 150.982L388.597 150.978L388.597 150.978L388.597 150.978L388.596 150.978L388.596 150.978L388.491 150.859L388.554 150.714L362.765 186.931ZM362.765 186.931L362.688 186.693L362.574 186.729L362.531 186.842L351.951 214.658M362.765 186.931L351.951 214.658" fill="#F1F1F1" stroke="#08003F" stroke-width="0.5"/>
<path d="M359.831 161.027L359.831 161.027C359.776 160.894 359.624 160.83 359.491 160.885L359.395 160.654L359.491 160.885C359.357 160.94 359.294 161.092 359.349 161.225L359.349 161.225L359.35 161.23L359.436 161.451L359.436 161.451L359.438 161.454C359.474 161.553 359.518 161.673 359.568 161.814C359.734 162.289 359.9 162.82 360.055 163.395C360.55 165.228 360.823 167.08 360.752 168.802C360.664 170.974 360.029 172.778 358.724 174.066C358.621 174.168 358.62 174.333 358.722 174.435C358.823 174.538 358.988 174.539 359.09 174.438C360.487 173.06 361.179 171.148 361.274 168.823C361.346 167.047 361.069 165.15 360.559 163.259C360.4 162.671 360.23 162.129 360.061 161.644L359.887 161.168C359.865 161.111 359.846 161.063 359.831 161.027Z" fill="#08003F" stroke="#08003F" stroke-width="0.5"/>
<path d="M383.025 167.212L383.001 167.11L382.883 166.586C382.835 166.364 382.789 166.13 382.744 165.887C382.621 165.221 382.528 164.569 382.478 163.957C382.405 163.082 382.418 162.355 382.537 161.785C382.656 161.217 382.873 160.829 383.191 160.594L383.025 167.212ZM383.025 167.212L382.967 167.301M383.025 167.212L382.967 167.301M382.967 167.301L382.905 167.398C382.905 167.398 382.904 167.398 382.904 167.398C382.758 167.625 382.586 167.878 382.39 168.151C381.829 168.93 381.185 169.711 380.469 170.438C378.446 172.493 376.239 173.747 373.953 173.732L373.953 173.732M382.967 167.301L373.953 173.732M373.953 173.732C370.295 173.708 366.683 174.192 363.825 175.131C360.949 176.076 358.909 177.457 358.273 179.173C358.223 179.308 358.292 179.458 358.427 179.508C358.562 179.558 358.712 179.49 358.762 179.354C359.073 178.516 359.764 177.782 360.701 177.156C361.641 176.527 362.848 175.993 364.227 175.561C366.985 174.697 370.463 174.231 373.949 174.254C376.375 174.269 378.691 172.988 380.84 170.804C381.576 170.057 382.237 169.257 382.814 168.456C382.965 168.246 383.102 168.047 383.224 167.863L383.478 167.467C383.5 167.432 383.517 167.403 383.529 167.382C383.564 167.322 383.574 167.251 383.557 167.184L383.557 167.184M373.953 173.732L383.557 167.184M383.557 167.184L383.556 167.18M383.557 167.184L383.556 167.18M383.556 167.18L383.464 166.798L383.464 166.798M383.556 167.18L383.464 166.798M383.464 166.798L383.464 166.796M383.464 166.798L383.464 166.796M383.464 166.796C383.393 166.487 383.323 166.149 383.257 165.793C383.137 165.145 383.047 164.509 382.998 163.914C382.938 163.193 382.946 162.57 383.019 162.086C383.056 161.844 383.11 161.629 383.185 161.451C383.259 161.276 383.36 161.118 383.502 161.013L383.502 161.013M383.464 166.796L383.502 161.013M383.502 161.013C383.699 160.867 383.945 160.91 384.151 161C384.367 161.095 384.616 161.273 384.896 161.53C385.266 161.87 385.66 162.328 386.063 162.869C386.395 163.313 386.715 163.79 387.012 164.265L387.012 164.265M383.502 161.013L387.012 164.265M387.012 164.265L387.014 164.268M387.012 164.265L387.014 164.268M387.014 164.268L387.299 164.738L387.299 164.738M387.014 164.268L387.299 164.738M387.299 164.738L387.301 164.741M387.299 164.738L387.301 164.741M387.301 164.741C387.337 164.803 387.368 164.856 387.392 164.898L387.174 165.021M387.301 164.741L387.174 165.021M387.174 165.021L387.392 164.898C387.462 165.024 387.621 165.068 387.747 164.998L387.869 165.215L387.747 164.998C387.872 164.927 387.917 164.769 387.847 164.644L387.691 164.376C387.625 164.266 387.546 164.135 387.455 163.989C387.15 163.501 386.822 163.013 386.482 162.557C386.054 161.984 385.642 161.507 385.249 161.146C384.831 160.762 384.447 160.52 384.104 160.428M387.174 165.021L384.104 160.428M384.104 160.428C383.774 160.338 383.475 160.384 383.192 160.594L384.104 160.428Z" fill="#08003F" stroke="#08003F" stroke-width="0.5"/>
<path d="M386.085 159.976L386.085 159.976C386.156 160.102 386.112 160.261 385.986 160.331L386.109 160.549L385.986 160.331C385.86 160.402 385.701 160.358 385.631 160.232L385.413 160.355L385.631 160.232C385.593 160.164 385.536 160.059 385.464 159.92L385.183 159.357C385.024 159.024 384.867 158.673 384.718 158.309C384.405 157.546 384.158 156.803 383.998 156.103C383.671 154.667 383.737 153.553 384.256 152.785L386.085 159.976ZM386.085 159.976L386.083 159.971M386.085 159.976L386.083 159.971M386.083 159.971L385.926 159.679L385.926 159.679M386.083 159.971L385.926 159.679M385.926 159.679L385.925 159.676M385.926 159.679L385.925 159.676M385.925 159.676C385.89 159.609 385.852 159.534 385.811 159.451C385.603 159.036 385.395 158.584 385.201 158.111C384.9 157.378 384.661 156.66 384.507 155.987C384.228 154.766 384.245 153.734 384.689 153.078L384.689 153.078M385.925 159.676L384.689 153.078M384.689 153.078C384.775 152.951 384.885 152.844 385.028 152.781C385.172 152.717 385.327 152.707 385.484 152.737C385.784 152.795 386.119 153.003 386.499 153.318C386.909 153.657 387.347 154.119 387.794 154.666L387.6 154.824M384.689 153.078L387.6 154.824M387.6 154.824L387.794 154.666C388.155 155.107 388.505 155.581 388.828 156.054L388.828 156.054M387.6 154.824L388.828 156.054M388.828 156.054L388.829 156.056M388.828 156.054L388.829 156.056M388.829 156.056L389.105 156.469L389.105 156.469M388.829 156.056L389.105 156.469M389.105 156.469L389.106 156.471M389.105 156.469L389.106 156.471M389.106 156.471C389.162 156.557 389.207 156.628 389.241 156.683C389.316 156.805 389.477 156.843 389.599 156.768C389.722 156.693 389.76 156.533 389.686 156.41L389.546 156.19C389.488 156.101 389.419 155.997 389.341 155.881C389.341 155.881 389.341 155.881 389.341 155.88L389.258 155.759C389.258 155.759 389.258 155.759 389.258 155.759C388.926 155.273 388.569 154.788 388.198 154.335C387.724 153.757 387.266 153.276 386.832 152.916C386.275 152.455 385.766 152.211 385.339 152.185M389.106 156.471L385.339 152.185M385.339 152.185C384.935 152.159 384.567 152.326 384.256 152.785L385.339 152.185Z" fill="#08003F" stroke="#08003F" stroke-width="0.5"/>
<path d="M382.565 164.028L382.565 164.028C382.455 163.935 382.29 163.949 382.197 164.059C380.069 166.579 378.097 168.067 374.964 169.505C374.833 169.565 374.775 169.72 374.836 169.851C374.896 169.982 375.05 170.039 375.181 169.979C378.386 168.508 380.419 166.973 382.596 164.396C382.689 164.286 382.675 164.121 382.565 164.028Z" fill="#08003F" stroke="#08003F" stroke-width="0.5"/>
<path d="M383.985 159.055L383.985 159.055C384.095 158.961 384.259 158.974 384.353 159.083L384.543 158.921L383.985 159.055ZM383.985 159.055L383.982 159.058L383.75 159.25L383.75 159.25L383.747 159.252L383.658 159.324L383.658 159.325C383.389 159.541 383.077 159.783 382.728 160.043C381.729 160.787 380.625 161.531 379.448 162.226C377.644 163.29 375.832 164.141 374.067 164.693C373.93 164.736 373.853 164.882 373.896 165.02C373.939 165.157 374.085 165.234 374.223 165.191C376.025 164.627 377.871 163.762 379.713 162.675C380.907 161.971 382.026 161.217 383.039 160.462L383.985 159.055Z" fill="#08003F" stroke="#08003F" stroke-width="0.5"/>
<path d="M384.001 153.901L384.001 153.901C383.906 153.792 383.742 153.781 383.633 153.876L383.633 153.876L383.63 153.879L383.234 154.212L383.234 154.212L383.231 154.215L382.817 154.552L382.817 154.552L382.815 154.553C382.595 154.729 382.358 154.916 382.105 155.111C380.899 156.039 379.579 156.968 378.188 157.835C376.474 158.904 374.769 159.803 373.114 160.475C372.981 160.529 372.917 160.681 372.971 160.815C373.025 160.948 373.177 161.012 373.311 160.958C374.992 160.275 376.722 159.364 378.464 158.278C379.87 157.402 381.204 156.463 382.423 155.525L382.915 155.141C383.07 155.018 383.218 154.899 383.358 154.785L383.978 154.267C384.085 154.172 384.095 154.009 384.001 153.901Z" fill="#08003F" stroke="#08003F" stroke-width="0.5"/>
<path d="M371.484 158.934L371.484 158.937L371.599 159.268L371.599 159.268L371.6 159.271L371.825 159.945L371.825 159.945L371.825 159.946L371.907 160.198L371.907 160.198C372.226 161.185 372.544 162.247 372.842 163.341C373.183 164.598 373.474 165.818 373.699 166.971L373.699 166.971L373.699 166.973L373.824 167.643L373.824 167.643L373.824 167.646C374.077 169.08 374.206 170.343 374.197 171.387C374.188 172.426 374.042 173.277 373.721 173.868C373.652 173.995 373.699 174.153 373.825 174.222C373.952 174.291 374.11 174.244 374.179 174.118C374.542 173.45 374.722 172.5 374.722 171.272C374.721 170.047 374.543 168.571 374.211 166.871C373.984 165.706 373.69 164.474 373.345 163.205C373.046 162.102 372.725 161.034 372.404 160.039L372.093 159.101L371.975 158.759C371.926 158.623 371.777 158.553 371.642 158.601C371.506 158.65 371.435 158.799 371.484 158.934Z" fill="#08003F" stroke="#08003F" stroke-width="0.5"/>
<path d="M385.091 151.799L385.091 151.799C385.125 151.939 385.039 152.08 384.899 152.114L384.959 152.357L384.899 152.114C384.759 152.148 384.618 152.062 384.584 151.922C384.568 151.855 384.546 151.756 384.523 151.63L384.474 151.34C384.378 150.722 384.338 150.096 384.383 149.508C384.472 148.344 384.874 147.536 385.646 147.156L385.091 151.799ZM385.091 151.799L385.09 151.793L385.056 151.639L385.056 151.639L385.055 151.635C385.035 151.536 385.012 151.409 384.989 151.261C384.9 150.687 384.861 150.095 384.903 149.548C384.972 148.64 385.261 147.927 385.876 147.624L385.877 147.624C385.961 147.582 386.04 147.599 386.059 147.603L386.059 147.603C386.092 147.61 386.122 147.622 386.145 147.632C386.194 147.654 386.247 147.686 386.304 147.725C386.418 147.804 386.563 147.929 386.733 148.109L386.55 148.28L386.733 148.109C386.999 148.392 387.283 148.773 387.573 149.219C387.816 149.592 388.052 149.994 388.27 150.394L388.27 150.394L388.271 150.397L388.481 150.792L388.481 150.792L388.482 150.795C388.509 150.847 388.531 150.891 388.549 150.927C388.612 151.056 388.769 151.109 388.898 151.046C389.027 150.983 389.08 150.827 389.018 150.698L388.85 150.372C388.814 150.303 388.773 150.227 388.728 150.145L388.947 150.025L388.728 150.145C388.503 149.732 388.261 149.32 388.01 148.934C387.699 148.456 387.399 148.056 387.113 147.752L387.275 147.599M385.091 151.799L387.275 147.599M387.275 147.599L387.113 147.752C386.823 147.443 386.558 147.239 386.314 147.141M387.275 147.599L386.314 147.141M386.314 147.141C386.081 147.047 385.866 147.047 385.646 147.156L386.314 147.141Z" fill="#08003F" stroke="#08003F" stroke-width="0.5"/>
<path d="M332.498 527.247L332.495 527.239L304.121 548.167L304.37 548.146C304.37 548.146 304.37 548.146 304.37 548.146C304.439 548.953 305.025 549.761 306.019 550.535C307.006 551.303 308.353 552.004 309.852 552.603C312.852 553.801 316.407 554.572 318.773 554.68C320.884 554.776 322.263 555.328 323.367 556.171C324.243 556.84 324.943 557.692 325.693 558.605C325.874 558.826 326.059 559.051 326.25 559.277C327.235 560.447 328.412 561.706 330.252 562.894C332.094 564.083 334.61 565.209 338.276 566.095C351.175 569.212 361.456 567.473 366.657 564.546C367.956 563.815 368.927 563.016 369.545 562.211C370.162 561.408 370.417 560.613 370.321 559.874C370.225 559.136 369.773 558.404 368.875 557.738C367.975 557.071 366.64 556.481 364.816 556.035C353.484 553.262 345.405 546.058 340.163 539.562C337.541 536.313 335.626 533.237 334.367 530.973C333.737 529.841 333.27 528.911 332.961 528.263C332.806 527.94 332.691 527.686 332.614 527.514C332.576 527.427 332.547 527.361 332.528 527.316L332.506 527.265L332.5 527.252L332.499 527.248L332.498 527.248C332.498 527.247 332.498 527.247 332.729 527.151L332.498 527.247Z" fill="#15E7BD" stroke="#08003F" stroke-width="0.5"/>
<path fill-rule="evenodd" clip-rule="evenodd" d="M399.047 358.442C399.811 346.69 391.166 336.43 379.455 335.188L261.187 322.659C246.055 321.056 232.632 332.366 231.643 347.55C230.655 362.734 242.502 375.688 257.712 376.059L376.608 378.959C388.38 379.247 398.281 370.193 399.047 358.442Z" fill="#08003F"/>
<path d="M374.006 508.776L374.001 508.768L373.998 508.759C370.151 499.125 366.877 491.989 364.009 487.376C362.575 485.068 361.252 483.408 360.022 482.382C358.793 481.356 357.688 480.987 356.669 481.19C355.642 481.394 354.629 482.194 353.62 483.678C352.614 485.159 351.638 487.287 350.673 490.079C348.745 495.661 346.884 503.844 344.927 514.675C344.626 516.338 344.297 517.7 343.988 518.905C343.912 519.205 343.836 519.495 343.763 519.776C343.541 520.628 343.338 521.408 343.172 522.184C342.732 524.233 342.552 526.245 343.006 529.381C343.061 529.762 343.296 530.179 343.717 530.623C344.135 531.065 344.718 531.514 345.43 531.961C346.855 532.853 348.764 533.714 350.817 534.463C354.931 535.964 359.554 536.996 361.908 536.965C364.021 536.938 365.43 537.407 366.582 538.185C367.496 538.801 368.244 539.611 369.046 540.478C369.241 540.688 369.438 540.902 369.642 541.117C370.693 542.227 371.942 543.415 373.849 544.493C375.757 545.573 378.335 546.549 382.047 547.219C395.105 549.576 405.267 547.238 410.288 544.011C411.542 543.205 412.465 542.351 413.034 541.512C413.603 540.674 413.811 539.865 413.672 539.133C413.533 538.402 413.039 537.698 412.104 537.086C411.166 536.473 409.798 535.962 407.951 535.623L407.996 535.377L407.951 535.623C396.477 533.518 387.99 526.799 382.377 520.621C379.57 517.531 377.479 514.572 376.089 512.386C375.394 511.292 374.874 510.392 374.527 509.763C374.354 509.449 374.224 509.203 374.137 509.035C374.094 508.951 374.061 508.887 374.039 508.843L374.014 508.794L374.008 508.781L374.006 508.777L374.006 508.776C374.006 508.776 374.006 508.776 374.23 508.666L374.006 508.776Z" fill="#15E7BD" stroke="#08003F" stroke-width="0.5"/>
<path fill-rule="evenodd" clip-rule="evenodd" d="M344.879 502.799L356.75 355.275C357.739 342.972 368.766 333.963 381.018 335.442C393.137 336.907 401.672 348.061 399.919 360.141L377.25 506.865C377.25 506.865 362.612 512.158 344.879 502.799Z" fill="#08003F"/>
<path fill-rule="evenodd" clip-rule="evenodd" d="M163.345 290.531C153.766 288.088 147.849 278.488 149.973 268.832L167.853 187.513C170.413 175.86 182.118 168.647 193.68 171.596C205.239 174.544 212.059 186.482 208.728 197.938L185.477 277.887C182.717 287.38 172.925 292.975 163.345 290.531Z" fill="#15E7BD"/>
<path fill-rule="evenodd" clip-rule="evenodd" d="M326.171 283.155C317.457 287.824 306.61 284.741 301.654 276.186L259.916 204.142C253.935 193.818 257.694 180.594 268.211 174.96C278.728 169.327 291.82 173.524 297.1 184.222L333.953 258.883C338.329 267.748 334.886 278.487 326.171 283.155Z" fill="#15E7BD"/>
<path fill-rule="evenodd" clip-rule="evenodd" d="M346.892 177.067L371.144 189.552L336.669 277.147C332.213 286.57 320.782 290.454 311.529 285.69C302.275 280.926 298.924 269.432 304.158 260.41L346.892 177.067Z" fill="#15E7BD"/>
<path d="M342.881 190.548C342.539 190.391 342.135 190.539 341.977 190.881C341.832 191.194 341.945 191.56 342.228 191.741L342.309 191.785L363.885 201.761C364.227 201.919 364.632 201.77 364.789 201.429C364.934 201.116 364.821 200.749 364.538 200.569L364.457 200.525L342.881 190.548Z" fill="#08003F"/>
<path d="M347.345 177.015C347.037 176.849 346.658 176.944 346.463 177.222L346.414 177.303L312.727 242.781C312.555 243.115 312.687 243.526 313.021 243.698C313.328 243.856 313.699 243.758 313.891 243.483L313.939 243.404L347.308 178.544L369.63 190.638C369.933 190.802 370.306 190.712 370.504 190.441L370.553 190.363C370.718 190.06 370.628 189.687 370.357 189.489L370.279 189.44L347.345 177.015Z" fill="#08003F"/>
<path fill-rule="evenodd" clip-rule="evenodd" d="M360.124 190.808C360.625 189.747 361.893 189.287 362.956 189.777C364.019 190.269 364.474 191.528 363.974 192.588C363.472 193.649 362.204 194.111 361.141 193.619C360.079 193.127 359.623 191.87 360.124 190.808Z" fill="#08003F"/>
<path d="M256.261 162.044L256.261 162.044L256.262 162.033L258.094 131.419L225.685 129.436L220.944 159.396C219.445 170.951 231.05 180.958 242.49 178.591L242.49 178.591C243.251 178.435 243.989 178.238 244.709 178.01L244.709 178.01C251.588 175.835 256.147 169.274 256.261 162.044Z" fill="#F1F1F1" stroke="#08003F" stroke-width="0.5"/>
<path d="M217.061 114.037C218.577 137.771 233.941 149.668 249.421 151.749C254.032 152.369 257.811 151.858 260.904 150.398C263.996 148.938 266.422 146.519 268.31 143.288C272.094 136.814 273.7 127.106 274.154 115.437C274.613 103.611 272.479 95.5301 268.095 90.1554C263.714 84.784 257.047 82.0688 248.327 81.0624L248.356 80.8141L248.327 81.0624C239.261 80.0159 231.069 82.2718 225.336 87.7615C219.604 93.2501 216.293 102.007 217.061 114.037Z" fill="#F1F1F1" stroke="#08003F" stroke-width="0.5"/>
<path fill-rule="evenodd" clip-rule="evenodd" d="M245.868 113.94C245.825 115.044 246.461 115.966 247.289 115.999C248.116 116.032 248.821 115.164 248.864 114.059C248.906 112.956 248.271 112.033 247.444 112.001C246.617 111.967 245.911 112.835 245.868 113.94Z" fill="#08003F"/>
<path fill-rule="evenodd" clip-rule="evenodd" d="M266.868 113.94C266.825 115.044 267.461 115.966 268.289 115.999C269.116 116.032 269.821 115.164 269.864 114.059C269.906 112.956 269.271 112.033 268.444 112.001C267.617 111.967 266.911 112.835 266.868 113.94Z" fill="#08003F"/>
<path fill-rule="evenodd" clip-rule="evenodd" d="M229.418 118.702C229.027 116.816 228.766 113.689 225.92 112.209C222.002 110.171 218.024 114.46 218.177 119.444C218.362 125.485 223.332 129.559 226.318 129.84C225.648 134.663 224.259 138.42 224.259 138.42C224.259 138.42 218.767 131.682 215.981 121.256C211.635 104.99 217.103 83.2207 235.265 79.6978C263.57 75.0373 271.169 95.2485 271.169 95.2485L237.794 93.1778L237.674 104.725C237.674 104.725 231.527 104.533 231.591 118.214L229.418 118.702Z" fill="#08003F"/>
<path d="M244.944 107.628C244.896 107.623 244.847 107.623 244.799 107.628L244.727 107.639L241.213 108.4C240.846 108.479 240.612 108.842 240.692 109.209C240.765 109.546 241.075 109.771 241.41 109.745L241.502 109.731L244.907 108.994L255.719 110.166C256.062 110.203 256.373 109.979 256.453 109.654L256.47 109.562C256.507 109.22 256.283 108.909 255.957 108.828L255.866 108.812L244.944 107.628Z" fill="#08003F"/>
<path fill-rule="evenodd" clip-rule="evenodd" d="M263.046 132.686C263.046 132.686 256.131 132.636 248.358 132.384C248.358 132.384 249.156 136.228 255.482 136.824C260.448 137.289 263.046 132.686 263.046 132.686Z" fill="white"/>
<path d="M248.374 131.873C250.819 131.953 253.311 132.017 255.78 132.067L258.821 132.122L263.05 132.176C263.439 132.179 263.682 132.598 263.491 132.937L263.401 133.088C263.311 133.232 263.183 133.421 263.018 133.643C262.635 134.157 262.179 134.671 261.648 135.15C259.932 136.704 257.853 137.559 255.435 137.332C252.76 137.081 250.803 136.252 249.467 135.018C248.465 134.091 247.995 133.149 247.857 132.488C247.79 132.164 248.044 131.863 248.374 131.873ZM250.803 132.969L249.115 132.917L249.085 132.862C249.322 133.337 249.673 133.817 250.161 134.267C251.327 135.345 253.073 136.084 255.53 136.315C257.634 136.512 259.443 135.768 260.963 134.393L261.242 134.13C261.513 133.864 261.76 133.588 261.983 133.311L262.078 133.187L260.465 133.168C259.758 133.159 259.008 133.147 258.222 133.134C255.772 133.093 253.276 133.038 250.803 132.969Z" fill="#08003F"/>
<path d="M264.082 109.163C263.844 109.075 263.582 109.175 263.461 109.389L263.426 109.465L262.05 113.188C262.031 113.239 262.021 113.293 262.019 113.347L262.022 113.428L263.61 126.236C263.677 126.882 263.177 127.437 262.477 127.453L262.351 127.45L253.673 128.16C253.392 128.183 253.183 128.43 253.206 128.711C253.227 128.964 253.428 129.159 253.674 129.178H253.757L262.354 128.469C263.628 128.566 264.686 127.525 264.635 126.261L264.625 126.12L263.053 113.425L264.384 109.819C264.472 109.581 264.372 109.319 264.158 109.198L264.082 109.163Z" fill="#08003F"/>
<path d="M252.91 140.362C252.629 140.342 252.384 140.554 252.364 140.835C252.346 141.088 252.516 141.312 252.756 141.368L252.838 141.381L256.952 141.674C257.233 141.694 257.478 141.482 257.498 141.2C257.516 140.947 257.346 140.724 257.107 140.667L257.024 140.655L252.91 140.362Z" fill="#08003F"/>
<path d="M273.466 108.901L264.408 109.008C264.032 109.013 263.731 109.322 263.735 109.698C263.739 110.042 263.999 110.324 264.332 110.366L264.424 110.371L273.482 110.263C273.858 110.259 274.16 109.95 274.155 109.574C274.151 109.229 273.891 108.947 273.558 108.906L273.466 108.901Z" fill="#08003F"/>
<path d="M235.922 147.097C235.691 146.935 235.373 146.991 235.21 147.221C235.048 147.452 235.104 147.771 235.335 147.933C241.782 152.466 248.553 153.665 254.337 153.009L254.761 152.956C254.893 152.938 255.016 152.919 255.13 152.9L255.42 152.848C255.696 152.79 255.873 152.518 255.814 152.242C255.756 151.966 255.485 151.79 255.209 151.848L254.95 151.895C254.768 151.925 254.524 151.96 254.222 151.994C248.666 152.624 242.14 151.468 235.922 147.097Z" fill="#08003F"/>
<path d="M225.272 114.941C224.542 114.549 223.786 114.448 223.136 114.505L223.038 114.516C223.025 114.517 223.014 114.519 223.005 114.52C222.726 114.565 222.536 114.827 222.581 115.106C222.621 115.356 222.837 115.535 223.083 115.536L223.226 115.523C223.695 115.481 224.26 115.557 224.789 115.841C225.794 116.38 226.423 117.548 226.464 119.597L226.465 119.678L226.314 119.701C224.989 119.919 224.145 120.57 223.88 121.537L223.844 121.685C223.636 122.69 224.085 123.86 224.93 124.71C225.129 124.91 225.452 124.911 225.653 124.712C225.853 124.513 225.854 124.19 225.655 123.99C225.034 123.366 224.713 122.529 224.845 121.892C224.989 121.197 225.666 120.73 227.002 120.652C227.267 120.636 227.476 120.421 227.483 120.155C227.557 117.412 226.729 115.722 225.272 114.941Z" fill="#08003F"/>
<path fill-rule="evenodd" clip-rule="evenodd" d="M271.66 280.796C271.66 280.796 291.986 192.264 290.366 176.584C279.47 168.899 274.514 169.03 255.198 163.97C251.63 163.036 246.174 169.97 241.864 169.297C235.49 168.302 230.645 160.401 224.501 160.792C200.622 162.311 178.758 174.708 178.758 174.708L187.526 279.368C187.526 279.368 178.708 300.138 200.957 300.282C215.915 300.379 245.935 303.542 266.552 299.558C272.313 298.445 273.562 288.141 271.66 280.796Z" fill="#15E7BD"/>
<path fill-rule="evenodd" clip-rule="evenodd" d="M257.828 160.121L264.235 166.616L256.454 183.442L245.032 170.327L257.828 160.121Z" fill="#15E7BD"/>
<path fill-rule="evenodd" clip-rule="evenodd" d="M244.653 169.557L222.164 155.822L215.937 161.699L228.46 182.493L244.653 169.557Z" fill="#15E7BD"/>
<path fill-rule="evenodd" clip-rule="evenodd" d="M253.027 179.584L244.27 169.555L234.495 178.441L236.977 190.22L249.5 191.069L253.027 179.584Z" fill="#08003F"/>
<path fill-rule="evenodd" clip-rule="evenodd" d="M236.442 189.162L249.497 189.233C249.497 189.233 255.066 237.344 255.717 254.993C255.801 257.246 240.22 278.674 240.22 278.674C240.22 278.674 223.771 255.045 224.281 252.486C228.245 232.566 232.252 206.51 236.442 189.162Z" fill="#08003F"/>
<path d="M216.521 161.736C216.33 161.412 215.912 161.305 215.588 161.496C215.291 161.672 215.177 162.037 215.307 162.347L215.349 162.429L227.868 183.608C228.069 183.948 228.511 184.041 228.829 183.83L228.906 183.771L244.691 169.786L256.417 185.138C256.716 185.53 257.308 185.478 257.546 185.069L257.588 184.983L264.863 167.258C265.006 166.91 264.839 166.512 264.491 166.369C264.172 166.238 263.811 166.367 263.643 166.657L263.603 166.741L256.78 183.367L245.328 168.377C245.108 168.089 244.706 168.028 244.413 168.222L244.336 168.281L228.621 182.203L216.521 161.736Z" fill="#08003F"/>
<path d="M286.831 210.032C286.462 209.956 286.102 210.193 286.026 210.561L285.572 212.749C285.095 215.05 284.607 217.389 284.109 219.762L282.772 226.115C280.746 235.697 278.637 245.503 276.513 255.251L273.642 268.347L270.998 280.263C270.97 280.385 270.977 280.512 271.017 280.63L271.123 280.97C271.147 281.048 271.172 281.137 271.2 281.235C271.341 281.732 271.482 282.294 271.614 282.908C272.148 285.391 272.371 287.927 272.109 290.276C271.629 294.582 269.602 297.601 265.576 298.904C265.218 299.02 265.022 299.404 265.137 299.762C265.253 300.12 265.637 300.316 265.995 300.201C270.584 298.715 272.929 295.225 273.463 290.427C273.743 287.912 273.508 285.236 272.946 282.622C272.836 282.107 272.718 281.626 272.6 281.186L272.467 280.712L272.368 280.381L274.972 268.641C275.438 266.527 275.924 264.32 276.426 262.029L277.844 255.541C280.441 243.624 283.015 231.619 285.443 220.042L286.906 213.026L287.36 210.837C287.436 210.468 287.199 210.108 286.831 210.032Z" fill="#08003F"/>
<path fill-rule="evenodd" clip-rule="evenodd" d="M184.835 301.84C184.835 301.84 260.64 311.982 266.245 304.788C268.71 301.62 272.255 328.221 278.104 351.8C274.985 357.861 251.447 367.886 237.916 373.864C232.799 376.124 228.156 374.778 228.156 374.778C221.448 376.44 180.654 355.002 180.654 355.002C180.654 355.002 175.413 335.021 184.835 301.84Z" fill="#08003F"/>
<path fill-rule="evenodd" clip-rule="evenodd" d="M267.815 297.908L268.038 307.111C268.038 307.111 260.629 307.958 234.919 307.79C208.835 307.622 184.827 303.224 184.827 303.224L185.194 294.88C185.194 294.88 238.574 296.051 267.815 297.908Z" fill="#F1F1F1"/>
<path fill-rule="evenodd" clip-rule="evenodd" d="M255.741 306.473L256.024 299.791C256.105 297.908 254.643 296.358 252.84 296.423C248.518 296.58 240.885 296.727 235.368 296.11C233.564 295.91 231.993 297.389 231.97 299.284L231.883 306.117C231.864 307.715 232.96 309.078 234.468 309.345C238.051 309.978 244.969 310.776 253.071 309.541C254.547 309.316 255.674 308.03 255.741 306.473Z" fill="#08003F"/>
<path fill-rule="evenodd" clip-rule="evenodd" d="M252.986 305.523L253.199 300.798C253.26 299.465 252.131 298.366 250.741 298.411C247.406 298.518 241.517 298.616 237.26 298.176C235.869 298.032 234.658 299.078 234.64 300.419L234.58 305.252C234.567 306.383 235.414 307.347 236.577 307.537C239.341 307.988 244.679 308.559 250.929 307.691C252.068 307.533 252.936 306.624 252.986 305.523Z" fill="#15E7BD"/>
<path d="M202.506 210.651C202.147 210.538 201.764 210.738 201.651 211.096L201.431 211.817L200.993 213.302L200.534 214.899C200.015 216.728 199.434 218.838 198.795 221.238L198.304 223.093C195.598 233.393 192.491 246.328 189.03 262.089C188.95 262.456 189.182 262.819 189.55 262.9C189.917 262.981 190.28 262.748 190.361 262.381L191.255 258.338C194.28 244.743 197.022 233.38 199.445 224.114L200.269 220.997C200.897 218.652 201.465 216.597 201.972 214.822L202.396 213.356L202.951 211.506C203.064 211.147 202.864 210.764 202.506 210.651Z" fill="#08003F"/>
<path d="M332.401 231.761L332.401 231.761L312.815 291.885C312.359 293.284 311.051 294.227 309.58 294.218C309.579 294.218 309.579 294.218 309.579 294.218L253.243 293.851C250.954 293.836 249.343 291.601 250.051 289.425L269.638 229.302C270.095 227.902 271.403 226.96 272.873 226.969L332.401 231.761ZM332.401 231.761C333.11 229.587 331.498 227.351 329.211 227.335C329.211 227.335 329.211 227.335 329.211 227.335L272.873 226.969L332.401 231.761Z" fill="#F1F1F1" stroke="#08003F" stroke-width="0.5"/>
<path fill-rule="evenodd" clip-rule="evenodd" d="M257.332 294.128L313.669 294.495C315.249 294.504 316.654 293.492 317.144 291.989L336.731 231.865C337.491 229.53 335.76 227.129 333.304 227.112L276.966 226.746C275.387 226.736 273.982 227.748 273.492 229.251L253.905 289.375C253.144 291.711 254.875 294.112 257.332 294.128Z" fill="#08003F"/>
<path d="M298.262 298.385L298.261 298.37L298.263 298.37C310.544 297.832 319.296 294.296 324.11 290.597C326.523 288.743 327.918 286.871 328.305 285.341C328.497 284.581 328.439 283.919 328.152 283.377C327.865 282.835 327.331 282.382 326.512 282.075C326.107 281.923 325.437 281.822 324.549 281.757C323.668 281.692 322.599 281.663 321.411 281.646C320.867 281.638 320.299 281.632 319.714 281.627C317.746 281.607 315.583 281.586 313.505 281.467C310.814 281.314 308.231 280.998 306.375 280.298C305.447 279.948 304.677 279.493 304.169 278.894C303.653 278.286 303.42 277.542 303.548 276.655L303.548 276.655C303.617 276.178 303.904 275.732 304.303 275.316C304.704 274.898 305.24 274.488 305.849 274.084C306.733 273.498 307.797 272.908 308.867 272.315C309.268 272.093 309.669 271.871 310.062 271.648C311.519 270.821 312.859 269.991 313.697 269.135C314.116 268.709 314.392 268.293 314.505 267.887C314.616 267.491 314.577 267.085 314.33 266.654L314.33 266.654C314.156 266.35 313.852 266.13 313.404 265.992C312.953 265.853 312.373 265.803 311.681 265.832C310.299 265.889 308.535 266.259 306.61 266.777C304.689 267.294 302.625 267.955 300.645 268.589L300.641 268.59C298.662 269.224 296.765 269.831 295.19 270.236C290.427 271.462 286.133 273.167 283.028 274.566C281.477 275.265 280.223 275.888 279.358 276.336C278.926 276.559 278.59 276.739 278.364 276.863C278.25 276.925 278.164 276.973 278.106 277.005L278.041 277.042L278.032 277.047L278.02 277.056C278.004 277.068 277.98 277.086 277.948 277.111C277.885 277.16 277.791 277.234 277.674 277.33C277.438 277.524 277.106 277.809 276.72 278.176C275.946 278.91 274.961 279.967 274.108 281.258C272.4 283.841 271.241 287.321 273.292 291.056C274.421 293.112 276.522 294.61 279.078 295.696C281.631 296.78 284.612 297.441 287.459 297.839C290.304 298.236 293.006 298.369 294.997 298.403C295.993 298.419 296.81 298.411 297.378 298.399C297.661 298.393 297.883 298.386 298.033 298.38C298.108 298.377 298.166 298.375 298.204 298.373L298.247 298.371L298.258 298.371L298.261 298.371L298.261 298.37C298.261 298.37 298.261 298.37 298.262 298.385Z" fill="#F1F1F1" stroke="#08003F" stroke-width="0.5"/>
<path d="M326.735 285.246L326.735 285.246C326.693 285.108 326.547 285.031 326.41 285.073L326.337 284.836L326.41 285.073C325.669 285.3 324.907 285.5 324.127 285.674C319.354 286.734 314.258 286.765 309.512 286.183C308.987 286.119 308.504 286.051 308.069 285.982L308.066 285.981L307.367 285.863L307.367 285.863L307.363 285.863C307.258 285.843 307.177 285.828 307.122 285.816C306.981 285.787 306.843 285.878 306.814 286.019C306.785 286.16 306.875 286.297 307.015 286.327L307.515 286.419L307.519 286.42L307.665 286.445C307.665 286.445 307.665 286.445 307.666 286.445C308.186 286.532 308.784 286.619 309.448 286.701C314.259 287.291 319.405 287.257 324.24 286.183C325.034 286.007 325.809 285.803 326.563 285.572L326.636 285.811L326.563 285.572C326.7 285.53 326.778 285.384 326.735 285.246Z" fill="#08003F" stroke="#08003F" stroke-width="0.5"/>
<path d="M324.233 289.685L324.233 289.685L324.228 289.686L324.004 289.761L324.004 289.761L324.001 289.762C323.839 289.813 323.621 289.878 323.348 289.954L323.281 289.714L323.348 289.954C322.613 290.159 321.75 290.364 320.764 290.555C316.246 291.431 310.893 291.728 304.865 291.103C304.721 291.088 304.593 291.192 304.578 291.335C304.563 291.479 304.668 291.607 304.811 291.622C310.898 292.253 316.302 291.952 320.864 291.067C321.864 290.873 322.74 290.665 323.487 290.457L323.856 290.351L324.172 290.254C324.289 290.217 324.367 290.191 324.408 290.176C324.543 290.128 324.614 289.979 324.566 289.843C324.517 289.707 324.368 289.636 324.233 289.685Z" fill="#08003F" stroke="#08003F" stroke-width="0.5"/>
<path d="M302.497 295.358L302.494 295.358L302.045 295.314L302.042 295.314C301.972 295.307 301.905 295.299 301.841 295.291L301.841 295.291L301.838 295.291L301.488 295.246L301.488 295.246L301.484 295.245C301.438 295.239 301.404 295.233 301.38 295.229C301.238 295.205 301.103 295.3 301.079 295.442C301.055 295.583 301.149 295.717 301.289 295.743L301.589 295.786L301.985 295.833C301.986 295.833 301.986 295.833 301.986 295.833C302.129 295.848 302.284 295.863 302.45 295.878C302.45 295.878 302.451 295.878 302.451 295.878L303.155 295.932C303.156 295.932 303.156 295.932 303.156 295.932C306.403 296.147 310.682 295.98 315.938 295.183C316.081 295.161 316.179 295.028 316.157 294.886C316.138 294.761 316.033 294.67 315.911 294.664L315.85 294.669C310.26 295.515 305.785 295.645 302.497 295.358Z" fill="#08003F" stroke="#08003F" stroke-width="0.5"/>
<path d="M315.029 266.359C314.935 266.093 314.643 265.954 314.377 266.049C314.111 266.143 313.972 266.435 314.066 266.701C314.288 267.328 314.287 267.682 314.069 268.03L313.944 268.214C313.836 268.399 313.996 268.323 313.32 268.805L310.528 270.756C310.111 271.047 309.709 271.3 309.075 271.671L308.053 272.26C305.843 273.526 304.882 274.192 304.172 275.132C303.177 276.452 303.266 277.916 304.574 279.522C305.986 281.255 309.545 282.121 314.672 282.396C317.373 282.54 320.258 282.504 323.028 282.355L323.934 282.301L324.801 282.24C324.891 282.233 324.96 282.227 325.008 282.223C325.289 282.199 325.497 281.951 325.473 281.67C325.448 281.389 325.201 281.181 324.919 281.205L324.4 281.245L323.868 281.282C323.588 281.3 323.289 281.317 322.973 281.335C320.237 281.481 317.386 281.518 314.726 281.375L313.956 281.329C309.539 281.026 306.459 280.219 305.367 278.877C304.345 277.622 304.287 276.677 304.988 275.748C305.529 275.031 306.328 274.447 308.045 273.445L309.602 272.547C310.135 272.234 310.512 272.002 310.873 271.759L313.277 270.095C313.345 270.047 313.401 270.007 313.441 269.978C314.128 269.479 314.544 269.113 314.826 268.731C315.33 268.049 315.376 267.339 315.029 266.359Z" fill="#604346"/>
<path fill-rule="evenodd" clip-rule="evenodd" d="M278.913 275.679L275.454 302.127L165.861 294.166C155.473 293.305 147.82 283.967 149.028 273.63C150.237 263.292 159.82 256.116 170.107 257.845L278.913 275.679Z" fill="#15E7BD"/>
<path d="M262.821 272.879C262.478 272.842 262.167 273.065 262.086 273.391L262.069 273.482L259.486 297.113C259.446 297.487 259.716 297.823 260.09 297.864C260.432 297.901 260.744 297.678 260.824 297.352L260.841 297.261L263.424 273.63C263.465 273.256 263.195 272.92 262.821 272.879Z" fill="#08003F"/>
<path d="M176.64 258.321C176.269 258.259 175.918 258.51 175.856 258.881C175.799 259.221 176.005 259.544 176.325 259.643L176.415 259.665L277.186 276.489L274.441 299.451C274.4 299.794 274.621 300.107 274.946 300.191L275.037 300.209C275.379 300.25 275.693 300.029 275.777 299.704L275.794 299.613L278.615 276.006C278.655 275.674 278.449 275.368 278.138 275.274L278.051 275.253L176.64 258.321Z" fill="#08003F"/>
<path fill-rule="evenodd" clip-rule="evenodd" d="M195.101 501.027H245.934V490.637H195.101V501.027Z" fill="#15E7BD"/>
<path fill-rule="evenodd" clip-rule="evenodd" d="M233.285 384.543L246.898 552.279H258.586L244.974 384.543H233.285Z" fill="#08003F"/>
<path fill-rule="evenodd" clip-rule="evenodd" d="M196.061 384.543L182.448 552.279H194.137L207.749 384.543H196.061Z" fill="#08003F"/>
<path d="M191.098 395.211C185.206 395.211 180.43 390.434 180.43 384.543C180.43 378.652 185.206 373.875 191.098 373.875H251.004C256.896 373.875 261.673 378.652 261.673 384.543C261.673 390.434 256.896 395.211 251.004 395.211H191.098Z" fill="#15E7BD" stroke="#08003F" stroke-width="0.5"/>
<path fill-rule="evenodd" clip-rule="evenodd" d="M268.62 292.21C269.785 292.348 270.627 293.402 270.5 294.566C270.372 295.73 269.326 296.563 268.16 296.425C266.995 296.289 266.153 295.233 266.28 294.07C266.408 292.905 267.455 292.073 268.62 292.21Z" fill="#08003F"/>
<path fill-rule="evenodd" clip-rule="evenodd" d="M331.059 368.558C330.593 358.661 323.561 350.302 313.89 348.148L216.175 326.391C201.812 321.367 186.155 329.305 181.718 343.858C177.279 358.413 185.846 373.735 200.569 377.578L306.273 391.374C319.836 393.144 331.702 382.222 331.059 368.558Z" fill="#08003F"/>
<path fill-rule="evenodd" clip-rule="evenodd" d="M302.534 518.712L286.321 371.602C284.97 359.334 294.095 348.403 306.407 347.542C318.583 346.691 329.073 356.032 329.633 368.225L336.43 516.341C336.43 516.341 321.715 524.552 302.534 518.712Z" fill="#08003F"/>
<path d="M233.34 330.634C232.969 330.573 232.619 330.824 232.557 331.195C232.501 331.535 232.707 331.858 233.027 331.957L233.134 331.981L236.907 332.621L240.85 333.304C242.768 333.64 244.792 333.998 246.903 334.377C256.554 336.109 266.205 337.939 275.294 339.797L277.233 340.195C285.032 341.807 292.047 343.369 298.086 344.857L299.77 345.277C308.96 347.591 315.449 349.656 318.704 351.389C322.692 353.511 325.489 359.16 327.211 367.248C328.009 370.998 328.523 375.023 328.809 379.049L328.886 380.234C328.932 381.006 328.966 381.742 328.992 382.436L329.016 383.191L329.037 384.319L329.037 384.43L329.043 384.523C329.088 384.855 329.373 385.112 329.718 385.112C330.063 385.112 330.348 384.856 330.393 384.523L330.399 384.431L330.396 384.023C330.391 383.701 330.383 383.327 330.37 382.908C330.334 381.713 330.269 380.384 330.168 378.953C329.878 374.868 329.356 370.783 328.543 366.964C326.744 358.513 323.794 352.554 319.344 350.186C315.828 348.315 308.874 346.13 298.986 343.676L298.412 343.535C292.355 342.042 285.323 340.476 277.509 338.861C268.49 336.997 258.872 335.156 249.214 333.409L244.476 332.56C242.732 332.25 241.058 331.957 239.465 331.68L233.34 330.634Z" fill="#F1F1F1"/>
<path fill-rule="evenodd" clip-rule="evenodd" d="M209.036 66.9683C209.036 99.0129 183.067 124.991 151.033 124.991C118.999 124.991 93.0293 99.0129 93.0293 66.9683C93.0293 34.9228 118.999 8.9458 151.033 8.9458C183.067 8.9458 209.036 34.9228 209.036 66.9683Z" fill="#08003F"/>
<mask id="mask0_17_3612" style="mask-type:alpha" maskUnits="userSpaceOnUse" x="93" y="8" width="117" height="117">
<path fill-rule="evenodd" clip-rule="evenodd" d="M209.036 66.9683C209.036 99.0129 183.067 124.991 151.033 124.991C118.999 124.991 93.0293 99.0129 93.0293 66.9683C93.0293 34.9228 118.999 8.9458 151.033 8.9458C183.067 8.9458 209.036 34.9228 209.036 66.9683Z" fill="#ADC6FF"/>
</mask>
<g mask="url(#mask0_17_3612)">
<path fill-rule="evenodd" clip-rule="evenodd" d="M144.851 98.0767L156.917 98.1729C156.917 98.1729 170.791 111.431 150.203 130.356C150.203 130.356 129.989 110.144 144.851 98.0767Z" fill="#15E7BD"/>
<path fill-rule="evenodd" clip-rule="evenodd" d="M160.793 100.808H139.582C138.652 100.808 137.971 99.9307 138.202 99.0292L140.975 88.1982H159.399L162.173 99.0292C162.403 99.9307 161.723 100.808 160.793 100.808Z" fill="#08003F"/>
<path fill-rule="evenodd" clip-rule="evenodd" d="M125.493 87.251L150.186 48.8745L174.882 87.251C175.917 88.8606 174.762 90.9775 172.849 90.9775H127.526C125.612 90.9775 124.457 88.8606 125.493 87.251Z" fill="#15E7BD"/>
<path fill-rule="evenodd" clip-rule="evenodd" d="M150.125 18.7738C150.121 18.7728 150.117 18.77 150.117 18.77V18.7775C149.641 19.0157 136.137 29.2965 136.137 36.2422C136.137 50.9874 136.261 90.9782 136.261 90.9782H164.237C164.237 90.9782 164.113 50.9874 164.113 36.2422C164.113 29.2965 150.128 18.7728 150.125 18.7738Z" fill="white"/>
<path fill-rule="evenodd" clip-rule="evenodd" d="M154.559 38.3104C156.974 40.7262 156.974 44.6423 154.559 47.0581C152.145 49.473 148.23 49.473 145.815 47.0581C143.4 44.6423 143.4 40.7262 145.815 38.3104C148.23 35.8946 152.145 35.8946 154.559 38.3104Z" fill="#08003F"/>
<path fill-rule="evenodd" clip-rule="evenodd" d="M145.197 127.087C145.197 135.154 138.659 141.694 130.595 141.694C122.531 141.694 115.994 135.154 115.994 127.087C115.994 119.021 122.531 112.481 130.595 112.481C138.659 112.481 145.197 119.021 145.197 127.087Z" fill="#F1F1F1"/>
<path fill-rule="evenodd" clip-rule="evenodd" d="M165.18 131.296C165.18 139.363 158.643 145.902 150.579 145.902C142.515 145.902 135.978 139.363 135.978 131.296C135.978 123.229 142.515 116.69 150.579 116.69C158.643 116.69 165.18 123.229 165.18 131.296Z" fill="#F1F1F1"/>
<path fill-rule="evenodd" clip-rule="evenodd" d="M209.187 104.603C209.187 113.752 201.773 121.167 192.629 121.167C183.483 121.167 176.069 113.752 176.069 104.603C176.069 95.4556 183.483 88.0391 192.629 88.0391C201.773 88.0391 209.187 95.4556 209.187 104.603Z" fill="#F1F1F1"/>
<path fill-rule="evenodd" clip-rule="evenodd" d="M191.187 60.1294C191.187 63.7559 188.249 66.6958 184.622 66.6958C180.997 66.6958 178.057 63.7559 178.057 60.1294C178.057 56.5019 180.997 53.563 184.622 53.563C188.249 53.563 191.187 56.5019 191.187 60.1294Z" fill="white"/>
<path fill-rule="evenodd" clip-rule="evenodd" d="M113.498 71.9464C113.498 73.9951 111.838 75.657 109.789 75.657C107.741 75.657 106.082 73.9951 106.082 71.9464C106.082 69.8978 107.741 68.2358 109.789 68.2358C111.838 68.2358 113.498 69.8978 113.498 71.9464Z" fill="#15E7BD"/>
<path fill-rule="evenodd" clip-rule="evenodd" d="M128.581 109.803C128.581 119.135 121.017 126.701 111.688 126.701C102.359 126.701 94.7959 119.135 94.7959 109.803C94.7959 100.472 102.359 92.9058 111.688 92.9058C121.017 92.9058 128.581 100.472 128.581 109.803Z" fill="#F1F1F1"/>
<path fill-rule="evenodd" clip-rule="evenodd" d="M176.168 139.326C166.081 139.326 157.902 131.146 157.902 121.054C157.902 110.962 166.081 102.781 176.168 102.781C186.257 102.781 194.435 110.962 194.435 121.054C194.435 131.146 186.257 139.326 176.168 139.326Z" fill="#F1F1F1"/>
</g>
<path fill-rule="evenodd" clip-rule="evenodd" d="M105.131 283.199C105.131 305.499 87.0527 323.576 64.7539 323.576C42.4538 323.576 24.376 305.499 24.376 283.199C24.376 260.898 42.4538 242.821 64.7539 242.821C87.0527 242.821 105.131 260.898 105.131 283.199Z" fill="#08003F"/>
<mask id="mask1_17_3612" style="mask-type:alpha" maskUnits="userSpaceOnUse" x="24" y="242" width="82" height="82">
<path d="M64.7549 242.821C42.4541 242.821 24.377 260.898 24.377 283.198C24.377 305.499 42.4541 323.576 64.7549 323.576C87.0544 323.576 105.132 305.499 105.132 283.198C105.132 260.898 87.0544 242.821 64.7549 242.821Z" fill="white"/>
</mask>
<g mask="url(#mask1_17_3612)">
<path d="M72.9707 325.749L69.9127 328.848C69.3969 329.37 68.5551 329.375 68.0329 328.859L68.0328 328.859L64.8825 325.747L64.6866 325.553L64.4904 325.747L61.3116 328.878C60.7935 329.387 59.9623 329.387 59.4457 328.877L59.4456 328.877L56.2718 325.747L56.0758 325.553L55.8798 325.747L52.7151 328.868L52.9112 329.067L52.7151 328.868C52.1951 329.382 51.3586 329.378 50.8423 328.862L50.8423 328.862L47.727 325.748L47.5105 325.532L47.3149 325.767L44.4352 329.237C44.1187 329.539 43.6151 329.34 43.6151 328.856V280.504H85.892V328.811C85.892 329.033 85.7509 329.21 85.5421 329.293C85.3355 329.375 85.1028 329.347 84.9401 329.194L81.9842 325.763L81.7879 325.535L81.5753 325.748L78.4529 328.87L78.4529 328.87C77.9388 329.384 77.1066 329.389 76.5861 328.882L76.5859 328.881L73.3641 325.745L73.1654 325.552L72.9707 325.749Z" fill="#F1F1F1" stroke="#08003F" stroke-width="0.558333"/>
<path d="M86.0991 277.549V279.934H43.4091V277.549C43.4091 276.738 44.0662 276.081 44.8779 276.081H84.6304C85.4414 276.081 86.0991 276.738 86.0991 277.549Z" fill="white" stroke="#08003F" stroke-width="0.279167"/>
<path fill-rule="evenodd" clip-rule="evenodd" d="M76.975 293.154C77.2708 293.154 77.5107 292.914 77.5107 292.618V289.402C77.5107 289.105 77.2708 288.865 76.975 288.865H73.759C73.4625 288.865 73.2227 289.105 73.2227 289.402V292.618C73.2227 292.914 73.4625 293.154 73.759 293.154H76.975Z" fill="#15E7BD"/>
<path fill-rule="evenodd" clip-rule="evenodd" d="M47.8806 299.534H81.3442C81.5593 299.534 81.7329 299.359 81.7329 299.144V297.779C81.7329 297.564 81.5593 297.39 81.3442 297.39H47.8806C47.6661 297.39 47.4912 297.564 47.4912 297.779V299.144C47.4912 299.359 47.6661 299.534 47.8806 299.534Z" fill="#08003F"/>
<path fill-rule="evenodd" clip-rule="evenodd" d="M47.8806 305.914H81.3442C81.5593 305.914 81.7329 305.739 81.7329 305.524V304.159C81.7329 303.944 81.5593 303.77 81.3442 303.77H47.8806C47.6661 303.77 47.4912 303.944 47.4912 304.159V305.524C47.4912 305.739 47.6661 305.914 47.8806 305.914Z" fill="#15E7BD"/>
<path fill-rule="evenodd" clip-rule="evenodd" d="M47.8806 312.293H81.3442C81.5593 312.293 81.7329 312.119 81.7329 311.904V310.538C81.7329 310.323 81.5593 310.149 81.3442 310.149H47.8806C47.6661 310.149 47.4912 310.323 47.4912 310.538V311.904C47.4912 312.119 47.6661 312.293 47.8806 312.293Z" fill="#08003F"/>
<path fill-rule="evenodd" clip-rule="evenodd" d="M43.3789 284.607H61.9709V271.099H43.3789V284.607Z" fill="#15E7BD"/>
<path fill-rule="evenodd" clip-rule="evenodd" d="M43.3789 291.283H61.9709V286.842H43.3789V291.283Z" fill="#15E7BD"/>
<path fill-rule="evenodd" clip-rule="evenodd" d="M68.9989 273.546H36.3525L52.6764 257.223L68.9989 273.546Z" fill="#15E7BD"/>
</g>
<path fill-rule="evenodd" clip-rule="evenodd" d="M97.0325 243.4C88.4649 243.4 81.5195 250.345 81.5195 258.913C81.5195 267.48 88.4649 274.426 97.0325 274.426C105.6 274.426 112.545 267.48 112.545 258.913C112.545 250.345 105.6 243.4 97.0325 243.4Z" fill="#15E7BD"/>
<path fill-rule="evenodd" clip-rule="evenodd" d="M94.5326 264.183L93.5532 263.203L103.044 253.678C103.368 253.353 103.895 253.353 104.219 253.678L104.611 254.07C104.935 254.394 104.935 254.92 104.611 255.245L95.7079 264.183C95.3834 264.507 94.8572 264.507 94.5326 264.183Z" fill="white"/>
<path fill-rule="evenodd" clip-rule="evenodd" d="M96.6852 263.203L95.7058 264.183C95.3813 264.507 94.8551 264.507 94.5305 264.183L90.6306 260.283C90.3061 259.958 90.3061 259.432 90.6306 259.107L91.0224 258.716C91.3469 258.391 91.8731 258.391 92.1977 258.716L96.6852 263.203Z" fill="white"/>
<path fill-rule="evenodd" clip-rule="evenodd" d="M470.988 362.246C445.271 350.081 429.943 381.984 442.877 399.747C458.66 421.423 466.745 446.365 471.248 453.88C475.046 460.219 485.45 475.674 497.978 468.55C509.508 461.995 503.224 436.265 503.224 436.265C503.224 436.265 502.714 377.252 470.988 362.246Z" fill="#15E7BD"/>
<path fill-rule="evenodd" clip-rule="evenodd" d="M548.342 463.597C557.085 451.801 560.277 434.873 550.518 430.532C541.162 426.371 525.664 436.618 518.485 456.339C511.306 476.059 507.164 490.238 514.187 492.703C525.708 496.748 536.794 479.176 548.342 463.597Z" fill="#15E7BD"/>
<path fill-rule="evenodd" clip-rule="evenodd" d="M456.425 464.492C466.314 476.081 480.584 499.392 489.524 491.228C494.942 486.28 487.699 462.847 467.872 450.097C451.006 439.252 446.536 452.903 456.425 464.492Z" fill="#15E7BD"/>
<path fill-rule="evenodd" clip-rule="evenodd" d="M551.052 384.073C547.292 381.543 542.561 380.965 538.245 382.348C532.22 384.277 523.079 390.022 514.031 406.513C502.218 428.042 496.069 451.645 497.284 466.595C498.079 476.373 510.124 480.588 516.863 473.459C519.957 470.185 523.232 465.138 526.436 457.481C539.329 426.671 551.383 407.364 552.821 405.425C556.656 400.252 559.398 389.689 551.052 384.073Z" fill="#15E7BD"/>
<path fill-rule="evenodd" clip-rule="evenodd" d="M542.405 396.363C542.278 397.884 543.408 399.221 544.929 399.348C546.45 399.476 547.786 398.346 547.914 396.825C548.042 395.304 546.912 393.967 545.391 393.84C543.87 393.712 542.533 394.842 542.405 396.363Z" fill="white"/>
<path fill-rule="evenodd" clip-rule="evenodd" d="M518.927 408.164C518.8 409.685 519.929 411.022 521.451 411.15C522.972 411.277 524.308 410.148 524.436 408.626C524.564 407.105 523.434 405.769 521.913 405.641C520.392 405.513 519.055 406.643 518.927 408.164Z" fill="white"/>
<path fill-rule="evenodd" clip-rule="evenodd" d="M522.862 439.586C522.716 441.328 524.01 442.859 525.752 443.005C527.494 443.151 529.025 441.858 529.171 440.115C529.317 438.373 528.023 436.843 526.281 436.697C524.539 436.55 523.008 437.844 522.862 439.586Z" fill="white"/>
<path fill-rule="evenodd" clip-rule="evenodd" d="M450.749 392.627C450.749 395.1 452.754 397.104 455.226 397.104C457.698 397.104 459.703 395.1 459.703 392.627C459.703 390.155 457.698 388.151 455.226 388.151C452.754 388.151 450.749 390.155 450.749 392.627Z" fill="white"/>
<path fill-rule="evenodd" clip-rule="evenodd" d="M486.787 406.298C486.787 408.77 488.792 410.774 491.264 410.774C493.736 410.774 495.74 408.77 495.74 406.298C495.74 403.826 493.736 401.821 491.264 401.821C488.792 401.821 486.787 403.826 486.787 406.298Z" fill="white"/>
<path fill-rule="evenodd" clip-rule="evenodd" d="M475.116 436.685C475.116 437.719 475.953 438.556 476.987 438.556C478.02 438.556 478.858 437.719 478.858 436.685C478.858 435.652 478.02 434.814 476.987 434.814C475.953 434.814 475.116 435.652 475.116 436.685Z" fill="white"/>
<path fill-rule="evenodd" clip-rule="evenodd" d="M461.636 460.614C461.636 462.141 462.873 463.378 464.4 463.378C465.927 463.378 467.164 462.141 467.164 460.614C467.164 459.088 465.927 457.85 464.4 457.85C462.873 457.85 461.636 459.088 461.636 460.614Z" fill="white"/>
<path d="M526.197 466.745C525.94 466.499 525.532 466.509 525.286 466.766L525.168 466.894L525.079 466.993C524.917 467.174 524.729 467.39 524.518 467.642C523.919 468.356 523.253 469.21 522.536 470.202C520.495 473.029 518.455 476.401 516.553 480.314C511.124 491.48 507.868 504.744 507.868 520.055C507.868 520.411 508.157 520.7 508.513 520.7C508.868 520.7 509.157 520.411 509.157 520.055C509.157 504.946 512.366 491.874 517.712 480.878C519.581 477.034 521.582 473.725 523.581 470.956C524.238 470.047 524.85 469.259 525.403 468.593L525.506 468.47C525.663 468.283 525.805 468.117 525.933 467.972L526.095 467.791C526.155 467.725 526.196 467.68 526.219 467.656C526.465 467.399 526.455 466.991 526.197 466.745Z" fill="#08003F"/>
<path d="M477.503 471.256C477.29 470.971 476.886 470.912 476.601 471.125C476.316 471.338 476.257 471.742 476.47 472.027C478.818 475.171 480.984 478.552 482.976 482.135C487.188 489.711 490.444 497.832 492.861 505.954C493.707 508.797 494.387 511.436 494.917 513.803L495.024 514.288C495.15 514.867 495.26 515.395 495.353 515.869L495.413 516.178L495.52 516.763C495.579 517.114 495.911 517.351 496.262 517.291C496.613 517.232 496.85 516.9 496.791 516.549L496.754 516.341C496.724 516.174 496.687 515.977 496.643 515.751L496.536 515.214C496.433 514.702 496.312 514.137 496.175 513.522L496.058 513.004C495.54 510.744 494.89 508.254 494.096 505.586C491.655 497.38 488.364 489.173 484.103 481.509C482.084 477.877 479.886 474.448 477.503 471.256Z" fill="#08003F"/>
<path d="M466.24 390.843C465.993 391.079 465.975 391.465 466.192 391.722L466.221 391.754C466.233 391.767 466.26 391.796 466.302 391.841L466.46 392.014L466.552 392.116C466.83 392.425 467.152 392.797 467.516 393.233C468.56 394.482 469.724 395.984 470.98 397.741C474.571 402.77 478.166 408.826 481.521 415.917C487.109 427.723 491.461 441.188 494.098 456.325C497.301 474.706 497.831 494.786 495.209 516.579C495.167 516.932 495.419 517.253 495.772 517.296C496.126 517.338 496.447 517.086 496.489 516.733C499.126 494.815 498.592 474.609 495.368 456.104C492.71 440.85 488.323 427.274 482.687 415.366C479.297 408.204 475.664 402.081 472.029 396.992L471.747 396.6C470.626 395.047 469.578 393.697 468.624 392.549L468.505 392.406C468.163 391.996 467.855 391.64 467.585 391.337L467.512 391.255C467.428 391.161 467.352 391.078 467.286 391.006L467.151 390.862C466.905 390.605 466.497 390.596 466.24 390.843Z" fill="#08003F"/>
<path d="M522.03 429.064C521.725 428.88 521.329 428.977 521.144 429.282L521.08 429.39C521.028 429.477 520.967 429.581 520.898 429.702L520.797 429.879C520.624 430.183 520.43 430.532 520.216 430.926L520.039 431.254C519.383 432.474 518.665 433.887 517.898 435.486L517.793 435.705C515.291 440.947 512.79 447.077 510.457 454.042C503.923 473.545 499.948 495.682 499.8 520.051C499.798 520.407 500.084 520.697 500.44 520.7C500.796 520.702 501.087 520.415 501.089 520.059C501.237 495.832 505.187 473.83 511.679 454.452C513.953 447.663 516.386 441.678 518.821 436.545L518.956 436.26C519.788 434.517 520.563 432.995 521.262 431.702L521.472 431.315C521.674 430.947 521.856 430.623 522.016 430.345L522.092 430.213L522.247 429.95C522.431 429.645 522.334 429.249 522.03 429.064Z" fill="#08003F"/>
<path fill-rule="evenodd" clip-rule="evenodd" d="M472.424 552.026H528.137C531.149 552.026 533.613 549.562 533.613 546.55V505.905C533.613 502.894 531.149 500.43 528.137 500.43H472.424C469.413 500.43 466.949 502.894 466.949 505.905V546.55C466.949 549.562 469.413 552.026 472.424 552.026Z" fill="#08003F"/>
<path d="M385.195 134.658C384.683 134.658 384.213 134.376 383.973 133.923C381.586 129.424 380.862 124.233 381.824 118.498C382.736 113.064 385.12 107.368 388.912 101.565C396.618 89.7725 409.322 78.7857 424.682 70.6295C440.043 62.4733 456.26 58.1075 470.348 58.3299C477.278 58.4391 483.333 59.6549 488.343 61.9436C493.635 64.3604 497.527 67.8663 499.917 72.367C500.275 73.0411 500.018 73.8775 499.344 74.2352C498.67 74.5929 497.834 74.3364 497.476 73.6623C495.379 69.713 491.92 66.6155 487.196 64.4575C482.533 62.3291 476.851 61.1969 470.304 61.0877C456.676 60.8693 440.934 65.1314 425.979 73.0652C411.024 80.999 398.68 91.6677 391.225 103.078C387.643 108.56 385.398 113.9 384.55 118.955C383.69 124.077 384.318 128.677 386.415 132.627C386.642 133.054 386.629 133.569 386.381 133.984C386.133 134.399 385.686 134.655 385.202 134.658H385.195Z" fill="#15E7BD"/>
<path opacity="0.33" d="M488.946 99.0476C488.946 126.206 466.93 148.222 439.771 148.222C412.613 148.222 390.597 126.206 390.597 99.0476C390.597 71.8892 412.613 49.8729 439.771 49.8729C466.93 49.8729 488.946 71.8892 488.946 99.0476Z" fill="#08003F" stroke="#08003F" stroke-width="0.433333"/>
<path d="M472.982 111.037C475.891 103.279 477.347 100.369 472.982 99.0491C468.618 97.7295 462.313 106.188 456.491 102.107C450.668 98.0273 458.43 89.2161 456.005 84.1722C453.58 79.1283 450.67 78.5474 452.126 69.0163C452.865 64.18 457.341 58.8221 461.572 54.7191C454.792 51.3792 447.334 49.6468 439.776 49.6563C437.802 49.6563 435.83 49.7734 433.87 50.0068C437.966 58.9839 430.534 65.5306 424.974 74.6142C418.184 85.7142 420.609 92.6101 434.672 95.2817C448.735 97.9532 447.28 114.917 434.672 119.274C422.064 123.632 425.943 105.704 418.184 105.616C410.426 105.528 402.667 103.764 402.182 96.4975C401.912 92.3769 396.641 88.5232 392.132 85.9595C390.965 90.2247 390.376 94.6271 390.38 99.0491C390.38 126.327 412.493 148.44 439.772 148.44C452.42 148.457 464.589 143.605 473.755 134.89C470.28 126.838 470.85 116.724 472.982 111.037Z" fill="#08003F"/>
<path d="M402.182 96.4976C402.667 103.764 410.426 105.529 418.184 105.616C425.943 105.704 422.063 123.646 434.672 119.281C447.28 114.917 448.735 97.9534 434.672 95.2885C420.609 92.6237 418.184 85.7184 424.974 74.6211C430.528 65.5375 437.961 58.9853 433.87 50.0137C413.762 52.4022 397.364 66.872 392.132 85.9597C396.643 88.5234 401.907 92.3771 402.182 96.4976Z" fill="#4E5C93"/>
<path d="M402.182 96.4976C402.667 103.764 410.426 105.529 418.184 105.616C425.943 105.704 422.063 123.646 434.672 119.281C447.28 114.917 448.735 97.9534 434.672 95.2885C420.609 92.6237 418.184 85.7184 424.974 74.6211C430.528 65.5375 437.961 58.9853 433.87 50.0137C413.762 52.4022 397.364 66.872 392.132 85.9597C396.643 88.5234 401.907 92.3771 402.182 96.4976Z" fill="#F1F1F1"/>
<path d="M489.163 99.0487C489.163 79.5971 477.918 62.7725 461.576 54.7188C457.345 58.8218 452.869 64.1797 452.13 69.016C450.674 78.5471 453.585 79.1253 456.009 84.1719C458.434 89.2184 450.674 98.027 456.491 102.107C462.307 106.187 468.622 97.7278 472.982 99.0487C477.343 100.37 475.891 103.278 472.982 111.037C470.85 116.724 470.28 126.837 473.755 134.895C483.606 125.577 489.18 112.609 489.163 99.0487Z" fill="#15E7BD"/>
<path d="M458.563 135.821C457.927 135.823 457.372 135.391 457.219 134.774C457.065 134.158 457.351 133.516 457.913 133.218C472.875 125.278 485.211 114.617 492.666 103.213C496.254 97.7321 498.493 92.3849 499.341 87.3343C500.201 82.2123 499.574 77.6119 497.477 73.6625C497.119 72.9884 497.375 72.152 498.049 71.7943C498.724 71.4366 499.56 71.6931 499.918 72.3671C502.306 76.8665 503.03 82.0559 502.074 87.7926C501.162 93.226 498.777 98.9223 494.987 104.724C487.281 116.518 474.577 127.503 459.215 135.66C459.014 135.767 458.79 135.822 458.563 135.821Z" fill="#08003F"/>
<path d="M414.844 154.262C420.876 154.262 425.766 149.372 425.766 143.34C425.766 137.307 420.876 132.417 414.844 132.417C408.812 132.417 403.922 137.307 403.922 143.34C403.922 149.372 408.812 154.262 414.844 154.262Z" fill="#15E7BD"/>
</svg>
