<svg width="1032" height="866" viewBox="0 0 1032 866" fill="none" xmlns="http://www.w3.org/2000/svg">
<rect y="735" width="910" height="20" fill="#F1F1F1"/>
<path fill-rule="evenodd" clip-rule="evenodd" d="M442.401 233.334C442.401 215.944 429.466 203.887 413.51 203.887C397.553 203.887 384.618 215.475 384.618 233.334C384.618 238.471 386.903 246.211 390.735 251.113H436.284C440.117 246.211 442.401 239.41 442.401 233.334Z" fill="#08003F"/>
<path fill-rule="evenodd" clip-rule="evenodd" d="M439.609 232.797C439.609 218.383 427.924 206.698 413.51 206.698C399.096 206.698 387.411 218.383 387.411 232.797C387.411 238.854 389.474 244.429 392.937 248.858H434.083C437.545 244.429 439.609 238.854 439.609 232.797Z" fill="#E4EBF7"/>
<path fill-rule="evenodd" clip-rule="evenodd" d="M439.609 232.797C439.609 218.383 427.924 206.698 413.51 206.698C399.096 206.698 387.411 218.383 387.411 232.797C387.411 238.854 389.474 244.429 392.937 248.858H434.083C437.545 244.429 439.609 238.854 439.609 232.797Z" fill="#15E7BD"/>
<path d="M413.51 216.348C423.185 216.348 431.028 224.191 431.028 233.866C431.028 237.828 429.708 241.59 427.318 244.647C427.215 244.779 427.023 244.803 426.891 244.699C426.758 244.595 426.735 244.404 426.838 244.271C429.145 241.321 430.418 237.691 430.418 233.866C430.418 224.528 422.848 216.958 413.51 216.958C404.171 216.958 396.601 224.528 396.601 233.866C396.601 237.691 397.874 241.321 400.181 244.271C400.285 244.404 400.261 244.595 400.129 244.699C399.996 244.803 399.805 244.779 399.701 244.647C397.311 241.59 395.992 237.828 395.992 233.866C395.992 224.191 403.835 216.348 413.51 216.348Z" fill="#F1F1F1"/>
<path fill-rule="evenodd" clip-rule="evenodd" d="M413.532 214.197C412.918 214.197 412.421 213.699 412.421 213.086V210.863C412.421 210.249 412.918 209.752 413.532 209.752C414.146 209.752 414.643 210.249 414.643 210.863V213.086C414.643 213.699 414.146 214.197 413.532 214.197Z" fill="#08003F"/>
<path fill-rule="evenodd" clip-rule="evenodd" d="M399 220.195C398.566 220.629 397.863 220.629 397.429 220.195L395.857 218.624C395.423 218.19 395.423 217.486 395.857 217.052C396.291 216.619 396.995 216.619 397.429 217.052L399 218.624C399.434 219.058 399.434 219.761 399 220.195Z" fill="#08003F"/>
<path fill-rule="evenodd" clip-rule="evenodd" d="M393.854 233.334C393.854 233.948 393.357 234.445 392.743 234.445H390.52C389.907 234.445 389.409 233.948 389.409 233.334C389.409 232.72 389.907 232.223 390.52 232.223H392.743C393.357 232.223 393.854 232.72 393.854 233.334Z" fill="#08003F"/>
<path fill-rule="evenodd" clip-rule="evenodd" d="M433.166 233.334C433.166 232.72 433.663 232.223 434.277 232.223H436.499C437.113 232.223 437.61 232.72 437.61 233.334C437.61 233.948 437.113 234.445 436.499 234.445H434.277C433.663 234.445 433.166 233.948 433.166 233.334Z" fill="#08003F"/>
<path fill-rule="evenodd" clip-rule="evenodd" d="M428.019 218.624L429.591 217.052C430.025 216.619 430.728 216.619 431.162 217.052C431.596 217.486 431.596 218.19 431.162 218.624L429.591 220.195C429.157 220.629 428.453 220.629 428.019 220.195C427.585 219.761 427.585 219.058 428.019 218.624Z" fill="#08003F"/>
<path fill-rule="evenodd" clip-rule="evenodd" d="M411.107 242.625L413.108 225.578C413.142 225.253 413.612 225.243 413.659 225.566L416.1 242.269L411.107 242.625Z" fill="#08003F"/>
<path fill-rule="evenodd" clip-rule="evenodd" d="M413.51 245.766C411.055 245.766 409.065 243.776 409.065 241.321C409.065 238.866 411.055 236.876 413.51 236.876C415.965 236.876 417.955 238.866 417.955 241.321C417.955 243.776 415.965 245.766 413.51 245.766Z" fill="#08003F"/>
<path fill-rule="evenodd" clip-rule="evenodd" d="M415.732 241.321C415.732 242.548 414.737 243.543 413.51 243.543C412.282 243.543 411.287 242.548 411.287 241.321C411.287 240.093 412.282 239.098 413.51 239.098C414.737 239.098 415.732 240.093 415.732 241.321Z" fill="#15E7BD"/>
<path d="M257.748 153.803H234.939C232.419 153.803 230.377 155.846 230.377 158.365C230.377 160.885 232.419 162.927 234.939 162.927H257.748C260.268 162.927 262.31 160.885 262.31 158.365C262.31 155.846 260.268 153.803 257.748 153.803Z" fill="#08003F"/>
<path d="M118.156 80.2422L196.163 158.249H502.902V272.059" stroke="#08003F" stroke-width="1.14048"/>
<path d="M507.513 194.86C507.513 192.341 505.471 190.298 502.952 190.298C500.432 190.298 498.39 192.341 498.39 194.86C498.39 197.38 500.432 199.422 502.952 199.422C505.471 199.422 507.513 197.38 507.513 194.86Z" fill="#08003F"/>
<path d="M507.513 158.365C507.513 155.846 505.471 153.803 502.952 153.803C500.432 153.803 498.39 155.846 498.39 158.365C498.39 160.885 500.432 162.927 502.952 162.927C505.471 162.927 507.513 160.885 507.513 158.365Z" fill="#15E7BD"/>
<path d="M200.724 158.365C200.724 155.846 198.682 153.803 196.163 153.803C193.643 153.803 191.601 155.846 191.601 158.365C191.601 160.885 193.643 162.927 196.163 162.927C198.682 162.927 200.724 160.885 200.724 158.365Z" fill="#15E7BD"/>
<path d="M277.137 158.365C277.137 155.846 275.094 153.803 272.575 153.803C270.055 153.803 268.013 155.846 268.013 158.365C268.013 160.885 270.055 162.927 272.575 162.927C275.094 162.927 277.137 160.885 277.137 158.365Z" fill="#08003F"/>
<path d="M658.183 26.6919V108.671L621.49 145.364V343.977H574.802" stroke="#08003F" stroke-width="1.14048"/>
<path d="M626.124 343.123C626.124 340.603 624.081 338.561 621.562 338.561C619.042 338.561 617 340.603 617 343.123C617 345.642 619.042 347.685 621.562 347.685C624.081 347.685 626.124 345.642 626.124 343.123Z" fill="#F1F1F1"/>
<path fill-rule="evenodd" clip-rule="evenodd" d="M263.322 282.359C263.322 282.275 263.325 282.191 263.325 282.107C263.325 236.442 226.475 199.422 181.017 199.422C147.313 199.422 118.346 219.777 105.617 248.914C102.389 248.355 99.0708 248.061 95.6837 248.061C63.5963 248.061 37.584 274.192 37.584 306.426C37.584 338.661 63.5963 364.792 95.6837 364.792H267.865C290.593 364.792 309.018 346.282 309.018 323.449C309.018 300.616 290.593 282.107 267.865 282.107C266.329 282.107 264.814 282.194 263.322 282.359Z" fill="url(#paint0_linear_17_3611)"/>
<path fill-rule="evenodd" clip-rule="evenodd" d="M702.612 338.404C702.612 338.32 702.609 338.236 702.609 338.152C702.609 292.486 739.46 255.467 784.917 255.467C818.621 255.467 847.589 275.822 860.317 304.959C863.546 304.4 866.864 304.106 870.251 304.106C902.338 304.106 928.351 330.237 928.351 362.471C928.351 394.706 902.338 420.837 870.251 420.837H698.07C675.341 420.837 656.916 402.327 656.916 379.494C656.916 356.661 675.341 338.152 698.07 338.152C699.605 338.152 701.121 338.239 702.612 338.404Z" fill="url(#paint1_linear_17_3611)"/>
<path d="M621.562 145.82V0" stroke="#08003F" stroke-width="1.14048"/>
<path d="M626.124 145.82C626.124 143.3 624.081 141.258 621.562 141.258C619.042 141.258 617 143.3 617 145.82C617 148.339 619.042 150.382 621.562 150.382C624.081 150.382 626.124 148.339 626.124 145.82Z" fill="#15E7BD"/>
<path d="M626.124 203.984C626.124 201.465 624.081 199.422 621.562 199.422C619.042 199.422 617 201.465 617 203.984C617 206.504 619.042 208.546 621.562 208.546C624.081 208.546 626.124 206.504 626.124 203.984Z" fill="#08003F"/>
<path d="M626.124 273.842C626.124 271.322 624.081 269.28 621.562 269.28C619.042 269.28 617 271.322 617 273.842C617 276.361 619.042 278.404 621.562 278.404C624.081 278.404 626.124 276.361 626.124 273.842Z" fill="#08003F"/>
<path d="M221.517 429.961L194.851 456.627H0" stroke="#08003F" stroke-width="1.14048"/>
<path d="M198.443 457.332C198.443 454.813 196.401 452.771 193.881 452.771C191.362 452.771 189.319 454.813 189.319 457.332C189.319 459.852 191.362 461.894 193.881 461.894C196.401 461.894 198.443 459.852 198.443 457.332Z" fill="#08003F"/>
<path d="M626.124 108.184C626.124 105.665 624.081 103.622 621.562 103.622C619.042 103.622 617 105.665 617 108.184C617 110.703 619.042 112.746 621.562 112.746C624.081 112.746 626.124 110.703 626.124 108.184Z" fill="#08003F"/>
<path d="M624.984 54.5816C624.984 52.692 623.452 51.1602 621.562 51.1602C619.672 51.1602 618.141 52.692 618.141 54.5816V94.4984C618.141 96.388 619.672 97.9198 621.562 97.9198C623.452 97.9198 624.984 96.388 624.984 94.4984V54.5816Z" fill="#08003F"/>
<path d="M624.984 235.405C624.984 233.516 623.452 231.984 621.562 231.984C619.672 231.984 618.141 233.516 618.141 235.405V245.41C618.141 247.3 619.672 248.832 621.562 248.832C623.452 248.832 624.984 247.3 624.984 245.41V235.405Z" fill="#08003F"/>
<path d="M626.123 204.555H671.742" stroke="#08003F" stroke-width="1.14048" stroke-linecap="square"/>
<path d="M573.661 395.585L818.294 396.155" stroke="#08003F" stroke-width="1.14048" stroke-linecap="square"/>
<path d="M639.81 396.155L667.22 423.565H753.858" stroke="#08003F" stroke-width="1.14048"/>
<path d="M440.93 392.474H408.615L397.446 403.642" stroke="#08003F" stroke-width="1.14048"/>
<path d="M352.409 153.803H291.963C289.444 153.803 287.401 155.846 287.401 158.365C287.401 160.885 289.444 162.927 291.963 162.927H352.409C354.928 162.927 356.971 160.885 356.971 158.365C356.971 155.846 354.928 153.803 352.409 153.803Z" fill="#15E7BD"/>
<path d="M412.853 392.325C412.853 389.806 410.811 387.763 408.291 387.763C405.772 387.763 403.729 389.806 403.729 392.325C403.729 394.845 405.772 396.887 408.291 396.887C410.811 396.887 412.853 394.845 412.853 392.325Z" fill="#15E7BD"/>
<path d="M644.371 395.585C644.371 393.065 642.328 391.023 639.809 391.023C637.289 391.023 635.247 393.065 635.247 395.585C635.247 398.104 637.289 400.147 639.809 400.147C642.328 400.147 644.371 398.104 644.371 395.585Z" fill="#15E7BD"/>
<path d="M731.327 687.748V696.052H686.809V687.748H731.327Z" fill="#15E7BD" stroke="#08003F"/>
<path d="M721.043 592.746H730.506L742.614 741.945H733.151L721.043 592.746ZM687.629 592.746H697.092L684.984 741.945H675.521L687.629 592.746Z" fill="#F1F1F1" stroke="#08003F"/>
<path d="M682.724 601.522C677.6 601.522 673.447 597.368 673.447 592.246C673.447 587.123 677.6 582.969 682.724 582.969H736.368C741.49 582.969 745.644 587.123 745.644 592.246C745.644 597.368 741.49 601.522 736.368 601.522H682.724Z" fill="#F1F1F1" stroke="#08003F"/>
<path fill-rule="evenodd" clip-rule="evenodd" d="M589.975 526.285L603.691 548.066L664.164 512.536C671.187 508.115 673.294 498.838 668.873 491.815C664.45 484.792 655.174 482.684 648.151 487.105L589.975 526.285Z" fill="#08003F"/>
<path d="M647.85 486.658C648.097 486.492 648.432 486.558 648.599 486.804C648.75 487.029 648.709 487.326 648.515 487.503L648.452 487.553L590.388 526.641L603.544 547.534L654.805 516.84C655.039 516.7 655.336 516.758 655.502 516.966L655.544 517.026C655.684 517.26 655.626 517.558 655.419 517.723L655.358 517.765L603.646 548.73C603.418 548.867 603.128 548.815 602.96 548.618L602.913 548.555L589.197 526.773C589.056 526.549 589.1 526.26 589.291 526.087L589.352 526.039L647.85 486.658Z" fill="#15E7BD"/>
<path d="M599.909 521.732C600.138 521.588 600.434 521.638 600.605 521.837L600.653 521.901L612.298 540.397C612.457 540.648 612.381 540.981 612.129 541.14C611.9 541.284 611.605 541.235 611.433 541.035L611.386 540.971L599.74 522.476C599.582 522.224 599.657 521.891 599.909 521.732Z" fill="#A3B5D6"/>
<path fill-rule="evenodd" clip-rule="evenodd" d="M652.157 514.249C643.995 512.754 638.59 504.924 640.086 496.761L651.511 434.392C653.007 426.229 660.837 420.824 669 422.319C677.162 423.815 682.568 431.644 681.072 439.808L669.646 502.177C668.15 510.34 660.32 515.744 652.157 514.249Z" fill="#08003F"/>
<path d="M718.639 408.855L718.658 408.968L718.757 409.028L718.757 409.028L718.757 409.028L718.758 409.028L718.76 409.029L718.77 409.035C718.779 409.041 718.792 409.049 718.81 409.06C718.846 409.083 718.899 409.117 718.966 409.161C719.1 409.25 719.29 409.382 719.511 409.552C719.955 409.891 720.521 410.377 721.018 410.968C721.516 411.561 721.933 412.245 722.1 412.982C722.265 413.711 722.188 414.502 721.677 415.332L721.889 415.463L721.677 415.332C719.957 418.117 716.329 419.968 712.02 420.976C707.722 421.981 702.801 422.135 698.572 421.574C696.457 421.294 694.522 420.836 692.928 420.221C691.33 419.604 690.095 418.838 689.357 417.954C688.63 417.083 688.382 416.097 688.744 414.986C689.114 413.855 690.126 412.565 692 411.14L692.105 411.06L692.098 410.928C691.949 408.197 691.54 403.621 691.17 399.732C690.984 397.786 690.808 396.011 690.678 394.722C690.613 394.078 690.56 393.555 690.523 393.193L690.489 392.863L715.219 388.607L718.639 408.855Z" fill="#F1F1F1" stroke="#08003F" stroke-width="0.5"/>
<path d="M715.105 376.107L715.08 375.373L715.08 375.372L715.08 375.37L715.079 375.359L715.077 375.314C715.075 375.273 715.071 375.212 715.065 375.133C715.053 374.973 715.032 374.739 714.995 374.442C714.922 373.848 714.787 373.004 714.539 372.008C714.045 370.016 713.103 367.423 711.319 365.011C709.537 362.602 706.912 360.369 703.037 359.09C699.162 357.81 694.021 357.48 687.199 358.905C679.806 360.981 677.217 368.267 676.5 375.158C676.143 378.594 676.256 381.9 676.458 384.35C676.559 385.575 676.682 386.584 676.781 387.286C676.83 387.637 676.872 387.912 676.903 388.098C676.918 388.191 676.93 388.262 676.938 388.31L676.948 388.363L676.95 388.377L676.951 388.38L676.951 388.38C676.951 388.381 676.951 388.381 676.705 388.426L676.951 388.381L676.955 388.407L676.955 388.433L676.955 388.433L676.955 388.433L676.955 388.434L676.955 388.436L676.954 388.447L676.954 388.492C676.953 388.533 676.953 388.593 676.953 388.673C676.955 388.831 676.96 389.065 676.975 389.362C677.005 389.956 677.076 390.803 677.238 391.811C677.563 393.829 678.253 396.483 679.71 399.043C682.937 404.713 689.013 405.805 696.85 405.197C703.942 403.735 708.585 400.803 711.454 398.243C712.89 396.961 713.882 395.772 714.514 394.905C714.83 394.472 715.056 394.12 715.202 393.877C715.275 393.755 715.329 393.661 715.363 393.598C715.381 393.567 715.393 393.543 715.401 393.527L715.41 393.51L715.412 393.507L715.412 393.506L715.412 393.506L715.413 393.506L715.475 393.382L715.612 393.369L715.613 393.369L715.613 393.369L715.613 393.369L715.617 393.369L715.636 393.367C715.654 393.365 715.68 393.361 715.714 393.357C715.783 393.347 715.886 393.332 716.016 393.308C716.276 393.26 716.646 393.178 717.082 393.041C717.955 392.767 719.085 392.279 720.123 391.418C721.158 390.56 722.106 389.33 722.617 387.563C723.129 385.795 723.209 383.472 722.483 380.425C721.786 377.586 720.985 375.889 720.195 374.928C719.415 373.979 718.657 373.757 718.006 373.833C717.332 373.913 716.717 374.318 716.258 374.727C716.031 374.93 715.848 375.127 715.722 375.274C715.66 375.347 715.612 375.407 715.579 375.449C715.563 375.469 715.551 375.485 715.543 375.496L715.535 375.507L715.533 375.51L715.533 375.51L715.105 376.107ZM715.105 376.107L715.533 375.51L715.105 376.107Z" fill="#F1F1F1" stroke="#08003F" stroke-width="0.5"/>
<path fill-rule="evenodd" clip-rule="evenodd" d="M708.862 361.903C709.704 367.572 714.981 371.485 720.651 370.644C726.319 369.802 730.232 364.525 729.391 358.856C728.551 353.187 723.272 349.274 717.603 350.115C711.934 350.957 708.021 356.234 708.862 361.903Z" fill="#08003F"/>
<path fill-rule="evenodd" clip-rule="evenodd" d="M676.957 389.202C676.957 389.202 672.718 383.858 669.66 377.19C666.602 370.521 677.797 354.615 679.429 353.224C681.06 351.833 681.792 350.575 694.823 353.236C731.747 349.257 728.031 384.18 728.031 384.18C728.031 384.18 732.765 386.638 731.526 395.322C729.839 404.073 718.391 406.069 718.391 406.069L716.06 393.117C716.06 393.117 719.986 392.833 722.241 387.902C724.497 382.973 721.16 377.884 719.295 377.702C717.515 376.738 713.601 377.933 714.314 382.737C714.673 385.156 709.265 380.418 706.095 371.477C692.915 370.907 688.382 362.464 688.382 362.464C688.382 362.464 689.2 371.073 691.757 374.37C684.713 373.347 680.581 370.285 681.139 366.296C673.996 370.802 676.957 389.202 676.957 389.202Z" fill="#08003F"/>
<path d="M689.18 385.433C689.308 385.247 689.563 385.2 689.748 385.328C689.913 385.442 689.969 385.656 689.889 385.832L689.853 385.896L687.735 388.968L690.826 390.96C690.994 391.068 691.056 391.28 690.982 391.459L690.948 391.524C690.839 391.693 690.627 391.755 690.448 391.681L690.383 391.647L686.938 389.427C686.764 389.314 686.704 389.092 686.789 388.91L686.823 388.851L689.18 385.433Z" fill="#08003F"/>
<path d="M696.42 392.932C696.692 392.811 697.011 392.933 697.132 393.205C697.253 393.478 697.13 393.796 696.858 393.917L696.455 394.088C696.384 394.118 696.306 394.15 696.221 394.184C695.731 394.383 695.204 394.581 694.662 394.766C694.074 394.968 693.501 395.141 692.958 395.28C691.926 395.542 691.041 395.666 690.335 395.616C690.038 395.595 689.814 395.337 689.835 395.04C689.857 394.743 690.114 394.519 690.411 394.541C690.98 394.581 691.762 394.471 692.692 394.235C693.205 394.104 693.75 393.939 694.313 393.746C694.705 393.612 695.089 393.471 695.456 393.328L695.817 393.185C696.101 393.07 696.309 392.981 696.42 392.932Z" fill="#08003F"/>
<path fill-rule="evenodd" clip-rule="evenodd" d="M690.362 380.564C690.362 380.564 688.878 379.864 687.811 380.943L690.362 380.564Z" fill="white"/>
<path d="M690.362 380.564C690.362 380.564 688.878 379.864 687.811 380.943" stroke="#F1F1F1" stroke-linecap="round" stroke-linejoin="round"/>
<path d="M705.055 402.328C705.265 402.244 705.503 402.345 705.587 402.554C705.671 402.764 705.57 403.002 705.361 403.086C704.212 403.549 702.878 403.973 701.393 404.361C699.598 404.831 697.678 405.224 695.758 405.545C695.221 405.635 694.714 405.714 694.246 405.782L693.333 405.908C693.278 405.915 693.232 405.921 693.195 405.926C692.971 405.953 692.767 405.793 692.74 405.569C692.713 405.345 692.873 405.141 693.097 405.114L693.789 405.022C694.342 404.945 694.959 404.85 695.623 404.739C697.521 404.422 699.418 404.033 701.186 403.571C702.64 403.191 703.943 402.776 705.055 402.328Z" fill="#08003F"/>
<path fill-rule="evenodd" clip-rule="evenodd" d="M695.207 383.111C695.387 384.327 696.072 385.233 696.735 385.135C697.398 385.036 697.79 383.97 697.609 382.754C697.429 381.538 696.744 380.632 696.081 380.73C695.417 380.829 695.027 381.895 695.207 383.111Z" fill="#08003F"/>
<path fill-rule="evenodd" clip-rule="evenodd" d="M681.044 385.388C681.225 386.604 681.909 387.511 682.572 387.411C683.235 387.313 683.627 386.247 683.447 385.031C683.266 383.816 682.582 382.909 681.919 383.007C681.254 383.106 680.864 384.172 681.044 385.388Z" fill="#08003F"/>
<path fill-rule="evenodd" clip-rule="evenodd" d="M696.961 582.177L725.76 565.396C727.761 564.23 728.991 562.088 728.99 559.772L731.918 527.81C731.918 527.81 690.12 504.511 669.083 514.15C662.894 516.985 662.007 549.086 662.007 549.086C656.096 552.89 662.818 563.108 663.829 564.466C666.928 568.631 676.005 571.369 690.494 581.2C692.46 582.535 694.956 583.452 696.961 582.177Z" fill="#15E7BD"/>
<path d="M691.14 537.416C691.309 537.446 691.427 537.593 691.427 537.758L691.422 537.821L690.375 543.618C690.34 543.808 690.159 543.934 689.969 543.899C689.801 543.869 689.683 543.722 689.683 543.557L689.688 543.494L690.735 537.697C690.765 537.529 690.912 537.41 691.078 537.41L691.14 537.416Z" fill="#08003F"/>
<path fill-rule="evenodd" clip-rule="evenodd" d="M637.206 586.737L711.077 585.395C726.361 584.958 738.503 573.672 736.846 561.442C735.412 550.856 724.054 543.488 710.829 544.567L636.515 550.62C636.515 550.62 615.302 551.406 615.846 569.413C616.378 586.925 637.206 586.737 637.206 586.737Z" fill="#15E7BD"/>
<path fill-rule="evenodd" clip-rule="evenodd" d="M687.687 411.643L688.905 411.615C688.006 418.933 715.605 420 719.87 411.506C719.978 411.29 720.063 411.088 720.135 410.893L723.497 410.815L724.634 533.274C713.098 527.811 703.173 522.623 673.636 524.168C663.589 422.378 687.687 411.643 687.687 411.643Z" fill="#15E7BD"/>
<path d="M663.633 627.98L663.633 627.98C668.408 626.102 674.033 628.41 675.766 632.923C678.819 640.883 683.683 653.072 688.892 664.178C690.772 668.187 692.752 671.545 694.399 674.338C694.801 675.019 695.182 675.666 695.538 676.281C696.448 677.854 697.183 679.21 697.652 680.381C698.122 681.555 698.308 682.509 698.159 683.291L698.405 683.338L698.159 683.291C697.998 684.138 697.534 684.769 696.876 685.324C696.282 685.826 695.545 686.253 694.744 686.718C694.646 686.775 694.547 686.832 694.448 686.89C692.633 687.948 690.604 689.227 689.647 691.891C689.623 691.957 689.6 692.022 689.577 692.087C688.68 694.585 687.915 696.719 686.037 698.556C684.112 700.441 680.988 702.037 675.276 703.316C673.607 703.69 672.295 703.895 671.281 703.955C670.261 704.015 669.568 703.928 669.12 703.741C668.689 703.561 668.49 703.293 668.427 702.95C668.36 702.582 668.445 702.097 668.671 701.494C669.095 700.362 669.964 698.946 670.934 697.364C670.996 697.263 671.059 697.161 671.122 697.058C672.159 695.366 673.274 693.513 674.01 691.689C676.582 685.315 677.618 680.984 677.628 677.438C677.638 673.883 676.617 671.141 675.131 667.954C669.061 654.934 663.487 645.297 659.646 639.097C657.089 634.968 658.919 629.834 663.633 627.98Z" fill="#F1F1F1" stroke="#08003F" stroke-width="0.5"/>
<path fill-rule="evenodd" clip-rule="evenodd" d="M655.293 566.346L691.573 656.863C692.44 659.026 691.459 661.396 689.259 662.448L673.73 669.874C671.115 671.126 667.812 670.052 666.577 667.55L623.677 580.634C623.677 580.634 615.779 566.093 633.051 559.498C649.162 553.346 655.293 566.346 655.293 566.346Z" fill="#15E7BD"/>
<path d="M672.985 693.601C673.016 693.562 673.042 693.529 673.062 693.503C673.087 693.499 673.116 693.495 673.151 693.49C673.272 693.471 673.453 693.445 673.687 693.412C674.155 693.347 674.84 693.257 675.7 693.16C677.422 692.967 679.848 692.745 682.668 692.631C684.324 692.564 685.616 691.609 686.815 690.021C688.01 688.438 689.145 686.182 690.479 683.435C692.178 679.939 693.159 677.48 693.716 675.892C693.994 675.097 694.166 674.521 694.269 674.141C694.276 674.118 694.282 674.095 694.287 674.073C694.392 674.204 694.52 674.367 694.665 674.558C695.087 675.113 695.659 675.904 696.255 676.85C697.449 678.747 698.725 681.241 699.104 683.678L699.104 683.678C699.218 684.411 699.072 684.899 698.74 685.35C698.425 685.778 697.946 686.172 697.312 686.693C697.242 686.751 697.169 686.811 697.095 686.873C695.623 688.088 693.571 689.887 691.522 693.803L691.743 693.919L691.522 693.803C689.505 697.659 687.545 700.114 685.149 701.873C682.749 703.635 679.893 704.714 676.052 705.785C672.226 706.851 669.779 706.474 668.529 705.469C667.308 704.487 667.137 702.818 668.072 701.026C669.031 699.187 670.293 697.288 671.318 695.845C671.829 695.125 672.281 694.52 672.604 694.095C672.766 693.883 672.896 693.715 672.985 693.601Z" fill="#08003F" stroke="#15E7BD" stroke-width="0.5"/>
<path fill-rule="evenodd" clip-rule="evenodd" d="M694.205 660.769L668.747 672.944C668.208 673.202 667.528 672.988 667.262 672.477L661.854 662.109C661.61 661.641 661.804 661.091 662.298 660.856L689.353 647.916C689.946 647.633 690.691 647.922 690.894 648.514L694.705 659.646C694.856 660.088 694.648 660.557 694.205 660.769Z" fill="#08003F"/>
<path d="M614.333 680.217L614.572 680.289L614.333 680.217C612.942 684.807 612.098 688.905 611.396 692.316C611.225 693.146 611.062 693.936 610.902 694.682C610.493 696.591 610.101 698.208 609.631 699.5C609.159 700.795 608.619 701.735 607.929 702.317C606.506 703.516 604.793 703.328 602.715 703.099C602.608 703.087 602.499 703.075 602.389 703.064C600.194 702.826 597.685 702.644 595.034 704.303C594.968 704.344 594.901 704.386 594.836 704.427C592.338 705.989 590.196 707.329 587.389 707.717C584.511 708.114 580.901 707.512 575.477 705.022C573.891 704.293 572.709 703.645 571.867 703.061C571.02 702.474 570.538 701.968 570.321 701.532C570.114 701.117 570.142 700.759 570.348 700.412C570.565 700.045 570.989 699.68 571.603 699.307C572.754 698.606 574.46 697.944 576.358 697.208C576.48 697.16 576.603 697.112 576.727 697.064C578.759 696.274 580.965 695.398 582.85 694.31L582.725 694.093L582.85 694.31C589.45 690.499 593.367 687.467 595.911 684.463C598.461 681.453 599.62 678.486 600.732 674.843L600.493 674.77C605.031 659.895 607.54 648.208 608.95 640.534L609.196 640.58C609.196 640.58 609.196 640.58 609.196 640.58C610.144 635.43 615.307 632.201 620.36 633.58L620.426 633.339L620.36 633.58C625.46 634.972 628.255 640.447 626.38 645.39C623.084 654.076 618.185 667.501 614.333 680.217Z" fill="#F1F1F1" stroke="#08003F" stroke-width="0.5"/>
<path d="M580.819 695.252C580.783 695.262 580.736 695.274 580.681 695.289C580.529 695.33 580.306 695.391 580.026 695.471C579.466 695.629 578.675 695.861 577.753 696.153C575.909 696.739 573.549 697.564 571.47 698.529L580.819 695.252ZM580.819 695.252C580.841 695.264 580.868 695.279 580.898 695.296C581.007 695.356 581.169 695.447 581.377 695.566C581.794 695.804 582.398 696.157 583.147 696.614C584.644 697.528 586.719 698.861 589.027 700.532C590.388 701.517 592.091 701.511 594.166 700.914C596.241 700.318 598.75 699.111 601.774 697.61C605.621 695.7 608.157 694.224 609.733 693.222C610.522 692.722 611.07 692.34 611.423 692.082C611.449 692.063 611.474 692.045 611.498 692.027C611.486 692.202 611.471 692.417 611.449 692.664C611.385 693.402 611.268 694.435 611.06 695.614C610.643 697.977 609.861 700.905 608.408 703.224L608.62 703.357L608.408 703.224C607.965 703.931 607.488 704.263 606.891 704.443C606.332 704.611 605.667 704.646 604.794 704.692C604.696 704.697 604.596 704.703 604.493 704.708C602.46 704.82 599.556 705.064 595.137 707.108L595.137 707.108C590.776 709.127 587.463 709.989 584.305 709.984C581.146 709.979 578.117 709.105 574.318 707.608L574.318 707.608C570.534 706.117 568.882 704.267 568.617 702.635C568.356 701.025 569.43 699.477 571.47 698.529L580.819 695.252Z" fill="#08003F" stroke="#15E7BD" stroke-width="0.5"/>
<path fill-rule="evenodd" clip-rule="evenodd" d="M648.418 570.432L620.741 672.925C620.08 675.376 617.734 676.981 615.21 676.71L597.399 674.796C594.399 674.472 592.315 671.655 592.885 668.692L612.688 565.778C612.688 565.778 615.396 548.157 634.137 551.8C651.619 555.198 648.418 570.432 648.418 570.432Z" fill="#15E7BD"/>
<path fill-rule="evenodd" clip-rule="evenodd" d="M621.209 678.201L591.866 676.975C591.245 676.949 590.775 676.405 590.838 675.787L592.142 663.235C592.2 662.668 592.689 662.245 593.258 662.269L624.441 663.573C625.124 663.601 625.608 664.251 625.441 664.913L622.299 677.387C622.174 677.883 621.719 678.223 621.209 678.201Z" fill="#08003F"/>
<path d="M691.02 421.255C691.117 421.049 691.364 420.96 691.57 421.058C692.136 421.324 692.709 421.569 693.29 421.792C699.585 424.213 706.322 424.057 712.694 422.335C713.588 422.093 714.405 421.836 715.135 421.578L715.443 421.467C715.654 421.39 715.845 421.317 716.015 421.249L716.428 421.079C716.636 420.986 716.881 421.079 716.974 421.288C717.067 421.496 716.973 421.741 716.765 421.834L716.566 421.918L716.492 421.949C716.273 422.038 716.018 422.137 715.727 422.244C714.9 422.547 713.955 422.85 712.909 423.133C706.383 424.897 699.476 425.057 692.994 422.564C692.394 422.334 691.802 422.081 691.218 421.806C691.011 421.708 690.923 421.462 691.02 421.255Z" fill="#08003F"/>
<path fill-rule="evenodd" clip-rule="evenodd" d="M692.456 409.423C692.456 409.423 681.846 433.203 681.832 496.544C681.817 559.977 664.224 547.541 664.224 547.541L633.263 553.005C633.263 553.005 654.092 543.519 654.902 511.267C656.377 452.53 657.399 436.491 662.36 423.421C667.885 420.348 673.737 418.257 682.273 413.778C684.347 412.691 692.456 409.423 692.456 409.423Z" fill="#08003F"/>
<path d="M661.221 443.794C661.493 443.81 661.707 444.025 661.727 444.29L661.727 444.389L661.614 446.559L661.52 448.569C661.417 450.882 661.314 453.485 661.217 456.351L661.12 459.344C660.6 476.404 660.518 495.094 661.123 514.133C661.132 514.431 660.899 514.68 660.601 514.69C660.304 514.699 660.055 514.465 660.045 514.167C659.44 495.104 659.522 476.392 660.043 459.312L660.139 456.315C660.236 453.445 660.339 450.838 660.443 448.52L660.594 445.372L660.652 444.301C660.669 444.004 660.924 443.777 661.221 443.794Z" fill="#15E7BD"/>
<path d="M691.315 408.632C691.584 408.505 691.905 408.62 692.032 408.889C692.149 409.136 692.062 409.427 691.84 409.571L691.776 409.607L682.122 414.172L682.032 414.533L682 414.665C681.851 415.283 681.684 416.032 681.503 416.912L681.341 417.726C680.88 420.083 680.421 422.881 679.99 426.128L679.835 427.321C677.346 446.948 676.872 473.286 679.636 506.82C679.661 507.117 679.44 507.378 679.144 507.402C678.847 507.426 678.586 507.206 678.562 506.909C675.763 472.958 676.277 446.349 678.843 426.583L678.921 425.986C679.406 422.332 679.927 419.24 680.447 416.695L680.582 416.051C680.67 415.637 680.754 415.257 680.835 414.909L680.991 414.251L681.095 413.842C681.12 413.746 681.138 413.681 681.147 413.647C681.182 413.522 681.261 413.414 681.368 413.343L681.436 413.305L691.315 408.632Z" fill="#15E7BD"/>
<path fill-rule="evenodd" clip-rule="evenodd" d="M752.256 427.94C743.757 421.262 733.676 415.619 728.233 412.584C724.746 410.64 721.939 408.013 719.199 407.125C701.559 486.205 706.488 577.283 709.968 622.748C730.675 625.306 752.467 610 752.467 610C756.768 613.915 746.083 548.645 746.793 504.436C747.344 470.021 754.166 429.441 752.256 427.94Z" fill="#08003F"/>
<path d="M718.986 406.548C719.138 406.325 719.429 406.252 719.666 406.366L719.735 406.406L728.27 412.212C728.407 412.305 728.493 412.456 728.504 412.621L728.527 413.1L728.532 413.22C728.63 416.067 728.5 420.088 727.965 425.153C727.194 432.453 725.709 440.487 723.349 449.138L723.101 450.035C721.827 454.611 715.35 476.452 713.849 482.208C711.554 491.011 710.05 498.807 709.081 507.531C709.048 507.827 708.781 508.041 708.485 508.008C708.19 507.975 707.976 507.708 708.009 507.412C708.944 498.999 710.373 491.443 712.522 483.037L712.91 481.541C714.588 475.227 720.82 454.208 722.063 449.746C724.55 440.812 726.101 432.533 726.893 425.04C727.388 420.36 727.532 416.589 727.47 413.832L727.442 412.953L719.129 407.297C718.905 407.145 718.832 406.854 718.946 406.618L718.986 406.548Z" fill="#15E7BD"/>
<path d="M747.945 531.221C748.24 531.186 748.508 531.398 748.543 531.694C748.574 531.965 748.399 532.212 748.142 532.278L748.07 532.292L731.314 534.256L732.197 572.397C732.264 575.342 734.864 577.568 737.764 577.208L737.928 577.185L750.883 575.152C751.177 575.106 751.453 575.307 751.499 575.601C751.542 575.871 751.376 576.125 751.122 576.201L751.05 576.217L738.096 578.25C734.547 578.808 731.314 576.167 731.126 572.607L731.119 572.422L730.225 533.79C730.219 533.538 730.389 533.318 730.628 533.256L730.701 533.242L747.945 531.221Z" fill="#15E7BD"/>
<path d="M640.967 536.971L700.268 557.521L639.345 564.699L590.587 547.909L640.967 536.971Z" fill="#F1F1F1" stroke="#08003F"/>
<path fill-rule="evenodd" clip-rule="evenodd" d="M637.097 560.737L682.999 555.328L639.415 539.809L600.377 548.092L637.097 560.737Z" fill="#08003F"/>
<path d="M638.657 565.302L701.972 558.345L701.849 560.554L639.34 567.803L638.657 565.302Z" fill="#08003F" stroke="#08003F"/>
<path d="M630.594 542.33C630.643 542.21 630.77 542.145 630.893 542.168L630.946 542.184L666.322 556.771C666.46 556.828 666.525 556.985 666.469 557.123C666.419 557.243 666.292 557.309 666.169 557.285L666.117 557.269L630.74 542.682C630.602 542.626 630.537 542.468 630.594 542.33Z" fill="#F1F1F1"/>
<path d="M635.43 540.612C635.477 540.491 635.603 540.423 635.727 540.445L635.779 540.46L675.366 556.012C675.504 556.066 675.573 556.222 675.518 556.361C675.471 556.482 675.345 556.55 675.221 556.528L675.169 556.513L635.582 540.961C635.444 540.907 635.375 540.751 635.43 540.612Z" fill="#F1F1F1"/>
<path d="M629.922 545.573C629.974 545.453 630.101 545.389 630.224 545.415L630.276 545.431L659.964 558.157C660.101 558.216 660.165 558.374 660.106 558.511C660.055 558.631 659.927 558.694 659.804 558.669L659.752 558.653L630.064 545.927C629.927 545.868 629.864 545.709 629.922 545.573Z" fill="#F1F1F1"/>
<path d="M621.63 546.068C621.682 545.949 621.809 545.885 621.932 545.91L621.984 545.927L651.673 558.654C651.809 558.713 651.873 558.871 651.814 559.008C651.763 559.128 651.635 559.191 651.512 559.166L651.46 559.149L621.772 546.422C621.635 546.363 621.572 546.205 621.63 546.068Z" fill="#F1F1F1"/>
<path d="M613.951 547.064C614.002 546.944 614.13 546.881 614.252 546.906L614.305 546.922L643.993 559.65C644.13 559.708 644.193 559.867 644.134 560.003C644.083 560.123 643.955 560.187 643.833 560.161L643.78 560.145L614.092 547.418C613.955 547.359 613.892 547.201 613.951 547.064Z" fill="#F1F1F1"/>
<path d="M675.616 553.056C675.765 553.043 675.895 553.154 675.907 553.302C675.918 553.432 675.835 553.548 675.715 553.583L675.661 553.593L636.434 556.857C636.286 556.87 636.156 556.759 636.144 556.611C636.133 556.481 636.216 556.365 636.336 556.33L636.39 556.32L675.616 553.056Z" fill="#F1F1F1"/>
<path d="M667.079 549.658C667.227 549.646 667.358 549.756 667.37 549.904C667.381 550.034 667.298 550.15 667.178 550.185L667.124 550.195L627.897 553.461C627.749 553.473 627.619 553.363 627.606 553.215C627.596 553.085 627.679 552.969 627.799 552.934L627.853 552.924L667.079 549.658Z" fill="#F1F1F1"/>
<path d="M656.152 546.398C656.3 546.377 656.436 546.48 656.457 546.627C656.475 546.756 656.399 546.877 656.281 546.919L656.228 546.932L616.142 552.62C615.995 552.641 615.859 552.539 615.838 552.391C615.819 552.262 615.896 552.142 616.014 552.099L616.067 552.086L656.152 546.398Z" fill="#F1F1F1"/>
<path d="M648.601 542.637C648.748 542.615 648.885 542.716 648.908 542.863C648.927 542.992 648.852 543.114 648.735 543.157L648.682 543.17L613.139 548.56C612.992 548.582 612.855 548.481 612.832 548.334C612.813 548.205 612.888 548.084 613.005 548.04L613.058 548.027L648.601 542.637Z" fill="#F1F1F1"/>
<path d="M623.474 481.394L638.625 568.114L636.126 568.231L588.485 551.159L572.268 469.04L623.474 481.394Z" fill="#F1F1F1" stroke="#08003F" stroke-width="0.5"/>
<path fill-rule="evenodd" clip-rule="evenodd" d="M635.987 568.484L585.557 550.437C585.095 550.27 584.755 549.876 584.66 549.395L568.888 469.973C568.69 468.975 569.594 468.108 570.583 468.348L619.662 480.259C620.2 480.391 620.61 480.827 620.706 481.373L635.987 568.484Z" fill="#08003F"/>
<path fill-rule="evenodd" clip-rule="evenodd" d="M740.39 518.666L741.221 518.738C749.713 519.458 757.183 513.157 757.904 504.665L763.058 443.916C763.779 435.422 757.479 427.953 748.986 427.233L748.154 427.162C739.661 426.441 732.192 432.742 731.471 441.234L726.316 501.983C725.596 510.477 731.896 517.946 740.39 518.666Z" fill="#08003F"/>
<path fill-rule="evenodd" clip-rule="evenodd" d="M675.718 529.587C670.595 533.184 654.739 530.826 654.739 530.826L644.168 536.056C642.535 536.71 642.144 535.62 641.335 535.62C639.156 535.62 639.156 533.332 639.156 533.332C638.406 532.976 637.195 533.55 636.868 531.479C636.868 531.479 635.343 531.37 635.233 529.518C635.176 528.539 645.109 514.409 645.109 514.409L659.933 514.813C659.933 514.813 681.586 515.219 684.015 520.076C686.443 524.933 675.718 529.587 675.718 529.587Z" fill="#F1F1F1"/>
<path d="M653.623 521.833C653.834 521.758 654.067 521.868 654.142 522.079C654.21 522.27 654.128 522.477 653.956 522.572L653.896 522.599L647.888 524.744L640.53 532.751C640.482 532.797 640.409 532.88 640.33 532.989L640.27 533.076C640.065 533.388 639.977 533.687 640.044 533.931C640.157 534.343 640.719 534.714 641.926 534.956C642.146 535 642.289 535.214 642.245 535.434C642.201 535.654 641.987 535.797 641.766 535.753C640.291 535.457 639.472 534.917 639.26 534.146C639.119 533.631 639.27 533.117 639.591 532.629C639.705 532.456 639.819 532.318 639.902 532.231L639.947 532.184L647.358 524.12C647.388 524.088 647.423 524.06 647.461 524.039L647.521 524.012L653.623 521.833Z" fill="#08003F"/>
<path d="M649.988 518.363C650.19 518.266 650.433 518.352 650.53 518.554C650.617 518.736 650.556 518.951 650.395 519.063L650.338 519.096L645.627 521.344L638.58 530.123L638.527 530.183L638.444 530.281C638.337 530.413 638.23 530.558 638.131 530.713C637.906 531.061 637.757 531.4 637.713 531.697C637.622 532.317 638.001 532.734 639.221 532.93C639.442 532.966 639.593 533.174 639.557 533.396C639.522 533.618 639.313 533.768 639.091 533.733C637.466 533.471 636.747 532.681 636.909 531.579C636.972 531.149 637.166 530.71 637.447 530.273C637.525 530.152 637.607 530.036 637.689 529.927L637.858 529.715L637.967 529.59L645.051 520.764C645.077 520.732 645.107 520.704 645.14 520.682L645.193 520.651L649.988 518.363Z" fill="#08003F"/>
<path d="M657.391 525.521C657.612 525.481 657.824 525.628 657.864 525.848C657.9 526.047 657.785 526.238 657.601 526.304L657.537 526.321L650.466 527.606L642.799 535.061L642.798 535.074C642.795 535.12 642.799 535.167 642.811 535.212L642.836 535.277C642.951 535.508 643.332 535.671 644.158 535.649C644.843 535.632 646.195 535.021 647.953 533.976C648.314 533.762 648.688 533.532 649.073 533.288C649.904 532.761 650.746 532.196 651.555 531.631L652.609 530.879C652.666 530.837 652.734 530.81 652.805 530.802L653.209 530.763L653.623 530.727C653.841 530.71 654.076 530.693 654.328 530.677C656.042 530.565 657.929 530.519 659.897 530.575L660.727 530.604L662.08 530.667C668.663 530.983 672.447 530.594 676.957 528.411C677.159 528.314 677.403 528.398 677.5 528.6C677.598 528.802 677.514 529.045 677.312 529.143C672.849 531.302 669.09 531.762 662.901 531.517L660.693 531.417L660.524 531.41C658.349 531.323 656.259 531.365 654.38 531.488L653.688 531.538L653.002 531.599L652.431 532.008C652.3 532.101 652.163 532.197 652.02 532.297C651.202 532.869 650.35 533.44 649.508 533.974C649.117 534.222 648.736 534.456 648.369 534.675L647.907 534.945C646.249 535.898 644.985 536.441 644.18 536.462C643.069 536.492 642.386 536.199 642.108 535.638C641.975 535.371 641.96 535.097 642.01 534.846L642.03 534.759C642.034 534.747 642.037 534.736 642.041 534.727C642.054 534.686 642.074 534.648 642.1 534.614L642.142 534.566L649.989 526.938C650.032 526.895 650.084 526.864 650.141 526.844L650.199 526.829L657.391 525.521Z" fill="#08003F"/>
<path d="M645.122 514.003L672.695 514.812C672.919 514.818 673.096 515.005 673.089 515.23C673.083 515.432 672.931 515.595 672.737 515.621L672.671 515.624L645.325 514.821L635.592 529.709L635.558 529.779C635.545 529.808 635.53 529.844 635.515 529.884L635.492 529.947C635.423 530.141 635.385 530.332 635.391 530.497C635.405 530.949 635.746 531.179 636.83 531.075C637.053 531.053 637.252 531.217 637.273 531.44C637.295 531.664 637.131 531.862 636.908 531.884C635.396 532.029 634.609 531.497 634.578 530.523C634.569 530.243 634.626 529.958 634.725 529.677C634.766 529.561 634.807 529.464 634.85 529.378L634.893 529.296L644.77 514.187C644.834 514.088 644.938 514.023 645.052 514.007L645.122 514.003Z" fill="#08003F"/>
<path fill-rule="evenodd" clip-rule="evenodd" d="M671.008 509.666L677.498 534.574L745.881 518.983C753.912 516.891 758.726 508.684 756.634 500.654C754.541 492.623 746.334 487.81 738.304 489.902L671.008 509.666Z" fill="#08003F"/>
<path d="M738.152 489.385C738.438 489.301 738.737 489.465 738.821 489.75C738.898 490.012 738.767 490.286 738.525 490.394L738.456 490.419L671.293 510.131L677.519 534.024L735.659 520.257C735.925 520.194 736.191 520.34 736.286 520.587L736.308 520.657C736.371 520.923 736.225 521.189 735.978 521.285L735.908 521.306L677.254 535.195C676.993 535.257 676.73 535.117 676.631 534.874L676.608 534.806L670.118 509.897C670.051 509.639 670.183 509.374 670.421 509.269L670.488 509.244L738.152 489.385Z" fill="#15E7BD"/>
<path d="M681.853 508.33C682.118 508.261 682.387 508.401 682.488 508.646L682.511 508.716L688.021 529.865C688.096 530.153 687.924 530.448 687.636 530.523C687.372 530.592 687.102 530.452 687.001 530.207L686.978 530.137L681.468 508.988C681.393 508.7 681.565 508.405 681.853 508.33Z" fill="#15E7BD"/>
<path d="M732.283 453.51C732.554 453.541 732.755 453.769 732.76 454.034L732.757 454.107L728.508 491.141C728.474 491.437 728.207 491.649 727.911 491.615C727.64 491.584 727.439 491.357 727.434 491.091L727.437 491.018L731.686 453.984C731.717 453.713 731.944 453.512 732.21 453.507L732.283 453.51Z" fill="#15E7BD"/>
<path fill-rule="evenodd" clip-rule="evenodd" d="M514.599 455.617H512.27C509.067 455.617 506.446 453.003 506.446 449.806V403.327C506.446 400.131 509.067 397.517 512.27 397.517H514.599C517.801 397.517 520.422 400.131 520.422 403.327V449.806C520.422 453.003 517.801 455.617 514.599 455.617Z" fill="#08003F"/>
<path fill-rule="evenodd" clip-rule="evenodd" d="M583.803 457.353C583.803 461.204 580.675 464.325 576.815 464.325H451.037C447.178 464.325 444.049 461.204 444.049 457.353C444.049 453.503 447.178 450.38 451.037 450.38H576.815C580.675 450.38 583.803 453.503 583.803 457.353Z" fill="#08003F"/>
<path fill-rule="evenodd" clip-rule="evenodd" d="M493.564 469.131C491.643 469.131 490.072 467.562 490.072 465.645V449.06C490.072 447.143 491.643 445.575 493.564 445.575H533.305C535.226 445.575 536.799 447.143 536.799 449.06V465.645C536.799 467.562 535.226 469.131 533.305 469.131H493.564Z" fill="#15E7BD"/>
<path d="M495.875 449.01V465.697" stroke="#08003F" stroke-width="6" stroke-linecap="round" stroke-linejoin="round"/>
<path d="M530.414 449.01V465.697" stroke="#08003F" stroke-width="6" stroke-linecap="round" stroke-linejoin="round"/>
<path fill-rule="evenodd" clip-rule="evenodd" d="M448.41 424.429H579.441V271.715H448.41V424.429Z" fill="#08003F"/>
<path fill-rule="evenodd" clip-rule="evenodd" d="M447.822 425.746C444.542 425.746 441.859 423.069 441.859 419.798V384.631C441.859 381.359 444.542 378.682 447.822 378.682H580.031C583.31 378.682 585.994 381.359 585.994 384.631V419.798C585.994 423.069 583.31 425.746 580.031 425.746H447.822Z" fill="#15E7BD"/>
<path fill-rule="evenodd" clip-rule="evenodd" d="M447.822 315.87C444.542 315.87 441.859 313.192 441.859 309.92V274.754C441.859 271.483 444.542 268.804 447.822 268.804H580.031C583.31 268.804 585.994 271.483 585.994 274.754V309.92C585.994 313.192 583.31 315.87 580.031 315.87H447.822Z" fill="#15E7BD"/>
<path fill-rule="evenodd" clip-rule="evenodd" d="M458.566 296.799C456.097 296.799 454.095 294.8 454.095 292.337C454.095 289.873 456.097 287.875 458.566 287.875C461.037 287.875 463.038 289.873 463.038 292.337C463.038 294.8 461.037 296.799 458.566 296.799Z" fill="#F1F1F1"/>
<path fill-rule="evenodd" clip-rule="evenodd" d="M467.877 292.337C467.877 289.873 469.879 287.875 472.35 287.875C474.819 287.875 476.822 289.873 476.822 292.337C476.822 294.8 474.819 296.799 472.35 296.799C469.879 296.799 467.877 294.8 467.877 292.337Z" fill="#F1F1F1"/>
<path fill-rule="evenodd" clip-rule="evenodd" d="M486.134 296.799C483.663 296.799 481.661 294.8 481.661 292.337C481.661 289.873 483.663 287.875 486.134 287.875C488.603 287.875 490.605 289.873 490.605 292.337C490.605 294.8 488.603 296.799 486.134 296.799Z" fill="#F1F1F1"/>
<path fill-rule="evenodd" clip-rule="evenodd" d="M533.596 296.799C532.915 296.799 532.363 296.248 532.363 295.568V289.106C532.363 288.426 532.915 287.875 533.596 287.875H575.849C576.531 287.875 577.083 288.426 577.083 289.106V295.568C577.083 296.248 576.531 296.799 575.849 296.799H533.596Z" fill="#08003F"/>
<path fill-rule="evenodd" clip-rule="evenodd" d="M447.822 370.808C444.542 370.808 441.859 368.131 441.859 364.858V329.693C441.859 326.421 444.542 323.743 447.822 323.743H580.031C583.31 323.743 585.994 326.421 585.994 329.693V364.858C585.994 368.131 583.31 370.808 580.031 370.808H447.822Z" fill="#15E7BD"/>
<path fill-rule="evenodd" clip-rule="evenodd" d="M458.566 353.332C456.097 353.332 454.095 351.334 454.095 348.869C454.095 346.406 456.097 344.408 458.566 344.408C461.037 344.408 463.038 346.406 463.038 348.869C463.038 351.334 461.037 353.332 458.566 353.332Z" fill="#F1F1F1"/>
<path fill-rule="evenodd" clip-rule="evenodd" d="M472.35 353.332C469.879 353.332 467.877 351.334 467.877 348.869C467.877 346.406 469.879 344.408 472.35 344.408C474.819 344.408 476.822 346.406 476.822 348.869C476.822 351.334 474.819 353.332 472.35 353.332Z" fill="#08003F"/>
<path fill-rule="evenodd" clip-rule="evenodd" d="M486.134 353.332C483.663 353.332 481.661 351.334 481.661 348.869C481.661 346.406 483.663 344.408 486.134 344.408C488.603 344.408 490.605 346.406 490.605 348.869C490.605 351.334 488.603 353.332 486.134 353.332Z" fill="#08003F"/>
<path fill-rule="evenodd" clip-rule="evenodd" d="M575.592 353.332H533.854C533.03 353.332 532.363 352.666 532.363 351.844V345.894C532.363 345.074 533.03 344.408 533.854 344.408H575.592C576.416 344.408 577.083 345.074 577.083 345.894V351.844C577.083 352.666 576.416 353.332 575.592 353.332Z" fill="#F1F1F1"/>
<path fill-rule="evenodd" clip-rule="evenodd" d="M454.095 402.543C454.095 400.079 456.097 398.082 458.566 398.082C461.037 398.082 463.038 400.079 463.038 402.543C463.038 405.007 461.037 407.006 458.566 407.006C456.097 407.006 454.095 405.007 454.095 402.543Z" fill="#F1F1F1"/>
<path fill-rule="evenodd" clip-rule="evenodd" d="M472.35 407.006C469.879 407.006 467.877 405.007 467.877 402.543C467.877 400.079 469.879 398.082 472.35 398.082C474.819 398.082 476.822 400.079 476.822 402.543C476.822 405.007 474.819 407.006 472.35 407.006Z" fill="#F1F1F1"/>
<path fill-rule="evenodd" clip-rule="evenodd" d="M486.134 407.006C483.663 407.006 481.661 405.007 481.661 402.543C481.661 400.079 483.663 398.082 486.134 398.082C488.603 398.082 490.605 400.079 490.605 402.543C490.605 405.007 488.603 407.006 486.134 407.006Z" fill="#F1F1F1"/>
<path fill-rule="evenodd" clip-rule="evenodd" d="M575.592 407.006H533.854C533.03 407.006 532.363 406.339 532.363 405.518V399.568C532.363 398.747 533.03 398.082 533.854 398.082H575.592C576.416 398.082 577.083 398.747 577.083 399.568V405.518C577.083 406.339 576.416 407.006 575.592 407.006Z" fill="#08003F"/>
<path d="M249.967 699.316L249.96 699.337L249.957 699.359L250.204 699.394C249.957 699.359 249.957 699.36 249.957 699.36L249.956 699.361L249.956 699.363L249.955 699.371L249.952 699.398C249.949 699.422 249.945 699.456 249.941 699.5C249.933 699.589 249.924 699.72 249.917 699.888C249.904 700.225 249.905 700.716 249.955 701.337C250.057 702.579 250.361 704.344 251.166 706.449C252.779 710.661 256.398 716.218 264.399 721.672L264.399 721.672C267.343 723.678 269.604 726.759 270.44 729.517C270.859 730.896 270.914 732.169 270.549 733.181C270.189 734.179 269.411 734.954 268.087 735.335C267.176 735.597 266.018 735.599 264.653 735.381C263.291 735.163 261.742 734.731 260.058 734.141C256.691 732.963 252.813 731.168 248.864 729.254C246.124 727.926 244.299 726.605 243.002 725.345C241.705 724.087 240.928 722.882 240.288 721.773C240.159 721.55 240.035 721.33 239.913 721.112C239.433 720.257 238.98 719.451 238.376 718.755C237.604 717.867 236.586 717.153 234.948 716.666C233.116 716.122 229.859 714.776 227.086 713.249C225.699 712.486 224.445 711.684 223.554 710.921C223.108 710.539 222.762 710.175 222.534 709.838C222.305 709.498 222.213 709.209 222.232 708.971C222.407 706.779 222.757 705.564 223.516 704.175C223.9 703.473 224.39 702.725 225.023 701.781C225.127 701.625 225.236 701.464 225.348 701.297C225.914 700.455 226.579 699.464 227.361 698.244C233.219 689.1 238.034 683.25 241.841 679.955C243.744 678.307 245.383 677.31 246.762 676.853C248.137 676.397 249.237 676.482 250.097 676.973C250.962 677.467 251.629 678.399 252.078 679.726C252.527 681.053 252.75 682.752 252.742 684.743C252.728 688.723 251.794 693.82 249.967 699.316Z" fill="#08003F" stroke="#15E7BD" stroke-width="0.5"/>
<path fill-rule="evenodd" clip-rule="evenodd" d="M231.128 690.333L272.541 593.646C275.894 585.816 286.338 583.038 295.324 587.583C304.001 591.971 307.897 601.479 303.982 608.714L253.836 701.396C253.836 701.396 242.564 701.351 231.128 690.333Z" fill="#15E7BD"/>
<path fill-rule="evenodd" clip-rule="evenodd" d="M291.232 608.175C300.406 608.64 308.276 602.373 309.052 593.986L317.685 500.489C318.687 489.635 309.65 480.112 297.778 479.51C285.905 478.907 275.948 487.467 275.844 498.367L274.945 592.256C274.864 600.678 282.059 607.71 291.232 608.175Z" fill="#15E7BD"/>
<path d="M304.732 322.025L303.976 349.381C303.757 357.32 296.854 363.417 288.936 362.664C281.128 361.921 275.526 354.816 276.634 347.064L280.338 321.15L304.732 322.025Z" fill="#F1F1F1" stroke="#08003F" stroke-width="0.5"/>
<path d="M310.675 330.241L310.675 330.241C310.028 330.216 309.59 330.038 309.296 329.772C309.001 329.505 308.823 329.125 308.747 328.643C308.594 327.665 308.873 326.346 309.341 324.99C309.806 323.644 310.442 322.3 310.964 321.29C311.224 320.786 311.456 320.366 311.622 320.073C311.705 319.926 311.771 319.811 311.817 319.733C311.838 319.698 311.854 319.67 311.866 319.651L311.879 319.64C311.908 319.616 311.952 319.58 312.009 319.536C312.123 319.447 312.287 319.323 312.488 319.182C312.893 318.899 313.44 318.554 314.024 318.295C314.613 318.034 315.211 317.873 315.725 317.927C316.216 317.978 316.651 318.227 316.946 318.845C317.243 319.468 317.273 320.494 317.05 321.727C316.829 322.947 316.369 324.322 315.739 325.609C315.108 326.897 314.314 328.084 313.434 328.934C312.551 329.788 311.609 330.278 310.675 330.241Z" fill="#F1F1F1" stroke="#08003F" stroke-width="0.5"/>
<path d="M285.628 341.044L285.628 341.044L285.629 341.045L285.632 341.048L285.647 341.062C285.66 341.075 285.68 341.094 285.707 341.119C285.762 341.17 285.844 341.244 285.954 341.337C286.172 341.523 286.499 341.784 286.926 342.082C287.781 342.677 289.038 343.415 290.642 343.985C293.845 345.123 298.446 345.595 304.025 342.892L304.134 343.117L304.025 342.892C305.998 341.936 307.654 340.186 309.023 337.878C310.392 335.57 311.466 332.72 312.283 329.589C313.915 323.326 314.506 315.975 314.381 309.687C314.311 306.152 313.562 303.393 312.025 301.179C310.488 298.965 308.143 297.271 304.831 295.901C301.53 294.536 295.254 293.383 289.552 295.134C286.706 296.008 284.007 297.603 281.885 300.254C279.763 302.905 278.205 306.627 277.669 311.775C276.471 323.287 278.473 330.604 280.756 335.035C281.898 337.251 283.113 338.749 284.037 339.69C284.499 340.161 284.889 340.493 285.162 340.706C285.298 340.812 285.405 340.889 285.477 340.938C285.513 340.963 285.54 340.981 285.558 340.993L285.577 341.005L285.582 341.008L285.582 341.008L285.628 341.044ZM285.628 341.044L285.628 341.044L285.607 341.023L285.582 341.008L285.628 341.044Z" fill="#F1F1F1" stroke="#08003F" stroke-width="0.5"/>
<path d="M301.873 312.018C301.945 311.821 302.163 311.719 302.36 311.79C302.536 311.853 302.637 312.032 302.607 312.21L302.59 312.276L301.074 316.474L302.257 328.451C302.279 328.667 302.116 328.852 301.908 328.868L301.844 328.867L296.861 328.421C296.651 328.402 296.497 328.218 296.516 328.009C296.533 327.82 296.684 327.677 296.867 327.663L296.929 327.664L301.454 328.069L300.308 316.464C300.305 316.426 300.307 316.388 300.314 316.352L300.329 316.297L301.873 312.018Z" fill="#08003F"/>
<path d="M292.464 330.923C292.565 330.647 292.87 330.506 293.146 330.606L293.309 330.661C293.381 330.684 293.469 330.712 293.574 330.743L293.684 330.775C294.14 330.906 294.674 331.038 295.283 331.161C297.145 331.538 299.268 331.754 301.604 331.724C301.897 331.72 302.139 331.955 302.142 332.248C302.146 332.541 301.911 332.782 301.617 332.786C299.203 332.817 297.006 332.594 295.071 332.202C294.541 332.094 294.062 331.98 293.637 331.865L293.389 331.795C293.096 331.711 292.891 331.644 292.781 331.604C292.505 331.503 292.363 331.198 292.464 330.923Z" fill="#08003F"/>
<path fill-rule="evenodd" clip-rule="evenodd" d="M278.905 320.879L275.649 312.483C275.649 312.483 274.228 300.702 277.393 296.009C282.304 288.725 291.775 289.874 297.612 288.379C303.449 286.885 303.584 284.987 305.838 285.528C308.091 286.069 316.327 293.109 316.679 299.65C316.988 305.402 314.11 319.691 314.11 319.691C314.11 319.691 313.785 306.752 312.888 303.255C308.609 300.95 292.397 299.249 285.419 300.663C285.419 300.663 284.399 304.954 283.756 307.985C279.873 310.216 278.905 320.879 278.905 320.879Z" fill="#08003F"/>
<path d="M287.191 342.329C287.285 342.142 287.514 342.066 287.702 342.16C293.79 345.216 298.745 345.259 302.535 343.515C303.07 343.269 303.53 343.006 303.914 342.745L304.089 342.622C304.218 342.528 304.308 342.456 304.357 342.412C304.514 342.271 304.754 342.284 304.895 342.44C305.035 342.596 305.023 342.837 304.866 342.977C304.773 343.061 304.598 343.199 304.343 343.373C303.925 343.658 303.428 343.941 302.854 344.206C298.855 346.045 293.657 346.001 287.36 342.84C287.172 342.745 287.097 342.517 287.191 342.329Z" fill="#08003F"/>
<path d="M297.929 315.571L301.606 315.784C302.026 315.808 302.346 316.167 302.322 316.587C302.299 316.978 301.984 317.283 301.601 317.302L301.518 317.302L297.842 317.089C297.422 317.065 297.101 316.706 297.125 316.286C297.148 315.895 297.463 315.59 297.846 315.571L297.929 315.571Z" fill="#15E7BD"/>
<path d="M297.953 317.958C298.646 317.718 299.356 317.596 300.046 317.663C300.87 317.743 301.592 318.091 302.135 318.746C302.403 319.07 302.357 319.549 302.033 319.817C301.732 320.065 301.297 320.044 301.021 319.78L300.961 319.715C300.69 319.388 300.341 319.22 299.9 319.177C299.459 319.134 298.955 319.221 298.451 319.395L298.251 319.469C298.098 319.528 297.982 319.582 297.915 319.618C297.544 319.816 297.083 319.676 296.885 319.305C296.687 318.935 296.827 318.474 297.198 318.276L297.359 318.196C297.513 318.124 297.714 318.041 297.953 317.958Z" fill="#15E7BD"/>
<path d="M296.11 335.061L299.104 335.273C299.313 335.288 299.471 335.47 299.456 335.679C299.443 335.868 299.294 336.014 299.112 336.031L299.05 336.031L296.056 335.819C295.846 335.804 295.688 335.622 295.703 335.413C295.717 335.224 295.865 335.078 296.048 335.061L296.11 335.061Z" fill="#08003F"/>
<path d="M278.313 314.118L284.335 314.579C284.754 314.611 285.068 314.977 285.036 315.395C285.006 315.786 284.685 316.085 284.301 316.097L284.218 316.095L278.197 315.634C277.778 315.602 277.464 315.237 277.496 314.818C277.526 314.427 277.847 314.128 278.23 314.116L278.313 314.118Z" fill="#15E7BD"/>
<path fill-rule="evenodd" clip-rule="evenodd" d="M284.812 314.181L296.312 314.995C297.116 315.053 297.72 315.746 297.658 316.548C297.541 318.043 297.286 320.436 296.751 322.461C296.12 324.851 293.833 326.179 291.358 326.119C288.268 326.042 285.503 325.85 284.219 324.155C282.262 321.571 283.069 317.604 283.264 315.486C283.337 314.71 284.032 314.126 284.812 314.181Z" fill="#F1F1F1"/>
<path d="M284.83 313.928C283.912 313.863 283.097 314.55 283.012 315.462L282.963 315.93L282.866 316.769C282.697 318.257 282.637 319.279 282.708 320.348C282.812 321.93 283.218 323.253 284.017 324.308C285.182 325.846 287.118 326.267 291.352 326.372C294.054 326.438 296.358 324.942 296.997 322.526C297.452 320.803 297.743 318.722 297.912 316.568C297.984 315.626 297.275 314.81 296.33 314.743L284.83 313.928ZM284.794 314.433L296.294 315.248C296.959 315.295 297.457 315.868 297.406 316.529C297.24 318.655 296.952 320.71 296.506 322.397C295.932 324.571 293.844 325.926 291.365 325.866L290.811 325.85C287.125 325.726 285.405 325.301 284.422 324.002C283.69 323.036 283.313 321.806 283.214 320.315C283.156 319.437 283.189 318.584 283.303 317.449L283.495 315.73C283.504 315.652 283.511 315.579 283.517 315.509C283.577 314.871 284.151 314.388 284.794 314.433Z" fill="#15E7BD"/>
<path fill-rule="evenodd" clip-rule="evenodd" d="M302.759 315.324L315.78 316.247C316.127 318.181 315.141 325.496 312.794 326.913C309.69 328.266 303.691 327.16 302.866 325.498C301.611 322.977 301.411 318.323 301.577 316.337C301.628 315.732 302.153 315.281 302.759 315.324Z" fill="#F1F1F1"/>
<path d="M302.777 315.072C302.033 315.018 301.386 315.573 301.323 316.316C301.088 319.133 301.551 323.428 302.638 325.611C303.577 327.502 309.813 328.489 312.895 327.145C315.021 325.865 316.534 319.016 316.03 316.203C316.009 316.089 315.914 316.003 315.798 315.995L302.777 315.072ZM315.56 316.486L315.575 316.6C315.892 319.406 314.464 325.609 312.663 326.696C309.829 327.929 303.888 326.989 303.092 325.386C302.054 323.301 301.601 319.091 301.829 316.359C301.868 315.891 302.274 315.544 302.741 315.577L315.56 316.486Z" fill="#15E7BD"/>
<path d="M283.632 313.415L297.861 314.797C298.28 314.838 298.586 315.21 298.546 315.628C298.508 316.018 298.181 316.31 297.797 316.315L297.714 316.311L283.485 314.928C283.066 314.888 282.76 314.516 282.801 314.098C282.839 313.708 283.165 313.415 283.549 313.411L283.632 313.415Z" fill="#15E7BD"/>
<path d="M301.925 314.989L315.91 315.782C316.329 315.806 316.65 316.165 316.627 316.584C316.604 316.975 316.289 317.281 315.906 317.3L315.823 317.3L301.838 316.507C301.419 316.483 301.098 316.124 301.121 315.705C301.144 315.313 301.458 315.008 301.842 314.988L301.925 314.989Z" fill="#15E7BD"/>
<path d="M277.53 314.392L277.53 314.392C277.999 314.996 278.409 316.12 278.709 317.508C279.007 318.885 279.189 320.483 279.225 322.005C279.26 323.529 279.149 324.959 278.869 326.003C278.729 326.526 278.551 326.935 278.342 327.21C278.143 327.471 277.93 327.596 277.699 327.61C274.384 327.018 272.397 324.165 271.596 321.086C271.195 319.547 271.098 317.972 271.277 316.634C271.456 315.286 271.909 314.22 272.567 313.65L272.567 313.65C273.41 312.919 274.339 312.718 275.207 312.884C276.081 313.052 276.912 313.597 277.53 314.392Z" fill="#F1F1F1" stroke="#08003F" stroke-width="0.5"/>
<path d="M274.167 315.031C274.263 314.844 274.492 314.769 274.679 314.865L274.799 314.93C274.869 314.971 274.956 315.024 275.055 315.089C275.327 315.269 275.599 315.481 275.853 315.727C276.874 316.712 277.335 317.929 276.879 319.326C276.712 319.836 276.445 320.099 275.981 320.325L275.77 320.421C275.361 320.601 275.255 320.697 275.191 321.022C275.065 321.662 275.328 322.168 275.874 322.58C276.042 322.707 276.223 322.813 276.404 322.9L276.519 322.952C276.569 322.973 276.608 322.988 276.632 322.996C276.832 323.064 276.938 323.28 276.871 323.479C276.804 323.677 276.587 323.784 276.388 323.717C276.137 323.632 275.777 323.46 275.415 323.187C274.657 322.615 274.254 321.839 274.444 320.875C274.559 320.293 274.813 320.031 275.345 319.779L275.551 319.687C275.912 319.526 276.053 319.402 276.155 319.09C276.508 318.008 276.155 317.076 275.324 316.274C275.105 316.063 274.87 315.879 274.635 315.723L274.485 315.628C274.419 315.588 274.367 315.559 274.334 315.542C274.147 315.447 274.072 315.218 274.167 315.031Z" fill="#08003F"/>
<path d="M285.705 309.574C285.875 309.013 286.468 308.695 287.031 308.864C289.47 309.599 292.949 310.209 295.564 310.18C296.151 310.173 296.633 310.643 296.639 311.23C296.646 311.816 296.175 312.297 295.588 312.304C292.729 312.335 289.046 311.69 286.416 310.898C285.854 310.728 285.536 310.136 285.705 309.574Z" fill="#253368"/>
<path d="M303.833 310.231C305.709 309.86 307.712 309.864 309.625 310.505C310.604 310.833 311.51 311.319 312.325 311.978C312.781 312.347 312.851 313.016 312.482 313.472C312.112 313.928 311.442 313.998 310.986 313.628C310.374 313.134 309.692 312.768 308.948 312.519C307.438 312.013 305.79 312.009 304.246 312.315C303.868 312.389 303.6 312.462 303.471 312.504C302.913 312.688 302.311 312.386 302.127 311.829C301.943 311.272 302.246 310.672 302.803 310.488L302.986 310.431C303.195 310.371 303.481 310.301 303.833 310.231Z" fill="#253368"/>
<path fill-rule="evenodd" clip-rule="evenodd" d="M316.338 455.018C308.637 454.525 302.713 448.022 302.95 440.318L304.949 375.441C305.235 366.144 313.174 358.933 322.469 359.527C331.764 360.123 338.716 368.288 337.812 377.545L331.496 442.146C330.746 449.817 324.041 455.511 316.338 455.018Z" fill="#08003F"/>
<path fill-rule="evenodd" clip-rule="evenodd" d="M315.667 501.511L300.097 517.16L277.34 507.591C277.34 507.591 259.971 526.033 253.683 509.886C247.394 493.739 255.479 464.635 255.479 464.635L314.749 465.033C314.749 465.033 321.656 490.348 315.667 501.511Z" fill="#15E7BD"/>
<path fill-rule="evenodd" clip-rule="evenodd" d="M391.772 430.112L391.907 451.385L316.218 455.415C308.112 455.847 301.29 449.428 301.239 441.324C301.187 433.218 307.927 426.714 316.037 427.043L391.772 430.112Z" fill="#FFC999"/>
<path d="M319.964 426.593L391.395 429.584C391.655 429.595 391.865 429.791 391.899 430.041L391.904 430.111L392.039 451.383C392.041 451.665 391.823 451.899 391.541 451.916L381.791 452.516C375.426 452.902 368.896 453.288 362.464 453.654L357.84 453.915L349.003 454.4C328.465 455.499 315.542 455.993 313.294 455.646C313.004 455.602 312.805 455.33 312.85 455.041C312.894 454.751 313.166 454.552 313.456 454.597L313.606 454.617C316.28 454.921 330.477 454.348 352.251 453.161L359.197 452.776L365.626 452.409C368.854 452.223 372.095 452.033 375.318 451.841L390.972 450.887L390.844 430.623L319.92 427.654C319.651 427.643 319.437 427.434 319.413 427.174L319.411 427.102C319.422 426.833 319.631 426.619 319.892 426.595L319.964 426.593Z" fill="#597EF7"/>
<path d="M380.203 431.587C380.472 431.585 380.696 431.784 380.732 432.043L380.738 432.115L380.856 450.654C380.858 450.947 380.621 451.187 380.327 451.188C380.058 451.19 379.835 450.992 379.798 450.733L379.792 450.661L379.674 432.121C379.672 431.828 379.909 431.589 380.203 431.587Z" fill="#597EF7"/>
<path fill-rule="evenodd" clip-rule="evenodd" d="M386.273 444.322C387.187 444.317 387.934 445.051 387.939 445.965C387.944 446.878 387.207 447.623 386.294 447.629C385.379 447.635 384.633 446.899 384.627 445.986C384.621 445.073 385.358 444.327 386.273 444.322Z" fill="white"/>
<path fill-rule="evenodd" clip-rule="evenodd" d="M315.627 448.379C315.627 448.379 331.446 391.613 327.305 361.364C319.592 357.79 315.99 355.98 302.967 352.591C300.181 351.866 294.004 356.802 290.602 356.639C285.572 356.4 277.85 350.015 273.11 350.817C254.955 353.889 244.964 359.788 244.964 359.788L249.267 407.114C249.804 410.514 250.082 432.957 251.362 447.781C252.221 457.733 251.026 462.432 260.045 462.432C276.814 462.432 303.766 464.822 314.744 461.633C319.489 460.254 317.716 453.914 315.627 448.379Z" fill="#08003F"/>
<path fill-rule="evenodd" clip-rule="evenodd" d="M303.833 349.257L308.662 355.393L301.553 366.148L292.071 355.483L303.833 349.257Z" fill="#08003F"/>
<path fill-rule="evenodd" clip-rule="evenodd" d="M291.218 355.78L276.489 345.329L270.675 352.296L280.21 365.349L291.218 355.78Z" fill="#08003F"/>
<path d="M272.071 352.262C272.282 352.12 272.562 352.158 272.729 352.341L272.776 352.4L280.719 364.204L291.35 355.49C291.525 355.346 291.771 355.338 291.954 355.46L292.02 355.512L302.459 365.303L307.699 354.365C307.809 354.135 308.07 354.026 308.306 354.099L308.376 354.126C308.606 354.236 308.716 354.497 308.643 354.733L308.615 354.803L303.076 366.367C302.938 366.654 302.577 366.741 302.326 366.563L302.27 366.518L291.649 356.556L280.932 365.342C280.72 365.516 280.412 365.488 280.234 365.291L280.188 365.233L271.933 352.966C271.776 352.733 271.838 352.418 272.071 352.262Z" fill="#15E7BD"/>
<path d="M291.636 355.376C291.916 355.357 292.159 355.567 292.179 355.847L292.312 357.872L292.444 360.025C292.643 363.361 292.842 367.102 293.028 371.164C293.644 384.615 293.969 398.215 293.856 410.99L293.838 412.727C293.658 427.631 292.869 440.233 291.359 449.818L291.238 450.564L291.39 450.699C292.795 451.975 293.538 453.57 293.701 455.396L293.719 455.636C293.832 457.489 293.367 459.451 292.525 461.394C292.262 462.001 291.981 462.562 291.698 463.064C291.624 463.197 291.554 463.318 291.488 463.428L291.315 463.707C291.16 463.941 290.845 464.005 290.611 463.851C290.377 463.697 290.312 463.383 290.466 463.149L290.581 462.967C290.628 462.889 290.684 462.794 290.747 462.684L290.813 462.568C291.078 462.095 291.345 461.565 291.593 460.991C292.377 459.182 292.807 457.367 292.705 455.697C292.595 453.886 291.859 452.357 290.372 451.164C290.229 451.049 290.159 450.866 290.19 450.685C291.799 441.041 292.636 428.113 292.822 412.715C292.976 400.038 292.684 386.488 292.096 373.043L292.014 371.21C291.84 367.424 291.656 363.916 291.47 360.757L291.258 357.303L291.165 355.918C291.146 355.638 291.357 355.396 291.636 355.376Z" fill="#15E7BD"/>
<path d="M326.574 376.406C326.829 376.432 327.021 376.644 327.03 376.893L327.022 377.018L326.682 380.233C326.445 382.433 326.178 384.847 325.884 387.428L325.721 388.852C324.76 397.211 323.719 405.571 322.629 413.441L322.41 415.008C320.556 428.196 318.746 438.621 317.043 445.257C316.767 446.332 316.494 447.304 316.225 448.169L316.17 448.343L316.229 448.472C318.795 454.091 318.683 458.054 316.862 460.599L316.761 460.737C316.218 461.455 315.667 461.885 315.274 462.085C315.024 462.212 314.719 462.112 314.592 461.863C314.464 461.613 314.564 461.308 314.814 461.181C314.868 461.153 314.984 461.081 315.141 460.958C315.415 460.745 315.691 460.469 315.95 460.126C317.656 457.866 317.778 454.162 315.167 448.594C315.113 448.478 315.104 448.346 315.143 448.224C315.443 447.29 315.748 446.215 316.059 445.005L316.226 444.344C317.869 437.731 319.616 427.589 321.404 414.867C322.573 406.554 323.688 397.645 324.712 388.736L325.185 384.569C325.334 383.232 325.475 381.949 325.607 380.729L326.017 376.859C326.043 376.604 326.255 376.412 326.505 376.404L326.574 376.406Z" fill="#15E7BD"/>
<path d="M325.734 381.986L307.769 381.586C307.503 381.58 307.278 381.78 307.252 382.044L305.655 398.391C305.641 398.534 305.688 398.677 305.785 398.783L314.17 407.952C314.348 408.147 314.646 408.173 314.855 408.011L323.638 401.234C323.745 401.152 323.814 401.031 323.831 400.898L326.226 382.558C326.265 382.259 326.036 381.992 325.734 381.986ZM308.217 382.61L325.146 382.986L322.851 400.559L314.605 406.923L306.688 398.265L308.217 382.61Z" fill="#15E7BD"/>
<path fill-rule="evenodd" clip-rule="evenodd" d="M295.157 366.693C295.255 367.633 295.971 368.33 296.756 368.248C297.541 368.167 298.099 367.338 298 366.397C297.902 365.456 297.186 364.76 296.401 364.841C295.617 364.922 295.059 365.752 295.157 366.693Z" fill="#15E7BD"/>
<path fill-rule="evenodd" clip-rule="evenodd" d="M295.956 383.836C296.054 384.777 296.77 385.474 297.554 385.392C298.34 385.31 298.898 384.482 298.799 383.541C298.701 382.6 297.985 381.903 297.2 381.985C296.415 382.067 295.858 382.895 295.956 383.836Z" fill="#15E7BD"/>
<path fill-rule="evenodd" clip-rule="evenodd" d="M296.754 402.973C296.852 403.914 297.569 404.611 298.354 404.529C299.139 404.447 299.696 403.619 299.598 402.678C299.5 401.737 298.783 401.04 297.999 401.122C297.214 401.203 296.656 402.032 296.754 402.973Z" fill="#15E7BD"/>
<path fill-rule="evenodd" clip-rule="evenodd" d="M296.381 422.052C296.176 422.976 296.634 423.863 297.405 424.034C298.175 424.204 298.966 423.594 299.172 422.672C299.377 421.748 298.918 420.86 298.149 420.69C297.378 420.519 296.586 421.128 296.381 422.052Z" fill="#15E7BD"/>
<path fill-rule="evenodd" clip-rule="evenodd" d="M293.633 449.997C293.32 450.889 293.668 451.824 294.414 452.086C295.158 452.347 296.017 451.835 296.33 450.943C296.644 450.05 296.295 449.115 295.551 448.854C294.806 448.593 293.947 449.105 293.633 449.997Z" fill="white"/>
<path fill-rule="evenodd" clip-rule="evenodd" d="M233.372 451.128C225.863 449.345 221.123 441.937 222.658 434.383L235.578 370.771C237.43 361.656 246.473 355.885 255.534 358.036C264.595 360.188 270.071 369.405 267.616 378.378L250.487 440.991C248.453 448.426 240.882 452.91 233.372 451.128Z" fill="#F1F1F1"/>
<path fill-rule="evenodd" clip-rule="evenodd" d="M256.255 423.558L268.427 377.719C270.881 368.748 265.406 359.529 256.346 357.378C247.284 355.227 236.947 361.416 235.095 370.531L225.513 417.178C225.513 417.178 255.944 423.246 256.255 423.558Z" fill="#08003F"/>
<path d="M348.091 722.91L348.102 722.933L348.117 722.954L348.318 722.806C348.117 722.954 348.117 722.954 348.117 722.955L348.118 722.955L348.119 722.957L348.124 722.964L348.143 722.988C348.159 723.009 348.183 723.039 348.214 723.078C348.277 723.156 348.371 723.269 348.496 723.409C348.746 723.689 349.12 724.081 349.623 724.533C350.629 725.437 352.149 726.581 354.213 727.548C358.348 729.485 364.642 730.702 373.31 727.899C376.735 726.792 380.578 727.379 383.021 728.963C384.24 729.753 385.092 730.777 385.391 731.942C385.688 733.098 385.451 734.437 384.408 735.888L384.611 736.034L384.408 735.888C383.121 737.681 380.772 739.438 377.786 741.057C374.805 742.674 371.214 744.141 367.467 745.364L367.545 745.602L367.467 745.364C361.883 747.188 359.064 746.741 356.942 746.237C356.756 746.192 356.574 746.147 356.394 746.103C355.547 745.893 354.755 745.697 353.91 745.685C352.869 745.671 351.754 745.933 350.312 746.734L350.312 746.734C348.696 747.632 345.545 748.912 342.587 749.681C341.107 750.066 339.691 750.318 338.546 750.336C337.974 750.345 337.481 750.295 337.087 750.18C336.693 750.064 336.414 749.889 336.244 749.66C334.76 747.662 333.938 746.398 333.354 744.67C332.765 742.931 332.413 740.712 331.898 736.796L331.898 736.796C330.958 729.651 330.839 723.715 331.358 719.206C331.617 716.952 332.035 715.061 332.586 713.557C333.138 712.05 333.818 710.947 334.59 710.251C335.356 709.561 336.216 709.268 337.161 709.377C338.116 709.487 339.188 710.012 340.354 711.018C342.688 713.032 345.33 716.91 348.091 722.91Z" fill="#08003F" stroke="#15E7BD" stroke-width="0.5"/>
<path fill-rule="evenodd" clip-rule="evenodd" d="M326.078 726.809L296.325 610.846C293.83 601.454 299.794 591.91 309.337 590.023C318.552 588.2 327.48 594.254 329.183 603.48L350.988 721.654C350.988 721.654 341.55 729.179 326.078 726.809Z" fill="#15E7BD"/>
<path d="M262.149 396.331C262.213 396.058 262.487 395.889 262.76 395.953C263.01 396.012 263.173 396.246 263.149 396.495L263.138 396.563L256.749 423.674C256.691 423.921 256.461 424.083 256.215 424.063L256.148 424.053L226.604 417.674C226.33 417.615 226.156 417.345 226.215 417.071C226.27 416.82 226.501 416.653 226.751 416.673L226.819 416.683L255.875 422.956L262.149 396.331Z" fill="#15E7BD"/>
<path d="M329.406 402.25L329.406 402.25L400.249 401.585C402.674 401.562 404.426 403.89 403.731 406.209L388.796 456.069C388.796 456.07 388.796 456.07 388.796 456.07C388.343 457.578 386.959 458.618 385.381 458.634L314.537 459.298C312.112 459.321 310.361 456.993 311.055 454.674L310.672 454.56L311.055 454.674L325.991 404.813C326.443 403.304 327.827 402.264 329.406 402.25Z" fill="#08003F" stroke="#15E7BD" stroke-width="0.8"/>
<path d="M331.403 402.35L331.403 402.35L402.246 401.685C404.604 401.663 406.307 403.926 405.631 406.181L390.696 456.041C390.256 457.508 388.911 458.519 387.376 458.534L316.532 459.198C314.175 459.22 312.472 456.957 313.147 454.703L312.668 454.56L313.147 454.703L328.082 404.842C328.522 403.375 329.868 402.364 331.403 402.35Z" fill="#15E7BD" stroke="black"/>
<path d="M312.216 457.548L312.215 457.547L312.172 457.794L312.214 457.547L312.214 457.547L312.212 457.547L312.204 457.546L312.171 457.54C312.141 457.534 312.097 457.527 312.04 457.516C311.925 457.495 311.755 457.462 311.538 457.418C311.104 457.331 310.482 457.197 309.728 457.015C308.22 456.649 306.189 456.087 304.096 455.301C302.002 454.513 299.856 453.505 298.11 452.249C296.362 450.992 295.041 449.506 294.552 447.771L294.552 447.771C293.648 444.564 294.397 442.153 295.364 440.542C295.85 439.734 296.392 439.125 296.812 438.719C297.022 438.516 297.2 438.364 297.326 438.263C297.389 438.213 297.438 438.176 297.471 438.151C297.474 438.149 297.478 438.146 297.481 438.144L297.541 438.131C297.614 438.116 297.723 438.092 297.863 438.063C298.145 438.004 298.555 437.92 299.073 437.818C300.107 437.613 301.566 437.339 303.267 437.057C306.669 436.493 311.028 435.901 314.869 435.785L314.87 435.785C316.14 435.746 317.691 435.61 319.306 435.467L319.314 435.466C320.935 435.323 322.623 435.175 324.177 435.11C325.734 435.046 327.137 435.068 328.194 435.259C328.722 435.355 329.148 435.491 329.459 435.669C329.767 435.845 329.948 436.054 330.021 436.296C330.128 436.651 330.087 436.949 329.939 437.218C329.786 437.496 329.51 437.759 329.12 438.008C328.337 438.51 327.176 438.909 325.919 439.288C325.582 439.389 325.238 439.489 324.894 439.589C323.973 439.857 323.055 440.124 322.276 440.418C321.74 440.621 321.255 440.842 320.871 441.094C320.489 441.344 320.181 441.641 320.038 442.006C319.777 442.671 319.823 443.293 320.115 443.857C320.402 444.411 320.916 444.894 321.565 445.321C322.861 446.174 324.778 446.858 326.8 447.434C328.361 447.879 330.005 448.265 331.499 448.616C331.944 448.721 332.376 448.822 332.788 448.921C333.689 449.137 334.497 449.341 335.154 449.541C335.819 449.742 336.304 449.932 336.577 450.111L336.714 449.902L336.577 450.111C337.138 450.479 337.453 450.903 337.571 451.346C337.688 451.79 337.619 452.288 337.343 452.822C336.784 453.902 335.403 455.078 333.241 456.07C328.931 458.049 321.652 459.236 312.216 457.548Z" fill="#F1F1F1" stroke="#08003F" stroke-width="0.5"/>
<path d="M320.749 449.618C320.836 449.427 321.061 449.342 321.253 449.428L321.525 449.545L321.815 449.664C321.917 449.705 322.026 449.748 322.14 449.792L322.315 449.86C323.172 450.186 324.137 450.513 325.186 450.818C328.816 451.873 332.51 452.409 335.982 452.146C336.191 452.13 336.374 452.287 336.39 452.497C336.406 452.706 336.249 452.889 336.039 452.905C332.464 453.175 328.683 452.627 324.973 451.548C324.056 451.282 323.202 450.999 322.426 450.713L322.044 450.57C321.798 450.477 321.575 450.388 321.376 450.307L320.939 450.121C320.748 450.035 320.663 449.81 320.749 449.618Z" fill="#08003F"/>
<path d="M318.097 453.287C318.164 453.088 318.38 452.981 318.579 453.048C324.246 454.951 329.118 455.513 332.731 455.329L333.022 455.313C333.259 455.298 333.419 455.283 333.498 455.274C333.707 455.249 333.896 455.397 333.921 455.606C333.947 455.814 333.798 456.003 333.589 456.029L333.389 456.048C333.302 456.056 333.196 456.064 333.07 456.072C329.336 456.307 324.256 455.757 318.337 453.768C318.137 453.702 318.03 453.486 318.097 453.287Z" fill="#08003F"/>
<path d="M314.708 455.794C314.788 455.6 315.011 455.507 315.205 455.587L315.444 455.677C315.651 455.752 315.9 455.835 316.192 455.925C317.029 456.184 318.037 456.443 319.214 456.686C321.274 457.11 323.627 457.435 326.273 457.622C326.482 457.637 326.64 457.819 326.625 458.028C326.611 458.238 326.429 458.395 326.219 458.381C323.539 458.191 321.153 457.861 319.06 457.43C317.992 457.211 317.059 456.976 316.26 456.74L315.967 456.652C315.785 456.596 315.618 456.542 315.467 456.491L315.186 456.393C315.053 456.345 314.963 456.31 314.915 456.29C314.72 456.21 314.628 455.988 314.708 455.794Z" fill="#08003F"/>
<path fill-rule="evenodd" clip-rule="evenodd" d="M304.572 445.541C304.342 449.789 300.885 453.149 296.627 453.264L236.896 454.874C228.551 455.024 221.759 448.372 221.983 440.27C222.207 432.168 229.357 425.901 237.68 426.512L297.82 437.057C301.896 437.771 304.795 441.414 304.572 445.541Z" fill="#F1F1F1"/>
<path fill-rule="evenodd" clip-rule="evenodd" d="M317.492 618.844C326.066 615.552 330.5 606.081 327.532 597.4L294.432 500.624C290.59 489.389 278.171 483.59 267.074 487.849C255.978 492.108 250.645 504.721 255.326 515.633L295.654 609.636C299.272 618.067 308.917 622.135 317.492 618.844Z" fill="#15E7BD"/>
<path fill-rule="evenodd" clip-rule="evenodd" d="M316.38 470.22H255.299L256.633 461.853L315.316 461.583L316.38 470.22Z" fill="#15E7BD"/>
<path d="M251.768 361.463L251.978 361.514C252.067 361.537 252.174 361.566 252.297 361.603C252.702 361.723 253.152 361.88 253.635 362.079C255.012 362.646 256.389 363.434 257.674 364.482C261.346 367.473 263.551 371.934 263.551 378.107C263.551 378.387 263.323 378.614 263.043 378.614C262.762 378.614 262.535 378.387 262.535 378.107C262.535 372.244 260.472 368.07 257.032 365.268C255.829 364.287 254.538 363.548 253.248 363.017C252.888 362.869 252.549 362.746 252.237 362.646L252.008 362.575C251.788 362.51 251.635 362.472 251.559 362.456C251.285 362.398 251.109 362.129 251.167 361.855C251.22 361.604 251.45 361.435 251.7 361.453L251.768 361.463Z" fill="#15E7BD"/>
<path d="M402.139 435.467L402.138 435.468L402.138 435.468L402.012 435.616L402.125 435.775L402.125 435.775L402.125 435.775L402.125 435.775L402.125 435.775L402.129 435.78C402.132 435.785 402.137 435.792 402.144 435.803C402.157 435.823 402.177 435.855 402.202 435.896C402.252 435.979 402.321 436.103 402.394 436.259C402.541 436.573 402.704 437.016 402.77 437.534C402.901 438.556 402.662 439.901 401.101 441.165L401.01 441.239L401.009 441.357C400.988 443.187 400.389 444.292 399.814 444.937C399.525 445.262 399.239 445.474 399.027 445.605C398.921 445.67 398.833 445.714 398.774 445.742C398.745 445.756 398.722 445.765 398.708 445.771L398.693 445.777L398.691 445.778L398.691 445.778L398.691 445.778L398.69 445.778L398.69 445.778L398.469 445.857L398.535 446.083L398.535 446.083L398.535 446.083L398.536 446.083L398.536 446.084L398.537 446.089L398.543 446.112C398.548 446.132 398.556 446.165 398.565 446.206C398.582 446.29 398.604 446.412 398.62 446.563C398.652 446.865 398.66 447.273 398.566 447.707C398.472 448.14 398.277 448.594 397.906 448.998C397.535 449.4 396.976 449.764 396.133 449.997C394.452 450.461 392.148 449.977 390.586 448.891C389.809 448.35 389.24 447.676 389.011 446.925C388.784 446.183 388.879 445.331 389.494 444.396L389.571 444.28L389.512 444.153C388.77 442.558 389.11 441.416 389.615 440.669C389.871 440.289 390.175 440.005 390.416 439.815C390.536 439.721 390.639 439.651 390.711 439.605C390.748 439.582 390.776 439.565 390.795 439.554L390.815 439.543L390.819 439.54L390.82 439.54L390.82 439.54L390.82 439.54L390.82 439.54L391.003 439.443L390.942 439.246L390.942 439.246L390.941 439.246L390.941 439.245L390.941 439.245L390.94 439.241L390.934 439.22C390.929 439.201 390.921 439.171 390.912 439.132C390.894 439.054 390.871 438.94 390.852 438.798C390.813 438.512 390.791 438.118 390.855 437.683C390.981 436.822 391.442 435.788 392.825 435.096L393.105 434.957L392.907 434.714C392.234 433.891 392.016 433.073 392.063 432.429C392.111 431.776 392.423 431.325 392.788 431.166L392.792 431.164L392.811 431.156L392.887 431.124C392.954 431.096 393.053 431.056 393.179 431.004C393.432 430.901 393.795 430.754 394.239 430.581C395.125 430.236 396.328 429.787 397.597 429.373C398.867 428.958 400.196 428.58 401.337 428.374C401.907 428.27 402.423 428.211 402.857 428.21C403.297 428.209 403.626 428.267 403.841 428.377C404.216 428.569 404.463 428.812 404.619 429.086C404.775 429.361 404.847 429.681 404.849 430.039C404.851 430.761 404.565 431.6 404.16 432.417C403.758 433.228 403.253 433.991 402.846 434.554C402.643 434.834 402.465 435.064 402.339 435.222C402.276 435.302 402.225 435.364 402.191 435.405C402.173 435.426 402.16 435.442 402.151 435.452L402.141 435.464L402.139 435.467L402.139 435.467Z" fill="#F1F1F1" stroke="#08003F" stroke-width="0.5"/>
<path d="M400.755 433.224C400.963 433.191 401.158 433.333 401.19 433.54C401.22 433.727 401.108 433.903 400.934 433.961L400.873 433.975L392.773 435.248C392.565 435.281 392.37 435.139 392.338 434.932C392.308 434.745 392.42 434.569 392.594 434.512L392.655 434.497L400.755 433.224Z" fill="#08003F"/>
<path d="M390.74 438.941L397.811 439.62C398.02 439.64 398.174 439.825 398.154 440.034C398.135 440.222 397.983 440.365 397.8 440.377L397.738 440.376L390.667 439.698C390.458 439.678 390.304 439.492 390.325 439.283C390.343 439.095 390.495 438.952 390.678 438.94L390.74 438.941Z" fill="#08003F"/>
<path d="M389.357 443.886L395.934 445.156C396.14 445.196 396.275 445.395 396.235 445.602C396.2 445.787 396.034 445.915 395.851 445.909L395.789 445.903L389.213 444.632C389.006 444.593 388.871 444.393 388.911 444.187C388.947 444.001 389.113 443.874 389.296 443.879L389.357 443.886Z" fill="#08003F"/>
<path fill-rule="evenodd" clip-rule="evenodd" d="M299.751 466.478C299.849 467.419 300.564 468.115 301.349 468.034C302.135 467.952 302.691 467.123 302.594 466.182C302.496 465.242 301.78 464.545 300.994 464.627C300.21 464.707 299.653 465.537 299.751 466.478Z" fill="#08003F"/>
<path d="M316.214 460.99C316.425 460.99 316.595 461.16 316.595 461.37C316.595 461.559 316.457 461.716 316.276 461.745L316.214 461.75H256.197C255.987 461.75 255.816 461.58 255.816 461.37C255.816 461.181 255.954 461.024 256.135 460.995L256.197 460.99H316.214Z" fill="#08003F"/>
<path d="M314.253 469.063C314.463 469.063 314.633 469.233 314.633 469.443C314.633 469.632 314.495 469.789 314.314 469.818L314.253 469.823H256.362C256.152 469.823 255.981 469.653 255.981 469.443C255.981 469.254 256.12 469.097 256.3 469.068L256.362 469.063H314.253Z" fill="#08003F"/>
<path d="M296.56 461.587C296.749 461.578 296.913 461.708 296.951 461.887L296.959 461.949L297.354 469.858L297.421 470.025L297.525 470.305L297.66 470.686C297.776 471.021 297.9 471.399 298.031 471.822C298.552 473.507 299.072 475.55 299.557 477.959C301.661 488.402 302.448 501.963 301.15 518.81C301.134 519.019 300.951 519.176 300.741 519.16C300.531 519.144 300.374 518.961 300.391 518.752L300.507 517.164C301.632 501.12 300.835 488.154 298.811 478.109C298.331 475.725 297.817 473.707 297.303 472.046L297.153 471.57C297.08 471.343 297.009 471.132 296.941 470.936L296.773 470.467L296.627 470.089L296.598 469.96L296.199 461.987C296.188 461.777 296.35 461.598 296.56 461.587Z" fill="#08003F"/>
<path d="M303.969 468.676C304.173 468.624 304.381 468.746 304.433 468.949L304.586 469.565L304.847 470.658C304.893 470.856 304.94 471.062 304.988 471.275C305.404 473.105 305.82 475.111 306.208 477.23C306.938 481.218 307.483 485.133 307.767 488.803C308.269 495.283 307.923 500.501 306.514 504.028L306.411 504.277L306.365 504.357C304.764 506.49 303.266 507.871 301.908 508.645C301.065 509.127 300.438 509.294 300.072 509.294C299.862 509.294 299.691 509.123 299.691 508.913C299.691 508.703 299.862 508.533 300.072 508.533C300.114 508.533 300.226 508.519 300.405 508.471C300.723 508.386 301.1 508.231 301.53 507.985C302.738 507.296 304.091 506.067 305.556 504.165L305.726 503.938L305.808 503.741C307.13 500.43 307.485 495.475 307.042 489.314L307.008 488.861C306.726 485.22 306.184 481.331 305.459 477.367C305.116 475.493 304.751 473.708 304.384 472.056L304.246 471.444C304.125 470.913 304.012 470.43 303.908 469.998L303.696 469.139C303.643 468.936 303.766 468.729 303.969 468.676Z" fill="#08003F"/>
<path d="M301 520L329.5 603.5L331.5 616" stroke="#08003F" stroke-width="0.5" stroke-linecap="round"/>
<path fill-rule="evenodd" clip-rule="evenodd" d="M288.457 318.347C288.386 319.574 288.871 320.601 289.541 320.639C290.21 320.678 290.811 319.714 290.882 318.486C290.952 317.26 290.467 316.233 289.798 316.194C289.127 316.156 288.528 317.119 288.457 318.347Z" fill="#08003F"/>
<path fill-rule="evenodd" clip-rule="evenodd" d="M307.457 319.347C307.386 320.574 307.871 321.601 308.541 321.639C309.21 321.678 309.811 320.714 309.882 319.486C309.952 318.26 309.467 317.233 308.798 317.194C308.127 317.156 307.528 318.119 307.457 319.347Z" fill="#08003F"/>
<path d="M854.923 672.668H830.625V587.958C830.625 581.336 836.034 575.964 842.709 575.964H842.839C849.515 575.964 854.923 581.336 854.923 587.958V672.668Z" fill="#15E7BD" stroke="#08003F" stroke-width="0.5"/>
<path d="M867.255 693.464H842.885V649.35C842.885 642.907 848.17 637.679 854.697 637.679H855.443C861.969 637.679 867.255 642.907 867.255 649.35V693.464Z" fill="#15E7BD" stroke="#08003F" stroke-width="0.5"/>
<path d="M833.763 672.624H809.228V624.639C809.228 618.158 814.528 612.9 821.071 612.9H821.92C828.463 612.9 833.763 618.158 833.763 624.639V672.624Z" fill="#15E7BD" stroke="#08003F" stroke-width="0.5"/>
<path fill-rule="evenodd" clip-rule="evenodd" d="M868.984 743.339H803.856C801.282 743.339 799.195 741.274 799.195 738.727V674.66C799.195 672.113 801.282 670.047 803.856 670.047H868.984C871.558 670.047 873.645 672.113 873.645 674.66V738.727C873.645 741.274 871.558 743.339 868.984 743.339Z" fill="#08003F"/>
<path d="M276 563C284.333 582.333 301 621.9 301 625.5" stroke="#08003F" stroke-width="0.5" stroke-linecap="round"/>
<path d="M707 538L678 536.5V534.5L707 533.5V538Z" stroke="#08003F" stroke-width="0.5" stroke-linecap="round"/>
<path d="M649.5 568L637.588 608.5M632 627.5L637.588 608.5M637.588 608.5L647 627.5" stroke="#08003F" stroke-width="0.5" stroke-linecap="round"/>
<defs>
<linearGradient id="paint0_linear_17_3611" x1="173.301" y1="199.422" x2="173.301" y2="364.792" gradientUnits="userSpaceOnUse">
<stop stop-color="#F1F1F1"/>
<stop offset="0.713956" stop-color="#F1F1F1" stop-opacity="0"/>
</linearGradient>
<linearGradient id="paint1_linear_17_3611" x1="792.633" y1="255.467" x2="792.633" y2="420.837" gradientUnits="userSpaceOnUse">
<stop stop-color="#F1F1F1"/>
<stop offset="0.683046" stop-color="#F1F1F1" stop-opacity="0"/>
</linearGradient>
</defs>
</svg>
