<svg width="504" height="528" viewBox="0 0 504 528" fill="none" xmlns="http://www.w3.org/2000/svg">
<ellipse cx="232.5" cy="480" rx="232.5" ry="47.5" fill="#F1F1F1"/>
<path fill-rule="evenodd" clip-rule="evenodd" d="M244.833 426.497H306.987V413.793H244.833V426.497Z" fill="#15E7BD"/>
<path fill-rule="evenodd" clip-rule="evenodd" d="M291.521 284.069L308.166 489.164H322.458L305.813 284.069H291.521Z" fill="#08003F"/>
<path fill-rule="evenodd" clip-rule="evenodd" d="M246.006 284.069L229.362 489.164H243.654L260.298 284.069H246.006Z" fill="#08003F"/>
<path fill-rule="evenodd" clip-rule="evenodd" d="M239.938 297.418C232.565 297.418 226.588 291.441 226.588 284.069C226.588 276.697 232.565 270.719 239.938 270.719H313.187C320.559 270.719 326.537 276.697 326.537 284.069C326.537 291.441 320.559 297.418 313.187 297.418H239.938Z" fill="#15E7BD"/>
<path d="M388.408 420.118L388.408 420.118C388.577 416.577 388.553 413.029 388.337 409.49L387.6 397.395H389.812V437.178H387.596L388.408 420.118Z" fill="#15E7BD" stroke="#08003F" stroke-width="0.575521"/>
<path d="M387.667 403.927L387.663 403.94L387.66 403.953L387.66 403.953L387.66 403.953L387.659 403.955L387.658 403.964L387.65 403.999C387.643 404.03 387.632 404.077 387.616 404.139C387.586 404.263 387.539 404.447 387.474 404.682C387.342 405.152 387.135 405.829 386.835 406.649C386.233 408.289 385.258 410.501 383.762 412.785C380.771 417.351 375.71 422.195 367.398 423.368C359.237 424.519 353.521 424.296 349.369 424.134C349.253 424.129 349.138 424.125 349.024 424.12C346.939 424.04 345.235 423.984 343.822 424.156C342.606 424.304 341.587 424.622 340.708 425.247C340.706 425.185 340.703 425.118 340.701 425.046C340.688 424.569 340.695 423.876 340.774 423.018C340.934 421.304 341.386 418.934 342.558 416.325C344.897 411.115 350.119 404.91 361.702 401.049C373.339 397.17 380.427 396.262 384.592 396.315C386.674 396.342 388.022 396.609 388.841 396.862C389.25 396.989 389.528 397.113 389.699 397.201C389.721 397.212 389.74 397.223 389.759 397.233L387.667 403.927Z" fill="#15E7BD" stroke="#08003F" stroke-width="0.575521"/>
<path d="M394.542 377.441L393.7 448.4H392.106C392.103 448.298 392.099 448.168 392.095 448.011C392.083 447.572 392.067 446.922 392.046 446.08C392.006 444.396 391.952 441.946 391.898 438.879C391.79 432.746 391.682 424.148 391.682 414.287C391.682 410.809 391.871 406.718 392.074 402.502C392.084 402.293 392.094 402.084 392.104 401.875C392.298 397.86 392.495 393.755 392.546 389.988C392.601 385.846 392.493 382.117 392.371 379.424C392.31 378.077 392.245 376.99 392.196 376.238C392.176 375.927 392.158 375.674 392.144 375.483L393.337 375.824C393.337 375.824 393.337 375.824 393.338 375.824C394.058 376.03 394.551 376.693 394.542 377.441C394.542 377.441 394.542 377.441 394.542 377.441Z" fill="#15E7BD" stroke="#08003F" stroke-width="0.575521"/>
<path d="M389.126 379.24L389.101 379.252L389.079 379.269L389.079 379.269L389.079 379.269L389.078 379.27L389.072 379.275L389.046 379.294C389.023 379.312 388.988 379.337 388.942 379.371C388.849 379.438 388.71 379.536 388.528 379.658C388.165 379.903 387.63 380.244 386.947 380.629C385.581 381.399 383.626 382.342 381.274 383.03C376.573 384.407 370.298 384.768 363.94 380.729C357.691 376.759 353.914 373.276 351.17 370.745C351.094 370.674 351.017 370.604 350.942 370.534C349.564 369.264 348.43 368.231 347.361 367.523C346.458 366.925 345.587 366.548 344.636 366.454C344.661 366.422 344.687 366.389 344.715 366.355C344.984 366.022 345.391 365.552 345.945 365.014C347.052 363.936 348.74 362.582 351.059 361.482C355.688 359.288 362.868 358.089 373.032 362.2C383.244 366.33 388.582 370.035 391.362 372.689C392.751 374.015 393.5 375.077 393.9 375.797C394.1 376.158 394.213 376.433 394.276 376.614C394.282 376.632 394.288 376.65 394.293 376.667L389.126 379.24Z" fill="#15E7BD" stroke="#08003F" stroke-width="0.575521"/>
<path d="M390.413 378.082C390.639 378.063 390.848 378.042 391.038 378.02L389.1 379.255L389.089 379.262L389.079 379.269L389.079 379.269L389.079 379.27L389.078 379.271L389.072 379.275L389.046 379.294C389.023 379.312 388.988 379.337 388.942 379.371C388.849 379.438 388.71 379.536 388.528 379.658C388.165 379.903 387.63 380.244 386.947 380.629C385.581 381.399 383.626 382.342 381.274 383.031C376.573 384.407 370.298 384.768 363.94 380.729C357.691 376.759 353.914 373.276 351.17 370.745C351.094 370.674 351.017 370.604 350.942 370.534C349.564 369.264 348.43 368.231 347.361 367.523C346.66 367.059 345.978 366.728 345.264 366.559C345.605 366.438 346.022 366.299 346.507 366.157C347.976 365.728 350.066 365.267 352.547 365.144C357.506 364.899 364.028 366.004 370.291 371.413C375.524 375.933 381.05 377.533 385.267 378.002C387.375 378.237 389.157 378.189 390.413 378.082Z" fill="#15E7BD" stroke="#08003F" stroke-width="0.575521"/>
<path d="M426.523 394.601L426.416 394.337L426.523 394.601C419.64 397.371 416.051 399.852 414.187 401.622C413.256 402.507 412.757 403.212 412.492 403.687C412.375 403.896 412.304 404.06 412.261 404.176L415.672 405.866L415.697 405.878L415.719 405.895L415.719 405.895L415.719 405.895L415.72 405.895L415.724 405.898L415.74 405.911C415.756 405.922 415.779 405.939 415.81 405.961C415.871 406.006 415.964 406.071 416.086 406.152C416.329 406.315 416.688 406.543 417.146 406.8C418.063 407.315 419.375 407.944 420.953 408.404C424.107 409.323 428.311 409.563 432.571 406.87C436.78 404.21 439.322 401.876 441.172 400.179C441.224 400.131 441.275 400.084 441.326 400.037C442.254 399.186 443.025 398.487 443.754 398.007C444.318 397.635 444.869 397.386 445.463 397.296C445.285 397.081 445.03 396.795 444.695 396.47C443.954 395.753 442.824 394.85 441.27 394.117C438.173 392.656 433.356 391.851 426.523 394.601Z" fill="#15E7BD" stroke="#08003F" stroke-width="0.575521"/>
<path d="M387.601 397.921L388.283 398.451L388.226 398.522C388.202 398.552 388.171 398.589 388.135 398.633L388.027 398.76C387.951 398.849 387.868 398.944 387.777 399.046L387.707 399.124C387.233 399.65 386.661 400.234 385.99 400.862C384.078 402.653 381.75 404.442 378.996 406.11C373.464 409.462 366.932 411.898 359.365 413.032L359.084 413.073C353.991 413.813 349.932 415.505 346.788 417.859C345.279 418.988 344.082 420.197 343.165 421.402C342.846 421.822 342.584 422.21 342.377 422.557L342.31 422.673C342.278 422.728 342.249 422.779 342.223 422.827L342.151 422.965L342.146 422.974L341.366 422.605L341.39 422.556C341.439 422.458 341.521 422.308 341.636 422.115C341.859 421.741 342.139 421.325 342.478 420.879C343.442 419.612 344.696 418.347 346.27 417.168C349.483 414.762 353.604 413.029 358.736 412.252L358.96 412.219C366.529 411.12 373.045 408.706 378.548 405.372C381.25 403.735 383.53 401.983 385.4 400.232C386.01 399.662 386.533 399.13 386.973 398.649L387.065 398.546C387.202 398.395 387.321 398.258 387.423 398.138L387.537 398.001L387.601 397.921Z" fill="#08003F"/>
<path d="M412.492 404C416.248 402.582 420.549 403.425 427.456 400.547C434.362 397.67 441.86 395.794 444.721 397.094" stroke="#08003F" stroke-width="0.575521" stroke-linecap="round"/>
<path d="M411.053 404.936L411.634 452.704H412.562L412.567 452.532C412.575 452.236 412.586 451.798 412.6 451.23C412.628 450.095 412.666 448.442 412.703 446.374C412.777 442.238 412.852 436.439 412.852 429.789C412.852 427.445 412.721 424.689 412.581 421.845C412.574 421.704 412.567 421.562 412.56 421.421C412.427 418.713 412.29 415.943 412.255 413.401C412.217 410.604 412.292 408.087 412.376 406.27C412.418 405.361 412.463 404.626 412.497 404.119C412.507 403.974 412.516 403.847 412.523 403.74L411.82 403.937C411.82 403.937 411.82 403.937 411.82 403.937C411.357 404.066 411.048 404.478 411.053 404.936Z" fill="#15E7BD" stroke="#08003F" stroke-width="0.575521"/>
<path d="M396.231 360.823L396.231 360.823C396.222 360.074 396.716 359.412 397.436 359.206C397.436 359.206 397.436 359.206 397.436 359.206L398.629 358.865C398.615 359.056 398.598 359.309 398.577 359.62C398.528 360.371 398.464 361.459 398.403 362.806C398.281 365.499 398.173 369.227 398.228 373.37C398.278 377.136 398.476 381.242 398.669 385.256C398.679 385.466 398.689 385.675 398.699 385.884C398.902 390.1 399.091 394.19 399.091 397.669C399.091 407.53 398.983 416.83 398.875 423.665C398.821 427.082 398.767 429.883 398.727 431.83C398.707 432.803 398.69 433.563 398.678 434.079C398.673 434.29 398.669 434.46 398.666 434.588H397.074L396.231 360.823Z" fill="#15E7BD" stroke="#08003F" stroke-width="0.575521"/>
<path d="M401.695 362.651L401.695 362.651L401.673 362.634L401.648 362.622L396.481 360.049C396.486 360.032 396.492 360.014 396.499 359.995C396.561 359.815 396.674 359.54 396.874 359.179C397.274 358.459 398.023 357.397 399.412 356.07C402.192 353.417 407.53 349.712 417.743 345.582C427.906 341.471 435.087 342.67 439.715 344.864C442.034 345.964 443.722 347.318 444.829 348.395C445.383 348.934 445.791 349.403 446.059 349.736C446.087 349.771 446.113 349.804 446.138 349.836C445.188 349.93 444.316 350.307 443.413 350.905C442.344 351.613 441.21 352.646 439.832 353.916C439.757 353.986 439.681 354.056 439.604 354.127C436.86 356.658 433.083 360.141 426.834 364.111C420.477 368.15 414.201 367.789 409.5 366.412C407.148 365.724 405.194 364.781 403.827 364.011C403.145 363.626 402.609 363.285 402.246 363.04C402.064 362.918 401.925 362.82 401.833 362.753C401.786 362.719 401.751 362.693 401.728 362.676L401.703 362.657L401.697 362.652L401.695 362.651L401.695 362.651ZM396.427 360.248C396.427 360.248 396.427 360.248 396.427 360.247L396.427 360.248Z" fill="#15E7BD" stroke="#08003F" stroke-width="0.575521"/>
<path d="M397.938 360.316C398.131 360.35 398.338 360.386 398.56 360.421C399.974 360.646 401.967 360.865 404.287 360.842C408.924 360.795 414.89 359.781 420.146 355.888C427.866 350.169 434.484 348.801 439.158 348.85C441.497 348.875 443.353 349.255 444.622 349.627C444.98 349.731 445.291 349.836 445.553 349.931C444.823 350.097 444.128 350.431 443.414 350.905C442.345 351.613 441.21 352.646 439.833 353.916C439.757 353.986 439.681 354.056 439.604 354.127C436.861 356.658 433.084 360.141 426.835 364.111C420.477 368.15 414.201 367.789 409.5 366.412C407.148 365.724 405.194 364.781 403.828 364.011C403.145 363.626 402.61 363.284 402.246 363.04C402.065 362.918 401.926 362.82 401.833 362.753C401.787 362.719 401.752 362.693 401.729 362.676L401.703 362.657L401.697 362.652L401.696 362.651L401.696 362.651L401.695 362.651L401.684 362.642L401.672 362.635L397.938 360.316Z" fill="#15E7BD" stroke="#08003F" stroke-width="0.575521"/>
<path d="M404.902 345.068L404.901 345.079L404.902 345.09L407.665 388.367L406.223 433.94H403.148L403.151 433.907C403.172 433.679 403.202 433.343 403.24 432.907C403.317 432.036 403.427 430.77 403.558 429.189C403.821 426.027 404.172 421.605 404.523 416.567C405.224 406.493 405.926 393.945 405.926 384.072C405.926 380.569 405.061 370.214 404.199 360.755C403.767 356.021 403.335 351.505 403.012 348.173C402.85 346.507 402.715 345.136 402.62 344.183C402.575 343.727 402.539 343.366 402.514 343.113L403.697 343.451C403.697 343.451 403.697 343.451 403.697 343.451C404.417 343.657 404.91 344.319 404.902 345.068Z" fill="#15E7BD" stroke="#08003F" stroke-width="0.575521"/>
<path d="M399.335 346.025L399.308 346.027L399.281 346.036L399.281 346.036L399.281 346.036L399.279 346.036L399.272 346.038L399.241 346.047C399.213 346.055 399.172 346.067 399.117 346.082C399.006 346.113 398.842 346.156 398.629 346.206C398.203 346.308 397.582 346.44 396.807 346.561C395.257 346.803 393.097 347 390.653 346.82C385.768 346.46 379.764 344.597 375.227 338.585C370.767 332.675 368.453 328.088 366.771 324.755C366.724 324.662 366.677 324.57 366.631 324.478C365.786 322.806 365.086 321.44 364.334 320.402C363.66 319.473 362.932 318.789 362.002 318.372C362.042 318.323 362.087 318.269 362.137 318.21C362.38 317.924 362.749 317.526 363.25 317.083C364.252 316.198 365.779 315.134 367.875 314.426C372.055 313.015 378.564 313 387.788 318.792C397.082 324.628 401.392 331.362 403.383 336.623C404.379 339.256 404.796 341.523 404.964 343.129C405.048 343.932 405.07 344.57 405.071 345.005C405.072 345.179 405.069 345.321 405.065 345.428L399.335 346.025Z" fill="#15E7BD" stroke="#08003F" stroke-width="0.575521"/>
<path d="M390.958 337.975L390.986 338.016L391.025 338.046C393.329 339.774 396.147 341.82 398.387 343.433C399.508 344.239 400.484 344.938 401.181 345.435C401.365 345.566 401.529 345.683 401.671 345.785L399.336 346.024L399.308 346.027L399.281 346.035L399.281 346.035L399.281 346.035L399.279 346.036L399.272 346.038L399.241 346.047C399.213 346.055 399.172 346.067 399.117 346.082C399.006 346.112 398.842 346.155 398.629 346.206C398.203 346.308 397.582 346.44 396.807 346.561C395.257 346.803 393.097 347 390.653 346.82C385.768 346.46 379.764 344.597 375.227 338.584C370.767 332.674 368.453 328.087 366.771 324.755C366.724 324.662 366.677 324.569 366.631 324.478C365.786 322.805 365.086 321.44 364.334 320.402C363.8 319.665 363.232 319.083 362.557 318.666C362.882 318.635 363.283 318.604 363.745 318.58C365.089 318.513 366.954 318.515 369.041 318.79C373.218 319.342 378.245 320.986 381.766 325.335C386.394 331.052 386.544 331.281 388.832 334.76C389.385 335.601 390.063 336.631 390.958 337.975Z" fill="#15E7BD" stroke="#08003F" stroke-width="0.575521"/>
<path fill-rule="evenodd" clip-rule="evenodd" d="M423.283 494.658H373.213C370.352 494.658 368.033 492.339 368.033 489.478V439.408C368.033 436.547 370.352 434.228 373.213 434.228H423.283C426.144 434.228 428.463 436.547 428.463 439.408V489.478C428.463 492.339 426.144 494.658 423.283 494.658Z" fill="#08003F"/>
<rect x="44" y="1.50049" width="176" height="100" fill="#F1F1F1"/>
<path d="M293.524 183.334C293.834 183.329 294.09 183.577 294.094 183.888C294.098 184.168 293.898 184.402 293.631 184.45L293.54 184.458L244.022 185.166C243.711 185.171 243.456 184.923 243.451 184.612C243.447 184.332 243.648 184.098 243.915 184.05L244.006 184.042L293.524 183.334Z" fill="#A3B5D6"/>
<path d="M139.375 341.501C139.267 341.436 139.212 341.334 139.192 341.287L139.42 341.341C139.413 341.369 139.398 341.422 139.375 341.501ZM92.9245 453.531L93.0757 453.73L92.9244 453.531C86.9611 458.063 80.1095 461.178 74.6918 462.327C71.9792 462.902 69.6526 462.978 67.9833 462.516C67.1514 462.286 66.4948 461.925 66.0311 461.437C65.5724 460.954 65.2895 460.334 65.2217 459.555C65.2253 458.869 65.6037 458.028 66.335 457.038C67.0645 456.05 68.1183 454.949 69.4091 453.754C71.6476 451.681 74.5713 449.348 77.6918 446.858C78.1703 446.477 78.6534 446.091 79.1393 445.702C82.7896 442.782 86.5968 439.679 89.7872 436.564C92.9733 433.453 95.568 430.31 96.7683 427.306C97.3942 425.739 97.9831 422.775 98.5579 418.805C99.1341 414.827 99.6997 409.811 100.272 404.125C100.891 397.974 101.518 391.03 102.175 383.759C102.732 377.59 103.31 371.186 103.923 364.83C105.259 350.974 106.758 337.338 108.558 326.824C109.458 321.566 110.432 317.098 111.495 313.776C112.027 312.114 112.578 310.748 113.15 309.716C113.725 308.678 114.304 308.008 114.876 307.698C116.165 307 117.683 305.906 119.322 304.675C119.768 304.34 120.223 303.994 120.686 303.642C121.928 302.699 123.224 301.715 124.54 300.782C126.346 299.502 128.178 298.326 129.942 297.494C131.708 296.661 133.382 296.184 134.878 296.275C136.36 296.365 137.687 297.013 138.776 298.478C139.874 299.954 140.736 302.269 141.243 305.696C142.257 312.547 141.839 323.742 139.18 341.271L139.173 341.299L139.127 341.461C139.085 341.608 139.022 341.831 138.938 342.126C138.769 342.715 138.519 343.59 138.199 344.712L137.982 345.472C137.357 347.66 136.515 350.607 135.521 354.09C133.293 361.898 130.3 372.403 127.266 383.108C121.2 404.507 114.964 426.732 114.363 429.776C113.802 432.617 113.379 435.052 113.016 437.144C112.851 438.098 112.697 438.981 112.549 439.799C112.074 442.416 111.65 444.356 111.033 445.859C110.421 447.351 109.62 448.406 108.387 449.254C107.145 450.109 105.451 450.763 103.034 451.425L103.034 451.425C102.453 451.584 101.823 451.593 101.114 451.559C100.906 451.549 100.69 451.535 100.467 451.521C99.9426 451.487 99.3808 451.451 98.796 451.457C97.1036 451.473 95.1632 451.831 92.9245 453.531Z" fill="#F1F1F1" stroke="#08003F" stroke-width="0.5"/>
<path d="M108.158 454.793L108.15 454.808L108.144 454.823L103.279 467.237L100.448 466.766L100.329 453.524L100.325 453.111L99.9606 453.306L100.079 453.527C99.9606 453.306 99.9606 453.306 99.9605 453.306L99.9601 453.307L99.9589 453.307L99.9547 453.309L99.9385 453.318C99.9332 453.321 99.927 453.325 99.9198 453.329C99.9079 453.335 99.8934 453.343 99.8764 453.353C99.822 453.383 99.7418 453.428 99.6378 453.488C99.4298 453.608 99.1265 453.788 98.7434 454.027C97.977 454.505 96.8908 455.222 95.6075 456.177C93.0414 458.089 89.6846 460.959 86.5225 464.793L86.5225 464.793C85.7764 465.698 84.6119 466.389 83.1368 466.885C81.6637 467.381 79.899 467.677 77.9757 467.806C74.129 468.062 69.6803 467.645 65.7327 466.844C61.7764 466.04 58.3616 464.858 56.5614 463.606C55.6473 462.971 55.2328 462.376 55.2506 461.865C55.2679 461.367 55.7065 460.789 56.9375 460.209C62.5061 457.582 66.9068 454.86 69.9162 452.794C71.4211 451.761 72.5783 450.891 73.36 450.28C73.7509 449.974 74.0479 449.732 74.2476 449.567C74.2492 449.566 74.2508 449.564 74.2525 449.563C74.3052 449.716 74.3806 449.908 74.4862 450.125C74.7557 450.679 75.2223 451.402 76.0123 452.088C77.5983 453.464 80.4467 454.657 85.5073 454.108L85.5133 454.108C85.5181 454.108 85.5236 454.107 85.5297 454.106C85.5339 454.106 85.5383 454.105 85.5432 454.104C85.5669 454.101 85.5987 454.095 85.6399 454.086C85.7222 454.067 85.843 454.032 86.0124 453.97C86.3508 453.845 86.889 453.606 87.7099 453.145C89.3513 452.225 92.1376 450.413 96.7386 446.842C100.712 443.759 104.893 440.883 108.081 438.777C109.675 437.724 111.021 436.864 111.968 436.267C112.439 435.97 112.811 435.739 113.066 435.581C112.857 441.039 111.66 445.788 110.499 449.201C109.903 450.956 109.316 452.356 108.879 453.317C108.661 453.797 108.48 454.168 108.354 454.417C108.291 454.542 108.241 454.637 108.208 454.7C108.191 454.731 108.179 454.755 108.17 454.771L108.161 454.788L108.158 454.792L108.158 454.793L108.158 454.793Z" fill="#08003F" stroke="#15E7BD" stroke-width="0.5"/>
<path fill-rule="evenodd" clip-rule="evenodd" d="M107.285 256.003L78.8701 400.95L130.104 411.13C130.104 411.13 148.191 333.3 158.979 266.691C158.979 266.691 166.968 232.35 139.598 227.263C112.229 222.175 107.285 256.003 107.285 256.003Z" fill="#08003F"/>
<path fill-rule="evenodd" clip-rule="evenodd" d="M139.283 224.73C193.264 218.037 233.125 217.466 245.608 220.596C245.608 220.596 271.522 225.791 266.66 245.738C260.728 270.08 232.864 270.486 232.864 270.486L142.615 277.566C135.439 278.204 111.824 280.937 110.462 253.202C109.177 227.042 138.107 224.876 139.283 224.73Z" fill="#08003F"/>
<path fill-rule="evenodd" clip-rule="evenodd" d="M261.536 0.5242C261.536 0.5242 223.544 7.8697 223.887 29.7412C224.064 40.9897 235.359 52.9072 230.142 56.4847C209.754 70.4602 232.493 75.3727 219.627 86.5072C200.493 103.069 213.218 130.12 233.868 127.756C255.258 125.306 245.844 156.002 282.534 146.32C303.21 140.863 309.155 136.111 323.724 128.354C338.295 120.596 346.317 81.7672 327.63 63.2932C316.008 51.5947 305.241 53.0602 298.422 33.2572C291.602 13.4527 285.227 1.3762 275.379 3.2827C271.634 -1.7828 261.536 0.5242 261.536 0.5242Z" fill="#08003F"/>
<path fill-rule="evenodd" clip-rule="evenodd" d="M240.514 48.4725C240.399 48.054 239.812 48.0465 239.683 48.4605C238.549 52.125 235.863 62.0025 239.722 62.3745C244.072 62.793 241.566 52.2915 240.514 48.4725Z" fill="#15E7BD"/>
<path d="M278.233 77.3851L278.481 77.3564L278.233 77.3851C279.042 84.4056 274.435 89.8592 267.455 91.1853C260.89 92.4304 254.6 87.9992 253.561 81.4017L252.207 63.2536L274.904 50.4438L274.93 50.6343C274.978 50.9993 275.049 51.5376 275.14 52.2306C275.321 53.6164 275.581 55.6209 275.895 58.0951C276.522 63.0435 277.367 69.8705 278.233 77.3851Z" fill="#F1F1F1" stroke="#08003F" stroke-width="0.5"/>
<path d="M256.297 20.3558L256.297 20.3559C255.463 20.945 254.866 21.2869 254.427 21.4207C254.205 21.4885 254 21.5104 253.817 21.4651C253.624 21.4176 253.483 21.3037 253.382 21.1574C253.286 21.018 253.226 20.8485 253.18 20.6772C253.134 20.5046 253.097 20.3089 253.061 20.1104C252.986 19.7057 252.905 19.2665 252.728 18.8365L252.728 18.8364C252.557 18.4192 252.397 18.1017 252.247 17.8694C252.094 17.6349 251.961 17.5032 251.851 17.4378C251.751 17.3783 251.668 17.3714 251.582 17.3967C251.484 17.4255 251.362 17.5029 251.215 17.655C250.918 17.9612 250.592 18.4905 250.211 19.2028C249.974 19.6454 249.723 20.1446 249.45 20.6887C249.286 21.0161 249.113 21.3598 248.93 21.7171C247.022 25.45 244.093 30.5407 238.698 32.3797C238.608 36.7127 238.481 45.4952 240.605 53.3642C241.682 57.3517 243.332 61.0853 245.842 63.8843C248.345 66.6769 251.711 68.5481 256.25 68.8096C263.309 69.2171 272.389 64.181 275.514 54.5699L275.752 54.6472L275.514 54.5699C276.531 51.4431 276.616 48.3074 276.138 45.802C275.899 44.5494 275.52 43.4609 275.053 42.6127C274.584 41.761 274.037 41.1711 273.47 40.8843C273.47 40.8843 273.47 40.8843 273.47 40.8843L273.583 40.6612C266.397 37.0293 265.562 33.298 264.111 26.8202C263.889 25.8311 263.654 24.7779 263.379 23.6512L256.297 20.3558ZM256.297 20.3558C257.417 19.5643 258.382 19.3958 259.199 19.5543C260.025 19.7144 260.739 20.2163 261.331 20.8385C261.922 21.4597 262.377 22.1848 262.684 22.7592C262.838 23.0455 262.953 23.2923 263.031 23.4669C263.069 23.5541 263.098 23.6232 263.117 23.67C263.127 23.6935 263.134 23.7113 263.138 23.7231L263.14 23.7262L256.297 20.3558Z" fill="#F1F1F1" stroke="#08003F" stroke-width="0.5"/>
<path d="M247.076 30.9357C247.343 30.8353 247.639 30.9473 247.776 31.1876L247.816 31.2723L249.505 35.7753L249.539 35.9161L249.58 36.4241C249.586 36.5176 249.593 36.6213 249.599 36.735C249.76 39.5829 249.639 43.2658 249.041 47.6011L248.951 48.2303L249.34 48.2587C250.173 48.3262 250.951 48.4284 251.672 48.5581L252.097 48.6391C252.512 48.7226 252.885 48.811 253.215 48.9008L253.455 48.9684C253.691 49.0375 253.856 49.0927 253.946 49.1267C254.243 49.2389 254.393 49.5709 254.281 49.8681C254.168 50.1653 253.837 50.3152 253.539 50.203L253.347 50.1379C253.287 50.1189 253.215 50.097 253.132 50.0727C252.777 49.969 252.356 49.8647 251.87 49.767C250.811 49.5539 249.605 49.4034 248.263 49.344C247.921 49.3289 247.668 49.0198 247.72 48.6813C248.431 44.0909 248.607 40.1945 248.471 37.2022L248.432 36.5055L248.401 36.1093L246.739 31.6764C246.639 31.4086 246.751 31.1133 246.991 30.9755L247.076 30.9357Z" fill="#08003F"/>
<path d="M238.872 31.7719C240.871 30.4157 243.669 30.0259 247.309 31.132C247.705 31.2524 247.929 31.6713 247.809 32.0676C247.688 32.4639 247.269 32.6876 246.873 32.5672C243.66 31.5909 241.332 31.9152 239.714 33.0132C239.173 33.3805 238.848 33.7351 238.719 33.9401C238.497 34.2899 238.033 34.3938 237.684 34.1721C237.334 33.9503 237.23 33.4869 237.452 33.1371C237.685 32.769 238.146 32.2641 238.872 31.7719Z" fill="#08003F"/>
<path d="M262.533 29.1494C263.672 29.118 264.712 29.1868 265.633 29.3726C266.039 29.4545 266.302 29.85 266.22 30.2561C266.139 30.6621 265.743 30.9249 265.337 30.843C264.538 30.6819 263.608 30.6203 262.574 30.6489C261.245 30.6856 259.812 30.8674 258.367 31.148C257.938 31.2313 257.531 31.3191 257.151 31.408L256.522 31.5621C256.37 31.6014 256.256 31.6323 256.186 31.6523C255.788 31.7664 255.373 31.536 255.259 31.1378C255.145 30.7396 255.375 30.3244 255.773 30.2103L256.144 30.1105L256.42 30.0409C256.925 29.9162 257.483 29.7917 258.081 29.6755C259.6 29.3805 261.112 29.1887 262.533 29.1494Z" fill="#08003F"/>
<path d="M255.562 54.5008C255.879 54.491 256.144 54.7406 256.154 55.0581C256.163 55.3439 255.962 55.5874 255.69 55.6404L255.597 55.6507L253.593 55.7122C253.275 55.722 253.01 55.4725 253 55.1549C252.992 54.8691 253.193 54.6256 253.465 54.5727L253.558 54.5623L255.562 54.5008Z" fill="#08003F"/>
<path d="M286.064 44.7303L286.061 44.7474L286.06 44.7647L286.06 44.7647L286.06 44.7649L286.06 44.7651L286.059 44.7677L286.059 44.7798C286.058 44.7909 286.057 44.808 286.055 44.8308C286.051 44.8764 286.044 44.9445 286.033 45.0321C286.01 45.2072 285.971 45.4595 285.902 45.764C285.765 46.374 285.512 47.1886 285.05 48.0112C284.163 49.5889 282.504 51.2102 279.36 51.4649C280.191 48.3211 280.615 45.0432 280.831 42.5248C280.944 41.2196 281.001 40.1165 281.029 39.3394C281.044 38.9508 281.051 38.6436 281.055 38.4332C281.055 38.4028 281.056 38.3745 281.056 38.3483C281.072 38.348 281.088 38.3479 281.105 38.3478C281.284 38.3467 281.539 38.3529 281.842 38.3822C282.451 38.4412 283.238 38.5924 283.977 38.9565C284.713 39.319 285.398 39.89 285.818 40.792C286.24 41.6958 286.409 42.9596 286.064 44.7303Z" fill="#F1F1F1" stroke="#08003F" stroke-width="0.5"/>
<path fill-rule="evenodd" clip-rule="evenodd" d="M282.49 49.8937C282.374 49.4752 281.788 49.4662 281.659 49.8802C280.526 53.5447 277.84 63.4237 281.698 63.7942C286.048 64.2142 283.541 53.7127 282.49 49.8937Z" fill="#15E7BD"/>
<path d="M214.203 164L167.703 180.5C162.37 187.334 156.003 200.6 173.203 199C190.403 197.4 225.37 188 240.703 183.5L244.703 148.5L215.703 139L214.203 164Z" fill="#F1F1F1" stroke="#08003F" stroke-width="0.5" stroke-linecap="round"/>
<path fill-rule="evenodd" clip-rule="evenodd" d="M262.998 35.4401C263.041 36.5445 262.405 37.4661 261.577 37.4996C260.751 37.5321 260.045 36.6642 260.002 35.5599C259.96 34.4566 260.595 33.5339 261.423 33.5014C262.249 33.4679 262.955 34.3358 262.998 35.4401Z" fill="#08003F"/>
<path fill-rule="evenodd" clip-rule="evenodd" d="M244.998 37.4401C245.041 38.5445 244.405 39.4661 243.577 39.4996C242.751 39.5321 242.045 38.6642 242.002 37.5599C241.96 36.4566 242.595 35.5339 243.423 35.5014C244.249 35.4679 244.955 36.3358 244.998 37.4401Z" fill="#08003F"/>
<path fill-rule="evenodd" clip-rule="evenodd" d="M214.383 142.488C214.705 137.418 210.819 92.0848 232.057 91.9108C248.577 91.7758 244.669 113.37 239.934 149.62L214.383 142.488Z" fill="#15E7BD"/>
<path fill-rule="evenodd" clip-rule="evenodd" d="M292.036 185.039C280.225 187.92 247.545 186.543 244.036 185.039C240.528 183.536 242.442 172.805 242.442 172.805C221.043 118.182 223.063 100.032 224.938 95.9716C227.472 90.4816 250.171 90.7936 251.029 86.5081C251.451 84.3946 251.302 77.1001 251.302 77.1001L280.56 75.4741C280.56 75.4741 282.192 83.5066 283.738 86.0836C286.746 91.0966 305.229 87.2101 312.832 97.3471C326.419 115.464 307.861 146.6 297.651 169.248C297.651 169.248 298.284 179.894 292.036 185.039Z" fill="#15E7BD"/>
<path fill-rule="evenodd" clip-rule="evenodd" d="M249.03 261.307L224.074 235.213C224.074 235.213 229.456 206.118 243.283 193.443L292.605 191.713C292.605 191.713 313.768 206.452 311.467 242.16L273.633 261.513L249.03 261.307Z" fill="#08003F"/>
<path fill-rule="evenodd" clip-rule="evenodd" d="M293.759 192.29L243.285 193.443L244.539 185.718L292.089 184.283L293.759 192.29Z" fill="#E4EBF7"/>
<path d="M260.873 193.459C261.182 193.495 261.403 193.774 261.367 194.083C260.796 199.013 260.364 204.371 260.06 210.093C259.378 222.932 259.367 236.593 259.775 249.599L259.852 251.887C259.919 253.776 259.99 255.501 260.061 257.038L260.196 259.676C260.214 259.986 259.977 260.252 259.667 260.271C259.357 260.289 259.091 260.052 259.072 259.742L259.013 258.64L258.911 256.503C258.857 255.313 258.804 254.018 258.753 252.629L258.728 251.927C258.242 238.213 258.212 223.665 258.937 210.033C259.242 204.289 259.676 198.908 260.25 193.953C260.282 193.676 260.511 193.469 260.782 193.456L260.873 193.459Z" fill="#F1F1F1"/>
<path d="M293.612 192.127C293.923 192.122 294.179 192.369 294.184 192.68C294.189 192.959 293.989 193.195 293.723 193.243L293.632 193.252L244.166 194.116C243.856 194.121 243.599 193.874 243.594 193.563C243.589 193.284 243.789 193.048 244.055 193L244.147 192.991L293.612 192.127Z" fill="#F1F1F1"/>
<path d="M244.452 336.365C244.327 336.365 244.228 336.306 244.186 336.276L244.41 336.207C244.418 336.234 244.432 336.287 244.452 336.365ZM226.646 302.377C231.321 308.135 237.047 318.675 244.168 336.269L244.176 336.299L244.223 336.474C244.264 336.632 244.328 336.872 244.411 337.19C244.578 337.824 244.826 338.766 245.143 339.974L245.333 340.698C245.954 343.063 246.796 346.271 247.796 350.071C250.006 358.477 252.983 369.784 256.032 381.298C262.128 404.315 268.515 428.183 269.622 431.313L269.858 431.23L269.622 431.313C270.657 434.236 271.597 436.709 272.404 438.834C272.772 439.803 273.113 440.699 273.423 441.533C274.414 444.202 275.083 446.222 275.336 447.945C275.586 449.656 275.425 451.068 274.751 452.526C274.073 453.994 272.869 455.523 271.004 457.452C270.554 457.917 269.976 458.269 269.304 458.625C269.107 458.729 268.901 458.834 268.689 458.942C268.187 459.198 267.65 459.471 267.114 459.796C265.567 460.732 263.979 462.119 262.848 464.904C259.829 472.334 255.219 478.944 250.855 482.961C248.67 484.972 246.567 486.314 244.773 486.801C243.879 487.043 243.074 487.07 242.377 486.873C241.687 486.677 241.084 486.258 240.594 485.574C240.22 484.935 240.11 483.949 240.243 482.637C240.376 481.327 240.745 479.737 241.282 477.931C242.212 474.799 243.631 471.054 245.146 467.058C245.378 466.446 245.612 465.828 245.847 465.205C247.615 460.524 249.427 455.589 250.664 450.98C251.9 446.377 252.573 442.069 252.039 438.651C251.761 436.87 250.686 433.82 249.049 429.851C247.408 425.873 245.191 420.946 242.614 415.398C239.827 409.397 236.614 402.66 233.25 395.606C230.396 389.622 227.433 383.409 224.528 377.221C218.195 363.733 212.132 350.357 208.05 339.692C206.009 334.358 204.466 329.711 203.631 326.07C203.214 324.25 202.976 322.689 202.939 321.425C202.901 320.154 203.069 319.217 203.429 318.615C204.234 317.27 205.035 315.435 205.871 313.407C206.099 312.855 206.329 312.288 206.564 311.713C207.193 310.166 207.849 308.551 208.553 306.973C209.517 304.808 210.563 302.724 211.733 300.994C212.905 299.262 214.189 297.906 215.62 297.171C217.039 296.442 218.62 296.315 220.427 297.072C222.248 297.834 224.307 299.498 226.646 302.377Z" fill="#F1F1F1" stroke="#08003F" stroke-width="0.5"/>
<path d="M277.566 458.743L277.567 458.759L277.569 458.775L279.868 472.876L276.978 473.999L269.632 461.856L269.417 461.502L269.204 461.856L269.418 461.986C269.204 461.856 269.204 461.857 269.204 461.857L269.203 461.857L269.203 461.858L269.2 461.863L269.19 461.879C269.181 461.894 269.168 461.916 269.152 461.945C269.118 462.002 269.069 462.088 269.006 462.2C268.88 462.423 268.699 462.754 268.477 463.183C268.032 464.042 267.424 465.294 266.764 466.874C265.445 470.034 263.921 474.508 263.102 479.764L263.102 479.764C262.908 481.009 262.21 482.284 261.122 483.548C260.035 484.81 258.57 486.047 256.868 487.216C253.464 489.553 249.138 491.598 245.064 493.015C240.982 494.435 237.19 495.211 234.845 495.04C233.655 494.954 232.94 494.632 232.673 494.143C232.412 493.666 232.506 492.886 233.323 491.679L233.323 491.679C237.017 486.221 239.583 481.313 241.225 477.768C242.047 475.996 242.638 474.564 243.023 473.574C243.216 473.079 243.358 472.695 243.451 472.434C243.455 472.423 243.459 472.413 243.462 472.403C243.596 472.519 243.776 472.66 244.003 472.809C244.552 473.171 245.374 473.581 246.473 473.781C248.68 474.182 251.949 473.727 256.306 470.462L256.312 470.458C256.318 470.453 256.327 470.447 256.336 470.439C256.356 470.423 256.382 470.401 256.414 470.37C256.479 470.308 256.571 470.211 256.693 470.062C256.935 469.763 257.3 469.249 257.804 468.378C258.813 466.636 260.389 463.448 262.677 457.649L262.444 457.558L262.677 457.649C264.653 452.64 266.933 447.709 268.72 444.028C269.614 442.189 270.383 440.662 270.93 439.596C271.203 439.063 271.42 438.645 271.569 438.36C271.574 438.352 271.578 438.343 271.582 438.335C274.379 443.487 275.874 448.527 276.67 452.312C277.078 454.254 277.302 455.865 277.424 456.988C277.485 457.55 277.521 457.99 277.541 458.289C277.551 458.439 277.558 458.553 277.561 458.629C277.562 458.641 277.562 458.652 277.563 458.662C277.564 458.684 277.565 458.702 277.565 458.715L277.566 458.737L277.566 458.742L277.566 458.743L277.566 458.743Z" fill="#08003F" stroke="#15E7BD" stroke-width="0.5"/>
<path fill-rule="evenodd" clip-rule="evenodd" d="M166.503 265.457L209.966 417.482L263.768 402.248C263.768 402.248 243.128 319.241 220.992 250.485C220.992 250.485 211.893 213.857 183.323 222.329C154.752 230.801 166.503 265.457 166.503 265.457Z" fill="#08003F"/>
<path d="M276.218 209.23C276.526 209.192 276.807 209.412 276.844 209.72C276.879 209.998 276.704 210.253 276.444 210.328L276.355 210.347L190.855 220.847C190.546 220.885 190.266 220.666 190.228 220.357C190.194 220.08 190.368 219.825 190.628 219.749L190.718 219.73L276.218 209.23Z" fill="#F1F1F1"/>
<path fill-rule="evenodd" clip-rule="evenodd" d="M194.831 219.756C254.703 210.951 273.474 211.062 287.436 214.227C287.436 214.227 316.391 219.352 311.487 241.662C305.501 268.887 274.52 270.04 274.52 270.04L199.868 278.439C191.903 279.331 163.491 281.206 163.491 252.151C163.491 223.012 193.527 219.948 194.831 219.756Z" fill="#08003F"/>
<path d="M184.775 200.957L265.051 220.373L186.144 237.486L120.157 221.661L184.775 200.957Z" fill="#08003F" stroke="#F1F1F1" stroke-width="0.74259"/>
<path fill-rule="evenodd" clip-rule="evenodd" d="M182.754 232.373L241.27 219.682L183.138 205.098L133.831 220.64L182.754 232.373Z" fill="#F1F1F1"/>
<path fill-rule="evenodd" clip-rule="evenodd" d="M266.901 224.592L266.73 220.42L184.463 237.585L186.119 241.956L266.901 224.592Z" fill="#F1F1F1"/>
<path d="M172.512 209.214L219.944 223.619C220.129 223.675 220.233 223.87 220.177 224.054C220.128 224.216 219.973 224.316 219.811 224.3L219.741 224.287L172.309 209.883C172.125 209.827 172.021 209.632 172.077 209.447C172.126 209.286 172.281 209.186 172.443 209.201L172.512 209.214Z" fill="#08003F"/>
<path d="M178.53 206.389L231.513 221.514C231.698 221.567 231.806 221.76 231.753 221.946C231.706 222.108 231.553 222.21 231.391 222.198L231.321 222.185L178.338 207.061C178.153 207.008 178.046 206.814 178.098 206.629C178.145 206.467 178.299 206.364 178.46 206.376L178.53 206.389Z" fill="#08003F"/>
<path d="M172.053 213.484L211.921 226.199C212.104 226.257 212.206 226.454 212.147 226.637C212.096 226.798 211.939 226.896 211.778 226.879L211.708 226.864L171.841 214.15C171.657 214.091 171.556 213.895 171.614 213.711C171.666 213.55 171.822 213.452 171.984 213.47L172.053 213.484Z" fill="#08003F"/>
<path d="M161.421 215.157L201.289 227.871C201.473 227.93 201.574 228.126 201.515 228.31C201.464 228.47 201.307 228.568 201.146 228.551L201.077 228.536L161.209 215.822C161.025 215.763 160.924 215.567 160.982 215.383C161.034 215.223 161.191 215.125 161.352 215.142L161.421 215.157Z" fill="#08003F"/>
<path d="M151.645 217.396L191.512 230.11C191.696 230.169 191.798 230.365 191.739 230.549C191.688 230.71 191.531 230.807 191.369 230.79L191.3 230.776L151.433 218.061C151.249 218.003 151.147 217.806 151.206 217.623C151.257 217.462 151.414 217.364 151.576 217.381L151.645 217.396Z" fill="#08003F"/>
<path d="M231.468 217.67C231.658 217.636 231.84 217.762 231.874 217.952C231.904 218.118 231.811 218.277 231.661 218.338L231.593 218.357L181.417 227.453C181.228 227.487 181.046 227.361 181.012 227.171C180.981 227.005 181.074 226.846 181.225 226.785L181.293 226.766L231.468 217.67Z" fill="#08003F"/>
<path d="M220.037 214.352C220.227 214.318 220.408 214.444 220.443 214.634C220.473 214.8 220.38 214.96 220.229 215.02L220.161 215.039L169.985 224.135C169.795 224.169 169.613 224.043 169.579 223.854C169.549 223.688 169.641 223.528 169.792 223.467L169.86 223.448L220.037 214.352Z" fill="#08003F"/>
<path d="M205.994 212.503C206.183 212.469 206.365 212.595 206.399 212.784C206.429 212.951 206.337 213.11 206.186 213.171L206.118 213.19L155.943 222.286C155.753 222.32 155.571 222.194 155.537 222.004C155.507 221.838 155.599 221.678 155.75 221.618L155.818 221.599L205.994 212.503Z" fill="#08003F"/>
<path d="M196.201 206.042C196.391 206.008 196.572 206.134 196.607 206.324C196.637 206.49 196.544 206.65 196.394 206.71L196.326 206.729L146.149 215.825C145.959 215.859 145.777 215.733 145.743 215.544C145.713 215.378 145.806 215.218 145.956 215.157L146.024 215.138L196.201 206.042Z" fill="#08003F"/>
<path fill-rule="evenodd" clip-rule="evenodd" d="M186.053 241.962L182.417 242.486L118.618 226.343L87.2832 121.811L155.563 131.465L186.053 241.962Z" fill="#F1F1F1"/>
<path d="M181.232 241.468L115.192 224.787L115.191 224.786C114.831 224.697 114.543 224.422 114.435 224.064L84.2078 123.613L84.2076 123.612C83.9835 122.87 84.6057 122.145 85.3737 122.254C85.3738 122.254 85.3739 122.254 85.374 122.254L150.147 131.503C150.147 131.503 150.147 131.503 150.147 131.503C150.564 131.563 150.907 131.866 151.02 132.272L181.232 241.468Z" fill="#08003F" stroke="#F1F1F1" stroke-width="1.48518"/>
<circle r="11.1388" transform="matrix(-0.939899 0.341454 0.341454 0.939899 129.272 178.773)" fill="#15E7BD"/>
<path d="M132.273 181.63C132.335 181.63 132.405 181.613 132.481 181.579C132.55 181.544 132.626 181.502 132.709 181.454L136.171 179.437C136.255 179.388 136.317 179.326 136.359 179.25C136.393 179.167 136.411 179.083 136.411 179C136.411 178.91 136.39 178.827 136.348 178.751C136.307 178.668 136.244 178.605 136.161 178.564L132.72 176.588C132.644 176.54 132.574 176.505 132.512 176.484C132.443 176.457 132.377 176.443 132.314 176.443C132.197 176.436 132.086 176.488 131.982 176.599C131.878 176.71 131.826 176.827 131.826 176.952C131.826 177.021 131.847 177.087 131.888 177.15C131.923 177.205 131.975 177.254 132.044 177.295L135.672 179.375L135.724 178.584L132.065 180.736C131.975 180.785 131.912 180.84 131.878 180.903C131.843 180.965 131.826 181.034 131.826 181.111C131.826 181.249 131.874 181.371 131.971 181.475C132.068 181.579 132.169 181.63 132.273 181.63ZM131.167 183.814C131.271 183.814 131.374 183.772 131.478 183.689C131.582 183.606 131.634 183.502 131.634 183.377C131.634 183.301 131.614 183.228 131.572 183.159L127.258 174.415C127.209 174.318 127.15 174.246 127.081 174.197C127.005 174.149 126.921 174.124 126.831 174.124C126.734 174.124 126.637 174.163 126.54 174.239C126.436 174.315 126.384 174.422 126.384 174.561C126.384 174.637 126.402 174.714 126.436 174.79L130.751 183.533C130.799 183.623 130.858 183.692 130.927 183.741C130.997 183.789 131.076 183.814 131.167 183.814ZM125.701 181.537C125.819 181.537 125.93 181.481 126.034 181.371C126.131 181.253 126.179 181.135 126.179 181.017C126.179 180.941 126.162 180.875 126.127 180.82C126.086 180.764 126.023 180.712 125.94 180.664L122.312 178.605L122.249 179.385L125.95 177.222C126.027 177.181 126.082 177.129 126.117 177.067C126.144 177.004 126.158 176.935 126.158 176.859C126.158 176.72 126.11 176.599 126.013 176.495C125.916 176.391 125.815 176.339 125.711 176.339C125.649 176.339 125.583 176.356 125.514 176.391C125.438 176.425 125.361 176.467 125.285 176.516L121.813 178.522C121.73 178.571 121.667 178.633 121.626 178.709C121.584 178.785 121.563 178.872 121.563 178.969C121.563 179.059 121.584 179.142 121.626 179.219C121.66 179.295 121.719 179.357 121.802 179.406L125.295 181.381C125.372 181.423 125.444 181.461 125.514 181.495C125.576 181.523 125.638 181.537 125.701 181.537Z" fill="#08003F"/>
<path d="M292.5 162L218 192C228 195.6 226.5 203.5 224.5 207C246 202.334 292.4 191.9 306 187.5C319.6 183.1 322.667 175 322.5 171.5L319 137.5L289 142L292.5 162Z" fill="#F1F1F1" stroke="#08003F" stroke-width="0.5" stroke-linecap="round"/>
<path fill-rule="evenodd" clip-rule="evenodd" d="M302.414 91.1523C314.255 93.5973 318.797 105.285 319.871 138.455L288.617 143.522C288.546 138.441 268.064 87.4923 304.904 91.6308" fill="#15E7BD"/>
<path d="M293.882 97.3945C294.167 97.27 294.499 97.3997 294.623 97.6843C294.748 97.9689 294.618 98.3006 294.333 98.4251C291.841 99.5155 289.821 102.468 288.275 106.716C287.559 108.683 286.993 110.796 286.563 112.91C286.442 113.502 286.339 114.06 286.253 114.575L286.147 115.241L286.088 115.654L289.177 143.46C289.208 143.738 289.031 143.991 288.77 144.063L288.68 144.081C288.402 144.112 288.149 143.935 288.076 143.674L288.059 143.584L284.963 115.711L284.964 115.58L285.034 115.077L285.08 114.777C285.18 114.145 285.306 113.442 285.461 112.685C285.901 110.521 286.481 108.356 287.218 106.331C288.86 101.82 291.035 98.6401 293.882 97.3945Z" fill="#08003F"/>
<path d="M277.078 87.5965C277.388 87.5859 277.649 87.829 277.659 88.1395C277.669 88.4189 277.473 88.6577 277.207 88.7104L277.116 88.7209L255.413 89.4619C255.102 89.4725 254.842 89.2294 254.831 88.9189C254.822 88.6395 255.018 88.4007 255.283 88.348L255.374 88.3375L277.078 87.5965Z" fill="#08003F"/>
<path d="M231.424 105.824C231.689 105.736 231.974 105.856 232.1 106.095L232.136 106.18L233.825 111.247C233.855 111.337 233.861 111.432 233.844 111.525L233.82 111.616L229.451 123.68L229.37 123.854C229.335 123.933 229.293 124.033 229.245 124.152C229.083 124.56 228.919 125.041 228.766 125.591C226.939 132.149 228.195 140.218 234.888 149.058C235.076 149.305 235.027 149.658 234.779 149.846C234.532 150.033 234.179 149.984 233.991 149.737C227.078 140.605 225.764 132.173 227.682 125.289C227.846 124.699 228.023 124.18 228.201 123.735L228.325 123.436C228.36 123.355 228.389 123.294 228.407 123.259L228.421 123.233L232.695 111.417L231.068 106.535C230.98 106.27 231.1 105.986 231.34 105.86L231.424 105.824Z" fill="#08003F"/>
<path d="M206.224 210.227L206.261 209.98L206.152 209.963L206.066 210.033L197.338 217.14C197.018 217.359 196.757 217.462 196.537 217.503C196.317 217.545 196.125 217.528 195.94 217.487C195.847 217.466 195.756 217.439 195.661 217.41C195.644 217.405 195.627 217.4 195.609 217.394C195.532 217.371 195.451 217.345 195.371 217.324C195.172 217.272 194.948 217.235 194.702 217.291C194.24 217.396 193.882 217.351 193.603 217.237C193.321 217.122 193.103 216.93 192.935 216.718C192.767 216.504 192.653 216.275 192.582 216.097C192.546 216.009 192.522 215.934 192.506 215.883C192.499 215.857 192.493 215.838 192.49 215.825L192.486 215.811L192.486 215.809L192.486 215.808L192.486 215.808L192.486 215.808L192.486 215.808L192.451 215.655L192.297 215.62C192.058 215.567 191.811 215.59 191.602 215.61L191.574 215.613C191.363 215.634 191.18 215.652 191 215.629C190.823 215.607 190.653 215.544 190.485 215.393C190.312 215.237 190.128 214.975 189.951 214.532L189.878 214.348L189.682 214.378L189.682 214.378L189.682 214.378L189.682 214.378L189.681 214.378L189.681 214.378L189.675 214.379C189.668 214.38 189.655 214.381 189.639 214.382C189.607 214.384 189.557 214.386 189.496 214.384C189.372 214.379 189.203 214.356 189.022 214.289C188.672 214.159 188.246 213.849 188.021 213.075L188.021 213.075C188.022 213.077 188.022 213.078 188.022 213.078C188.023 213.078 188.02 213.047 188.029 212.963C188.038 212.875 188.058 212.757 188.088 212.608C188.149 212.311 188.247 211.91 188.378 211.427C188.638 210.461 189.02 209.177 189.461 207.754C190.342 204.909 191.455 201.515 192.287 199.008C192.99 196.896 194.816 195.362 197.018 195.03L197.018 195.03L218.295 191.827C218.312 191.831 218.334 191.837 218.361 191.845C218.436 191.865 218.547 191.898 218.688 191.943C218.971 192.033 219.372 192.174 219.846 192.377C220.794 192.783 222.026 193.433 223.166 194.41C224.305 195.386 225.35 196.686 225.936 198.393C226.521 200.098 226.655 202.229 225.946 204.878L226.187 204.943L225.946 204.878C225.437 206.78 223.994 208.063 222.063 208.915C220.13 209.769 217.734 210.176 215.385 210.336C213.04 210.495 210.758 210.407 209.061 210.277C208.213 210.213 207.512 210.138 207.023 210.08C206.779 210.051 206.588 210.026 206.458 210.008C206.393 209.999 206.344 209.992 206.311 209.987L206.273 209.982L206.264 209.981L206.262 209.98L206.261 209.98L206.224 210.227Z" fill="#F1F1F1" stroke="#08003F" stroke-width="0.5"/>
<path d="M201.575 208.06L201.511 208.088L201.47 208.143L195.195 216.784C195.103 216.91 194.937 216.951 194.8 216.89L194.733 216.85C194.613 216.757 194.574 216.595 194.634 216.461L194.675 216.393L201.038 207.634C201.059 207.605 201.084 207.58 201.114 207.559L201.183 207.522L207.593 204.784C207.758 204.714 207.949 204.79 208.02 204.955C208.082 205.101 208.03 205.267 207.903 205.353L207.839 205.386L201.575 208.06Z" fill="#F1F1F1" stroke="#08003F" stroke-width="0.5"/>
<path d="M197.883 205.946L197.823 205.979L197.789 206.039L192.676 214.983C192.676 214.983 192.676 214.983 192.676 214.983C192.597 215.121 192.433 215.179 192.289 215.13L192.225 215.1C192.093 215.019 192.037 214.859 192.086 214.717L192.116 214.652L197.303 205.579C197.321 205.548 197.343 205.52 197.37 205.497L197.435 205.452L203.325 202.135C203.482 202.047 203.68 202.102 203.768 202.259L203.984 202.137L203.768 202.259C203.846 202.397 203.812 202.568 203.695 202.666L203.636 202.706L197.883 205.946Z" fill="#F1F1F1" stroke="#08003F" stroke-width="0.5"/>
<path d="M195.721 203.256L195.676 203.291L195.651 203.342L190.985 212.944C190.916 213.086 190.756 213.156 190.608 213.116L190.543 213.09C190.405 213.019 190.339 212.862 190.378 212.717L190.404 212.65L195.125 202.939L194.9 202.83L195.125 202.939C195.138 202.913 195.155 202.888 195.175 202.866L195.223 202.821L199.195 199.678C199.336 199.567 199.541 199.591 199.652 199.731C199.749 199.854 199.744 200.025 199.648 200.14L199.59 200.195L195.721 203.256Z" fill="#F1F1F1" stroke="#08003F" stroke-width="0.5"/>
<path fill-rule="evenodd" clip-rule="evenodd" d="M139.261 17.1698C139.306 17.2157 139.306 17.2899 139.26 17.3356L137.283 19.3037L139.152 21.1636C139.197 21.2093 139.198 21.2835 139.152 21.3293C139.106 21.3752 139.032 21.3754 138.986 21.3297L137.035 19.3868C137.012 19.3648 137 19.3349 137 19.3037C137 19.2726 137.012 19.2427 137.035 19.2207L139.095 17.1695C139.141 17.1238 139.215 17.124 139.261 17.1698Z" fill="#08003F"/>
<path fill-rule="evenodd" clip-rule="evenodd" d="M142.597 16.5275C142.733 16.5929 142.79 16.7562 142.725 16.8924L140.352 21.8338C140.287 21.9699 140.123 22.0273 139.987 21.9619C139.851 21.8965 139.794 21.7332 139.859 21.597L142.232 16.6556C142.297 16.5195 142.461 16.4621 142.597 16.5275Z" fill="#15E7BD"/>
<path fill-rule="evenodd" clip-rule="evenodd" d="M178.739 42.1698C178.694 42.2157 178.694 42.2899 178.74 42.3356L180.717 44.3037L178.848 46.1636C178.803 46.2093 178.802 46.2835 178.848 46.3293C178.894 46.3752 178.968 46.3754 179.014 46.3297L180.965 44.3868C180.988 44.3648 181 44.3349 181 44.3037C181 44.2726 180.988 44.2427 180.965 44.2207L178.905 42.1695C178.859 42.1238 178.785 42.124 178.739 42.1698Z" fill="#08003F"/>
<path fill-rule="evenodd" clip-rule="evenodd" d="M178.013 41.5275C178.149 41.5929 178.206 41.7562 178.141 41.8924L175.768 46.8338C175.703 46.9699 175.539 47.0273 175.403 46.9619C175.267 46.8965 175.21 46.7332 175.275 46.597L177.648 41.6556C177.713 41.5195 177.877 41.4621 178.013 41.5275Z" fill="#15E7BD"/>
<path d="M205.952 24.21H143.004V27.1664H205.952V24.21Z" fill="#08003F"/>
<path d="M174.475 30.4946H143.001V33.4511H174.475V30.4946Z" fill="#15E7BD"/>
<path d="M174.475 43.0635H143.001V46.02H174.475V43.0635Z" fill="#15E7BD"/>
<path d="M161.884 17.8862H143V20.8427H161.884V17.8862Z" fill="#08003F"/>
<path d="M190.288 30.4556H180.83V33.4121H190.288V30.4556Z" fill="#08003F"/>
<path d="M190.213 36.7788H143.002V39.7353H190.213V36.7788Z" fill="#F1F1F1"/>
<path fill-rule="evenodd" clip-rule="evenodd" d="M59.2608 17.1698C59.3064 17.2157 59.3063 17.2899 59.2604 17.3356L57.2833 19.3037L59.1516 21.1636C59.1975 21.2093 59.1976 21.2835 59.152 21.3293C59.1063 21.3752 59.0321 21.3754 58.9862 21.3297L57.0345 19.3868C57.0124 19.3648 57 19.3349 57 19.3037C57 19.2726 57.0124 19.2427 57.0345 19.2207L59.0951 17.1695C59.1409 17.1238 59.2151 17.124 59.2608 17.1698Z" fill="#08003F"/>
<path fill-rule="evenodd" clip-rule="evenodd" d="M62.5969 16.5275C62.733 16.5929 62.7904 16.7562 62.725 16.8924L60.352 21.8338C60.2866 21.9699 60.1232 22.0273 59.9871 21.9619C59.851 21.8965 59.7936 21.7332 59.859 21.597L62.232 16.6556C62.2974 16.5195 62.4608 16.4621 62.5969 16.5275Z" fill="#15E7BD"/>
<path fill-rule="evenodd" clip-rule="evenodd" d="M98.7392 42.1698C98.6936 42.2157 98.6937 42.2899 98.7396 42.3356L100.717 44.3037L98.8484 46.1636C98.8025 46.2093 98.8024 46.2835 98.848 46.3293C98.8937 46.3752 98.9679 46.3754 99.0138 46.3297L100.965 44.3868C100.988 44.3648 101 44.3349 101 44.3037C101 44.2726 100.988 44.2427 100.965 44.2207L98.9049 42.1695C98.8591 42.1238 98.7849 42.124 98.7392 42.1698Z" fill="#08003F"/>
<path fill-rule="evenodd" clip-rule="evenodd" d="M98.0129 41.5275C98.149 41.5929 98.2064 41.7562 98.141 41.8924L95.768 46.8338C95.7026 46.9699 95.5392 47.0273 95.4031 46.9619C95.267 46.8965 95.2096 46.7332 95.275 46.597L97.648 41.6556C97.7134 41.5195 97.8768 41.4621 98.0129 41.5275Z" fill="#15E7BD"/>
<path d="M125.952 24.21H63.0039V27.1664H125.952V24.21Z" fill="#08003F"/>
<path d="M94.4749 30.4946H63.001V33.4511H94.4749V30.4946Z" fill="#15E7BD"/>
<path d="M94.4749 43.0635H63.001V46.02H94.4749V43.0635Z" fill="#15E7BD"/>
<path d="M81.8843 17.8862H63V20.8427H81.8843V17.8862Z" fill="#08003F"/>
<path d="M110.288 30.4556H100.83V33.4121H110.288V30.4556Z" fill="#08003F"/>
<path d="M110.213 36.7788H63.002V39.7353H110.213V36.7788Z" fill="#F1F1F1"/>
<path fill-rule="evenodd" clip-rule="evenodd" d="M139.261 57.1698C139.306 57.2157 139.306 57.2899 139.26 57.3356L137.283 59.3037L139.152 61.1636C139.197 61.2093 139.198 61.2835 139.152 61.3293C139.106 61.3752 139.032 61.3754 138.986 61.3297L137.035 59.3868C137.012 59.3648 137 59.3349 137 59.3037C137 59.2726 137.012 59.2427 137.035 59.2207L139.095 57.1695C139.141 57.1238 139.215 57.124 139.261 57.1698Z" fill="#08003F"/>
<path fill-rule="evenodd" clip-rule="evenodd" d="M142.597 56.5275C142.733 56.5929 142.79 56.7562 142.725 56.8924L140.352 61.8338C140.287 61.9699 140.123 62.0273 139.987 61.9619C139.851 61.8965 139.794 61.7332 139.859 61.597L142.232 56.6556C142.297 56.5195 142.461 56.4621 142.597 56.5275Z" fill="#15E7BD"/>
<path fill-rule="evenodd" clip-rule="evenodd" d="M178.739 82.1698C178.694 82.2157 178.694 82.2899 178.74 82.3356L180.717 84.3037L178.848 86.1636C178.803 86.2093 178.802 86.2835 178.848 86.3293C178.894 86.3752 178.968 86.3754 179.014 86.3297L180.965 84.3868C180.988 84.3648 181 84.3349 181 84.3037C181 84.2726 180.988 84.2427 180.965 84.2207L178.905 82.1695C178.859 82.1238 178.785 82.124 178.739 82.1698Z" fill="#08003F"/>
<path fill-rule="evenodd" clip-rule="evenodd" d="M178.013 81.5275C178.149 81.5929 178.206 81.7562 178.141 81.8924L175.768 86.8338C175.703 86.9699 175.539 87.0273 175.403 86.9619C175.267 86.8965 175.21 86.7332 175.275 86.597L177.648 81.6556C177.713 81.5195 177.877 81.4621 178.013 81.5275Z" fill="#15E7BD"/>
<path d="M205.952 64.21H143.004V67.1664H205.952V64.21Z" fill="#08003F"/>
<path d="M174.475 70.4946H143.001V73.4511H174.475V70.4946Z" fill="#15E7BD"/>
<path d="M174.475 83.0635H143.001V86.02H174.475V83.0635Z" fill="#15E7BD"/>
<path d="M161.884 57.8862H143V60.8427H161.884V57.8862Z" fill="#08003F"/>
<path d="M190.288 70.4556H180.83V73.4121H190.288V70.4556Z" fill="#08003F"/>
<path d="M190.213 76.7788H143.002V79.7353H190.213V76.7788Z" fill="#F1F1F1"/>
<path fill-rule="evenodd" clip-rule="evenodd" d="M59.2608 57.1698C59.3064 57.2157 59.3063 57.2899 59.2604 57.3356L57.2833 59.3037L59.1516 61.1636C59.1975 61.2093 59.1976 61.2835 59.152 61.3293C59.1063 61.3752 59.0321 61.3754 58.9862 61.3297L57.0345 59.3868C57.0124 59.3648 57 59.3349 57 59.3037C57 59.2726 57.0124 59.2427 57.0345 59.2207L59.0951 57.1695C59.1409 57.1238 59.2151 57.124 59.2608 57.1698Z" fill="#08003F"/>
<path fill-rule="evenodd" clip-rule="evenodd" d="M62.5969 56.5275C62.733 56.5929 62.7904 56.7562 62.725 56.8924L60.352 61.8338C60.2866 61.9699 60.1232 62.0273 59.9871 61.9619C59.851 61.8965 59.7936 61.7332 59.859 61.597L62.232 56.6556C62.2974 56.5195 62.4608 56.4621 62.5969 56.5275Z" fill="#15E7BD"/>
<path fill-rule="evenodd" clip-rule="evenodd" d="M98.7392 82.1698C98.6936 82.2157 98.6937 82.2899 98.7396 82.3356L100.717 84.3037L98.8484 86.1636C98.8025 86.2093 98.8024 86.2835 98.848 86.3293C98.8937 86.3752 98.9679 86.3754 99.0138 86.3297L100.965 84.3868C100.988 84.3648 101 84.3349 101 84.3037C101 84.2726 100.988 84.2427 100.965 84.2207L98.9049 82.1695C98.8591 82.1238 98.7849 82.124 98.7392 82.1698Z" fill="#08003F"/>
<path fill-rule="evenodd" clip-rule="evenodd" d="M98.0129 81.5275C98.149 81.5929 98.2064 81.7562 98.141 81.8924L95.768 86.8338C95.7026 86.9699 95.5392 87.0273 95.4031 86.9619C95.267 86.8965 95.2096 86.7332 95.275 86.597L97.648 81.6556C97.7134 81.5195 97.8768 81.4621 98.0129 81.5275Z" fill="#15E7BD"/>
<path d="M125.952 64.21H63.0039V67.1664H125.952V64.21Z" fill="#08003F"/>
<path d="M94.4749 70.4946H63.001V73.4511H94.4749V70.4946Z" fill="#15E7BD"/>
<path d="M94.4749 83.0635H63.001V86.02H94.4749V83.0635Z" fill="#15E7BD"/>
<path d="M81.8843 57.8862H63V60.8427H81.8843V57.8862Z" fill="#08003F"/>
<path d="M110.288 70.4556H100.83V73.4121H110.288V70.4556Z" fill="#08003F"/>
<path d="M110.213 76.7788H63.002V79.7353H110.213V76.7788Z" fill="#F1F1F1"/>
</svg>
