<svg width="162" height="73" fill="none" xmlns="http://www.w3.org/2000/svg"><path d="M67.173 70.37c2.346 0 4.41-.57 6.193-1.71 1.83-1.141 2.745-2.853 2.745-5.134 0-2.324-.985-4.099-2.956-5.324-1.923-1.225-4.692-2.282-8.305-3.169-3.566-.93-6.17-1.732-7.812-2.408a21.498 21.498 0 0 1-4.575-2.662C49.554 47.766 48.1 44.365 48.1 39.76c0-3.76 1.478-6.992 4.434-9.696 3.003-2.704 7.085-4.057 12.246-4.057 2.487 0 5.067.338 7.742 1.014 2.721.634 4.41.951 5.067.951s1.244-.422 1.76-1.267h.774l.493 12.802H79.49c-2.253-3.676-4.622-6.613-7.109-8.81-2.44-2.239-5.114-3.359-8.023-3.359-2.863 0-5.091.613-6.687 1.838-1.595 1.183-2.392 2.789-2.392 4.817 0 1.986.938 3.528 2.815 4.627 1.923 1.056 4.27 1.922 7.038 2.598 2.768.676 4.575 1.14 5.42 1.394.89.254 1.97.613 3.237 1.078 1.314.422 2.37.887 3.167 1.394.844.465 1.712 1.077 2.604 1.838.938.718 1.666 1.521 2.182 2.408 1.267 2.028 1.9 4.437 1.9 7.225 0 4.563-1.595 8.24-4.786 11.028-3.143 2.746-7.296 4.12-12.457 4.12-2.675 0-5.748-.317-9.22-.951-3.425-.634-5.326-.95-5.701-.95-.657 0-1.29.633-1.9 1.9l-1.408-.034v-15.05h1.267c2.064 3.677 4.34 6.888 7.53 9.634 3.238 2.746 6.64 4.12 10.206 4.12ZM57.175 24.225c-1.939 0-3.397-.495-4.373-1.488-.962-1.006-1.443-2.397-1.443-4.17 0-1.789.54-3.156 1.623-4.103 1.097-.947 2.487-1.42 4.17-1.42 3.412 0 5.05 1.713 4.915 5.14H55.71v.879c0 1.473.188 2.585.563 3.336.376.752 1.03 1.128 1.962 1.128 1.743 0 2.885-.932 3.426-2.796l.406.068c-.285 1.082-.804 1.924-1.555 2.525-.737.6-1.849.901-3.337.901Zm-1.443-6.492h2.322v-1.105c0-1.217-.075-2.044-.225-2.48-.135-.45-.42-.676-.857-.676-.42 0-.736.24-.947.721-.195.466-.293 1.278-.293 2.435v1.105Zm15.367.203c0-1.549-.075-2.585-.225-3.111-.15-.542-.444-.812-.88-.812s-.826.27-1.172.812c-.346.54-.519 1.285-.519 2.231v4.194c0 .646.128 1.194.384 1.645.27.451.646.677 1.127.677.496 0 .834-.331 1.015-.992.18-.662.27-1.819.27-3.472v-1.172ZM68.303 7.092v7.89c.572-1.292 1.549-1.938 2.931-1.938 2.81 0 4.216 1.87 4.216 5.613 0 1.909-.39 3.314-1.172 4.216-.767.902-1.924 1.352-3.472 1.352-.782 0-1.383-.12-1.804-.36-.405-.24-.683-.639-.834-1.195L68.01 24h-5.14v-.406h1.24V7.498h-1.24v-.406h5.434ZM93.02 53.79v-1.916c0-1.458-.083-2.518-.248-3.179-.15-.676-.511-1.014-1.082-1.014-.33 0-.601.097-.812.293-.195.18-.338.488-.428.924-.135.676-.203 1.706-.203 3.089v1.758c0 1.638.045 2.623.135 2.953.105.331.21.602.316.812.165.36.488.541.97.541.585 0 .969-.338 1.15-1.014.134-.481.202-1.563.202-3.247Zm-1.398 4.667c-1.879 0-3.299-.481-4.26-1.443-.963-.962-1.444-2.337-1.444-4.126 0-1.803.511-3.186 1.533-4.148 1.038-.977 2.488-1.465 4.352-1.465 1.863 0 3.254.45 4.17 1.353.917.886 1.376 2.246 1.376 4.08 0 3.833-1.91 5.749-5.727 5.749Zm6.267-17.134h5.523v16.503h1.263v.405h-6.696v-.405h1.24V41.729h-1.33v-.406Zm20.301 16.908h-5.14l-.248-1.645c-.24.6-.601 1.067-1.082 1.398-.466.315-1.165.473-2.096.473-2.33 0-3.495-1.255-3.495-3.765v-6.786h-1.262V47.5h5.456v7.733c0 .902.06 1.495.18 1.781.135.286.391.428.766.428.391 0 .737-.233 1.037-.699.301-.465.451-1.112.451-1.938v-6.899h-1.037V47.5h5.231v10.326h1.239v.405Zm1.589-3.223v-7.102h-1.24V47.5h1.24v-2.908l4.193-1.037V47.5h2.931v.406h-2.931v7.598c0 .706.068 1.224.203 1.555.151.33.451.496.902.496s.842-.225 1.172-.676c.346-.451.572-1.067.677-1.849l.383.045c-.12 1.037-.451 1.864-.992 2.48-.541.601-1.435.902-2.683.902-1.247 0-2.202-.248-2.863-.744s-.992-1.398-.992-2.705Zm11.059-9.063c-.796 0-1.367-.203-1.713-.609-.331-.406-.496-.91-.496-1.51 0-.602.18-1.098.541-1.488.376-.391.939-.586 1.691-.586.751 0 1.323.18 1.713.54.391.346.586.85.586 1.511 0 .646-.187 1.165-.563 1.556-.376.39-.962.586-1.759.586Zm-3.404 1.555h5.524v10.326h1.262v.405h-6.696v-.405h1.24v-9.92h-1.33V47.5Zm14.527 6.29v-1.916c0-1.458-.082-2.518-.248-3.179-.15-.676-.511-1.014-1.082-1.014-.33 0-.601.097-.811.293-.196.18-.339.488-.429.924-.135.676-.203 1.706-.203 3.089v1.758c0 1.638.045 2.623.136 2.953.105.331.21.602.315.812.166.36.489.541.97.541.586 0 .969-.338 1.149-1.014.136-.481.203-1.563.203-3.247Zm-1.397 4.667c-1.879 0-3.299-.481-4.261-1.443-.962-.962-1.443-2.337-1.443-4.126 0-1.803.511-3.186 1.533-4.148 1.037-.977 2.487-1.465 4.351-1.465 1.864 0 3.254.45 4.171 1.353.916.886 1.375 2.246 1.375 4.08 0 3.833-1.909 5.749-5.726 5.749Zm6.401-10.957h5.434v2.074c.24-.69.608-1.247 1.104-1.668.496-.42 1.248-.631 2.255-.631 2.329 0 3.494 1.255 3.494 3.765v6.786h1.263v.405h-6.38v-.405h.924v-7.327c0-.902-.06-1.48-.18-1.736-.121-.27-.339-.406-.654-.406-.481 0-.91.316-1.285.947-.361.631-.541 1.398-.541 2.3v6.222h.969v.405h-6.403v-.405h1.24v-9.92h-1.24V47.5Z" fill="#15E7BD"/><path fill-rule="evenodd" clip-rule="evenodd" d="m44.692 1.298 4.856 13.882v17.871c-.816 1.531-1.753 3.733-1.753 6.562 0 2.03.354 3.993.847 5.508h-1.898L36.317 16.445l-9.15 28.647h-6.123L3.308 1.298H0V.094h22.874v1.204h-4.927L29.42 31.656l5.842-18.253-4.223-12.105h-4.012V.094h21.818v1.204h-4.152Z" fill="#15E7BD"/></svg>