<svg width="100" height="100" viewBox="0 0 100 100" fill="none" xmlns="http://www.w3.org/2000/svg">
<rect x="14.5833" y="14.5833" width="70.8333" height="70.8333" rx="6.25" stroke="#08003F" stroke-width="4.16667"/>
<path d="M16.667 20.8334C16.667 18.5322 18.5325 16.6667 20.8337 16.6667H79.167C81.4682 16.6667 83.3337 18.5322 83.3337 20.8334V29.1667H16.667V20.8334Z" fill="#15E7BD"/>
<circle cx="22.9163" cy="22.9166" r="2.08333" fill="#08003F"/>
<circle cx="31.2503" cy="22.9166" r="2.08333" fill="#08003F"/>
<circle cx="39.5833" cy="22.9166" r="2.08333" fill="#08003F"/>
<circle cx="33.333" cy="45.8333" r="10.8333" stroke="#08003F" stroke-width="3.33333"/>
<circle cx="66.667" cy="45.8333" r="10.8333" stroke="#08003F" stroke-width="3.33333"/>
<path d="M37.5003 41.6667C37.5003 43.9679 35.6348 45.8333 33.3337 45.8333C31.0325 45.8333 29.167 43.9679 29.167 41.6667C29.167 39.3655 31.0325 37.5 33.3337 37.5C35.6348 37.5 37.5003 39.3655 37.5003 41.6667ZM31.9895 41.6667C31.9895 42.409 32.5913 43.0109 33.3337 43.0109C34.076 43.0109 34.6778 42.409 34.6778 41.6667C34.6778 40.9243 34.076 40.3225 33.3337 40.3225C32.5913 40.3225 31.9895 40.9243 31.9895 41.6667Z" fill="#08003F"/>
<path d="M70.8333 41.6667C70.8333 43.9679 68.9679 45.8333 66.6667 45.8333C64.3655 45.8333 62.5 43.9679 62.5 41.6667C62.5 39.3655 64.3655 37.5 66.6667 37.5C68.9679 37.5 70.8333 39.3655 70.8333 41.6667ZM65.3225 41.6667C65.3225 42.409 65.9243 43.0109 66.6667 43.0109C67.409 43.0109 68.0109 42.409 68.0109 41.6667C68.0109 40.9243 67.409 40.3225 66.6667 40.3225C65.9243 40.3225 65.3225 40.9243 65.3225 41.6667Z" fill="#08003F"/>
<mask id="path-10-inside-1_28_4888" fill="white">
<path d="M41.6667 54.1666C41.6667 53.0722 41.4511 51.9886 41.0323 50.9776C40.6135 49.9665 39.9997 49.0479 39.2259 48.274C38.4521 47.5002 37.5334 46.8864 36.5224 46.4676C35.5113 46.0488 34.4277 45.8333 33.3333 45.8333C32.239 45.8333 31.1554 46.0488 30.1443 46.4676C29.1333 46.8864 28.2146 47.5002 27.4408 48.274C26.667 49.0479 26.0531 49.9665 25.6343 50.9776C25.2155 51.9886 25 53.0722 25 54.1666L28.6783 54.1666C28.6783 53.5553 28.7987 52.95 29.0326 52.3852C29.2666 51.8204 29.6095 51.3072 30.0417 50.875C30.474 50.4427 30.9872 50.0998 31.5519 49.8659C32.1167 49.632 32.722 49.5115 33.3333 49.5115C33.9446 49.5115 34.55 49.632 35.1147 49.8659C35.6795 50.0998 36.1927 50.4427 36.6249 50.875C37.0572 51.3072 37.4001 51.8204 37.634 52.3852C37.868 52.95 37.9884 53.5553 37.9884 54.1666H41.6667Z"/>
</mask>
<path d="M41.6667 54.1666C41.6667 53.0722 41.4511 51.9886 41.0323 50.9776C40.6135 49.9665 39.9997 49.0479 39.2259 48.274C38.4521 47.5002 37.5334 46.8864 36.5224 46.4676C35.5113 46.0488 34.4277 45.8333 33.3333 45.8333C32.239 45.8333 31.1554 46.0488 30.1443 46.4676C29.1333 46.8864 28.2146 47.5002 27.4408 48.274C26.667 49.0479 26.0531 49.9665 25.6343 50.9776C25.2155 51.9886 25 53.0722 25 54.1666L28.6783 54.1666C28.6783 53.5553 28.7987 52.95 29.0326 52.3852C29.2666 51.8204 29.6095 51.3072 30.0417 50.875C30.474 50.4427 30.9872 50.0998 31.5519 49.8659C32.1167 49.632 32.722 49.5115 33.3333 49.5115C33.9446 49.5115 34.55 49.632 35.1147 49.8659C35.6795 50.0998 36.1927 50.4427 36.6249 50.875C37.0572 51.3072 37.4001 51.8204 37.634 52.3852C37.868 52.95 37.9884 53.5553 37.9884 54.1666H41.6667Z" stroke="#08003F" stroke-width="4.7619" mask="url(#path-10-inside-1_28_4888)"/>
<mask id="path-11-inside-2_28_4888" fill="white">
<path d="M74.9997 54.1666C74.9997 53.0722 74.7841 51.9886 74.3653 50.9776C73.9465 49.9665 73.3327 49.0479 72.5589 48.274C71.7851 47.5002 70.8664 46.8864 69.8554 46.4676C68.8443 46.0488 67.7607 45.8333 66.6663 45.8333C65.572 45.8333 64.4884 46.0488 63.4773 46.4676C62.4663 46.8864 61.5476 47.5002 60.7738 48.274C60 49.0479 59.3861 49.9665 58.9673 50.9776C58.5486 51.9886 58.333 53.0722 58.333 54.1666L62.0113 54.1666C62.0113 53.5553 62.1317 52.95 62.3656 52.3852C62.5996 51.8204 62.9425 51.3072 63.3747 50.875C63.807 50.4427 64.3202 50.0998 64.8849 49.8659C65.4497 49.632 66.055 49.5115 66.6663 49.5115C67.2776 49.5115 67.883 49.632 68.4477 49.8659C69.0125 50.0998 69.5257 50.4427 69.9579 50.875C70.3902 51.3072 70.7331 51.8204 70.967 52.3852C71.201 52.95 71.3214 53.5553 71.3214 54.1666H74.9997Z"/>
</mask>
<path d="M74.9997 54.1666C74.9997 53.0722 74.7841 51.9886 74.3653 50.9776C73.9465 49.9665 73.3327 49.0479 72.5589 48.274C71.7851 47.5002 70.8664 46.8864 69.8554 46.4676C68.8443 46.0488 67.7607 45.8333 66.6663 45.8333C65.572 45.8333 64.4884 46.0488 63.4773 46.4676C62.4663 46.8864 61.5476 47.5002 60.7738 48.274C60 49.0479 59.3861 49.9665 58.9673 50.9776C58.5486 51.9886 58.333 53.0722 58.333 54.1666L62.0113 54.1666C62.0113 53.5553 62.1317 52.95 62.3656 52.3852C62.5996 51.8204 62.9425 51.3072 63.3747 50.875C63.807 50.4427 64.3202 50.0998 64.8849 49.8659C65.4497 49.632 66.055 49.5115 66.6663 49.5115C67.2776 49.5115 67.883 49.632 68.4477 49.8659C69.0125 50.0998 69.5257 50.4427 69.9579 50.875C70.3902 51.3072 70.7331 51.8204 70.967 52.3852C71.201 52.95 71.3214 53.5553 71.3214 54.1666H74.9997Z" stroke="#08003F" stroke-width="4.7619" mask="url(#path-11-inside-2_28_4888)"/>
<path d="M22.917 62.5H77.0837M22.917 79.1667H68.7503" stroke="#08003F" stroke-width="4.16667" stroke-linecap="round"/>
<path d="M22.917 70.8333L77.0837 70.8333" stroke="#15E7BD" stroke-width="4.16667" stroke-linecap="round"/>
</svg>
