<svg width="120" height="120" viewBox="0 0 120 120" fill="none" xmlns="http://www.w3.org/2000/svg">
<rect x="17.5" y="17.5" width="85" height="85" rx="7.5" stroke="#08003F" stroke-width="5"/>
<path d="M20 25C20 22.2386 22.2386 20 25 20H95C97.7614 20 100 22.2386 100 25V35H20V25Z" fill="#15E7BD"/>
<circle cx="27.5" cy="27.5" r="2.5" fill="#08003F"/>
<circle cx="37.5" cy="27.5" r="2.5" fill="#08003F"/>
<circle cx="47.5" cy="27.5" r="2.5" fill="#08003F"/>
<circle cx="40" cy="55" r="13" stroke="#08003F" stroke-width="4"/>
<circle cx="80" cy="55" r="13" stroke="#08003F" stroke-width="4"/>
<path d="M45 50C45 52.7614 42.7614 55 40 55C37.2386 55 35 52.7614 35 50C35 47.2386 37.2386 45 40 45C42.7614 45 45 47.2386 45 50ZM38.387 50C38.387 50.8909 39.1091 51.613 40 51.613C40.8909 51.613 41.613 50.8909 41.613 50C41.613 49.1091 40.8909 48.387 40 48.387C39.1091 48.387 38.387 49.1091 38.387 50Z" fill="#08003F"/>
<path d="M85 50C85 52.7614 82.7614 55 80 55C77.2386 55 75 52.7614 75 50C75 47.2386 77.2386 45 80 45C82.7614 45 85 47.2386 85 50ZM78.387 50C78.387 50.8909 79.1091 51.613 80 51.613C80.8909 51.613 81.613 50.8909 81.613 50C81.613 49.1091 80.8909 48.387 80 48.387C79.1091 48.387 78.387 49.1091 78.387 50Z" fill="#08003F"/>
<mask id="path-10-inside-1_17_5778" fill="white">
<path d="M50 65C50 63.6868 49.7413 62.3864 49.2388 61.1732C48.7362 59.9599 47.9997 58.8575 47.0711 57.9289C46.1425 57.0003 45.0401 56.2638 43.8268 55.7612C42.6136 55.2587 41.3132 55 40 55C38.6868 55 37.3864 55.2587 36.1732 55.7612C34.9599 56.2638 33.8575 57.0003 32.9289 57.9289C32.0003 58.8575 31.2638 59.9599 30.7612 61.1732C30.2587 62.3864 30 63.6868 30 65H34.414C34.414 64.2664 34.5584 63.54 34.8392 62.8623C35.1199 62.1846 35.5314 61.5688 36.0501 61.0501C36.5688 60.5314 37.1846 60.1199 37.8623 59.8392C38.54 59.5584 39.2664 59.414 40 59.414C40.7336 59.414 41.46 59.5584 42.1377 59.8392C42.8154 60.1199 43.4312 60.5314 43.9499 61.0501C44.4686 61.5688 44.8801 62.1846 45.1608 62.8623C45.4416 63.54 45.586 64.2664 45.586 65H50Z"/>
</mask>
<path d="M50 65C50 63.6868 49.7413 62.3864 49.2388 61.1732C48.7362 59.9599 47.9997 58.8575 47.0711 57.9289C46.1425 57.0003 45.0401 56.2638 43.8268 55.7612C42.6136 55.2587 41.3132 55 40 55C38.6868 55 37.3864 55.2587 36.1732 55.7612C34.9599 56.2638 33.8575 57.0003 32.9289 57.9289C32.0003 58.8575 31.2638 59.9599 30.7612 61.1732C30.2587 62.3864 30 63.6868 30 65H34.414C34.414 64.2664 34.5584 63.54 34.8392 62.8623C35.1199 62.1846 35.5314 61.5688 36.0501 61.0501C36.5688 60.5314 37.1846 60.1199 37.8623 59.8392C38.54 59.5584 39.2664 59.414 40 59.414C40.7336 59.414 41.46 59.5584 42.1377 59.8392C42.8154 60.1199 43.4312 60.5314 43.9499 61.0501C44.4686 61.5688 44.8801 62.1846 45.1608 62.8623C45.4416 63.54 45.586 64.2664 45.586 65H50Z" stroke="#08003F" stroke-width="5.71429" mask="url(#path-10-inside-1_17_5778)"/>
<mask id="path-11-inside-2_17_5778" fill="white">
<path d="M90 65C90 63.6868 89.7413 62.3864 89.2388 61.1732C88.7362 59.9599 87.9997 58.8575 87.0711 57.9289C86.1425 57.0003 85.0401 56.2638 83.8268 55.7612C82.6136 55.2587 81.3132 55 80 55C78.6868 55 77.3864 55.2587 76.1732 55.7612C74.9599 56.2638 73.8575 57.0003 72.9289 57.9289C72.0003 58.8575 71.2638 59.9599 70.7612 61.1732C70.2587 62.3864 70 63.6868 70 65H74.414C74.414 64.2664 74.5584 63.54 74.8392 62.8623C75.1199 62.1846 75.5314 61.5688 76.0501 61.0501C76.5688 60.5314 77.1846 60.1199 77.8623 59.8392C78.54 59.5584 79.2664 59.414 80 59.414C80.7336 59.414 81.46 59.5584 82.1377 59.8392C82.8154 60.1199 83.4312 60.5314 83.9499 61.0501C84.4686 61.5688 84.8801 62.1846 85.1608 62.8623C85.4416 63.54 85.586 64.2664 85.586 65H90Z"/>
</mask>
<path d="M90 65C90 63.6868 89.7413 62.3864 89.2388 61.1732C88.7362 59.9599 87.9997 58.8575 87.0711 57.9289C86.1425 57.0003 85.0401 56.2638 83.8268 55.7612C82.6136 55.2587 81.3132 55 80 55C78.6868 55 77.3864 55.2587 76.1732 55.7612C74.9599 56.2638 73.8575 57.0003 72.9289 57.9289C72.0003 58.8575 71.2638 59.9599 70.7612 61.1732C70.2587 62.3864 70 63.6868 70 65H74.414C74.414 64.2664 74.5584 63.54 74.8392 62.8623C75.1199 62.1846 75.5314 61.5688 76.0501 61.0501C76.5688 60.5314 77.1846 60.1199 77.8623 59.8392C78.54 59.5584 79.2664 59.414 80 59.414C80.7336 59.414 81.46 59.5584 82.1377 59.8392C82.8154 60.1199 83.4312 60.5314 83.9499 61.0501C84.4686 61.5688 84.8801 62.1846 85.1608 62.8623C85.4416 63.54 85.586 64.2664 85.586 65H90Z" stroke="#08003F" stroke-width="5.71429" mask="url(#path-11-inside-2_17_5778)"/>
<path d="M27.5 75H92.5M27.5 95H82.5" stroke="#08003F" stroke-width="5" stroke-linecap="round"/>
<path d="M27.5 85L92.5 85" stroke="#15E7BD" stroke-width="5" stroke-linecap="round"/>
</svg>
