<svg width="120" height="120" viewBox="0 0 120 120" fill="none" xmlns="http://www.w3.org/2000/svg">
<path d="M20 25C20 22.2386 22.2386 20 25 20H85C87.7614 20 90 22.2386 90 25V35H20V25Z" fill="#15E7BD"/>
<path fill-rule="evenodd" clip-rule="evenodd" d="M25 20H85C87.7614 20 90 22.2386 90 25V55H95V25C95 19.4772 90.5229 15 85 15H25C19.4772 15 15 19.4772 15 25V85C15 90.5229 19.4772 95 25 95H55V90H25C22.2386 90 20 87.7614 20 85V25C20 22.2386 22.2386 20 25 20Z" fill="#08003F"/>
<circle cx="27.5" cy="27.5" r="2.5" fill="#08003F"/>
<circle cx="37.5" cy="27.5" r="2.5" fill="#08003F"/>
<circle cx="47.5" cy="27.5" r="2.5" fill="#08003F"/>
<path d="M30 45H80" stroke="#08003F" stroke-width="5" stroke-linecap="round"/>
<path d="M30 65H55" stroke="#08003F" stroke-width="5" stroke-linecap="round"/>
<path d="M30 75H45" stroke="#08003F" stroke-width="5" stroke-linecap="round"/>
<path d="M30 55H70" stroke="#15E7BD" stroke-width="5" stroke-linecap="round"/>
<mask id="path-10-inside-1_17_5777" fill="white">
<path fill-rule="evenodd" clip-rule="evenodd" d="M86.998 60.6505C86.998 60.2915 86.707 60.0005 86.348 60.0005H78.648C78.2891 60.0005 77.998 60.2915 77.998 60.6505V66.128C77.998 66.4189 77.8044 66.673 77.527 66.7606C76.6101 67.0499 75.7277 67.4172 74.8878 67.8547C74.6297 67.9891 74.313 67.9463 74.1073 67.7406L70.2341 63.8674C69.9802 63.6135 69.5687 63.6135 69.3148 63.8674L63.8701 69.3121C63.6163 69.5659 63.6163 69.9775 63.8701 70.2313L67.7425 74.1037C67.9483 74.3095 67.991 74.6263 67.8565 74.8843C67.4179 75.7262 67.0497 76.6107 66.7598 77.5299C66.6723 77.8073 66.4181 78.001 66.1272 78.001H60.65C60.291 78.001 60 78.292 60 78.651V86.351C60 86.71 60.291 87.001 60.65 87.001H66.1288C66.4196 87.001 66.6737 87.1946 66.7613 87.4719C67.0508 88.3888 67.4182 89.2711 67.8558 90.111C67.9902 90.3691 67.9475 90.6858 67.7417 90.8916L63.8669 94.7664C63.613 95.0203 63.613 95.4318 63.8669 95.6857L69.3116 101.13C69.5654 101.384 69.977 101.384 70.2308 101.13L74.1058 97.2554C74.3115 97.0497 74.6283 97.007 74.8863 97.1414C75.7267 97.5792 76.6096 97.9467 77.527 98.2363C77.8044 98.3238 77.998 98.578 77.998 98.8688V104.35C77.998 104.709 78.2891 105 78.648 105H86.348C86.707 105 86.998 104.709 86.998 104.35V98.8691C86.998 98.5783 87.1917 98.3241 87.4691 98.2366C88.3876 97.9468 89.2713 97.5788 90.1126 97.1404C90.3707 97.0059 90.6875 97.0487 90.8932 97.2544L94.7707 101.132C95.0245 101.386 95.4361 101.386 95.6899 101.132L101.135 95.6872C101.388 95.4333 101.388 95.0218 101.135 94.7679L97.2564 90.8897C97.0506 90.6839 97.0079 90.3672 97.1422 90.1092C97.5794 89.2698 97.9465 88.3881 98.2358 87.4719C98.3233 87.1946 98.5775 87.001 98.8683 87.001H104.35C104.709 87.001 105 86.71 105 86.351V78.651C105 78.292 104.709 78.001 104.35 78.001H98.8699C98.579 78.001 98.3248 77.8073 98.2373 77.5299C97.9476 76.6113 97.5798 75.7275 97.1415 74.8862C97.0071 74.6282 97.0498 74.3114 97.2556 74.1057L101.131 70.2298C101.385 69.976 101.385 69.5644 101.131 69.3106L95.6867 63.8659C95.4328 63.612 95.0213 63.612 94.7674 63.8659L90.8917 67.7416C90.686 67.9473 90.3692 67.9901 90.1112 67.8557C89.2703 67.4176 88.387 67.0499 87.4691 66.7603C87.1917 66.6727 86.998 66.4186 86.998 66.1277V60.6505ZM82.4902 89.9999C86.6324 89.9999 89.9902 86.642 89.9902 82.4999C89.9902 78.3577 86.6324 74.9999 82.4902 74.9999C78.3481 74.9999 74.9902 78.3577 74.9902 82.4999C74.9902 86.642 78.3481 89.9999 82.4902 89.9999Z"/>
</mask>
<path fill-rule="evenodd" clip-rule="evenodd" d="M86.998 60.6505C86.998 60.2915 86.707 60.0005 86.348 60.0005H78.648C78.2891 60.0005 77.998 60.2915 77.998 60.6505V66.128C77.998 66.4189 77.8044 66.673 77.527 66.7606C76.6101 67.0499 75.7277 67.4172 74.8878 67.8547C74.6297 67.9891 74.313 67.9463 74.1073 67.7406L70.2341 63.8674C69.9802 63.6135 69.5687 63.6135 69.3148 63.8674L63.8701 69.3121C63.6163 69.5659 63.6163 69.9775 63.8701 70.2313L67.7425 74.1037C67.9483 74.3095 67.991 74.6263 67.8565 74.8843C67.4179 75.7262 67.0497 76.6107 66.7598 77.5299C66.6723 77.8073 66.4181 78.001 66.1272 78.001H60.65C60.291 78.001 60 78.292 60 78.651V86.351C60 86.71 60.291 87.001 60.65 87.001H66.1288C66.4196 87.001 66.6737 87.1946 66.7613 87.4719C67.0508 88.3888 67.4182 89.2711 67.8558 90.111C67.9902 90.3691 67.9475 90.6858 67.7417 90.8916L63.8669 94.7664C63.613 95.0203 63.613 95.4318 63.8669 95.6857L69.3116 101.13C69.5654 101.384 69.977 101.384 70.2308 101.13L74.1058 97.2554C74.3115 97.0497 74.6283 97.007 74.8863 97.1414C75.7267 97.5792 76.6096 97.9467 77.527 98.2363C77.8044 98.3238 77.998 98.578 77.998 98.8688V104.35C77.998 104.709 78.2891 105 78.648 105H86.348C86.707 105 86.998 104.709 86.998 104.35V98.8691C86.998 98.5783 87.1917 98.3241 87.4691 98.2366C88.3876 97.9468 89.2713 97.5788 90.1126 97.1404C90.3707 97.0059 90.6875 97.0487 90.8932 97.2544L94.7707 101.132C95.0245 101.386 95.4361 101.386 95.6899 101.132L101.135 95.6872C101.388 95.4333 101.388 95.0218 101.135 94.7679L97.2564 90.8897C97.0506 90.6839 97.0079 90.3672 97.1422 90.1092C97.5794 89.2698 97.9465 88.3881 98.2358 87.4719C98.3233 87.1946 98.5775 87.001 98.8683 87.001H104.35C104.709 87.001 105 86.71 105 86.351V78.651C105 78.292 104.709 78.001 104.35 78.001H98.8699C98.579 78.001 98.3248 77.8073 98.2373 77.5299C97.9476 76.6113 97.5798 75.7275 97.1415 74.8862C97.0071 74.6282 97.0498 74.3114 97.2556 74.1057L101.131 70.2298C101.385 69.976 101.385 69.5644 101.131 69.3106L95.6867 63.8659C95.4328 63.612 95.0213 63.612 94.7674 63.8659L90.8917 67.7416C90.686 67.9473 90.3692 67.9901 90.1112 67.8557C89.2703 67.4176 88.387 67.0499 87.4691 66.7603C87.1917 66.6727 86.998 66.4186 86.998 66.1277V60.6505ZM82.4902 89.9999C86.6324 89.9999 89.9902 86.642 89.9902 82.4999C89.9902 78.3577 86.6324 74.9999 82.4902 74.9999C78.3481 74.9999 74.9902 78.3577 74.9902 82.4999C74.9902 86.642 78.3481 89.9999 82.4902 89.9999Z" fill="white"/>
<path d="M87.4691 66.7603L88.5223 63.4225L87.4691 66.7603ZM90.8917 67.7416L88.4168 65.2667L90.8917 67.7416ZM90.1112 67.8557L88.4941 70.9597L90.1112 67.8557ZM95.6867 63.8659L93.2118 66.3407L95.6867 63.8659ZM101.131 70.2298L98.6565 67.755L101.131 70.2298ZM101.131 69.3106L103.606 66.8357L101.131 69.3106ZM97.1415 74.8862L94.0374 76.5032L97.1415 74.8862ZM97.2556 74.1057L94.7807 71.6308L97.2556 74.1057ZM98.2358 87.4719L101.573 88.5257L98.2358 87.4719ZM97.2564 90.8897L99.7312 88.4148L97.2564 90.8897ZM97.1422 90.1092L100.247 91.7259L97.1422 90.1092ZM101.135 94.7679L103.609 92.293L101.135 94.7679ZM94.7707 101.132L92.2958 103.607L94.7707 101.132ZM90.1126 97.1404L91.73 100.244L90.1126 97.1404ZM90.8932 97.2544L88.4183 99.7293L90.8932 97.2544ZM87.4691 98.2366L88.5223 101.574L87.4691 98.2366ZM77.527 98.2363L78.5804 94.8985L77.527 98.2363ZM74.1058 97.2554L71.6309 94.7806L74.1058 97.2554ZM74.8863 97.1414L73.2693 100.245L74.8863 97.1414ZM69.3116 101.13L71.7865 98.6555L69.3116 101.13ZM70.2308 101.13L67.756 98.6555L70.2308 101.13ZM63.8669 94.7664L61.392 92.2916L63.8669 94.7664ZM63.8669 95.6857L61.392 98.1605L63.8669 95.6857ZM67.8558 90.111L64.7517 91.7281L67.8558 90.111ZM66.7613 87.4719L63.4237 88.5257L66.7613 87.4719ZM66.7598 77.5299L70.0977 78.5826L66.7598 77.5299ZM67.7425 74.1037L70.2174 71.6289L67.7425 74.1037ZM67.8565 74.8843L64.7527 73.267L67.8565 74.8843ZM63.8701 69.3121L66.345 71.7869L63.8701 69.3121ZM63.8701 70.2313L66.345 67.7564L63.8701 70.2313ZM70.2341 63.8674L72.7089 61.3925L70.2341 63.8674ZM69.3148 63.8674L66.8399 61.3925L69.3148 63.8674ZM74.8878 67.8547L73.2711 64.7504L74.8878 67.8547ZM74.1073 67.7406L71.6324 70.2155L74.1073 67.7406ZM77.527 66.7606L76.4737 63.4228L77.527 66.7606ZM78.648 63.5005H86.348V56.5005H78.648V63.5005ZM81.498 66.128V60.6505H74.498V66.128H81.498ZM76.5044 70.959C77.1656 70.6146 77.8596 70.3258 78.5804 70.0983L76.4737 63.4228C75.3606 63.7741 74.2899 64.2199 73.2711 64.7504L76.5044 70.959ZM67.7592 66.3422L71.6324 70.2155L76.5822 65.2657L72.7089 61.3925L67.7592 66.3422ZM66.345 71.7869L71.7897 66.3422L66.8399 61.3925L61.3952 66.8372L66.345 71.7869ZM70.2174 71.6289L66.345 67.7564L61.3952 72.7062L65.2676 76.5786L70.2174 71.6289ZM70.0977 78.5826C70.3256 77.86 70.6151 77.1644 70.9604 76.5017L64.7527 73.267C64.2206 74.288 63.7738 75.3613 63.4218 76.4771L70.0977 78.5826ZM60.65 81.501H66.1272V74.501H60.65V81.501ZM63.5 86.351V78.651H56.5V86.351H63.5ZM66.1288 83.501H60.65V90.501H66.1288V83.501ZM70.9598 88.494C70.6154 87.8328 70.3265 87.1388 70.0989 86.4181L63.4237 88.5257C63.7751 89.6388 64.221 90.7094 64.7517 91.7281L70.9598 88.494ZM66.3417 97.2413L70.2166 93.3665L65.2668 88.4167L61.392 92.2916L66.3417 97.2413ZM71.7865 98.6555L66.3417 93.2108L61.392 98.1605L66.8367 103.605L71.7865 98.6555ZM71.6309 94.7806L67.756 98.6555L72.7057 103.605L76.5807 99.7303L71.6309 94.7806ZM78.5804 94.8985C77.8592 94.6709 77.1648 94.3819 76.5033 94.0373L73.2693 100.245C74.2886 100.776 75.3599 101.223 76.4737 101.574L78.5804 94.8985ZM81.498 104.35V98.8688H74.498V104.35H81.498ZM86.348 101.5H78.648V108.5H86.348V101.5ZM83.498 98.8691V104.35H90.498V98.8691H83.498ZM88.4952 94.0365C87.833 94.3816 87.1379 94.671 86.4159 94.8988L88.5223 101.574C89.6372 101.223 90.7097 100.776 91.73 100.244L88.4952 94.0365ZM97.2455 98.657L93.3681 94.7796L88.4183 99.7293L92.2958 103.607L97.2455 98.657ZM98.6597 93.2123L93.215 98.657L98.1648 103.607L103.609 98.162L98.6597 93.2123ZM94.7815 93.3645L98.6597 97.2428L103.609 92.293L99.7312 88.4148L94.7815 93.3645ZM94.8982 86.4181C94.6708 87.1383 94.3821 87.8318 94.038 88.4925L100.247 91.7259C100.777 90.7078 101.222 89.6379 101.573 88.5257L94.8982 86.4181ZM104.35 83.501H98.8683V90.501H104.35V83.501ZM101.5 78.651V86.351H108.5V78.651H101.5ZM98.8699 81.501H104.35V74.501H98.8699V81.501ZM94.0374 76.5032C94.3824 77.1654 94.6717 77.8606 94.8994 78.5826L101.575 76.4771C101.224 75.3621 100.777 74.2896 100.246 73.2692L94.0374 76.5032ZM98.6565 67.755L94.7807 71.6308L99.7304 76.5805L103.606 72.7047L98.6565 67.755ZM93.2118 66.3407L98.6565 71.7855L103.606 66.8357L98.1615 61.391L93.2118 66.3407ZM93.3666 70.2165L97.2423 66.3407L92.2926 61.391L88.4168 65.2667L93.3666 70.2165ZM86.4159 70.098C87.1375 70.3257 87.8322 70.6149 88.4941 70.9597L91.7282 64.7516C90.7084 64.2204 89.6366 63.7741 88.5223 63.4225L86.4159 70.098ZM83.498 60.6505V66.1277H90.498V60.6505H83.498ZM86.4902 82.4999C86.4902 84.709 84.6994 86.4999 82.4902 86.4999V93.4999C88.5654 93.4999 93.4902 88.575 93.4902 82.4999H86.4902ZM82.4902 78.4999C84.6994 78.4999 86.4902 80.2907 86.4902 82.4999H93.4902C93.4902 76.4247 88.5654 71.4999 82.4902 71.4999V78.4999ZM78.4902 82.4999C78.4902 80.2907 80.2811 78.4999 82.4902 78.4999V71.4999C76.4151 71.4999 71.4902 76.4247 71.4902 82.4999H78.4902ZM82.4902 86.4999C80.2811 86.4999 78.4902 84.709 78.4902 82.4999H71.4902C71.4902 88.575 76.4151 93.4999 82.4902 93.4999V86.4999ZM88.5223 63.4225C89.6421 63.7758 90.498 64.83 90.498 66.1277H83.498C83.498 68.0071 84.7413 69.5697 86.4159 70.098L88.5223 63.4225ZM88.4168 65.2667C89.3346 64.3489 90.686 64.2087 91.7282 64.7516L88.4941 70.9597C90.0524 71.7715 92.0373 71.5457 93.3666 70.2165L88.4168 65.2667ZM98.1615 61.391C96.5409 59.7703 93.9132 59.7703 92.2926 61.391L97.2423 66.3407C96.1293 67.4537 94.3248 67.4537 93.2118 66.3407L98.1615 61.391ZM103.606 72.7047C105.227 71.084 105.227 68.4564 103.606 66.8357L98.6565 71.7855C97.5435 70.6725 97.5435 68.8679 98.6565 67.755L103.606 72.7047ZM100.246 73.2692C100.788 74.3114 100.648 75.6627 99.7304 76.5805L94.7807 71.6308C93.4515 72.96 93.2257 74.9449 94.0374 76.5032L100.246 73.2692ZM98.8699 74.501C100.168 74.501 101.222 75.3571 101.575 76.4771L94.8994 78.5826C95.4276 80.2574 96.9902 81.501 98.8699 81.501V74.501ZM108.5 78.651C108.5 76.359 106.642 74.501 104.35 74.501V81.501C102.776 81.501 101.5 80.225 101.5 78.651H108.5ZM104.35 90.501C106.642 90.501 108.5 88.643 108.5 86.351H101.5C101.5 84.777 102.776 83.501 104.35 83.501V90.501ZM101.573 88.5257C101.22 89.6453 100.166 90.501 98.8683 90.501V83.501C96.9891 83.501 95.4268 84.7439 94.8982 86.4181L101.573 88.5257ZM99.7312 88.4148C100.649 89.3325 100.789 90.6837 100.247 91.7259L94.038 88.4925C93.2265 90.0507 93.4524 92.0354 94.7815 93.3645L99.7312 88.4148ZM103.609 98.162C105.23 96.5414 105.23 93.9137 103.609 92.293L98.6597 97.2428C97.5468 96.1298 97.5467 94.3253 98.6597 93.2123L103.609 98.162ZM92.2958 103.607C93.9165 105.227 96.5441 105.227 98.1648 103.607L93.215 98.657C94.328 97.544 96.1325 97.544 97.2455 98.657L92.2958 103.607ZM91.73 100.244C90.6878 100.787 89.3362 100.647 88.4183 99.7293L93.3681 94.7796C92.0387 93.4502 90.0535 93.2245 88.4952 94.0365L91.73 100.244ZM90.498 98.8691C90.498 100.167 89.6421 101.221 88.5223 101.574L86.4159 94.8988C84.7413 95.4272 83.498 96.9897 83.498 98.8691H90.498ZM86.348 108.5C88.64 108.5 90.498 106.642 90.498 104.35H83.498C83.498 102.776 84.774 101.5 86.348 101.5V108.5ZM74.498 104.35C74.498 106.642 76.3561 108.5 78.648 108.5V101.5C80.2221 101.5 81.498 102.776 81.498 104.35H74.498ZM76.4737 101.574C75.3539 101.221 74.498 100.166 74.498 98.8688H81.498C81.498 96.9895 80.2549 95.427 78.5804 94.8985L76.4737 101.574ZM76.5807 99.7303C75.6629 100.648 74.3115 100.788 73.2693 100.245L76.5033 94.0373C74.945 93.2256 72.9601 93.4513 71.6309 94.7806L76.5807 99.7303ZM66.8367 103.605C68.4574 105.226 71.085 105.226 72.7057 103.605L67.756 98.6555C68.8689 97.5425 70.6735 97.5425 71.7865 98.6555L66.8367 103.605ZM61.392 92.2916C59.7713 93.9122 59.7713 96.5399 61.392 98.1605L66.3417 93.2108C67.4547 94.3238 67.4547 96.1283 66.3417 97.2413L61.392 92.2916ZM64.7517 91.7281C64.2088 90.6859 64.349 89.3345 65.2668 88.4167L70.2166 93.3665C71.5459 92.0372 71.7716 90.0522 70.9598 88.494L64.7517 91.7281ZM66.1288 90.501C64.8313 90.501 63.7772 89.6453 63.4237 88.5257L70.0989 86.4181C69.5703 84.7439 68.0079 83.501 66.1288 83.501V90.501ZM56.5 86.351C56.5 88.643 58.358 90.501 60.65 90.501V83.501C62.224 83.501 63.5 84.777 63.5 86.351H56.5ZM60.65 74.501C58.358 74.501 56.5 76.359 56.5 78.651H63.5C63.5 80.225 62.224 81.501 60.65 81.501V74.501ZM63.4218 76.4771C63.7751 75.3571 64.8293 74.501 66.1272 74.501V81.501C68.0068 81.501 69.5695 80.2574 70.0977 78.5826L63.4218 76.4771ZM65.2676 76.5786C64.3498 75.6607 64.2096 74.3092 64.7527 73.267L70.9604 76.5017C71.7724 74.9434 71.5468 72.9582 70.2174 71.6289L65.2676 76.5786ZM61.3952 66.8372C59.7745 68.4579 59.7745 71.0855 61.3952 72.7062L66.345 67.7564C67.458 68.8694 67.458 70.674 66.345 71.7869L61.3952 66.8372ZM72.7089 61.3925C71.0883 59.7718 68.4606 59.7718 66.8399 61.3925L71.7897 66.3422C70.6767 67.4552 68.8722 67.4552 67.7592 66.3422L72.7089 61.3925ZM73.2711 64.7504C74.3132 64.2077 75.6645 64.348 76.5822 65.2657L71.6324 70.2155C72.9615 71.5446 74.9462 71.7704 76.5044 70.959L73.2711 64.7504ZM74.498 66.128C74.498 64.8304 75.354 63.7762 76.4737 63.4228L78.5804 70.0983C80.2549 69.5698 81.498 68.0074 81.498 66.128H74.498ZM86.348 63.5005C84.774 63.5005 83.498 62.2245 83.498 60.6505H90.498C90.498 58.3585 88.64 56.5005 86.348 56.5005V63.5005ZM78.648 56.5005C76.3561 56.5005 74.498 58.3585 74.498 60.6505H81.498C81.498 62.2245 80.2221 63.5005 78.648 63.5005V56.5005Z" fill="#08003F" mask="url(#path-10-inside-1_17_5777)"/>
</svg>
