<svg width="200" height="200" viewBox="0 0 200 200" fill="none" xmlns="http://www.w3.org/2000/svg">
<path d="M33.333 41.6667C33.333 37.0643 37.064 33.3334 41.6663 33.3334H158.333C162.935 33.3334 166.666 37.0643 166.666 41.6667V58.3334H33.333V41.6667Z" fill="#15E7BD"/>
<path fill-rule="evenodd" clip-rule="evenodd" d="M41.6667 33.3333H158.333C162.936 33.3333 166.667 37.0643 166.667 41.6667V141.667H175V41.6667C175 32.4619 167.538 25 158.333 25H41.6667C32.4619 25 25 32.4619 25 41.6667V141.667C25 150.871 32.4619 158.333 41.6667 158.333H91.6667V150H41.6667C37.0643 150 33.3333 146.269 33.3333 141.667V41.6667C33.3333 37.0643 37.0643 33.3333 41.6667 33.3333Z" fill="#08003F"/>
<circle cx="45.8337" cy="45.8333" r="4.16667" fill="#08003F"/>
<circle cx="62.4997" cy="45.8333" r="4.16667" fill="#08003F"/>
<circle cx="79.1667" cy="45.8333" r="4.16667" fill="#08003F"/>
<rect x="104.167" y="95.8333" width="50" height="75" rx="4.16667" fill="white" stroke="#08003F" stroke-width="8.33333"/>
<path d="M116.667 141.667H141.667M116.667 158.333H141.667" stroke="#08003F" stroke-width="8.33333" stroke-linecap="round"/>
<rect x="41.667" y="66.6666" width="41.6667" height="41.6667" fill="#15E7BD"/>
<rect x="116.667" y="108.333" width="25" height="25" fill="#15E7BD"/>
<path d="M75 87.5L56.25 76.6747V98.3253L75 87.5Z" fill="#08003F"/>
<path d="M133.333 120.833L127.083 117.225V124.442L133.333 120.833Z" fill="#08003F"/>
<path d="M95.833 75H154.166M45.833 116.667H87.4997" stroke="#08003F" stroke-width="8.33333" stroke-linecap="round"/>
<path d="M45.833 133.333H87.4997" stroke="#08003F" stroke-width="8.33333" stroke-linecap="round"/>
</svg>
