<svg width="200" height="200" viewBox="0 0 200 200" fill="none" xmlns="http://www.w3.org/2000/svg">
<path d="M33.333 41.6667C33.333 37.0643 37.064 33.3334 41.6663 33.3334H158.333C162.935 33.3334 166.666 37.0643 166.666 41.6667V58.3334H33.333V41.6667Z" fill="#15E7BD"/>
<path fill-rule="evenodd" clip-rule="evenodd" d="M158.333 33.3333H41.6667C37.0643 33.3333 33.3333 37.0643 33.3333 41.6667V158.333C33.3333 162.936 37.0643 166.667 41.6667 166.667H125V175H41.6667C32.4619 175 25 167.538 25 158.333V41.6667C25 32.4619 32.4619 25 41.6667 25H158.333C167.538 25 175 32.4619 175 41.6667V108.333H166.667V41.6667C166.667 37.0643 162.936 33.3333 158.333 33.3333ZM166.667 150V158.333C166.667 162.936 162.936 166.667 158.333 166.667H150V175H158.333C167.538 175 175 167.538 175 158.333V150H166.667Z" fill="#08003F"/>
<circle cx="45.8337" cy="45.8333" r="4.16667" fill="#08003F"/>
<circle cx="62.4997" cy="45.8333" r="4.16667" fill="#08003F"/>
<circle cx="79.1667" cy="45.8333" r="4.16667" fill="#08003F"/>
<path d="M41.667 66.6666H70.8337M83.3337 66.6666H158.334" stroke="#08003F" stroke-width="8.33333" stroke-linecap="round"/>
<path d="M41.667 83.3334H116.667M133.334 83.3334H158.334" stroke="#08003F" stroke-width="8.33333" stroke-linecap="round"/>
<path d="M41.667 100H133.334" stroke="#08003F" stroke-width="8.33333" stroke-linecap="round"/>
<path d="M41.667 150H104.167" stroke="#08003F" stroke-width="8.33333" stroke-linecap="round"/>
<path d="M41.667 116.667H54.167M66.667 116.667H87.5003" stroke="#08003F" stroke-width="8.33333" stroke-linecap="round"/>
<path d="M41.667 133.333H66.667M79.167 133.333H95.8337" stroke="#08003F" stroke-width="8.33333" stroke-linecap="round"/>
<mask id="path-12-inside-1_17_6172" fill="white">
<path fill-rule="evenodd" clip-rule="evenodd" d="M169.372 114.321C161.869 106.337 149.704 106.337 142.201 114.321L139.389 117.312L136.577 114.321C129.074 106.338 116.91 106.338 109.407 114.321C101.904 122.304 101.904 135.248 109.407 143.231L139.263 174.998L142.074 172.007L142.201 172.141L169.372 143.231C176.875 135.247 176.875 122.304 169.372 114.321Z"/>
</mask>
<path d="M142.201 114.321L136.128 108.614V108.614L142.201 114.321ZM169.372 114.321L163.299 120.028V120.028L169.372 114.321ZM139.389 117.312L133.317 123.02L139.389 129.481L145.461 123.02L139.389 117.312ZM136.577 114.321L130.505 120.028L130.505 120.028L136.577 114.321ZM109.407 114.321L103.334 108.614L109.407 114.321ZM109.407 143.231L103.334 148.938L103.334 148.938L109.407 143.231ZM139.263 174.998L133.19 180.705L139.263 187.166L145.335 180.705L139.263 174.998ZM142.074 172.007L148.147 166.299L142.074 159.838L136.002 166.299L142.074 172.007ZM142.201 172.141L136.128 177.848L142.201 184.309L148.273 177.848L142.201 172.141ZM169.372 143.231L175.444 148.938V148.938L169.372 143.231ZM148.273 120.028C152.485 115.546 159.087 115.546 163.299 120.028L175.444 108.614C164.65 97.1287 146.922 97.1287 136.128 108.614L148.273 120.028ZM145.461 123.02L148.273 120.028L136.128 108.614L133.317 111.605L145.461 123.02ZM130.505 120.028L133.317 123.02L145.461 111.605L142.65 108.614L130.505 120.028ZM115.479 120.028C119.691 115.546 126.293 115.546 130.505 120.028L142.65 108.614C131.856 97.1289 114.128 97.1289 103.334 108.614L115.479 120.028ZM115.479 137.524C110.991 132.748 110.991 124.804 115.479 120.028L103.334 108.614C92.8166 119.805 92.8166 137.747 103.334 148.938L115.479 137.524ZM145.335 169.291L115.479 137.524L103.334 148.938L133.19 180.705L145.335 169.291ZM136.002 166.299L133.19 169.291L145.335 180.705L148.147 177.714L136.002 166.299ZM148.273 166.434L148.147 166.299L136.002 177.714L136.128 177.848L148.273 166.434ZM163.299 137.524L136.128 166.434L148.273 177.848L175.444 148.938L163.299 137.524ZM163.299 120.028C167.788 124.804 167.788 132.748 163.299 137.524L175.444 148.938C185.962 137.747 185.962 119.805 175.444 108.614L163.299 120.028Z" fill="#15E7BD" mask="url(#path-12-inside-1_17_6172)"/>
</svg>
