<svg width="200" height="200" viewBox="0 0 200 200" fill="none" xmlns="http://www.w3.org/2000/svg">
<path fill-rule="evenodd" clip-rule="evenodd" d="M41.6667 33.3333H158.333C162.936 33.3333 166.667 37.0643 166.667 41.6667V141.667C166.667 146.269 162.936 150 158.333 150V158.333C167.538 158.333 175 150.871 175 141.667V41.6667C175 32.4619 167.538 25 158.333 25H41.6667C32.4619 25 25 32.4619 25 41.6667V141.667C25 150.871 32.4619 158.333 41.6667 158.333H83.3333V150H41.6667C37.0643 150 33.3333 146.269 33.3333 141.667V41.6667C33.3333 37.0643 37.0643 33.3333 41.6667 33.3333Z" fill="#08003F"/>
<mask id="path-2-inside-1_17_6171" fill="white">
<path fill-rule="evenodd" clip-rule="evenodd" d="M126.672 117.75C126.672 117.152 126.187 116.667 125.589 116.667H116.089C115.491 116.667 115.006 117.152 115.006 117.75V124.422C115.006 124.907 114.682 125.33 114.22 125.48C113.146 125.828 112.109 126.259 111.116 126.765C110.684 126.985 110.157 126.914 109.814 126.571L105.09 121.847C104.667 121.424 103.981 121.424 103.558 121.847L96.8405 128.565C96.4174 128.988 96.4174 129.674 96.8405 130.097L101.562 134.819C101.905 135.162 101.976 135.69 101.756 136.122C101.251 137.111 100.821 138.144 100.473 139.214C100.323 139.675 99.9001 139.998 99.4153 139.998H92.7493C92.151 139.998 91.666 140.483 91.666 141.082L91.666 150.582C91.666 151.18 92.151 151.665 92.7493 151.665H99.4155C99.9002 151.665 100.323 151.988 100.473 152.449C100.822 153.522 101.253 154.558 101.759 155.549C101.98 155.981 101.91 156.509 101.567 156.852L96.8551 161.563C96.432 161.987 96.432 162.672 96.8551 163.096L103.573 169.813C103.996 170.236 104.682 170.236 105.105 169.813L109.822 165.096C110.165 164.753 110.692 164.682 111.124 164.902C112.114 165.407 113.149 165.836 114.22 166.183C114.682 166.333 115.006 166.756 115.006 167.241V173.917C115.006 174.515 115.491 175 116.089 175H125.589C126.187 175 126.672 174.515 126.672 173.917V167.228C126.672 166.744 126.995 166.321 127.455 166.171C128.519 165.824 129.546 165.396 130.528 164.894C130.96 164.674 131.488 164.745 131.831 165.088L136.556 169.813C136.979 170.236 137.665 170.236 138.088 169.813L144.806 163.095C145.229 162.672 145.229 161.986 144.806 161.563L140.079 156.836C139.736 156.493 139.665 155.966 139.885 155.534C140.388 154.547 140.817 153.517 141.164 152.449C141.314 151.988 141.737 151.665 142.222 151.665H148.916C149.514 151.665 149.999 151.18 149.999 150.582V141.082C149.999 140.483 149.514 139.998 148.916 139.998H142.222C141.737 139.998 141.314 139.675 141.164 139.214C140.818 138.149 140.391 137.121 139.889 136.137C139.669 135.705 139.74 135.178 140.083 134.835L144.82 130.097C145.244 129.674 145.244 128.988 144.82 128.565L138.103 121.848C137.68 121.425 136.994 121.425 136.571 121.848L131.839 126.579C131.496 126.922 130.968 126.993 130.536 126.772C129.551 126.269 128.521 125.84 127.455 125.492C126.995 125.342 126.672 124.919 126.672 124.435V117.75ZM120.814 155.556C126.183 155.556 130.536 151.203 130.536 145.834C130.536 140.464 126.183 136.111 120.814 136.111C115.445 136.111 111.092 140.464 111.092 145.834C111.092 151.203 115.445 155.556 120.814 155.556Z"/>
</mask>
<path fill-rule="evenodd" clip-rule="evenodd" d="M126.672 117.75C126.672 117.152 126.187 116.667 125.589 116.667H116.089C115.491 116.667 115.006 117.152 115.006 117.75V124.422C115.006 124.907 114.682 125.33 114.22 125.48C113.146 125.828 112.109 126.259 111.116 126.765C110.684 126.985 110.157 126.914 109.814 126.571L105.09 121.847C104.667 121.424 103.981 121.424 103.558 121.847L96.8405 128.565C96.4174 128.988 96.4174 129.674 96.8405 130.097L101.562 134.819C101.905 135.162 101.976 135.69 101.756 136.122C101.251 137.111 100.821 138.144 100.473 139.214C100.323 139.675 99.9001 139.998 99.4153 139.998H92.7493C92.151 139.998 91.666 140.483 91.666 141.082L91.666 150.582C91.666 151.18 92.151 151.665 92.7493 151.665H99.4155C99.9002 151.665 100.323 151.988 100.473 152.449C100.822 153.522 101.253 154.558 101.759 155.549C101.98 155.981 101.91 156.509 101.567 156.852L96.8551 161.563C96.432 161.987 96.432 162.672 96.8551 163.096L103.573 169.813C103.996 170.236 104.682 170.236 105.105 169.813L109.822 165.096C110.165 164.753 110.692 164.682 111.124 164.902C112.114 165.407 113.149 165.836 114.22 166.183C114.682 166.333 115.006 166.756 115.006 167.241V173.917C115.006 174.515 115.491 175 116.089 175H125.589C126.187 175 126.672 174.515 126.672 173.917V167.228C126.672 166.744 126.995 166.321 127.455 166.171C128.519 165.824 129.546 165.396 130.528 164.894C130.96 164.674 131.488 164.745 131.831 165.088L136.556 169.813C136.979 170.236 137.665 170.236 138.088 169.813L144.806 163.095C145.229 162.672 145.229 161.986 144.806 161.563L140.079 156.836C139.736 156.493 139.665 155.966 139.885 155.534C140.388 154.547 140.817 153.517 141.164 152.449C141.314 151.988 141.737 151.665 142.222 151.665H148.916C149.514 151.665 149.999 151.18 149.999 150.582V141.082C149.999 140.483 149.514 139.998 148.916 139.998H142.222C141.737 139.998 141.314 139.675 141.164 139.214C140.818 138.149 140.391 137.121 139.889 136.137C139.669 135.705 139.74 135.178 140.083 134.835L144.82 130.097C145.244 129.674 145.244 128.988 144.82 128.565L138.103 121.848C137.68 121.425 136.994 121.425 136.571 121.848L131.839 126.579C131.496 126.922 130.968 126.993 130.536 126.772C129.551 126.269 128.521 125.84 127.455 125.492C126.995 125.342 126.672 124.919 126.672 124.435V117.75ZM120.814 155.556C126.183 155.556 130.536 151.203 130.536 145.834C130.536 140.464 126.183 136.111 120.814 136.111C115.445 136.111 111.092 140.464 111.092 145.834C111.092 151.203 115.445 155.556 120.814 155.556Z" fill="white"/>
<path d="M131.839 126.579L134.785 129.526L131.839 126.579ZM130.536 126.772L132.432 123.062L130.536 126.772ZM138.103 121.848L141.049 118.901L138.103 121.848ZM136.571 121.848L133.625 118.901L136.571 121.848ZM144.82 130.097L141.874 127.151L144.82 130.097ZM144.82 128.565L147.767 125.619L144.82 128.565ZM139.889 136.137L136.177 138.028L139.889 136.137ZM140.083 134.835L143.029 137.781L140.083 134.835ZM141.164 152.449L145.127 153.737L141.164 152.449ZM139.885 155.534L136.173 153.641L139.885 155.534ZM144.806 163.095L141.86 160.149L144.806 163.095ZM138.088 169.813L135.142 166.866L138.088 169.813ZM130.528 164.894L132.423 168.606L130.528 164.894ZM127.455 166.171L128.747 170.132L127.455 166.171ZM114.22 166.183L112.936 170.147L114.22 166.183ZM109.822 165.096L106.876 162.149L109.822 165.096ZM111.124 164.902L109.233 168.615L111.124 164.902ZM103.573 169.813L100.626 172.759L103.573 169.813ZM105.105 169.813L108.051 172.759L105.105 169.813ZM96.8551 161.563L93.9088 158.617L96.8551 161.563ZM96.8551 163.096L93.9088 166.042L96.8551 163.096ZM101.759 155.549L105.47 153.653L101.759 155.549ZM101.567 156.852L98.6202 153.906L101.567 156.852ZM100.473 152.449L96.5105 153.737L100.473 152.449ZM100.473 139.214L104.436 140.502L100.473 139.214ZM101.756 136.122L105.467 138.016L101.756 136.122ZM96.8405 128.565L93.8942 125.619L96.8405 128.565ZM96.8405 130.097L93.8942 133.043L96.8405 130.097ZM105.09 121.847L108.036 118.901L105.09 121.847ZM103.558 121.847L106.504 124.794L103.558 121.847ZM111.116 126.765L109.224 123.053L111.116 126.765ZM109.814 126.571L106.868 129.518L109.814 126.571ZM114.22 125.48L115.505 129.443L114.22 125.48ZM116.089 120.833H125.589V112.5H116.089V120.833ZM119.172 124.422V117.75H110.839V124.422H119.172ZM113.009 130.477C113.807 130.07 114.641 129.723 115.505 129.443L112.936 121.516C111.651 121.932 110.41 122.448 109.224 123.053L113.009 130.477ZM102.144 124.794L106.868 129.518L112.76 123.625L108.036 118.901L102.144 124.794ZM99.7868 131.511L106.504 124.794L100.612 118.901L93.8942 125.619L99.7868 131.511ZM104.509 131.873L99.7868 127.151L93.8942 133.043L98.6162 137.765L104.509 131.873ZM104.436 140.502C104.715 139.642 105.061 138.811 105.467 138.016L98.0444 134.227C97.4409 135.41 96.9265 136.646 96.5103 137.927L104.436 140.502ZM92.7493 144.165H99.4153V135.832H92.7493V144.165ZM95.8327 150.582L95.8327 141.082L87.4993 141.082L87.4993 150.582L95.8327 150.582ZM99.4155 147.498H92.7493V155.832H99.4155V147.498ZM105.47 153.653C105.063 152.856 104.716 152.023 104.436 151.161L96.5105 153.737C96.9278 155.021 97.4436 156.26 98.0489 157.444L105.47 153.653ZM99.8013 164.51L104.513 159.798L98.6202 153.906L93.9088 158.617L99.8013 164.51ZM106.519 166.867L99.8013 160.149L93.9088 166.042L100.626 172.759L106.519 166.867ZM106.876 162.149L102.158 166.867L108.051 172.759L112.768 168.042L106.876 162.149ZM115.505 162.219C114.643 161.94 113.812 161.595 113.015 161.189L109.233 168.615C110.416 169.218 111.654 169.732 112.936 170.147L115.505 162.219ZM119.172 173.917V167.241H110.839V173.917H119.172ZM125.589 170.833H116.089V179.167H125.589V170.833ZM122.506 167.228V173.917H130.839V167.228H122.506ZM128.634 161.183C127.844 161.587 127.018 161.931 126.163 162.209L128.747 170.132C130.019 169.717 131.247 169.205 132.423 168.606L128.634 161.183ZM139.503 166.866L134.777 162.141L128.885 168.034L133.61 172.759L139.503 166.866ZM141.86 160.149L135.142 166.866L141.035 172.759L147.752 166.041L141.86 160.149ZM137.133 159.782L141.86 164.509L147.752 158.617L143.025 153.89L137.133 159.782ZM137.201 151.161C136.923 152.019 136.578 152.847 136.173 153.641L143.598 157.426C144.199 156.247 144.712 155.014 145.127 153.737L137.201 151.161ZM148.916 147.498H142.222V155.832H148.916V147.498ZM145.833 141.082V150.582H154.166V141.082H145.833ZM142.222 144.165H148.916V135.832H142.222V144.165ZM136.177 138.028C136.58 138.82 136.923 139.647 137.202 140.502L145.127 137.927C144.713 136.652 144.201 135.422 143.602 134.246L136.177 138.028ZM141.874 127.151L137.137 131.889L143.029 137.781L147.767 133.043L141.874 127.151ZM135.157 124.794L141.874 131.511L147.767 125.619L141.049 118.901L135.157 124.794ZM134.785 129.526L139.517 124.794L133.625 118.901L128.893 123.633L134.785 129.526ZM126.163 129.454C127.02 129.733 127.848 130.078 128.64 130.483L132.432 123.062C131.254 122.46 130.023 121.947 128.747 121.531L126.163 129.454ZM122.506 117.75V124.435H130.839V117.75H122.506ZM126.37 145.834C126.37 148.902 123.882 151.389 120.814 151.389V159.723C128.485 159.723 134.703 153.504 134.703 145.834H126.37ZM120.814 140.278C123.882 140.278 126.37 142.765 126.37 145.834H134.703C134.703 138.163 128.485 131.945 120.814 131.945V140.278ZM115.258 145.834C115.258 142.765 117.746 140.278 120.814 140.278V131.945C113.143 131.945 106.925 138.163 106.925 145.834H115.258ZM120.814 151.389C117.746 151.389 115.258 148.902 115.258 145.834H106.925C106.925 153.504 113.143 159.723 120.814 159.723V151.389ZM128.747 121.531C129.911 121.91 130.839 123.022 130.839 124.435H122.506C122.506 126.816 124.079 128.774 126.163 129.454L128.747 121.531ZM128.893 123.633C129.893 122.633 131.339 122.504 132.432 123.062L128.64 130.483C130.597 131.482 133.099 131.212 134.785 129.526L128.893 123.633ZM141.049 118.901C138.999 116.851 135.675 116.851 133.625 118.901L139.517 124.794C138.313 125.998 136.361 125.998 135.157 124.794L141.049 118.901ZM147.767 133.043C149.817 130.993 149.817 127.669 147.767 125.619L141.874 131.511C140.67 130.307 140.67 128.355 141.874 127.151L147.767 133.043ZM143.602 134.246C144.158 135.338 144.028 136.782 143.029 137.781L137.137 131.889C135.452 133.573 135.18 136.072 136.177 138.028L143.602 134.246ZM142.222 135.832C143.635 135.832 144.748 136.761 145.127 137.927L137.202 140.502C137.88 142.589 139.839 144.165 142.222 144.165V135.832ZM154.166 141.082C154.166 138.182 151.816 135.832 148.916 135.832V144.165C147.213 144.165 145.833 142.785 145.833 141.082H154.166ZM148.916 155.832C151.816 155.832 154.166 153.481 154.166 150.582H145.833C145.833 148.879 147.213 147.498 148.916 147.498V155.832ZM145.127 153.737C144.748 154.902 143.635 155.832 142.222 155.832V147.498C139.839 147.498 137.88 149.074 137.201 151.161L145.127 153.737ZM143.025 153.89C144.025 154.889 144.154 156.334 143.598 157.426L136.173 153.641C135.176 155.597 135.447 158.097 137.133 159.782L143.025 153.89ZM147.752 166.041C149.802 163.991 149.802 160.667 147.752 158.617L141.86 164.509C140.656 163.305 140.656 161.353 141.86 160.149L147.752 166.041ZM133.61 172.759C135.66 174.809 138.984 174.809 141.035 172.759L135.142 166.866C136.346 165.662 138.298 165.662 139.503 166.866L133.61 172.759ZM132.423 168.606C131.33 169.163 129.885 169.034 128.885 168.034L134.777 162.141C133.092 160.456 130.591 160.185 128.634 161.183L132.423 168.606ZM130.839 167.228C130.839 168.64 129.911 169.753 128.747 170.132L126.163 162.209C124.079 162.889 122.506 164.847 122.506 167.228H130.839ZM125.589 179.167C128.488 179.167 130.839 176.816 130.839 173.917H122.506C122.506 172.214 123.886 170.833 125.589 170.833V179.167ZM110.839 173.917C110.839 176.816 113.189 179.167 116.089 179.167V170.833C117.792 170.833 119.172 172.214 119.172 173.917H110.839ZM112.936 170.147C111.77 169.769 110.839 168.656 110.839 167.241H119.172C119.172 164.856 117.594 162.896 115.505 162.219L112.936 170.147ZM112.768 168.042C111.769 169.041 110.325 169.171 109.233 168.615L113.015 161.189C111.059 160.193 108.56 160.465 106.876 162.149L112.768 168.042ZM100.626 172.759C102.677 174.81 106.001 174.81 108.051 172.759L102.158 166.867C103.362 165.663 105.315 165.663 106.519 166.867L100.626 172.759ZM93.9088 158.617C91.8585 160.667 91.8585 163.992 93.9088 166.042L99.8013 160.149C101.005 161.353 101.005 163.306 99.8013 164.51L93.9088 158.617ZM98.0489 157.444C97.4907 156.352 97.62 154.906 98.6202 153.906L104.513 159.798C106.199 158.112 106.47 155.61 105.47 153.653L98.0489 157.444ZM99.4155 155.832C98.0019 155.832 96.8892 154.902 96.5105 153.737L104.436 151.161C103.757 149.074 101.799 147.498 99.4155 147.498V155.832ZM87.4993 150.582C87.4993 153.481 89.8499 155.832 92.7493 155.832V147.498C94.4522 147.498 95.8327 148.879 95.8327 150.582L87.4993 150.582ZM92.7493 135.832C89.8499 135.832 87.4993 138.182 87.4993 141.082L95.8327 141.082C95.8327 142.785 94.4522 144.165 92.7493 144.165V135.832ZM96.5103 137.927C96.889 136.761 98.0017 135.832 99.4153 135.832V144.165C101.798 144.165 103.757 142.589 104.436 140.502L96.5103 137.927ZM98.6162 137.765C97.6163 136.765 97.4868 135.32 98.0444 134.227L105.467 138.016C106.465 136.059 106.195 133.558 104.509 131.873L98.6162 137.765ZM93.8942 125.619C91.844 127.669 91.844 130.993 93.8942 133.043L99.7868 127.151C100.991 128.355 100.991 130.307 99.7868 131.511L93.8942 125.619ZM108.036 118.901C105.986 116.851 102.662 116.851 100.612 118.901L106.504 124.794C105.3 125.998 103.348 125.998 102.144 124.794L108.036 118.901ZM109.224 123.053C110.316 122.496 111.761 122.625 112.76 123.625L106.868 129.518C108.553 131.203 111.053 131.474 113.009 130.477L109.224 123.053ZM110.839 124.422C110.839 123.007 111.77 121.894 112.936 121.516L115.505 129.443C117.594 128.767 119.172 126.807 119.172 124.422H110.839ZM125.589 120.833C123.886 120.833 122.506 119.453 122.506 117.75H130.839C130.839 114.851 128.488 112.5 125.589 112.5V120.833ZM116.089 112.5C113.189 112.5 110.839 114.851 110.839 117.75H119.172C119.172 119.453 117.792 120.833 116.089 120.833V112.5Z" fill="#15E7BD" mask="url(#path-2-inside-1_17_6171)"/>
<path d="M33.333 41.6667C33.333 37.0643 37.064 33.3334 41.6663 33.3334H158.333C162.935 33.3334 166.666 37.0643 166.666 41.6667V58.3334H33.333V41.6667Z" fill="#15E7BD"/>
<circle cx="45.8337" cy="45.8333" r="4.16667" fill="#08003F"/>
<circle cx="62.4997" cy="45.8333" r="4.16667" fill="#08003F"/>
<circle cx="79.1667" cy="45.8333" r="4.16667" fill="#08003F"/>
<path d="M58.3327 75.0001L41.666 91.6668L58.3327 108.333" stroke="#08003F" stroke-width="8.33333" stroke-linecap="square"/>
<path d="M91.6663 75.0001L108.333 91.6668L91.6663 108.333" stroke="#08003F" stroke-width="8.33333" stroke-linecap="square"/>
<path d="M79.1663 66.6667L70.833 116.667" stroke="#08003F" stroke-width="8.33333" stroke-linecap="square"/>
<path d="M116.667 108.333H120.834" stroke="#08003F" stroke-width="8.33333" stroke-linecap="round"/>
<path d="M133.333 108.333H137.5" stroke="#08003F" stroke-width="8.33333" stroke-linecap="round"/>
<path d="M150 108.333H154.167" stroke="#08003F" stroke-width="8.33333" stroke-linecap="round"/>
</svg>
