<svg width="200" height="200" viewBox="0 0 200 200" fill="none" xmlns="http://www.w3.org/2000/svg">
<circle cx="62.5003" cy="62.5" r="16.6667" stroke="#15E7BD" stroke-width="8.33333"/>
<path d="M45.833 120.833L74.9997 91.6667L83.333 100M95.833 112.5L83.333 100M83.333 100L125 58.3334L150 83.3334" stroke="#08003F" stroke-width="8.33333" stroke-linecap="square"/>
<path d="M104.167 170.833L108.334 148.889L148.334 108.889L157.223 100L175 117.778L166.111 126.667L126.111 166.667L104.167 170.833Z" fill="white"/>
<path d="M108.334 148.889L104.167 170.833L126.111 166.667M108.334 148.889L148.334 108.889M108.334 148.889L126.111 166.667M126.111 166.667L166.111 126.667M148.334 108.889L157.223 100L175 117.778L166.111 126.667M148.334 108.889L166.111 126.667" stroke="#08003F" stroke-width="8.33333" stroke-linecap="square"/>
<mask id="path-5-inside-1_17_6168" fill="white">
<path fill-rule="evenodd" clip-rule="evenodd" d="M71.6701 126.083C71.6701 125.485 71.1851 125 70.5868 125H62.7534C62.1551 125 61.6701 125.485 61.6701 126.083V131.531C61.6701 132.016 61.3465 132.439 60.8861 132.592C60.0437 132.871 59.2284 133.21 58.4451 133.603C58.0118 133.82 57.4844 133.75 57.1415 133.407L53.285 129.55C52.862 129.127 52.176 129.127 51.753 129.55L46.214 135.089C45.7909 135.513 45.7909 136.198 46.214 136.622L50.0689 140.476C50.4118 140.819 50.482 141.347 50.2643 141.78C49.8718 142.562 49.5334 143.375 49.2543 144.216C49.1015 144.676 48.6789 144.999 48.1942 144.999H42.7503C42.152 144.999 41.667 145.484 41.667 146.082L41.667 153.916C41.667 154.514 42.152 154.999 42.7503 154.999H48.1947C48.6794 154.999 49.102 155.322 49.2548 155.782C49.5343 156.624 49.873 157.438 50.2661 158.22C50.4839 158.653 50.4138 159.181 50.0708 159.524L46.2214 163.373C45.7983 163.797 45.7983 164.482 46.2214 164.906L51.7604 170.445C52.1835 170.868 52.8694 170.868 53.2925 170.445L57.1453 166.592C57.4881 166.249 58.0154 166.179 58.4487 166.396C59.2308 166.788 60.045 167.126 60.8861 167.405C61.3465 167.558 61.6701 167.98 61.6701 168.465V173.917C61.6701 174.515 62.1551 175 62.7534 175H70.5868C71.1851 175 71.6701 174.515 71.6701 173.917V168.457C71.6701 167.972 71.9929 167.55 72.4525 167.397C73.2884 167.119 74.0975 166.782 74.8751 166.391C75.3084 166.173 75.8361 166.244 76.179 166.587L80.0372 170.445C80.4603 170.868 81.1462 170.868 81.5693 170.445L87.1083 164.906C87.5314 164.483 87.5314 163.797 87.1083 163.374L83.2485 159.514C82.9056 159.171 82.8354 158.644 83.0528 158.21C83.4439 157.431 83.781 156.62 84.0593 155.782C84.2122 155.322 84.6347 154.999 85.1195 154.999H90.5837C91.182 154.999 91.667 154.514 91.667 153.916V146.082C91.667 145.484 91.182 144.999 90.5837 144.999H85.12C84.6352 144.999 84.2126 144.676 84.0598 144.216C83.7818 143.379 83.4452 142.569 83.0546 141.79C82.8373 141.357 82.9076 140.829 83.2504 140.487L87.1157 136.621C87.5388 136.198 87.5388 135.512 87.1157 135.089L81.5767 129.55C81.1537 129.127 80.4677 129.127 80.0447 129.55L76.1828 133.412C75.8398 133.755 75.312 133.825 74.8786 133.607C74.1 133.216 73.2897 132.879 72.4525 132.6C71.9929 132.447 71.6701 132.025 71.6701 131.54V126.083ZM66.6504 158.333C71.2528 158.333 74.9837 154.602 74.9837 150C74.9837 145.398 71.2528 141.667 66.6504 141.667C62.048 141.667 58.3171 145.398 58.3171 150C58.3171 154.602 62.048 158.333 66.6504 158.333Z"/>
</mask>
<path fill-rule="evenodd" clip-rule="evenodd" d="M71.6701 126.083C71.6701 125.485 71.1851 125 70.5868 125H62.7534C62.1551 125 61.6701 125.485 61.6701 126.083V131.531C61.6701 132.016 61.3465 132.439 60.8861 132.592C60.0437 132.871 59.2284 133.21 58.4451 133.603C58.0118 133.82 57.4844 133.75 57.1415 133.407L53.285 129.55C52.862 129.127 52.176 129.127 51.753 129.55L46.214 135.089C45.7909 135.513 45.7909 136.198 46.214 136.622L50.0689 140.476C50.4118 140.819 50.482 141.347 50.2643 141.78C49.8718 142.562 49.5334 143.375 49.2543 144.216C49.1015 144.676 48.6789 144.999 48.1942 144.999H42.7503C42.152 144.999 41.667 145.484 41.667 146.082L41.667 153.916C41.667 154.514 42.152 154.999 42.7503 154.999H48.1947C48.6794 154.999 49.102 155.322 49.2548 155.782C49.5343 156.624 49.873 157.438 50.2661 158.22C50.4839 158.653 50.4138 159.181 50.0708 159.524L46.2214 163.373C45.7983 163.797 45.7983 164.482 46.2214 164.906L51.7604 170.445C52.1835 170.868 52.8694 170.868 53.2925 170.445L57.1453 166.592C57.4881 166.249 58.0154 166.179 58.4487 166.396C59.2308 166.788 60.045 167.126 60.8861 167.405C61.3465 167.558 61.6701 167.98 61.6701 168.465V173.917C61.6701 174.515 62.1551 175 62.7534 175H70.5868C71.1851 175 71.6701 174.515 71.6701 173.917V168.457C71.6701 167.972 71.9929 167.55 72.4525 167.397C73.2884 167.119 74.0975 166.782 74.8751 166.391C75.3084 166.173 75.8361 166.244 76.179 166.587L80.0372 170.445C80.4603 170.868 81.1462 170.868 81.5693 170.445L87.1083 164.906C87.5314 164.483 87.5314 163.797 87.1083 163.374L83.2485 159.514C82.9056 159.171 82.8354 158.644 83.0528 158.21C83.4439 157.431 83.781 156.62 84.0593 155.782C84.2122 155.322 84.6347 154.999 85.1195 154.999H90.5837C91.182 154.999 91.667 154.514 91.667 153.916V146.082C91.667 145.484 91.182 144.999 90.5837 144.999H85.12C84.6352 144.999 84.2126 144.676 84.0598 144.216C83.7818 143.379 83.4452 142.569 83.0546 141.79C82.8373 141.357 82.9076 140.829 83.2504 140.487L87.1157 136.621C87.5388 136.198 87.5388 135.512 87.1157 135.089L81.5767 129.55C81.1537 129.127 80.4677 129.127 80.0447 129.55L76.1828 133.412C75.8398 133.755 75.312 133.825 74.8786 133.607C74.1 133.216 73.2897 132.879 72.4525 132.6C71.9929 132.447 71.6701 132.025 71.6701 131.54V126.083ZM66.6504 158.333C71.2528 158.333 74.9837 154.602 74.9837 150C74.9837 145.398 71.2528 141.667 66.6504 141.667C62.048 141.667 58.3171 145.398 58.3171 150C58.3171 154.602 62.048 158.333 66.6504 158.333Z" fill="white"/>
<path d="M72.4525 132.6L71.1363 136.553L72.4525 132.6ZM76.1828 133.412L79.1291 136.358L76.1828 133.412ZM74.8786 133.607L73.0076 137.33L74.8786 133.607ZM81.5767 129.55L78.6305 132.496L81.5767 129.55ZM80.0447 129.55L77.0984 126.604L80.0447 129.55ZM87.1157 136.621L84.1695 133.675L87.1157 136.621ZM87.1157 135.089L84.1695 138.035L87.1157 135.089ZM83.0546 141.79L79.3302 143.658L83.0546 141.79ZM83.2504 140.487L80.3041 137.54L83.2504 140.487ZM84.0598 144.216L88.0141 142.903L84.0598 144.216ZM84.0593 155.782L80.1052 154.469L84.0593 155.782ZM83.0528 158.21L79.3288 156.341L83.0528 158.21ZM87.1083 164.906L90.0546 167.852L87.1083 164.906ZM81.5693 170.445L84.5156 173.391L81.5693 170.445ZM74.8751 166.391L76.7453 170.114L74.8751 166.391ZM72.4525 167.397L73.7687 171.35L72.4525 167.397ZM60.8861 167.405L62.1967 163.45L60.8861 167.405ZM57.1453 166.592L60.0916 169.538L57.1453 166.592ZM58.4487 166.396L60.3167 162.671L58.4487 166.396ZM51.7604 170.445L48.8141 173.391L51.7604 170.445ZM53.2925 170.445L56.2388 173.391L53.2925 170.445ZM50.2661 158.22L53.9891 156.349L50.2661 158.22ZM50.0708 159.524L47.1245 156.578L50.0708 159.524ZM49.2548 155.782L45.3006 157.096L49.2548 155.782ZM49.2543 144.216L45.3 142.903L49.2543 144.216ZM50.2643 141.78L46.541 139.91L50.2643 141.78ZM46.214 135.089L43.2677 132.143L46.214 135.089ZM53.285 129.55L56.2313 126.604L53.285 129.55ZM51.753 129.55L48.8067 126.604L51.753 129.55ZM58.4451 133.603L60.314 137.327L58.4451 133.603ZM57.1415 133.407L54.1953 136.353L57.1415 133.407ZM60.8861 132.592L62.1967 136.547L60.8861 132.592ZM62.7534 129.167H70.5868V120.833H62.7534V129.167ZM65.8368 131.531V126.083H57.5034V131.531H65.8368ZM60.314 137.327C60.9185 137.023 61.5473 136.762 62.1967 136.547L59.5755 128.637C58.54 128.98 57.5382 129.396 56.5762 129.879L60.314 137.327ZM50.3388 132.497L54.1953 136.353L60.0878 130.461L56.2313 126.604L50.3388 132.497ZM49.1603 138.036L54.6993 132.497L48.8067 126.604L43.2677 132.143L49.1603 138.036ZM53.0152 137.53L49.1603 133.675L43.2677 139.568L47.1226 143.423L53.0152 137.53ZM53.2086 145.529C53.4238 144.881 53.6847 144.254 53.9877 143.651L46.541 139.91C46.0588 140.87 45.6431 141.87 45.3 142.903L53.2086 145.529ZM42.7503 149.166H48.1942V140.832H42.7503V149.166ZM45.8337 153.916L45.8337 146.082L37.5003 146.082L37.5003 153.916H45.8337ZM48.1947 150.832H42.7503V159.166H48.1947V150.832ZM53.9891 156.349C53.6856 155.745 53.4244 155.117 53.209 154.469L45.3006 157.096C45.6441 158.13 46.0604 159.13 46.5432 160.091L53.9891 156.349ZM49.1677 166.32L53.0171 162.47L47.1245 156.578L43.2751 160.427L49.1677 166.32ZM54.7067 167.498L49.1677 161.959L43.2751 167.852L48.8141 173.391L54.7067 167.498ZM54.1991 163.645L50.3462 167.498L56.2388 173.391L60.0916 169.538L54.1991 163.645ZM62.1967 163.45C61.5483 163.235 60.9204 162.974 60.3167 162.671L56.5806 170.12C57.5413 170.602 58.5416 171.018 59.5755 171.36L62.1967 163.45ZM65.8368 173.917V168.465H57.5034V173.917H65.8368ZM70.5868 170.833H62.7534V179.167H70.5868V170.833ZM67.5034 168.457V173.917H75.8368V168.457H67.5034ZM73.0048 162.668C72.4047 162.969 71.7806 163.229 71.1363 163.444L73.7687 171.35C74.7962 171.008 75.7904 170.594 76.7453 170.114L73.0048 162.668ZM82.9835 167.499L79.1253 163.64L73.2327 169.533L77.091 173.391L82.9835 167.499ZM84.162 161.96L78.623 167.499L84.5156 173.391L90.0546 167.852L84.162 161.96ZM80.3022 162.46L84.162 166.32L90.0546 160.427L86.1947 156.568L80.3022 162.46ZM80.1052 154.469C79.8906 155.115 79.6306 155.74 79.3288 156.341L86.7769 160.079C87.2572 159.122 87.6714 158.126 88.0135 157.096L80.1052 154.469ZM90.5837 150.832H85.1195V159.166H90.5837V150.832ZM87.5003 146.082V153.916H95.8337V146.082H87.5003ZM85.12 149.166H90.5837V140.832H85.12V149.166ZM79.3302 143.658C79.6316 144.259 79.8913 144.884 80.1055 145.529L88.0141 142.903C87.6724 141.874 87.2587 140.878 86.7791 139.922L79.3302 143.658ZM84.1695 133.675L80.3041 137.54L86.1967 143.433L90.062 139.568L84.1695 133.675ZM78.6305 132.496L84.1695 138.035L90.062 132.143L84.523 126.604L78.6305 132.496ZM79.1291 136.358L82.991 132.496L77.0984 126.604L73.2365 130.466L79.1291 136.358ZM71.1363 136.553C71.7816 136.768 72.4066 137.028 73.0076 137.33L76.7497 129.884C75.7934 129.404 74.7978 128.989 73.7687 128.647L71.1363 136.553ZM67.5034 126.083V131.54H75.8368V126.083H67.5034ZM70.8171 150C70.8171 152.301 68.9516 154.167 66.6504 154.167V162.5C73.554 162.5 79.1504 156.904 79.1504 150H70.8171ZM66.6504 145.833C68.9516 145.833 70.8171 147.699 70.8171 150H79.1504C79.1504 143.096 73.554 137.5 66.6504 137.5V145.833ZM62.4837 150C62.4837 147.699 64.3492 145.833 66.6504 145.833V137.5C59.7468 137.5 54.1504 143.096 54.1504 150H62.4837ZM66.6504 154.167C64.3492 154.167 62.4837 152.301 62.4837 150H54.1504C54.1504 156.904 59.7468 162.5 66.6504 162.5V154.167ZM73.7687 128.647C74.9061 129.025 75.8368 130.122 75.8368 131.54H67.5034C67.5034 133.927 69.0796 135.868 71.1363 136.553L73.7687 128.647ZM73.2365 130.466C74.2403 129.462 75.6765 129.345 76.7497 129.884L73.0076 137.33C74.9476 138.305 77.4393 138.048 79.1291 136.358L73.2365 130.466ZM84.523 126.604C82.4728 124.554 79.1487 124.554 77.0984 126.604L82.991 132.496C81.7868 133.701 79.8346 133.701 78.6305 132.496L84.523 126.604ZM90.062 139.568C92.1123 137.517 92.1123 134.193 90.062 132.143L84.1695 138.035C82.9654 136.831 82.9654 134.879 84.1695 133.675L90.062 139.568ZM86.7791 139.922C87.3172 140.995 87.1997 142.43 86.1967 143.433L80.3041 137.54C78.6155 139.229 78.3574 141.718 79.3302 143.658L86.7791 139.922ZM85.12 140.832C86.5388 140.832 87.6361 141.764 88.0141 142.903L80.1055 145.529C80.7892 147.588 82.7316 149.166 85.12 149.166V140.832ZM95.8337 146.082C95.8337 143.183 93.4832 140.832 90.5837 140.832V149.166C88.8808 149.166 87.5003 147.785 87.5003 146.082H95.8337ZM90.5837 159.166C93.4832 159.166 95.8337 156.815 95.8337 153.916H87.5003C87.5003 152.213 88.8808 150.832 90.5837 150.832V159.166ZM88.0135 157.096C87.6354 158.234 86.5382 159.166 85.1195 159.166V150.832C82.7313 150.832 80.7889 152.41 80.1052 154.469L88.0135 157.096ZM86.1947 156.568C87.198 157.571 87.3154 159.006 86.7769 160.079L79.3288 156.341C78.3554 158.281 78.6133 160.771 80.3022 162.46L86.1947 156.568ZM90.0546 167.852C92.1048 165.802 92.1048 162.478 90.0546 160.427L84.162 166.32C82.9579 165.116 82.9579 163.164 84.162 161.96L90.0546 167.852ZM77.091 173.391C79.1412 175.441 82.4653 175.441 84.5156 173.391L78.623 167.499C79.8272 166.294 81.7794 166.294 82.9835 167.499L77.091 173.391ZM76.7453 170.114C75.6722 170.654 74.2363 170.536 73.2327 169.533L79.1253 163.64C77.4358 161.951 74.9447 161.693 73.0048 162.668L76.7453 170.114ZM75.8368 168.457C75.8368 169.875 74.9061 170.971 73.7687 171.35L71.1363 163.444C69.0796 164.128 67.5034 166.07 67.5034 168.457H75.8368ZM70.5868 179.167C73.4862 179.167 75.8368 176.816 75.8368 173.917H67.5034C67.5034 172.214 68.8839 170.833 70.5868 170.833V179.167ZM57.5034 173.917C57.5034 176.816 59.8539 179.167 62.7534 179.167V170.833C64.4563 170.833 65.8368 172.214 65.8368 173.917H57.5034ZM59.5755 171.36C58.4363 170.983 57.5034 169.885 57.5034 168.465H65.8368C65.8368 166.076 64.2568 164.132 62.1967 163.45L59.5755 171.36ZM60.0916 169.538C59.0886 170.541 57.6536 170.659 56.5806 170.12L60.3167 162.671C58.3772 161.699 55.8876 161.957 54.1991 163.645L60.0916 169.538ZM48.8141 173.391C50.8644 175.441 54.1885 175.441 56.2388 173.391L50.3462 167.498C51.5503 166.294 53.5026 166.294 54.7067 167.498L48.8141 173.391ZM43.2751 160.427C41.2249 162.477 41.2249 165.802 43.2751 167.852L49.1677 161.959C50.3718 163.163 50.3718 165.116 49.1677 166.32L43.2751 160.427ZM46.5432 160.091C46.0038 159.018 46.1207 157.582 47.1245 156.578L53.0171 162.47C54.7068 160.781 54.9641 158.289 53.9891 156.349L46.5432 160.091ZM48.1947 159.166C46.7759 159.166 45.6787 158.234 45.3006 157.096L53.209 154.469C52.5252 152.41 50.5829 150.832 48.1947 150.832V159.166ZM37.5003 153.916C37.5003 156.815 39.8508 159.166 42.7503 159.166V150.832C44.4532 150.832 45.8337 152.213 45.8337 153.916H37.5003ZM42.7503 140.832C39.8508 140.832 37.5003 143.183 37.5003 146.082L45.8337 146.082C45.8337 147.785 44.4532 149.166 42.7503 149.166V140.832ZM45.3 142.903C45.6781 141.764 46.7753 140.832 48.1942 140.832V149.166C50.5825 149.166 52.525 147.588 53.2086 145.529L45.3 142.903ZM47.1226 143.423C46.119 142.419 46.0019 140.983 46.541 139.91L53.9877 143.651C54.9621 141.711 54.7046 139.22 53.0152 137.53L47.1226 143.423ZM43.2677 132.143C41.2174 134.193 41.2174 137.518 43.2677 139.568L49.1603 133.675C50.3644 134.879 50.3644 136.832 49.1603 138.036L43.2677 132.143ZM56.2313 126.604C54.1811 124.554 50.857 124.554 48.8067 126.604L54.6993 132.497C53.4951 133.701 51.5429 133.701 50.3388 132.497L56.2313 126.604ZM56.5762 129.879C57.6492 129.34 59.0846 129.457 60.0878 130.461L54.1953 136.353C55.8842 138.042 58.3743 138.3 60.314 137.327L56.5762 129.879ZM57.5034 131.531C57.5034 130.112 58.4363 129.014 59.5755 128.637L62.1967 136.547C64.2568 135.864 65.8368 133.921 65.8368 131.531H57.5034ZM70.5868 129.167C68.8839 129.167 67.5034 127.786 67.5034 126.083H75.8368C75.8368 123.184 73.4863 120.833 70.5868 120.833V129.167ZM62.7534 120.833C59.8539 120.833 57.5034 123.184 57.5034 126.083H65.8368C65.8368 127.786 64.4563 129.167 62.7534 129.167V120.833Z" fill="#15E7BD" mask="url(#path-5-inside-1_17_6168)"/>
<path fill-rule="evenodd" clip-rule="evenodd" d="M41.6667 33.3333H158.333C162.936 33.3333 166.667 37.0643 166.667 41.6667V100H175V41.6667C175 32.4619 167.538 25 158.333 25H41.6667C32.4619 25 25 32.4619 25 41.6667V158.333C25 167.538 32.4619 175 41.6667 175V166.667C37.0643 166.667 33.3333 162.936 33.3333 158.333V41.6667C33.3333 37.0643 37.0643 33.3333 41.6667 33.3333ZM158.333 175H141.667V166.667H158.333C162.936 166.667 166.667 162.936 166.667 158.333V141.667H175V158.333C175 167.538 167.538 175 158.333 175Z" fill="#08003F"/>
</svg>
