<svg width="200" height="200" viewBox="0 0 200 200" fill="none" xmlns="http://www.w3.org/2000/svg">
<path d="M33.333 41.6667C33.333 37.0643 37.064 33.3334 41.6663 33.3334H158.333C162.935 33.3334 166.666 37.0643 166.666 41.6667V58.3334H33.333V41.6667Z" fill="#15E7BD"/>
<circle cx="45.8337" cy="45.8333" r="4.16667" fill="#08003F"/>
<circle cx="62.4997" cy="45.8333" r="4.16667" fill="#08003F"/>
<circle cx="79.1667" cy="45.8333" r="4.16667" fill="#08003F"/>
<path fill-rule="evenodd" clip-rule="evenodd" d="M41.6667 33.3333H158.333C162.936 33.3333 166.667 37.0643 166.667 41.6667V158.333C166.667 162.936 162.936 166.667 158.333 166.667H125V175H158.333C167.538 175 175 167.538 175 158.333V41.6667C175 32.4619 167.538 25 158.333 25H41.6667C32.4619 25 25 32.4619 25 41.6667V158.333C25 167.538 32.4619 175 41.6667 175H75V166.667H41.6667C37.0643 166.667 33.3333 162.936 33.3333 158.333V41.6667C33.3333 37.0643 37.0643 33.3333 41.6667 33.3333Z" fill="#08003F"/>
<path fill-rule="evenodd" clip-rule="evenodd" d="M50.0003 75.0001H150V125H133.334V133.333H150H158.334V125V75.0001V66.6667H150H50.0003H41.667V75.0001V125V133.333H50.0003H66.667V125H50.0003V75.0001Z" fill="#08003F"/>
<path d="M66.667 100L75.0003 108.333" stroke="#15E7BD" stroke-width="8.33333" stroke-linecap="square"/>
<path d="M133.333 100L125 108.333" stroke="#15E7BD" stroke-width="8.33333" stroke-linecap="square"/>
<path d="M114.03 81.8075L110.98 93.191" stroke="#15E7BD" stroke-width="8.33333" stroke-linecap="square"/>
<path d="M85.498 83.3334L91.3906 93.5396" stroke="#15E7BD" stroke-width="8.33333" stroke-linecap="square"/>
<path d="M83.333 125L99.9997 108.333L116.666 125M83.333 125H116.666M83.333 125V158.333M116.666 125V158.333M83.333 158.333V175H116.666V158.333M83.333 158.333H116.666" stroke="#08003F" stroke-width="8.33333" stroke-linecap="square"/>
<path d="M45.833 141.667H70.833M129.166 141.667H154.166" stroke="#08003F" stroke-width="8.33333" stroke-linecap="round"/>
<path d="M45.833 158.333H70.833M129.166 158.333H154.166" stroke="#08003F" stroke-width="8.33333" stroke-linecap="round"/>
</svg>
